<?xml version="1.0" standalone="no"?>
<!DOCTYPE svg PUBLIC "-//W3C//DTD SVG 1.1//EN" "http://www.w3.org/Graphics/SVG/1.1/DTD/svg11.dtd" >
<svg xmlns="http://www.w3.org/2000/svg" xmlns:xlink="http://www.w3.org/1999/xlink" version="1.1">
<metadata>
Created by FontForge 20201107 at Fri Oct 16 18:10:58 2020
 By Jimmy Wärting
Copyright \(c\) 2019 by Morula Type. All rights reserved.
</metadata>
<defs>
<font id="Migra-Extralight" horiz-adv-x="1000" >
  <font-face 
    font-family="Migra Extralight"
    font-weight="200"
    font-stretch="normal"
    units-per-em="1000"
    panose-1="0 0 3 0 0 0 0 0 0 0"
    ascent="750"
    descent="-250"
    x-height="522"
    cap-height="675"
    bbox="-607 -279 1795 978"
    underline-thickness="20"
    underline-position="-60"
    stemh="60"
    stemv="18"
    unicode-range="U+0020-FB02"
  />
<missing-glyph horiz-adv-x="600" 
 />
    <glyph glyph-name="f_f" unicode="ff" horiz-adv-x="626" 
d="M546 762c86 0 131 -39 157 -79l-44 -83l-5 3c9 74 -61 124 -129 124c-57 0 -91 -36 -91 -98c0 -48 24 -95 27 -107v-1h160v-32l-160 4l-1 -463l110 -24v-6h-256v6l90 24l1 464c-101 3 -208 6 -247 9l-1 -473h1l118 -24v-6h-264v6l90 24h-1l1 473l-87 13v6h86l-2 49
c-8 152 102 191 144 191c86 0 131 -39 157 -79l-44 -83l-5 3c9 74 -61 124 -129 124c-57 0 -91 -36 -91 -98c0 -48 24 -95 27 -107l247 -1l-3 50c-8 152 102 191 144 191z" />
    <glyph glyph-name="f_f_i" unicode="ffi" horiz-adv-x="810" 
d="M722 30l90 -24v-6h-236v6l90 24v460c-52 1 -134 2 -217 4l-1 -464l118 -24v-6h-264v6l91 24v465c-103 3 -200 6 -235 8l-1 -473h1l118 -24v-6h-264v6l90 24v473l-87 13v6h86l-2 49c-8 152 130 191 179 191c87 0 128 -30 152 -64c43 49 108 64 139 64
c100 0 149 -39 172 -79l-44 -83l-5 3c9 74 -62 124 -144 124c-73 0 -126 -46 -126 -108c0 -48 24 -85 27 -97v-1h273v-491zM131 619c0 -48 24 -85 27 -97h235l-3 49c-1 15 0 30 2 43c2 68 -57 113 -135 113c-73 0 -126 -46 -126 -108z" />
    <glyph glyph-name="f_f_l" unicode="ffl" horiz-adv-x="834" 
d="M732 30h11l90 -24v-6h-236v6l79 21v463c-54 1 -140 2 -227 4l-1 -464l118 -24v-6h-264v6l91 24v465c-104 3 -200 6 -235 8l-1 -473h1l118 -24v-6h-264v6l90 24v473l-87 13v6h86l-2 49c-8 152 130 191 179 191c87 0 128 -30 152 -64c43 49 108 64 139 64
c70 0 111 -19 136 -45l21 42h6v-729zM131 619c0 -48 24 -85 27 -97h235l-3 49c-1 15 0 30 2 43c2 68 -57 113 -135 113c-73 0 -126 -46 -126 -108zM449 522v-1h227v134c-18 44 -67 72 -128 72c-73 0 -126 -46 -126 -108c0 -48 24 -85 27 -97z" />
    <glyph glyph-name="fi" unicode="fi" horiz-adv-x="520" 
d="M432 30l90 -24v-6h-236v6l90 24v461c-65 3 -163 8 -212 12h-5l-1 -473l118 -24v-6h-264v6l91 24v473l-88 13v6h87l-2 49c-8 152 130 191 179 191c100 0 149 -39 172 -79l-44 -83l-5 3c9 74 -62 124 -144 124c-73 0 -126 -46 -126 -108c0 -48 24 -85 27 -97l273 -1v-491z
" />
    <glyph glyph-name="fl" unicode="fl" horiz-adv-x="534" 
d="M442 30h1l90 -24v-6h-236v6l89 24v461c-68 3 -173 8 -222 12h-5l-1 -473l118 -24v-6h-264v6l91 24v473l-88 13v6h87l-2 49c-8 152 130 191 179 191c70 0 111 -19 136 -45l21 42h6v-729zM159 522l227 -1v134c-18 44 -67 72 -128 72c-73 0 -126 -46 -126 -108
c0 -48 24 -85 27 -97z" />
    <glyph glyph-name=".notdef" horiz-adv-x="600" 
 />
    <glyph glyph-name="space" unicode=" " horiz-adv-x="200" 
 />
    <glyph glyph-name="A" unicode="A" horiz-adv-x="516" 
d="M215 675h69l218 -669v-6h-160v6l86 33l-66 199h-244l-13 -37c-51 -144 -48 -157 54 -195v-6h-148v6l219 617l-15 46v6zM242 590l-118 -334h232l-110 334h-4z" />
    <glyph glyph-name="Aacute" unicode="&#xc1;" horiz-adv-x="516" 
d="M389 859v-6l-136 -145h-7l65 151h78zM215 675h69l218 -669v-6h-160v6l86 33l-66 199h-244l-13 -37c-51 -144 -48 -157 54 -195v-6h-148v6l219 617l-15 46v6zM242 590l-118 -334h232l-110 334h-4z" />
    <glyph glyph-name="Abreve" unicode="&#x102;" horiz-adv-x="516" 
d="M250 727c-58 0 -109 42 -109 112h7c0 -35 54 -55 102 -55s102 20 102 55h7c0 -70 -51 -112 -109 -112zM215 675h69l218 -669v-6h-160v6l86 33l-66 199h-244l-13 -37c-51 -144 -48 -157 54 -195v-6h-148v6l219 617l-15 46v6zM242 590l-118 -334h232l-110 334h-4z" />
    <glyph glyph-name="Acircumflex" unicode="&#xc2;" horiz-adv-x="516" 
d="M365 715l-115 76h-3l-113 -76v6l116 139h3l112 -139v-6zM215 675h69l218 -669v-6h-160v6l86 33l-66 199h-244l-13 -37c-51 -144 -48 -157 54 -195v-6h-148v6l219 617l-15 46v6zM242 590l-118 -334h232l-110 334h-4z" />
    <glyph glyph-name="Adieresis" unicode="&#xc4;" horiz-adv-x="516" 
d="M159 760c-21 0 -37 16 -37 37c0 19 16 36 37 36c20 0 36 -17 36 -36c0 -21 -16 -37 -36 -37zM341 760c-21 0 -37 16 -37 37c0 19 16 36 37 36c20 0 36 -17 36 -36c0 -21 -16 -37 -36 -37zM215 675h69l218 -669v-6h-160v6l86 33l-66 199h-244l-13 -37
c-51 -144 -48 -157 54 -195v-6h-148v6l219 617l-15 46v6zM242 590l-118 -334h232l-110 334h-4z" />
    <glyph glyph-name="uni1EA0" unicode="&#x1ea0;" horiz-adv-x="516" 
d="M215 675h69l218 -669v-6h-160v6l86 33l-66 199h-244l-13 -37c-51 -144 -48 -157 54 -195v-6h-148v6l219 617l-15 46v6zM242 590l-118 -334h232l-110 334h-4zM257 -95c25 0 45 -21 45 -45c0 -26 -20 -46 -45 -46c-26 0 -46 20 -46 46c0 24 20 45 46 45z" />
    <glyph glyph-name="Agrave" unicode="&#xc0;" horiz-adv-x="516" 
d="M192 859l65 -151h-7l-136 145v6h78zM215 675h69l218 -669v-6h-160v6l86 33l-66 199h-244l-13 -37c-51 -144 -48 -157 54 -195v-6h-148v6l219 617l-15 46v6zM242 590l-118 -334h232l-110 334h-4z" />
    <glyph glyph-name="Amacron" unicode="&#x100;" horiz-adv-x="516" 
d="M99 788h301v-32h-301v32zM215 675h69l218 -669v-6h-160v6l86 33l-66 199h-244l-13 -37c-51 -144 -48 -157 54 -195v-6h-148v6l219 617l-15 46v6zM242 590l-118 -334h232l-110 334h-4z" />
    <glyph glyph-name="Aogonek" unicode="&#x104;" horiz-adv-x="545" 
d="M526 -177l5 -4c-45 -46 -86 -74 -99 -74c-22 0 -83 9 -83 71c0 55 47 115 88 192l-75 230h-244l-13 -37c-51 -144 -48 -157 54 -195v-6h-148v6l219 617l-15 46v6h69l218 -669v-6h-54c-53 -84 -83 -214 7 -214c25 0 51 20 71 37zM242 590l-118 -334h232l-110 334h-4z" />
    <glyph glyph-name="Aring" unicode="&#xc5;" horiz-adv-x="516" 
d="M250 701c-53 0 -94 42 -94 94s41 94 94 94c52 0 94 -42 94 -94s-42 -94 -94 -94zM250 872c-42 0 -75 -34 -75 -77s33 -77 75 -77s75 34 75 77s-33 77 -75 77zM215 675h69l218 -669v-6h-160v6l86 33l-66 199h-244l-13 -37c-51 -144 -48 -157 54 -195v-6h-148v6l219 617
l-15 46v6zM242 590l-118 -334h232l-110 334h-4z" />
    <glyph glyph-name="Atilde" unicode="&#xc3;" horiz-adv-x="516" 
d="M161 791c-20 0 -49 -2 -64 -47h-5c12 50 47 94 89 94c49 0 112 -47 160 -47c20 0 49 0 66 58h5c-8 -61 -42 -105 -89 -105c-51 0 -119 47 -162 47zM215 675h69l218 -669v-6h-160v6l86 33l-66 199h-244l-13 -37c-51 -144 -48 -157 54 -195v-6h-148v6l219 617l-15 46v6z
M242 590l-118 -334h232l-110 334h-4z" />
    <glyph glyph-name="AE" unicode="&#xc6;" horiz-adv-x="808" 
d="M736 207h6l66 -207h-466v6l86 33l-66 199h-244l-13 -37c-51 -144 -48 -157 54 -195v-6h-148v6l219 617l-15 46v6h362l66 -207h-6c-13 21 -23 39 -32 55c-78 132 -80 134 -146 134h-169l100 -306h90c65 0 47 34 51 122h6l84 -262h-6c-61 90 -65 122 -130 122h-90l103 -315
h180c66 0 66 2 60 134c-1 16 -1 34 -2 55zM242 590l-118 -334h232l-110 334h-4z" />
    <glyph glyph-name="AEacute" unicode="&#x1fc;" horiz-adv-x="808" 
d="M533 859v-6l-136 -145h-7l65 151h78zM736 207h6l66 -207h-466v6l86 33l-66 199h-244l-13 -37c-51 -144 -48 -157 54 -195v-6h-148v6l219 617l-15 46v6h362l66 -207h-6c-13 21 -23 39 -32 55c-78 132 -80 134 -146 134h-169l100 -306h90c65 0 47 34 51 122h6l84 -262h-6
c-61 90 -65 122 -130 122h-90l103 -315h180c66 0 66 2 60 134c-1 16 -1 34 -2 55zM242 590l-118 -334h232l-110 334h-4z" />
    <glyph glyph-name="B" unicode="B" horiz-adv-x="584" 
d="M396 358v-3c65 -4 155 -44 155 -158c0 -94 -69 -197 -273 -197h-247v6l83 33v597l-83 33v6h294c111 0 189 -52 189 -145c0 -103 -122 -174 -118 -172zM289 655h-116v-298l125 1c107 1 152 50 152 148c0 85 -50 149 -161 149zM278 21c138 3 206 43 206 162
c0 105 -52 157 -208 157h-103v-318c50 0 97 -1 105 -1z" />
    <glyph glyph-name="C" unicode="C" horiz-adv-x="530" 
d="M311 -10c-161 0 -281 152 -277 349c5 269 241 346 279 346c113 0 177 -49 200 -100l-49 -118h-6c28 113 -65 172 -166 172c-54 0 -203 -23 -208 -251c-4 -197 100 -354 264 -354c62 0 102 25 140 47l4 -9c-64 -40 -155 -82 -181 -82z" />
    <glyph glyph-name="Cacute" unicode="&#x106;" horiz-adv-x="530" 
d="M377 859h78v-6l-136 -145h-7zM311 -10c-161 0 -281 152 -277 349c5 269 241 346 279 346c113 0 177 -49 200 -100l-49 -118h-6c28 113 -65 172 -166 172c-54 0 -203 -23 -208 -251c-4 -197 100 -354 264 -354c62 0 102 25 140 47l4 -9c-64 -40 -155 -82 -181 -82z" />
    <glyph glyph-name="Ccaron" unicode="&#x10c;" horiz-adv-x="530" 
d="M316 711l-116 139v6l113 -76h3l115 76v-6l-112 -139h-3zM311 -10c-161 0 -281 152 -277 349c5 269 241 346 279 346c113 0 177 -49 200 -100l-49 -118h-6c28 113 -65 172 -166 172c-54 0 -203 -23 -208 -251c-4 -197 100 -354 264 -354c62 0 102 25 140 47l4 -9
c-64 -40 -155 -82 -181 -82z" />
    <glyph glyph-name="Ccedilla" unicode="&#xc7;" horiz-adv-x="530" 
d="M311 -10c-6 0 -12 0 -18 1l-30 -55c49 -11 86 -40 86 -83c0 -44 -39 -87 -120 -110l-1 5c60 19 77 47 77 77c0 37 -32 58 -81 62l-1 6l58 99c-146 18 -251 163 -247 347c5 269 241 346 279 346c113 0 177 -49 200 -100l-49 -118h-6c28 113 -65 172 -166 172
c-54 0 -203 -23 -208 -251c-4 -197 100 -354 264 -354c62 0 102 25 140 47l4 -9c-64 -40 -155 -82 -181 -82z" />
    <glyph glyph-name="Ccircumflex" unicode="&#x108;" horiz-adv-x="530" 
d="M200 715v6l116 139h3l112 -139v-6l-115 76h-3zM311 -10c-161 0 -281 152 -277 349c5 269 241 346 279 346c113 0 177 -49 200 -100l-49 -118h-6c28 113 -65 172 -166 172c-54 0 -203 -23 -208 -251c-4 -197 100 -354 264 -354c62 0 102 25 140 47l4 -9
c-64 -40 -155 -82 -181 -82z" />
    <glyph glyph-name="Cdotaccent" unicode="&#x10a;" horiz-adv-x="530" 
d="M316 784c-26 0 -46 20 -46 46c0 24 20 45 46 45c25 0 45 -21 45 -45c0 -26 -20 -46 -45 -46zM311 -10c-161 0 -281 152 -277 349c5 269 241 346 279 346c113 0 177 -49 200 -100l-49 -118h-6c28 113 -65 172 -166 172c-54 0 -203 -23 -208 -251
c-4 -197 100 -354 264 -354c62 0 102 25 140 47l4 -9c-64 -40 -155 -82 -181 -82z" />
    <glyph glyph-name="D" unicode="D" horiz-adv-x="611" 
d="M241 675c208 0 334 -114 334 -329c0 -160 -90 -346 -364 -346h-180v6l83 33v597l-83 33v6h210zM173 18h33c217 2 306 117 306 320c0 191 -90 319 -297 319h-42v-639z" />
    <glyph glyph-name="Eth" unicode="&#xd0;" horiz-adv-x="611" 
d="M241 675c208 0 334 -114 334 -329c0 -160 -90 -346 -364 -346h-180v6l83 33v290h-86v18h86v289l-83 33v6h210zM173 18h33c217 2 306 117 306 320c0 191 -90 319 -297 319h-42v-310h156v-18h-156v-311z" />
    <glyph glyph-name="Dcaron" unicode="&#x10e;" horiz-adv-x="611" 
d="M395 850l-112 -139h-3l-116 139v6l113 -76h3l115 76v-6zM241 675c208 0 334 -114 334 -329c0 -160 -90 -346 -364 -346h-180v6l83 33v597l-83 33v6h210zM173 18h33c217 2 306 117 306 320c0 191 -90 319 -297 319h-42v-639z" />
    <glyph glyph-name="Dcroat" unicode="&#x110;" horiz-adv-x="611" 
d="M241 675c208 0 334 -114 334 -329c0 -160 -90 -346 -364 -346h-180v6l83 33v290h-86v18h86v289l-83 33v6h210zM173 18h33c217 2 306 117 306 320c0 191 -90 319 -297 319h-42v-310h156v-18h-156v-311z" />
    <glyph glyph-name="E" unicode="E" horiz-adv-x="574" 
d="M506 207h6v-207h-481v6l83 33v597l-83 33v6h466v-207h-6c-6 21 -11 39 -15 55c-36 132 -37 134 -103 134h-200v-306h123c65 0 58 34 90 122h6v-262h-6c-32 90 -25 122 -90 122h-123v-315h215c66 0 67 2 103 134c4 16 9 34 15 55z" />
    <glyph glyph-name="Eacute" unicode="&#xc9;" horiz-adv-x="574" 
d="M427 859v-6l-136 -145h-7l65 151h78zM506 207h6v-207h-481v6l83 33v597l-83 33v6h466v-207h-6c-6 21 -11 39 -15 55c-36 132 -37 134 -103 134h-200v-306h123c65 0 58 34 90 122h6v-262h-6c-32 90 -25 122 -90 122h-123v-315h215c66 0 67 2 103 134c4 16 9 34 15 55z" />
    <glyph glyph-name="Ebreve" unicode="&#x114;" horiz-adv-x="574" 
d="M288 727c-58 0 -109 42 -109 112h7c0 -35 54 -55 102 -55s102 20 102 55h7c0 -70 -51 -112 -109 -112zM506 207h6v-207h-481v6l83 33v597l-83 33v6h466v-207h-6c-6 21 -11 39 -15 55c-36 132 -37 134 -103 134h-200v-306h123c65 0 58 34 90 122h6v-262h-6
c-32 90 -25 122 -90 122h-123v-315h215c66 0 67 2 103 134c4 16 9 34 15 55z" />
    <glyph glyph-name="Ecaron" unicode="&#x11a;" horiz-adv-x="574" 
d="M403 850l-112 -139h-3l-116 139v6l113 -76h3l115 76v-6zM506 207h6v-207h-481v6l83 33v597l-83 33v6h466v-207h-6c-6 21 -11 39 -15 55c-36 132 -37 134 -103 134h-200v-306h123c65 0 58 34 90 122h6v-262h-6c-32 90 -25 122 -90 122h-123v-315h215c66 0 67 2 103 134
c4 16 9 34 15 55z" />
    <glyph glyph-name="Ecircumflex" unicode="&#xca;" horiz-adv-x="574" 
d="M403 715l-115 76h-3l-113 -76v6l116 139h3l112 -139v-6zM506 207h6v-207h-481v6l83 33v597l-83 33v6h466v-207h-6c-6 21 -11 39 -15 55c-36 132 -37 134 -103 134h-200v-306h123c65 0 58 34 90 122h6v-262h-6c-32 90 -25 122 -90 122h-123v-315h215c66 0 67 2 103 134
c4 16 9 34 15 55z" />
    <glyph glyph-name="Edieresis" unicode="&#xcb;" horiz-adv-x="574" 
d="M197 760c-21 0 -37 16 -37 37c0 19 16 36 37 36c20 0 36 -17 36 -36c0 -21 -16 -37 -36 -37zM379 760c-21 0 -37 16 -37 37c0 19 16 36 37 36c20 0 36 -17 36 -36c0 -21 -16 -37 -36 -37zM506 207h6v-207h-481v6l83 33v597l-83 33v6h466v-207h-6c-6 21 -11 39 -15 55
c-36 132 -37 134 -103 134h-200v-306h123c65 0 58 34 90 122h6v-262h-6c-32 90 -25 122 -90 122h-123v-315h215c66 0 67 2 103 134c4 16 9 34 15 55z" />
    <glyph glyph-name="Edotaccent" unicode="&#x116;" horiz-adv-x="574" 
d="M288 784c-26 0 -46 20 -46 46c0 24 20 45 46 45c25 0 45 -21 45 -45c0 -26 -20 -46 -45 -46zM506 207h6v-207h-481v6l83 33v597l-83 33v6h466v-207h-6c-6 21 -11 39 -15 55c-36 132 -37 134 -103 134h-200v-306h123c65 0 58 34 90 122h6v-262h-6c-32 90 -25 122 -90 122
h-123v-315h215c66 0 67 2 103 134c4 16 9 34 15 55z" />
    <glyph glyph-name="uni1EB8" unicode="&#x1eb8;" horiz-adv-x="574" 
d="M506 207h6v-207h-481v6l83 33v597l-83 33v6h466v-207h-6c-6 21 -11 39 -15 55c-36 132 -37 134 -103 134h-200v-306h123c65 0 58 34 90 122h6v-262h-6c-32 90 -25 122 -90 122h-123v-315h215c66 0 67 2 103 134c4 16 9 34 15 55zM288 -95c25 0 45 -21 45 -45
c0 -26 -20 -46 -45 -46c-26 0 -46 20 -46 46c0 24 20 45 46 45z" />
    <glyph glyph-name="Egrave" unicode="&#xc8;" horiz-adv-x="574" 
d="M230 859l65 -151h-7l-136 145v6h78zM506 207h6v-207h-481v6l83 33v597l-83 33v6h466v-207h-6c-6 21 -11 39 -15 55c-36 132 -37 134 -103 134h-200v-306h123c65 0 58 34 90 122h6v-262h-6c-32 90 -25 122 -90 122h-123v-315h215c66 0 67 2 103 134c4 16 9 34 15 55z" />
    <glyph glyph-name="Emacron" unicode="&#x112;" horiz-adv-x="574" 
d="M137 788h301v-32h-301v32zM506 207h6v-207h-481v6l83 33v597l-83 33v6h466v-207h-6c-6 21 -11 39 -15 55c-36 132 -37 134 -103 134h-200v-306h123c65 0 58 34 90 122h6v-262h-6c-32 90 -25 122 -90 122h-123v-315h215c66 0 67 2 103 134c4 16 9 34 15 55z" />
    <glyph glyph-name="Eogonek" unicode="&#x118;" horiz-adv-x="574" 
d="M528 -177l5 -4c-45 -46 -86 -74 -99 -74c-22 0 -83 9 -83 71c0 53 44 111 84 184h-404v6l83 33v597l-83 33v6h466v-207h-6c-6 21 -11 39 -15 55c-36 132 -37 134 -103 134h-200v-306h123c65 0 58 34 90 122h6v-262h-6c-32 90 -25 122 -90 122h-123v-315h215
c66 0 67 2 103 134c4 16 9 34 15 55h6v-207h-62c-53 -84 -83 -214 7 -214c25 0 51 20 71 37z" />
    <glyph glyph-name="uni1EBC" unicode="&#x1ebc;" horiz-adv-x="574" 
d="M199 791c-20 0 -49 -2 -64 -47h-5c12 50 47 94 89 94c49 0 112 -47 160 -47c20 0 49 0 66 58h5c-8 -61 -42 -105 -89 -105c-51 0 -119 47 -162 47zM506 207h6v-207h-481v6l83 33v597l-83 33v6h466v-207h-6c-6 21 -11 39 -15 55c-36 132 -37 134 -103 134h-200v-306h123
c65 0 58 34 90 122h6v-262h-6c-32 90 -25 122 -90 122h-123v-315h215c66 0 67 2 103 134c4 16 9 34 15 55z" />
    <glyph glyph-name="F" unicode="F" horiz-adv-x="534" 
d="M501 675v-207h-6c-6 21 -11 39 -15 55c-36 132 -37 134 -103 134h-199v-317h147c65 0 58 34 90 122h6v-262h-6c-32 90 -25 122 -90 122h-147v-286l87 -30v-6h-234v6l87 30l1 600l-83 33v6h465z" />
    <glyph glyph-name="G" unicode="G" horiz-adv-x="590" 
d="M233 324v6l283 1l6 -6l-4 -339h-6l-25 78h-2c-44 -31 -143 -74 -172 -74c-158 0 -279 147 -279 340c0 276 243 355 281 355c113 0 188 -49 211 -100l-46 -120h-6c27 108 -69 175 -177 175c-55 0 -211 -25 -211 -263c0 -192 103 -343 264 -343c52 0 78 10 112 30v232z" />
    <glyph glyph-name="Gbreve" unicode="&#x11e;" horiz-adv-x="590" 
d="M318 727c-58 0 -109 42 -109 112h7c0 -35 54 -55 102 -55s102 20 102 55h7c0 -70 -51 -112 -109 -112zM233 324v6l283 1l6 -6l-4 -339h-6l-25 78h-2c-44 -31 -143 -74 -172 -74c-158 0 -279 147 -279 340c0 276 243 355 281 355c113 0 188 -49 211 -100l-46 -120h-6
c27 108 -69 175 -177 175c-55 0 -211 -25 -211 -263c0 -192 103 -343 264 -343c52 0 78 10 112 30v232z" />
    <glyph glyph-name="Gcaron" unicode="&#x1e6;" horiz-adv-x="590" 
d="M433 850l-112 -139h-3l-116 139v6l113 -76h3l115 76v-6zM233 324v6l283 1l6 -6l-4 -339h-6l-25 78h-2c-44 -31 -143 -74 -172 -74c-158 0 -279 147 -279 340c0 276 243 355 281 355c113 0 188 -49 211 -100l-46 -120h-6c27 108 -69 175 -177 175
c-55 0 -211 -25 -211 -263c0 -192 103 -343 264 -343c52 0 78 10 112 30v232z" />
    <glyph glyph-name="Gcircumflex" unicode="&#x11c;" horiz-adv-x="590" 
d="M433 715l-115 76h-3l-113 -76v6l116 139h3l112 -139v-6zM233 324v6l283 1l6 -6l-4 -339h-6l-25 78h-2c-44 -31 -143 -74 -172 -74c-158 0 -279 147 -279 340c0 276 243 355 281 355c113 0 188 -49 211 -100l-46 -120h-6c27 108 -69 175 -177 175
c-55 0 -211 -25 -211 -263c0 -192 103 -343 264 -343c52 0 78 10 112 30v232z" />
    <glyph glyph-name="uni0122" unicode="&#x122;" horiz-adv-x="590" 
d="M233 324v6l283 1l6 -6l-4 -339h-6l-25 78h-2c-44 -31 -143 -74 -172 -74c-158 0 -279 147 -279 340c0 276 243 355 281 355c113 0 188 -49 211 -100l-46 -120h-6c27 108 -69 175 -177 175c-55 0 -211 -25 -211 -263c0 -192 103 -343 264 -343c52 0 78 10 112 30v232z
M297 -108c24 0 44 -17 44 -45c0 -29 -21 -60 -73 -126h-6l35 83c-24 2 -45 20 -45 44c0 23 20 44 45 44z" />
    <glyph glyph-name="Gdotaccent" unicode="&#x120;" horiz-adv-x="590" 
d="M318 784c-26 0 -46 20 -46 46c0 24 20 45 46 45c25 0 45 -21 45 -45c0 -26 -20 -46 -45 -46zM233 324v6l283 1l6 -6l-4 -339h-6l-25 78h-2c-44 -31 -143 -74 -172 -74c-158 0 -279 147 -279 340c0 276 243 355 281 355c113 0 188 -49 211 -100l-46 -120h-6
c27 108 -69 175 -177 175c-55 0 -211 -25 -211 -263c0 -192 103 -343 264 -343c52 0 78 10 112 30v232z" />
    <glyph glyph-name="H" unicode="H" horiz-adv-x="650" 
d="M619 675v-6l-87 -30v-603l87 -30v-6h-234v6l87 30v293h-294v-293l87 -30v-6h-234v6l87 30v603l-87 30v6h234v-6l-87 -30v-292h294v292l-87 30v6h234z" />
    <glyph glyph-name="Hbar" unicode="&#x126;" horiz-adv-x="650" 
d="M619 675v-6l-87 -30v-127h68v-18h-68v-458l87 -30v-6h-234v6l87 30v293h-294v-293l87 -30v-6h-234v6l87 30v458h-69v18h69v127l-87 30v6h234v-6l-87 -30v-127h294v127l-87 30v6h234zM178 347h294v147h-294v-147z" />
    <glyph glyph-name="Hcircumflex" unicode="&#x124;" horiz-adv-x="650" 
d="M440 715l-115 76h-3l-113 -76v6l116 139h3l112 -139v-6zM619 675v-6l-87 -30v-603l87 -30v-6h-234v6l87 30v293h-294v-293l87 -30v-6h-234v6l87 30v603l-87 30v6h234v-6l-87 -30v-292h294v292l-87 30v6h234z" />
    <glyph glyph-name="I" unicode="I" horiz-adv-x="296" 
d="M118 36v603l-87 30v6h234v-6l-87 -30v-603l87 -30v-6h-234v6z" />
    <glyph glyph-name="Iacute" unicode="&#xcd;" horiz-adv-x="296" 
d="M209 859h78v-6l-136 -145h-7zM118 36v603l-87 30v6h234v-6l-87 -30v-603l87 -30v-6h-234v6z" />
    <glyph glyph-name="Ibreve" unicode="&#x12c;" horiz-adv-x="296" 
d="M148 727c-58 0 -109 42 -109 112h7c0 -35 54 -55 102 -55s102 20 102 55h7c0 -70 -51 -112 -109 -112zM265 675v-6l-87 -30v-603l87 -30v-6h-234v6l87 30v603l-87 30v6h234z" />
    <glyph glyph-name="Icircumflex" unicode="&#xce;" horiz-adv-x="296" 
d="M32 715v6l116 139h3l112 -139v-6l-115 76h-3zM118 36v603l-87 30v6h234v-6l-87 -30v-603l87 -30v-6h-234v6z" />
    <glyph glyph-name="Idieresis" unicode="&#xcf;" horiz-adv-x="296" 
d="M57 760c-21 0 -37 16 -37 37c0 19 16 36 37 36c20 0 36 -17 36 -36c0 -21 -16 -37 -36 -37zM239 760c-21 0 -37 16 -37 37c0 19 16 36 37 36c20 0 36 -17 36 -36c0 -21 -16 -37 -36 -37zM118 36v603l-87 30v6h234v-6l-87 -30v-603l87 -30v-6h-234v6z" />
    <glyph glyph-name="Idotaccent" unicode="&#x130;" horiz-adv-x="296" 
d="M148 784c-26 0 -46 20 -46 46c0 24 20 45 46 45c25 0 45 -21 45 -45c0 -26 -20 -46 -45 -46zM118 36v603l-87 30v6h234v-6l-87 -30v-603l87 -30v-6h-234v6z" />
    <glyph glyph-name="uni1ECA" unicode="&#x1eca;" horiz-adv-x="296" 
d="M118 36v603l-87 30v6h234v-6l-87 -30v-603l87 -30v-6h-234v6zM148 -186c-26 0 -46 20 -46 46c0 24 20 45 46 45c25 0 45 -21 45 -45c0 -26 -20 -46 -45 -46z" />
    <glyph glyph-name="Igrave" unicode="&#xcc;" horiz-adv-x="296" 
d="M12 853v6h78l65 -151h-7zM118 36v603l-87 30v6h234v-6l-87 -30v-603l87 -30v-6h-234v6z" />
    <glyph glyph-name="Imacron" unicode="&#x12a;" horiz-adv-x="296" 
d="M-3 756v32h301v-32h-301zM118 36v603l-87 30v6h234v-6l-87 -30v-603l87 -30v-6h-234v6z" />
    <glyph glyph-name="Iogonek" unicode="&#x12e;" horiz-adv-x="296" 
d="M265 675v-6l-87 -30v-603l87 -30v-6h-108c-53 -84 -83 -214 7 -214c25 0 51 20 71 37l5 -4c-45 -46 -86 -74 -99 -74c-22 0 -83 9 -83 71c0 53 44 111 84 184h-111v6l87 30v603l-87 30v6h234z" />
    <glyph glyph-name="Itilde" unicode="&#x128;" horiz-adv-x="296" 
d="M305 849h5c-8 -61 -42 -105 -89 -105c-51 0 -119 47 -162 47c-20 0 -49 -2 -64 -47h-5c12 50 47 94 89 94c49 0 112 -47 160 -47c20 0 49 0 66 58zM118 36v603l-87 30v6h234v-6l-87 -30v-603l87 -30v-6h-234v6z" />
    <glyph glyph-name="J" unicode="J" horiz-adv-x="379" 
d="M279 639v-493c0 -37 -78 -160 -142 -160c-73 0 -110 37 -133 78l54 116l5 -2c-32 -78 26 -160 87 -160c33 0 74 3 69 171v450l-87 30v6h234v-6z" />
    <glyph glyph-name="uni004A0301" horiz-adv-x="379" 
d="M307 859h78v-6l-136 -145h-7zM279 639v-493c0 -37 -78 -160 -142 -160c-73 0 -110 37 -133 78l54 116l5 -2c-32 -78 26 -160 87 -160c33 0 74 3 69 171v450l-87 30v6h234v-6z" />
    <glyph glyph-name="Jcircumflex" unicode="&#x134;" horiz-adv-x="379" 
d="M130 715v6l116 139h3l112 -139v-6l-115 76h-3zM279 639v-493c0 -37 -78 -160 -142 -160c-73 0 -110 37 -133 78l54 116l5 -2c-32 -78 26 -160 87 -160c33 0 74 3 69 171v450l-87 30v6h234v-6z" />
    <glyph glyph-name="K" unicode="K" horiz-adv-x="542" 
d="M520 669l-267 -278l274 -386v-5h-183v6l90 33l-225 307l-31 -32v-278l87 -30v-6h-234v6l87 30v603l-87 30v6h234v-6l-87 -30v-298l204 212c78 82 31 101 -29 116v6h167v-6z" />
    <glyph glyph-name="uni0136" unicode="&#x136;" horiz-adv-x="542" 
d="M520 669l-267 -278l274 -386v-5h-183v6l90 33l-225 307l-31 -32v-278l87 -30v-6h-234v6l87 30v603l-87 30v6h234v-6l-87 -30v-298l204 212c78 82 31 101 -29 116v6h167v-6zM268 -108c24 0 44 -17 44 -45c0 -29 -21 -60 -73 -126h-6l35 83c-24 2 -45 20 -45 44
c0 23 20 44 45 44z" />
    <glyph glyph-name="L" unicode="L" horiz-adv-x="520" 
d="M485 207h6v-207h-455v6l83 33l-1 600l-87 30v6h234v-6l-87 -30v-621h188c76 0 67 2 119 189z" />
    <glyph glyph-name="Lacute" unicode="&#x139;" horiz-adv-x="520" 
d="M288 859v-6l-136 -145h-7l65 151h78zM485 207h6v-207h-455v6l83 33l-1 600l-87 30v6h234v-6l-87 -30v-621h188c76 0 67 2 119 189z" />
    <glyph glyph-name="Lcaron" unicode="&#x13d;" horiz-adv-x="520" 
d="M341 442l34 157c-23 1 -42 19 -42 41c0 21 18 39 41 39c22 0 40 -14 40 -44c0 -36 -19 -78 -66 -193h-7zM485 207h6v-207h-455v6l83 33l-1 600l-87 30v6h234v-6l-87 -30v-621h188c76 0 67 2 119 189z" />
    <glyph glyph-name="uni013B" unicode="&#x13b;" horiz-adv-x="520" 
d="M485 207h6v-207h-455v6l83 33l-1 600l-87 30v6h234v-6l-87 -30v-621h188c76 0 67 2 119 189zM272 -108c24 0 44 -17 44 -45c0 -29 -21 -60 -73 -126h-6l35 83c-24 2 -45 20 -45 44c0 23 20 44 45 44z" />
    <glyph glyph-name="Ldot" unicode="&#x13f;" horiz-adv-x="535" 
d="M485 207h6v-207h-455v6l83 33l-1 600l-87 30v6h234v-6l-87 -30v-621h188c76 0 67 2 119 189zM403 300c-26 0 -46 20 -46 46c0 24 20 45 46 45c25 0 45 -21 45 -45c0 -26 -20 -46 -45 -46z" />
    <glyph glyph-name="Lslash" unicode="&#x141;" horiz-adv-x="520" 
d="M485 207h6v-207h-455v6l83 33v255l-83 -76l-13 14l96 88l-1 319l-87 30v6h234v-6l-87 -30v-264l90 83l13 -14l-103 -95v-331h188c76 0 67 2 119 189z" />
    <glyph glyph-name="M" unicode="M" horiz-adv-x="683" 
d="M527 675h89v-6l-25 -33v-636h-142v6l83 33l-1 578h-5l-193 -456h-6l-208 426h-5v-398c0 -148 18 -151 127 -182v-7h-149v631l-23 38v6h73l204 -419h6z" />
    <glyph glyph-name="N" unicode="N" horiz-adv-x="609" 
d="M371 668v7h148v-685h-6l-392 597h-5v-398c0 -148 18 -151 127 -182v-7h-149v627l-36 42v6h77l357 -541h5v352c0 148 -17 151 -126 182z" />
    <glyph glyph-name="Nacute" unicode="&#x143;" horiz-adv-x="609" 
d="M442 859v-6l-136 -145h-7l65 151h78zM371 668v7h148v-685h-6l-392 597h-5v-398c0 -148 18 -151 127 -182v-7h-149v627l-36 42v6h77l357 -541h5v352c0 148 -17 151 -126 182z" />
    <glyph glyph-name="Ncaron" unicode="&#x147;" horiz-adv-x="609" 
d="M418 850l-112 -139h-3l-116 139v6l113 -76h3l115 76v-6zM371 668v7h148v-685h-6l-392 597h-5v-398c0 -148 18 -151 127 -182v-7h-149v627l-36 42v6h77l357 -541h5v352c0 148 -17 151 -126 182z" />
    <glyph glyph-name="uni0145" unicode="&#x145;" horiz-adv-x="609" 
d="M371 668v7h148v-685h-6l-392 597h-5v-398c0 -148 18 -151 127 -182v-7h-149v627l-36 42v6h77l357 -541h5v352c0 148 -17 151 -126 182zM299 -108c24 0 44 -17 44 -45c0 -29 -21 -60 -73 -126h-6l35 83c-24 2 -45 20 -45 44c0 23 20 44 45 44z" />
    <glyph glyph-name="Eng" unicode="&#x14a;" horiz-adv-x="620" 
d="M350 677c131 0 194 -65 194 -204v-363c0 -229 -147 -311 -201 -362l-4 8c55 51 145 151 145 354v353c0 128 -66 168 -149 168c-74 0 -111 -32 -157 -64v-531l87 -30v-6h-234v6l87 30l1 600l-83 33v6h142v-89c62 48 147 91 172 91z" />
    <glyph glyph-name="uni019D" unicode="&#x19d;" horiz-adv-x="642" 
d="M538 481v-445l87 -30v-6h-234v6l87 30v435c0 128 -66 168 -149 168c-74 0 -111 -32 -157 -64v-465c0 -229 -147 -311 -201 -362l-4 8c55 51 145 151 145 354l1 526l-83 33v6h142v-81c62 48 147 91 172 91c125 0 194 -65 194 -204z" />
    <glyph glyph-name="Ntilde" unicode="&#xd1;" horiz-adv-x="609" 
d="M214 791c-20 0 -49 -2 -64 -47h-5c12 50 47 94 89 94c49 0 112 -47 160 -47c20 0 49 0 66 58h5c-8 -61 -42 -105 -89 -105c-51 0 -119 47 -162 47zM371 668v7h148v-685h-6l-392 597h-5v-398c0 -148 18 -151 127 -182v-7h-149v627l-36 42v6h77l357 -541h5v352
c0 148 -17 151 -126 182z" />
    <glyph glyph-name="O" unicode="O" horiz-adv-x="595" 
d="M305 -10c-179 0 -269 173 -269 346c0 255 192 348 254 348c179 0 269 -173 269 -346c0 -255 -192 -348 -254 -348zM327 39c95 0 190 63 190 257c0 181 -100 339 -250 339c-95 0 -190 -63 -190 -257c0 -181 100 -339 250 -339z" />
    <glyph glyph-name="Oacute" unicode="&#xd3;" horiz-adv-x="595" 
d="M359 859h78v-6l-136 -145h-7zM305 -10c-179 0 -269 173 -269 346c0 255 192 348 254 348c179 0 269 -173 269 -346c0 -255 -192 -348 -254 -348zM327 39c95 0 190 63 190 257c0 181 -100 339 -250 339c-95 0 -190 -63 -190 -257c0 -181 100 -339 250 -339z" />
    <glyph glyph-name="Obreve" unicode="&#x14e;" horiz-adv-x="595" 
d="M298 727c-58 0 -109 42 -109 112h7c0 -35 54 -55 102 -55s102 20 102 55h7c0 -70 -51 -112 -109 -112zM290 684c179 0 269 -173 269 -346c0 -255 -192 -348 -254 -348c-179 0 -269 173 -269 346c0 255 192 348 254 348zM327 39c95 0 190 63 190 257
c0 181 -100 339 -250 339c-95 0 -190 -63 -190 -257c0 -181 100 -339 250 -339z" />
    <glyph glyph-name="Ocircumflex" unicode="&#xd4;" horiz-adv-x="595" 
d="M182 715v6l116 139h3l112 -139v-6l-115 76h-3zM305 -10c-179 0 -269 173 -269 346c0 255 192 348 254 348c179 0 269 -173 269 -346c0 -255 -192 -348 -254 -348zM327 39c95 0 190 63 190 257c0 181 -100 339 -250 339c-95 0 -190 -63 -190 -257
c0 -181 100 -339 250 -339z" />
    <glyph glyph-name="Odieresis" unicode="&#xd6;" horiz-adv-x="595" 
d="M207 760c-21 0 -37 16 -37 37c0 19 16 36 37 36c20 0 36 -17 36 -36c0 -21 -16 -37 -36 -37zM389 760c-21 0 -37 16 -37 37c0 19 16 36 37 36c20 0 36 -17 36 -36c0 -21 -16 -37 -36 -37zM305 -10c-179 0 -269 173 -269 346c0 255 192 348 254 348
c179 0 269 -173 269 -346c0 -255 -192 -348 -254 -348zM327 39c95 0 190 63 190 257c0 181 -100 339 -250 339c-95 0 -190 -63 -190 -257c0 -181 100 -339 250 -339z" />
    <glyph glyph-name="uni1ECC" unicode="&#x1ecc;" horiz-adv-x="595" 
d="M305 -10c-179 0 -269 173 -269 346c0 255 192 348 254 348c179 0 269 -173 269 -346c0 -255 -192 -348 -254 -348zM327 39c95 0 190 63 190 257c0 181 -100 339 -250 339c-95 0 -190 -63 -190 -257c0 -181 100 -339 250 -339zM298 -186c-26 0 -46 20 -46 46
c0 24 20 45 46 45c25 0 45 -21 45 -45c0 -26 -20 -46 -45 -46z" />
    <glyph glyph-name="Ograve" unicode="&#xd2;" horiz-adv-x="595" 
d="M162 853v6h78l65 -151h-7zM305 -10c-179 0 -269 173 -269 346c0 255 192 348 254 348c179 0 269 -173 269 -346c0 -255 -192 -348 -254 -348zM327 39c95 0 190 63 190 257c0 181 -100 339 -250 339c-95 0 -190 -63 -190 -257c0 -181 100 -339 250 -339z" />
    <glyph glyph-name="Ohungarumlaut" unicode="&#x150;" horiz-adv-x="595" 
d="M233 706h-5l74 156h62v-6zM353 706h-5l74 156h62v-6zM305 -10c-179 0 -269 173 -269 346c0 255 192 348 254 348c179 0 269 -173 269 -346c0 -255 -192 -348 -254 -348zM327 39c95 0 190 63 190 257c0 181 -100 339 -250 339c-95 0 -190 -63 -190 -257
c0 -181 100 -339 250 -339z" />
    <glyph glyph-name="Omacron" unicode="&#x14c;" horiz-adv-x="595" 
d="M147 756v32h301v-32h-301zM305 -10c-179 0 -269 173 -269 346c0 255 192 348 254 348c179 0 269 -173 269 -346c0 -255 -192 -348 -254 -348zM327 39c95 0 190 63 190 257c0 181 -100 339 -250 339c-95 0 -190 -63 -190 -257c0 -181 100 -339 250 -339z" />
    <glyph glyph-name="uni01EA" unicode="&#x1ea;" horiz-adv-x="595" 
d="M559 338c0 -177 -92 -276 -170 -320h1c-84 -96 -122 -232 -30 -232c25 0 51 20 71 37l5 -4c-45 -46 -86 -74 -99 -74c-22 0 -83 9 -83 71c0 52 46 109 109 189c-24 -10 -44 -15 -58 -15c-179 0 -269 173 -269 346c0 255 192 348 254 348c179 0 269 -173 269 -346zM327 39
c95 0 190 63 190 257c0 181 -100 339 -250 339c-95 0 -190 -63 -190 -257c0 -181 100 -339 250 -339z" />
    <glyph glyph-name="Oslash" unicode="&#xd8;" horiz-adv-x="595" 
d="M505 743l-57 -118c74 -65 111 -176 111 -287c0 -255 -192 -348 -254 -348c-56 0 -104 17 -142 46l-50 -103h-22l56 116c-74 65 -111 176 -111 287c0 255 192 348 254 348c56 0 104 -17 142 -46l51 105h22zM77 378c0 -109 36 -209 98 -272l230 476c-38 33 -85 53 -138 53
c-95 0 -190 -63 -190 -257zM327 39c95 0 190 63 190 257c0 108 -36 209 -97 272l-230 -476c38 -34 84 -53 137 -53z" />
    <glyph glyph-name="Oslashacute" unicode="&#x1fe;" horiz-adv-x="595" 
d="M442 859v-6l-136 -145h-7l65 151h78zM505 743l-57 -118c74 -65 111 -176 111 -287c0 -255 -192 -348 -254 -348c-56 0 -104 17 -142 46l-50 -103h-22l56 116c-74 65 -111 176 -111 287c0 255 192 348 254 348c56 0 104 -17 142 -46l51 105h22zM77 378
c0 -109 36 -209 98 -272l230 476c-38 33 -85 53 -138 53c-95 0 -190 -63 -190 -257zM327 39c95 0 190 63 190 257c0 108 -36 209 -97 272l-230 -476c38 -34 84 -53 137 -53z" />
    <glyph glyph-name="Otilde" unicode="&#xd5;" horiz-adv-x="595" 
d="M455 849h5c-8 -61 -42 -105 -89 -105c-51 0 -119 47 -162 47c-20 0 -49 -2 -64 -47h-5c12 50 47 94 89 94c49 0 112 -47 160 -47c20 0 49 0 66 58zM305 -10c-179 0 -269 173 -269 346c0 255 192 348 254 348c179 0 269 -173 269 -346c0 -255 -192 -348 -254 -348zM327 39
c95 0 190 63 190 257c0 181 -100 339 -250 339c-95 0 -190 -63 -190 -257c0 -181 100 -339 250 -339z" />
    <glyph glyph-name="OE" unicode="&#x152;" horiz-adv-x="845" 
d="M777 207h6v-207h-399c-265 7 -352 172 -352 332c0 199 128 343 352 343h384v-207h-6c-6 21 -11 39 -15 55c-36 132 -37 134 -103 134h-200v-306h123c65 0 58 34 90 122h6v-262h-6c-32 90 -25 122 -90 122h-123v-315h215c66 0 67 2 103 134c4 16 9 34 15 55zM95 332
c0 -195 93 -309 289 -312v635c-195 -4 -289 -140 -289 -323z" />
    <glyph glyph-name="P" unicode="P" horiz-adv-x="539" 
d="M254 285h-76v-249l87 -30v-6h-234v6l87 30l1 600l-83 33v6h258c132 0 229 -59 229 -178c0 -96 -72 -212 -269 -212zM258 657h-80v-354h61c151 0 221 62 221 179c0 103 -70 175 -202 175z" />
    <glyph glyph-name="Thorn" unicode="&#xde;" horiz-adv-x="535" 
d="M245 149h-67v-113l87 -30v-6h-234v6l87 30v603l-87 30v6h234v-6l-87 -30v-100h107c132 0 234 -59 234 -178c0 -111 -77 -212 -274 -212zM249 521h-71v-354h52c151 0 221 62 221 179c0 115 -70 175 -202 175z" />
    <glyph glyph-name="Q" unicode="Q" horiz-adv-x="595" 
d="M213 -112h192c64 0 63 35 84 107h6l-1 -148l-3 -4h-363v6l197 141l-1 2h1c-8 -1 -14 -2 -20 -2c-179 0 -269 173 -269 346c0 255 192 348 254 348c179 0 269 -173 269 -346c0 -159 -75 -255 -146 -305l4 2l-204 -145v-2zM77 378c0 -181 100 -339 250 -339
c95 0 190 63 190 257c0 181 -100 339 -250 339c-95 0 -190 -63 -190 -257z" />
    <glyph glyph-name="R" unicode="R" horiz-adv-x="578" 
d="M344 327l212 -321v-6h-181v6l90 33l-189 288h-98v-291l87 -30v-6h-234v6l87 30l1 600l-83 33v6h262c151 0 228 -52 228 -150c0 -93 -71 -150 -182 -198zM178 657v-312h107c104 0 173 53 173 161c0 88 -45 151 -176 151h-104z" />
    <glyph glyph-name="Racute" unicode="&#x154;" horiz-adv-x="578" 
d="M445 859v-6l-136 -145h-7l65 151h78zM344 327l212 -321v-6h-181v6l90 33l-189 288h-98v-291l87 -30v-6h-234v6l87 30l1 600l-83 33v6h262c151 0 228 -52 228 -150c0 -93 -71 -150 -182 -198zM178 657v-312h107c104 0 173 53 173 161c0 88 -45 151 -176 151h-104z" />
    <glyph glyph-name="Rcaron" unicode="&#x158;" horiz-adv-x="578" 
d="M421 850l-112 -139h-3l-116 139v6l113 -76h3l115 76v-6zM344 327l212 -321v-6h-181v6l90 33l-189 288h-98v-291l87 -30v-6h-234v6l87 30l1 600l-83 33v6h262c151 0 228 -52 228 -150c0 -93 -71 -150 -182 -198zM178 657v-312h107c104 0 173 53 173 161
c0 88 -45 151 -176 151h-104z" />
    <glyph glyph-name="uni0156" unicode="&#x156;" horiz-adv-x="578" 
d="M344 327l212 -321v-6h-181v6l90 33l-189 288h-98v-291l87 -30v-6h-234v6l87 30l1 600l-83 33v6h262c151 0 228 -52 228 -150c0 -93 -71 -150 -182 -198zM178 657v-312h107c104 0 173 53 173 161c0 88 -45 151 -176 151h-104zM306 -108c24 0 44 -17 44 -45
c0 -29 -21 -60 -73 -126h-6l35 83c-24 2 -45 20 -45 44c0 23 20 44 45 44z" />
    <glyph glyph-name="S" unicode="S" horiz-adv-x="539" 
d="M263 382l25 -12c98 -47 203 -80 203 -195c0 -98 -74 -187 -217 -187c-88 0 -133 32 -201 43l-28 251l8 1c34 -230 176 -260 258 -260c111 0 147 53 147 112c0 95 -97 133 -186 174l-30 14c-80 37 -170 74 -170 185c0 112 91 173 191 173c67 0 127 -26 163 -61l27 60h7
v-250h-6c-34 133 -106 214 -227 214c-72 0 -127 -34 -127 -102c0 -81 81 -121 163 -160z" />
    <glyph glyph-name="Sacute" unicode="&#x15a;" horiz-adv-x="539" 
d="M407 859v-6l-136 -145h-7l65 151h78zM263 382l25 -12c98 -47 203 -80 203 -195c0 -98 -74 -187 -217 -187c-88 0 -133 32 -201 43l-28 251l8 1c34 -230 176 -260 258 -260c111 0 147 53 147 112c0 95 -97 133 -186 174l-30 14c-80 37 -170 74 -170 185
c0 112 91 173 191 173c67 0 127 -26 163 -61l27 60h7v-250h-6c-34 133 -106 214 -227 214c-72 0 -127 -34 -127 -102c0 -81 81 -121 163 -160z" />
    <glyph glyph-name="Scaron" unicode="&#x160;" horiz-adv-x="539" 
d="M383 850l-112 -139h-3l-116 139v6l113 -76h3l115 76v-6zM263 382l25 -12c98 -47 203 -80 203 -195c0 -98 -74 -187 -217 -187c-88 0 -133 32 -201 43l-28 251l8 1c34 -230 176 -260 258 -260c111 0 147 53 147 112c0 95 -97 133 -186 174l-30 14c-80 37 -170 74 -170 185
c0 112 91 173 191 173c67 0 127 -26 163 -61l27 60h7v-250h-6c-34 133 -106 214 -227 214c-72 0 -127 -34 -127 -102c0 -81 81 -121 163 -160z" />
    <glyph glyph-name="Scedilla" unicode="&#x15e;" horiz-adv-x="539" 
d="M274 -12l-29 -52c49 -11 86 -40 86 -83c0 -44 -39 -87 -120 -110l-1 5c60 19 77 47 77 77c0 37 -32 58 -81 62l-1 6l55 95c-79 3 -123 33 -187 43l-28 251l8 1c34 -230 176 -260 258 -260c111 0 147 53 147 112c0 95 -97 133 -186 174l-30 14c-80 37 -170 74 -170 185
c0 112 91 173 191 173c67 0 127 -26 163 -61l27 60h7v-250h-6c-34 133 -106 214 -227 214c-72 0 -127 -34 -127 -102c0 -81 81 -121 163 -160l25 -12c98 -47 203 -80 203 -195c0 -98 -74 -187 -217 -187z" />
    <glyph glyph-name="Scircumflex" unicode="&#x15c;" horiz-adv-x="539" 
d="M383 715l-115 76h-3l-113 -76v6l116 139h3l112 -139v-6zM263 382l25 -12c98 -47 203 -80 203 -195c0 -98 -74 -187 -217 -187c-88 0 -133 32 -201 43l-28 251l8 1c34 -230 176 -260 258 -260c111 0 147 53 147 112c0 95 -97 133 -186 174l-30 14c-80 37 -170 74 -170 185
c0 112 91 173 191 173c67 0 127 -26 163 -61l27 60h7v-250h-6c-34 133 -106 214 -227 214c-72 0 -127 -34 -127 -102c0 -81 81 -121 163 -160z" />
    <glyph glyph-name="uni0218" unicode="&#x218;" horiz-adv-x="539" 
d="M263 382l25 -12c98 -47 203 -80 203 -195c0 -98 -74 -187 -217 -187c-88 0 -133 32 -201 43l-28 251l8 1c34 -230 176 -260 258 -260c111 0 147 53 147 112c0 95 -97 133 -186 174l-30 14c-80 37 -170 74 -170 185c0 112 91 173 191 173c67 0 127 -26 163 -61l27 60h7
v-250h-6c-34 133 -106 214 -227 214c-72 0 -127 -34 -127 -102c0 -81 81 -121 163 -160zM268 -108c24 0 44 -17 44 -45c0 -29 -21 -60 -73 -126h-6l35 83c-24 2 -45 20 -45 44c0 23 20 44 45 44z" />
    <glyph glyph-name="uni1E9E" unicode="&#x1e9e;" horiz-adv-x="605" 
d="M418 457c0 -104 157 -144 157 -298c0 -85 -73 -170 -158 -170c-69 0 -106 23 -171 41l-26 253l7 1c24 -230 141 -268 208 -268c57 0 99 41 99 109c0 129 -158 176 -158 298c0 55 25 88 119 182c-38 33 -85 64 -164 64c-96 0 -174 -58 -174 -224v-445h-142v6l83 33l-1 406
c0 181 113 246 264 246c61 0 133 -13 202 -48v-3l-53 -48c-50 -46 -92 -85 -92 -135z" />
    <glyph glyph-name="uni018F" unicode="&#x18f;" horiz-adv-x="549" 
d="M198 676c206 0 315 -112 315 -321c0 -258 -232 -363 -290 -363c-121 0 -190 78 -190 220c0 22 67 61 79 61h349c2 18 3 36 3 55c0 189 -116 302 -309 302c-55 0 -92 -17 -124 -36l-5 7c74 47 159 75 172 75zM255 45c113 0 185 82 204 210h-365c-3 -142 53 -210 161 -210z
" />
    <glyph glyph-name="T" unicode="T" horiz-adv-x="510" 
d="M486 675v-207h-6c-50 183 -42 189 -124 189h-71v-621l87 -30v-6h-234v6l87 30v621h-71c-82 0 -74 -6 -124 -189h-6v207h462z" />
    <glyph glyph-name="Tbar" unicode="&#x166;" horiz-adv-x="510" 
d="M486 675v-207h-6c-50 183 -42 189 -124 189h-71v-310h122v-18h-122v-293l87 -30v-6h-234v6l87 30v293h-119v18h119v310h-71c-82 0 -74 -6 -124 -189h-6v207h462z" />
    <glyph glyph-name="Tcaron" unicode="&#x164;" horiz-adv-x="510" 
d="M372 850l-112 -139h-3l-116 139v6l113 -76h3l115 76v-6zM486 675v-207h-6c-50 183 -42 189 -124 189h-71v-621l87 -30v-6h-234v6l87 30v621h-71c-82 0 -74 -6 -124 -189h-6v207h462z" />
    <glyph glyph-name="uni0162" unicode="&#x162;" horiz-adv-x="510" 
d="M486 675v-207h-6c-50 183 -42 189 -124 189h-71v-621l87 -30v-6h-102l-36 -64c49 -11 86 -40 86 -83c0 -44 -39 -87 -120 -110l-1 5c60 19 77 47 77 77c0 37 -32 58 -81 62l-1 6l62 107h-118v6l87 30v621h-71c-82 0 -74 -6 -124 -189h-6v207h462z" />
    <glyph glyph-name="uni021A" unicode="&#x21a;" horiz-adv-x="510" 
d="M486 675v-207h-6c-50 183 -42 189 -124 189h-71v-621l87 -30v-6h-234v6l87 30v621h-71c-82 0 -74 -6 -124 -189h-6v207h462zM257 -108c24 0 44 -17 44 -45c0 -29 -21 -60 -73 -126h-6l35 83c-24 2 -45 20 -45 44c0 23 20 44 45 44z" />
    <glyph glyph-name="U" unicode="U" horiz-adv-x="633" 
d="M529 675l-1 -636l83 -33v-6h-142v78c-62 -46 -142 -88 -166 -88c-125 0 -204 65 -204 204l1 442l-83 33v6h142v-471c0 -128 76 -168 159 -168c70 0 109 29 151 61l1 539l-83 33v6h142z" />
    <glyph glyph-name="Uacute" unicode="&#xda;" horiz-adv-x="633" 
d="M449 859v-6l-136 -145h-7l65 151h78zM529 675l-1 -636l83 -33v-6h-142v78c-62 -46 -142 -88 -166 -88c-125 0 -204 65 -204 204l1 442l-83 33v6h142v-471c0 -128 76 -168 159 -168c70 0 109 29 151 61l1 539l-83 33v6h142z" />
    <glyph glyph-name="Ubreve" unicode="&#x16c;" horiz-adv-x="633" 
d="M310 727c-58 0 -109 42 -109 112h7c0 -35 54 -55 102 -55s102 20 102 55h7c0 -70 -51 -112 -109 -112zM529 675l-1 -636l83 -33v-6h-142v78c-62 -46 -142 -88 -166 -88c-125 0 -204 65 -204 204l1 442l-83 33v6h142v-471c0 -128 76 -168 159 -168c70 0 109 29 151 61
l1 539l-83 33v6h142z" />
    <glyph glyph-name="Ucircumflex" unicode="&#xdb;" horiz-adv-x="633" 
d="M425 715l-115 76h-3l-113 -76v6l116 139h3l112 -139v-6zM529 675l-1 -636l83 -33v-6h-142v78c-62 -46 -142 -88 -166 -88c-125 0 -204 65 -204 204l1 442l-83 33v6h142v-471c0 -128 76 -168 159 -168c70 0 109 29 151 61l1 539l-83 33v6h142z" />
    <glyph glyph-name="Udieresis" unicode="&#xdc;" horiz-adv-x="633" 
d="M219 760c-21 0 -37 16 -37 37c0 19 16 36 37 36c20 0 36 -17 36 -36c0 -21 -16 -37 -36 -37zM401 760c-21 0 -37 16 -37 37c0 19 16 36 37 36c20 0 36 -17 36 -36c0 -21 -16 -37 -36 -37zM529 675l-1 -636l83 -33v-6h-142v78c-62 -46 -142 -88 -166 -88
c-125 0 -204 65 -204 204l1 442l-83 33v6h142v-471c0 -128 76 -168 159 -168c70 0 109 29 151 61l1 539l-83 33v6h142z" />
    <glyph glyph-name="uni1EE4" unicode="&#x1ee4;" horiz-adv-x="633" 
d="M529 675l-1 -636l83 -33v-6h-142v78c-62 -46 -142 -88 -166 -88c-125 0 -204 65 -204 204l1 442l-83 33v6h142v-471c0 -128 76 -168 159 -168c70 0 109 29 151 61l1 539l-83 33v6h142zM310 -95c25 0 45 -21 45 -45c0 -26 -20 -46 -45 -46c-26 0 -46 20 -46 46
c0 24 20 45 46 45z" />
    <glyph glyph-name="Ugrave" unicode="&#xd9;" horiz-adv-x="633" 
d="M252 859l65 -151h-7l-136 145v6h78zM529 675l-1 -636l83 -33v-6h-142v78c-62 -46 -142 -88 -166 -88c-125 0 -204 65 -204 204l1 442l-83 33v6h142v-471c0 -128 76 -168 159 -168c70 0 109 29 151 61l1 539l-83 33v6h142z" />
    <glyph glyph-name="Uhungarumlaut" unicode="&#x170;" horiz-adv-x="633" 
d="M376 862v-6l-131 -150h-5l74 156h62zM496 856l-131 -150h-5l74 156h62v-6zM529 675l-1 -636l83 -33v-6h-142v78c-62 -46 -142 -88 -166 -88c-125 0 -204 65 -204 204l1 442l-83 33v6h142v-471c0 -128 76 -168 159 -168c70 0 109 29 151 61l1 539l-83 33v6h142z" />
    <glyph glyph-name="Umacron" unicode="&#x16a;" horiz-adv-x="633" 
d="M159 788h301v-32h-301v32zM529 675l-1 -636l83 -33v-6h-142v78c-62 -46 -142 -88 -166 -88c-125 0 -204 65 -204 204l1 442l-83 33v6h142v-471c0 -128 76 -168 159 -168c70 0 109 29 151 61l1 539l-83 33v6h142z" />
    <glyph glyph-name="Uogonek" unicode="&#x172;" horiz-adv-x="633" 
d="M611 0h-133c-53 -84 -83 -214 7 -214c25 0 51 20 71 37l5 -4c-45 -46 -86 -74 -99 -74c-22 0 -83 9 -83 71c0 56 48 117 90 195v67c-62 -46 -142 -88 -166 -88c-125 0 -204 65 -204 204l1 442l-83 33v6h142v-471c0 -128 76 -168 159 -168c70 0 109 29 151 61l1 539
l-83 33v6h142l-1 -636l83 -33v-6z" />
    <glyph glyph-name="Uring" unicode="&#x16e;" horiz-adv-x="633" 
d="M310 701c-53 0 -94 42 -94 94s41 94 94 94c52 0 94 -42 94 -94s-42 -94 -94 -94zM310 872c-42 0 -75 -34 -75 -77s33 -77 75 -77s75 34 75 77s-33 77 -75 77zM529 675l-1 -636l83 -33v-6h-142v78c-62 -46 -142 -88 -166 -88c-125 0 -204 65 -204 204l1 442l-83 33v6h142
v-471c0 -128 76 -168 159 -168c70 0 109 29 151 61l1 539l-83 33v6h142z" />
    <glyph glyph-name="Utilde" unicode="&#x168;" horiz-adv-x="633" 
d="M221 791c-20 0 -49 -2 -64 -47h-5c12 50 47 94 89 94c49 0 112 -47 160 -47c20 0 49 0 66 58h5c-8 -61 -42 -105 -89 -105c-51 0 -119 47 -162 47zM529 675l-1 -636l83 -33v-6h-142v78c-62 -46 -142 -88 -166 -88c-125 0 -204 65 -204 204l1 442l-83 33v6h142v-471
c0 -128 76 -168 159 -168c70 0 109 29 151 61l1 539l-83 33v6h142z" />
    <glyph glyph-name="V" unicode="V" horiz-adv-x="513" 
d="M350 669v6h149v-6l-241 -682h-6l-241 682v6h162v-6l-86 -33l186 -527h7l124 359c58 167 33 174 -54 201z" />
    <glyph glyph-name="W" unicode="W" horiz-adv-x="668" 
d="M505 669v6h149v-6l-193 -682h-5l-115 400h-6l-114 -400h-5l-205 682v6h155v-6l-86 -33l154 -512h6l74 271c24 87 12 91 -75 121v6h217v-6l-86 -33l103 -359h6l110 398c31 112 -11 122 -84 147z" />
    <glyph glyph-name="Wacute" unicode="&#x1e82;" horiz-adv-x="668" 
d="M492 859v-6l-131 -275h-7l65 281h73zM505 669v6h149v-6l-193 -682h-5l-115 400h-6l-114 -400h-5l-205 682v6h155v-6l-86 -33l154 -512h6l74 271c24 87 12 91 -75 121v6h217v-6l-86 -33l103 -359h6l110 398c31 112 -11 122 -84 147z" />
    <glyph glyph-name="Wcircumflex" unicode="&#x174;" horiz-adv-x="668" 
d="M462 715l-115 76h-3l-113 -76v6l116 139h3l112 -139v-6zM505 669v6h149v-6l-193 -682h-5l-115 400h-6l-114 -400h-5l-205 682v6h155v-6l-86 -33l154 -512h6l74 271c24 87 12 91 -75 121v6h217v-6l-86 -33l103 -359h6l110 398c31 112 -11 122 -84 147z" />
    <glyph glyph-name="Wdieresis" unicode="&#x1e84;" horiz-adv-x="668" 
d="M256 760c-21 0 -37 16 -37 37c0 19 16 36 37 36c20 0 36 -17 36 -36c0 -21 -16 -37 -36 -37zM438 760c-21 0 -37 16 -37 37c0 19 16 36 37 36c20 0 36 -17 36 -36c0 -21 -16 -37 -36 -37zM505 669v6h149v-6l-193 -682h-5l-115 400h-6l-114 -400h-5l-205 682v6h155v-6
l-86 -33l154 -512h6l74 271c24 87 12 91 -75 121v6h217v-6l-86 -33l103 -359h6l110 398c31 112 -11 122 -84 147z" />
    <glyph glyph-name="Wgrave" unicode="&#x1e80;" horiz-adv-x="668" 
d="M278 859l65 -281h-7l-131 275v6h73zM505 669v6h149v-6l-193 -682h-5l-115 400h-6l-114 -400h-5l-205 682v6h155v-6l-86 -33l154 -512h6l74 271c24 87 12 91 -75 121v6h217v-6l-86 -33l103 -359h6l110 398c31 112 -11 122 -84 147z" />
    <glyph glyph-name="X" unicode="X" horiz-adv-x="525" 
d="M489 669l-203 -309l223 -354v-6h-176v6l89 33l-175 276l1 -4l-108 -166c-45 -69 -64 -105 52 -139v-6h-169v6l214 325l-215 338v6h180v-6l-90 -33l162 -257l98 151c54 83 65 111 -32 139v6h149v-6z" />
    <glyph glyph-name="Y" unicode="Y" horiz-adv-x="484" 
d="M480 675v-6l-207 -394v-239l87 -30v-6h-234v6l87 30v242l-209 391v6h171v-6l-89 -33l174 -331h7l88 170c72 139 80 170 -24 194v6h149z" />
    <glyph glyph-name="Yacute" unicode="&#xdd;" horiz-adv-x="484" 
d="M387 859v-6l-136 -145h-7l65 151h78zM480 675v-6l-207 -394v-239l87 -30v-6h-234v6l87 30v242l-209 391v6h171v-6l-89 -33l174 -331h7l88 170c72 139 80 170 -24 194v6h149z" />
    <glyph glyph-name="Ycircumflex" unicode="&#x176;" horiz-adv-x="484" 
d="M363 715l-115 76h-3l-113 -76v6l116 139h3l112 -139v-6zM480 675v-6l-207 -394v-239l87 -30v-6h-234v6l87 30v242l-209 391v6h171v-6l-89 -33l174 -331h7l88 170c72 139 80 170 -24 194v6h149z" />
    <glyph glyph-name="Ydieresis" unicode="&#x178;" horiz-adv-x="484" 
d="M157 760c-21 0 -37 16 -37 37c0 19 16 36 37 36c20 0 36 -17 36 -36c0 -21 -16 -37 -36 -37zM339 760c-21 0 -37 16 -37 37c0 19 16 36 37 36c20 0 36 -17 36 -36c0 -21 -16 -37 -36 -37zM480 675v-6l-207 -394v-239l87 -30v-6h-234v6l87 30v242l-209 391v6h171v-6
l-89 -33l174 -331h7l88 170c72 139 80 170 -24 194v6h149z" />
    <glyph glyph-name="Ygrave" unicode="&#x1ef2;" horiz-adv-x="484" 
d="M190 859l65 -151h-7l-136 145v6h78zM480 675v-6l-207 -394v-239l87 -30v-6h-234v6l87 30v242l-209 391v6h171v-6l-89 -33l174 -331h7l88 170c72 139 80 170 -24 194v6h149z" />
    <glyph glyph-name="uni0232" unicode="&#x232;" horiz-adv-x="484" 
d="M97 788h301v-32h-301v32zM480 675v-6l-207 -394v-239l87 -30v-6h-234v6l87 30v242l-209 391v6h171v-6l-89 -33l174 -331h7l88 170c72 139 80 170 -24 194v6h149z" />
    <glyph glyph-name="uni1EF8" unicode="&#x1ef8;" horiz-adv-x="484" 
d="M159 791c-20 0 -49 -2 -64 -47h-5c12 50 47 94 89 94c49 0 112 -47 160 -47c20 0 49 0 66 58h5c-8 -61 -42 -105 -89 -105c-51 0 -119 47 -162 47zM480 675v-6l-207 -394v-239l87 -30v-6h-234v6l87 30v242l-209 391v6h171v-6l-89 -33l174 -331h7l88 170
c72 139 80 170 -24 194v6h149z" />
    <glyph glyph-name="Z" unicode="Z" horiz-adv-x="519" 
d="M467 207h6v-207h-433v6l355 651h-215c-66 0 -67 -2 -103 -134c-4 -16 -9 -34 -15 -55h-6v207h412v-6l-349 -651h230c66 0 67 2 103 134c4 16 9 34 15 55z" />
    <glyph glyph-name="Zacute" unicode="&#x179;" horiz-adv-x="519" 
d="M397 859v-6l-136 -145h-7l65 151h78zM467 207h6v-207h-433v6l355 651h-215c-66 0 -67 -2 -103 -134c-4 -16 -9 -34 -15 -55h-6v207h412v-6l-349 -651h230c66 0 67 2 103 134c4 16 9 34 15 55z" />
    <glyph glyph-name="Zcaron" unicode="&#x17d;" horiz-adv-x="519" 
d="M373 850l-112 -139h-3l-116 139v6l113 -76h3l115 76v-6zM467 207h6v-207h-433v6l355 651h-215c-66 0 -67 -2 -103 -134c-4 -16 -9 -34 -15 -55h-6v207h412v-6l-349 -651h230c66 0 67 2 103 134c4 16 9 34 15 55z" />
    <glyph glyph-name="Zdotaccent" unicode="&#x17b;" horiz-adv-x="519" 
d="M258 784c-26 0 -46 20 -46 46c0 24 20 45 46 45c25 0 45 -21 45 -45c0 -26 -20 -46 -45 -46zM467 207h6v-207h-433v6l355 651h-215c-66 0 -67 -2 -103 -134c-4 -16 -9 -34 -15 -55h-6v207h412v-6l-349 -651h230c66 0 67 2 103 134c4 16 9 34 15 55z" />
    <glyph glyph-name="J.ss01" horiz-adv-x="276" 
d="M-29 -252l-4 8c55 51 145 151 145 354v529l-87 30v6h234v-6l-87 -30v-529c0 -229 -147 -311 -201 -362z" />
    <glyph glyph-name="a" unicode="a" horiz-adv-x="470" 
d="M367 41l117 65l3 -5c-43 -35 -95 -108 -126 -108c-14 0 -31 4 -50 112c-58 -82 -102 -116 -170 -116c-67 0 -98 35 -98 80c0 79 101 157 204 227l66 45c0 76 -6 151 -92 151c-82 0 -124 -68 -119 -158l-74 -41l-3 2c61 172 172 241 216 241c107 0 135 -81 133 -145
l-7 -284v-66zM172 26c39 0 88 31 139 102l2 189c-140 -86 -202 -153 -202 -222c0 -43 25 -69 61 -69z" />
    <glyph glyph-name="aacute" unicode="&#xe1;" horiz-adv-x="470" 
d="M382 750v-6l-153 -175h-7l95 181h65zM367 41l117 65l3 -5c-43 -35 -95 -108 -126 -108c-14 0 -31 4 -50 112c-58 -82 -102 -116 -170 -116c-67 0 -98 35 -98 80c0 79 101 157 204 227l66 45c0 76 -6 151 -92 151c-82 0 -124 -68 -119 -158l-74 -41l-3 2
c61 172 172 241 216 241c107 0 135 -81 133 -145l-7 -284v-66zM172 26c39 0 88 31 139 102l2 189c-140 -86 -202 -153 -202 -222c0 -43 25 -69 61 -69z" />
    <glyph glyph-name="abreve" unicode="&#x103;" horiz-adv-x="470" 
d="M235 577c-58 0 -109 63 -109 167h7c0 -74 54 -115 102 -115s102 41 102 115h7c0 -104 -51 -167 -109 -167zM367 41l117 65l3 -5c-43 -35 -95 -108 -126 -108c-14 0 -31 4 -50 112c-58 -82 -102 -116 -170 -116c-67 0 -98 35 -98 80c0 79 101 157 204 227l66 45
c0 76 -6 151 -92 151c-82 0 -124 -68 -119 -158l-74 -41l-3 2c61 172 172 241 216 241c107 0 135 -81 133 -145l-7 -284v-66zM172 26c39 0 88 31 139 102l2 189c-140 -86 -202 -153 -202 -222c0 -43 25 -69 61 -69z" />
    <glyph glyph-name="acircumflex" unicode="&#xe2;" horiz-adv-x="470" 
d="M235 676h-3l-103 -110l-3 6l109 189h3l105 -189l-3 -6zM367 41l117 65l3 -5c-43 -35 -95 -108 -126 -108c-14 0 -31 4 -50 112c-58 -82 -102 -116 -170 -116c-67 0 -98 35 -98 80c0 79 101 157 204 227l66 45c0 76 -6 151 -92 151c-82 0 -124 -68 -119 -158l-74 -41l-3 2
c61 172 172 241 216 241c107 0 135 -81 133 -145l-7 -284v-66zM172 26c39 0 88 31 139 102l2 189c-140 -86 -202 -153 -202 -222c0 -43 25 -69 61 -69z" />
    <glyph glyph-name="adieresis" unicode="&#xe4;" horiz-adv-x="470" 
d="M144 607c-21 0 -37 16 -37 37c0 19 16 36 37 36c20 0 36 -17 36 -36c0 -21 -16 -37 -36 -37zM326 607c-21 0 -37 16 -37 37c0 19 16 36 37 36c20 0 36 -17 36 -36c0 -21 -16 -37 -36 -37zM367 41l117 65l3 -5c-43 -35 -95 -108 -126 -108c-14 0 -31 4 -50 112
c-58 -82 -102 -116 -170 -116c-67 0 -98 35 -98 80c0 79 101 157 204 227l66 45c0 76 -6 151 -92 151c-82 0 -124 -68 -119 -158l-74 -41l-3 2c61 172 172 241 216 241c107 0 135 -81 133 -145l-7 -284v-66zM172 26c39 0 88 31 139 102l2 189c-140 -86 -202 -153 -202 -222
c0 -43 25 -69 61 -69z" />
    <glyph glyph-name="uni1EA1" unicode="&#x1ea1;" horiz-adv-x="470" 
d="M367 41l117 65l3 -5c-43 -35 -95 -108 -126 -108c-14 0 -31 4 -50 112c-58 -82 -102 -116 -170 -116c-67 0 -98 35 -98 80c0 79 101 157 204 227l66 45c0 76 -6 151 -92 151c-82 0 -124 -68 -119 -158l-74 -41l-3 2c61 172 172 241 216 241c107 0 135 -81 133 -145
l-7 -284v-66zM172 26c39 0 88 31 139 102l2 189c-140 -86 -202 -153 -202 -222c0 -43 25 -69 61 -69zM235 -95c25 0 45 -21 45 -45c0 -26 -20 -46 -45 -46c-26 0 -46 20 -46 46c0 24 20 45 46 45z" />
    <glyph glyph-name="agrave" unicode="&#xe0;" horiz-adv-x="470" 
d="M145 750l95 -181h-7l-153 175v6h65zM367 41l117 65l3 -5c-43 -35 -95 -108 -126 -108c-14 0 -31 4 -50 112c-58 -82 -102 -116 -170 -116c-67 0 -98 35 -98 80c0 79 101 157 204 227l66 45c0 76 -6 151 -92 151c-82 0 -124 -68 -119 -158l-74 -41l-3 2
c61 172 172 241 216 241c107 0 135 -81 133 -145l-7 -284v-66zM172 26c39 0 88 31 139 102l2 189c-140 -86 -202 -153 -202 -222c0 -43 25 -69 61 -69z" />
    <glyph glyph-name="amacron" unicode="&#x101;" horiz-adv-x="470" 
d="M84 630h301v-30h-301v30zM367 41l117 65l3 -5c-43 -35 -95 -108 -126 -108c-14 0 -31 4 -50 112c-58 -82 -102 -116 -170 -116c-67 0 -98 35 -98 80c0 79 101 157 204 227l66 45c0 76 -6 151 -92 151c-82 0 -124 -68 -119 -158l-74 -41l-3 2c61 172 172 241 216 241
c107 0 135 -81 133 -145l-7 -284v-66zM172 26c39 0 88 31 139 102l2 189c-140 -86 -202 -153 -202 -222c0 -43 25 -69 61 -69z" />
    <glyph glyph-name="aogonek" unicode="&#x105;" horiz-adv-x="470" 
d="M484 106l3 -5c-27 -22 -58 -60 -85 -84c-83 -96 -121 -231 -29 -231c25 0 51 20 71 37l5 -4c-45 -46 -86 -74 -99 -74c-22 0 -83 9 -83 71c0 50 42 103 100 178c-2 -1 -4 -1 -6 -1c-14 0 -31 4 -50 112c-58 -82 -102 -116 -170 -116c-67 0 -98 35 -98 80
c0 79 101 157 204 227l66 45c0 76 -6 151 -92 151c-82 0 -124 -68 -119 -158l-74 -41l-3 2c61 172 172 241 216 241c107 0 135 -81 133 -145l-7 -284v-66zM172 26c39 0 88 31 139 102l2 189c-140 -86 -202 -153 -202 -222c0 -43 25 -69 61 -69z" />
    <glyph glyph-name="aring" unicode="&#xe5;" horiz-adv-x="470" 
d="M235 574c-53 0 -94 42 -94 94s41 94 94 94c52 0 94 -42 94 -94s-42 -94 -94 -94zM235 745c-42 0 -75 -34 -75 -77s33 -77 75 -77s75 34 75 77s-33 77 -75 77zM367 41l117 65l3 -5c-43 -35 -95 -108 -126 -108c-14 0 -31 4 -50 112c-58 -82 -102 -116 -170 -116
c-67 0 -98 35 -98 80c0 79 101 157 204 227l66 45c0 76 -6 151 -92 151c-82 0 -124 -68 -119 -158l-74 -41l-3 2c61 172 172 241 216 241c107 0 135 -81 133 -145l-7 -284v-66zM172 26c39 0 88 31 139 102l2 189c-140 -86 -202 -153 -202 -222c0 -43 25 -69 61 -69z" />
    <glyph glyph-name="atilde" unicode="&#xe3;" horiz-adv-x="470" 
d="M159 641c-20 0 -48 -2 -82 -57l-4 3c29 60 54 101 96 101c49 0 92 -47 140 -47c20 0 49 0 84 58l4 -3c-28 -61 -54 -102 -96 -102c-51 0 -99 47 -142 47zM367 41l117 65l3 -5c-43 -35 -95 -108 -126 -108c-14 0 -31 4 -50 112c-58 -82 -102 -116 -170 -116
c-67 0 -98 35 -98 80c0 79 101 157 204 227l66 45c0 76 -6 151 -92 151c-82 0 -124 -68 -119 -158l-74 -41l-3 2c61 172 172 241 216 241c107 0 135 -81 133 -145l-7 -284v-66zM172 26c39 0 88 31 139 102l2 189c-140 -86 -202 -153 -202 -222c0 -43 25 -69 61 -69z" />
    <glyph glyph-name="ae" unicode="&#xe6;" horiz-adv-x="703" 
d="M675 62l3 -3c-58 -44 -109 -69 -138 -69c-111 0 -181 50 -211 135h-3c-47 -83 -109 -136 -191 -136c-61 0 -92 35 -92 76c0 102 152 191 270 277c-2 101 -21 150 -92 150c-68 0 -124 -57 -119 -158l-74 -41l-3 2c67 172 172 241 216 241c86 0 121 -52 130 -105
c54 72 130 105 157 105c108 0 142 -69 142 -168c0 -17 -66 -56 -79 -56h-218c-1 -11 -1 -22 -1 -33c0 -145 73 -249 202 -249c44 0 71 14 101 32zM496 498c-69 0 -112 -63 -122 -170h233c2 104 -34 170 -111 170zM177 26c39 0 95 36 145 121c-7 30 -11 63 -10 99l1 60v12
c-140 -87 -199 -155 -199 -228c0 -38 25 -64 63 -64z" />
    <glyph glyph-name="aeacute" unicode="&#x1fd;" horiz-adv-x="703" 
d="M497 750v-6l-153 -175h-7l95 181h65zM675 62l3 -3c-58 -44 -109 -69 -138 -69c-111 0 -181 50 -211 135h-3c-47 -83 -109 -136 -191 -136c-61 0 -92 35 -92 76c0 102 152 191 270 277c-2 101 -21 150 -92 150c-68 0 -124 -57 -119 -158l-74 -41l-3 2
c67 172 172 241 216 241c86 0 121 -52 130 -105c54 72 130 105 157 105c108 0 142 -69 142 -168c0 -17 -66 -56 -79 -56h-218c-1 -11 -1 -22 -1 -33c0 -145 73 -249 202 -249c44 0 71 14 101 32zM496 498c-69 0 -112 -63 -122 -170h233c2 104 -34 170 -111 170zM177 26
c39 0 95 36 145 121c-7 30 -11 63 -10 99l1 60v12c-140 -87 -199 -155 -199 -228c0 -38 25 -64 63 -64z" />
    <glyph glyph-name="b" unicode="b" horiz-adv-x="471" 
d="M246 532c109 0 205 -79 205 -260c0 -201 -154 -281 -193 -281c-77 0 -125 35 -146 84h-3l-29 -85h-6l2 729l-99 -1v6l150 33h6v-289c50 39 100 64 113 64zM274 29c51 0 128 28 128 214c0 136 -71 245 -173 245c-44 0 -75 -21 -97 -39v-245c0 -105 54 -175 142 -175z" />
    <glyph glyph-name="c" unicode="c" horiz-adv-x="387" 
d="M241 -10c-120 0 -219 83 -219 253c0 219 165 291 207 291c107 0 150 -78 150 -126l-63 -67l-3 2c21 85 -31 148 -101 148c-58 0 -142 -30 -142 -197c0 -165 82 -260 205 -260c44 0 70 20 100 38l4 -7c-58 -44 -109 -75 -138 -75z" />
    <glyph glyph-name="cacute" unicode="&#x107;" horiz-adv-x="387" 
d="M308 750h65v-6l-153 -175h-7zM241 -10c-120 0 -219 83 -219 253c0 219 165 291 207 291c107 0 150 -78 150 -126l-63 -67l-3 2c21 85 -31 148 -101 148c-58 0 -142 -30 -142 -197c0 -165 82 -260 205 -260c44 0 70 20 100 38l4 -7c-58 -44 -109 -75 -138 -75z" />
    <glyph glyph-name="ccaron" unicode="&#x10d;" horiz-adv-x="387" 
d="M226 569l-109 189l3 6l103 -110h3l105 110l3 -6l-105 -189h-3zM241 -10c-120 0 -219 83 -219 253c0 219 165 291 207 291c107 0 150 -78 150 -126l-63 -67l-3 2c21 85 -31 148 -101 148c-58 0 -142 -30 -142 -197c0 -165 82 -260 205 -260c44 0 70 20 100 38l4 -7
c-58 -44 -109 -75 -138 -75z" />
    <glyph glyph-name="ccedilla" unicode="&#xe7;" horiz-adv-x="387" 
d="M241 -10h-13l-30 -54c49 -11 86 -40 86 -83c0 -44 -39 -87 -120 -110l-1 5c60 19 77 47 77 77c0 37 -32 58 -81 62l-1 6l57 98c-108 11 -193 94 -193 252c0 219 165 291 207 291c107 0 150 -78 150 -126l-63 -67l-3 2c21 85 -31 148 -101 148c-58 0 -142 -30 -142 -197
c0 -165 82 -260 205 -260c44 0 70 20 100 38l4 -7c-58 -44 -109 -75 -138 -75z" />
    <glyph glyph-name="ccircumflex" unicode="&#x109;" horiz-adv-x="387" 
d="M120 566l-3 6l109 189h3l105 -189l-3 -6l-105 110h-3zM241 -10c-120 0 -219 83 -219 253c0 219 165 291 207 291c107 0 150 -78 150 -126l-63 -67l-3 2c21 85 -31 148 -101 148c-58 0 -142 -30 -142 -197c0 -165 82 -260 205 -260c44 0 70 20 100 38l4 -7
c-58 -44 -109 -75 -138 -75z" />
    <glyph glyph-name="cdotaccent" unicode="&#x10b;" horiz-adv-x="387" 
d="M226 631c-26 0 -46 20 -46 46c0 24 20 45 46 45c25 0 45 -21 45 -45c0 -26 -20 -46 -45 -46zM241 -10c-120 0 -219 83 -219 253c0 219 165 291 207 291c107 0 150 -78 150 -126l-63 -67l-3 2c21 85 -31 148 -101 148c-58 0 -142 -30 -142 -197c0 -165 82 -260 205 -260
c44 0 70 20 100 38l4 -7c-58 -44 -109 -75 -138 -75z" />
    <glyph glyph-name="d" unicode="d" horiz-adv-x="486" 
d="M383 41l117 65l3 -5c-43 -35 -95 -108 -126 -108c-13 0 -28 3 -46 91c-46 -46 -105 -90 -119 -90c-103 0 -192 76 -192 237c0 215 161 296 198 296c54 0 87 -8 109 -18v210l-100 -1v6l150 33h6v-716zM217 41c52 0 88 34 110 67v351c-27 15 -60 31 -107 31
c-64 0 -152 -36 -152 -215c0 -136 61 -234 149 -234z" />
    <glyph glyph-name="eth" unicode="&#xf0;" horiz-adv-x="440" 
d="M374 712l-109 -63c97 -99 155 -232 153 -366c-3 -204 -148 -293 -195 -293c-104 0 -201 76 -201 261c0 201 97 266 173 266c33 0 102 -17 138 -90l2 2c-31 93 -65 157 -98 203l-113 -65l-9 15l111 64c-36 46 -71 74 -102 99l5 6c46 -24 87 -55 124 -90l112 65zM247 36
c46 0 125 34 125 190c0 152 -77 259 -186 259c-46 0 -125 -34 -125 -190c0 -152 77 -259 186 -259z" />
    <glyph glyph-name="dcaron" unicode="&#x10f;" horiz-adv-x="486" 
d="M447 521l34 157c-23 1 -42 19 -42 41c0 21 18 39 41 39c22 0 40 -14 40 -44c0 -36 -19 -78 -66 -193h-7zM383 41l117 65l3 -5c-43 -35 -95 -108 -126 -108c-13 0 -28 3 -46 91c-46 -46 -105 -90 -119 -90c-103 0 -192 76 -192 237c0 215 161 296 198 296
c54 0 87 -8 109 -18v210l-100 -1v6l150 33h6v-716zM217 41c52 0 88 34 110 67v351c-27 15 -60 31 -107 31c-64 0 -152 -36 -152 -215c0 -136 61 -234 149 -234z" />
    <glyph glyph-name="dcroat" unicode="&#x111;" horiz-adv-x="486" 
d="M503 612h-120v-571l117 65l3 -5c-43 -35 -95 -108 -126 -108c-13 0 -28 3 -46 91c-46 -46 -105 -90 -119 -90c-103 0 -192 76 -192 237c0 215 161 296 198 296c54 0 87 -8 109 -18v103h-113v18h113v89l-100 -1v6l150 33h6v-127h120v-18zM217 41c52 0 88 34 110 67v351
c-27 15 -60 31 -107 31c-64 0 -152 -36 -152 -215c0 -136 61 -234 149 -234z" />
    <glyph glyph-name="e" unicode="e" horiz-adv-x="404" 
d="M375 72l4 -7c-58 -44 -109 -75 -138 -75c-120 0 -219 83 -219 253c0 219 165 291 207 291c108 0 143 -67 143 -166c0 -17 -57 -56 -70 -56h-232v-18c0 -165 82 -260 205 -260c44 0 70 19 100 38zM212 491c-54 0 -129 -26 -141 -161h247c9 115 -45 161 -106 161z" />
    <glyph glyph-name="eacute" unicode="&#xe9;" horiz-adv-x="404" 
d="M376 750v-6l-153 -175h-7l95 181h65zM375 72l4 -7c-58 -44 -109 -75 -138 -75c-120 0 -219 83 -219 253c0 219 165 291 207 291c108 0 143 -67 143 -166c0 -17 -57 -56 -70 -56h-232v-18c0 -165 82 -260 205 -260c44 0 70 19 100 38zM212 491c-54 0 -129 -26 -141 -161
h247c9 115 -45 161 -106 161z" />
    <glyph glyph-name="ebreve" unicode="&#x115;" horiz-adv-x="404" 
d="M229 577c-58 0 -109 63 -109 167h7c0 -74 54 -115 102 -115s102 41 102 115h7c0 -104 -51 -167 -109 -167zM375 72l4 -7c-58 -44 -109 -75 -138 -75c-120 0 -219 83 -219 253c0 219 165 291 207 291c108 0 143 -67 143 -166c0 -17 -57 -56 -70 -56h-232v-18
c0 -165 82 -260 205 -260c44 0 70 19 100 38zM212 491c-54 0 -129 -26 -141 -161h247c9 115 -45 161 -106 161z" />
    <glyph glyph-name="ecaron" unicode="&#x11b;" horiz-adv-x="404" 
d="M337 758l-105 -189h-3l-109 189l3 6l103 -110h3l105 110zM375 72l4 -7c-58 -44 -109 -75 -138 -75c-120 0 -219 83 -219 253c0 219 165 291 207 291c108 0 143 -67 143 -166c0 -17 -57 -56 -70 -56h-232v-18c0 -165 82 -260 205 -260c44 0 70 19 100 38zM212 491
c-54 0 -129 -26 -141 -161h247c9 115 -45 161 -106 161z" />
    <glyph glyph-name="ecircumflex" unicode="&#xea;" horiz-adv-x="404" 
d="M229 676h-3l-103 -110l-3 6l109 189h3l105 -189l-3 -6zM375 72l4 -7c-58 -44 -109 -75 -138 -75c-120 0 -219 83 -219 253c0 219 165 291 207 291c108 0 143 -67 143 -166c0 -17 -57 -56 -70 -56h-232v-18c0 -165 82 -260 205 -260c44 0 70 19 100 38zM212 491
c-54 0 -129 -26 -141 -161h247c9 115 -45 161 -106 161z" />
    <glyph glyph-name="edieresis" unicode="&#xeb;" horiz-adv-x="404" 
d="M138 607c-21 0 -37 16 -37 37c0 19 16 36 37 36c20 0 36 -17 36 -36c0 -21 -16 -37 -36 -37zM320 607c-21 0 -37 16 -37 37c0 19 16 36 37 36c20 0 36 -17 36 -36c0 -21 -16 -37 -36 -37zM375 72l4 -7c-58 -44 -109 -75 -138 -75c-120 0 -219 83 -219 253
c0 219 165 291 207 291c108 0 143 -67 143 -166c0 -17 -57 -56 -70 -56h-232v-18c0 -165 82 -260 205 -260c44 0 70 19 100 38zM212 491c-54 0 -129 -26 -141 -161h247c9 115 -45 161 -106 161z" />
    <glyph glyph-name="edotaccent" unicode="&#x117;" horiz-adv-x="404" 
d="M229 631c-26 0 -46 20 -46 46c0 24 20 45 46 45c25 0 45 -21 45 -45c0 -26 -20 -46 -45 -46zM375 72l4 -7c-58 -44 -109 -75 -138 -75c-120 0 -219 83 -219 253c0 219 165 291 207 291c108 0 143 -67 143 -166c0 -17 -57 -56 -70 -56h-232v-18c0 -165 82 -260 205 -260
c44 0 70 19 100 38zM212 491c-54 0 -129 -26 -141 -161h247c9 115 -45 161 -106 161z" />
    <glyph glyph-name="uni1EB9" unicode="&#x1eb9;" horiz-adv-x="404" 
d="M375 72l4 -7c-58 -44 -109 -75 -138 -75c-120 0 -219 83 -219 253c0 219 165 291 207 291c108 0 143 -67 143 -166c0 -17 -57 -56 -70 -56h-232v-18c0 -165 82 -260 205 -260c44 0 70 19 100 38zM212 491c-54 0 -129 -26 -141 -161h247c9 115 -45 161 -106 161zM199 -95
c25 0 45 -21 45 -45c0 -26 -20 -46 -45 -46c-26 0 -46 20 -46 46c0 24 20 45 46 45z" />
    <glyph glyph-name="egrave" unicode="&#xe8;" horiz-adv-x="404" 
d="M139 750l95 -181h-7l-153 175v6h65zM375 72l4 -7c-58 -44 -109 -75 -138 -75c-120 0 -219 83 -219 253c0 219 165 291 207 291c108 0 143 -67 143 -166c0 -17 -57 -56 -70 -56h-232v-18c0 -165 82 -260 205 -260c44 0 70 19 100 38zM212 491c-54 0 -129 -26 -141 -161
h247c9 115 -45 161 -106 161z" />
    <glyph glyph-name="emacron" unicode="&#x113;" horiz-adv-x="404" 
d="M78 600v30h301v-30h-301zM275 34c44 0 70 19 100 38l4 -7c-58 -44 -109 -75 -138 -75c-120 0 -219 83 -219 253c0 219 165 291 207 291c108 0 143 -67 143 -166c0 -17 -57 -56 -70 -56h-232v-18c0 -165 82 -260 205 -260zM212 491c-54 0 -129 -26 -141 -161h247
c9 115 -45 161 -106 161z" />
    <glyph glyph-name="eogonek" unicode="&#x119;" horiz-adv-x="404" 
d="M280 -214c25 0 51 20 71 37l5 -4c-45 -46 -86 -74 -99 -74c-22 0 -83 9 -83 71c0 51 45 107 106 185c-15 -7 -29 -11 -39 -11c-120 0 -219 83 -219 253c0 219 165 291 207 291c108 0 143 -67 143 -166c0 -17 -57 -56 -70 -56h-232v-18c0 -165 82 -260 205 -260
c44 0 70 19 100 38l4 -7c-25 -19 -49 -36 -70 -48c-83 -96 -121 -231 -29 -231zM212 491c-54 0 -129 -26 -141 -161h247c9 115 -45 161 -106 161z" />
    <glyph glyph-name="uni1EBD" unicode="&#x1ebd;" horiz-adv-x="404" 
d="M153 641c-20 0 -48 -2 -82 -57l-4 3c29 60 54 101 96 101c49 0 92 -47 140 -47c20 0 49 0 84 58l4 -3c-28 -61 -54 -102 -96 -102c-51 0 -99 47 -142 47zM275 34c44 0 70 19 100 38l4 -7c-58 -44 -109 -75 -138 -75c-120 0 -219 83 -219 253c0 219 165 291 207 291
c108 0 143 -67 143 -166c0 -17 -57 -56 -70 -56h-232v-18c0 -165 82 -260 205 -260zM212 491c-54 0 -129 -26 -141 -161h247c9 115 -45 161 -106 161z" />
    <glyph glyph-name="uni0259" unicode="&#x259;" horiz-adv-x="404" 
d="M163 532c120 0 219 -83 219 -253c0 -219 -165 -291 -207 -291c-108 0 -143 67 -143 166c0 17 57 56 70 56h232v18c0 165 -82 260 -205 260c-44 0 -70 -19 -100 -38l-4 7c58 44 109 75 138 75zM192 31c54 0 129 26 141 161h-247c-9 -115 45 -161 106 -161z" />
    <glyph glyph-name="f" unicode="f" horiz-adv-x="324" 
d="M244 762c86 0 131 -39 157 -79l-44 -83l-5 3c9 74 -61 124 -129 124c-57 0 -91 -36 -91 -98c0 -48 24 -95 27 -107h160v-33c-17 0 -87 9 -155 14h-5l-1 -473l90 -24v-6h-236v6l90 24l1 474l-88 12v6h87l-2 49c-8 152 102 191 144 191z" />
    <glyph glyph-name="g" unicode="g" horiz-adv-x="482" 
d="M522 522v-31c-43 0 -129 11 -182 21l-1 -2c52 -33 74 -82 74 -137c0 -118 -118 -197 -166 -197c-40 0 -76 8 -105 25c-28 -30 -57 -56 -57 -84c0 -32 22 -58 77 -63l167 -15c52 -5 147 -6 147 -97c0 -19 -8 -199 -246 -199c-115 0 -220 48 -220 126c0 11 17 23 144 133
c-67 6 -131 33 -131 94c0 8 53 51 106 113c-37 27 -60 70 -60 131c0 118 118 196 167 196c18 0 109 -14 179 -14h107zM369 338c0 91 -64 156 -150 156c-53 0 -107 -32 -107 -122s64 -155 142 -155c61 0 115 31 115 121zM455 -99c0 70 -102 84 -182 91l-99 8
c-61 -44 -97 -82 -97 -113c0 -52 73 -99 194 -99c116 0 184 55 184 113z" />
    <glyph glyph-name="gbreve" unicode="&#x11f;" horiz-adv-x="482" 
d="M255 577c-58 0 -109 63 -109 167h7c0 -74 54 -115 102 -115s102 41 102 115h7c0 -104 -51 -167 -109 -167zM522 522v-31c-43 0 -129 11 -182 21l-1 -2c52 -33 74 -82 74 -137c0 -118 -118 -197 -166 -197c-40 0 -76 8 -105 25c-28 -30 -57 -56 -57 -84
c0 -32 22 -58 77 -63l167 -15c52 -5 147 -6 147 -97c0 -19 -8 -199 -246 -199c-115 0 -220 48 -220 126c0 11 17 23 144 133c-67 6 -131 33 -131 94c0 8 53 51 106 113c-37 27 -60 70 -60 131c0 118 118 196 167 196c18 0 109 -14 179 -14h107zM369 338
c0 91 -64 156 -150 156c-53 0 -107 -32 -107 -122s64 -155 142 -155c61 0 115 31 115 121zM455 -99c0 70 -102 84 -182 91l-99 8c-61 -44 -97 -82 -97 -113c0 -52 73 -99 194 -99c116 0 184 55 184 113z" />
    <glyph glyph-name="gcaron" unicode="&#x1e7;" horiz-adv-x="482" 
d="M363 758l-105 -189h-3l-109 189l3 6l103 -110h3l105 110zM522 522v-31c-43 0 -129 11 -182 21l-1 -2c52 -33 74 -82 74 -137c0 -118 -118 -197 -166 -197c-40 0 -76 8 -105 25c-28 -30 -57 -56 -57 -84c0 -32 22 -58 77 -63l167 -15c52 -5 147 -6 147 -97
c0 -19 -8 -199 -246 -199c-115 0 -220 48 -220 126c0 11 17 23 144 133c-67 6 -131 33 -131 94c0 8 53 51 106 113c-37 27 -60 70 -60 131c0 118 118 196 167 196c18 0 109 -14 179 -14h107zM369 338c0 91 -64 156 -150 156c-53 0 -107 -32 -107 -122s64 -155 142 -155
c61 0 115 31 115 121zM455 -99c0 70 -102 84 -182 91l-99 8c-61 -44 -97 -82 -97 -113c0 -52 73 -99 194 -99c116 0 184 55 184 113z" />
    <glyph glyph-name="gcircumflex" unicode="&#x11d;" horiz-adv-x="482" 
d="M255 676h-3l-103 -110l-3 6l109 189h3l105 -189l-3 -6zM522 522v-31c-43 0 -129 11 -182 21l-1 -2c52 -33 74 -82 74 -137c0 -118 -118 -197 -166 -197c-40 0 -76 8 -105 25c-28 -30 -57 -56 -57 -84c0 -32 22 -58 77 -63l167 -15c52 -5 147 -6 147 -97
c0 -19 -8 -199 -246 -199c-115 0 -220 48 -220 126c0 11 17 23 144 133c-67 6 -131 33 -131 94c0 8 53 51 106 113c-37 27 -60 70 -60 131c0 118 118 196 167 196c18 0 109 -14 179 -14h107zM369 338c0 91 -64 156 -150 156c-53 0 -107 -32 -107 -122s64 -155 142 -155
c61 0 115 31 115 121zM455 -99c0 70 -102 84 -182 91l-99 8c-61 -44 -97 -82 -97 -113c0 -52 73 -99 194 -99c116 0 184 55 184 113z" />
    <glyph glyph-name="uni0123" unicode="&#x123;" horiz-adv-x="482" 
d="M254 631c-24 0 -44 17 -44 45c0 29 21 60 73 126h6l-35 -83c24 -2 45 -20 45 -44c0 -23 -20 -44 -45 -44zM522 522v-31c-43 0 -129 11 -182 21l-1 -2c52 -33 74 -82 74 -137c0 -118 -118 -197 -166 -197c-40 0 -76 8 -105 25c-28 -30 -57 -56 -57 -84
c0 -32 22 -58 77 -63l167 -15c52 -5 147 -6 147 -97c0 -19 -8 -199 -246 -199c-115 0 -220 48 -220 126c0 11 17 23 144 133c-67 6 -131 33 -131 94c0 8 53 51 106 113c-37 27 -60 70 -60 131c0 118 118 196 167 196c18 0 109 -14 179 -14h107zM369 338
c0 91 -64 156 -150 156c-53 0 -107 -32 -107 -122s64 -155 142 -155c61 0 115 31 115 121zM455 -99c0 70 -102 84 -182 91l-99 8c-61 -44 -97 -82 -97 -113c0 -52 73 -99 194 -99c116 0 184 55 184 113z" />
    <glyph glyph-name="gdotaccent" unicode="&#x121;" horiz-adv-x="482" 
d="M255 631c-26 0 -46 20 -46 46c0 24 20 45 46 45c25 0 45 -21 45 -45c0 -26 -20 -46 -45 -46zM522 522v-31c-43 0 -129 11 -182 21l-1 -2c52 -33 74 -82 74 -137c0 -118 -118 -197 -166 -197c-40 0 -76 8 -105 25c-28 -30 -57 -56 -57 -84c0 -32 22 -58 77 -63l167 -15
c52 -5 147 -6 147 -97c0 -19 -8 -199 -246 -199c-115 0 -220 48 -220 126c0 11 17 23 144 133c-67 6 -131 33 -131 94c0 8 53 51 106 113c-37 27 -60 70 -60 131c0 118 118 196 167 196c18 0 109 -14 179 -14h107zM369 338c0 91 -64 156 -150 156c-53 0 -107 -32 -107 -122
s64 -155 142 -155c61 0 115 31 115 121zM455 -99c0 70 -102 84 -182 91l-99 8c-61 -44 -97 -82 -97 -113c0 -52 73 -99 194 -99c116 0 184 55 184 113z" />
    <glyph glyph-name="h" unicode="h" horiz-adv-x="501" 
d="M416 363l1 -333l90 -24v-6h-236v6l90 24v333c0 85 -53 122 -109 122c-39 0 -77 -36 -105 -73v-382l90 -24v-6h-236v6l90 24v689l-100 -1v6l150 33h6v-318c53 61 103 91 120 91c75 0 149 -33 149 -167z" />
    <glyph glyph-name="hbar" unicode="&#x127;" horiz-adv-x="501" 
d="M416 363l1 -333l90 -24v-6h-236v6l90 24v333c0 85 -53 122 -109 122c-39 0 -77 -36 -105 -73v-382l90 -24v-6h-236v6l90 24v563h-109v18h109v108l-100 -1v6l150 33h6v-146h124v-18h-124v-154c53 61 103 91 120 91c75 0 149 -33 149 -167z" />
    <glyph glyph-name="hcircumflex" unicode="&#x125;" horiz-adv-x="501" 
d="M240 790l-115 76h-3l-113 -76v6l116 139h3l112 -139v-6zM416 363l1 -333l90 -24v-6h-236v6l90 24v333c0 85 -53 122 -109 122c-39 0 -77 -36 -105 -73v-382l90 -24v-6h-236v6l90 24v689l-100 -1v6l150 33h6v-318c53 61 103 91 120 91c75 0 149 -33 149 -167z" />
    <glyph glyph-name="i" unicode="i" horiz-adv-x="247" 
d="M127 631c-26 0 -46 20 -46 46c0 24 20 45 46 45c25 0 45 -21 45 -45c0 -26 -20 -46 -45 -46zM103 30v460l-90 26v6h146v-492l90 -24v-6h-236v6z" />
    <glyph glyph-name="dotlessi" unicode="&#x131;" horiz-adv-x="247" 
d="M103 30v460l-90 26v6h146v-492l90 -24v-6h-236v6z" />
    <glyph glyph-name="iacute" unicode="&#xed;" horiz-adv-x="247" 
d="M209 750h65v-6l-153 -175h-7zM103 30v460l-90 26v6h146v-492l90 -24v-6h-236v6z" />
    <glyph glyph-name="ibreve" unicode="&#x12d;" horiz-adv-x="247" 
d="M127 577c-58 0 -109 63 -109 167h7c0 -74 54 -115 102 -115s102 41 102 115h7c0 -104 -51 -167 -109 -167zM159 30l90 -24v-6h-236v6l90 24v460l-90 26v6h146v-492z" />
    <glyph glyph-name="icircumflex" unicode="&#xee;" horiz-adv-x="247" 
d="M21 566l-3 6l109 189h3l105 -189l-3 -6l-105 110h-3zM103 30v460l-90 26v6h146v-492l90 -24v-6h-236v6z" />
    <glyph glyph-name="idieresis" unicode="&#xef;" horiz-adv-x="247" 
d="M36 607c-21 0 -37 16 -37 37c0 19 16 36 37 36c20 0 36 -17 36 -36c0 -21 -16 -37 -36 -37zM218 607c-21 0 -37 16 -37 37c0 19 16 36 37 36c20 0 36 -17 36 -36c0 -21 -16 -37 -36 -37zM103 30v460l-90 26v6h146v-492l90 -24v-6h-236v6z" />
    <glyph glyph-name="i.loclTRK" horiz-adv-x="247" 
d="M127 631c-26 0 -46 20 -46 46c0 24 20 45 46 45c25 0 45 -21 45 -45c0 -26 -20 -46 -45 -46zM103 30v460l-90 26v6h146v-492l90 -24v-6h-236v6z" />
    <glyph glyph-name="uni1ECB" unicode="&#x1ecb;" horiz-adv-x="247" 
d="M127 631c-26 0 -46 20 -46 46c0 24 20 45 46 45c25 0 45 -21 45 -45c0 -26 -20 -46 -45 -46zM103 30v460l-90 26v6h146v-492l90 -24v-6h-236v6zM131 -186c-26 0 -46 20 -46 46c0 24 20 45 46 45c25 0 45 -21 45 -45c0 -26 -20 -46 -45 -46z" />
    <glyph glyph-name="igrave" unicode="&#xec;" horiz-adv-x="247" 
d="M-28 744v6h65l95 -181h-7zM103 30v460l-90 26v6h146v-492l90 -24v-6h-236v6z" />
    <glyph glyph-name="imacron" unicode="&#x12b;" horiz-adv-x="247" 
d="M-24 600v30h301v-30h-301zM103 30v460l-90 26v6h146v-492l90 -24v-6h-236v6z" />
    <glyph glyph-name="iogonek" unicode="&#x12f;" horiz-adv-x="247" 
d="M127 631c-26 0 -46 20 -46 46c0 24 20 45 46 45c25 0 45 -21 45 -45c0 -26 -20 -46 -45 -46zM249 6v-6h-109c-53 -84 -83 -214 7 -214c25 0 51 20 71 37l5 -4c-45 -46 -86 -74 -99 -74c-22 0 -83 9 -83 71c0 53 44 111 84 184h-112v6l90 24v460l-90 26v6h146v-492z" />
    <glyph glyph-name="itilde" unicode="&#x129;" horiz-adv-x="247" 
d="M285 699l4 -3c-28 -61 -54 -102 -96 -102c-51 0 -99 47 -142 47c-20 0 -48 -2 -82 -57l-4 3c29 60 54 101 96 101c49 0 92 -47 140 -47c20 0 49 0 84 58zM103 30v460l-90 26v6h146v-492l90 -24v-6h-236v6z" />
    <glyph glyph-name="j" unicode="j" horiz-adv-x="220" 
d="M115 631c-26 0 -46 20 -46 46c0 24 20 45 46 45c25 0 45 -21 45 -45c0 -26 -20 -46 -45 -46zM149 20c0 -139 -149 -221 -203 -272l-4 8c58 51 151 151 151 264v470l-90 26v6h146v-502z" />
    <glyph glyph-name="uni0237" unicode="&#x237;" horiz-adv-x="220" 
d="M149 20c0 -139 -149 -221 -203 -272l-4 8c58 51 151 151 151 264v470l-90 26v6h146v-502z" />
    <glyph glyph-name="uni006A0301" horiz-adv-x="220" 
d="M197 750h65v-6l-153 -175h-7zM149 20c0 -139 -149 -221 -203 -272l-4 8c58 51 151 151 151 264v470l-90 26v6h146v-502z" />
    <glyph glyph-name="jcircumflex" unicode="&#x135;" horiz-adv-x="220" 
d="M9 566l-3 6l109 189h3l105 -189l-3 -6l-105 110h-3zM149 20c0 -139 -149 -221 -203 -272l-4 8c58 51 151 151 151 264v470l-90 26v6h146v-502z" />
    <glyph glyph-name="k" unicode="k" horiz-adv-x="458" 
d="M446 516l-212 -203l222 -307v-6h-174v6l92 21l-181 246l-46 -44v-199l90 -24v-6h-236v6l90 24v689l-100 -1v6l150 33h6v-503l177 170c45 43 47 63 -52 92v6h174v-6z" />
    <glyph glyph-name="uni0137" unicode="&#x137;" horiz-adv-x="458" 
d="M446 516l-212 -203l222 -307v-6h-174v6l92 21l-181 246l-46 -44v-199l90 -24v-6h-236v6l90 24v689l-100 -1v6l150 33h6v-503l177 170c45 43 47 63 -52 92v6h174v-6zM226 -108c24 0 44 -17 44 -45c0 -29 -21 -60 -73 -126h-6l35 83c-24 2 -45 20 -45 44c0 23 20 44 45 44z
" />
    <glyph glyph-name="kgreenlandic" unicode="&#x138;" horiz-adv-x="472" 
d="M460 516l-212 -203l222 -307v-6h-174v6l92 21l-181 246l-47 -45l-1 2v-200l90 -24v-6h-236v6l90 24v460l-90 26v6h146v-270l174 167c50 48 52 68 -47 97v6h174v-6z" />
    <glyph glyph-name="l" unicode="l" horiz-adv-x="238" 
d="M147 30l90 -24v-6h-236v6l90 24v689l-100 -1v6l150 33h6v-727z" />
    <glyph glyph-name="lacute" unicode="&#x13a;" horiz-adv-x="238" 
d="M109 797l95 181h65v-6l-153 -175h-7zM147 30l90 -24v-6h-236v6l90 24v689l-100 -1v6l150 33h6v-727z" />
    <glyph glyph-name="lcaron" unicode="&#x13e;" horiz-adv-x="238" 
d="M211 521l34 157c-23 1 -42 19 -42 41c0 21 18 39 41 39c22 0 40 -14 40 -44c0 -36 -19 -78 -66 -193h-7zM147 30l90 -24v-6h-236v6l90 24v689l-100 -1v6l150 33h6v-727z" />
    <glyph glyph-name="uni013C" unicode="&#x13c;" horiz-adv-x="238" 
d="M147 30l90 -24v-6h-236v6l90 24v689l-100 -1v6l150 33h6v-727zM122 -108c24 0 44 -17 44 -45c0 -29 -21 -60 -73 -126h-6l35 83c-24 2 -45 20 -45 44c0 23 20 44 45 44z" />
    <glyph glyph-name="ldot" unicode="&#x140;" horiz-adv-x="366" 
d="M147 30l90 -24v-6h-236v6l90 24v689l-100 -1v6l150 33h6v-727zM300 391c25 0 45 -21 45 -45c0 -26 -20 -46 -45 -46c-26 0 -46 20 -46 46c0 24 20 45 46 45z" />
    <glyph glyph-name="lslash" unicode="&#x142;" horiz-adv-x="238" 
d="M249 481l-102 -94v-357l90 -24v-6h-236v6l90 24v305l-87 -80l-13 14l100 92v358l-100 -1v6l150 33h6v-344l89 82z" />
    <glyph glyph-name="m" unicode="m" horiz-adv-x="791" 
d="M706 363l1 -333l90 -24v-6h-236v6l90 24v333c0 85 -53 122 -109 122c-40 0 -80 -39 -108 -77c2 -14 3 -29 3 -45l1 -333l90 -24v-6h-236v6l90 24v333c0 85 -53 122 -109 122c-38 0 -76 -36 -104 -72v-383l90 -24v-6h-236v6l90 24v454l-117 -65l-3 5c43 35 95 108 126 108
c13 0 29 -4 47 -96c54 63 105 94 122 94c61 0 120 -21 141 -100c56 67 110 100 128 100c75 0 149 -33 149 -167z" />
    <glyph glyph-name="n" unicode="n" horiz-adv-x="522" 
d="M437 363l1 -333l90 -24v-6h-236v6l90 24v333c0 85 -53 122 -109 122c-38 0 -76 -36 -104 -72v-383l90 -24v-6h-236v6l90 24v454l-117 -65l-3 5c43 35 95 108 126 108c13 0 29 -4 47 -96c54 63 105 94 122 94c75 0 149 -33 149 -167z" />
    <glyph glyph-name="nacute" unicode="&#x144;" horiz-adv-x="522" 
d="M407 750v-6l-153 -175h-7l95 181h65zM437 363l1 -333l90 -24v-6h-236v6l90 24v333c0 85 -53 122 -109 122c-38 0 -76 -36 -104 -72v-383l90 -24v-6h-236v6l90 24v454l-117 -65l-3 5c43 35 95 108 126 108c13 0 29 -4 47 -96c54 63 105 94 122 94c75 0 149 -33 149 -167z
" />
    <glyph glyph-name="ncaron" unicode="&#x148;" horiz-adv-x="522" 
d="M368 758l-105 -189h-3l-109 189l3 6l103 -110h3l105 110zM437 363l1 -333l90 -24v-6h-236v6l90 24v333c0 85 -53 122 -109 122c-38 0 -76 -36 -104 -72v-383l90 -24v-6h-236v6l90 24v454l-117 -65l-3 5c43 35 95 108 126 108c13 0 29 -4 47 -96c54 63 105 94 122 94
c75 0 149 -33 149 -167z" />
    <glyph glyph-name="uni0146" unicode="&#x146;" horiz-adv-x="522" 
d="M437 363l1 -333l90 -24v-6h-236v6l90 24v333c0 85 -53 122 -109 122c-38 0 -76 -36 -104 -72v-383l90 -24v-6h-236v6l90 24v454l-117 -65l-3 5c43 35 95 108 126 108c13 0 29 -4 47 -96c54 63 105 94 122 94c75 0 149 -33 149 -167zM260 -108c24 0 44 -17 44 -45
c0 -29 -21 -60 -73 -126h-6l35 83c-24 2 -45 20 -45 44c0 23 20 44 45 44z" />
    <glyph glyph-name="eng" unicode="&#x14b;" horiz-adv-x="511" 
d="M304 530c75 3 150 -33 149 -167l-2 -333c-1 -143 -147 -235 -197 -282l-4 8c58 51 147 151 147 274l1 333c0 85 -53 122 -109 122c-46 0 -91 -52 -120 -94v-361l90 -24v-6h-236v6l90 24v454l-117 -65l-3 5c43 35 95 108 126 108c14 0 31 -4 50 -112
c58 74 116 109 135 110z" />
    <glyph glyph-name="uni0272" unicode="&#x272;" horiz-adv-x="522" 
d="M438 363l1 -333l90 -24v-6h-237v6l90 24h1v333c0 85 -53 122 -109 122c-44 0 -87 -47 -116 -88v-377c0 -139 -145 -221 -199 -272l-4 8c58 51 147 151 147 264v464l-117 -65l-3 5c43 35 95 108 126 108c14 0 30 -4 49 -108c58 71 114 106 132 106c75 0 149 -33 149 -167z
" />
    <glyph glyph-name="ntilde" unicode="&#xf1;" horiz-adv-x="522" 
d="M184 641c-20 0 -48 -2 -82 -57l-4 3c29 60 54 101 96 101c49 0 92 -47 140 -47c20 0 49 0 84 58l4 -3c-28 -61 -54 -102 -96 -102c-51 0 -99 47 -142 47zM437 363l1 -333l90 -24v-6h-236v6l90 24v333c0 85 -53 122 -109 122c-38 0 -76 -36 -104 -72v-383l90 -24v-6h-236
v6l90 24v454l-117 -65l-3 5c43 35 95 108 126 108c13 0 29 -4 47 -96c54 63 105 94 122 94c75 0 149 -33 149 -167z" />
    <glyph glyph-name="o" unicode="o" horiz-adv-x="433" 
d="M222 -10c-104 0 -200 76 -200 246c0 224 142 295 189 295c104 0 200 -76 200 -246c0 -224 -142 -295 -189 -295zM247 36c46 0 125 34 125 190c0 152 -77 259 -186 259c-46 0 -125 -34 -125 -190c0 -152 77 -259 186 -259z" />
    <glyph glyph-name="oacute" unicode="&#xf3;" horiz-adv-x="433" 
d="M299 750h65v-6l-153 -175h-7zM222 -10c-104 0 -200 76 -200 246c0 224 142 295 189 295c104 0 200 -76 200 -246c0 -224 -142 -295 -189 -295zM247 36c46 0 125 34 125 190c0 152 -77 259 -186 259c-46 0 -125 -34 -125 -190c0 -152 77 -259 186 -259z" />
    <glyph glyph-name="obreve" unicode="&#x14f;" horiz-adv-x="433" 
d="M217 577c-58 0 -109 63 -109 167h7c0 -74 54 -115 102 -115s102 41 102 115h7c0 -104 -51 -167 -109 -167zM211 531c104 0 200 -76 200 -246c0 -224 -142 -295 -189 -295c-104 0 -200 76 -200 246c0 224 142 295 189 295zM247 36c46 0 125 34 125 190
c0 152 -77 259 -186 259c-46 0 -125 -34 -125 -190c0 -152 77 -259 186 -259z" />
    <glyph glyph-name="ocircumflex" unicode="&#xf4;" horiz-adv-x="433" 
d="M111 566l-3 6l109 189h3l105 -189l-3 -6l-105 110h-3zM222 -10c-104 0 -200 76 -200 246c0 224 142 295 189 295c104 0 200 -76 200 -246c0 -224 -142 -295 -189 -295zM247 36c46 0 125 34 125 190c0 152 -77 259 -186 259c-46 0 -125 -34 -125 -190
c0 -152 77 -259 186 -259z" />
    <glyph glyph-name="odieresis" unicode="&#xf6;" horiz-adv-x="433" 
d="M126 607c-21 0 -37 16 -37 37c0 19 16 36 37 36c20 0 36 -17 36 -36c0 -21 -16 -37 -36 -37zM308 607c-21 0 -37 16 -37 37c0 19 16 36 37 36c20 0 36 -17 36 -36c0 -21 -16 -37 -36 -37zM222 -10c-104 0 -200 76 -200 246c0 224 142 295 189 295c104 0 200 -76 200 -246
c0 -224 -142 -295 -189 -295zM247 36c46 0 125 34 125 190c0 152 -77 259 -186 259c-46 0 -125 -34 -125 -190c0 -152 77 -259 186 -259z" />
    <glyph glyph-name="uni1ECD" unicode="&#x1ecd;" horiz-adv-x="433" 
d="M222 -10c-104 0 -200 76 -200 246c0 224 142 295 189 295c104 0 200 -76 200 -246c0 -224 -142 -295 -189 -295zM247 36c46 0 125 34 125 190c0 152 -77 259 -186 259c-46 0 -125 -34 -125 -190c0 -152 77 -259 186 -259zM217 -186c-26 0 -46 20 -46 46c0 24 20 45 46 45
c25 0 45 -21 45 -45c0 -26 -20 -46 -45 -46z" />
    <glyph glyph-name="ograve" unicode="&#xf2;" horiz-adv-x="433" 
d="M62 744v6h65l95 -181h-7zM222 -10c-104 0 -200 76 -200 246c0 224 142 295 189 295c104 0 200 -76 200 -246c0 -224 -142 -295 -189 -295zM247 36c46 0 125 34 125 190c0 152 -77 259 -186 259c-46 0 -125 -34 -125 -190c0 -152 77 -259 186 -259z" />
    <glyph glyph-name="ohungarumlaut" unicode="&#x151;" horiz-adv-x="433" 
d="M238 750h52v-6l-121 -175h-5zM338 750h52v-6l-121 -175h-5zM222 -10c-104 0 -200 76 -200 246c0 224 142 295 189 295c104 0 200 -76 200 -246c0 -224 -142 -295 -189 -295zM247 36c46 0 125 34 125 190c0 152 -77 259 -186 259c-46 0 -125 -34 -125 -190
c0 -152 77 -259 186 -259z" />
    <glyph glyph-name="omacron" unicode="&#x14d;" horiz-adv-x="433" 
d="M66 600v30h301v-30h-301zM222 -10c-104 0 -200 76 -200 246c0 224 142 295 189 295c104 0 200 -76 200 -246c0 -224 -142 -295 -189 -295zM247 36c46 0 125 34 125 190c0 152 -77 259 -186 259c-46 0 -125 -34 -125 -190c0 -152 77 -259 186 -259z" />
    <glyph glyph-name="uni01EB" unicode="&#x1eb;" horiz-adv-x="433" 
d="M264 -214c25 0 51 20 71 37l5 -4c-45 -46 -86 -74 -99 -74c-22 0 -83 9 -83 71c0 51 44 107 106 185c-17 -8 -32 -11 -42 -11c-104 0 -200 76 -200 246c0 224 142 295 189 295c104 0 200 -76 200 -246c0 -148 -62 -229 -117 -267c-84 -96 -122 -232 -30 -232zM61 295
c0 -152 77 -259 186 -259c46 0 125 34 125 190c0 152 -77 259 -186 259c-46 0 -125 -34 -125 -190z" />
    <glyph glyph-name="oslash" unicode="&#xf8;" horiz-adv-x="433" 
d="M410 522l-47 -67c30 -40 48 -96 48 -170c0 -224 -142 -295 -189 -295c-53 0 -103 20 -141 61l-36 -52h-21l46 66c-30 40 -48 96 -48 171c0 224 142 295 189 295c53 0 104 -20 141 -61l36 52h22zM61 295c0 -71 17 -132 46 -177l209 300c-33 42 -78 67 -130 67
c-46 0 -125 -34 -125 -190zM247 36c46 0 125 34 125 190c0 71 -17 132 -45 177l-210 -300c33 -42 78 -67 130 -67z" />
    <glyph glyph-name="oslashacute" unicode="&#x1ff;" horiz-adv-x="433" 
d="M374 750v-6l-153 -175h-7l95 181h65zM410 522l-47 -67c30 -40 48 -96 48 -170c0 -224 -142 -295 -189 -295c-53 0 -103 20 -141 61l-36 -52h-21l46 66c-30 40 -48 96 -48 171c0 224 142 295 189 295c53 0 104 -20 141 -61l36 52h22zM61 295c0 -71 17 -132 46 -177
l209 300c-33 42 -78 67 -130 67c-46 0 -125 -34 -125 -190zM247 36c46 0 125 34 125 190c0 71 -17 132 -45 177l-210 -300c33 -42 78 -67 130 -67z" />
    <glyph glyph-name="otilde" unicode="&#xf5;" horiz-adv-x="433" 
d="M375 699l4 -3c-28 -61 -54 -102 -96 -102c-51 0 -99 47 -142 47c-20 0 -48 -2 -82 -57l-4 3c29 60 54 101 96 101c49 0 92 -47 140 -47c20 0 49 0 84 58zM222 -10c-104 0 -200 76 -200 246c0 224 142 295 189 295c104 0 200 -76 200 -246c0 -224 -142 -295 -189 -295z
M247 36c46 0 125 34 125 190c0 152 -77 259 -186 259c-46 0 -125 -34 -125 -190c0 -152 77 -259 186 -259z" />
    <glyph glyph-name="oe" unicode="&#x153;" horiz-adv-x="755" 
d="M726 72l4 -7c-58 -44 -109 -75 -138 -75c-93 0 -174 50 -205 152c-42 -113 -130 -152 -165 -152c-104 0 -200 76 -200 246c0 224 142 295 189 295c82 0 159 -47 188 -151c48 113 149 154 181 154c108 0 143 -67 143 -166c0 -17 -57 -56 -70 -56h-232v-18
c0 -165 82 -260 205 -260c44 0 70 19 100 38zM563 491c-54 0 -129 -26 -141 -161h247c9 115 -45 161 -106 161zM247 36c46 0 125 34 125 190c0 152 -77 259 -186 259c-46 0 -125 -34 -125 -190c0 -152 77 -259 186 -259z" />
    <glyph glyph-name="p" unicode="p" horiz-adv-x="484" 
d="M272 531c103 0 192 -76 192 -237c0 -215 -161 -296 -198 -296c-54 0 -87 8 -109 18v-236l90 -24v-6h-236v6l90 24v704l-117 -65l-3 5c43 35 95 108 126 108c13 0 28 -3 46 -91c46 46 105 90 119 90zM264 35c64 0 152 36 152 215c0 136 -61 234 -149 234
c-52 0 -88 -34 -110 -67v-351c27 -15 60 -31 107 -31z" />
    <glyph glyph-name="thorn" unicode="&#xfe;" horiz-adv-x="473" 
d="M261 531c103 0 192 -76 192 -237c0 -215 -161 -296 -198 -296c-62 0 -97 11 -119 23l-1 -241l90 -24v-6h-236v6l90 24v939l-97 -1v6l150 33h6v-38l-1 -283c47 48 110 95 124 95zM253 35c64 0 152 36 152 215c0 136 -61 234 -149 234c-60 0 -98 -45 -119 -81l-1 -333l1 1
c28 -16 64 -36 116 -36z" />
    <glyph glyph-name="q" unicode="q" horiz-adv-x="471" 
d="M395 417v-637l90 -24v-6h-236v6l90 24v276c-51 -40 -101 -65 -114 -65c-109 0 -205 79 -205 260c0 201 154 281 193 281c71 0 117 -30 141 -73h5l40 84h6zM242 35c44 0 76 21 97 40v244c0 105 -54 175 -142 175c-51 0 -128 -28 -128 -214c0 -136 71 -245 173 -245z" />
    <glyph glyph-name="r" unicode="r" horiz-adv-x="402" 
d="M418 488l3 -4c-19 -20 -43 -60 -67 -60c-34 0 -74 56 -109 56c-23 0 -54 -44 -76 -85v-365l90 -24v-6h-236v6l90 24v454l-117 -65l-3 5c43 35 95 108 126 108c14 0 30 -4 49 -106c33 51 84 107 94 107c30 0 85 -61 120 -61c14 0 24 8 36 16z" />
    <glyph glyph-name="racute" unicode="&#x155;" horiz-adv-x="402" 
d="M345 750v-6l-153 -175h-7l95 181h65zM418 488l3 -4c-19 -20 -43 -60 -67 -60c-34 0 -74 56 -109 56c-23 0 -54 -44 -76 -85v-365l90 -24v-6h-236v6l90 24v454l-117 -65l-3 5c43 35 95 108 126 108c14 0 30 -4 49 -106c33 51 84 107 94 107c30 0 85 -61 120 -61
c14 0 24 8 36 16z" />
    <glyph glyph-name="rcaron" unicode="&#x159;" horiz-adv-x="402" 
d="M306 758l-105 -189h-3l-109 189l3 6l103 -110h3l105 110zM418 488l3 -4c-19 -20 -43 -60 -67 -60c-34 0 -74 56 -109 56c-23 0 -54 -44 -76 -85v-365l90 -24v-6h-236v6l90 24v454l-117 -65l-3 5c43 35 95 108 126 108c14 0 30 -4 49 -106c33 51 84 107 94 107
c30 0 85 -61 120 -61c14 0 24 8 36 16z" />
    <glyph glyph-name="uni0157" unicode="&#x157;" horiz-adv-x="402" 
d="M418 488l3 -4c-19 -20 -43 -60 -67 -60c-34 0 -74 56 -109 56c-23 0 -54 -44 -76 -85v-365l90 -24v-6h-236v6l90 24v454l-117 -65l-3 5c43 35 95 108 126 108c14 0 30 -4 49 -106c33 51 84 107 94 107c30 0 85 -61 120 -61c14 0 24 8 36 16zM138 -108c24 0 44 -17 44 -45
c0 -29 -21 -60 -73 -126h-6l35 83c-24 2 -45 20 -45 44c0 23 20 44 45 44z" />
    <glyph glyph-name="s" unicode="s" horiz-adv-x="415" 
d="M212 302l26 -13c71 -35 138 -76 138 -161c0 -76 -52 -139 -158 -139c-65 0 -114 24 -161 32l-28 214h8c35 -193 163 -218 221 -218c53 0 92 30 92 82c0 57 -56 94 -142 137l-28 14c-67 33 -125 70 -125 147c0 83 65 139 155 139c36 0 86 -10 119 -40l20 32h6v-220h-8
c-11 101 -64 200 -175 200c-60 0 -87 -36 -87 -78c0 -61 60 -95 127 -128z" />
    <glyph glyph-name="sacute" unicode="&#x15b;" horiz-adv-x="415" 
d="M349 750v-6l-153 -175h-7l95 181h65zM212 302l26 -13c71 -35 138 -76 138 -161c0 -76 -52 -139 -158 -139c-65 0 -114 24 -161 32l-28 214h8c35 -193 163 -218 221 -218c53 0 92 30 92 82c0 57 -56 94 -142 137l-28 14c-67 33 -125 70 -125 147c0 83 65 139 155 139
c36 0 86 -10 119 -40l20 32h6v-220h-8c-11 101 -64 200 -175 200c-60 0 -87 -36 -87 -78c0 -61 60 -95 127 -128z" />
    <glyph glyph-name="scaron" unicode="&#x161;" horiz-adv-x="415" 
d="M310 758l-105 -189h-3l-109 189l3 6l103 -110h3l105 110zM212 302l26 -13c71 -35 138 -76 138 -161c0 -76 -52 -139 -158 -139c-65 0 -114 24 -161 32l-28 214h8c35 -193 163 -218 221 -218c53 0 92 30 92 82c0 57 -56 94 -142 137l-28 14c-67 33 -125 70 -125 147
c0 83 65 139 155 139c36 0 86 -10 119 -40l20 32h6v-220h-8c-11 101 -64 200 -175 200c-60 0 -87 -36 -87 -78c0 -61 60 -95 127 -128z" />
    <glyph glyph-name="scedilla" unicode="&#x15f;" horiz-adv-x="415" 
d="M218 -11h-9l-30 -53c49 -11 86 -40 86 -83c0 -44 -39 -87 -120 -110l-1 5c60 19 77 47 77 77c0 37 -32 58 -81 62l-1 6l56 97c-54 4 -97 24 -138 31l-28 214h8c35 -193 163 -218 221 -218c53 0 92 30 92 82c0 57 -56 94 -142 137l-28 14c-67 33 -125 70 -125 147
c0 83 65 139 155 139c36 0 86 -10 119 -40l20 32h6v-220h-8c-11 101 -64 200 -175 200c-60 0 -87 -36 -87 -78c0 -61 60 -95 127 -128l26 -13c71 -35 138 -76 138 -161c0 -76 -52 -139 -158 -139z" />
    <glyph glyph-name="scircumflex" unicode="&#x15d;" horiz-adv-x="415" 
d="M202 676h-3l-103 -110l-3 6l109 189h3l105 -189l-3 -6zM212 302l26 -13c71 -35 138 -76 138 -161c0 -76 -52 -139 -158 -139c-65 0 -114 24 -161 32l-28 214h8c35 -193 163 -218 221 -218c53 0 92 30 92 82c0 57 -56 94 -142 137l-28 14c-67 33 -125 70 -125 147
c0 83 65 139 155 139c36 0 86 -10 119 -40l20 32h6v-220h-8c-11 101 -64 200 -175 200c-60 0 -87 -36 -87 -78c0 -61 60 -95 127 -128z" />
    <glyph glyph-name="uni0219" unicode="&#x219;" horiz-adv-x="415" 
d="M212 302l26 -13c71 -35 138 -76 138 -161c0 -76 -52 -139 -158 -139c-65 0 -114 24 -161 32l-28 214h8c35 -193 163 -218 221 -218c53 0 92 30 92 82c0 57 -56 94 -142 137l-28 14c-67 33 -125 70 -125 147c0 83 65 139 155 139c36 0 86 -10 119 -40l20 32h6v-220h-8
c-11 101 -64 200 -175 200c-60 0 -87 -36 -87 -78c0 -61 60 -95 127 -128zM202 -108c24 0 44 -17 44 -45c0 -29 -21 -60 -73 -126h-6l35 83c-24 2 -45 20 -45 44c0 23 20 44 45 44z" />
    <glyph glyph-name="germandbls" unicode="&#xdf;" horiz-adv-x="542" 
d="M438 327l37 -45c44 -54 59 -89 59 -130c0 -87 -67 -163 -163 -163c-55 0 -84 20 -125 32l-20 193h6c23 -165 111 -204 160 -204c61 0 98 46 98 104c0 29 -15 74 -57 123l-35 41c-47 56 -51 89 -51 107c0 38 26 70 40 93l7 11c20 31 30 65 30 91c0 93 -77 153 -170 153
c-72 0 -121 -39 -121 -104c0 -54 27 -87 26 -167v-462h-146v6l90 24h1v473l-95 14v5h95l-2 59c-4 142 130 181 202 181c98 0 166 -63 166 -137c0 -54 -36 -104 -57 -137l-8 -13c-37 -60 -28 -74 33 -148z" />
    <glyph glyph-name="t" unicode="t" horiz-adv-x="288" 
d="M281 73l4 -5c-42 -42 -102 -78 -120 -78c-50 0 -82 35 -82 103v410l-84 13v6h85l53 108h4l-2 -108h138v-33c-15 0 -76 9 -138 14v-410c0 -42 18 -63 60 -63c22 0 41 6 82 43z" />
    <glyph glyph-name="tbar" unicode="&#x167;" horiz-adv-x="288" 
d="M281 73l4 -5c-42 -42 -102 -78 -120 -78c-50 0 -82 35 -82 103v222h-97v18h97v170l-84 13v6h85l53 108h4l-2 -108h138v-33c-15 0 -76 9 -138 14v-170h136v-18h-136v-222c0 -42 18 -63 60 -63c22 0 41 6 82 43z" />
    <glyph glyph-name="tcaron" unicode="&#x165;" horiz-adv-x="288" 
d="M184 567l34 157c-23 1 -42 19 -42 41c0 21 18 39 41 39c22 0 40 -14 40 -44c0 -36 -19 -78 -66 -193h-7zM281 73l4 -5c-42 -42 -102 -78 -120 -78c-50 0 -82 35 -82 103v410l-84 13v6h85l53 108h4l-2 -108h138v-33c-15 0 -76 9 -138 14v-410c0 -42 18 -63 60 -63
c22 0 41 6 82 43z" />
    <glyph glyph-name="uni0163" unicode="&#x163;" horiz-adv-x="288" 
d="M149 -9l-31 -55c49 -11 86 -40 86 -83c0 -44 -39 -87 -120 -110l-1 5c60 19 77 47 77 77c0 37 -32 58 -81 62l-1 6l59 101c-34 11 -54 45 -54 99v410l-84 13v6h85l53 108h4l-2 -108h138v-33c-15 0 -76 9 -138 14v-410c0 -42 18 -63 60 -63c22 0 41 6 82 43l4 -5
c-42 -42 -102 -78 -120 -78c-6 0 -11 0 -16 1z" />
    <glyph glyph-name="uni021B" unicode="&#x21b;" horiz-adv-x="288" 
d="M165 -10c-50 0 -82 35 -82 103v410l-84 13v6h85l53 108h4l-2 -108h138v-33c-15 0 -76 9 -138 14v-410c0 -42 18 -63 60 -63c22 0 41 6 82 43l4 -5c-42 -42 -102 -78 -120 -78zM141 -108c24 0 44 -17 44 -45c0 -29 -21 -60 -73 -126h-6l35 83c-24 2 -45 20 -45 44
c0 23 20 44 45 44z" />
    <glyph glyph-name="u" unicode="u" horiz-adv-x="516" 
d="M416 40l117 65l3 -5c-43 -35 -95 -108 -126 -108c-13 0 -30 4 -48 100c-56 -68 -111 -102 -129 -102c-75 0 -149 33 -149 167v333l-90 26v6h146v-365c0 -85 52 -122 108 -122c42 0 83 43 112 82v373l-90 26v6h146v-482z" />
    <glyph glyph-name="uacute" unicode="&#xfa;" horiz-adv-x="516" 
d="M390 750v-6l-153 -175h-7l95 181h65zM416 40l117 65l3 -5c-43 -35 -95 -108 -126 -108c-13 0 -30 4 -48 100c-56 -68 -111 -102 -129 -102c-75 0 -149 33 -149 167v333l-90 26v6h146v-365c0 -85 52 -122 108 -122c42 0 83 43 112 82v373l-90 26v6h146v-482z" />
    <glyph glyph-name="ubreve" unicode="&#x16d;" horiz-adv-x="516" 
d="M243 577c-58 0 -109 63 -109 167h7c0 -74 54 -115 102 -115s102 41 102 115h7c0 -104 -51 -167 -109 -167zM416 40l117 65l3 -5c-43 -35 -95 -108 -126 -108c-13 0 -30 4 -48 100c-56 -68 -111 -102 -129 -102c-75 0 -149 33 -149 167v333l-90 26v6h146v-365
c0 -85 52 -122 108 -122c42 0 83 43 112 82v373l-90 26v6h146v-482z" />
    <glyph glyph-name="ucircumflex" unicode="&#xfb;" horiz-adv-x="516" 
d="M243 676h-3l-103 -110l-3 6l109 189h3l105 -189l-3 -6zM416 40l117 65l3 -5c-43 -35 -95 -108 -126 -108c-13 0 -30 4 -48 100c-56 -68 -111 -102 -129 -102c-75 0 -149 33 -149 167v333l-90 26v6h146v-365c0 -85 52 -122 108 -122c42 0 83 43 112 82v373l-90 26v6h146
v-482z" />
    <glyph glyph-name="udieresis" unicode="&#xfc;" horiz-adv-x="516" 
d="M152 607c-21 0 -37 16 -37 37c0 19 16 36 37 36c20 0 36 -17 36 -36c0 -21 -16 -37 -36 -37zM334 607c-21 0 -37 16 -37 37c0 19 16 36 37 36c20 0 36 -17 36 -36c0 -21 -16 -37 -36 -37zM416 40l117 65l3 -5c-43 -35 -95 -108 -126 -108c-13 0 -30 4 -48 100
c-56 -68 -111 -102 -129 -102c-75 0 -149 33 -149 167v333l-90 26v6h146v-365c0 -85 52 -122 108 -122c42 0 83 43 112 82v373l-90 26v6h146v-482z" />
    <glyph glyph-name="uni1EE5" unicode="&#x1ee5;" horiz-adv-x="516" 
d="M416 40l117 65l3 -5c-43 -35 -95 -108 -126 -108c-13 0 -30 4 -48 100c-56 -68 -111 -102 -129 -102c-75 0 -149 33 -149 167v333l-90 26v6h146v-365c0 -85 52 -122 108 -122c42 0 83 43 112 82v373l-90 26v6h146v-482zM264 -95c25 0 45 -21 45 -45
c0 -26 -20 -46 -45 -46c-26 0 -46 20 -46 46c0 24 20 45 46 45z" />
    <glyph glyph-name="ugrave" unicode="&#xf9;" horiz-adv-x="516" 
d="M153 750l95 -181h-7l-153 175v6h65zM416 40l117 65l3 -5c-43 -35 -95 -108 -126 -108c-13 0 -30 4 -48 100c-56 -68 -111 -102 -129 -102c-75 0 -149 33 -149 167v333l-90 26v6h146v-365c0 -85 52 -122 108 -122c42 0 83 43 112 82v373l-90 26v6h146v-482z" />
    <glyph glyph-name="uhungarumlaut" unicode="&#x171;" horiz-adv-x="516" 
d="M316 750v-6l-121 -175h-5l74 181h52zM416 744l-121 -175h-5l74 181h52v-6zM416 40l117 65l3 -5c-43 -35 -95 -108 -126 -108c-13 0 -30 4 -48 100c-56 -68 -111 -102 -129 -102c-75 0 -149 33 -149 167v333l-90 26v6h146v-365c0 -85 52 -122 108 -122c42 0 83 43 112 82
v373l-90 26v6h146v-482z" />
    <glyph glyph-name="umacron" unicode="&#x16b;" horiz-adv-x="516" 
d="M92 630h301v-30h-301v30zM416 40l117 65l3 -5c-43 -35 -95 -108 -126 -108c-13 0 -30 4 -48 100c-56 -68 -111 -102 -129 -102c-75 0 -149 33 -149 167v333l-90 26v6h146v-365c0 -85 52 -122 108 -122c42 0 83 43 112 82v373l-90 26v6h146v-482z" />
    <glyph glyph-name="uogonek" unicode="&#x173;" horiz-adv-x="516" 
d="M533 105l3 -5c-27 -22 -58 -59 -84 -83c-83 -96 -121 -231 -29 -231c25 0 51 20 71 37l5 -4c-45 -46 -86 -74 -99 -74c-22 0 -83 9 -83 71c0 50 41 103 99 177c-2 -1 -4 -1 -6 -1c-13 0 -30 4 -48 100c-56 -68 -111 -102 -129 -102c-75 0 -149 33 -149 167v333l-90 26v6
h146v-365c0 -85 52 -122 108 -122c42 0 83 43 112 82v373l-90 26v6h146v-482z" />
    <glyph glyph-name="uring" unicode="&#x16f;" horiz-adv-x="516" 
d="M243 574c-53 0 -94 42 -94 94s41 94 94 94c52 0 94 -42 94 -94s-42 -94 -94 -94zM243 745c-42 0 -75 -34 -75 -77s33 -77 75 -77s75 34 75 77s-33 77 -75 77zM416 40l117 65l3 -5c-43 -35 -95 -108 -126 -108c-13 0 -30 4 -48 100c-56 -68 -111 -102 -129 -102
c-75 0 -149 33 -149 167v333l-90 26v6h146v-365c0 -85 52 -122 108 -122c42 0 83 43 112 82v373l-90 26v6h146v-482z" />
    <glyph glyph-name="utilde" unicode="&#x169;" horiz-adv-x="516" 
d="M167 641c-20 0 -48 -2 -82 -57l-4 3c29 60 54 101 96 101c49 0 92 -47 140 -47c20 0 49 0 84 58l4 -3c-28 -61 -54 -102 -96 -102c-51 0 -99 47 -142 47zM416 40l117 65l3 -5c-43 -35 -95 -108 -126 -108c-13 0 -30 4 -48 100c-56 -68 -111 -102 -129 -102
c-75 0 -149 33 -149 167v333l-90 26v6h146v-365c0 -85 52 -122 108 -122c42 0 83 43 112 82v373l-90 26v6h146v-482z" />
    <glyph glyph-name="v" unicode="v" horiz-adv-x="401" 
d="M256 516v6h143v-6l-199 -545h-4l-194 545v6h156v-6l-89 -26l146 -409h6l84 233c60 165 46 172 -49 202z" />
    <glyph glyph-name="w" unicode="w" horiz-adv-x="649" 
d="M507 516v6h140v-6l-179 -544h-4l-136 419h-6l-138 -419h-4l-178 544v6h156v-6l-89 -26l130 -396h6l71 220c40 124 58 180 -51 202v6h217v-6l-87 -26l-1 -2l129 -394h6l73 220c49 148 52 169 -55 202z" />
    <glyph glyph-name="wacute" unicode="&#x1e83;" horiz-adv-x="649" 
d="M477 750v-6l-153 -175h-7l95 181h65zM507 516v6h140v-6l-179 -544h-4l-136 419h-6l-138 -419h-4l-178 544v6h156v-6l-89 -26l130 -396h6l71 220c40 124 58 180 -51 202v6h217v-6l-87 -26l-1 -2l129 -394h6l73 220c49 148 52 169 -55 202z" />
    <glyph glyph-name="wcircumflex" unicode="&#x175;" horiz-adv-x="649" 
d="M330 676h-3l-103 -110l-3 6l109 189h3l105 -189l-3 -6zM507 516v6h140v-6l-179 -544h-4l-136 419h-6l-138 -419h-4l-178 544v6h156v-6l-89 -26l130 -396h6l71 220c40 124 58 180 -51 202v6h217v-6l-87 -26l-1 -2l129 -394h6l73 220c49 148 52 169 -55 202z" />
    <glyph glyph-name="wdieresis" unicode="&#x1e85;" horiz-adv-x="649" 
d="M239 607c-21 0 -37 16 -37 37c0 19 16 36 37 36c20 0 36 -17 36 -36c0 -21 -16 -37 -36 -37zM421 607c-21 0 -37 16 -37 37c0 19 16 36 37 36c20 0 36 -17 36 -36c0 -21 -16 -37 -36 -37zM507 516v6h140v-6l-179 -544h-4l-136 419h-6l-138 -419h-4l-178 544v6h156v-6
l-89 -26l130 -396h6l71 220c40 124 58 180 -51 202v6h217v-6l-87 -26l-1 -2l129 -394h6l73 220c49 148 52 169 -55 202z" />
    <glyph glyph-name="wgrave" unicode="&#x1e81;" horiz-adv-x="649" 
d="M240 750l95 -181h-7l-153 175v6h65zM507 516v6h140v-6l-179 -544h-4l-136 419h-6l-138 -419h-4l-178 544v6h156v-6l-89 -26l130 -396h6l71 220c40 124 58 180 -51 202v6h217v-6l-87 -26l-1 -2l129 -394h6l73 220c49 148 52 169 -55 202z" />
    <glyph glyph-name="x" unicode="x" horiz-adv-x="421" 
d="M406 516l-171 -237l178 -272v-7h-175v6l94 26l-134 204l-57 -79c-61 -85 -103 -123 17 -151v-6h-150v6l178 247l-173 263v6h177v-6l-94 -26l127 -194l50 69c81 113 73 124 -17 151v6h150v-6z" />
    <glyph glyph-name="y" unicode="y" horiz-adv-x="401" 
d="M256 516v6h143v-6l-265 -766h-71v6l129 227l-190 533v6h164v-6l-96 -26l145 -409h6l84 233c60 165 46 172 -49 202z" />
    <glyph glyph-name="yacute" unicode="&#xfd;" horiz-adv-x="401" 
d="M360 750v-6l-153 -175h-7l95 181h65zM256 516v6h143v-6l-265 -766h-71v6l129 227l-190 533v6h164v-6l-96 -26l145 -409h6l84 233c60 165 46 172 -49 202z" />
    <glyph glyph-name="ycircumflex" unicode="&#x177;" horiz-adv-x="401" 
d="M213 676h-3l-103 -110l-3 6l109 189h3l105 -189l-3 -6zM256 516v6h143v-6l-265 -766h-71v6l129 227l-190 533v6h164v-6l-96 -26l145 -409h6l84 233c60 165 46 172 -49 202z" />
    <glyph glyph-name="ydieresis" unicode="&#xff;" horiz-adv-x="401" 
d="M122 607c-21 0 -37 16 -37 37c0 19 16 36 37 36c20 0 36 -17 36 -36c0 -21 -16 -37 -36 -37zM304 607c-21 0 -37 16 -37 37c0 19 16 36 37 36c20 0 36 -17 36 -36c0 -21 -16 -37 -36 -37zM256 516v6h143v-6l-265 -766h-71v6l129 227l-190 533v6h164v-6l-96 -26l145 -409
h6l84 233c60 165 46 172 -49 202z" />
    <glyph glyph-name="ygrave" unicode="&#x1ef3;" horiz-adv-x="401" 
d="M123 750l95 -181h-7l-153 175v6h65zM256 516v6h143v-6l-265 -766h-71v6l129 227l-190 533v6h164v-6l-96 -26l145 -409h6l84 233c60 165 46 172 -49 202z" />
    <glyph glyph-name="uni0233" unicode="&#x233;" horiz-adv-x="401" 
d="M62 630h301v-30h-301v30zM256 516v6h143v-6l-265 -766h-71v6l129 227l-190 533v6h164v-6l-96 -26l145 -409h6l84 233c60 165 46 172 -49 202z" />
    <glyph glyph-name="uni1EF9" unicode="&#x1ef9;" horiz-adv-x="401" 
d="M137 641c-20 0 -48 -2 -82 -57l-4 3c29 60 54 101 96 101c49 0 92 -47 140 -47c20 0 49 0 84 58l4 -3c-28 -61 -54 -102 -96 -102c-51 0 -99 47 -142 47zM256 516v6h143v-6l-265 -766h-71v6l129 227l-190 533v6h164v-6l-96 -26l145 -409h6l84 233c60 165 46 172 -49 202z
" />
    <glyph glyph-name="z" unicode="z" horiz-adv-x="437" 
d="M394 522v-6l-290 -497h132c120 0 113 42 149 208h6l1 -225l-3 -2h-356v6l290 498h-128c-127 0 -114 -52 -143 -179h-6l-1 195l3 2h346z" />
    <glyph glyph-name="zacute" unicode="&#x17a;" horiz-adv-x="437" 
d="M358 750v-6l-153 -175h-7l95 181h65zM394 522v-6l-290 -497h132c120 0 113 42 149 208h6l1 -225l-3 -2h-356v6l290 498h-128c-127 0 -114 -52 -143 -179h-6l-1 195l3 2h346z" />
    <glyph glyph-name="zcaron" unicode="&#x17e;" horiz-adv-x="437" 
d="M319 758l-105 -189h-3l-109 189l3 6l103 -110h3l105 110zM394 522v-6l-290 -497h132c120 0 113 42 149 208h6l1 -225l-3 -2h-356v6l290 498h-128c-127 0 -114 -52 -143 -179h-6l-1 195l3 2h346z" />
    <glyph glyph-name="zdotaccent" unicode="&#x17c;" horiz-adv-x="437" 
d="M211 631c-26 0 -46 20 -46 46c0 24 20 45 46 45c25 0 45 -21 45 -45c0 -26 -20 -46 -45 -46zM394 522v-6l-290 -497h132c120 0 113 42 149 208h6l1 -225l-3 -2h-356v6l290 498h-128c-127 0 -114 -52 -143 -179h-6l-1 195l3 2h346z" />
    <glyph glyph-name="b.part" horiz-adv-x="600" 
d="M259 -9c-97 0 -148 56 -157 125l31 88c0 -105 54 -175 142 -175c51 0 128 28 128 214c0 136 -71 245 -173 245c-62 0 -98 -41 -118 -59l-1 20c57 50 121 83 136 83c109 0 205 -79 205 -260c0 -201 -154 -281 -193 -281z" />
    <glyph glyph-name="d.part" horiz-adv-x="418" 
d="M230 -6c-103 0 -192 76 -192 237c0 215 161 296 198 296c114 0 135 -36 158 -49l-40 -24c-28 16 -64 36 -116 36c-64 0 -152 -36 -152 -215c0 -136 61 -234 149 -234c62 0 101 48 121 85l8 -27c-48 -51 -119 -105 -134 -105z" />
    <glyph glyph-name="A_A.dlig" horiz-adv-x="816" 
d="M515 675h69l218 -669v-6h-160v6l86 33l-66 199h-236l76 -232v-6h-160v6l86 33l-66 199h-244l-13 -37c-51 -144 -48 -157 54 -195v-6h-148v6l219 617l-15 46v6h69l127 -388l119 336l-15 46v6zM242 590l-118 -334h232l-110 334h-4zM542 590l-118 -334h232l-110 334h-4z" />
    <glyph glyph-name="E_E.dlig" horiz-adv-x="574" 
d="M506 207h6v-207h-481v6l83 33v597l-83 33v6h466v-207h-6c-6 21 -11 39 -15 55c-36 132 -37 134 -103 134h-200v-176h123c65 0 58 34 90 122h6v-262h-6c-32 90 -25 122 -90 122h-123v-262h123c65 0 58 34 90 122h6v-262h-6c-32 90 -25 122 -90 122h-123v-165h215
c66 0 67 2 103 134c4 16 9 34 15 55z" />
    <glyph glyph-name="F_F.dlig" horiz-adv-x="535" 
d="M502 675v-207h-6c-6 21 -11 39 -15 55c-36 132 -37 134 -103 134h-200v-176h123c65 0 58 34 90 122h6v-262h-6c-32 90 -25 122 -90 122h-123v-262h123c65 0 58 34 90 122h6v-262h-6c-32 90 -25 122 -90 122h-123v-147l87 -30v-6h-234v6l87 30l1 600l-83 33v6h466z" />
    <glyph glyph-name="F_T.dlig" horiz-adv-x="836" 
d="M812 675v-207h-6c-50 182 -42 189 -124 189h-71v-621l87 -30v-6h-234v6l87 30v621h-373v-317h147c65 0 58 34 90 122h6v-262h-6c-32 90 -25 122 -90 122h-147v-286l87 -30v-6h-234v6l87 30l1 600l-83 33v6h776z" />
    <glyph glyph-name="F_Y.dlig" horiz-adv-x="909" 
d="M905 675v-6l-207 -394v-239l87 -30v-6h-234v6l87 30v242l-203 379h-257v-317h147c65 0 58 34 90 122h6v-262h-6c-32 90 -25 122 -90 122h-147v-286l87 -30v-6h-234v6l87 30l1 600l-83 33v6h564v-6l-89 -33l174 -331h7l88 170c71 138 80 166 -24 194v6h149z" />
    <glyph glyph-name="M_E.dlig" horiz-adv-x="1019" 
d="M951 207h6v-207h-413v617h-5l-193 -456h-6l-208 426h-5v-398c0 -148 18 -151 127 -182v-7h-149v627l-36 42v6h86l204 -419h6l175 419h402v-207h-6c-6 21 -11 39 -15 55c-36 132 -37 134 -103 134h-214v-306h137c65 0 58 34 90 122h6v-262h-6c-32 90 -25 122 -90 122h-137
v-315h229c66 0 67 2 103 134c4 16 9 34 15 55z" />
    <glyph glyph-name="N_N.dlig" horiz-adv-x="1011" 
d="M775 668v7h146v-685h-6l-396 605v-605h-6l-392 604h-5v-445c0 -113 55 -116 124 -142v-7h-146v630l-36 39v6h82l352 -541v1h5v391c0 113 -55 116 -124 142v7h169l352 -541v1h5v391c0 113 -55 116 -124 142z" />
    <glyph glyph-name="P_P.dlig" horiz-adv-x="813" 
d="M528 285h-6v-249l87 -30v-6h-234v6l87 30v249h-284v-249l87 -30v-6h-234v6l87 30l1 600l-83 33v6h532c132 0 229 -59 229 -178c0 -96 -72 -212 -269 -212zM178 303h61c151 0 221 62 221 179c0 103 -70 175 -202 175h-80v-354zM374 303h139c151 0 221 62 221 179
c0 103 -70 175 -202 175h-124c70 -26 115 -79 115 -160c0 -73 -42 -158 -149 -194z" />
    <glyph glyph-name="T_H.dlig" horiz-adv-x="808" 
d="M777 675v-6l-87 -30v-603l87 -30v-6h-234v6l87 30v293h-315v-293l87 -30v-6h-234v6l87 30v621h-101c-82 0 -74 -6 -124 -189h-6v207h373v-6l-83 -33v-289h316v292l-87 30v6h234z" />
    <glyph glyph-name="T_H_E.dlig" horiz-adv-x="1059" 
d="M991 207h6v-207h-480v6l83 33v290h-295v-293l87 -30v-6h-234v6l87 30v621h-91c-82 0 -74 -7 -124 -189h-6v207h363v-6l-83 -33v-289h296v289l-83 33v6h465v-207h-6c-6 21 -11 39 -15 55c-36 132 -37 134 -103 134h-199v-306h122c65 0 58 34 90 122h6v-262h-6
c-32 90 -25 122 -90 122h-122v-315h214c66 0 67 2 103 134c4 16 9 34 15 55z" />
    <glyph glyph-name="T_T.dlig" horiz-adv-x="763" 
d="M739 675v-207h-6c-50 182 -42 189 -124 189h-71v-621l87 -30v-6h-234v6l87 30v621h-193v-621l87 -30v-6h-234v6l87 30v621h-71c-82 0 -74 -6 -124 -189h-6v207h715z" />
    <glyph glyph-name="T_Y.dlig" horiz-adv-x="876" 
d="M872 675v-6l-207 -394v-239l87 -30v-6h-234v6l87 30v242l-203 379h-117v-621l87 -30v-6h-234v6l87 30v621h-71c-82 0 -74 -6 -124 -189h-6v207h543v-6l-89 -33l174 -331h7l88 170c72 139 80 170 -24 194v6h149z" />
    <glyph glyph-name="T_h.dlig" horiz-adv-x="917" 
d="M832 363l1 -333l90 -24v-6h-236v6l90 24v333c0 85 -53 122 -109 122c-39 0 -78 -37 -106 -74v-381l90 -24v-6h-236v6l90 24v627h-221v-621l87 -30v-6h-234v6l87 30v621h-71c-82 0 -74 -6 -124 -189h-6v207h359c110 0 143 16 173 78h6v-315c54 62 104 92 121 92
c75 0 149 -33 149 -167z" />
    <glyph glyph-name="U_E.dlig" horiz-adv-x="935" 
d="M867 207h6v-207h-404v83c-62 -47 -142 -93 -166 -93c-125 0 -204 65 -204 204l1 442l-83 33v6h142v-471c0 -128 76 -168 169 -168c54 0 89 22 141 59l1 541l-83 33v6h471v-207h-6c-6 21 -11 39 -15 55c-36 132 -37 134 -103 134h-205v-306h128c65 0 58 34 90 122h6v-262
h-6c-32 90 -25 122 -90 122h-128v-315h220c66 0 67 2 103 134c4 16 9 34 15 55z" />
    <glyph glyph-name="W_W_W.dlig" horiz-adv-x="1803" 
d="M1640 669v6h149v-6l-193 -682h-5l-115 400h-6l-114 -400h-5l-166 552l-156 -552h-5l-115 400h-6l-114 -400h-5l-166 553l-157 -553h-5l-115 400h-6l-114 -400h-5l-205 682v6h155v-6l-86 -33l154 -512h6l74 271c24 87 12 91 -75 121v6h217v-6l-86 -33l103 -359h6l110 398
c31 112 -11 122 -84 147v6h229v-6l-86 -33l154 -512h6l74 271c24 87 12 91 -75 121v6h217v-6l-86 -33l103 -359h6l110 398c31 112 -11 122 -84 147v6h228v-6l-86 -33l154 -512h6l74 271c24 87 12 91 -75 121v6h217v-6l-86 -33l103 -359h6l110 398c31 112 -11 122 -84 147z
" />
    <glyph glyph-name="X_T.dlig" horiz-adv-x="940" 
d="M916 675v-207h-6c-40 150 -40 189 -124 189h-107v-621l87 -30v-6h-234v6l87 30v621h-519l224 -356l46 64c33 46 56 81 56 103c0 24 -25 34 -73 48v6h150v-6l-168 -233l174 -277v-6h-173v5l89 30l-129 203l-58 -81c-38 -53 -60 -79 -60 -102c0 -21 21 -36 77 -49v-6h-150
v6l180 249l-263 414v6h894z" />
    <glyph glyph-name="Z_Z.dlig" horiz-adv-x="518" 
d="M472 487v-6l-349 -463h207c66 0 67 2 103 134c4 16 9 34 15 55h6v-207h-410v6l149 197h-153v6l336 448h-193c-66 0 -67 -2 -103 -134c-4 -16 -9 -34 -15 -55h-6v207h393v-6l-135 -182h155zM303 469l-184 -248h88l188 248h-92z" />
    <glyph glyph-name="f_b.dlig" horiz-adv-x="771" 
d="M546 532c109 0 205 -79 205 -260c0 -201 -154 -281 -193 -281c-76 0 -123 34 -145 82v-1h-7l-26 -82h-6l1 501c-65 3 -164 8 -211 12h-5l-1 -473l118 -24v-6h-264v6l91 24v473l-88 13v6h87l-2 49c-8 152 130 191 179 191c65 0 103 -19 127 -44l20 41h6v-292
c51 40 101 65 114 65zM159 522l217 -1v136c-17 43 -62 70 -118 70c-73 0 -126 -46 -126 -108c0 -48 24 -85 27 -97zM574 29c51 0 128 28 128 214c0 136 -71 245 -173 245c-44 0 -76 -21 -97 -40v-244c0 -105 54 -175 142 -175z" />
    <glyph glyph-name="f_h.dlig" horiz-adv-x="807" 
d="M722 363l1 -333l90 -24v-6h-237v6l90 24h1v333c0 85 -53 122 -109 122c-44 0 -87 -47 -116 -88v-367l90 -24v-6h-236v6l90 24v461c-68 3 -173 8 -222 12h-5l-1 -473l118 -24v-6h-264v6l91 24v473l-88 13v6h87l-2 49c-8 152 130 191 179 191c70 0 111 -19 136 -45l21 42h6
v-333c57 70 113 104 131 104c75 0 149 -33 149 -167zM159 522l227 -1v134c-18 44 -67 72 -128 72c-73 0 -126 -46 -126 -108c0 -48 24 -85 27 -97z" />
    <glyph glyph-name="f_j.dlig" horiz-adv-x="512" 
d="M160 522h267v-502c0 -139 -149 -221 -203 -272l-4 8c58 51 151 151 151 264v471c-64 3 -163 9 -210 12h-1l-1 -473l118 -24v-6h-264v6l91 24v473l-92 13v6h91l-2 49c-8 152 130 191 179 191c100 0 149 -39 172 -79l-44 -83l-5 3c9 74 -62 124 -144 124
c-73 0 -126 -46 -126 -108c0 -48 24 -85 27 -97z" />
    <glyph glyph-name="f_k.dlig" horiz-adv-x="747" 
d="M735 516l-212 -203l222 -307v-6h-174v6l92 21l-181 246l-40 -38v-205h1l90 -24v-6h-236v6l89 24v461c-68 3 -173 8 -222 12h-5l-1 -473l118 -24v-6h-264v6l91 24v473l-88 13v6h87l-2 49c-8 152 130 191 179 191c70 0 111 -19 136 -45l21 42h6v-500l166 160
c55 53 41 71 -47 97v6h174v-6zM159 522l227 -1v134c-18 44 -67 72 -128 72c-73 0 -126 -46 -126 -108c0 -48 24 -85 27 -97z" />
    <glyph glyph-name="f_t.dlig" horiz-adv-x="576" 
d="M569 73l4 -5c-42 -42 -102 -78 -120 -78c-50 0 -82 35 -82 103v402c-86 2 -175 6 -207 8h-5l-1 -473l118 -24v-6h-264v6l90 24l1 473h-1l-87 13v6h87l-2 49c-8 152 102 191 144 191c86 0 131 -39 157 -79l-44 -83l-5 3c9 74 -61 124 -129 124c-57 0 -91 -36 -91 -98
c0 -48 24 -95 27 -107l213 -1l53 109h4l-2 -108v-1h138v-32l-138 4v-400c0 -42 18 -63 60 -63c22 0 41 6 82 43z" />
    <glyph glyph-name="f_u.dlig" horiz-adv-x="792" 
d="M692 40l117 65l3 -5c-43 -35 -95 -108 -126 -108c-13 0 -30 4 -48 100c-56 -68 -111 -102 -129 -102c-75 0 -149 33 -149 167v334c-59 3 -150 9 -196 12h-5l-1 -473l110 -24v-6h-256v6l90 24l1 474l-88 12v6h87l-2 49c-8 152 102 191 144 191c86 0 131 -39 157 -79
l-44 -83l-5 3c9 74 -61 124 -129 124c-57 0 -91 -36 -91 -98c0 -48 24 -95 27 -107h257v-365c0 -85 52 -122 108 -122c42 0 83 43 112 82v373l-90 26v6h146v-482z" />
    <glyph glyph-name="g_f.dlig" horiz-adv-x="769" 
d="M689 762c86 0 131 -39 157 -79l-44 -83l-5 3c9 74 -61 124 -129 124c-57 0 -91 -36 -91 -98c0 -48 24 -95 27 -107h159v-31c-18 0 -84 2 -159 5l-1 -466l110 -24v-6h-236v6l70 24l1 468c-91 4 -182 9 -208 14l-1 -2c52 -33 74 -82 74 -137c0 -118 -118 -197 -166 -197
c-40 0 -76 8 -105 25c-28 -30 -57 -56 -57 -84c0 -32 22 -58 77 -63l167 -15c52 -5 147 -6 147 -97c0 -19 -8 -199 -246 -199c-115 0 -220 48 -220 126c0 11 17 23 144 133c-67 6 -131 33 -131 94c0 8 53 51 106 113c-37 27 -60 70 -60 131c0 118 118 196 167 196
c11 0 109 -14 179 -14h132l-2 49c-8 152 102 191 144 191zM369 338c0 91 -64 156 -150 156c-53 0 -107 -32 -107 -122s64 -155 142 -155c61 0 115 31 115 121zM455 -99c0 70 -102 84 -182 91l-99 8c-61 -44 -97 -82 -97 -113c0 -52 73 -99 194 -99c116 0 184 55 184 113z
" />
    <glyph glyph-name="g_f_i.dlig" horiz-adv-x="965" 
d="M877 30l90 -24v-6h-236v6l90 24v462c-53 1 -135 3 -217 6l-1 -468l110 -24v-6h-236v6l70 24h1v470c-99 4 -186 8 -208 12l-1 -2c52 -33 74 -82 74 -137c0 -118 -118 -197 -166 -197c-40 0 -76 8 -105 25c-28 -30 -57 -56 -57 -84c0 -32 22 -58 77 -63l167 -15
c52 -5 147 -6 147 -97c0 -19 -8 -199 -246 -199c-115 0 -220 48 -220 126c0 11 17 23 144 133c-67 6 -131 33 -131 94c0 8 53 51 106 113c-37 27 -60 70 -60 131c0 118 118 196 167 196c16 0 109 -14 179 -14h132l-2 49c-8 152 130 191 179 191c100 0 149 -39 172 -79
l-44 -83l-5 3c9 74 -62 124 -144 124c-73 0 -126 -46 -126 -108c0 -48 24 -85 27 -97h273v-492zM369 338c0 91 -64 156 -150 156c-53 0 -107 -32 -107 -122s64 -155 142 -155c61 0 115 31 115 121zM455 -99c0 70 -102 84 -182 91l-99 8c-61 -44 -97 -82 -97 -113
c0 -52 73 -99 194 -99c116 0 184 55 184 113z" />
    <glyph glyph-name="g_i.dlig" horiz-adv-x="705" 
d="M575 634c-25 0 -44 19 -44 44c0 23 19 43 44 43c23 0 42 -20 42 -43c0 -25 -19 -44 -42 -44zM617 30l90 -24v-6h-236v6l90 24v463c-72 4 -182 12 -221 19l-1 -2c52 -33 74 -82 74 -137c0 -118 -118 -197 -166 -197c-40 0 -76 8 -105 25c-28 -30 -57 -56 -57 -84
c0 -32 22 -58 77 -63l167 -15c52 -5 147 -6 147 -97c0 -19 -8 -199 -246 -199c-115 0 -220 48 -220 126c0 11 17 23 144 133c-67 6 -131 33 -131 94c0 8 53 51 106 113c-37 27 -60 70 -60 131c0 118 118 196 167 196c11 0 109 -14 179 -14h202v-492zM369 338
c0 91 -64 156 -150 156c-53 0 -107 -32 -107 -122s64 -155 142 -155c61 0 115 31 115 121zM455 -99c0 70 -102 84 -182 91l-99 8c-61 -44 -97 -82 -97 -113c0 -52 73 -99 194 -99c116 0 184 55 184 113z" />
    <glyph glyph-name="g_j.dlig" horiz-adv-x="705" 
d="M600 631c-26 0 -46 20 -46 46c0 24 20 45 46 45c25 0 45 -21 45 -45c0 -26 -20 -46 -45 -46zM415 522h219v-502c0 -139 -149 -221 -203 -272l-4 8c58 51 151 151 151 264v471c-47 1 -187 11 -238 21l-1 -2c52 -33 74 -82 74 -137c0 -118 -118 -197 -166 -197
c-40 0 -76 8 -105 25c-28 -30 -57 -56 -57 -84c0 -32 22 -58 77 -63l167 -15c52 -5 147 -6 147 -97c0 -19 -8 -199 -246 -199c-115 0 -220 48 -220 126c0 11 17 23 144 133c-67 6 -131 33 -131 94c0 8 53 51 106 113c-37 27 -60 70 -60 131c0 118 118 196 167 196
c12 0 109 -14 179 -14zM369 338c0 91 -64 156 -150 156c-53 0 -107 -32 -107 -122s64 -155 142 -155c61 0 115 31 115 121zM455 -99c0 70 -102 84 -182 91l-99 8c-61 -44 -97 -82 -97 -113c0 -52 73 -99 194 -99c116 0 184 55 184 113z" />
    <glyph glyph-name="g_t.dlig" horiz-adv-x="729" 
d="M722 73l4 -5c-42 -42 -102 -78 -120 -78c-50 0 -82 35 -82 103v405c-79 4 -158 9 -184 14l-1 -2c52 -33 74 -82 74 -137c0 -118 -118 -197 -166 -197c-40 0 -76 8 -105 25c-28 -30 -57 -56 -57 -84c0 -32 22 -58 77 -63l167 -15c52 -5 147 -6 147 -97
c0 -19 -8 -199 -246 -199c-115 0 -220 48 -220 126c0 11 17 23 144 133c-67 6 -131 33 -131 94c0 8 53 51 106 113c-37 27 -60 70 -60 131c0 118 118 196 167 196c11 0 109 -14 179 -14h110l53 108h4l-2 -108h135v-31c-17 0 -72 2 -135 4v-402c0 -42 18 -63 60 -63
c22 0 41 6 82 43zM369 338c0 91 -64 156 -150 156c-53 0 -107 -32 -107 -122s64 -155 142 -155c61 0 115 31 115 121zM455 -99c0 70 -102 84 -182 91l-99 8c-61 -44 -97 -82 -97 -113c0 -52 73 -99 194 -99c116 0 184 55 184 113z" />
    <glyph glyph-name="g_u.dlig" horiz-adv-x="949" 
d="M849 40l117 65l3 -5c-43 -35 -95 -108 -126 -108c-13 0 -30 4 -48 100c-56 -68 -111 -102 -129 -102c-75 0 -149 33 -149 167v334c-44 1 -126 11 -177 21l-1 -2c52 -33 74 -82 74 -137c0 -118 -118 -197 -166 -197c-40 0 -76 8 -105 25c-28 -30 -57 -56 -57 -84
c0 -32 22 -58 77 -63l167 -15c52 -5 147 -6 147 -97c0 -19 -8 -199 -246 -199c-115 0 -220 48 -220 126c0 11 17 23 144 133c-67 6 -131 33 -131 94c0 8 53 51 106 113c-37 27 -60 70 -60 131c0 118 118 196 167 196c11 0 109 -14 179 -14h158v-365c0 -85 52 -122 108 -122
c42 0 83 43 112 82v373l-90 26v6h146v-482zM369 338c0 91 -64 156 -150 156c-53 0 -107 -32 -107 -122s64 -155 142 -155c61 0 115 31 115 121zM455 -99c0 70 -102 84 -182 91l-99 8c-61 -44 -97 -82 -97 -113c0 -52 73 -99 194 -99c116 0 184 55 184 113z" />
    <glyph glyph-name="t_f.dlig" horiz-adv-x="583" 
d="M503 762c86 0 131 -39 157 -79l-44 -83l-5 3c9 74 -61 124 -129 124c-57 0 -91 -36 -91 -98c0 -48 24 -95 27 -107h160v-33l-160 4l-1 -463l110 -24v-6h-256v6l90 24l1 464c-93 3 -189 6 -223 9v-410c0 -42 18 -63 60 -63c22 0 41 6 82 43l4 -5
c-42 -42 -102 -78 -120 -78c-50 0 -82 35 -82 103v410l-84 13v6h85l53 108h4l-2 -108h222l-2 49c-8 152 102 191 144 191z" />
    <glyph glyph-name="t_i.dlig" horiz-adv-x="504" 
d="M379 631c-26 0 -46 20 -46 46c0 24 20 45 46 45c25 0 45 -21 45 -45c0 -26 -20 -46 -45 -46zM416 522v-492l90 -24v-6h-236v6l90 24v459c-34 1 -126 9 -221 14v-410c0 -42 18 -63 60 -63c22 0 41 6 82 43l4 -5c-42 -42 -102 -78 -120 -78c-50 0 -82 35 -82 103v410
l-84 13v6h85l53 108h4l-2 -108h277z" />
    <glyph glyph-name="t_dotlessi.dlig" horiz-adv-x="507" 
d="M419 522v-492l90 -24v-6h-236v6l90 24v459c-31 1 -126 9 -224 14v-410c0 -42 18 -63 60 -63c22 0 41 6 82 43l4 -5c-42 -42 -102 -78 -120 -78c-50 0 -82 35 -82 103v410l-84 13v6h85l53 108h4l-2 -108h280z" />
    <glyph glyph-name="t_t.dlig" horiz-adv-x="559" 
d="M552 73l4 -5c-42 -42 -102 -78 -120 -78c-50 0 -82 35 -82 103v401c-88 3 -180 6 -215 9v-410c0 -42 18 -63 60 -63c22 0 41 6 82 43l4 -5c-42 -42 -102 -78 -120 -78c-50 0 -82 35 -82 103v410h-4l-80 13v6h85l53 108h4l-2 -108l216 -1l53 109h4l-2 -108v-1h138v-32
c-6 0 -66 1 -138 4v-400c0 -42 18 -63 60 -63c22 0 41 6 82 43z" />
    <glyph glyph-name="t_u.dlig" horiz-adv-x="774" 
d="M674 40l117 65l3 -5c-43 -35 -95 -108 -126 -108c-13 0 -30 4 -48 100c-56 -68 -111 -102 -129 -102c-75 0 -149 33 -149 167v332c-25 1 -117 9 -203 14v-410c0 -42 18 -63 60 -63c22 0 41 6 82 43l4 -5c-42 -42 -102 -78 -120 -78c-50 0 -82 35 -82 103v410l-84 13v6h85
l53 108h4l-2 -108h259v-365c0 -85 52 -122 108 -122c42 0 83 43 112 82v373l-90 26v6h146v-482z" />
    <glyph glyph-name="t_z.dlig" horiz-adv-x="620" 
d="M577 522v-6l-288 -327h170c90 0 83 72 109 208h6l1 -225l-3 -2h-356v6l273 314c-100 3 -296 9 -350 13v-410c0 -42 18 -63 60 -63c22 0 41 6 82 43l4 -5c-42 -42 -102 -78 -120 -78c-50 0 -82 35 -82 103v410h-4l-80 13v6h85l53 108h4l-2 -108h438z" />
    <glyph glyph-name="w_w_w.dlig" horiz-adv-x="1797" 
d="M1655 516v6h140v-6l-179 -544h-4l-136 419h-6l-138 -419h-4l-143 436l-143 -436h-4l-136 419h-6l-138 -419h-4l-143 436l-143 -436h-4l-136 419h-6l-138 -419h-4l-178 544v6h156v-6l-89 -26l130 -396h6l71 220c45 139 51 181 -51 202v6h217v-6l-87 -26l-1 -2l129 -394h6
l73 220c55 165 41 172 -55 202v6h225v-6l-89 -26l130 -396h6l71 220c45 139 51 181 -51 202v6h217v-6l-87 -26l-1 -2l129 -394h6l73 220c55 165 41 172 -55 202v6h225v-6l-89 -26l130 -396h6l71 220c45 139 51 181 -51 202v6h217v-6l-87 -26l-1 -2l129 -394h6l73 220
c55 165 41 172 -55 202z" />
    <glyph glyph-name="g_i.dlig.dotless" horiz-adv-x="705" 
d="M617 30l90 -24v-6h-236v6l90 24v463c-72 4 -182 12 -221 19l-1 -2c52 -33 74 -82 74 -137c0 -118 -118 -197 -166 -197c-40 0 -76 8 -105 25c-28 -30 -57 -56 -57 -84c0 -32 22 -58 77 -63l167 -15c52 -5 147 -6 147 -97c0 -19 -8 -199 -246 -199
c-115 0 -220 48 -220 126c0 11 17 23 144 133c-67 6 -131 33 -131 94c0 8 53 51 106 113c-37 27 -60 70 -60 131c0 118 118 196 167 196c15 0 109 -14 179 -14h202v-492zM369 338c0 91 -64 156 -150 156c-53 0 -107 -32 -107 -122s64 -155 142 -155c61 0 115 31 115 121z
M455 -99c0 70 -102 84 -182 91l-99 8c-61 -44 -97 -82 -97 -113c0 -52 73 -99 194 -99c116 0 184 55 184 113z" />
    <glyph glyph-name="Z_Z.dlig.ss01" horiz-adv-x="732" 
d="M680 207h6v-207h-646v6l355 651h-211c-66 0 -67 -2 -103 -134c-4 -16 -9 -34 -15 -55h-6v207h624v-6l-349 -651h227c66 0 67 2 103 134c4 16 9 34 15 55zM462 657l-343 -639h144l348 639h-149z" />
    <glyph glyph-name="a.sc" horiz-adv-x="462" 
d="M188 540h69l201 -535v-5h-152v5l78 27l-60 157h-225l-6 -15c-43 -105 -53 -133 48 -169v-5h-140v5l202 489l-15 41v5zM214 468l-107 -261h210l-99 261h-4z" />
    <glyph glyph-name="aacute.sc" horiz-adv-x="462" 
d="M370 768v-6l-153 -175h-7l95 181h65zM188 540h69l201 -535v-5h-152v5l78 27l-60 157h-225l-6 -15c-43 -105 -53 -133 48 -169v-5h-140v5l202 489l-15 41v5zM214 468l-107 -261h210l-99 261h-4z" />
    <glyph glyph-name="abreve.sc" horiz-adv-x="462" 
d="M223 595c-58 0 -109 63 -109 167h7c0 -74 54 -115 102 -115s102 41 102 115h7c0 -104 -51 -167 -109 -167zM188 540h69l201 -535v-5h-152v5l78 27l-60 157h-225l-6 -15c-43 -105 -53 -133 48 -169v-5h-140v5l202 489l-15 41v5zM214 468l-107 -261h210l-99 261h-4z" />
    <glyph glyph-name="acircumflex.sc" horiz-adv-x="462" 
d="M223 694h-3l-103 -110l-3 6l109 189h3l105 -189l-3 -6zM188 540h69l201 -535v-5h-152v5l78 27l-60 157h-225l-6 -15c-43 -105 -53 -133 48 -169v-5h-140v5l202 489l-15 41v5zM214 468l-107 -261h210l-99 261h-4z" />
    <glyph glyph-name="adieresis.sc" horiz-adv-x="462" 
d="M132 625c-21 0 -37 16 -37 37c0 19 16 36 37 36c20 0 36 -17 36 -36c0 -21 -16 -37 -36 -37zM314 625c-21 0 -37 16 -37 37c0 19 16 36 37 36c20 0 36 -17 36 -36c0 -21 -16 -37 -36 -37zM188 540h69l201 -535v-5h-152v5l78 27l-60 157h-225l-6 -15
c-43 -105 -53 -133 48 -169v-5h-140v5l202 489l-15 41v5zM214 468l-107 -261h210l-99 261h-4z" />
    <glyph glyph-name="uni1EA1.sc" horiz-adv-x="462" 
d="M188 540h69l201 -535v-5h-152v5l78 27l-60 157h-225l-6 -15c-43 -105 -53 -133 48 -169v-5h-140v5l202 489l-15 41v5zM214 468l-107 -261h210l-99 261h-4zM230 -95c25 0 45 -21 45 -45c0 -26 -20 -46 -45 -46c-26 0 -46 20 -46 46c0 24 20 45 46 45z" />
    <glyph glyph-name="agrave.sc" horiz-adv-x="462" 
d="M133 768l95 -181h-7l-153 175v6h65zM188 540h69l201 -535v-5h-152v5l78 27l-60 157h-225l-6 -15c-43 -105 -53 -133 48 -169v-5h-140v5l202 489l-15 41v5zM214 468l-107 -261h210l-99 261h-4z" />
    <glyph glyph-name="amacron.sc" horiz-adv-x="462" 
d="M72 648h301v-30h-301v30zM188 540h69l201 -535v-5h-152v5l78 27l-60 157h-225l-6 -15c-43 -105 -53 -133 48 -169v-5h-140v5l202 489l-15 41v5zM214 468l-107 -261h210l-99 261h-4z" />
    <glyph glyph-name="aogonek.sc" horiz-adv-x="462" 
d="M471 -169l5 -4c-45 -46 -86 -74 -99 -74c-22 0 -83 9 -83 71c0 51 40 107 79 176h-67v5l78 27l-60 157h-225l-6 -15c-43 -105 -53 -133 48 -169v-5h-140v5l202 489l-15 41v5h69l201 -535v-5h-70c-49 -84 -75 -206 12 -206c25 0 51 20 71 37zM214 468l-107 -261h210
l-99 261h-4z" />
    <glyph glyph-name="aring.sc" horiz-adv-x="462" 
d="M223 592c-53 0 -94 42 -94 94s41 94 94 94c52 0 94 -42 94 -94s-42 -94 -94 -94zM223 763c-42 0 -75 -34 -75 -77s33 -77 75 -77s75 34 75 77s-33 77 -75 77zM188 540h69l201 -535v-5h-152v5l78 27l-60 157h-225l-6 -15c-43 -105 -53 -133 48 -169v-5h-140v5l202 489
l-15 41v5zM214 468l-107 -261h210l-99 261h-4z" />
    <glyph glyph-name="atilde.sc" horiz-adv-x="462" 
d="M147 659c-20 0 -48 -2 -82 -57l-4 3c29 60 54 101 96 101c49 0 92 -47 140 -47c20 0 49 0 84 58l4 -3c-28 -61 -54 -102 -96 -102c-51 0 -99 47 -142 47zM188 540h69l201 -535v-5h-152v5l78 27l-60 157h-225l-6 -15c-43 -105 -53 -133 48 -169v-5h-140v5l202 489l-15 41
v5zM214 468l-107 -261h210l-99 261h-4z" />
    <glyph glyph-name="ae.sc" horiz-adv-x="737" 
d="M671 170h6l62 -170h-433v5l78 27l-60 157h-225l-6 -15c-43 -105 -53 -133 48 -169v-5h-140v5l202 489l-15 41v5h338l62 -170h-5c-15 20 -23 33 -32 46c-73 105 -77 107 -139 107h-149l91 -240h80c60 0 44 24 49 96h5l78 -211h-5c-58 73 -63 97 -123 97h-78l93 -248h156
c68 0 67 3 63 108c-1 18 0 27 -1 45zM214 468l-107 -261h210l-99 261h-4z" />
    <glyph glyph-name="aeacute.sc" horiz-adv-x="737" 
d="M505 768v-6l-153 -175h-7l95 181h65zM671 170h6l62 -170h-433v5l78 27l-60 157h-225l-6 -15c-43 -105 -53 -133 48 -169v-5h-140v5l202 489l-15 41v5h338l62 -170h-5c-15 20 -23 33 -32 46c-73 105 -77 107 -139 107h-149l91 -240h80c60 0 44 24 49 96h5l78 -211h-5
c-58 73 -63 97 -123 97h-78l93 -248h156c68 0 67 3 63 108c-1 18 0 27 -1 45zM214 468l-107 -261h210l-99 261h-4z" />
    <glyph glyph-name="b.sc" horiz-adv-x="538" 
d="M367 286v-3c66 -2 146 -36 146 -125c0 -75 -65 -158 -253 -158h-229v5l75 27v476l-75 27v5h271c105 0 177 -42 177 -116c0 -81 -109 -137 -112 -138zM269 522h-103v-235h111c86 0 138 30 138 118c0 67 -44 117 -146 117zM260 19c122 0 186 30 186 127
c0 96 -65 126 -188 126h-92v-253h94z" />
    <glyph glyph-name="c.sc" horiz-adv-x="476" 
d="M279 -8c-146 0 -260 116 -257 280c5 216 223 276 258 276c102 0 164 -38 186 -81l-49 -97h-6c23 95 -62 141 -153 141c-53 0 -183 -21 -187 -197c-4 -147 92 -281 246 -281c57 0 92 19 127 36l4 -7c-59 -33 -146 -70 -169 -70z" />
    <glyph glyph-name="cacute.sc" horiz-adv-x="476" 
d="M365 768h65v-6l-153 -175h-7zM279 -8c-146 0 -260 116 -257 280c5 216 223 276 258 276c102 0 164 -38 186 -81l-49 -97h-6c23 95 -62 141 -153 141c-53 0 -183 -21 -187 -197c-4 -147 92 -281 246 -281c57 0 92 19 127 36l4 -7c-59 -33 -146 -70 -169 -70z" />
    <glyph glyph-name="ccaron.sc" horiz-adv-x="476" 
d="M283 587l-109 189l3 6l103 -110h3l105 110l3 -6l-105 -189h-3zM279 -8c-146 0 -260 116 -257 280c5 216 223 276 258 276c102 0 164 -38 186 -81l-49 -97h-6c23 95 -62 141 -153 141c-53 0 -183 -21 -187 -197c-4 -147 92 -281 246 -281c57 0 92 19 127 36l4 -7
c-59 -33 -146 -70 -169 -70z" />
    <glyph glyph-name="ccedilla.sc" horiz-adv-x="476" 
d="M279 -8h-15l-31 -56c49 -11 86 -40 86 -83c0 -44 -39 -87 -120 -110l-1 5c60 19 77 47 77 77c0 37 -32 58 -81 62l-1 6l58 100c-132 14 -232 125 -229 279c5 216 223 276 258 276c102 0 164 -38 186 -81l-49 -97h-6c23 95 -62 141 -153 141c-53 0 -183 -21 -187 -197
c-4 -147 92 -281 246 -281c57 0 92 19 127 36l4 -7c-59 -33 -146 -70 -169 -70z" />
    <glyph glyph-name="ccircumflex.sc" horiz-adv-x="476" 
d="M177 584l-3 6l109 189h3l105 -189l-3 -6l-105 110h-3zM279 -8c-146 0 -260 116 -257 280c5 216 223 276 258 276c102 0 164 -38 186 -81l-49 -97h-6c23 95 -62 141 -153 141c-53 0 -183 -21 -187 -197c-4 -147 92 -281 246 -281c57 0 92 19 127 36l4 -7
c-59 -33 -146 -70 -169 -70z" />
    <glyph glyph-name="cdotaccent.sc" horiz-adv-x="476" 
d="M283 649c-26 0 -46 20 -46 46c0 24 20 45 46 45c25 0 45 -21 45 -45c0 -26 -20 -46 -45 -46zM279 -8c-146 0 -260 116 -257 280c5 216 223 276 258 276c102 0 164 -38 186 -81l-49 -97h-6c23 95 -62 141 -153 141c-53 0 -183 -21 -187 -197c-4 -147 92 -281 246 -281
c57 0 92 19 127 36l4 -7c-59 -33 -146 -70 -169 -70z" />
    <glyph glyph-name="d.sc" horiz-adv-x="558" 
d="M226 540c192 0 308 -91 308 -263c0 -127 -82 -277 -335 -277h-168v5l75 27v476l-75 27v5h195zM166 18h29c196 0 276 89 276 252c0 155 -81 253 -268 253h-37v-505z" />
    <glyph glyph-name="eth.sc" horiz-adv-x="558" 
d="M226 540c192 0 308 -91 308 -263c0 -127 -82 -277 -335 -277h-168v5l75 27v229h-89v18h89v229l-75 27v5h195zM166 18h29c196 0 276 89 276 252c0 155 -81 253 -268 253h-37v-244h152v-18h-152v-243z" />
    <glyph glyph-name="dcaron.sc" horiz-adv-x="558" 
d="M370 776l-105 -189h-3l-109 189l3 6l103 -110h3l105 110zM226 540c192 0 308 -91 308 -263c0 -127 -82 -277 -335 -277h-168v5l75 27v476l-75 27v5h195zM166 18h29c196 0 276 89 276 252c0 155 -81 253 -268 253h-37v-505z" />
    <glyph glyph-name="e.sc" horiz-adv-x="535" 
d="M471 170h5v-170h-445v5l75 27v476l-75 27v5h432v-170h-6l-15 46c-35 104 -37 106 -99 106h-177v-239h109c59 0 54 24 85 96h5v-211h-5c-31 73 -26 97 -85 97h-109v-247h186c68 0 68 1 103 105z" />
    <glyph glyph-name="eacute.sc" horiz-adv-x="535" 
d="M416 768v-6l-153 -175h-7l95 181h65zM471 170h5v-170h-445v5l75 27v476l-75 27v5h432v-170h-6l-15 46c-35 104 -37 106 -99 106h-177v-239h109c59 0 54 24 85 96h5v-211h-5c-31 73 -26 97 -85 97h-109v-247h186c68 0 68 1 103 105z" />
    <glyph glyph-name="ebreve.sc" horiz-adv-x="535" 
d="M269 595c-58 0 -109 63 -109 167h7c0 -74 54 -115 102 -115s102 41 102 115h7c0 -104 -51 -167 -109 -167zM471 170h5v-170h-445v5l75 27v476l-75 27v5h432v-170h-6l-15 46c-35 104 -37 106 -99 106h-177v-239h109c59 0 54 24 85 96h5v-211h-5c-31 73 -26 97 -85 97h-109
v-247h186c68 0 68 1 103 105z" />
    <glyph glyph-name="ecaron.sc" horiz-adv-x="535" 
d="M377 776l-105 -189h-3l-109 189l3 6l103 -110h3l105 110zM471 170h5v-170h-445v5l75 27v476l-75 27v5h432v-170h-6l-15 46c-35 104 -37 106 -99 106h-177v-239h109c59 0 54 24 85 96h5v-211h-5c-31 73 -26 97 -85 97h-109v-247h186c68 0 68 1 103 105z" />
    <glyph glyph-name="ecircumflex.sc" horiz-adv-x="535" 
d="M269 694h-3l-103 -110l-3 6l109 189h3l105 -189l-3 -6zM471 170h5v-170h-445v5l75 27v476l-75 27v5h432v-170h-6l-15 46c-35 104 -37 106 -99 106h-177v-239h109c59 0 54 24 85 96h5v-211h-5c-31 73 -26 97 -85 97h-109v-247h186c68 0 68 1 103 105z" />
    <glyph glyph-name="edieresis.sc" horiz-adv-x="535" 
d="M178 625c-21 0 -37 16 -37 37c0 19 16 36 37 36c20 0 36 -17 36 -36c0 -21 -16 -37 -36 -37zM360 625c-21 0 -37 16 -37 37c0 19 16 36 37 36c20 0 36 -17 36 -36c0 -21 -16 -37 -36 -37zM471 170h5v-170h-445v5l75 27v476l-75 27v5h432v-170h-6l-15 46
c-35 104 -37 106 -99 106h-177v-239h109c59 0 54 24 85 96h5v-211h-5c-31 73 -26 97 -85 97h-109v-247h186c68 0 68 1 103 105z" />
    <glyph glyph-name="edotaccent.sc" horiz-adv-x="535" 
d="M269 649c-26 0 -46 20 -46 46c0 24 20 45 46 45c25 0 45 -21 45 -45c0 -26 -20 -46 -45 -46zM471 170h5v-170h-445v5l75 27v476l-75 27v5h432v-170h-6l-15 46c-35 104 -37 106 -99 106h-177v-239h109c59 0 54 24 85 96h5v-211h-5c-31 73 -26 97 -85 97h-109v-247h186
c68 0 68 1 103 105z" />
    <glyph glyph-name="uni1EB9.sc" horiz-adv-x="535" 
d="M471 170h5v-170h-445v5l75 27v476l-75 27v5h432v-170h-6l-15 46c-35 104 -37 106 -99 106h-177v-239h109c59 0 54 24 85 96h5v-211h-5c-31 73 -26 97 -85 97h-109v-247h186c68 0 68 1 103 105zM269 -95c25 0 45 -21 45 -45c0 -26 -20 -46 -45 -46c-26 0 -46 20 -46 46
c0 24 20 45 46 45z" />
    <glyph glyph-name="egrave.sc" horiz-adv-x="535" 
d="M179 768l95 -181h-7l-153 175v6h65zM471 170h5v-170h-445v5l75 27v476l-75 27v5h432v-170h-6l-15 46c-35 104 -37 106 -99 106h-177v-239h109c59 0 54 24 85 96h5v-211h-5c-31 73 -26 97 -85 97h-109v-247h186c68 0 68 1 103 105z" />
    <glyph glyph-name="emacron.sc" horiz-adv-x="535" 
d="M118 648h301v-30h-301v30zM471 170h5v-170h-445v5l75 27v476l-75 27v5h432v-170h-6l-15 46c-35 104 -37 106 -99 106h-177v-239h109c59 0 54 24 85 96h5v-211h-5c-31 73 -26 97 -85 97h-109v-247h186c68 0 68 1 103 105z" />
    <glyph glyph-name="eogonek.sc" horiz-adv-x="535" 
d="M496 -179l5 -4c-45 -46 -86 -74 -99 -74c-22 0 -83 9 -83 71c0 54 44 112 85 186h-373v5l75 27v476l-75 27v5h432v-170h-6l-15 46c-35 104 -37 106 -99 106h-177v-239h109c59 0 54 24 85 96h5v-211h-5c-31 73 -26 97 -85 97h-109v-247h186c68 0 68 1 103 105l16 47h5
v-170h-57c-53 -84 -85 -216 6 -216c25 0 51 20 71 37z" />
    <glyph glyph-name="uni1EBD.sc" horiz-adv-x="535" 
d="M193 659c-20 0 -48 -2 -82 -57l-4 3c29 60 54 101 96 101c49 0 92 -47 140 -47c20 0 49 0 84 58l4 -3c-28 -61 -54 -102 -96 -102c-51 0 -99 47 -142 47zM471 170h5v-170h-445v5l75 27v476l-75 27v5h432v-170h-6l-15 46c-35 104 -37 106 -99 106h-177v-239h109
c59 0 54 24 85 96h5v-211h-5c-31 73 -26 97 -85 97h-109v-247h186c68 0 68 1 103 105z" />
    <glyph glyph-name="uni0259.sc" horiz-adv-x="502" 
d="M188 541c188 0 290 -90 290 -258c0 -207 -214 -290 -267 -290c-113 0 -178 64 -178 176c0 18 66 52 77 52h319c1 10 1 21 1 32c0 148 -106 246 -284 246c-50 0 -84 -13 -114 -29l-5 6c70 41 149 65 161 65zM243 36c102 0 168 65 183 167h-332c-2 -113 51 -167 149 -167z
" />
    <glyph glyph-name="f.sc" horiz-adv-x="490" 
d="M466 540v-170h-5c-8 21 -1 2 -16 47c-33 101 -37 105 -93 105h-182v-248h130c60 0 55 24 86 97h5v-213h-5c-31 74 -26 98 -86 98h-130v-226l79 -25v-5h-218v5l79 25l1 478l-76 27v5h431z" />
    <glyph glyph-name="g.sc" horiz-adv-x="536" 
d="M207 261v5h262l6 -4l-4 -273h-6l-27 65h-2c-40 -26 -129 -62 -156 -62c-146 0 -258 118 -258 272c0 222 225 284 261 284c103 0 173 -39 195 -81l-47 -98h-5c23 86 -66 140 -163 140c-50 0 -189 -18 -189 -200c0 -152 95 -274 242 -274c45 0 69 7 99 22v181z" />
    <glyph glyph-name="gbreve.sc" horiz-adv-x="536" 
d="M285 595c-58 0 -109 63 -109 167h7c0 -74 54 -115 102 -115s102 41 102 115h7c0 -104 -51 -167 -109 -167zM207 261v5h262l6 -4l-4 -273h-6l-27 65h-2c-40 -26 -129 -62 -156 -62c-146 0 -258 118 -258 272c0 222 225 284 261 284c103 0 173 -39 195 -81l-47 -98h-5
c23 86 -66 140 -163 140c-50 0 -189 -18 -189 -200c0 -152 95 -274 242 -274c45 0 69 7 99 22v181z" />
    <glyph glyph-name="gcaron.sc" horiz-adv-x="536" 
d="M393 776l-105 -189h-3l-109 189l3 6l103 -110h3l105 110zM207 261v5h262l6 -4l-4 -273h-6l-27 65h-2c-40 -26 -129 -62 -156 -62c-146 0 -258 118 -258 272c0 222 225 284 261 284c103 0 173 -39 195 -81l-47 -98h-5c23 86 -66 140 -163 140c-50 0 -189 -18 -189 -200
c0 -152 95 -274 242 -274c45 0 69 7 99 22v181z" />
    <glyph glyph-name="gcircumflex.sc" horiz-adv-x="536" 
d="M285 694h-3l-103 -110l-3 6l109 189h3l105 -189l-3 -6zM207 261v5h262l6 -4l-4 -273h-6l-27 65h-2c-40 -26 -129 -62 -156 -62c-146 0 -258 118 -258 272c0 222 225 284 261 284c103 0 173 -39 195 -81l-47 -98h-5c23 86 -66 140 -163 140c-50 0 -189 -18 -189 -200
c0 -152 95 -274 242 -274c45 0 69 7 99 22v181z" />
    <glyph glyph-name="uni0123.sc" horiz-adv-x="536" 
d="M207 261v5h262l6 -4l-4 -273h-6l-27 65h-2c-40 -26 -129 -62 -156 -62c-146 0 -258 118 -258 272c0 222 225 284 261 284c103 0 173 -39 195 -81l-47 -98h-5c23 86 -66 140 -163 140c-50 0 -189 -18 -189 -200c0 -152 95 -274 242 -274c45 0 69 7 99 22v181zM265 -108
c24 0 44 -17 44 -45c0 -29 -21 -60 -73 -126h-6l35 83c-24 2 -45 20 -45 44c0 23 20 44 45 44z" />
    <glyph glyph-name="gdotaccent.sc" horiz-adv-x="536" 
d="M285 649c-26 0 -46 20 -46 46c0 24 20 45 46 45c25 0 45 -21 45 -45c0 -26 -20 -46 -45 -46zM207 261v5h262l6 -4l-4 -273h-6l-27 65h-2c-40 -26 -129 -62 -156 -62c-146 0 -258 118 -258 272c0 222 225 284 261 284c103 0 173 -39 195 -81l-47 -98h-5
c23 86 -66 140 -163 140c-50 0 -189 -18 -189 -200c0 -152 95 -274 242 -274c45 0 69 7 99 22v181z" />
    <glyph glyph-name="h.sc" horiz-adv-x="605" 
d="M574 540v-5l-79 -25v-480l79 -25v-5h-218v5l79 25v231h-265v-231l79 -25v-5h-218v5l79 25v480l-79 25v5h218v-5l-79 -25v-231h265v231l-79 25v5h218z" />
    <glyph glyph-name="hbar.sc" horiz-adv-x="605" 
d="M577 444v-18h-82v-396l79 -25v-5h-218v5l79 25v231h-265v-231l79 -25v-5h-218v5l79 25v396h-84v18h84v66l-79 25v5h218v-5l-79 -25v-66h265v66l-79 25v5h218v-5l-79 -25v-66h82zM170 279h265v147h-265v-147z" />
    <glyph glyph-name="hcircumflex.sc" horiz-adv-x="605" 
d="M302 694h-3l-103 -110l-3 6l109 189h3l105 -189l-3 -6zM574 540v-5l-79 -25v-480l79 -25v-5h-218v5l79 25v231h-265v-231l79 -25v-5h-218v5l79 25v480l-79 25v5h218v-5l-79 -25v-231h265v231l-79 25v5h218z" />
    <glyph glyph-name="i.sc" horiz-adv-x="280" 
d="M110 30v480l-79 25v5h218v-5l-79 -25v-480l79 -25v-5h-218v5z" />
    <glyph glyph-name="iacute.sc" horiz-adv-x="280" 
d="M222 768h65v-6l-153 -175h-7zM110 30v480l-79 25v5h218v-5l-79 -25v-480l79 -25v-5h-218v5z" />
    <glyph glyph-name="ibreve.sc" horiz-adv-x="280" 
d="M140 595c-58 0 -109 63 -109 167h7c0 -74 54 -115 102 -115s102 41 102 115h7c0 -104 -51 -167 -109 -167zM110 510l-79 25v5h218v-5l-79 -25v-480l79 -25v-5h-218v5l79 25v480z" />
    <glyph glyph-name="icircumflex.sc" horiz-adv-x="280" 
d="M34 584l-3 6l109 189h3l105 -189l-3 -6l-105 110h-3zM110 30v480l-79 25v5h218v-5l-79 -25v-480l79 -25v-5h-218v5z" />
    <glyph glyph-name="idieresis.sc" horiz-adv-x="280" 
d="M49 625c-21 0 -37 16 -37 37c0 19 16 36 37 36c20 0 36 -17 36 -36c0 -21 -16 -37 -36 -37zM231 625c-21 0 -37 16 -37 37c0 19 16 36 37 36c20 0 36 -17 36 -36c0 -21 -16 -37 -36 -37zM110 30v480l-79 25v5h218v-5l-79 -25v-480l79 -25v-5h-218v5z" />
    <glyph glyph-name="i.sc.loclTRK" horiz-adv-x="280" 
d="M140 649c-26 0 -46 20 -46 46c0 24 20 45 46 45c25 0 45 -21 45 -45c0 -26 -20 -46 -45 -46zM110 30v480l-79 25v5h218v-5l-79 -25v-480l79 -25v-5h-218v5z" />
    <glyph glyph-name="uni1ECB.sc" horiz-adv-x="280" 
d="M110 30v480l-79 25v5h218v-5l-79 -25v-480l79 -25v-5h-218v5zM140 -186c-26 0 -46 20 -46 46c0 24 20 45 46 45c25 0 45 -21 45 -45c0 -26 -20 -46 -45 -46z" />
    <glyph glyph-name="igrave.sc" horiz-adv-x="280" 
d="M-15 762v6h65l95 -181h-7zM110 30v480l-79 25v5h218v-5l-79 -25v-480l79 -25v-5h-218v5z" />
    <glyph glyph-name="imacron.sc" horiz-adv-x="280" 
d="M-11 618v30h301v-30h-301zM110 30v480l-79 25v5h218v-5l-79 -25v-480l79 -25v-5h-218v5z" />
    <glyph glyph-name="iogonek.sc" horiz-adv-x="280" 
d="M249 540v-5l-79 -25v-480l79 -25v-5h-98c-53 -84 -85 -216 6 -216c25 0 51 20 71 37l5 -4c-45 -46 -86 -74 -99 -74c-22 0 -83 9 -83 71c0 54 44 112 85 186h-105v5l79 25v480l-79 25v5h218z" />
    <glyph glyph-name="itilde.sc" horiz-adv-x="280" 
d="M298 717l4 -3c-28 -61 -54 -102 -96 -102c-51 0 -99 47 -142 47c-20 0 -48 -2 -82 -57l-4 3c29 60 54 101 96 101c49 0 92 -47 140 -47c20 0 49 0 84 58zM110 30v480l-79 25v5h218v-5l-79 -25v-480l79 -25v-5h-218v5z" />
    <glyph glyph-name="j.sc" horiz-adv-x="340" 
d="M252 510v-390c0 -30 -75 -131 -135 -131c-68 0 -103 29 -125 65l54 99l4 -2c-28 -62 22 -137 79 -137c30 0 67 5 62 138v358l-78 25v5h217v-5z" />
    <glyph glyph-name="jcircumflex.sc" horiz-adv-x="340" 
d="M113 584l-3 6l109 189h3l105 -189l-3 -6l-105 110h-3zM252 510v-390c0 -30 -75 -131 -135 -131c-68 0 -103 29 -125 65l54 99l4 -2c-28 -62 22 -137 79 -137c30 0 67 5 62 138v358l-78 25v5h217v-5z" />
    <glyph glyph-name="k.sc" horiz-adv-x="501" 
d="M486 535l-244 -220l250 -311v-4h-172v5l81 27l-204 243l-27 -24v-221l79 -25v-5h-218v5l79 25v480l-79 25v5h218v-5l-79 -25v-239l181 162c66 59 38 85 -23 102v5h158v-5z" />
    <glyph glyph-name="uni0137.sc" horiz-adv-x="501" 
d="M486 535l-244 -220l250 -311v-4h-172v5l81 27l-204 243l-27 -24v-221l79 -25v-5h-218v5l79 25v480l-79 25v5h218v-5l-79 -25v-239l181 162c66 59 38 85 -23 102v5h158v-5zM251 -108c24 0 44 -17 44 -45c0 -29 -21 -60 -73 -126h-6l35 83c-24 2 -45 20 -45 44
c0 23 20 44 45 44z" />
    <glyph glyph-name="l.sc" horiz-adv-x="471" 
d="M451 172h6v-172h-422v5l76 27l-1 478l-79 25v5h218v-5l-79 -25v-492h167c72 0 65 6 114 154z" />
    <glyph glyph-name="lacute.sc" horiz-adv-x="471" 
d="M288 768v-6l-153 -175h-7l95 181h65zM451 172h6v-172h-422v5l76 27l-1 478l-79 25v5h218v-5l-79 -25v-492h167c72 0 65 6 114 154z" />
    <glyph glyph-name="lcaron.sc" horiz-adv-x="471" 
d="M451 172h6v-172h-422v5l76 27l-1 478l-79 25v5h218v-5l-79 -25v-492h167c72 0 65 6 114 154zM321 301l34 157c-23 1 -42 19 -42 41c0 21 18 39 41 39c22 0 40 -14 40 -44c0 -36 -19 -78 -66 -193h-7z" />
    <glyph glyph-name="uni013C.sc" horiz-adv-x="471" 
d="M451 172h6v-172h-422v5l76 27l-1 478l-79 25v5h218v-5l-79 -25v-492h167c72 0 65 6 114 154zM254 -108c24 0 44 -17 44 -45c0 -29 -21 -60 -73 -126h-6l35 83c-24 2 -45 20 -45 44c0 23 20 44 45 44z" />
    <glyph glyph-name="lslash.sc" horiz-adv-x="471" 
d="M451 172h6v-172h-422v5l76 27v195l-84 -77l-13 14l97 89l-1 257l-79 25v5h218v-5l-79 -25v-202l89 82l13 -14l-102 -94v-264h167c72 0 65 6 114 154z" />
    <glyph glyph-name="m.sc" horiz-adv-x="629" 
d="M324 211l159 329h87v-5l-24 -27v-508h-134v5l75 27l-1 457h-5l-176 -362h-6l-191 339h-4v-301c0 -110 7 -128 119 -159v-6h-140v503l-22 32v5h72l186 -329h5z" />
    <glyph glyph-name="n.sc" horiz-adv-x="559" 
d="M340 534v6h139v-548h-12l-358 475h-4v-301c0 -110 7 -127 119 -160v-6h-140v498l-34 37v5h77l327 -432h5v266c0 107 -7 128 -119 160z" />
    <glyph glyph-name="nacute.sc" horiz-adv-x="559" 
d="M425 768v-6l-153 -175h-7l95 181h65zM340 534v6h139v-548h-12l-358 475h-4v-301c0 -110 7 -127 119 -160v-6h-140v498l-34 37v5h77l327 -432h5v266c0 107 -7 128 -119 160z" />
    <glyph glyph-name="ncaron.sc" horiz-adv-x="559" 
d="M386 776l-105 -189h-3l-109 189l3 6l103 -110h3l105 110zM340 534v6h139v-548h-12l-358 475h-4v-301c0 -110 7 -127 119 -160v-6h-140v498l-34 37v5h77l327 -432h5v266c0 107 -7 128 -119 160z" />
    <glyph glyph-name="uni0146.sc" horiz-adv-x="559" 
d="M340 534v6h139v-548h-12l-358 475h-4v-301c0 -110 7 -127 119 -160v-6h-140v498l-34 37v5h77l327 -432h5v266c0 107 -7 128 -119 160zM275 -108c24 0 44 -17 44 -45c0 -29 -21 -60 -73 -126h-6l35 83c-24 2 -45 20 -45 44c0 23 20 44 45 44z" />
    <glyph glyph-name="eng.sc" horiz-adv-x="572" 
d="M328 542c131 0 178 -63 178 -163v-289c0 -186 -138 -252 -188 -292l-3 6c54 44 130 126 130 286v278c0 100 -58 131 -133 131c-66 0 -100 -24 -142 -50v-419l79 -25v-5h-218v5l79 25l1 478l-76 27v5h135v-72c58 40 135 74 158 74z" />
    <glyph glyph-name="uni0272.sc" horiz-adv-x="590" 
d="M499 385v-355l79 -25v-5h-218v5l79 25v344c0 100 -59 131 -134 131c-67 0 -101 -24 -142 -50v-365c0 -184 -135 -251 -187 -292l-4 6c63 52 131 138 131 286l1 418l-75 27v5h134v-66c58 40 135 74 158 74c115 0 178 -52 178 -163z" />
    <glyph glyph-name="ntilde.sc" horiz-adv-x="559" 
d="M202 659c-20 0 -48 -2 -82 -57l-4 3c29 60 54 101 96 101c49 0 92 -47 140 -47c20 0 49 0 84 58l4 -3c-28 -61 -54 -102 -96 -102c-51 0 -99 47 -142 47zM340 534v6h139v-548h-12l-358 475h-4v-301c0 -110 7 -127 119 -160v-6h-140v498l-34 37v5h77l327 -432h5v266
c0 107 -7 128 -119 160z" />
    <glyph glyph-name="o.sc" horiz-adv-x="533" 
d="M273 -8c-164 0 -249 137 -249 277c0 206 180 278 236 278c164 0 249 -137 249 -277c0 -206 -180 -278 -236 -278zM297 32c85 1 170 55 167 209c-3 145 -95 268 -229 267c-86 -1 -170 -54 -167 -209c2 -137 86 -268 229 -267z" />
    <glyph glyph-name="oacute.sc" horiz-adv-x="533" 
d="M349 768h65v-6l-153 -175h-7zM273 -8c-164 0 -249 137 -249 277c0 206 180 278 236 278c164 0 249 -137 249 -277c0 -206 -180 -278 -236 -278zM297 32c85 1 170 55 167 209c-3 145 -95 268 -229 267c-86 -1 -170 -54 -167 -209c2 -137 86 -268 229 -267z" />
    <glyph glyph-name="obreve.sc" horiz-adv-x="533" 
d="M267 595c-58 0 -109 63 -109 167h7c0 -74 54 -115 102 -115s102 41 102 115h7c0 -104 -51 -167 -109 -167zM260 547c164 0 249 -137 249 -277c0 -206 -180 -278 -236 -278c-164 0 -249 137 -249 277c0 206 180 278 236 278zM297 32c85 1 170 55 167 209
c-3 145 -95 268 -229 267c-86 -1 -170 -54 -167 -209c2 -137 86 -268 229 -267z" />
    <glyph glyph-name="ocircumflex.sc" horiz-adv-x="533" 
d="M161 584l-3 6l109 189h3l105 -189l-3 -6l-105 110h-3zM273 -8c-164 0 -249 137 -249 277c0 206 180 278 236 278c164 0 249 -137 249 -277c0 -206 -180 -278 -236 -278zM297 32c85 1 170 55 167 209c-3 145 -95 268 -229 267c-86 -1 -170 -54 -167 -209
c2 -137 86 -268 229 -267z" />
    <glyph glyph-name="odieresis.sc" horiz-adv-x="533" 
d="M176 625c-21 0 -37 16 -37 37c0 19 16 36 37 36c20 0 36 -17 36 -36c0 -21 -16 -37 -36 -37zM358 625c-21 0 -37 16 -37 37c0 19 16 36 37 36c20 0 36 -17 36 -36c0 -21 -16 -37 -36 -37zM273 -8c-164 0 -249 137 -249 277c0 206 180 278 236 278
c164 0 249 -137 249 -277c0 -206 -180 -278 -236 -278zM297 32c85 1 170 55 167 209c-3 145 -95 268 -229 267c-86 -1 -170 -54 -167 -209c2 -137 86 -268 229 -267z" />
    <glyph glyph-name="uni1ECD.sc" horiz-adv-x="533" 
d="M273 -8c-164 0 -249 137 -249 277c0 206 180 278 236 278c164 0 249 -137 249 -277c0 -206 -180 -278 -236 -278zM297 32c85 1 170 55 167 209c-3 145 -95 268 -229 267c-86 -1 -170 -54 -167 -209c2 -137 86 -268 229 -267zM267 -186c-26 0 -46 20 -46 46
c0 24 20 45 46 45c25 0 45 -21 45 -45c0 -26 -20 -46 -45 -46z" />
    <glyph glyph-name="ograve.sc" horiz-adv-x="533" 
d="M112 762v6h65l95 -181h-7zM273 -8c-164 0 -249 137 -249 277c0 206 180 278 236 278c164 0 249 -137 249 -277c0 -206 -180 -278 -236 -278zM297 32c85 1 170 55 167 209c-3 145 -95 268 -229 267c-86 -1 -170 -54 -167 -209c2 -137 86 -268 229 -267z" />
    <glyph glyph-name="ohungarumlaut.sc" horiz-adv-x="533" 
d="M288 768h52v-6l-121 -175h-5zM388 768h52v-6l-121 -175h-5zM273 -8c-164 0 -249 137 -249 277c0 206 180 278 236 278c164 0 249 -137 249 -277c0 -206 -180 -278 -236 -278zM297 32c85 1 170 55 167 209c-3 145 -95 268 -229 267c-86 -1 -170 -54 -167 -209
c2 -137 86 -268 229 -267z" />
    <glyph glyph-name="omacron.sc" horiz-adv-x="533" 
d="M116 618v30h301v-30h-301zM273 -8c-164 0 -249 137 -249 277c0 206 180 278 236 278c164 0 249 -137 249 -277c0 -206 -180 -278 -236 -278zM297 32c85 1 170 55 167 209c-3 145 -95 268 -229 267c-86 -1 -170 -54 -167 -209c2 -137 86 -268 229 -267z" />
    <glyph glyph-name="uni01EB.sc" horiz-adv-x="533" 
d="M509 270c0 -165 -115 -244 -190 -269c-53 -84 -84 -215 6 -215c25 0 51 20 71 37l5 -4c-45 -46 -86 -74 -99 -74c-22 0 -83 9 -83 71c0 52 42 109 82 180c-11 -3 -21 -4 -28 -4c-164 0 -249 137 -249 277c0 206 180 278 236 278c164 0 249 -137 249 -277zM68 299
c2 -137 86 -268 229 -267c85 1 170 55 167 209c-3 145 -95 268 -229 267c-86 -1 -170 -54 -167 -209z" />
    <glyph glyph-name="oslash.sc" horiz-adv-x="533" 
d="M474 675l-80 -166c76 -51 115 -144 115 -239c0 -206 -180 -278 -236 -278c-45 0 -83 10 -116 28l-75 -155h-22l80 165c-77 50 -116 144 -116 239c0 206 180 278 236 278c45 0 84 -10 117 -28l75 156h22zM68 299c1 -86 35 -170 95 -220l190 392c-33 24 -73 37 -118 37
c-86 -1 -170 -54 -167 -209zM297 32c85 1 170 55 167 209c-2 89 -37 169 -95 218l-189 -392c32 -22 72 -35 117 -35z" />
    <glyph glyph-name="oslashacute.sc" horiz-adv-x="533" 
d="M414 768v-6l-153 -175h-7l95 181h65zM474 675l-80 -166c76 -51 115 -144 115 -239c0 -206 -180 -278 -236 -278c-45 0 -83 10 -116 28l-75 -155h-22l80 165c-77 50 -116 144 -116 239c0 206 180 278 236 278c45 0 84 -10 117 -28l75 156h22zM68 299
c1 -86 35 -170 95 -220l190 392c-33 24 -73 37 -118 37c-86 -1 -170 -54 -167 -209zM297 32c85 1 170 55 167 209c-2 89 -37 169 -95 218l-189 -392c32 -22 72 -35 117 -35z" />
    <glyph glyph-name="otilde.sc" horiz-adv-x="533" 
d="M425 717l4 -3c-28 -61 -54 -102 -96 -102c-51 0 -99 47 -142 47c-20 0 -48 -2 -82 -57l-4 3c29 60 54 101 96 101c49 0 92 -47 140 -47c20 0 49 0 84 58zM273 -8c-164 0 -249 137 -249 277c0 206 180 278 236 278c164 0 249 -137 249 -277c0 -206 -180 -278 -236 -278z
M297 32c85 1 170 55 167 209c-3 145 -95 268 -229 267c-86 -1 -170 -54 -167 -209c2 -137 86 -268 229 -267z" />
    <glyph glyph-name="oe.sc" horiz-adv-x="775" 
d="M710 170h6v-170h-371c-246 5 -325 138 -325 266c0 157 117 274 325 274h357v-170h-5l-16 46c-35 107 -35 107 -103 107h-173v-242h109c58 0 54 24 85 98h6v-211h-6c-30 71 -25 98 -85 98h-109v-249h186h1c68 0 67 0 103 108c6 18 5 16 15 45zM83 266
c0 -161 88 -245 262 -247v502c-178 -3 -262 -109 -262 -255z" />
    <glyph glyph-name="p.sc" horiz-adv-x="491" 
d="M239 224h-69v-194l79 -25v-5h-218v5l79 25l1 478l-76 27v5h238c123 0 214 -46 214 -144c0 -79 -67 -172 -248 -172zM241 526h-71v-284h55c136 0 199 46 199 142c0 86 -64 142 -183 142z" />
    <glyph glyph-name="thorn.sc" horiz-adv-x="524" 
d="M231 116h-61v-86l79 -25v-5h-218v5l79 25v480l-79 25v5h218v-5l-79 -25v-76h95c124 0 219 -48 219 -145c0 -91 -72 -173 -253 -173zM233 416h-63v-282h47c135 0 199 46 199 143c0 94 -63 139 -183 139z" />
    <glyph glyph-name="q.sc" horiz-adv-x="533" 
d="M191 -88h175c59 0 59 29 78 84h5l-1 -125l-2 -3h-338v5l184 119l-1 2c-7 -1 -13 -2 -18 -2c-164 0 -249 137 -249 277c0 206 180 278 236 278c164 0 249 -137 249 -277c0 -127 -69 -203 -134 -243l2 1l-186 -114v-2zM68 299c2 -137 86 -268 229 -267c85 1 170 55 167 209
c-3 145 -95 268 -229 267c-86 -1 -170 -54 -167 -209z" />
    <glyph glyph-name="r.sc" horiz-adv-x="533" 
d="M324 260l194 -255v-5h-170v5l81 27l-170 227l-89 1v-230l79 -25v-5h-218v5l79 25l1 478l-76 27v5h244c139 0 211 -41 211 -120c0 -72 -63 -123 -166 -160zM263 526h-93v-248h96c95 0 156 43 156 127c0 70 -40 121 -159 121z" />
    <glyph glyph-name="racute.sc" horiz-adv-x="533" 
d="M432 768v-6l-153 -175h-7l95 181h65zM324 260l194 -255v-5h-170v5l81 27l-170 227l-89 1v-230l79 -25v-5h-218v5l79 25l1 478l-76 27v5h244c139 0 211 -41 211 -120c0 -72 -63 -123 -166 -160zM263 526h-93v-248h96c95 0 156 43 156 127c0 70 -40 121 -159 121z" />
    <glyph glyph-name="rcaron.sc" horiz-adv-x="533" 
d="M393 776l-105 -189h-3l-109 189l3 6l103 -110h3l105 110zM324 260l194 -255v-5h-170v5l81 27l-170 227l-89 1v-230l79 -25v-5h-218v5l79 25l1 478l-76 27v5h244c139 0 211 -41 211 -120c0 -72 -63 -123 -166 -160zM263 526h-93v-248h96c95 0 156 43 156 127
c0 70 -40 121 -159 121z" />
    <glyph glyph-name="uni0157.sc" horiz-adv-x="533" 
d="M324 260l194 -255v-5h-170v5l81 27l-170 227l-89 1v-230l79 -25v-5h-218v5l79 25l1 478l-76 27v5h244c139 0 211 -41 211 -120c0 -72 -63 -123 -166 -160zM263 526h-93v-248h96c95 0 156 43 156 127c0 70 -40 121 -159 121zM285 -108c24 0 44 -17 44 -45
c0 -29 -21 -60 -73 -126h-6l35 83c-24 2 -45 20 -45 44c0 23 20 44 45 44z" />
    <glyph glyph-name="s.sc" horiz-adv-x="494" 
d="M215 322l71 -31c73 -33 167 -58 167 -150c0 -79 -69 -151 -201 -151c-82 0 -124 26 -188 35l-25 203l7 1c35 -184 166 -210 243 -210c100 0 132 41 132 86c0 72 -85 100 -154 130l-65 28c-56 24 -138 52 -138 143s85 139 178 139c62 0 116 -21 149 -47l27 46h6v-202h-5
c-34 106 -102 173 -214 173c-64 0 -114 -26 -114 -78c0 -62 74 -93 124 -115z" />
    <glyph glyph-name="sacute.sc" horiz-adv-x="494" 
d="M393 768v-6l-153 -175h-7l95 181h65zM215 322l71 -31c73 -33 167 -58 167 -150c0 -79 -69 -151 -201 -151c-82 0 -124 26 -188 35l-25 203l7 1c35 -184 166 -210 243 -210c100 0 132 41 132 86c0 72 -85 100 -154 130l-65 28c-56 24 -138 52 -138 143s85 139 178 139
c62 0 116 -21 149 -47l27 46h6v-202h-5c-34 106 -102 173 -214 173c-64 0 -114 -26 -114 -78c0 -62 74 -93 124 -115z" />
    <glyph glyph-name="scaron.sc" horiz-adv-x="494" 
d="M354 776l-105 -189h-3l-109 189l3 6l103 -110h3l105 110zM215 322l71 -31c73 -33 167 -58 167 -150c0 -79 -69 -151 -201 -151c-82 0 -124 26 -188 35l-25 203l7 1c35 -184 166 -210 243 -210c100 0 132 41 132 86c0 72 -85 100 -154 130l-65 28c-56 24 -138 52 -138 143
s85 139 178 139c62 0 116 -21 149 -47l27 46h6v-202h-5c-34 106 -102 173 -214 173c-64 0 -114 -26 -114 -78c0 -62 74 -93 124 -115z" />
    <glyph glyph-name="scedilla.sc" horiz-adv-x="494" 
d="M453 141c0 -79 -69 -151 -200 -151l-30 -54c49 -11 86 -40 86 -83c0 -44 -39 -87 -120 -110l-1 5c60 19 77 47 77 77c0 37 -32 58 -81 62l-1 6l57 97c-74 3 -115 26 -176 35l-25 203l7 1c35 -184 166 -210 243 -210c100 0 132 41 132 86c0 72 -85 100 -154 130l-65 28
c-56 24 -138 52 -138 143s85 139 178 139c62 0 116 -21 149 -47l27 46h6v-202h-5c-34 106 -102 173 -214 173c-64 0 -114 -26 -114 -78c0 -62 74 -93 124 -115l71 -31c73 -33 167 -58 167 -150z" />
    <glyph glyph-name="scircumflex.sc" horiz-adv-x="494" 
d="M246 694h-3l-103 -110l-3 6l109 189h3l105 -189l-3 -6zM215 322l71 -31c73 -33 167 -58 167 -150c0 -79 -69 -151 -201 -151c-82 0 -124 26 -188 35l-25 203l7 1c35 -184 166 -210 243 -210c100 0 132 41 132 86c0 72 -85 100 -154 130l-65 28c-56 24 -138 52 -138 143
s85 139 178 139c62 0 116 -21 149 -47l27 46h6v-202h-5c-34 106 -102 173 -214 173c-64 0 -114 -26 -114 -78c0 -62 74 -93 124 -115z" />
    <glyph glyph-name="uni0219.sc" horiz-adv-x="494" 
d="M215 322l71 -31c73 -33 167 -58 167 -150c0 -79 -69 -151 -201 -151c-82 0 -124 26 -188 35l-25 203l7 1c35 -184 166 -210 243 -210c100 0 132 41 132 86c0 72 -85 100 -154 130l-65 28c-56 24 -138 52 -138 143s85 139 178 139c62 0 116 -21 149 -47l27 46h6v-202h-5
c-34 106 -102 173 -214 173c-64 0 -114 -26 -114 -78c0 -62 74 -93 124 -115zM246 -108c24 0 44 -17 44 -45c0 -29 -21 -60 -73 -126h-6l35 83c-24 2 -45 20 -45 44c0 23 20 44 45 44z" />
    <glyph glyph-name="germandbls.sc" horiz-adv-x="554" 
d="M386 366c0 -82 145 -116 145 -239c0 -69 -68 -136 -146 -136c-64 0 -99 19 -159 32l-23 207l6 1c25 -186 133 -219 192 -219c52 0 90 33 88 87c-3 96 -146 141 -146 237c0 45 24 73 111 144c-34 29 -79 55 -151 55c-88 0 -157 -47 -157 -176v-359h-135v5l75 27v323
c0 147 108 198 245 198c56 0 126 -11 189 -40v-2l-49 -39c-46 -37 -85 -65 -85 -106z" />
    <glyph glyph-name="j.ss01.sc" horiz-adv-x="258" 
d="M-24 -202l-4 6c52 43 131 123 131 286v420l-79 25v5h218v-5l-79 -25v-420c0 -184 -135 -251 -187 -292z" />
    <glyph glyph-name="t.sc" horiz-adv-x="460" 
d="M445 540v-170h-6c-50 145 -41 152 -116 152h-63v-492l79 -25v-5h-218v5l79 25v492h-63c-74 0 -66 -4 -116 -152h-6v170h430z" />
    <glyph glyph-name="tbar.sc" horiz-adv-x="460" 
d="M445 540v-170h-6c-50 145 -41 152 -116 152h-63v-243h122v-18h-122v-231l79 -25v-5h-218v5l79 25v231h-119v18h119v243h-63c-74 0 -66 -4 -116 -152h-6v170h430z" />
    <glyph glyph-name="tcaron.sc" horiz-adv-x="460" 
d="M340 776l-105 -189h-3l-109 189l3 6l103 -110h3l105 110zM445 540v-170h-6c-50 145 -41 152 -116 152h-63v-492l79 -25v-5h-218v5l79 25v492h-63c-74 0 -66 -4 -116 -152h-6v170h430z" />
    <glyph glyph-name="uni0163.sc" horiz-adv-x="460" 
d="M445 540v-170h-6c-50 145 -41 152 -116 152h-63v-492l79 -25v-5h-94l-36 -64c49 -11 86 -40 86 -83c0 -44 -39 -87 -120 -110l-1 5c60 19 77 47 77 77c0 37 -32 58 -81 62l-1 6l62 107h-110v5l79 25v492h-63c-74 0 -66 -4 -116 -152h-6v170h430z" />
    <glyph glyph-name="uni021B.sc" horiz-adv-x="460" 
d="M445 540v-170h-6c-50 145 -41 152 -116 152h-63v-492l79 -25v-5h-218v5l79 25v492h-63c-74 0 -66 -4 -116 -152h-6v170h430zM232 -108c24 0 44 -17 44 -45c0 -29 -21 -60 -73 -126h-6l35 83c-24 2 -45 20 -45 44c0 23 20 44 45 44z" />
    <glyph glyph-name="u.sc" horiz-adv-x="579" 
d="M486 540l-1 -508l76 -27v-5h-135v64c-57 -39 -131 -72 -153 -72c-114 0 -186 52 -186 163v353l-75 27v5h135v-376c0 -99 67 -129 143 -129c62 0 96 22 136 47l1 426l-75 27v5h134z" />
    <glyph glyph-name="uacute.sc" horiz-adv-x="579" 
d="M430 768v-6l-153 -175h-7l95 181h65zM486 540l-1 -508l76 -27v-5h-135v64c-57 -39 -131 -72 -153 -72c-114 0 -186 52 -186 163v353l-75 27v5h135v-376c0 -99 67 -129 143 -129c62 0 96 22 136 47l1 426l-75 27v5h134z" />
    <glyph glyph-name="ubreve.sc" horiz-adv-x="579" 
d="M283 595c-58 0 -109 63 -109 167h7c0 -74 54 -115 102 -115s102 41 102 115h7c0 -104 -51 -167 -109 -167zM486 540l-1 -508l76 -27v-5h-135v64c-57 -39 -131 -72 -153 -72c-114 0 -186 52 -186 163v353l-75 27v5h135v-376c0 -99 67 -129 143 -129c62 0 96 22 136 47
l1 426l-75 27v5h134z" />
    <glyph glyph-name="ucircumflex.sc" horiz-adv-x="579" 
d="M283 694h-3l-103 -110l-3 6l109 189h3l105 -189l-3 -6zM486 540l-1 -508l76 -27v-5h-135v64c-57 -39 -131 -72 -153 -72c-114 0 -186 52 -186 163v353l-75 27v5h135v-376c0 -99 67 -129 143 -129c62 0 96 22 136 47l1 426l-75 27v5h134z" />
    <glyph glyph-name="udieresis.sc" horiz-adv-x="579" 
d="M192 625c-21 0 -37 16 -37 37c0 19 16 36 37 36c20 0 36 -17 36 -36c0 -21 -16 -37 -36 -37zM374 625c-21 0 -37 16 -37 37c0 19 16 36 37 36c20 0 36 -17 36 -36c0 -21 -16 -37 -36 -37zM486 540l-1 -508l76 -27v-5h-135v64c-57 -39 -131 -72 -153 -72
c-114 0 -186 52 -186 163v353l-75 27v5h135v-376c0 -99 67 -129 143 -129c62 0 96 22 136 47l1 426l-75 27v5h134z" />
    <glyph glyph-name="uni1EE5.sc" horiz-adv-x="579" 
d="M486 540l-1 -508l76 -27v-5h-135v64c-57 -39 -131 -72 -153 -72c-114 0 -186 52 -186 163v353l-75 27v5h135v-376c0 -99 67 -129 143 -129c62 0 96 22 136 47l1 426l-75 27v5h134zM283 -95c25 0 45 -21 45 -45c0 -26 -20 -46 -45 -46c-26 0 -46 20 -46 46
c0 24 20 45 46 45z" />
    <glyph glyph-name="ugrave.sc" horiz-adv-x="579" 
d="M193 768l95 -181h-7l-153 175v6h65zM486 540l-1 -508l76 -27v-5h-135v64c-57 -39 -131 -72 -153 -72c-114 0 -186 52 -186 163v353l-75 27v5h135v-376c0 -99 67 -129 143 -129c62 0 96 22 136 47l1 426l-75 27v5h134z" />
    <glyph glyph-name="uhungarumlaut.sc" horiz-adv-x="579" 
d="M356 768v-6l-121 -175h-5l74 181h52zM456 762l-121 -175h-5l74 181h52v-6zM486 540l-1 -508l76 -27v-5h-135v64c-57 -39 -131 -72 -153 -72c-114 0 -186 52 -186 163v353l-75 27v5h135v-376c0 -99 67 -129 143 -129c62 0 96 22 136 47l1 426l-75 27v5h134z" />
    <glyph glyph-name="umacron.sc" horiz-adv-x="579" 
d="M132 648h301v-30h-301v30zM486 540l-1 -508l76 -27v-5h-135v64c-57 -39 -131 -72 -153 -72c-114 0 -186 52 -186 163v353l-75 27v5h135v-376c0 -99 67 -129 143 -129c62 0 96 22 136 47l1 426l-75 27v5h134z" />
    <glyph glyph-name="uogonek.sc" horiz-adv-x="579" 
d="M561 5v-5h-122c-53 -84 -83 -214 7 -214c25 0 51 20 71 37l5 -4c-45 -46 -86 -74 -99 -74c-22 0 -83 9 -83 71c0 54 45 113 86 188v60c-57 -39 -131 -72 -153 -72c-114 0 -186 52 -186 163v353l-75 27v5h135v-376c0 -99 67 -129 143 -129c62 0 96 22 136 47l1 426l-75 27
v5h134l-1 -508z" />
    <glyph glyph-name="uring.sc" horiz-adv-x="579" 
d="M283 592c-53 0 -94 42 -94 94s41 94 94 94c52 0 94 -42 94 -94s-42 -94 -94 -94zM283 763c-42 0 -75 -34 -75 -77s33 -77 75 -77s75 34 75 77s-33 77 -75 77zM486 540l-1 -508l76 -27v-5h-135v64c-57 -39 -131 -72 -153 -72c-114 0 -186 52 -186 163v353l-75 27v5h135
v-376c0 -99 67 -129 143 -129c62 0 96 22 136 47l1 426l-75 27v5h134z" />
    <glyph glyph-name="utilde.sc" horiz-adv-x="579" 
d="M207 659c-20 0 -48 -2 -82 -57l-4 3c29 60 54 101 96 101c49 0 92 -47 140 -47c20 0 49 0 84 58l4 -3c-28 -61 -54 -102 -96 -102c-51 0 -99 47 -142 47zM486 540l-1 -508l76 -27v-5h-135v64c-57 -39 -131 -72 -153 -72c-114 0 -186 52 -186 163v353l-75 27v5h135v-376
c0 -99 67 -129 143 -129c62 0 96 22 136 47l1 426l-75 27v5h134z" />
    <glyph glyph-name="v.sc" horiz-adv-x="458" 
d="M313 535v5h141v-5l-223 -545h-6l-224 545v5h154v-5l-78 -27l170 -414h6l110 271c53 131 31 145 -50 170z" />
    <glyph glyph-name="w.sc" horiz-adv-x="602" 
d="M457 535v5h141v-5l-179 -546h-5l-106 318h-5l-107 -318h-5l-190 546v5h147v-5l-78 -27l141 -403h5l66 205c21 65 18 76 -68 103v5h202v-5l-78 -27l94 -281h6l97 301c24 76 9 101 -78 129z" />
    <glyph glyph-name="wacute.sc" horiz-adv-x="602" 
d="M460 768v-6l-153 -175h-7l95 181h65zM457 535v5h141v-5l-179 -546h-5l-106 318h-5l-107 -318h-5l-190 546v5h147v-5l-78 -27l141 -403h5l66 205c21 65 18 76 -68 103v5h202v-5l-78 -27l94 -281h6l97 301c24 76 9 101 -78 129z" />
    <glyph glyph-name="wcircumflex.sc" horiz-adv-x="602" 
d="M313 694h-3l-103 -110l-3 6l109 189h3l105 -189l-3 -6zM457 535v5h141v-5l-179 -546h-5l-106 318h-5l-107 -318h-5l-190 546v5h147v-5l-78 -27l141 -403h5l66 205c21 65 18 76 -68 103v5h202v-5l-78 -27l94 -281h6l97 301c24 76 9 101 -78 129z" />
    <glyph glyph-name="wdieresis.sc" horiz-adv-x="602" 
d="M222 625c-21 0 -37 16 -37 37c0 19 16 36 37 36c20 0 36 -17 36 -36c0 -21 -16 -37 -36 -37zM404 625c-21 0 -37 16 -37 37c0 19 16 36 37 36c20 0 36 -17 36 -36c0 -21 -16 -37 -36 -37zM457 535v5h141v-5l-179 -546h-5l-106 318h-5l-107 -318h-5l-190 546v5h147v-5
l-78 -27l141 -403h5l66 205c21 65 18 76 -68 103v5h202v-5l-78 -27l94 -281h6l97 301c24 76 9 101 -78 129z" />
    <glyph glyph-name="wgrave.sc" horiz-adv-x="602" 
d="M223 768l95 -181h-7l-153 175v6h65zM457 535v5h141v-5l-179 -546h-5l-106 318h-5l-107 -318h-5l-190 546v5h147v-5l-78 -27l141 -403h5l66 205c21 65 18 76 -68 103v5h202v-5l-78 -27l94 -281h6l97 301c24 76 9 101 -78 129z" />
    <glyph glyph-name="x.sc" horiz-adv-x="479" 
d="M451 535l-187 -246l205 -284v-5h-167v5l81 27l-159 218l-94 -125c-43 -57 -60 -91 46 -120v-5h-159v5l196 260l-197 270v5h170v-5l-81 -27l148 -204l85 111c40 53 72 93 -29 120v5h142v-5z" />
    <glyph glyph-name="y.sc" horiz-adv-x="429" 
d="M436 540v-5l-191 -316v-189l79 -25v-5h-218v5l79 25v191l-192 314v5h162v-5l-81 -27l159 -265l2 -4l3 1l80 132c65 107 72 141 -24 163v5h142z" />
    <glyph glyph-name="yacute.sc" horiz-adv-x="429" 
d="M367 768v-6l-153 -175h-7l95 181h65zM436 540v-5l-191 -316v-189l79 -25v-5h-218v5l79 25v191l-192 314v5h162v-5l-81 -27l159 -265l2 -4l3 1l80 132c65 107 72 141 -24 163v5h142z" />
    <glyph glyph-name="ycircumflex.sc" horiz-adv-x="429" 
d="M220 694h-3l-103 -110l-3 6l109 189h3l105 -189l-3 -6zM436 540v-5l-191 -316v-189l79 -25v-5h-218v5l79 25v191l-192 314v5h162v-5l-81 -27l159 -265l2 -4l3 1l80 132c65 107 72 141 -24 163v5h142z" />
    <glyph glyph-name="ydieresis.sc" horiz-adv-x="429" 
d="M129 625c-21 0 -37 16 -37 37c0 19 16 36 37 36c20 0 36 -17 36 -36c0 -21 -16 -37 -36 -37zM311 625c-21 0 -37 16 -37 37c0 19 16 36 37 36c20 0 36 -17 36 -36c0 -21 -16 -37 -36 -37zM436 540v-5l-191 -316v-189l79 -25v-5h-218v5l79 25v191l-192 314v5h162v-5
l-81 -27l159 -265l2 -4l3 1l80 132c65 107 72 141 -24 163v5h142z" />
    <glyph glyph-name="ygrave.sc" horiz-adv-x="429" 
d="M130 768l95 -181h-7l-153 175v6h65zM436 540v-5l-191 -316v-189l79 -25v-5h-218v5l79 25v191l-192 314v5h162v-5l-81 -27l159 -265l2 -4l3 1l80 132c65 107 72 141 -24 163v5h142z" />
    <glyph glyph-name="uni0233.sc" horiz-adv-x="429" 
d="M69 648h301v-30h-301v30zM436 540v-5l-191 -316v-189l79 -25v-5h-218v5l79 25v191l-192 314v5h162v-5l-81 -27l159 -265l2 -4l3 1l80 132c65 107 72 141 -24 163v5h142z" />
    <glyph glyph-name="uni1EF9.sc" horiz-adv-x="429" 
d="M144 659c-20 0 -48 -2 -82 -57l-4 3c29 60 54 101 96 101c49 0 92 -47 140 -47c20 0 49 0 84 58l4 -3c-28 -61 -54 -102 -96 -102c-51 0 -99 47 -142 47zM436 540v-5l-191 -316v-189l79 -25v-5h-218v5l79 25v191l-192 314v5h162v-5l-81 -27l159 -265l2 -4l3 1l80 132
c65 107 72 141 -24 163v5h142z" />
    <glyph glyph-name="z.sc" horiz-adv-x="482" 
d="M433 170h6v-170h-402v5l324 517h-184c-68 0 -69 -3 -104 -106c-3 -10 -15 -44 -16 -46h-5v170h383v-5l-321 -517h200c66 0 68 1 104 106c4 11 1 2 15 46z" />
    <glyph glyph-name="zacute.sc" horiz-adv-x="482" 
d="M386 768v-6l-153 -175h-7l95 181h65zM433 170h6v-170h-402v5l324 517h-184c-68 0 -69 -3 -104 -106c-3 -10 -15 -44 -16 -46h-5v170h383v-5l-321 -517h200c66 0 68 1 104 106c4 11 1 2 15 46z" />
    <glyph glyph-name="zcaron.sc" horiz-adv-x="482" 
d="M347 776l-105 -189h-3l-109 189l3 6l103 -110h3l105 110zM433 170h6v-170h-402v5l324 517h-184c-68 0 -69 -3 -104 -106c-3 -10 -15 -44 -16 -46h-5v170h383v-5l-321 -517h200c66 0 68 1 104 106c4 11 1 2 15 46z" />
    <glyph glyph-name="zdotaccent.sc" horiz-adv-x="482" 
d="M239 649c-26 0 -46 20 -46 46c0 24 20 45 46 45c25 0 45 -21 45 -45c0 -26 -20 -46 -45 -46zM433 170h6v-170h-402v5l324 517h-184c-68 0 -69 -3 -104 -106c-3 -10 -15 -44 -16 -46h-5v170h383v-5l-321 -517h200c66 0 68 1 104 106c4 11 1 2 15 46z" />
    <glyph glyph-name="ordfeminine" unicode="&#xaa;" horiz-adv-x="423" 
d="M320 291l93 52l3 -4c-38 -34 -79 -92 -106 -92c-13 0 -29 5 -43 94c-46 -68 -83 -97 -139 -97c-55 0 -82 29 -82 67c0 70 93 134 166 183l57 38c0 63 -7 124 -75 124c-64 0 -98 -54 -92 -130l-68 -34l-2 2c55 149 151 199 184 199c93 0 111 -69 110 -125l-6 -226v-51z
M157 279c30 0 69 23 110 80l2 154c-111 -69 -161 -123 -161 -178c0 -35 21 -56 49 -56z" />
    <glyph glyph-name="ordmasculine" unicode="&#xba;" horiz-adv-x="409" 
d="M209 244c-89 0 -168 66 -168 204c0 185 122 241 159 241c89 0 168 -65 168 -203c0 -185 -122 -242 -159 -242zM240 283c28 0 91 33 87 159c-3 112 -54 211 -158 209c-25 0 -91 -29 -87 -159c3 -118 57 -211 158 -209z" />
    <glyph glyph-name="uni0394" unicode="&#x394;" horiz-adv-x="499" 
d="M281 694l13 -57l189 -631v-6h-467v6l196 655l63 33h6zM227 635l-174 -584h354l-177 584h-3z" />
    <glyph glyph-name="uni03A9" unicode="&#x3a9;" horiz-adv-x="669" 
d="M399 51h113c56 0 66 29 84 106h6v-157h-223v140c104 22 169 128 169 266c0 148 -85 258 -212 258c-128 0 -213 -110 -213 -258c0 -134 60 -236 161 -264v-142h-223v157h5c18 -81 32 -106 86 -106h113v75c-126 30 -206 134 -206 270c0 163 114 286 277 286
c162 0 276 -123 276 -286c0 -139 -85 -246 -213 -273v-72z" />
    <glyph glyph-name="uni03BC" unicode="&#x3bc;" horiz-adv-x="516" 
d="M416 40l117 65l3 -5c-43 -35 -95 -108 -126 -108c-13 0 -30 4 -48 100c-56 -68 -111 -102 -129 -102c-57 0 -113 19 -137 87h-4l52 -321v-7h-60v741l-90 26v6h146v-365c0 -85 52 -122 108 -122c42 0 83 43 112 82v373l-90 26v6h146v-482z" />
    <glyph glyph-name="pi" unicode="&#x3c0;" horiz-adv-x="496" 
d="M370 41l117 65l3 -5c-43 -35 -95 -108 -126 -108c-14 0 -31 4 -50 113v365h-128c-2 -289 -34 -379 -96 -477l-64 45l1 4c87 69 140 262 146 428h-28c-62 1 -117 -53 -145 -83l-7 4c29 35 75 129 152 130h338v-51h-113v-430z" />
    <glyph glyph-name="zero" unicode="0" horiz-adv-x="513" 
d="M266 -10c-161 0 -228 143 -228 334c0 257 157 360 209 360c164 0 228 -146 228 -344c-1 -245 -158 -350 -209 -350zM276 37c75 0 164 72 161 279c0 165 -81 319 -209 319c-67 0 -152 -72 -152 -277c0 -162 78 -321 200 -321z" />
    <glyph glyph-name="one" unicode="1" horiz-adv-x="276" 
d="M175 633l-1 -597l87 -30v-6h-234v6l87 30v597h-95v6l150 42h6v-48z" />
    <glyph glyph-name="two" unicode="2" horiz-adv-x="465" 
d="M416 175h6v-170l-5 -5h-398l1 1v5l205 247c62 74 113 157 113 248c0 69 -30 140 -127 140c-74 0 -114 -54 -114 -159l-76 -43l-3 2c52 151 160 247 213 247c145 0 168 -92 168 -146c0 -79 -49 -165 -158 -297l-153 -186v-4h243c56 0 58 21 85 120z" />
    <glyph glyph-name="three" unicode="3" horiz-adv-x="435" 
d="M410 675v-6l-228 -251l2 -3c139 34 218 -28 218 -131c0 -112 -119 -270 -364 -287v61l4 4h92c93 0 215 31 215 172c0 156 -126 183 -223 131l-6 9l219 246h-227c-33 0 -43 -14 -63 -111h-6v163l3 3h364z" />
    <glyph glyph-name="four" unicode="4" horiz-adv-x="447" 
d="M448 178v-18h-143v-124l87 -30v-6h-234v6l87 30l1 124h-246v4l260 511h70v-6l-299 -491h215l1 180l51 73h7v-253h143z" />
    <glyph glyph-name="five" unicode="5" horiz-adv-x="416" 
d="M382 622l-3 -2h-267l-34 -148l105 -42c138 -55 193 -90 193 -181c0 -90 -85 -236 -349 -252v61l4 4h108c132 0 189 61 189 147c0 72 -36 115 -160 165l-122 49l58 252h176c51 0 75 1 95 54h6z" />
    <glyph glyph-name="six" unicode="6" horiz-adv-x="452" 
d="M240 -10c-113 0 -213 95 -213 261c0 245 210 387 303 444l5 -7c-100 -57 -199 -191 -226 -298l3 -2c31 45 89 71 118 71c102 0 202 -59 202 -217c0 -175 -146 -252 -192 -252zM255 28c55 0 130 29 130 170c0 123 -74 221 -170 221c-95 0 -130 -77 -130 -170
c0 -123 74 -221 170 -221z" />
    <glyph glyph-name="seven" unicode="7" horiz-adv-x="407" 
d="M18 672l3 3h380v-3l-26 -60l-208 -612h-70v6l258 614h-268c-33 0 -43 -14 -63 -111h-6v163z" />
    <glyph glyph-name="eight" unicode="8" horiz-adv-x="469" 
d="M287 347c74 -35 151 -74 151 -160c0 -119 -153 -198 -209 -198c-117 0 -199 55 -199 151c0 105 98 175 140 198c-61 33 -110 75 -110 153c0 125 131 194 181 194c108 0 174 -64 174 -151c0 -88 -68 -145 -128 -187zM96 526c0 -82 65 -119 139 -154l36 -17h1
c55 44 87 91 87 149c0 81 -55 135 -139 135c-72 0 -124 -41 -124 -113zM249 38c96 0 148 56 148 116c0 74 -77 112 -149 146l-32 15l-32 15l2 -1c-69 -36 -101 -89 -101 -148c0 -87 66 -143 164 -143z" />
    <glyph glyph-name="nine" unicode="9" horiz-adv-x="452" 
d="M212 684c113 0 213 -95 213 -261c0 -245 -210 -387 -303 -444l-5 7c100 57 199 191 226 298l-3 2c-31 -45 -89 -71 -118 -71c-102 0 -202 59 -202 217c0 175 146 252 192 252zM197 646c-55 0 -130 -29 -130 -170c0 -123 74 -221 170 -221c95 0 130 77 130 170
c0 123 -74 221 -170 221z" />
    <glyph glyph-name="uni24FF" unicode="&#x24ff;" 
d="M498 -156c-261 0 -458 196 -458 453c0 261 197 458 458 458c264 0 462 -197 462 -458c0 -259 -198 -453 -462 -453zM507 16c43 0 173 87 173 286c0 183 -66 282 -188 282c-43 0 -172 -85 -172 -295c0 -174 67 -273 187 -273zM358 317c0 163 66 219 119 219
c100 0 163 -119 164 -250c2 -169 -64 -224 -125 -224c-96 0 -158 125 -158 255z" />
    <glyph glyph-name="uni2776" unicode="&#x2776;" 
d="M498 -156c-261 0 -458 196 -458 453c0 261 197 458 458 458c264 0 462 -197 462 -458c0 -259 -198 -453 -462 -453zM405 33v-12h197v12l-70 24v521h-9l-124 -34v-12h76v-475z" />
    <glyph glyph-name="uni2777" unicode="&#x2777;" 
d="M498 -156c-261 0 -458 196 -458 453c0 261 197 458 458 458c264 0 462 -197 462 -458c0 -259 -198 -453 -462 -453zM335 29l-2 -11h327l7 6v143h-12c-23 -83 -24 -97 -66 -97h-190l121 147c91 111 128 180 128 242c0 44 -19 122 -139 122c-45 0 -134 -79 -177 -205l7 -4
l65 37c0 83 30 126 88 126c64 0 99 -39 99 -109c0 -62 -29 -124 -90 -197z" />
    <glyph glyph-name="uni2778" unicode="&#x2778;" 
d="M498 -156c-261 0 -458 196 -458 453c0 261 197 458 458 458c264 0 462 -197 462 -458c0 -259 -198 -453 -462 -453zM345 77v-55c203 13 302 144 302 236c0 90 -69 134 -173 111l180 198v11h-300l-4 -5v-137h12c16 78 22 89 47 89h174l-172 -194l8 -13
c78 44 177 24 177 -100c0 -111 -95 -135 -169 -135h-76z" />
    <glyph glyph-name="uni2779" unicode="&#x2779;" 
d="M498 -156c-261 0 -458 196 -458 453c0 261 197 458 458 458c264 0 462 -197 462 -458c0 -259 -198 -453 -462 -453zM443 35v-12h197v12l-70 24v93h115v23h-115v204h-12l-43 -62l-1 -142h-162l238 391v10h-63l-211 -416v-8h198l-1 -93z" />
    <glyph glyph-name="uni277A" unicode="&#x277a;" 
d="M498 -156c-261 0 -458 196 -458 453c0 261 197 458 458 458c264 0 462 -197 462 -458c0 -259 -198 -453 -462 -453zM352 55v-55c219 12 290 134 290 208c0 76 -47 105 -158 150l-82 32l26 113h214l5 4l-1 92h-12c-15 -43 -32 -43 -73 -43h-146l-48 -210l102 -41
c95 -38 126 -71 126 -129c0 -74 -52 -115 -148 -115h-89z" />
    <glyph glyph-name="uni277B" unicode="&#x277b;" 
d="M498 -156c-261 0 -458 196 -458 453c0 261 197 458 458 458c264 0 462 -197 462 -458c0 -259 -198 -453 -462 -453zM508 11c38 0 159 64 159 207c0 130 -84 179 -167 179c-22 0 -64 -17 -90 -48c25 85 104 187 181 228l-9 12c-74 -45 -250 -161 -250 -363
c0 -126 74 -215 176 -215zM387 224c0 87 36 133 101 133c74 0 133 -77 133 -174c0 -86 -36 -133 -101 -133c-74 0 -133 76 -133 174z" />
    <glyph glyph-name="uni277C" unicode="&#x277c;" 
d="M498 -156c-261 0 -458 196 -458 453c0 261 197 458 458 458c264 0 462 -197 462 -458c0 -259 -198 -453 -462 -453zM404 33v-10h64l168 496l22 49v8h-313l-4 -5v-137h12c16 78 22 89 47 89h211z" />
    <glyph glyph-name="uni277D" unicode="&#x277d;" 
d="M498 -156c-261 0 -458 196 -458 453c0 261 197 458 458 458c264 0 462 -197 462 -458c0 -259 -198 -453 -462 -453zM496 15c47 0 173 65 173 164c0 69 -60 102 -118 130c48 33 99 79 99 150c0 75 -58 126 -144 126c-41 0 -150 -58 -150 -161c0 -62 38 -97 84 -123
c-36 -22 -108 -78 -108 -160c0 -77 64 -126 164 -126zM530 319l-27 13c-60 28 -110 57 -110 120c0 54 38 88 96 88c65 0 108 -42 108 -105c0 -41 -20 -78 -67 -116zM384 174c0 48 27 87 78 115l48 -23c58 -27 118 -57 118 -114c0 -52 -47 -89 -115 -89
c-78 0 -129 44 -129 111z" />
    <glyph glyph-name="uni277E" unicode="&#x277e;" 
d="M498 -156c-261 0 -458 196 -458 453c0 261 197 458 458 458c264 0 462 -197 462 -458c0 -259 -198 -453 -462 -453zM408 22l9 -12c73 44 250 161 250 363c0 126 -74 215 -176 215c-38 0 -159 -64 -159 -207c0 -130 83 -180 167 -180c21 0 64 18 91 49
c-26 -83 -106 -186 -182 -228zM378 416c0 86 35 133 101 133c74 0 133 -76 133 -174c0 -87 -37 -133 -101 -133c-75 0 -133 76 -133 174z" />
    <glyph glyph-name="uni277F" unicode="&#x277f;" 
d="M498 -156c-261 0 -458 196 -458 453c0 261 197 458 458 458c264 0 462 -197 462 -458c0 -259 -198 -453 -462 -453zM602 16c43 0 173 87 173 286c0 183 -66 282 -188 282c-43 0 -172 -85 -172 -295c0 -174 67 -273 187 -273zM231 36v-12h197v12l-70 24v521h-9l-124 -34
v-12h76v-475zM453 317c0 163 66 219 119 219c100 0 163 -119 164 -250c2 -169 -64 -224 -125 -224c-96 0 -158 125 -158 255z" />
    <glyph glyph-name="uni24EB" unicode="&#x24eb;" 
d="M498 -156c-261 0 -458 196 -458 453c0 261 197 458 458 458c264 0 462 -197 462 -458c0 -259 -198 -453 -462 -453zM278 33v-12h197v12l-70 24v521h-9l-124 -34v-12h76v-475zM531 33v-12h197v12l-70 24v521h-9l-124 -34v-12h76v-475z" />
    <glyph glyph-name="uni24EC" unicode="&#x24ec;" 
d="M498 -156c-261 0 -458 196 -458 453c0 261 197 458 458 458c264 0 462 -197 462 -458c0 -259 -198 -453 -462 -453zM464 29l-2 -11h327l7 6v143h-12c-23 -83 -24 -97 -66 -97h-190l121 147c91 111 128 180 128 242c0 44 -19 122 -139 122c-45 0 -134 -79 -177 -205l7 -4
l65 37c0 83 30 126 88 126c64 0 99 -39 99 -109c0 -62 -29 -124 -90 -197zM210 30v-12h197v12l-70 24v521h-9l-124 -34v-12h76v-475z" />
    <glyph glyph-name="uni24ED" unicode="&#x24ed;" 
d="M498 -156c-261 0 -458 196 -458 453c0 261 197 458 458 458c264 0 462 -197 462 -458c0 -259 -198 -453 -462 -453zM222 34v-12h197v12l-70 24v521h-9l-124 -34v-12h76v-475zM475 74v-55c203 13 302 144 302 236c0 90 -69 134 -173 111l180 198v11h-300l-4 -5v-137h12
c16 78 22 89 47 89h174l-172 -194l8 -13c78 44 177 24 177 -100c0 -111 -95 -135 -169 -135h-76z" />
    <glyph glyph-name="uni24EE" unicode="&#x24ee;" 
d="M498 -156c-261 0 -458 196 -458 453c0 261 197 458 458 458c264 0 462 -197 462 -458c0 -259 -198 -453 -462 -453zM226 33v-12h197v12l-70 24v521h-9l-124 -34v-12h76v-475zM537 33v-12h197v12l-70 24v93h115v23h-115v204h-12l-43 -62l-1 -142h-162l238 391v10h-63
l-211 -416v-8h198l-1 -93z" />
    <glyph glyph-name="uni24EF" unicode="&#x24ef;" 
d="M498 -156c-261 0 -458 196 -458 453c0 261 197 458 458 458c264 0 462 -197 462 -458c0 -259 -198 -453 -462 -453zM482 55v-55c219 12 290 134 290 208c0 78 -52 109 -158 150l-82 32l26 113h214l5 4l-1 92h-12c-15 -43 -32 -43 -73 -43h-146l-48 -210l102 -41
c95 -38 126 -71 126 -129c0 -74 -52 -115 -148 -115h-89zM229 15v-12h197v12l-70 24v521h-9l-124 -34v-12h76v-475z" />
    <glyph glyph-name="uni24F0" unicode="&#x24f0;" 
d="M498 -156c-261 0 -458 196 -458 453c0 261 197 458 458 458c264 0 462 -197 462 -458c0 -259 -198 -453 -462 -453zM603 11c38 0 159 64 159 207c0 130 -84 179 -167 179c-22 0 -64 -17 -90 -48c25 85 104 187 181 228l-9 12c-74 -45 -250 -161 -250 -363
c0 -126 74 -215 176 -215zM244 31v-12h197v12l-70 24v521h-9l-124 -34v-12h76v-475zM482 224c0 87 36 133 101 133c74 0 133 -77 133 -174c0 -86 -36 -133 -101 -133c-74 0 -133 76 -133 174z" />
    <glyph glyph-name="uni24F1" unicode="&#x24f1;" 
d="M498 -156c-261 0 -458 196 -458 453c0 261 197 458 458 458c264 0 462 -197 462 -458c0 -259 -198 -453 -462 -453zM250 33v-12h197v12l-70 24v521h-9l-124 -34v-12h76v-475zM503 31v-10h64l168 496l22 49v8h-313l-4 -5v-137h12c16 78 22 89 47 89h211z" />
    <glyph glyph-name="uni24F2" unicode="&#x24f2;" 
d="M498 -156c-261 0 -458 196 -458 453c0 261 197 458 458 458c264 0 462 -197 462 -458c0 -259 -198 -453 -462 -453zM590 15c47 0 173 65 173 164c0 69 -60 102 -118 130c48 33 99 79 99 150c0 75 -58 126 -144 126c-41 0 -150 -58 -150 -161c0 -62 38 -97 84 -123
c-36 -22 -108 -78 -108 -160c0 -77 64 -126 164 -126zM243 36v-12h197v12l-70 24v521h-9l-124 -34v-12h76v-475zM624 319l-27 13c-60 28 -110 57 -110 120c0 54 38 88 96 88c65 0 108 -42 108 -105c0 -41 -20 -78 -67 -116zM478 174c0 48 27 87 78 115l48 -23
c58 -27 118 -57 118 -114c0 -52 -47 -89 -115 -89c-78 0 -129 44 -129 111z" />
    <glyph glyph-name="uni24F3" unicode="&#x24f3;" 
d="M498 -156c-261 0 -458 196 -458 453c0 261 197 458 458 458c264 0 462 -197 462 -458c0 -259 -198 -453 -462 -453zM504 22l9 -12c73 44 250 161 250 363c0 126 -74 215 -176 215c-38 0 -159 -64 -159 -207c0 -130 83 -180 167 -180c21 0 64 18 91 49
c-26 -83 -106 -186 -182 -228zM243 40v-12h197v12l-70 24v521h-9l-124 -34v-12h76v-475zM474 416c0 86 35 133 101 133c74 0 133 -76 133 -174c0 -87 -37 -133 -101 -133c-75 0 -133 76 -133 174z" />
    <glyph glyph-name="uni24F4" unicode="&#x24f4;" 
d="M498 -156c-261 0 -458 196 -458 453c0 261 197 458 458 458c264 0 462 -197 462 -458c0 -259 -198 -453 -462 -453zM134 33l-2 -11h327l7 6v143h-12c-23 -83 -24 -97 -66 -97h-190l121 147c91 111 128 180 128 242c0 44 -19 122 -139 122c-45 0 -134 -79 -177 -205l7 -4
l65 37c0 83 30 126 88 126c64 0 99 -39 99 -109c0 -62 -29 -124 -90 -197zM696 14c43 0 172 87 173 286c0 183 -66 282 -188 282c-43 0 -172 -85 -172 -295c0 -174 67 -273 187 -273zM547 315c0 163 66 219 119 219c101 0 164 -121 164 -253c3 -165 -66 -221 -125 -221
c-96 0 -158 125 -158 255z" />
    <glyph glyph-name="uni24EA" unicode="&#x24ea;" 
d="M498 -156c-261 0 -458 196 -458 453c0 261 197 458 458 458c264 0 462 -197 462 -458c0 -259 -198 -453 -462 -453zM498 -135c252 0 439 185 439 432c0 249 -187 437 -439 437c-249 0 -436 -188 -436 -437c0 -246 187 -432 436 -432zM507 16c-120 0 -187 99 -187 273
c0 210 129 295 172 295c122 0 188 -99 188 -282c0 -199 -130 -286 -173 -286zM516 62c61 0 127 55 125 224c-1 131 -64 250 -164 250c-53 0 -119 -56 -119 -219c0 -130 62 -255 158 -255z" />
    <glyph glyph-name="uni2460" unicode="&#x2460;" 
d="M498 -156c-261 0 -458 196 -458 453c0 261 197 458 458 458c264 0 462 -197 462 -458c0 -259 -198 -453 -462 -453zM498 -135c252 0 439 185 439 432c0 249 -187 437 -439 437c-249 0 -436 -188 -436 -437c0 -246 187 -432 436 -432zM532 578v-521l70 -24v-12h-197v12
l70 24v475h-76v12l124 34h9z" />
    <glyph glyph-name="uni2461" unicode="&#x2461;" 
d="M498 755c264 0 462 -197 462 -458c0 -259 -198 -453 -462 -453c-261 0 -458 196 -458 453c0 261 197 458 458 458zM498 -135c252 0 439 185 439 432c0 249 -187 437 -439 437c-249 0 -436 -188 -436 -437c0 -246 187 -432 436 -432zM399 70h190c42 0 43 14 66 97h12v-143
l-7 -6h-327l2 11l166 200c61 73 90 135 90 197c0 70 -35 109 -99 109c-58 0 -88 -43 -88 -126l-65 -37l-7 4c43 126 132 205 177 205c120 0 139 -78 139 -122c0 -70 -46 -142 -128 -242z" />
    <glyph glyph-name="uni2462" unicode="&#x2462;" 
d="M498 755c264 0 462 -197 462 -458c0 -259 -198 -453 -462 -453c-261 0 -458 196 -458 453c0 261 197 458 458 458zM498 -135c252 0 439 185 439 432c0 249 -187 437 -439 437c-249 0 -436 -188 -436 -437c0 -246 187 -432 436 -432zM350 436v137l4 5h300v-11l-180 -198
c104 23 173 -21 173 -111c0 -92 -99 -223 -302 -236v55l6 6h76c74 0 169 24 169 135c0 124 -99 144 -177 100l-8 13l172 194h-174c-25 0 -31 -11 -47 -89h-12z" />
    <glyph glyph-name="uni2463" unicode="&#x2463;" 
d="M498 -156c-261 0 -458 196 -458 453c0 261 197 458 458 458c264 0 462 -197 462 -458c0 -259 -198 -453 -462 -453zM498 -135c252 0 439 185 439 432c0 249 -187 437 -439 437c-249 0 -436 -188 -436 -437c0 -246 187 -432 436 -432zM570 175h115v-23h-115v-93l70 -24
v-12h-197v12l70 24l1 93h-198v8l211 416h63v-10l-238 -391h162l1 142l43 62h12v-204z" />
    <glyph glyph-name="uni2464" unicode="&#x2464;" 
d="M498 -156c-261 0 -458 196 -458 453c0 261 197 458 458 458c264 0 462 -197 462 -458c0 -259 -198 -453 -462 -453zM498 -135c252 0 439 185 439 432c0 249 -187 437 -439 437c-249 0 -436 -188 -436 -437c0 -246 187 -432 436 -432zM352 0v55l6 6h89
c96 0 148 41 148 115c0 64 -38 93 -126 129l-102 41l48 210h146c41 0 58 0 73 43h12l1 -92l-5 -4h-214l-26 -113l82 -32c106 -41 158 -72 158 -150c0 -74 -71 -196 -290 -208z" />
    <glyph glyph-name="uni2465" unicode="&#x2465;" 
d="M498 755c264 0 462 -197 462 -458c0 -259 -198 -453 -462 -453c-261 0 -458 196 -458 453c0 261 197 458 458 458zM498 -135c252 0 439 185 439 432c0 249 -187 437 -439 437c-249 0 -436 -188 -436 -437c0 -246 187 -432 436 -432zM500 397c83 0 167 -49 167 -179
c0 -143 -121 -207 -159 -207c-102 0 -176 89 -176 215c0 202 176 318 250 363l9 -12c-77 -41 -156 -143 -181 -228c26 31 68 48 90 48zM520 50c65 0 101 47 101 133c0 97 -59 174 -133 174c-65 0 -101 -46 -101 -133c0 -98 59 -174 133 -174z" />
    <glyph glyph-name="uni2466" unicode="&#x2466;" 
d="M498 -156c-261 0 -458 196 -458 453c0 261 197 458 458 458c264 0 462 -197 462 -458c0 -259 -198 -453 -462 -453zM498 -135c252 0 439 185 439 432c0 249 -187 437 -439 437c-249 0 -436 -188 -436 -437c0 -246 187 -432 436 -432zM341 434v137l4 5h313v-8l-22 -49
l-168 -496h-64v10l207 490h-211c-25 0 -31 -11 -47 -89h-12z" />
    <glyph glyph-name="uni2467" unicode="&#x2467;" 
d="M498 755c264 0 462 -197 462 -458c0 -259 -198 -453 -462 -453c-261 0 -458 196 -458 453c0 261 197 458 458 458zM498 -135c252 0 439 185 439 432c0 249 -187 437 -439 437c-249 0 -436 -188 -436 -437c0 -246 187 -432 436 -432zM551 309c58 -28 118 -61 118 -130
c0 -99 -126 -164 -173 -164c-100 0 -164 49 -164 126c0 82 72 138 108 160c-46 26 -84 61 -84 123c0 103 109 161 150 161c86 0 144 -51 144 -126c0 -71 -51 -117 -99 -150zM393 452c0 -63 50 -92 110 -120l27 -13c47 38 67 75 67 116c0 63 -43 105 -108 105
c-58 0 -96 -34 -96 -88zM513 63c68 0 115 37 115 89c0 57 -60 87 -118 114l-26 13l-22 10c-51 -28 -78 -67 -78 -115c0 -67 51 -111 129 -111z" />
    <glyph glyph-name="uni2468" unicode="&#x2468;" 
d="M498 755c264 0 462 -197 462 -458c0 -259 -198 -453 -462 -453c-261 0 -458 196 -458 453c0 261 197 458 458 458zM498 -135c252 0 439 185 439 432c0 249 -187 437 -439 437c-249 0 -436 -188 -436 -437c0 -246 187 -432 436 -432zM491 588c102 0 176 -89 176 -215
c0 -202 -177 -319 -250 -363l-9 12c76 42 156 145 182 228c-27 -31 -70 -49 -91 -49c-84 0 -167 50 -167 180c0 143 121 207 159 207zM511 242c64 0 101 46 101 133c0 98 -59 174 -133 174c-66 0 -101 -47 -101 -133c0 -98 58 -174 133 -174z" />
    <glyph glyph-name="uni2469" unicode="&#x2469;" 
d="M498 -156c-261 0 -458 196 -458 453c0 261 197 458 458 458c264 0 462 -197 462 -458c0 -259 -198 -453 -462 -453zM498 -135c252 0 439 185 439 432c0 249 -187 437 -439 437c-249 0 -436 -188 -436 -437c0 -246 187 -432 436 -432zM612 16c-120 0 -187 99 -187 273
c0 210 129 295 172 295c122 0 188 -99 188 -282c-1 -199 -130 -286 -173 -286zM368 581v-521l70 -24v-12h-197v12l70 24v475h-76v12l124 34h9zM621 62c59 0 128 56 125 221c0 132 -63 253 -164 253c-53 0 -119 -56 -119 -219c0 -130 62 -255 158 -255z" />
    <glyph glyph-name="uni246A" unicode="&#x246a;" 
d="M498 -156c-261 0 -458 196 -458 453c0 261 197 458 458 458c264 0 462 -197 462 -458c0 -259 -198 -453 -462 -453zM498 -135c252 0 439 185 439 432c0 249 -187 437 -439 437c-249 0 -436 -188 -436 -437c0 -246 187 -432 436 -432zM405 578v-521l70 -24v-12h-197v12
l70 24v475h-76v12l124 34h9zM658 578v-521l70 -24v-12h-197v12l70 24v475h-76v12l124 34h9z" />
    <glyph glyph-name="uni246B" unicode="&#x246b;" 
d="M498 755c264 0 462 -197 462 -458c0 -259 -198 -453 -462 -453c-261 0 -458 196 -458 453c0 261 197 458 458 458zM498 -135c252 0 439 185 439 432c0 249 -187 437 -439 437c-249 0 -436 -188 -436 -437c0 -246 187 -432 436 -432zM528 70h190c42 0 43 14 66 97h12v-143
l-7 -6h-327l2 11l166 200c61 73 90 135 90 197c0 70 -35 109 -99 109c-58 0 -88 -43 -88 -126l-65 -37l-7 4c43 126 132 205 177 205c120 0 139 -78 139 -122c0 -69 -46 -142 -128 -242zM337 575v-521l70 -24v-12h-197v12l70 24v475h-76v12l124 34h9z" />
    <glyph glyph-name="uni246C" unicode="&#x246c;" 
d="M498 755c264 0 462 -197 462 -458c0 -259 -198 -453 -462 -453c-261 0 -458 196 -458 453c0 261 197 458 458 458zM498 -135c252 0 439 185 439 432c0 249 -187 437 -439 437c-249 0 -436 -188 -436 -437c0 -246 187 -432 436 -432zM349 579v-521l70 -24v-12h-197v12
l70 24v475h-76v12l124 34h9zM480 433v137l4 5h300v-11l-180 -198c104 23 173 -21 173 -111c0 -92 -99 -223 -302 -236v55l6 6h76c74 0 169 24 169 135c0 124 -99 144 -177 100l-8 13l172 194h-174c-25 0 -31 -11 -47 -89h-12z" />
    <glyph glyph-name="uni246D" unicode="&#x246d;" 
d="M498 -156c-261 0 -458 196 -458 453c0 261 197 458 458 458c264 0 462 -197 462 -458c0 -259 -198 -453 -462 -453zM498 -135c252 0 439 185 439 432c0 249 -187 437 -439 437c-249 0 -436 -188 -436 -437c0 -246 187 -432 436 -432zM353 578v-521l70 -24v-12h-197v12
l70 24v475h-76v12l124 34h9zM664 173h115v-23h-115v-93l70 -24v-12h-197v12l70 24l1 93h-198v8l211 416h63v-10l-238 -391h162l1 142l43 62h12v-204z" />
    <glyph glyph-name="uni246E" unicode="&#x246e;" 
d="M498 -156c-261 0 -458 196 -458 453c0 261 197 458 458 458c264 0 462 -197 462 -458c0 -259 -198 -453 -462 -453zM498 -135c252 0 439 185 439 432c0 249 -187 437 -439 437c-249 0 -436 -188 -436 -437c0 -246 187 -432 436 -432zM482 0v55l6 6h89
c96 0 148 41 148 115c0 58 -31 91 -126 129l-102 41l48 210h146c41 0 58 0 73 43h12l1 -92l-5 -4h-214l-26 -113l82 -32c106 -41 158 -72 158 -150c0 -74 -71 -196 -290 -208zM356 560v-521l70 -24v-12h-197v12l70 24v475h-76v12l124 34h9z" />
    <glyph glyph-name="uni246F" unicode="&#x246f;" 
d="M498 755c264 0 462 -197 462 -458c0 -259 -198 -453 -462 -453c-261 0 -458 196 -458 453c0 261 197 458 458 458zM498 -135c252 0 439 185 439 432c0 249 -187 437 -439 437c-249 0 -436 -188 -436 -437c0 -246 187 -432 436 -432zM595 397c83 0 167 -49 167 -179
c0 -143 -121 -207 -159 -207c-102 0 -176 89 -176 215c0 202 176 318 250 363l9 -12c-77 -41 -156 -143 -181 -228c26 31 68 48 90 48zM371 576v-521l70 -24v-12h-197v12l70 24v475h-76v12l124 34h9zM615 50c65 0 101 47 101 133c0 97 -59 174 -133 174
c-65 0 -101 -46 -101 -133c0 -98 59 -174 133 -174z" />
    <glyph glyph-name="uni2470" unicode="&#x2470;" 
d="M498 -156c-261 0 -458 196 -458 453c0 261 197 458 458 458c264 0 462 -197 462 -458c0 -259 -198 -453 -462 -453zM498 -135c252 0 439 185 439 432c0 249 -187 437 -439 437c-249 0 -436 -188 -436 -437c0 -246 187 -432 436 -432zM377 578v-521l70 -24v-12h-197v12
l70 24v475h-76v12l124 34h9zM440 432v137l4 5h313v-8l-22 -49l-168 -496h-64v10l207 490h-211c-25 0 -31 -11 -47 -89h-12z" />
    <glyph glyph-name="uni2471" unicode="&#x2471;" 
d="M498 755c264 0 462 -197 462 -458c0 -259 -198 -453 -462 -453c-261 0 -458 196 -458 453c0 261 197 458 458 458zM498 -135c252 0 439 185 439 432c0 249 -187 437 -439 437c-249 0 -436 -188 -436 -437c0 -246 187 -432 436 -432zM645 309c58 -28 118 -61 118 -130
c0 -99 -126 -164 -173 -164c-100 0 -164 49 -164 126c0 82 72 138 108 160c-46 26 -84 61 -84 123c0 103 109 161 150 161c86 0 144 -51 144 -126c0 -71 -51 -117 -99 -150zM370 581v-521l70 -24v-12h-197v12l70 24v475h-76v12l124 34h9zM487 452c0 -63 50 -92 110 -120
l27 -13c47 38 67 75 67 116c0 63 -43 105 -108 105c-58 0 -96 -34 -96 -88zM607 63c68 0 115 37 115 89c0 57 -60 87 -118 114l-26 13l-22 10c-51 -28 -78 -67 -78 -115c0 -67 51 -111 129 -111z" />
    <glyph glyph-name="uni2472" unicode="&#x2472;" 
d="M498 755c264 0 462 -197 462 -458c0 -259 -198 -453 -462 -453c-261 0 -458 196 -458 453c0 261 197 458 458 458zM498 -135c252 0 439 185 439 432c0 249 -187 437 -439 437c-249 0 -436 -188 -436 -437c0 -246 187 -432 436 -432zM597 588c102 0 176 -89 176 -215
c0 -202 -177 -319 -250 -363l-9 12c76 42 156 145 182 228c-27 -31 -70 -49 -91 -49c-84 0 -167 50 -167 180c0 143 121 207 159 207zM380 585v-521l70 -24v-12h-197v12l70 24v475h-76v12l124 34h9zM617 242c64 0 101 46 101 133c0 98 -59 174 -133 174
c-66 0 -101 -47 -101 -133c0 -98 58 -174 133 -174z" />
    <glyph glyph-name="uni2473" unicode="&#x2473;" 
d="M498 755c264 0 462 -197 462 -458c0 -259 -198 -453 -462 -453c-261 0 -458 196 -458 453c0 261 197 458 458 458zM498 -135c252 0 439 185 439 432c0 249 -187 437 -439 437c-249 0 -436 -188 -436 -437c0 -100 31 -190 84 -261l164 197c61 73 90 135 90 197
c0 70 -35 109 -99 109c-58 0 -88 -43 -88 -126l-65 -37l-7 4c43 126 132 205 177 205c120 0 139 -78 139 -122c0 -69 -46 -142 -128 -242l-121 -147h190c42 0 43 14 66 97h12v-143l-7 -6h-312c78 -97 200 -157 341 -157zM691 582c122 0 188 -99 188 -282
c0 -199 -130 -286 -173 -286c-120 0 -187 99 -187 273c0 210 129 295 172 295zM715 60c61 0 127 55 125 224c-1 131 -64 250 -164 250c-53 0 -119 -56 -119 -219c0 -130 62 -255 158 -255z" />
    <glyph glyph-name="zero.osf" horiz-adv-x="527" 
d="M273 -10c-176 0 -241 121 -241 259c0 203 165 285 222 285c179 0 240 -124 240 -269c0 -193 -165 -275 -221 -275zM283 37c84 0 181 53 181 204c0 116 -89 244 -229 244c-76 0 -173 -53 -173 -202c0 -114 87 -246 221 -246z" />
    <glyph glyph-name="one.osf" horiz-adv-x="389" 
d="M230 31l163 -25v-6h-381v6l160 25l-3 456h-147v6l201 31h7v-493z" />
    <glyph glyph-name="two.osf" horiz-adv-x="467" 
d="M412 155h6v-150l-5 -5h-381v6l44 38c199 172 262 221 262 317c0 73 -37 129 -124 129c-79 0 -123 -59 -114 -159l-76 -43l-3 2c61 171 160 247 213 247c136 0 163 -86 163 -132c0 -109 -88 -178 -200 -276l-80 -70v-4h210c56 0 58 1 85 100z" />
    <glyph glyph-name="three.osf" horiz-adv-x="439" 
d="M404 521v-6l-228 -251l2 -3c139 34 218 -28 218 -131c0 -112 -119 -270 -364 -287v61l4 4h92c93 0 215 31 215 172c0 156 -126 183 -223 131l-6 9l219 246h-227c-33 0 -43 -14 -63 -111h-6v163l3 3h364z" />
    <glyph glyph-name="four.osf" horiz-adv-x="450" 
d="M310 18h143v-18h-143v-160h-60l1 160h-246v4l260 518h70v-6l-299 -498h215l1 180l51 73h7v-253z" />
    <glyph glyph-name="five.osf" horiz-adv-x="422" 
d="M70 321l105 -42c138 -55 198 -92 198 -183c0 -90 -90 -236 -354 -252v61l4 4h108c132 0 189 61 189 147c0 72 -36 115 -160 165l-122 49l58 252h176c51 0 75 1 95 54h6l1 -107l-3 -2h-267z" />
    <glyph glyph-name="six.osf" horiz-adv-x="452" 
d="M240 -10c-113 0 -213 95 -213 261c0 245 210 397 303 467l5 -7c-100 -70 -199 -214 -226 -321l3 -2c31 45 89 71 118 71c102 0 202 -59 202 -217c0 -175 -146 -252 -192 -252zM255 28c55 0 130 29 130 170c0 123 -74 221 -170 221c-95 0 -130 -77 -130 -170
c0 -123 74 -221 170 -221z" />
    <glyph glyph-name="seven.osf" horiz-adv-x="417" 
d="M22 519l3 3h380v-3l-26 -60l-208 -612h-70v6l258 614h-268c-33 0 -43 -14 -63 -111h-6v163z" />
    <glyph glyph-name="eight.osf" horiz-adv-x="487" 
d="M297 347c74 -35 151 -74 151 -160c0 -119 -153 -198 -209 -198c-117 0 -199 55 -199 151c0 105 98 175 140 198c-61 33 -110 75 -110 153c0 125 131 194 181 194c108 0 174 -64 174 -151c0 -88 -68 -145 -128 -187zM106 526c0 -82 65 -119 139 -154l36 -17h1
c55 44 87 91 87 149c0 81 -55 135 -139 135c-72 0 -124 -41 -124 -113zM259 38c96 0 148 56 148 116c0 74 -77 112 -149 146l-32 15l-32 15l2 -1c-69 -36 -101 -89 -101 -148c0 -87 66 -143 164 -143z" />
    <glyph glyph-name="nine.osf" horiz-adv-x="452" 
d="M212 532c113 0 213 -95 213 -261c0 -245 -210 -397 -303 -467l-5 7c100 70 199 214 226 321l-3 2c-31 -45 -89 -71 -118 -71c-102 0 -202 59 -202 217c0 175 146 252 192 252zM197 494c-55 0 -130 -29 -130 -170c0 -123 74 -221 170 -221c95 0 130 77 130 170
c0 123 -74 221 -170 221z" />
    <glyph glyph-name="zero.slash" horiz-adv-x="513" 
d="M247 684c164 0 228 -146 228 -344c-1 -245 -158 -350 -209 -350c-161 0 -228 143 -228 334c0 257 157 360 209 360zM228 635c-67 0 -152 -72 -152 -277c0 -90 24 -178 66 -240l193 475c-30 26 -66 42 -107 42zM276 37c75 0 164 72 161 279c0 104 -32 203 -88 263
l-194 -479c32 -39 73 -63 121 -63z" />
    <glyph glyph-name="uni2080" unicode="&#x2080;" horiz-adv-x="310" 
d="M160 -131c-92 0 -134 75 -134 169c0 134 97 180 124 180c93 0 134 -75 134 -173c0 -129 -97 -176 -124 -176zM180 -105c33 1 75 43 66 146c-7 84 -51 153 -115 151c-36 -1 -76 -47 -69 -141c5 -75 43 -159 118 -156z" />
    <glyph glyph-name="uni2081" unicode="&#x2081;" horiz-adv-x="189" 
d="M122 -104l45 -15v-6h-137v6l45 15v290l-51 1v6l95 23h3v-320z" />
    <glyph glyph-name="uni2082" unicode="&#x2082;" horiz-adv-x="290" 
d="M251 -29h5v-93l-3 -3h-233l1 1v5l108 114c41 44 69 87 68 134c-1 37 -19 65 -66 65c-40 0 -57 -33 -54 -83l-56 -26l-2 4c37 87 102 130 130 130c76 0 96 -40 96 -74c0 -42 -31 -81 -118 -174l-52 -55v-2h126c32 0 36 11 50 57z" />
    <glyph glyph-name="uni2083" unicode="&#x2083;" horiz-adv-x="281" 
d="M257 213v-5l-127 -122l1 -2c77 14 123 -18 123 -69c0 -55 -67 -140 -218 -140v47l3 3c27 -12 54 -17 73 -17c46 0 109 13 109 74c0 68 -72 85 -139 66l-3 7l121 119h-117c-20 0 -27 -8 -38 -54h-6v91l2 2h216z" />
    <glyph glyph-name="uni2084" unicode="&#x2084;" horiz-adv-x="278" 
d="M269 -33v-13h-78v-58l45 -15v-6h-137v6l45 15v58h-136v3l142 256h57v-6l-182 -240h120v84l40 47h6v-131h78z" />
    <glyph glyph-name="uni2085" unicode="&#x2085;" horiz-adv-x="270" 
d="M60 108l64 -19c84 -25 114 -44 114 -91c0 -44 -46 -122 -211 -124v47l3 3c24 -7 55 -17 82 -17c66 0 95 27 95 66c0 36 -24 55 -89 75l-81 25l35 140h105c28 0 43 0 55 28h6l1 -66l-2 -2h-160z" />
    <glyph glyph-name="uni2086" unicode="&#x2086;" horiz-adv-x="278" 
d="M145 -130c-64 0 -124 48 -124 133c0 118 111 191 182 219l3 -7c-62 -28 -113 -90 -128 -143l2 -2c18 23 52 36 69 36c56 0 111 -33 111 -109c0 -85 -78 -127 -115 -127zM159 -112c29 1 65 18 62 87c-3 62 -42 108 -91 107c-48 -1 -64 -38 -61 -88c4 -63 42 -107 90 -106z
" />
    <glyph glyph-name="uni2087" unicode="&#x2087;" horiz-adv-x="260" 
d="M21 211l2 2h225v-6l-20 -37l-108 -295h-57v7l154 292h-152c-20 0 -26 -9 -37 -54h-7v91z" />
    <glyph glyph-name="uni2088" unicode="&#x2088;" horiz-adv-x="291" 
d="M180 54c40 -20 86 -39 86 -84c0 -64 -90 -101 -123 -101c-61 0 -119 25 -119 77c0 51 54 84 85 93c-37 19 -68 41 -68 82c0 67 82 97 111 97c60 0 101 -30 101 -75c0 -41 -37 -69 -73 -89zM74 145c0 -39 35 -56 75 -76l21 -10c26 21 42 44 42 69c0 41 -30 69 -74 69
c-36 0 -64 -19 -64 -52zM155 -109c47 0 75 24 75 53c0 35 -39 54 -79 74l-24 12c-3 2 -7 3 -10 5c-33 -15 -50 -41 -50 -70c0 -48 38 -74 88 -74z" />
    <glyph glyph-name="uni2089" unicode="&#x2089;" horiz-adv-x="278" 
d="M133 222c64 0 124 -48 124 -133c0 -118 -111 -191 -182 -219l-3 7c62 28 113 90 128 143l-2 2c-18 -23 -52 -36 -69 -36c-56 0 -111 33 -111 109c0 85 78 127 115 127zM119 204c-29 -1 -65 -18 -62 -87c3 -62 42 -108 91 -107c48 1 64 38 61 88c-4 63 -42 107 -90 106z
" />
    <glyph glyph-name="zero.dnom" horiz-adv-x="310" 
d="M160 -6c-92 0 -134 75 -134 169c0 134 97 180 124 180c93 0 134 -75 134 -173c0 -129 -97 -176 -124 -176zM180 20c33 1 75 43 66 146c-7 84 -51 153 -115 151c-36 -1 -76 -47 -69 -141c5 -75 43 -159 118 -156z" />
    <glyph glyph-name="one.dnom" horiz-adv-x="189" 
d="M122 21l45 -15v-6h-137v6l45 15v290l-51 1v6l95 23h3v-320z" />
    <glyph glyph-name="two.dnom" horiz-adv-x="290" 
d="M251 96h5v-93l-3 -3h-233l1 1v5l108 114c41 44 69 87 68 134c-1 37 -19 65 -66 65c-40 0 -57 -33 -54 -83l-56 -26l-2 4c37 87 102 130 130 130c76 0 96 -40 96 -74c0 -42 -31 -81 -118 -174l-52 -55v-2h126c32 0 36 11 50 57z" />
    <glyph glyph-name="three.dnom" horiz-adv-x="281" 
d="M257 338v-5l-127 -122l1 -2c77 14 123 -18 123 -69c0 -55 -67 -140 -218 -140v47l3 3c27 -12 54 -17 73 -17c46 0 109 13 109 74c0 68 -72 85 -139 66l-3 7l121 119h-117c-20 0 -27 -8 -38 -54h-6v91l2 2h216z" />
    <glyph glyph-name="four.dnom" horiz-adv-x="278" 
d="M269 92v-13h-78v-58l45 -15v-6h-137v6l45 15v58h-136v3l142 256h57v-6l-182 -240h120v84l40 47h6v-131h78z" />
    <glyph glyph-name="five.dnom" horiz-adv-x="270" 
d="M60 233l64 -19c84 -25 114 -44 114 -91c0 -44 -46 -122 -211 -124v47l3 3c24 -7 55 -17 82 -17c66 0 95 27 95 66c0 36 -24 55 -89 75l-81 25l35 140h105c28 0 43 0 55 28h6l1 -66l-2 -2h-160z" />
    <glyph glyph-name="six.dnom" horiz-adv-x="278" 
d="M145 -5c-64 0 -124 48 -124 133c0 118 111 191 182 219l3 -7c-62 -28 -113 -90 -128 -143l2 -2c18 23 52 36 69 36c56 0 111 -33 111 -109c0 -85 -78 -127 -115 -127zM159 13c29 1 65 18 62 87c-3 62 -42 108 -91 107c-48 -1 -64 -38 -61 -88c4 -63 42 -107 90 -106z" />
    <glyph glyph-name="seven.dnom" horiz-adv-x="260" 
d="M21 336l2 2h225v-6l-20 -37l-108 -295h-57v7l154 292h-152c-20 0 -26 -9 -37 -54h-7v91z" />
    <glyph glyph-name="eight.dnom" horiz-adv-x="291" 
d="M180 179c40 -20 86 -39 86 -84c0 -64 -90 -101 -123 -101c-61 0 -119 25 -119 77c0 51 54 84 85 93c-37 19 -68 41 -68 82c0 67 82 97 111 97c60 0 101 -30 101 -75c0 -41 -37 -69 -73 -89zM74 270c0 -39 35 -56 75 -76l21 -10c26 21 42 44 42 69c0 41 -30 69 -74 69
c-36 0 -64 -19 -64 -52zM155 16c47 0 75 24 75 53c0 35 -39 54 -79 74l-24 12c-3 2 -7 3 -10 5c-33 -15 -50 -41 -50 -70c0 -48 38 -74 88 -74z" />
    <glyph glyph-name="nine.dnom" horiz-adv-x="278" 
d="M133 347c64 0 124 -48 124 -133c0 -118 -111 -191 -182 -219l-3 7c62 28 113 90 128 143l-2 2c-18 -23 -52 -36 -69 -36c-56 0 -111 33 -111 109c0 85 78 127 115 127zM119 329c-29 -1 -65 -18 -62 -87c3 -62 42 -108 91 -107c48 1 64 38 61 88c-4 63 -42 107 -90 106z
" />
    <glyph glyph-name="zero.numr" horiz-adv-x="310" 
d="M160 330c-92 0 -134 75 -134 169c0 134 97 180 124 180c93 0 134 -75 134 -173c0 -129 -97 -176 -124 -176zM180 356c33 1 75 43 66 146c-7 84 -51 153 -115 151c-36 -1 -76 -47 -69 -141c5 -75 43 -159 118 -156z" />
    <glyph glyph-name="one.numr" horiz-adv-x="189" 
d="M122 357l45 -15v-6h-137v6l45 15v290l-51 1v6l95 23h3v-320z" />
    <glyph glyph-name="two.numr" horiz-adv-x="290" 
d="M251 432h5v-93l-3 -3h-233l1 1v5l108 114c41 44 69 87 68 134c-1 37 -19 65 -66 65c-40 0 -57 -33 -54 -83l-56 -26l-2 4c37 87 102 130 130 130c76 0 96 -40 96 -74c0 -42 -31 -81 -118 -174l-52 -55v-2h126c32 0 36 11 50 57z" />
    <glyph glyph-name="three.numr" horiz-adv-x="281" 
d="M257 674v-5l-127 -122l1 -2c77 14 123 -18 123 -69c0 -55 -67 -140 -218 -140v47l3 3c27 -12 54 -17 73 -17c46 0 109 13 109 74c0 68 -72 85 -139 66l-3 7l121 119h-117c-20 0 -27 -8 -38 -54h-6v91l2 2h216z" />
    <glyph glyph-name="four.numr" horiz-adv-x="278" 
d="M269 428v-13h-78v-58l45 -15v-6h-137v6l45 15v58h-136v3l142 256h57v-6l-182 -240h120v84l40 47h6v-131h78z" />
    <glyph glyph-name="five.numr" horiz-adv-x="270" 
d="M60 569l64 -19c84 -25 114 -44 114 -91c0 -44 -46 -122 -211 -124v47l3 3c24 -7 55 -17 82 -17c66 0 95 27 95 66c0 36 -24 55 -89 75l-81 25l35 140h105c28 0 43 0 55 28h6l1 -66l-2 -2h-160z" />
    <glyph glyph-name="six.numr" horiz-adv-x="278" 
d="M145 331c-64 0 -124 48 -124 133c0 118 111 191 182 219l3 -7c-62 -28 -113 -90 -128 -143l2 -2c18 23 52 36 69 36c56 0 111 -33 111 -109c0 -85 -78 -127 -115 -127zM159 349c29 1 65 18 62 87c-3 62 -42 108 -91 107c-48 -1 -64 -38 -61 -88c4 -63 42 -107 90 -106z
" />
    <glyph glyph-name="seven.numr" horiz-adv-x="260" 
d="M21 672l2 2h225v-6l-20 -37l-108 -295h-57v7l154 292h-152c-20 0 -26 -9 -37 -54h-7v91z" />
    <glyph glyph-name="eight.numr" horiz-adv-x="291" 
d="M180 515c40 -20 86 -39 86 -84c0 -64 -90 -101 -123 -101c-61 0 -119 25 -119 77c0 51 54 84 85 93c-37 19 -68 41 -68 82c0 67 82 97 111 97c60 0 101 -30 101 -75c0 -41 -37 -69 -73 -89zM74 606c0 -39 35 -56 75 -76l21 -10c26 21 42 44 42 69c0 41 -30 69 -74 69
c-36 0 -64 -19 -64 -52zM155 352c47 0 75 24 75 53c0 35 -39 54 -79 74l-24 12c-3 2 -7 3 -10 5c-33 -15 -50 -41 -50 -70c0 -48 38 -74 88 -74z" />
    <glyph glyph-name="nine.numr" horiz-adv-x="278" 
d="M133 683c64 0 124 -48 124 -133c0 -118 -111 -191 -182 -219l-3 7c62 28 113 90 128 143l-2 2c-18 -23 -52 -36 -69 -36c-56 0 -111 33 -111 109c0 85 78 127 115 127zM119 665c-29 -1 -65 -18 -62 -87c3 -62 42 -108 91 -107c48 1 64 38 61 88c-4 63 -42 107 -90 106z
" />
    <glyph glyph-name="uni2070" unicode="&#x2070;" horiz-adv-x="310" 
d="M160 405c-92 0 -134 75 -134 169c0 134 97 180 124 180c93 0 134 -75 134 -173c0 -129 -97 -176 -124 -176zM180 431c33 1 75 43 66 146c-7 84 -51 153 -115 151c-36 -1 -76 -47 -69 -141c5 -75 43 -159 118 -156z" />
    <glyph glyph-name="uni00B9" unicode="&#xb9;" horiz-adv-x="189" 
d="M122 432l45 -15v-6h-137v6l45 15v290l-51 1v6l95 23h3v-320z" />
    <glyph glyph-name="uni00B2" unicode="&#xb2;" horiz-adv-x="290" 
d="M251 507h5v-93l-3 -3h-233l1 1v5l108 114c41 44 69 87 68 134c-1 37 -19 65 -66 65c-40 0 -57 -33 -54 -83l-56 -26l-2 4c37 87 102 130 130 130c76 0 96 -40 96 -74c0 -42 -31 -81 -118 -174l-52 -55v-2h126c32 0 36 11 50 57z" />
    <glyph glyph-name="uni00B3" unicode="&#xb3;" horiz-adv-x="281" 
d="M257 749v-5l-127 -122l1 -2c77 14 123 -18 123 -69c0 -55 -67 -140 -218 -140v47l3 3c27 -12 54 -17 73 -17c46 0 109 13 109 74c0 68 -72 85 -139 66l-3 7l121 119h-117c-20 0 -27 -8 -38 -54h-6v91l2 2h216z" />
    <glyph glyph-name="uni2074" unicode="&#x2074;" horiz-adv-x="278" 
d="M269 503v-13h-78v-58l45 -15v-6h-137v6l45 15v58h-136v3l142 256h57v-6l-182 -240h120v84l40 47h6v-131h78z" />
    <glyph glyph-name="uni2075" unicode="&#x2075;" horiz-adv-x="270" 
d="M60 644l64 -19c84 -25 114 -44 114 -91c0 -44 -46 -122 -211 -124v47l3 3c24 -7 55 -17 82 -17c66 0 95 27 95 66c0 36 -24 55 -89 75l-81 25l35 140h105c28 0 43 0 55 28h6l1 -66l-2 -2h-160z" />
    <glyph glyph-name="uni2076" unicode="&#x2076;" horiz-adv-x="278" 
d="M145 406c-64 0 -124 48 -124 133c0 118 111 191 182 219l3 -7c-62 -28 -113 -90 -128 -143l2 -2c18 23 52 36 69 36c56 0 111 -33 111 -109c0 -85 -78 -127 -115 -127zM159 424c29 1 65 18 62 87c-3 62 -42 108 -91 107c-48 -1 -64 -38 -61 -88c4 -63 42 -107 90 -106z
" />
    <glyph glyph-name="uni2077" unicode="&#x2077;" horiz-adv-x="260" 
d="M21 747l2 2h225v-6l-20 -37l-108 -295h-57v7l154 292h-152c-20 0 -26 -9 -37 -54h-7v91z" />
    <glyph glyph-name="uni2078" unicode="&#x2078;" horiz-adv-x="291" 
d="M180 590c40 -20 86 -39 86 -84c0 -64 -90 -101 -123 -101c-61 0 -119 25 -119 77c0 51 54 84 85 93c-37 19 -68 41 -68 82c0 67 82 97 111 97c60 0 101 -30 101 -75c0 -41 -37 -69 -73 -89zM74 681c0 -39 35 -56 75 -76l21 -10c26 21 42 44 42 69c0 41 -30 69 -74 69
c-36 0 -64 -19 -64 -52zM155 427c47 0 75 24 75 53c0 35 -39 54 -79 74l-24 12c-3 2 -7 3 -10 5c-33 -15 -50 -41 -50 -70c0 -48 38 -74 88 -74z" />
    <glyph glyph-name="uni2079" unicode="&#x2079;" horiz-adv-x="278" 
d="M133 758c64 0 124 -48 124 -133c0 -118 -111 -191 -182 -219l-3 7c62 28 113 90 128 143l-2 2c-18 -23 -52 -36 -69 -36c-56 0 -111 33 -111 109c0 85 78 127 115 127zM119 740c-29 -1 -65 -18 -62 -87c3 -62 42 -108 91 -107c48 1 64 38 61 88c-4 63 -42 107 -90 106z
" />
    <glyph glyph-name="fraction" unicode="&#x2044;" horiz-adv-x="50" 
d="M37 348l-7 5l157 322h53v-6zM13 327l7 -5l-156 -322h-54v6z" />
    <glyph glyph-name="onehalf" unicode="&#xbd;" horiz-adv-x="584" 
d="M30 336v6l45 15v290l-51 1v6l95 23h3v-320l45 -15v-6h-137zM431 675h53v-6l-203 -321l-7 5zM545 96h5v-93l-3 -3h-233l1 1v5l108 114c41 44 69 87 68 134c-1 37 -19 65 -66 65c-40 0 -57 -33 -54 -83l-56 -26l-2 4c37 87 102 130 130 130c76 0 96 -40 96 -74
c0 -42 -31 -81 -118 -174l-52 -55v-2h126c32 0 36 11 50 57zM54 0v6l203 321l7 -5l-156 -322h-54z" />
    <glyph glyph-name="uni2153" unicode="&#x2153;" horiz-adv-x="575" 
d="M30 336v6l45 15v290l-51 1v6l95 23h3v-320l45 -15v-6h-137zM431 675h53v-6l-203 -321l-7 5zM551 338v-5l-127 -122l1 -2c77 14 123 -18 123 -69c0 -55 -67 -140 -218 -140v47l3 3c27 -12 54 -17 73 -17c46 0 109 13 109 74c0 68 -72 85 -139 66l-3 7l121 119h-117
c-20 0 -27 -8 -38 -54h-6v91l2 2h216zM54 0v6l203 321l7 -5l-156 -322h-54z" />
    <glyph glyph-name="uni2154" unicode="&#x2154;" horiz-adv-x="621" 
d="M256 432v-93l-3 -3h-233l1 1v5l108 114c41 44 69 87 68 134c-1 37 -19 65 -66 65c-40 0 -57 -33 -54 -83l-56 -26l-2 4c37 87 102 130 130 130c76 0 96 -40 96 -74c0 -42 -31 -81 -118 -174l-52 -55v-2h126c32 0 36 11 50 57h5zM477 675h53v-6l-203 -321l-7 5zM597 338
v-5l-127 -122l1 -2c77 14 123 -18 123 -69c0 -55 -67 -140 -218 -140v47l3 3c27 -12 54 -17 73 -17c46 0 109 13 109 74c0 68 -72 85 -139 66l-3 7l121 119h-117c-20 0 -27 -8 -38 -54h-6v91l2 2h216zM100 0v6l203 321l7 -5l-156 -322h-54z" />
    <glyph glyph-name="onequarter" unicode="&#xbc;" horiz-adv-x="572" 
d="M30 336v6l45 15v290l-51 1v6l95 23h3v-320l45 -15v-6h-137zM431 675h53v-6l-203 -321l-7 5zM563 92v-13h-78v-58l45 -15v-6h-137v6l45 15v58h-136v3l142 256h57v-6l-182 -240h120v84l40 47h6v-131h78zM54 0v6l203 321l7 -5l-156 -322h-54z" />
    <glyph glyph-name="threequarters" unicode="&#xbe;" horiz-adv-x="609" 
d="M468 675h53v-6l-203 -321l-7 5zM254 476c0 -55 -67 -140 -218 -140v47l3 3c27 -12 54 -17 73 -17c46 0 109 13 109 74c0 68 -72 85 -139 66l-3 7l121 119h-117c-20 0 -27 -8 -38 -54h-6v91l2 2h216v-5l-127 -122l1 -2c77 14 123 -18 123 -69zM600 92v-13h-78v-58l45 -15
v-6h-137v6l45 15v58h-136v3l142 256h57v-6l-182 -240h120v84l40 47h6v-131h78zM91 0v6l203 321l7 -5l-156 -322h-54z" />
    <glyph glyph-name="oneeighth" unicode="&#x215b;" horiz-adv-x="585" 
d="M30 336v6l45 15v290l-51 1v6l95 23h3v-320l45 -15v-6h-137zM431 675h53v-6l-203 -321l-7 5zM474 179c40 -20 86 -39 86 -84c0 -64 -90 -101 -123 -101c-61 0 -119 25 -119 77c0 51 54 84 85 93c-37 19 -68 41 -68 82c0 67 82 97 111 97c60 0 101 -30 101 -75
c0 -41 -37 -69 -73 -89zM54 0v6l203 321l7 -5l-156 -322h-54zM368 270c0 -39 35 -56 75 -76l21 -10c26 21 42 44 42 69c0 41 -30 69 -74 69c-36 0 -64 -19 -64 -52zM449 16c47 0 75 24 75 53c0 35 -39 54 -79 74l-24 12c-3 2 -7 3 -10 5c-33 -15 -50 -41 -50 -70
c0 -48 38 -74 88 -74z" />
    <glyph glyph-name="threeeighths" unicode="&#x215c;" horiz-adv-x="622" 
d="M468 675h53v-6l-203 -321l-7 5zM254 476c0 -55 -67 -140 -218 -140v47l3 3c27 -12 54 -17 73 -17c46 0 109 13 109 74c0 68 -72 85 -139 66l-3 7l121 119h-117c-20 0 -27 -8 -38 -54h-6v91l2 2h216v-5l-127 -122l1 -2c77 14 123 -18 123 -69zM511 179
c40 -20 86 -39 86 -84c0 -64 -90 -101 -123 -101c-61 0 -119 25 -119 77c0 51 54 84 85 93c-37 19 -68 41 -68 82c0 67 82 97 111 97c60 0 101 -30 101 -75c0 -41 -37 -69 -73 -89zM91 0v6l203 321l7 -5l-156 -322h-54zM405 270c0 -39 35 -56 75 -76l21 -10
c26 21 42 44 42 69c0 41 -30 69 -74 69c-36 0 -64 -19 -64 -52zM486 16c47 0 75 24 75 53c0 35 -39 54 -79 74l-24 12c-3 2 -7 3 -10 5c-33 -15 -50 -41 -50 -70c0 -48 38 -74 88 -74z" />
    <glyph glyph-name="fiveeighths" unicode="&#x215d;" horiz-adv-x="611" 
d="M238 459c0 -44 -46 -122 -211 -124v47l3 3c24 -7 55 -17 82 -17c66 0 95 27 95 66c0 36 -24 55 -89 75l-81 25l35 140h105c28 0 43 0 55 28h6l1 -66l-2 -2h-160l-17 -65l64 -19c84 -25 114 -44 114 -91zM457 675h53v-6l-203 -321l-7 5zM500 179c40 -20 86 -39 86 -84
c0 -64 -90 -101 -123 -101c-61 0 -119 25 -119 77c0 51 54 84 85 93c-37 19 -68 41 -68 82c0 67 82 97 111 97c60 0 101 -30 101 -75c0 -41 -37 -69 -73 -89zM80 0v6l203 321l7 -5l-156 -322h-54zM394 270c0 -39 35 -56 75 -76l21 -10c26 21 42 44 42 69c0 41 -30 69 -74 69
c-36 0 -64 -19 -64 -52zM475 16c47 0 75 24 75 53c0 35 -39 54 -79 74l-24 12c-3 2 -7 3 -10 5c-33 -15 -50 -41 -50 -70c0 -48 38 -74 88 -74z" />
    <glyph glyph-name="seveneighths" unicode="&#x215e;" horiz-adv-x="601" 
d="M447 675h53v-6l-203 -321l-7 5zM120 336h-57v7l154 292h-152c-20 0 -26 -9 -37 -54h-7v91l2 2h225v-6l-20 -37zM490 179c40 -20 86 -39 86 -84c0 -64 -90 -101 -123 -101c-61 0 -119 25 -119 77c0 51 54 84 85 93c-37 19 -68 41 -68 82c0 67 82 97 111 97
c60 0 101 -30 101 -75c0 -41 -37 -69 -73 -89zM70 0v6l203 321l7 -5l-156 -322h-54zM384 270c0 -39 35 -56 75 -76l21 -10c26 21 42 44 42 69c0 41 -30 69 -74 69c-36 0 -64 -19 -64 -52zM465 16c47 0 75 24 75 53c0 35 -39 54 -79 74l-24 12c-3 2 -7 3 -10 5
c-33 -15 -50 -41 -50 -70c0 -48 38 -74 88 -74z" />
    <glyph glyph-name="period" unicode="." horiz-adv-x="211" 
d="M106 -2c-26 0 -46 20 -46 46c0 24 20 45 46 45c25 0 45 -21 45 -45c0 -26 -20 -46 -45 -46z" />
    <glyph glyph-name="comma" unicode="," horiz-adv-x="223" 
d="M118 89c25 0 45 -16 45 -50c0 -41 -21 -89 -75 -219h-7l37 178c-24 2 -46 21 -46 46c0 24 20 45 46 45z" />
    <glyph glyph-name="colon" unicode=":" horiz-adv-x="211" 
d="M106 443c-26 0 -46 20 -46 46c0 24 20 45 46 45c25 0 45 -21 45 -45c0 -26 -20 -46 -45 -46zM106 -2c-26 0 -46 20 -46 46c0 24 20 45 46 45c25 0 45 -21 45 -45c0 -26 -20 -46 -45 -46z" />
    <glyph glyph-name="semicolon" unicode=";" horiz-adv-x="230" 
d="M118 440c-26 0 -46 20 -46 46c0 24 20 45 46 45c25 0 45 -21 45 -45c0 -26 -20 -46 -45 -46zM125 89c25 0 45 -16 45 -50c0 -41 -21 -89 -75 -219h-7l37 178c-24 2 -46 21 -46 46c0 24 20 45 46 45z" />
    <glyph glyph-name="ellipsis" unicode="&#x2026;" horiz-adv-x="711" 
d="M106 -2c-26 0 -46 20 -46 46c0 24 20 45 46 45c25 0 45 -21 45 -45c0 -26 -20 -46 -45 -46zM356 -2c-26 0 -46 20 -46 46c0 24 20 45 46 45c25 0 45 -21 45 -45c0 -26 -20 -46 -45 -46zM606 -2c-26 0 -46 20 -46 46c0 24 20 45 46 45c25 0 45 -21 45 -45
c0 -26 -20 -46 -45 -46z" />
    <glyph glyph-name="exclam" unicode="!" horiz-adv-x="264" 
d="M134 133h-8c0 39 -25 337 -30 547h67c-5 -210 -29 -507 -29 -547zM131 -2c-26 0 -46 20 -46 46c0 24 20 45 46 45c25 0 45 -21 45 -45c0 -26 -20 -46 -45 -46z" />
    <glyph glyph-name="exclamdown" unicode="&#xa1;" horiz-adv-x="264" 
d="M134 527c25 0 45 -20 45 -46c0 -24 -20 -45 -45 -45c-26 0 -46 21 -46 45c0 26 20 46 46 46zM129 392h8c0 -40 24 -337 29 -547h-67c5 210 30 508 30 547z" />
    <glyph glyph-name="question" unicode="?" horiz-adv-x="387" 
d="M182 133h-8c31 125 111 244 115 361c2 65 -26 138 -106 138c-69 0 -91 -76 -91 -159l-78 -49l-2 2c56 159 152 253 185 253c135 0 156 -102 155 -153c-1 -134 -112 -239 -170 -393zM179 -2c-26 0 -46 20 -46 46c0 24 20 45 46 45c25 0 45 -21 45 -45
c0 -26 -20 -46 -45 -46z" />
    <glyph glyph-name="questiondown" unicode="&#xbf;" horiz-adv-x="387" 
d="M208 521c26 0 46 -20 46 -46c0 -24 -20 -45 -46 -45c-25 0 -45 21 -45 45c0 26 20 46 45 46zM205 386h8c-31 -125 -111 -244 -115 -361c-2 -65 26 -138 106 -138c69 0 91 76 91 159l78 49l2 -2c-56 -159 -152 -253 -185 -253c-135 0 -156 102 -155 153
c1 134 112 239 170 393z" />
    <glyph glyph-name="periodcentered" unicode="&#xb7;" horiz-adv-x="211" 
d="M106 -2c-26 0 -46 20 -46 46c0 24 20 45 46 45c25 0 45 -21 45 -45c0 -26 -20 -46 -45 -46z" />
    <glyph glyph-name="bullet" unicode="&#x2022;" horiz-adv-x="282" 
d="M141 181c-48 0 -87 39 -87 87s39 87 87 87s87 -39 87 -87s-39 -87 -87 -87z" />
    <glyph glyph-name="asterisk" unicode="*" horiz-adv-x="437" 
d="M226 505c52 13 171 8 158 -43l-22 -89l-7 1c15 74 -66 132 -126 120c28 -46 61 -160 7 -163l-91 -7l-1 7c75 10 104 103 75 157c-34 -40 -134 -107 -153 -58l-35 85l6 3c32 -68 131 -67 173 -23c-49 21 -144 94 -102 128l70 59l5 -5c-55 -51 -24 -144 30 -171
c5 54 46 164 91 136l78 -49l-4 -5c-65 36 -145 -23 -152 -83z" />
    <glyph glyph-name="numbersign" unicode="#" horiz-adv-x="652" 
d="M637 484v-18h-155l-68 -260h162v-18h-166l-49 -188h-20l49 188h-203l-49 -188h-20l49 188h-152v18h156l68 260h-163v18h167l50 191h20l-50 -191h203l50 191h20l-50 -191h151zM191 206h203l68 260h-203z" />
    <glyph glyph-name="slash" unicode="/" horiz-adv-x="284" 
d="M-14 -250l292 1000h20l-292 -1000h-20z" />
    <glyph glyph-name="backslash" unicode="\" horiz-adv-x="284" 
d="M-14 750h20l292 -1000h-20z" />
    <glyph glyph-name="exclamdown.case" horiz-adv-x="264" 
d="M134 680c25 0 45 -20 45 -46c0 -24 -20 -45 -45 -45c-26 0 -46 21 -46 45c0 26 20 46 46 46zM129 545h8c0 -40 24 -337 29 -547h-67c5 210 30 508 30 547z" />
    </font>
</defs>
</svg>
