<?xml version="1.0" standalone="no"?>
<!DOCTYPE svg PUBLIC "-//W3C//DTD SVG 1.1//EN" "http://www.w3.org/Graphics/SVG/1.1/DTD/svg11.dtd" >
<svg xmlns="http://www.w3.org/2000/svg" xmlns:xlink="http://www.w3.org/1999/xlink" version="1.1">
<metadata>
Created by FontForge 20201107 at Thu Jan 14 01:16:05 2021
 By Jimmy Wärting
</metadata>
<defs>
<font id="SaintMonicaRegular" horiz-adv-x="695" >
  <font-face 
    font-family="Saint Monica"
    font-weight="400"
    font-stretch="normal"
    units-per-em="1000"
    panose-1="0 0 0 0 0 0 0 0 0 0"
    ascent="800"
    descent="-200"
    x-height="488.088"
    cap-height="943.84"
    bbox="-67 -215.27 1446.06 943.84"
    underline-thickness="0"
    underline-position="0"
    unicode-range="U+000A-FB02"
  />
<missing-glyph horiz-adv-x="527" 
d="M50 700h427v-700h-427v700zM78 680l185 -309l186 309h-371zM251 350l-180 300v-601zM264 329l-185 -308h370zM276 350l181 -303v605z" />
    <glyph glyph-name="CA.liga" unicode="CA" horiz-adv-x="1285" 
d="M1193.01 73.7656c14.6924 -39.2939 52.3135 -65.2705 94.2666 -65.1055v-8.98242h-260.651v8.70703h91.5977l-79.5557 214.829l-18.0586 49.0469l-4.53027 -6.7793l-93.5166 -139.725l-9.47754 -14.0869c-2.01367 -2.85547 -4.18457 -5.41992 -6.24512 -8.18848
c-76.6699 -102.939 -186.239 -151.208 -251.882 -107.171c-53.1055 35.6289 -61.167 120.777 -27.292 210.228l-54.3164 -79.5879c-19.5215 -28.6055 -43.833 -53.8369 -72.6514 -73.0439c-46.7588 -31.1621 -107.014 -53.4678 -184.698 -53.4678
c-49.6055 0 -94.8301 15.6748 -135.854 39.876s-65.7764 54.4668 -92.7148 90.709c-26.9541 36.2031 -40.1836 75.7725 -50.3379 118.614c-10.1621 42.9043 -11.8057 87.6729 -4.93164 134.306c6.86621 46.6328 23.5957 92.4707 50.1719 137.522
c26.5605 45.0127 58.5879 81.8213 96.0889 110.396c37.4932 28.5742 77.4717 48.7881 119.936 60.6328c42.4092 11.8369 85.9668 14.7471 130.735 8.73047c17.7207 -2.39844 34.9141 -7.33008 52.0527 -12.5762c26.1436 -7.99121 51.8389 -18.1846 76.6221 -32.8057
c35.9277 -21.1963 65.4775 -47.8594 90.6064 -78.2979l-11.3262 -30.3984c-4.01953 9.60352 -7.39355 19.5762 -12.6553 28.4951c-17.7598 30.0215 -41.623 53.9082 -71.6758 71.6367c-20.3477 12.002 -42.2051 18.7266 -64.7549 23.0605
c-10.7598 2.07617 -21.3623 4.70312 -32.6172 5.02539c-34.8896 0.983398 -69.8271 -6.07129 -104.827 -21.1562c-35.0078 -15.0771 -68.8281 -37.752 -101.492 -68.0488c-32.6641 -30.2891 -61.9541 -67.3574 -87.8301 -111.222
c-25.9004 -43.9033 -44.1787 -87.4609 -54.8994 -130.703c-10.7197 -43.2432 -14.2041 -83.8037 -10.4756 -121.737c3.72852 -37.9258 14.4404 -71.9111 32.2002 -101.948c17.7041 -30.0449 41.5986 -53.9473 71.6514 -71.6758
c30.0527 -17.7363 84.5352 -35.2988 119.448 -35.2988c53.5303 0 98.4404 10.2168 136.114 26.7412c47.498 20.835 87.1699 56.2207 115.909 99.4004l92.6045 139.104l9.83887 14.7158l213.091 312.113l6.70117 9.83105l-28.1416 66.8379l88.3496 31.6104l126.26 -337.612
l97.127 145.474l3.79883 -10.1855l-97.1973 -145.238zM1012.34 275.218l4.61719 6.91211l-116.837 317.305l-2.86328 6.80371l-6.96094 -10.1543l-170.233 -248.444l-19.5137 -29.085l-16.2812 -24.2715l-0.275391 -0.259766
c-62.6777 -103.923 -31.0752 -182.7 30.9648 -224.322c65.1553 -43.707 141.935 -26.2227 214.428 81.4668l0.661133 0.983398l25.3027 37.7139z" />
    <glyph glyph-name="AI.liga" unicode="AI" horiz-adv-x="997" 
d="M982.478 688.074l-83.9561 0.00195312v-678.929h83.9531v-8.70703h-258.434v8.70703h82.8828v678.929h-7.40137c-57.3525 0 -110.938 -28.6055 -142.854 -76.2607l-164.39 -245.448l109.428 -292.592c14.7002 -39.2939 52.3115 -65.2803 94.2646 -65.1152v-8.98242
h-260.651v8.70703h91.5898l-79.5557 214.829l-18.0586 49.0469l-4.53027 -6.7793l-93.5166 -139.725l-9.47754 -14.0869c-2.01367 -2.85547 -4.18457 -5.41992 -6.24512 -8.18848c-76.6699 -102.939 -186.239 -151.208 -251.882 -107.171s-62.5361 163.722 3.63379 273.692
c1.76953 2.93359 3.30371 5.88281 5.16797 8.80859l9.83887 14.7158l213.099 312.121l6.70117 9.83105l-28.1416 66.8379l88.3496 31.6104l126.26 -337.604l163.643 244.591c31.9092 47.7021 85.5107 76.3311 142.903 76.3311h187.38v-9.1709zM421.043 275.21
l4.61816 6.9043l-116.821 317.305l-2.86328 6.80371l-6.96094 -10.1543l-170.233 -248.444l-19.5137 -29.085l-16.2812 -24.2715l-0.275391 -0.259766c-62.6855 -103.915 -31.083 -182.692 30.9492 -224.314c65.1553 -43.707 141.935 -26.2227 214.428 81.4668
l0.661133 0.983398l25.3018 37.7139zM933.378 820.766l-78.8896 -78.8896l-78.8896 78.8896l78.8896 78.8896z" />
    <glyph glyph-name="AC.liga" unicode="AC" horiz-adv-x="1343" 
d="M946.048 20.8164c266 0 325.009 237.017 334.824 261.854l39.6094 -104.961c-0.574219 -0.991211 -0.841797 -2.00586 -1.42383 -2.99707c-26.5762 -45.0518 -126.668 -174.276 -354.089 -174.276c-49.6055 0 -94.8301 15.6748 -135.854 39.876
s-65.7764 54.4668 -92.7148 90.71c-26.9541 36.2031 -40.1836 75.7725 -50.3379 118.614c-10.1621 42.9043 -11.8057 87.6729 -4.93164 134.306c6.86621 46.6328 23.5957 92.4707 50.1719 137.522c26.5605 45.0127 58.5879 81.8213 96.0889 110.396
c30.4697 23.2178 62.5986 40.8125 96.3477 52.9873c-273.936 -49.9512 -419.787 -295.95 -431.915 -317.265l0.456055 -1.21875l109.428 -292.592c14.7002 -39.2939 52.3115 -65.2803 94.2646 -65.1152v-8.98242h-260.651v8.70703h91.5898l-79.5557 214.829
l-18.0586 49.0469l-4.53027 -6.7793l-93.5166 -139.725l-9.47754 -14.0869c-2.01367 -2.85547 -4.18457 -5.41992 -6.24512 -8.18848c-76.6699 -102.939 -186.239 -151.208 -251.882 -107.171c-65.6348 44.0371 -62.5283 163.729 3.63379 273.7
c1.76953 2.93359 3.30371 5.88281 5.16797 8.80859l9.83887 14.7158l213.099 312.113l6.70117 9.83105l-28.1416 66.8379l88.3496 31.6104l124.906 -333.971c27.3389 45.8779 206.782 324.061 534.657 324.061v-0.046875
c18.5303 0.652344 37.2646 -0.197266 56.2197 -2.74512c17.7207 -2.39844 34.9141 -7.33008 52.0527 -12.5762c26.1436 -7.99121 51.8389 -18.1846 76.6221 -32.8057c35.9277 -21.1963 65.4775 -47.8594 90.6064 -78.2979l-11.3262 -30.3984
c-4.01953 9.60352 -7.39355 19.5762 -12.6553 28.4951c-17.7598 30.0215 -41.623 53.9082 -71.6758 71.6367c-20.3477 12.002 -42.2051 18.7266 -64.7549 23.0605c-10.7598 2.07617 -21.3623 4.70312 -32.6172 5.02539
c-34.8896 0.983398 -69.8271 -6.07129 -104.827 -21.1562c-35.0078 -15.0771 -68.8281 -37.752 -101.492 -68.0488c-32.6641 -30.2891 -61.9541 -67.3574 -87.8301 -111.222c-25.9004 -43.9033 -44.1787 -87.4609 -54.8994 -130.703s-14.2051 -83.8027 -10.4766 -121.736
c3.73633 -37.9258 14.4482 -71.9111 32.208 -101.948c17.7041 -30.0449 41.5986 -53.9473 71.6514 -71.6758c30.0527 -17.7363 62.4727 -28.0557 97.3857 -28.0557zM421.044 275.215l4.61719 6.91309l-116.821 317.297l-2.86328 6.80371l-6.96094 -10.1543
l-170.233 -248.445l-19.5137 -29.085l-16.2812 -24.2715l-0.275391 -0.259766c-62.6855 -103.915 -31.083 -182.7 30.957 -224.322c65.1553 -43.707 141.935 -26.2227 214.42 81.4746l0.661133 0.983398l25.3027 37.7139z" />
    <glyph glyph-name="AG.liga" unicode="AG" horiz-adv-x="1338" 
d="M830.154 237.298l477.142 -0.00390625v-237.851h-10.6416l0.0869141 170.792c-8.28223 -12.875 -18.6406 -27.2764 -27.7012 -38.9717c-19.71 -25.4277 -40.8594 -48.6934 -65.1553 -67.208c-37.4932 -28.5664 -77.4795 -48.7803 -119.904 -60.6484
c-6.8584 -1.91113 -13.9531 -2.12305 -20.874 -3.57031c-35.8965 -7.4873 -72.4141 -10.1846 -109.876 -5.10352c-44.7529 6.04785 -87.6729 21.1494 -128.697 45.3506s-75.002 54.4668 -101.94 90.71c-26.9541 36.2031 -45.4531 75.7725 -55.6074 118.614
c-10.1621 42.9043 -11.8057 87.6729 -4.93164 134.306c6.86621 46.6328 23.5957 92.4707 50.1719 137.522c26.5605 45.0127 58.5879 81.8213 96.0889 110.396c23.4463 17.8701 47.8672 32.4678 73.2637 43.7939c-246.746 -65.7686 -378.268 -287.652 -389.759 -307.842
l0.456055 -1.21875l109.428 -292.592c14.7002 -39.2939 52.3115 -65.2803 94.2646 -65.1152v-8.98242h-260.651v8.70703h91.5898l-79.5557 214.829l-18.0586 49.0469l-4.53027 -6.7793l-93.5166 -139.725l-9.47754 -14.0869
c-2.01367 -2.85547 -4.18457 -5.41992 -6.24512 -8.18848c-76.6699 -102.939 -186.239 -151.208 -251.882 -107.171c-65.6348 44.0371 -62.5283 163.729 3.63379 273.7c1.76953 2.93359 3.30371 5.88281 5.16797 8.80859l9.83887 14.7158l213.099 312.113l6.70117 9.83105
l-28.1416 66.8379l88.3496 31.6104l124.915 -333.963c26.4902 44.4463 195.757 306.962 504.473 323.259c8.62793 0.605469 17.3193 0.77832 26.042 0.683594c1.40039 0.0078125 2.74512 0.110352 4.14551 0.110352v-0.149414
c12.293 -0.291016 24.6729 -1.20312 37.1475 -2.87793c17.7207 -2.39844 34.9141 -7.33008 52.0527 -12.5762c26.1436 -7.99121 51.8389 -18.1846 76.6221 -32.8057c35.9277 -21.1963 65.4775 -47.8594 90.6064 -78.2979l-11.3262 -30.3984
c-4.01953 9.60352 -7.39355 19.5762 -12.6553 28.4951c-17.7598 30.0215 -41.623 53.9082 -71.6758 71.6367c-20.3477 12.002 -42.2051 18.7266 -64.7549 23.0605c-10.7598 2.07617 -21.3623 4.70312 -32.6172 5.02539
c-34.8896 0.983398 -69.8271 -6.07129 -104.827 -21.1562c-35.0078 -15.0771 -68.8281 -37.752 -101.492 -68.0488c-32.6641 -30.2891 -61.9541 -67.3574 -87.8301 -111.222c-25.9004 -43.9033 -44.1787 -87.4609 -54.8994 -130.703s-14.2051 -83.8027 -10.4766 -121.736
c3.72852 -37.9258 14.4404 -71.9111 32.2002 -101.948c17.7041 -30.0449 41.5986 -53.9473 71.6514 -71.6758c30.0527 -17.7363 62.4883 -27.0645 97.3857 -28.0557c34.874 -1.01465 69.8027 6.04004 104.811 21.125c20.4102 8.80859 40.3252 21 59.9648 34.9766
c14 9.97266 27.9209 20.457 41.5195 33.0723c29.1719 27.0566 68.293 77.3389 92.0693 115.249c-57.0146 0.605469 -57.0146 0.605469 -86.8711 0.991211h-308.314v1.17188h-0.03125zM421.041 275.212l4.61816 6.91211l-116.821 317.297l-2.86328 6.80371l-6.96094 -10.1543
l-170.233 -248.444l-19.5137 -29.085l-16.2812 -24.2715l-0.275391 -0.259766c-62.6855 -103.915 -31.083 -182.7 30.957 -224.322c65.1553 -43.707 141.935 -26.2227 214.42 81.4746l0.661133 0.983398l25.3018 37.7139z" />
    <glyph glyph-name="CO.liga" unicode="CO" horiz-adv-x="1376" 
d="M1338.07 444.611c10.1299 -42.8809 11.7783 -87.6523 4.91992 -134.309c-6.87402 -46.6328 -23.6035 -92.4707 -50.1562 -137.483c-26.5762 -45.0518 -58.6113 -81.8525 -96.1045 -110.427c-37.4932 -28.5664 -77.4795 -48.7803 -119.904 -60.6484
c-42.4482 -11.8135 -86.0605 -14.7393 -130.75 -8.6748c-44.7451 6.04785 -87.6729 21.1494 -128.697 45.3506c-41.0166 24.2012 -75.002 54.4746 -101.933 90.7168c-26.9541 36.2031 -45.4531 75.7725 -55.6074 118.614
c-0.298828 1.25098 -0.510742 2.51758 -0.793945 3.76855l-85.6826 -125.544c-19.5215 -28.6055 -43.833 -53.8369 -72.6514 -73.0439c-46.7588 -31.1621 -107.014 -53.4678 -184.698 -53.4678c-49.6055 0 -94.8301 15.6748 -135.854 39.876
s-65.7764 54.4668 -92.7148 90.709c-26.9541 36.2031 -40.1836 75.7725 -50.3379 118.614c-10.1621 42.9043 -11.8057 87.6729 -4.93164 134.306c6.86621 46.6328 23.5957 92.4707 50.1719 137.522c26.5605 45.0127 58.5879 81.8213 96.0889 110.396
c37.4932 28.5742 77.4717 48.7881 119.936 60.6328c42.4092 11.8369 85.9668 14.7471 130.735 8.73047c17.7207 -2.39844 34.9141 -7.33008 52.0527 -12.5762c26.1436 -7.99121 51.8389 -18.1846 76.6221 -32.8057c35.9277 -21.1963 65.4775 -47.8594 90.6064 -78.2979
l-11.3262 -30.3984c-4.01953 9.60352 -7.39355 19.5762 -12.6553 28.4951c-17.7598 30.0215 -41.6152 53.9082 -71.6758 71.6367c-20.3477 12.002 -42.2051 18.7266 -64.7549 23.0605c-10.7598 2.07617 -21.3623 4.70312 -32.6172 5.02539
c-34.8896 0.983398 -69.8271 -6.07129 -104.827 -21.1562c-35.0078 -15.0771 -68.8281 -37.752 -101.492 -68.0488c-32.6641 -30.2891 -61.9541 -67.3574 -87.8301 -111.222c-25.9004 -43.9033 -44.1787 -87.4609 -54.8994 -130.703s-14.2051 -83.8027 -10.4766 -121.736
c3.72852 -37.9258 14.4404 -71.9111 32.2002 -101.948c17.7041 -30.0449 41.5986 -53.9473 71.6514 -71.6758c30.0527 -17.7363 84.5352 -35.2988 119.448 -35.2988c53.5303 0 98.4404 10.2168 136.114 26.7412c47.498 20.835 87.1699 56.2207 115.909 99.4004
l84.8887 127.494c-6.62988 37.2412 -7.04688 75.8438 -1.14844 115.822c6.86621 46.6328 23.5957 92.4707 50.1719 137.522c26.5527 45.0205 58.5879 81.8213 96.0811 110.396c37.501 28.5742 77.4795 48.7881 119.943 60.6328
c42.4092 11.8369 85.9668 14.7471 130.735 8.73047c44.7451 -6.04785 87.6494 -21.1807 128.674 -45.3818s75.0176 -54.4346 101.956 -90.6768c26.875 -36.251 45.4287 -75.8047 55.6143 -118.67zM1268.83 350.038c10.7197 43.2432 14.1758 83.832 10.4873 121.75
c-3.73633 37.9336 -14.4482 71.9189 -32.1846 101.987c-17.7598 30.0215 -41.6152 53.9082 -71.6758 71.6367s-62.5283 27.0879 -97.3711 28.0869c-34.8975 0.983398 -69.8262 -6.07129 -104.826 -21.1562c-35.0078 -15.0771 -68.8359 -37.752 -101.492 -68.0488
c-32.6641 -30.2891 -61.9541 -67.3574 -87.8301 -111.222c-25.9004 -43.9033 -44.1787 -87.4609 -54.8994 -130.703s-14.2051 -83.8105 -10.4766 -121.744c3.72852 -37.9258 14.4404 -71.9111 32.2002 -101.948c17.6963 -30.0449 41.5986 -53.9473 71.6514 -71.6758
c30.0527 -17.7363 62.4883 -27.0645 97.3857 -28.0557c34.874 -1.02246 69.8027 6.03223 104.811 21.1172c34.9688 15.1016 68.8281 37.7529 101.484 68.0498c32.6719 30.2891 61.9541 67.3574 87.8545 111.261c25.876 43.8643 44.1621 87.4219 54.8818 130.665z" />
    <glyph glyph-name="OV.liga" unicode="OV" horiz-adv-x="1365" 
d="M1300.58 687.592c65.0684 -43.6514 61.248 -163.408 -5.29102 -273.851c-1.77734 -2.94141 -3.31152 -5.90625 -5.18359 -8.83984l-9.88672 -14.7783l-221.381 -324.862l-56.7471 -83.2607l-3.86133 10.0752l-121.194 316.172l-3.83789 10.0205l-1.32129 3.4375
c-41.9844 -35.7393 -89.207 -54.6396 -141.195 -56.3232c-2.5166 -0.0791016 -5.04102 -0.118164 -7.56543 -0.118164c-4.49121 0 -8.98242 0.165039 -13.4814 0.416992c-8.9502 -30.3047 -22.0771 -60.2705 -39.5381 -89.8672
c-26.5762 -45.0518 -58.6113 -81.8525 -96.1045 -110.427c-37.4932 -28.5664 -77.4795 -48.7803 -119.904 -60.6484c-42.4482 -11.8135 -86.0605 -14.7393 -130.75 -8.6748c-44.7451 6.04785 -87.6729 21.1494 -128.697 45.3506
c-41.0166 24.2012 -75.002 54.4746 -101.933 90.7168c-26.9541 36.2031 -45.4531 75.7725 -55.6074 118.614c-10.1621 42.9043 -11.8057 87.6729 -4.93164 134.306c6.86621 46.6328 23.5957 92.4707 50.1719 137.522c26.5527 45.0127 58.5879 81.8213 96.0811 110.396
c37.501 28.5742 77.4795 48.7881 119.943 60.6328c42.4092 11.8369 85.9668 14.7471 130.735 8.73047c44.7451 -6.04785 87.6494 -21.1807 128.674 -45.3818s75.0176 -54.4346 101.956 -90.6777c26.875 -36.251 45.4287 -75.8047 55.6143 -118.67
c10.1377 -42.8809 11.7812 -87.6494 4.90723 -134.282c-1.89551 -12.8203 -4.60156 -25.5859 -7.9834 -38.2881c6.04785 -0.283203 12.0957 -0.385742 18.1123 -0.189453c50.7539 1.64355 96.8672 20.5518 137.876 56.2988l-137.546 358.195h-72.7061v8.28223
l0.0791016 0.416992h271.262v-8.69922h-94.4609l104.276 -272.969l94.2559 140.103l9.52441 14.1416c2.02148 2.86328 4.2002 5.44336 6.26855 8.22754c76.9375 103.45 186.295 152.403 251.371 108.752zM591.219 222.365c12.2148 20.7168 22.6836 41.3643 31.5166 61.9473
c-88.2783 31.6963 -172.389 97.6689 -234.704 156.107c-60.5537 56.7939 -109.42 114.43 -136.893 148.745c-0.700195 -0.636719 -1.40039 -1.23438 -2.10059 -1.87891c-32.6641 -30.2891 -61.9541 -67.3574 -87.8301 -111.222
c-25.9004 -43.9033 -44.1787 -87.4609 -54.8994 -130.703s-14.2051 -83.8105 -10.4766 -121.744c3.72852 -37.9258 14.4404 -71.9111 32.2002 -101.948c17.6963 -30.0449 41.5986 -53.9473 71.6514 -71.6758c30.0527 -17.7363 62.4883 -27.0645 97.3857 -28.0557
c34.874 -1.02246 69.8027 6.03223 104.811 21.1172c34.9688 15.1016 68.8281 37.7529 101.484 68.0498c32.6719 30.2891 61.9541 67.3574 87.8545 111.261zM646.094 353.03c10.7197 43.251 14.1748 83.833 10.4863 121.751
c-3.73633 37.9336 -14.4482 71.9189 -32.1846 101.987c-17.7598 30.0215 -41.6152 53.9082 -71.6758 71.6367s-62.5283 27.0879 -97.3711 28.0869c-34.8975 0.983398 -69.8271 -6.07129 -104.827 -21.1562c-31.7363 -13.6699 -62.4893 -33.6553 -92.2979 -59.8301
c57.1172 -71.1406 209.261 -245.708 368.121 -302.542c8.17188 20.0879 14.8018 40.1123 19.749 60.0664zM1269.83 389.602c63.0312 104.331 32.0518 182.952 -29.4385 224.221c-64.5811 43.3213 -141.125 25.3574 -213.933 -82.8125l-0.661133 -0.991211l-25.4121 -37.8789
l-57.4551 -85.6357l121.438 -317.847l169.242 247.076l19.5918 29.2188l16.3516 24.374z" />
    <glyph glyph-name="OC.liga" unicode="OC" horiz-adv-x="1469" 
d="M1071.62 21.0898c266 0 325.013 237.009 334.836 261.815l39.6094 -104.961c-0.574219 -0.991211 -0.841797 -2.00586 -1.42383 -2.99707c-26.5762 -45.0518 -126.668 -174.276 -354.089 -174.276c-49.6055 0 -94.8301 15.6748 -135.854 39.876
c-41.0244 24.209 -65.7764 54.4746 -92.7148 90.7178c-26.9541 36.2031 -40.1836 75.7725 -50.3379 118.614c-2.36719 9.98828 -4.23145 20.0947 -5.6709 30.2881c-23.8389 -9.63477 -48.9521 -14.9277 -75.3008 -15.7773
c-2.5166 -0.0791016 -5.04102 -0.118164 -7.56543 -0.118164c-4.4834 0 -8.97461 0.165039 -13.4736 0.416992c-8.9502 -30.3047 -22.0771 -60.2705 -39.5381 -89.8672c-26.5762 -45.0518 -58.6113 -81.8525 -96.1045 -110.427
c-37.4932 -28.5664 -77.4795 -48.7803 -119.904 -60.6484c-42.4482 -11.8135 -86.0605 -14.7393 -130.75 -8.6748c-44.7451 6.04785 -87.6729 21.1494 -128.697 45.3506s-75.002 54.4746 -101.933 90.7168c-26.9541 36.2031 -45.4531 75.7725 -55.6074 118.614
c-10.1699 42.9043 -11.8057 87.6729 -4.93164 134.306c6.86621 46.6328 23.5957 92.4707 50.1719 137.522c26.5527 45.0127 58.5879 81.8213 96.0811 110.396c37.501 28.5742 77.4795 48.7881 119.943 60.6328c42.4092 11.8369 85.9668 14.7471 130.735 8.73047
c44.7529 -6.04785 87.6494 -21.1807 128.682 -45.3818c41.0244 -24.2012 75.0176 -54.4346 101.956 -90.6777c26.875 -36.251 45.4287 -75.8047 55.6143 -118.67c10.1377 -42.8809 11.7812 -87.6494 4.90723 -134.282
c-1.89551 -12.8438 -4.60938 -25.6172 -7.99902 -38.3428c3.59473 -0.165039 7.18164 -0.251953 10.7686 -0.251953c2.46973 0 4.9082 0.0390625 7.3623 0.118164c26.0498 0.849609 50.8564 6.2998 74.4043 16.1709c-3.41309 30.5088 -2.83105 61.8906 1.92773 94.1924
c6.86621 46.6328 23.5957 92.4707 50.1719 137.522c26.5605 45.0127 58.5879 81.8213 96.0889 110.396c37.4932 28.5742 77.4717 48.7881 119.936 60.6328c42.4092 11.8369 85.9668 14.7471 130.735 8.73047c17.7207 -2.39844 34.9141 -7.33008 52.0527 -12.5762
c26.1436 -7.99121 51.8389 -18.1846 76.6221 -32.8057c35.9277 -21.1963 65.4775 -47.8594 90.6064 -78.2979l-11.3262 -30.3984c-4.01953 9.60352 -7.39355 19.5762 -12.6553 28.4951c-17.7598 30.0215 -41.6152 53.9082 -71.6758 71.6367
c-20.3477 12.002 -42.2051 18.7266 -64.7549 23.0605c-10.7598 2.07617 -21.3623 4.70312 -32.6172 5.02539c-34.8896 0.983398 -69.8271 -6.07129 -104.827 -21.1562c-35.0078 -15.0771 -68.8281 -37.752 -101.492 -68.0488
c-32.6641 -30.2891 -61.9541 -67.3574 -87.8301 -111.222c-25.8926 -43.9033 -44.1787 -87.4609 -54.8994 -130.703c-0.283203 -1.15625 -0.511719 -2.29688 -0.787109 -3.45312c-1.30566 -5.42676 -2.49316 -10.8145 -3.5625 -16.1631
c-7.21191 -35.9434 -9.28809 -69.9834 -6.12598 -102.12c3.72852 -37.9258 14.4404 -71.9111 32.2002 -101.948c17.7041 -30.0527 41.5986 -53.9473 71.6514 -71.6758c30.0527 -17.7363 62.4727 -28.0557 97.3857 -28.0557zM591.203 221.376
c12.2227 20.7168 22.6914 41.3652 31.5322 61.9482c-88.2861 31.6963 -172.396 97.6689 -234.712 156.107c-60.5537 56.7939 -109.42 114.43 -136.893 148.745c-0.700195 -0.636719 -1.40039 -1.23438 -2.10059 -1.87891
c-32.6719 -30.2891 -61.9541 -67.3574 -87.8301 -111.222c-25.8926 -43.9033 -44.1787 -87.4609 -54.8994 -130.703c-10.7207 -43.2432 -14.2051 -83.8115 -10.4766 -121.745c3.72852 -37.9258 14.4404 -71.9111 32.2002 -101.948
c17.6963 -30.0449 41.5908 -53.9473 71.6514 -71.6758c30.0527 -17.7363 62.4883 -27.0645 97.3857 -28.0557c34.874 -1.02246 69.8027 6.03223 104.811 21.1172c34.9688 15.1016 68.8281 37.7529 101.484 68.0498c32.6641 30.2891 61.9463 67.3574 87.8467 111.261z
M646.086 352.042c10.7197 43.251 14.1729 83.833 10.4844 121.743c-3.72852 37.9336 -14.4482 71.9189 -32.1846 101.987c-17.7598 30.0215 -41.623 53.9082 -71.6758 71.6367c-30.0605 17.7285 -62.5283 27.0879 -97.3711 28.0869
c-34.8975 0.983398 -69.8262 -6.07129 -104.826 -21.1562c-31.7363 -13.6699 -62.4893 -33.6553 -92.2979 -59.8301c57.1016 -71.1406 209.222 -245.724 368.113 -302.558c8.17188 20.0957 14.8105 40.1279 19.7578 60.0898z" />
    <glyph glyph-name="AN.liga" unicode="AN" horiz-adv-x="1393" 
d="M1189.45 687.311l-0.00195312 9.16406h192.987v-9.16309h-87.2402v-687.644h-18.5537l-448.181 653.21v-557.263c0 -48.1816 39.0586 -87.2402 87.2402 -87.2402v-8.70703h-192.987v8.70703h87.2402v678.929h-18.9707
c-55.8584 -4.80566 -106.927 -34.583 -138.442 -81.6406l-160.269 -239.298l109.428 -292.592c14.7002 -39.2939 52.3115 -65.2803 94.2646 -65.1152v-8.98242h-260.651v8.70703h91.5977l-79.5557 214.829l-18.0586 49.0469l-4.53809 -6.7793l-93.5166 -139.725
l-9.47754 -14.0869c-2.01367 -2.85547 -4.18457 -5.41992 -6.24512 -8.18848c-76.6699 -102.939 -186.239 -151.208 -251.882 -107.171c-65.6348 44.0371 -62.5283 163.729 3.63379 273.7c1.76953 2.93359 3.30371 5.88281 5.16797 8.80859l9.83887 14.7158l213.099 312.113
l6.70117 9.83105l-28.1416 66.8379l88.3496 31.6104l126.26 -337.604l159.521 238.44c23.0293 34.418 56.5352 59.5791 94.7129 72.5488c14.0547 4.77441 28.7393 7.88086 43.7852 9.1709h123.719l5.63184 -8.40039l360.728 -537.898v449.935
c0 48.1582 -39.0352 87.1934 -87.1934 87.1934zM421.038 275.217l4.61719 6.91309l-116.821 317.297l-2.86328 6.80371l-6.96094 -10.1543l-170.233 -248.445l-19.5137 -29.085l-16.2812 -24.2715l-0.275391 -0.259766c-62.6855 -103.915 -31.083 -182.7 30.957 -224.322
c65.1553 -43.707 141.935 -26.2227 214.42 81.4746l0.661133 0.983398l25.3027 37.7139z" />
    <glyph glyph-name="AT.liga" unicode="AT" horiz-adv-x="1173" 
d="M802.5 697.245l360.725 0.00195312v-156.973h-9.16309c0 94.6182 -87.0752 147.795 -181.583 147.795h-50.2344v-679.676h81.7744v-8.71484h-256.255v8.71484h81.7822v679.668l-10.0518 0.0078125h-12.8984c-61.8594 -0.110352 -119.621 -30.9893 -154.055 -82.4043
l-160.269 -239.298l109.428 -292.592c14.7002 -39.2939 52.3115 -65.2803 94.2646 -65.1152v-8.98242h-260.651v8.70703h91.582l-79.5557 214.829l-18.0586 49.0469l-4.53027 -6.7793l-93.5166 -139.725l-9.47754 -14.0869
c-2.01367 -2.85547 -4.18457 -5.41992 -6.24512 -8.18848c-76.6621 -102.939 -186.231 -151.208 -251.874 -107.171c-65.6348 44.0371 -62.5283 163.729 3.6416 273.7c1.76953 2.93359 3.30371 5.88281 5.16797 8.80859l9.83887 14.7158l213.091 312.113l6.70117 9.83105
l-28.1416 66.8379l88.3496 31.6104l126.26 -337.604l109.688 163.949l0.574219 0.857422l49.2598 73.626c20.7959 31.0908 50.1562 54.6152 83.7637 68.4424c22.1172 9.09961 46.0586 14.0469 70.6689 14.0469zM421.036 275.218l4.61719 6.91211l-116.821 317.297
l-2.86328 6.80371l-6.96094 -10.1543l-170.233 -248.444l-19.5137 -29.085l-16.2812 -24.2715l-0.275391 -0.259766c-62.6855 -103.915 -31.083 -182.7 30.957 -224.322c65.1553 -43.707 141.927 -26.2227 214.42 81.4746l0.661133 0.983398l25.3027 37.7139z" />
    <glyph glyph-name="AO.liga" unicode="AO" horiz-adv-x="1359" 
d="M1265.96 553.241c26.9541 -36.2031 45.4512 -75.7695 55.5977 -118.604c10.1699 -42.9043 11.8057 -87.6729 4.93164 -134.306c-6.86621 -46.6328 -23.5957 -92.4707 -50.1719 -137.522c-26.5527 -45.0205 -58.5879 -81.8213 -96.0811 -110.396
c-37.501 -28.5664 -77.4795 -48.7803 -119.943 -60.625c-42.4092 -11.8369 -85.9668 -14.7471 -130.735 -8.73047c-44.7451 6.04785 -87.6494 21.1807 -128.674 45.3818s-75.0176 54.4346 -101.956 90.6777c-26.875 36.251 -45.4287 75.8047 -55.6143 118.67
c-10.1387 42.8809 -11.7822 87.6494 -4.9082 134.282c1.8877 12.8203 4.59375 25.5771 7.97559 38.2793c-6.04785 0.275391 -12.0879 0.385742 -18.1045 0.197266c-51.9648 -1.69141 -93.9414 -19.0342 -132.071 -54.6953l105.495 -282.076
c14.7002 -39.2939 52.3115 -65.2803 94.2646 -65.1152v-8.98242h-260.651v8.70703h91.5898l-79.5557 214.829l-18.0586 49.0469l-4.53027 -6.7793l-93.5166 -139.725l-9.47754 -14.0869c-2.01367 -2.85547 -4.18457 -5.41992 -6.24512 -8.18848
c-76.6699 -102.939 -186.239 -151.208 -251.882 -107.171c-65.6348 44.0371 -62.5283 163.729 3.6416 273.7c1.76953 2.93359 3.30371 5.88281 5.16797 8.80859l9.83887 14.7158l213.091 312.113l6.70117 9.83105l-28.1416 66.8379l88.3496 31.6104l124.898 -333.955
l4.63281 -12.3799l0.456055 -1.21875l0.337891 -0.919922c39.0664 35.4873 82.2617 52.7988 135.375 54.5215c7 0.228516 14.0156 0.0947266 21.0391 -0.298828c8.9502 30.3047 22.0771 60.2705 39.5381 89.875c26.5762 45.0518 58.6113 81.8525 96.1045 110.427
c37.4932 28.5664 77.4795 48.7803 119.904 60.6484c42.4482 11.8135 86.0605 14.7393 130.75 8.6748c44.7529 -6.04785 87.6729 -21.1494 128.705 -45.3428c41.0166 -24.209 75.002 -54.4746 101.933 -90.7178zM421.038 275.219l4.61719 6.91309l-116.821 317.297
l-2.86328 6.80371l-6.96094 -10.1543l-170.233 -248.445l-19.5137 -29.085l-16.2812 -24.2715l-0.275391 -0.259766c-62.6855 -103.915 -31.083 -182.7 30.957 -224.322c65.1553 -43.707 141.935 -26.2227 214.42 81.4746l0.661133 0.983398l25.3027 37.7139z
M1008.13 30.0615c31.7363 13.6621 62.4805 33.6416 92.2891 59.8252c-57.1406 71.1094 -209.323 245.582 -368.137 302.479c-8.16406 -20.0645 -14.7861 -40.0654 -19.7256 -59.9961c-10.7197 -43.251 -14.1729 -83.835 -10.4766 -121.745
c3.73633 -37.9336 14.4482 -71.9189 32.1846 -101.987c17.7598 -30.0371 41.623 -53.916 71.6758 -71.6445s62.5205 -27.0879 97.3633 -28.0869c34.8975 -0.983398 69.8262 6.07129 104.826 21.1562zM1252.35 340.037c10.7207 43.2432 14.2061 83.8096 10.4775 121.735
s-14.4404 71.9111 -32.2002 101.948c-17.6963 30.0449 -41.5986 53.9395 -71.6514 71.6758s-62.4883 27.0645 -97.3857 28.0557c-34.874 1.02246 -69.8027 -6.03223 -104.811 -21.1172c-34.9688 -15.1016 -68.8281 -37.7529 -101.484 -68.0498
c-32.6641 -30.2969 -61.9463 -67.3574 -87.8467 -111.261c-12.2305 -20.7246 -22.6992 -41.3789 -31.54 -61.9619c88.2393 -31.7119 172.428 -97.6611 234.72 -156.084c60.5459 -56.7939 109.42 -114.43 136.893 -148.745
c0.700195 0.636719 1.40039 1.23438 2.10059 1.87891c32.6641 30.2891 61.9541 67.3574 87.8301 111.222c25.8926 43.9033 44.1787 87.4609 54.8984 130.703z" />
    <glyph glyph-name="AR.liga" unicode="AR" horiz-adv-x="1338" 
d="M1085.39 321.896l192.221 -313.512h62.7959v-8.70703h-243.159v8.70703h74.8682l-181.779 312.986h-105.755v-312.994h88.3105v-8.70703h-262.783v8.70703h82.8906v678.929h-2.02148c-55.8584 -4.80566 -106.927 -34.583 -138.442 -81.6406l-160.269 -239.298
l109.428 -292.592c14.7002 -39.2939 52.3115 -65.2803 94.2646 -65.1152v-8.98242h-260.651v8.70703h91.5977l-79.5557 214.829l-18.0586 49.0469l-4.53809 -6.7793l-93.5166 -139.725l-9.47754 -14.0869c-2.01367 -2.85547 -4.18457 -5.41992 -6.24512 -8.18848
c-76.6699 -102.939 -186.239 -151.208 -251.882 -107.171c-65.6348 44.0371 -62.5283 163.729 3.6416 273.7c1.76953 2.93359 3.30371 5.88281 5.16797 8.80859l9.83887 14.7158l213.091 312.113l6.70117 9.83105l-28.1416 66.8379l88.3496 31.6104l126.268 -337.604
l159.514 238.433c23.0293 34.418 56.5352 59.5791 94.7129 72.5488c14.0547 4.77441 28.7393 7.88086 43.7852 9.1709h200.554c119.96 0 236.632 -58.8711 236.632 -183.18c0 -68.0498 -39.6328 -114.659 -99.1797 -146.694
c-28.0869 -15.1094 -80.4297 -30.5254 -115.642 -39.6328c-0.204102 -0.046875 -0.392578 -0.125977 -0.588867 -0.172852c0.353516 -0.0390625 41.0713 -14.833 77.0547 -4.89941zM421.035 275.218l4.61816 6.91211l-116.821 317.297l-2.86328 6.80371l-6.96094 -10.1543
l-170.233 -248.444l-19.5137 -29.085l-16.2812 -24.2715l-0.275391 -0.259766c-62.6855 -103.915 -31.083 -182.7 30.957 -224.322c65.1553 -43.707 141.927 -26.2227 214.42 81.4746l0.661133 0.983398l25.3018 37.7139zM884.594 338.822
c0 0 123.412 -21.3232 200.932 56.2041c27.1348 27.127 38.9873 65.1318 38.9873 113.92c0 123.2 -62.1504 170.084 -153.787 170.084h-86.1318v-340.208z" />
    <glyph glyph-name="AL.liga" unicode="AL" horiz-adv-x="1252" 
d="M1226.38 216.684l9.61816 0.00195312v-217.016h-507.052v8.70703h82.8828v678.929h-20.8428c-55.8584 -4.80566 -106.927 -34.583 -138.442 -81.6406l-160.269 -239.298l109.436 -292.592c14.7002 -39.2939 52.3115 -65.2803 94.2646 -65.1152v-8.98242h-260.651v8.70703
h91.5742l-79.5557 214.829l-18.0586 49.0469l-4.53027 -6.7793l-93.5166 -139.725l-9.47754 -14.0869c-2.00586 -2.85547 -4.17676 -5.41992 -6.24512 -8.18848c-76.6621 -102.939 -186.231 -151.208 -251.874 -107.171c-65.6348 44.0371 -62.5283 163.729 3.6416 273.7
c1.76953 2.93359 3.30371 5.88281 5.16797 8.80859l9.83887 14.7158l213.091 312.113l6.70117 9.83105l-28.1416 66.8379l88.3496 31.6104l126.26 -337.604l159.521 238.433c23.3594 34.9131 57.4941 59.9795 96.3555 72.5479
c18.5068 5.98535 38.0674 9.1709 58.0762 9.1709h184.871v-9.16309h-83.9531v-678.929h104.646c115.044 0 218.313 93.2568 218.313 208.301zM421.038 275.218l4.61719 6.91211l-116.821 317.297l-2.86328 6.80371l-6.96094 -10.1543l-170.233 -248.444l-19.5137 -29.085
l-16.2812 -24.2715l-0.275391 -0.259766c-62.6855 -103.915 -31.083 -182.7 30.957 -224.322c65.1553 -43.707 141.927 -26.2227 214.42 81.4746l0.661133 0.983398l25.3027 37.7139z" />
    <glyph glyph-name="fh.liga" unicode="fh" horiz-adv-x="876" 
d="M792.817 10.7041l72.0117 -1.06836v-9.62695h-233.352v9.62695l74.1445 -0.267578v323.258c0 87.2324 -34.8975 138.466 -113.479 138.466c-44.666 0 -84.9746 -20.7324 -123.16 -64.3291v-397.403l73.083 0.267578v-9.62695h-234.5v9.62695h74.1445v735.023
c-34.1504 20.04 -67.9785 21.0547 -99.5332 21.0547c-67.6641 -1.06152 -105.755 -59.083 -105.755 -145.215v-4.39648c0 -69.835 56.6133 -126.44 126.44 -126.44v-9.4541h-126.44v-470.573h118.804v-9.62695h-280.228v9.62695h75.207v470.573h-75.207v9.1709h155.439
l-15.7617 18.0508c-87.6338 100.344 -21.7783 258.237 111.237 265.528c3.40527 0.180664 5.98535 0.219727 8.62793 0.219727c18.8838 0 39.9072 -1.49414 61.3242 -5.89844c38.5947 -7.94336 78.0469 -10.8691 117.208 -6.54297l13.7012 1.51758v-334.789
c44.7529 47.9932 102.554 73.0752 165.773 73.0752c105.747 0 160.269 -69.7881 160.269 -167.906v-321.921z" />
    <glyph glyph-name="fj.liga" unicode="fj" horiz-adv-x="563" 
d="M176.425 614.822c0 -69.835 56.6113 -126.441 126.438 -126.441v-9.4541h-126.44v-470.573h118.804v-9.62695h-280.228v9.62695h75.207v470.573h-75.207v9.1709h155.439l-15.9189 18.2314c-89.8984 102.932 -17.916 264.797 118.741 265.567h1.28223
c41.4648 0 93.2725 -7.09473 136.814 -36.6201l17.9404 -11.5693l32.7666 32.7666l69.1504 -69.1582l-69.1504 -69.1582l-69.1504 69.1582l25.5537 25.5537l-7.07031 7.07031c-6.78809 6.7959 -13.9766 13.2295 -21.9443 18.5938
c-36.7695 24.7598 -73.335 25.9004 -107.273 25.9004c-67.6641 -1.06152 -105.755 -59.083 -105.755 -145.215v-4.39648zM346.499 478.935l0.000976562 9.44629h161.346v-508.216c0 -137.365 -79.5557 -185.351 -183.18 -195.166l-3.28809 7.35352
c68.7256 10.8779 99.2656 62.4424 99.2656 136.587v550.365z" />
    <glyph glyph-name="fb.liga" unicode="fb" horiz-adv-x="908" 
d="M873.703 262.625c4.97852 -33.7568 3.79102 -66.168 -3.5625 -97.2275c-7.3457 -31.0127 -16.9258 -59.6572 -36.4395 -85.8643c-19.5059 -26.2383 -37.4229 -48.1504 -67.1221 -65.666c-29.6914 -17.5156 -62.4346 -28.8652 -98.3467 -28.8652
c-99.8877 0 -165.436 34.4648 -206.161 68.8359v-51.7217c-43.0771 0.118164 -43.0771 0.118164 -86.1787 0.456055v746.325c-4.55371 2.39844 -9.09961 4.4668 -13.6299 6.25977c-12.042 4.7666 -23.9971 7.55859 -35.7793 9.20215
c-15.1172 2.10742 -29.9512 2.33594 -44.3047 2.33594c-67.6641 -1.06152 -105.755 -59.083 -105.755 -145.215v-4.39648c0 -69.835 56.6133 -126.44 126.44 -126.44v-9.4541h-126.44v-470.573h118.804v-9.62695h-280.228v9.62695h75.207v470.573h-75.207v9.1709h155.439
l-12.7412 14.5898c-85.2822 97.6543 -27.6855 251.812 100.926 268.234c6.75586 0.857422 11.2236 0.975586 15.9189 0.975586c11.8291 0 24.5 -0.582031 37.5879 -2.09961c38.5312 -4.46777 77.2041 -7.7002 115.995 -7.7002h33.9385v-327.427
c9.69824 8.09277 19.8125 15.832 31.1465 22.5176c22.4629 13.2451 45.9561 21.4717 69.8271 27.8506c8.66699 2.3125 17.4365 4.30273 26.3398 5.3877c31.3506 3.83008 61.875 1.59668 91.6211 -6.70898c30.7451 -8.57324 59.6807 -23.2021 86.8232 -43.8877
c27.1504 -20.6855 50.3369 -47.3252 69.5596 -79.9102c19.2383 -32.6172 31.3506 -65.8008 36.3213 -99.5576zM827.613 145.75c2.69824 27.457 0.171875 56.8262 -7.58301 88.1299c-7.7627 31.3037 -20.9922 62.835 -39.7432 94.6182
c-18.7344 31.752 -39.9385 58.5879 -63.5811 80.5156c-23.6504 21.9277 -48.127 38.3428 -73.4688 49.2598c-25.334 10.917 -50.6279 16.0293 -75.8828 15.3135c-8.14844 -0.228516 -15.8252 -2.13184 -23.6113 -3.63379
c-16.3281 -3.13867 -32.1445 -8.00684 -46.876 -16.6982c-13.5361 -7.9834 -24.7207 -18.3105 -34.8037 -29.7383v-289.792c28.6768 -56.3066 90.2451 -133.968 219.871 -133.968c25.2705 0 48.7402 7.47168 70.4951 20.3076s39.0586 30.1396 51.8711 51.8867
c12.8516 21.7393 20.6064 46.3418 23.3125 73.7988z" />
    <glyph glyph-name="fk.liga" unicode="fk" horiz-adv-x="964" 
d="M896.426 8.70703l62.7852 0.00878906v-8.70703h-243.159v8.70703h74.8682l-186.011 321.166l-89.2383 -113.432v-206.814h72.0137v-9.62695h-232.282v9.62695h74.1445v743.415h-3.0127c-35.4326 0 -70.7861 2.99707 -105.786 8.54199
c-14.3779 2.27344 -29.0703 4.11426 -38.5713 4.11426c-67.6641 -1.06152 -105.755 -59.083 -105.755 -145.215v-4.39648c0 -69.835 56.6133 -126.44 126.44 -126.44v-9.4541h-126.44v-470.573h118.804v-9.62695h-280.228v9.62695h75.207v470.573h-75.207v9.1709h155.439
l-15.9189 18.2314c-89.8984 102.932 -17.916 264.797 118.741 265.567h1.28223c12.4658 0 25.8682 -0.652344 39.7031 -2.36719c46.1133 -5.71777 92.5654 -8.57324 139.033 -8.56543l62.4023 0.0078125v-515.247l135.438 172.711
c19.2539 24.5469 1.76953 60.4902 -29.4316 60.4902v9.1709h187.537v-9.1709h-86.0449l-116.428 -148.007h91.8652z" />
    <glyph glyph-name="fi.liga" unicode="fi" horiz-adv-x="593" 
d="M507.847 9.62695l73.0752 -0.000976562v-9.62695h-234.5v9.62695h74.1367v470.573h-74.1367v9.4541h161.425v-480.026zM176.424 616.093c0 -69.835 56.6113 -126.441 126.438 -126.441v-9.4541h-126.44v-470.573h118.804v-9.62695h-280.228v9.62695h75.207v470.573
h-75.207v9.1709h155.439l-15.9189 18.2314c-89.8984 102.932 -17.916 264.797 118.741 265.567h1.28223c41.4648 0 93.2725 -7.09473 136.822 -36.6279l18.916 -12.1992l33.3955 33.3877l69.1504 -69.1582l-69.1504 -69.1582l-69.1582 69.1582l24.752 24.7598
l-7.87305 7.88086c-6.78809 6.7959 -13.9766 13.2295 -21.9443 18.5938c-36.7695 24.7598 -73.335 25.9004 -107.273 25.9004c-67.6641 -1.06152 -105.755 -59.083 -105.755 -145.215v-4.39648z" />
    <glyph glyph-name="fl.liga" unicode="fl" horiz-adv-x="601" 
d="M515.083 9.62695l74.1289 -0.0390625v-9.58008h-234.413v9.62695h74.1445v743.415h-23.4307c-16.9492 0.558594 -33.8594 1.98242 -50.7148 3.9248c-11.3809 1.31348 -22.7383 2.82324 -34.0566 4.61621c-14.3779 2.27344 -29.0703 4.11426 -38.5713 4.11426
c-67.6562 -1.06152 -105.747 -59.083 -105.747 -145.215v-4.39648c0 -69.835 56.6133 -126.44 126.44 -126.44v-9.4541h-126.44v-470.573h118.804v-9.62695h-280.228v9.62695h75.207v470.573h-75.207v9.1709h155.439l-15.9189 18.2314
c-89.8906 102.932 -17.916 264.797 118.741 265.567h1.28223c12.4658 0 25.8682 -0.652344 39.7031 -2.36719c30.3125 -3.75977 60.7666 -7.27539 91.2754 -8.55762h109.562v-752.617z" />
    <glyph glyph-name=".notdef" horiz-adv-x="527" 
d="M50 700h427v-700h-427v700zM78 680l185 -309l186 309h-371zM251 350l-180 300v-601zM264 329l-185 -308h370zM276 350l181 -303v605z" />
    <glyph glyph-name=".null" horiz-adv-x="0" 
 />
    <glyph glyph-name=".null" horiz-adv-x="0" 
 />
    <glyph glyph-name="controlLF" unicode="&#xa;" horiz-adv-x="0" 
 />
    <glyph glyph-name="controlCR" unicode="&#xd;" horiz-adv-x="0" 
 />
    <glyph glyph-name="space" unicode=" " horiz-adv-x="357" 
 />
    <glyph glyph-name="exclam" unicode="!" horiz-adv-x="234" 
d="M122.294 177.604h-10.7676l-49.4951 547.659h108.642zM195.778 36.6045l-78.8896 -78.8896l-78.8896 78.8896l78.8896 78.8896z" />
    <glyph glyph-name="quotedbl" unicode="&#x22;" horiz-adv-x="332" 
d="M79.0498 457.376l-57.0469 267.888h117.238l-52.7119 -267.888h-7.47949zM190.899 725.264h117.309l-52.7119 -267.888h-7.55078z" />
    <glyph glyph-name="numbersign" unicode="#" horiz-adv-x="607" 
d="M576.892 426.19h-144.167l-37.6816 -213.075h144.152l-2.16309 -17.2012h-145.207l-38.7285 -222.726h-17.2637l38.7988 222.726h-187.215l-38.791 -222.726h-17.2012l38.7285 222.726h-144.152l3.2168 17.2012h144.152l37.6816 213.075h-144.152l3.2168 17.2012h144.152
l37.6816 217.346h17.2012l-37.6113 -217.346h187.215l37.6113 217.346h17.2012l-37.6113 -217.346h144.152zM377.865 213.115l37.6113 213.075h-187.215l-37.6113 -213.075h187.215z" />
    <glyph glyph-name="dollar" unicode="$" horiz-adv-x="517" 
d="M266.484 383.333c98.1572 -44.7686 207.003 -91.3535 207.003 -229.678c0 -119.173 -86.4775 -180.38 -207.003 -189.59v-116.703h-13.4805v115.894c-6.41016 -0.283203 -12.8672 -0.463867 -19.4346 -0.463867c-76.3633 0 -122.17 14.2041 -174.513 52.3418v131.002
h9.84766c0 -87.209 68.0254 -161.181 155.211 -163.548c4.16895 -0.118164 8.40039 -0.172852 12.6943 -0.172852c5.54492 0 10.8936 0.196289 16.1943 0.432617v301.959c-98.0234 45.5078 -207.003 89.1436 -207.003 219.98c0 112.92 89.584 170.689 207.003 176.18v98.126
h13.4805v-97.7324c1.74609 0.0234375 3.46875 0.078125 5.22266 0.078125c65.4463 0 109.625 -14.165 161.96 -52.3428v-115.374h-9.28125c0 78.3447 -61.0332 143.728 -139.284 147.652c-5.84375 0.291016 -11.7588 0.44043 -17.7441 0.44043
c-0.298828 0 -0.574219 -0.0234375 -0.873047 -0.0234375v-278.458zM253.004 389.515l0.000976562 271.892c-88.3262 -4.16895 -140.504 -47.1992 -140.504 -121.722c0 -79.3594 65.3906 -115.461 140.503 -150.17zM266.485 -16.209
c89.333 7.81055 139.386 52.3906 139.394 137.146c0 83.2842 -64.8008 122.193 -139.394 157.555v-294.7z" />
    <glyph glyph-name="percent" unicode="%" horiz-adv-x="770" 
d="M737.945 166.176c4.42773 -18.79 5.15625 -38.6416 2.14355 -59.0127c-3.0127 -20.4258 -10.4297 -40.7646 -22.0469 -60.4434s-25.8135 -36.0068 -42.2363 -48.5205s-34.1514 -21.4795 -52.7207 -26.6787c-12.3408 -3.4209 -24.9727 -5.14355 -37.7773 -5.14355
c-6.55176 0 -13.127 0.448242 -19.7021 1.34473c-19.6074 2.63477 -38.6416 9.34375 -56.6055 19.9307c-17.9326 10.5791 -32.9941 24.0049 -44.8154 39.8926c-11.7588 15.8008 -19.9854 33.3555 -24.4453 52.1533c-4.45996 18.7666 -5.18359 38.626 -2.1709 59.0361
c3.02051 20.4258 10.4375 40.7568 22.0781 60.459c11.585 19.6553 25.7812 35.9756 42.2041 48.5049c16.3984 12.498 34.1582 21.4639 52.751 26.6631c18.5459 5.14355 37.8945 6.41797 57.4785 3.82227c19.584 -2.63477 38.6094 -9.35938 56.5732 -19.9619
c17.9326 -10.5625 33.0254 -23.9727 44.8154 -39.8604c11.79 -15.8721 20.0166 -33.4424 24.4766 -52.1855zM592.437 278.616c-0.589844 0 -1.16406 -0.110352 -1.75391 -0.125977c2.47754 0.03125 4.97852 -0.157227 7.47168 -0.259766
c-1.90332 0.0791016 -3.82227 0.385742 -5.71777 0.385742zM706.718 124.719c4.64062 18.7744 6.1709 36.6729 4.58203 53.2295c-1.62012 16.4932 -6.33887 31.4766 -14.0469 44.5088c-7.7002 13.0645 -18.2158 23.5645 -31.2559 31.2568
c-13.0322 7.69238 -27.3154 11.8213 -42.4639 12.2539c-0.896484 0.03125 -1.79297 0.046875 -2.68945 0.046875c-14.3145 0 -28.7705 -3.10645 -43.0771 -9.28027c-15.2109 -6.55176 -30.1309 -16.5566 -44.3828 -29.7539
c-14.1963 -13.1973 -27.1426 -29.5645 -38.4131 -48.6689c-11.208 -19.0176 -19.293 -38.2402 -24.0117 -57.1562c-4.66406 -18.8604 -6.19824 -36.7617 -4.57812 -53.2314c1.62012 -16.5088 6.34668 -31.4844 14.0469 -44.4932
c7.67676 -13.04 18.1924 -23.5557 31.2568 -31.2871c13.0322 -7.67676 27.3467 -11.8057 42.4639 -12.2227c0.952148 -0.03125 1.91211 -0.046875 2.83984 -0.046875c14.2207 0 28.6143 3.11426 42.9287 9.25684c15.29 6.62988 30.2422 16.6426 44.376 29.7617
c14.2197 13.1982 27.1426 29.5811 38.4131 48.6855c11.2627 19.0889 19.3477 38.3115 24.0117 57.1406zM568.413 736.028l20.418 -8.59668l-371.22 -828.493l-17.1934 8.60449zM270.056 390.205c-16.4229 -12.5137 -34.1494 -21.4795 -52.7188 -26.6709
c-12.3408 -3.4209 -24.9727 -5.14355 -37.7773 -5.14355c-6.54395 0 -13.1191 0.448242 -19.6943 1.34473c-19.6152 2.63477 -38.6406 9.34375 -56.6045 19.9307c-17.9326 10.5791 -33.002 24.0049 -44.8154 39.8926c-11.7588 15.8008 -19.9854 33.3555 -24.4453 52.1533
c-4.45996 18.7666 -5.18359 38.626 -2.1709 59.0361c3.0127 20.4258 10.4297 40.7568 22.0781 60.459c11.585 19.6553 25.7812 35.9756 42.2041 48.5049c16.3906 12.498 34.1504 21.4639 52.752 26.6631c18.5381 5.14355 37.8867 6.41797 57.4707 3.82227
c19.5762 -2.63477 38.6104 -9.35938 56.5742 -19.9619c17.9326 -10.5625 33.0254 -23.9727 44.8154 -39.8604c11.79 -15.8721 20.0166 -33.4424 24.4766 -52.1855c4.42773 -18.7822 5.15137 -38.6416 2.13867 -59.0205
c-3.02051 -20.4258 -10.4297 -40.7568 -22.0469 -60.4434c-11.6172 -19.6787 -25.8135 -36.0068 -42.2363 -48.5205zM186.687 670.63c-0.589844 0 -1.17188 -0.110352 -1.75391 -0.125977c2.46973 0.03125 4.97852 -0.157227 7.47168 -0.259766
c-1.90332 0.0791016 -3.83008 0.385742 -5.71777 0.385742zM151.23 371.896c14.2285 0 28.6172 3.1123 42.9316 9.25488c15.2979 6.62988 30.25 16.6426 44.3838 29.7617c14.2285 13.1973 27.1436 29.5801 38.4141 48.6846c11.2627 19.0889 19.3477 38.3115 24.0117 57.1406
c4.63281 18.7744 6.1748 36.6758 4.57812 53.2324c-1.62012 16.4932 -6.34668 31.4766 -14.0469 44.5088c-7.70801 13.0645 -18.2236 23.5645 -31.2559 31.2568s-27.3154 11.8213 -42.4639 12.2539c-0.896484 0.03125 -1.80078 0.046875 -2.69727 0.046875
c-14.3145 0 -28.7705 -3.10645 -43.0771 -9.28027c-15.2188 -6.55176 -30.1309 -16.5566 -44.3828 -29.7539c-14.1963 -13.1973 -27.1426 -29.5645 -38.4131 -48.6689c-11.208 -19.0176 -19.2852 -38.2402 -24.0117 -57.1562
c-4.66406 -18.8604 -6.20605 -36.7617 -4.57812 -53.2314c1.62012 -16.5088 6.34668 -31.4844 14.0469 -44.4932c7.67676 -13.04 18.1924 -23.5557 31.2568 -31.2871c13.0322 -7.67676 27.3467 -11.8057 42.4639 -12.2227
c0.959961 -0.03125 1.91211 -0.046875 2.83984 -0.046875z" />
    <glyph glyph-name="ampersand" unicode="&#x26;" horiz-adv-x="704" 
d="M680.649 234.194l0.000976562 -81.5068h-82.0889c-36.9189 -0.479492 -72.4463 -14.4248 -99.8408 -38.6338l101.232 -123.656h60.2627v-17.2012h-152.749l-58.0918 71.0225c-49.4951 -53.8291 -117.301 -81.79 -201.198 -81.79
c-125.897 0 -215.175 85.0068 -215.175 192.595c0 97.9453 63.4717 172.185 163.517 204.416c-36.5654 57.0459 -49.4961 97.9365 -49.4961 142.052c0 100.037 72.0762 170.014 217.346 170.014c61.3086 0 82.1279 -8.59668 135.957 -38.7285v-119.055h-7.95215v100.729
c-38.7197 25.7979 -73.1221 36.5654 -122.617 36.5654c-89.333 0 -136.666 -53.7588 -136.666 -120.455c0 -63.4717 20.4805 -114.084 105.487 -219.509l145.199 -178.618l0.298828 -0.370117c5.78125 8.42383 12.0576 16.5488 18.9785 24.2256
c44.6191 49.4951 108.547 77.9043 175.433 77.9043h2.16309zM313.827 16.25c39.7744 0 84.9453 10.7666 121.565 45.1533l-164.634 199.099c-25.7979 32.2314 -47.3252 60.2002 -64.5889 84.9443c-46.2158 -39.7744 -70.96 -91.4404 -70.96 -159.184
c0 -100.1 66.6963 -170.013 178.617 -170.013z" />
    <glyph glyph-name="quotesingle" unicode="'" horiz-adv-x="163" 
d="M22 726.38h117.245l-52.7119 -267.958h-7.4873z" />
    <glyph glyph-name="parenleft" unicode="(" horiz-adv-x="391" 
d="M137.494 260.511c0 -215.246 72.0762 -368.003 203.361 -429.375l-4.33398 -7.47949c-169.95 40.8984 -291.522 223.779 -291.522 437.908c0 221.608 119.401 400.227 291.522 442.172l4.33398 -8.59668c-126.951 -51.5957 -203.361 -210.85 -203.361 -434.629z" />
    <glyph glyph-name="parenright" unicode=")" horiz-adv-x="391" 
d="M53.2168 703.736c170.021 -41.9453 292.64 -217.284 292.64 -440.01c0 -229.167 -131.223 -402.46 -292.64 -442.242l-3.2168 8.59668c114.021 53.8291 202.245 187.215 202.245 432.529s-88.2236 386.313 -202.245 432.529z" />
    <glyph glyph-name="asterisk" unicode="*" horiz-adv-x="351" 
d="M321.756 586.498l-142.052 -1.05371l114.092 -85.0068l-73.1934 -53.8291l-45.1621 135.556l-46.2783 -135.556l-74.2471 52.7119l114.029 86.124h-140.943l27.9688 87.1064l115.138 -82.8438l-41.9453 135.556h90.3867l-41.9453 -135.556l115.075 82.8438z" />
    <glyph glyph-name="plus" unicode="+" horiz-adv-x="462" 
d="M239.566 320.703h203.354v-17.2012h-203.354v-208.741h-17.2012v208.741h-203.361v17.2012h203.361v208.749h17.2012v-208.749z" />
    <glyph glyph-name="comma" unicode="," horiz-adv-x="192" 
d="M171.373 32.5557c0 0 -47.4268 -160.34 -134.604 -205.557l-3.2168 5.37988c38.8779 31.9404 58.8711 61.0654 64.3369 91.0791c3.02051 16.5479 -2.32812 33.5283 -14.2285 45.4287l-63.6602 63.6611l78.8877 78.8955z" />
    <glyph glyph-name="hyphen" unicode="-" horiz-adv-x="354" 
d="M345.872 217.441h-337.872v17.2012h337.872v-17.2012z" />
    <glyph glyph-name="period" unicode="." horiz-adv-x="198" 
d="M177.778 36.6914l-78.8896 -78.8896l-78.8896 78.8896l78.8896 78.8896z" />
    <glyph glyph-name="slash" unicode="/" horiz-adv-x="239" 
d="M189.524 660.737h17.2646l-163.588 -687.549h-17.2012z" />
    <glyph glyph-name="zero" unicode="0" horiz-adv-x="782" 
d="M675.353 573.708c26.9932 -36.4004 45.627 -76.1191 55.8594 -119.173c10.1699 -43.0615 11.8213 -88.0107 4.92383 -134.84s-23.6973 -92.8564 -50.3604 -138.058c-26.6943 -45.2402 -58.8555 -82.1982 -96.5059 -110.891
c-37.6504 -28.6846 -77.7939 -48.9766 -120.399 -60.9004c-42.6211 -11.8604 -86.4141 -14.7939 -131.293 -8.70605c-44.9336 6.07227 -88.043 21.2363 -129.24 45.54c-41.1973 24.2959 -75.3164 54.6943 -102.356 91.0869
c-27.0723 36.3604 -45.6494 76.0869 -55.8428 119.109c-10.209 43.085 -11.8604 88.0342 -4.95508 134.863c6.89746 46.8291 23.6973 92.8564 50.3838 138.097c26.6709 45.2012 58.832 82.1592 96.4824 110.852c37.6582 28.6924 77.8018 48.9844 120.438 60.8848
c42.582 11.8838 86.3281 14.8096 131.27 8.76172c44.9336 -6.07227 88.0186 -21.2676 129.216 -45.5713s75.332 -54.6631 102.38 -91.0557zM661.668 359.579c10.7676 43.4238 14.2354 84.1816 10.5234 122.257c-3.74414 38.083 -14.5039 72.21 -32.3184 102.404
c-17.8301 30.1475 -41.7871 54.1279 -71.9658 71.9346s-62.7881 27.1973 -97.7725 28.2041c-35.0391 0.991211 -70.1094 -6.0957 -105.259 -21.2441c-35.1572 -15.1406 -69.127 -37.9102 -101.917 -68.333c-32.8057 -30.4229 -62.2061 -67.6406 -88.1924 -111.686
c-26.002 -44.084 -44.3594 -87.8223 -55.127 -131.246s-14.2676 -84.1572 -10.5234 -122.248s14.5039 -72.2178 32.334 -102.373c17.7754 -30.1709 41.7725 -54.168 71.9512 -71.9746c30.1865 -17.8066 62.7559 -27.1816 97.7949 -28.1729
c35.0156 -1.02246 70.0859 6.06445 105.243 21.2129c35.1182 15.1641 69.1191 37.9023 101.909 68.333c32.8057 30.4229 62.2061 67.6406 88.2158 111.725c25.9785 44.0449 44.3359 87.7832 55.1035 131.207z" />
    <glyph glyph-name="one" unicode="1" horiz-adv-x="327" 
d="M218.259 693.762l0.000976562 -684.167h82.3086v-9.66602h-270.476v9.66602h98.3535v639.226l-100.446 -27.7881v17.0908z" />
    <glyph glyph-name="two" unicode="2" horiz-adv-x="577" 
d="M520.491 225.761l9.65723 0.000976562v-219.524h-464.823v52.7119c191.548 152.812 330.321 307.732 330.321 470.203c0 101.154 -52.7041 158.2 -143.099 158.2c-12.4033 0 -24.6885 -0.975586 -36.7139 -2.80859c-18.625 -2.83887 -36.3848 -10.5469 -50.4082 -23.1387
l-0.228516 -0.203125c-31.6338 -28.5273 -50.125 -69.4102 -50.6758 -112.095v-82.0732h-81.5225v2.16309c0 62.6377 24.917 122.681 68.7334 166.702c2.97266 2.98828 6.03223 5.90625 9.1709 8.7373c42.1729 38.0518 96.5059 59.3193 153.119 59.9092
c0.110352 0 0.212891 0.0078125 0.323242 0.0078125h0.0791016c0.211914 0 0.432617 -0.0234375 0.65332 -0.0234375c142.1 -0.542969 234.948 -66.1465 234.948 -191.525c0 -171.067 -228.286 -349.032 -421.935 -496.465l199.964 0.0234375v0.03125h23.2178
c115.523 0 219.218 93.6426 219.218 209.166z" />
    <glyph glyph-name="three" unicode="3" horiz-adv-x="580" 
d="M328.357 366.681c119.409 -11.8135 205.463 -82.8428 205.463 -189.368c0 -114.021 -96.8281 -181.835 -254.957 -181.835c-0.873047 0 -1.69922 0.0234375 -2.56445 0.03125c-0.291016 0 -0.582031 -0.03125 -0.880859 -0.03125h-0.0791016
c-0.849609 0.0078125 -1.69141 0.0625 -2.54102 0.078125c-55.8193 1.11719 -109.279 22.2822 -150.901 59.8389c-7.77051 7.00781 -14.959 14.543 -21.668 22.4395c-35.9834 42.3779 -56.2285 96.6162 -56.2285 152.994v2.16309h81.5225v-82.0732
c0.550781 -42.6924 19.042 -83.5674 50.6758 -112.095l0.157227 -0.141602c9.76855 -8.76953 21.7314 -14.8174 34.4336 -18.1289c19.4424 -5.06543 39.5068 -7.81836 59.4766 -7.81836c17.665 0 33.8359 1.9502 48.6299 5.56836
c0.927734 -0.149414 1.81641 0.0625 2.59473 0.557617c68.2539 17.8379 104.748 74.3486 104.748 163.823c0 121.58 -67.7422 178.618 -187.214 166.805v18.2471c110.875 15.0928 172.184 69.9756 172.184 174.347c0 94.6572 -48.4492 145.27 -132.339 145.27
c-68.6074 0 -153.347 -49.3779 -153.347 -139.206v-82.0654h-81.5225v2.16309c0 64.1094 26.1514 125.458 71.9033 169.731c1.97461 1.91895 3.94043 3.85352 5.99316 5.70215c36.7852 33.1836 82.8125 53.5938 131.537 58.667
c0.511719 0.0546875 1.02344 0.109375 1.53516 0.15625c3.79883 0.370117 7.62109 0.62207 11.4512 0.810547c10.5791 0.739258 21.417 1.24219 32.8604 1.24219c134.502 0 217.346 -54.8828 217.346 -152.82c0 -90.3945 -69.9131 -153.874 -188.269 -185.052z" />
    <glyph glyph-name="four" unicode="4" horiz-adv-x="556" 
d="M432.328 699.165l0.000976562 -441.126h92.4941v-66.7598h-92.4941v-185.044h-91.4404v185.044h-323.888v12.9307l394.847 494.955h20.4805zM340.889 258.039v325.987l-258.237 -325.987h258.237z" />
    <glyph glyph-name="five" unicode="5" horiz-adv-x="570" 
d="M302.514 431.277c136.61 0 218.404 -91.5107 218.404 -216.308c0 -149.532 -119.409 -219.509 -253.911 -219.509c-1.1875 0 -2.3125 0.03125 -3.49219 0.0390625c-0.370117 0 -0.731445 -0.0390625 -1.09277 -0.0390625h-0.0791016
c-0.959961 0.0078125 -1.91211 0.0703125 -2.87207 0.09375c-55.7012 1.19531 -109.027 22.3525 -150.571 59.8301c-6.95312 6.27637 -13.4502 13.0088 -19.5537 20.0713c-37.3125 43.1875 -58.3438 100.045 -58.3438 157.531h81.5225v-82.0654
c0.550781 -42.6924 19.042 -83.5674 50.6758 -112.095c0.0546875 -0.046875 0.101562 -0.0859375 0.148438 -0.132812c8.98242 -8.06934 19.9229 -13.7168 31.5635 -16.9336c21.2598 -5.875 43.4316 -9.0293 65.6035 -9.0293c92.5576 0 153.866 56.9834 153.866 174.284
c0 111.851 -54.8828 173.23 -162.471 173.23c-47.333 0 -86.0615 -11.8838 -122.627 -34.4648l-17.2012 7.55078l48.0166 365.723h339.861v-217.904h-9.6582c0 109.821 -93.7295 199.807 -202.222 208.427h-111.261l-39.9863 -308.912
c39.7744 31.248 104.308 50.6123 165.68 50.6123z" />
    <glyph glyph-name="six" unicode="6" horiz-adv-x="588" 
d="M468.879 642.866c49.4951 -44.6113 77.9014 -108.547 77.8936 -175.433v-2.16309h-81.5225v82.0732c-0.550781 42.6846 -19.0498 83.5596 -50.6758 112.087c-0.370117 0.330078 -0.731445 0.660156 -1.10156 0.982422
c-19.5918 17.3115 -45.1299 26.8916 -71.2734 26.9385h-0.34668c-116.192 0 -182.881 -87.1699 -188.269 -338.981c30.1318 36.6279 78.5107 63.543 148.487 63.543c126.96 0 215.184 -91.5029 215.184 -206.578c0 -118.363 -94.7197 -209.866 -230.275 -209.866
c-131.223 0 -240.981 98.9912 -240.981 333.538c0 222.316 96.4824 344.729 236.026 370.378v0.0546875c0.865234 0.133789 1.73828 0.251953 2.60352 0.385742c10.1465 1.54199 20.3555 2.87109 30.7295 2.96582h0.0791016
c52.6338 -0.479492 103.277 -18.8525 144.066 -51.9414c3.17773 -2.58008 6.31641 -5.22266 9.37598 -7.9834zM277.336 386.045c-50.6123 0 -95.7744 -21.5273 -123.735 -54.8838v-17.2012c0 -226.996 46.2783 -301.235 133.385 -301.235
c86.124 0 123.735 69.9131 123.735 180.718c0 133.456 -49.4873 192.603 -133.385 192.603z" />
    <glyph glyph-name="seven" unicode="7" horiz-adv-x="482" 
d="M285.095 699.055l170.72 -0.0546875v-59.0439l-219.446 -633.72h-117.309l329.598 683.176l-205.107 0.0546875c-107.934 -9.24902 -200.892 -98.959 -200.892 -208.324h-9.6582v217.912h252.095z" />
    <glyph glyph-name="eight" unicode="8" horiz-adv-x="566" 
d="M335.547 358.084c112.976 -16.1475 185.052 -88.2236 185.044 -186.169c0 -103.254 -109.759 -176.447 -237.765 -176.447c-129.122 0 -237.826 73.1934 -237.826 176.447c0 97.9453 72.1396 170.021 185.115 186.169
c-98.9912 17.2012 -165.751 83.8975 -165.751 168.904c0 100.107 91.5107 177.563 218.462 177.563c126.96 0 218.4 -77.4561 218.4 -177.563c0 -85.0146 -66.6885 -151.703 -165.68 -168.904zM169.859 526.98c0 -85.0068 31.1855 -160.3 112.976 -160.3
c81.7266 0 112.975 75.293 112.975 160.3c0 86.1318 -35.5107 160.371 -112.975 160.371c-77.4561 0 -112.976 -74.2471 -112.976 -160.371zM282.835 12.7324c82.8438 0 131.223 69.9131 131.223 159.183c0 97.9375 -39.7822 177.564 -131.223 177.564
c-91.5029 0 -131.285 -79.627 -131.285 -177.564c0 -89.2695 47.3242 -159.183 131.285 -159.183z" />
    <glyph glyph-name="nine" unicode="9" horiz-adv-x="587" 
d="M300.291 702.791c130.971 0 240.516 -98.8037 240.516 -332.902c0 -221.892 -96.293 -344.077 -235.569 -369.67v-0.0546875c-0.865234 -0.133789 -1.73047 -0.251953 -2.5957 -0.385742c-10.1221 -1.54199 -20.3076 -2.86328 -30.666 -2.95801h-0.0791016
c-52.5234 0.47168 -103.081 18.8135 -143.791 51.8389c-3.16992 2.57227 -6.2998 5.21484 -9.35156 7.96777c-49.4014 44.5244 -77.7549 108.335 -77.7549 175.095v2.16309h81.3652v-81.9082c0.550781 -42.6055 19.0107 -83.4023 50.5811 -111.874
c0.370117 -0.330078 0.731445 -0.660156 1.10156 -0.982422c19.5449 -17.2793 45.0361 -26.8438 71.1328 -26.8906h0.34668c115.972 0 182.526 87.0127 187.906 338.336c-30.0762 -36.5576 -78.3604 -63.417 -148.203 -63.417c-126.716 0 -214.774 91.3301 -214.774 206.186
c0 118.127 94.5391 209.457 229.836 209.457zM433.424 367.733l-0.0078125 17.1621c0 226.563 -46.1924 300.661 -133.134 300.661c-85.958 0 -123.498 -69.7793 -123.498 -180.371c0 -133.196 49.4014 -192.225 133.134 -192.225
c50.5176 0 95.5928 21.4873 123.506 54.7725z" />
    <glyph glyph-name="colon" unicode=":" horiz-adv-x="218" 
d="M187.779 353.046l-78.8896 -78.8896l-78.8896 78.8896l78.8896 78.8896zM187.782 36.7041l-78.8896 -78.8896l-78.8896 78.8896l78.8896 78.8896z" />
    <glyph glyph-name="semicolon" unicode=";" horiz-adv-x="218" 
d="M187.778 353.081l-78.8896 -78.8896l-78.8896 78.8896l78.8896 78.8896zM33.25 36.6914l78.8955 78.8955l72.4854 -78.8877s-47.4346 -160.339 -134.604 -205.563l-3.2168 5.37988c38.8779 31.9482 58.8711 61.0732 64.3369 91.0869
c3.0127 16.5479 -2.33594 33.5283 -14.2363 45.4287z" />
    <glyph glyph-name="less" unicode="&#x3c;" horiz-adv-x="462" 
d="M437.328 491.833v-18.3105l-398.127 -172.185l398.127 -172.121v-18.3105l-415.328 181.835v18.3105z" />
    <glyph glyph-name="equal" unicode="=" horiz-adv-x="450" 
d="M436.925 195.914h-423.925v17.2012h423.925v-17.2012zM436.925 411.089h-423.925v17.2012h423.925v-17.2012z" />
    <glyph glyph-name="greater" unicode="&#x3e;" horiz-adv-x="462" 
d="M24 491.833l415.265 -180.781v-18.3105l-415.265 -181.835v18.3105l398.071 172.121l-398.071 172.185v18.3105z" />
    <glyph glyph-name="question" unicode="?" horiz-adv-x="488" 
d="M305.867 36.6504l-78.8896 -78.8896l-78.8896 78.8896l78.8896 78.8896zM227.505 734.977c142.053 0 229.23 -78.5713 229.23 -186.167c0 -59.8613 -27.3389 -105.817 -73.3184 -142.643c-69.5049 -55.6543 -122.288 -129.383 -147.504 -214.775l-4.08203 -13.7959
h-9.71387l-33.1279 127.4c129.06 61.3164 163.367 135.17 163.367 244.929c0 114.021 -51.6582 167.851 -135.619 167.851c-69.9053 0 -126.951 -10.2246 -165.68 -47.8359l-1.05371 16.5957c45.1621 26.9062 93.6113 48.4414 177.501 48.4414z" />
    <glyph glyph-name="at" unicode="@" horiz-adv-x="831" 
d="M790.246 271.601c0 0 0.28125 -10.6064 0.273438 -15.8525c0 -55.3154 -19.6318 -107.257 -55.2842 -146.244c-28.1025 -30.7529 -63.5742 -50.5576 -102.09 -57.5811c-10.335 -1.87988 -20.8818 -2.90234 -31.5703 -2.90234l-50.0068 -0.211914h-65.0605v148.699
l-59.2168 -71.3604c-0.952148 -1.07715 -1.94336 -2.09961 -2.92676 -3.09082c-0.574219 -0.621094 -1.14844 -1.23438 -1.73047 -1.85547c-43.5654 -47.4824 -99.4473 -75.1602 -145.12 -75.1602c-15.4395 0 -29.7305 3.16992 -41.9609 9.7998
c-17.2168 9.38281 -28.6689 24.9951 -33.1123 45.1299c-7.57422 34.5127 6.13477 79.5645 36.6123 120.581c0.535156 0.739258 1.07031 1.48633 1.56543 2.18652c0.739258 1.06934 1.48633 2.09961 2.30469 3.16895l7.29102 8.85645l201.812 240.996
c-17.6572 17.6885 -41.6855 28.2832 -72.7529 28.2832c-64.0225 0 -140.59 -38.4844 -140.59 -38.4844v6.07227c50.5654 27.3076 96.0732 40.4424 147.669 40.4424c124.403 0 181.072 -54.5996 181.072 -159.819v-295.479l30.1865 -0.196289
c47.0576 -0.306641 93.1865 16.8154 126.543 50.0146c2.15527 2.13965 4.2627 4.34961 6.33887 6.61523c34.4971 37.7295 53.4912 88.0039 53.4912 141.558c0 5.20703 -0.283203 15.5889 -0.283203 15.5889c-3.57031 101.649 -42.251 187.514 -111.85 248.288
c-32.79 28.6211 -71.4941 50.8086 -115.06 65.9336c-43.4707 15.085 -90.5752 22.7373 -140.031 22.7373s-96.5684 -7.65234 -140.031 -22.7373c-43.5498 -15.125 -82.2617 -37.3047 -115.06 -65.9336c-69.5674 -60.751 -108.248 -146.575 -111.843 -248.201
c0 0 -0.283203 -10.4688 -0.283203 -15.6836c0 -5.23047 0.0947266 -10.4766 0.275391 -15.6123c3.57031 -101.673 42.251 -187.537 111.85 -248.312c32.7979 -28.6289 71.502 -50.8086 115.06 -65.9336c43.4629 -15.085 90.5752 -22.7373 140.031 -22.7373h3.27148
v-57.6592h-3.27148c-97.3467 0 -189.526 40.8594 -259.558 115.052c-34.04 36.0693 -61.2139 78.2188 -80.7354 125.284c-20.166 48.5674 -31.335 100.375 -33.1914 154.008c-0.180664 5.26172 -0.275391 10.6025 -0.275391 15.9033
c0 5.25391 0.0947266 10.5 0.267578 15.7383c1.87207 53.7588 13.041 105.574 33.1992 154.134c19.5293 47.0654 46.6953 89.2148 80.7354 125.284c69.6777 73.8301 161.401 114.682 258.245 115.043h2.63477c96.8438 -0.361328 188.567 -41.2207 258.237 -115.043
c34.04 -36.0615 61.2061 -78.2188 80.7432 -125.284c20.166 -48.5674 31.3271 -100.383 33.1836 -154.008v-0.015625zM486.507 210.713l0.000976562 166.836c0 38.3271 -9.69824 70.6768 -28.5352 93.2812l-198.328 -236.545
c-20.7959 -27.9609 -28.7871 -54.3955 -23.5176 -78.2822c4.73438 -21.7002 20.3389 -40.3174 45.0908 -53.7822c51.1396 -27.8428 106.778 -10.3818 156.281 49.291l0.535156 0.574219z" />
    <glyph glyph-name="A" unicode="A" horiz-adv-x="693" 
d="M601.717 75.3115c14.6924 -39.2939 52.3096 -65.2705 94.2549 -65.0898v-8.98242h-260.651v8.70703h91.5898l-79.5557 214.829l-18.0586 49.0469l-4.53027 -6.7793l-93.5166 -139.725l-9.47754 -14.0869c-2.01367 -2.85547 -4.18457 -5.41992 -6.24512 -8.18848
c-76.6699 -102.939 -186.239 -151.208 -251.882 -107.171s-62.5361 163.722 3.63379 273.692c1.76953 2.93359 3.30371 5.88281 5.16797 8.80859l9.83887 14.708l213.099 312.113l6.70117 9.83105l-28.1416 66.8379l88.3496 31.6104l126.26 -337.604l97.127 145.466
l3.79883 -10.1855l-97.1973 -145.238zM421.044 276.756l4.61719 6.91309l-116.821 317.305l-2.86328 6.80371l-6.96094 -10.1543l-170.249 -248.445l-19.5137 -29.085l-16.2812 -24.2715l-0.275391 -0.259766c-62.6777 -103.923 -31.0752 -182.7 30.9648 -224.322
c65.1553 -43.707 141.935 -26.2227 214.428 81.4668l0.661133 0.983398l25.3027 37.7139z" />
    <glyph glyph-name="B" unicode="B" horiz-adv-x="644" 
d="M401.293 301.132c128.257 -5.12012 229.97 -68.2783 230.709 -147.323c0.739258 -79.0371 -99.7773 -144.082 -227.901 -151.593c-3.4209 -0.196289 -6.72461 -0.597656 -10.1855 -0.71582l-17.7041 -0.188477l-106.777 -0.0791016h-175.543v687.636l-82.8906 0.0078125
v9.1709h174.488v-86.7998c92.3525 86.6191 206.665 114.965 263.451 61.0967c57.3369 -54.4033 34.2373 -171.886 -49.4092 -269.225c-2.2334 -2.5957 -4.23926 -5.24609 -6.56738 -7.81836l-12.167 -12.8594l-78.7617 -81.6641l72.0059 0.74707l16.9727 0.133789
c3.48438 -0.046875 6.82715 -0.384766 10.2803 -0.526367zM185.481 596.767l0.000976562 -404.99l97.1426 100.383l8.21875 8.49414l35.0547 36.2266l24.1064 25.4121l20.1191 21.2041l0.314453 0.211914c79.2021 91.9512 61.2305 174.913 7.03906 226.336
c-49.8018 47.2539 -116.207 49.8018 -191.996 -13.2773zM369.929 9.65039c121.155 6.96875 168.313 77.543 167.621 152.254c-0.731445 78.4473 -58.5244 131.931 -188.339 130.924l-1.17969 -0.0078125l-45.4131 -0.424805l-8.76172 -0.102539l-108.366 -112.369v-170.745
l83.9531 -0.0390625l35.8652 -0.015625l35.0234 0.330078l29.2266 0.275391z" />
    <glyph glyph-name="C" unicode="C" 
d="M632.896 284.229l39.6201 -104.969c-0.574219 -0.991211 -0.841797 -2.00586 -1.42383 -2.99707c-26.5762 -45.0518 -126.668 -174.276 -354.089 -174.276c-49.6055 0 -94.8301 15.6748 -135.854 39.876c-41.0244 24.209 -65.7764 54.4746 -92.7148 90.7168
c-26.9541 36.2031 -40.1836 75.7725 -50.3379 118.614c-10.1621 42.9043 -11.8057 87.6729 -4.93164 134.306c6.86621 46.6328 23.5957 92.4707 50.1719 137.522c26.5605 45.0127 58.5879 81.8213 96.0889 110.396c37.4932 28.5742 77.4717 48.7881 119.936 60.6328
c42.4092 11.8369 85.9668 14.7471 130.735 8.73047c17.7207 -2.39844 34.9141 -7.33008 52.0527 -12.5762c26.1436 -7.99121 51.8389 -18.1846 76.6221 -32.8057c35.9277 -21.1963 65.4775 -47.8594 90.6064 -78.2979l-11.3262 -30.3984
c-4.01953 9.60352 -7.39355 19.5762 -12.6553 28.4951c-17.7598 30.0293 -41.623 53.9082 -71.6758 71.6367c-20.3477 12.002 -42.2051 18.7266 -64.7549 23.0605c-10.7598 2.07617 -21.3623 4.70312 -32.6172 5.02539
c-34.8896 0.983398 -69.8271 -6.07129 -104.827 -21.1562c-35.0078 -15.0771 -68.8281 -37.752 -101.492 -68.0488c-32.6641 -30.2891 -61.9541 -67.3574 -87.8301 -111.222c-25.9004 -43.9033 -44.1787 -87.4609 -54.8994 -130.703
c-10.7207 -43.2344 -14.2051 -83.8027 -10.4766 -121.736c3.72852 -37.9258 14.4404 -71.9111 32.2002 -101.948c17.7041 -30.0449 41.5986 -53.9473 71.6514 -71.6758c30.0527 -17.7363 62.4727 -28.0557 97.3857 -28.0557c266 0 325.005 237.009 334.836 261.854z" />
    <glyph glyph-name="D" unicode="D" horiz-adv-x="699" 
d="M315.008 698.032c169.015 0 353.311 -106.864 353.311 -344.565c0 -248.665 -182.11 -352.241 -356.591 -352.241h-295.549v8.70703h80.7119v678.929h-82.8906v9.1709h301.008zM307.37 18.6709c162.447 0 258.434 118.851 258.434 328.222
c0 239.919 -137.404 333.688 -260.604 333.688h-115.61v-661.909h117.781z" />
    <glyph glyph-name="E" unicode="E" horiz-adv-x="555" 
d="M188.48 365.453l-0.00878906 -32.0273h93.3906v-9.91016h-93.3906v-304.775l51.2334 -0.0625h138.065c74.3262 0 134.581 60.2471 134.581 134.573h8.69922v-152.025h-507.052v8.70703h82.8906v678.929h-82.8906v9.1709h507.06v-180.301h-9.27344
c0 90.4648 -82.7412 163.697 -173.198 163.383l-150.106 -0.535156v-315.126z" />
    <glyph glyph-name="F" unicode="F" horiz-adv-x="523" 
d="M14.0039 698.032l496.166 -0.000976562v-180.301h-10.8301c0 89.9385 -80.6338 162.849 -170.572 162.849h-140.291v-347.16h96.2539v-9.91016h-96.2539v-313.576h94.8779v-8.70703h-269.351v8.70703h82.8906v678.929h-82.8906v9.1709z" />
    <glyph glyph-name="G" unicode="G" horiz-adv-x="708" 
d="M200.239 239.084l477.168 -0.00292969v-237.858h-10.6416l0.0869141 170.792c-8.28223 -12.875 -18.6406 -27.2764 -27.7012 -38.9717c-19.71 -25.4277 -40.8594 -48.6934 -65.1553 -67.208c-37.4932 -28.5664 -77.4795 -48.7803 -119.904 -60.6484
c-6.8584 -1.91113 -13.9453 -2.12305 -20.875 -3.57031c-35.8965 -7.4873 -72.4141 -10.1846 -109.876 -5.10352c-44.7529 6.04785 -87.6729 21.1494 -128.697 45.3506c-41.0244 24.209 -75.002 54.4746 -101.94 90.7178
c-26.9541 36.2031 -45.4531 75.7725 -55.6074 118.614c-10.1621 42.9043 -11.8057 87.6729 -4.93164 134.306c6.86621 46.6328 23.5957 92.4707 50.1719 137.522c26.5605 45.0127 58.5879 81.8213 96.0889 110.396c37.4932 28.5742 77.4717 48.7881 119.936 60.6328
c42.4092 11.8369 85.9668 14.7471 130.735 8.73047c17.7207 -2.39844 34.9141 -7.33008 52.0527 -12.5762c26.1436 -7.99121 51.8389 -18.1846 76.6221 -32.8057c35.9277 -21.1963 65.4775 -47.8594 90.6064 -78.2979l-11.3262 -30.3984
c-4.01953 9.60352 -7.39355 19.5762 -12.6553 28.4951c-17.7598 30.0293 -41.623 53.9082 -71.6758 71.6367c-20.3477 12.002 -42.2051 18.7266 -64.7549 23.0605c-10.7598 2.07617 -21.3623 4.70312 -32.6172 5.02539
c-34.8896 0.983398 -69.8271 -6.07129 -104.827 -21.1562c-35.0078 -15.0771 -68.8281 -37.7607 -101.492 -68.0498s-61.9541 -67.3574 -87.8301 -111.222c-25.9004 -43.9033 -44.1787 -87.4609 -54.8994 -130.703c-10.7207 -43.2344 -14.2051 -83.8027 -10.4766 -121.736
c3.72852 -37.9258 14.4404 -71.9111 32.2002 -101.948c17.7041 -30.0449 41.5986 -53.9473 71.6514 -71.6758c30.0527 -17.7363 62.4883 -27.0645 97.3857 -28.0557c34.874 -1.02246 69.8037 6.03223 104.812 21.1172c20.4102 8.80859 40.3252 21 59.9648 34.9766
c14 9.97266 27.9209 20.457 41.5195 33.0732c29.1719 27.0645 68.293 77.3389 92.0693 115.249c-57.0146 0.605469 -57.0146 0.605469 -86.8711 0.991211h-308.314v1.17188h-0.03125z" />
    <glyph glyph-name="H" unicode="H" horiz-adv-x="723" 
d="M708.636 688.869h-82.8906v-678.929l82.8906 0.904297v-9.61133h-257.372v8.70703h82.8906v332.61h-345.674v-323.872h83.9531v-17.4453h-258.434v8.70703h82.8906v678.929h-82.8906v9.1709h258.434v-9.1709h-83.9531v-327.757h345.674v327.757h-82.8906v9.1709h257.372
v-9.1709z" />
    <glyph glyph-name="I" unicode="I" horiz-adv-x="287" 
d="M272.434 688.869h-83.9531v-678.929h83.9531v-8.70703h-258.434v8.70703h82.8906v678.929h-82.8906v9.1709h258.434v-9.1709zM223.152 864.95l-78.8896 -78.8896l-78.8896 78.8896l78.8896 78.8896z" />
    <glyph glyph-name="J" unicode="J" horiz-adv-x="280" 
d="M12 688.854v9.16309h256.31v-9.1709l-82.8906 -0.628906v-568.148c0 -137.404 -83.9531 -185.358 -166.844 -195.166l-2.17871 9.80762c44.7061 10.8779 77.4248 46.8848 77.4248 134.125v619.39zM218.863 864.892l-78.8896 -78.8896l-78.8896 78.8896l78.8896 78.8896z
" />
    <glyph glyph-name="K" unicode="K" horiz-adv-x="645" 
d="M643.189 698.04l-0.000976562 -9.17871h-72.8633l-279.606 -355.435h91.8652l197.809 -323.486h62.7959v-8.70703h-243.159v8.70703h74.8682l-186.011 321.166l-100.406 -127.636v-193.53h79.6035v-8.70703h-254.084v8.70703h82.8906v678.929h-82.8906v9.1709h254.084
v-9.1709h-79.6035v-454.882l301.472 384.41c22.4238 28.6055 2.05273 70.4717 -34.292 70.4717v9.1709h187.529z" />
    <glyph glyph-name="L" unicode="L" horiz-adv-x="538" 
d="M511.433 218.241h9.61914v-217.008h-507.052v8.70703h82.8906v678.929h-82.8906v9.1709h258.434v-9.1709h-83.9531v-678.929h104.646c115.036 0 218.306 93.2568 218.306 208.301z" />
    <glyph glyph-name="M" unicode="M" horiz-adv-x="901" 
d="M838.232 11.415l66.2578 -0.0175781v-8.86426h-505.644v8.86426h85.8877l-10.2881 30.21l-10.1543 29.7852l-73.6338 216.088l-85.0225 -142.431l-8.62012 -14.3535c-1.8252 -2.90234 -3.7998 -5.52148 -5.67969 -8.33691
c-69.709 -104.938 -169.329 -154.134 -229.018 -109.247c-59.6807 44.8867 -56.8574 166.892 3.30273 278.986c1.6123 2.98828 3.00488 5.99316 4.7041 8.98145l8.94238 14.9912l193.75 318.153l8.09277 13.2998l51.6035 84.873l3.4375 -10.0518l0.0791016 -0.219727
l89.7178 -262.413l3.20898 -9.375l17.2637 -50.4941l0.68457 -1.99805l104.913 176.164l-20.292 59.5391l59.9873 98.8496l3.50781 -10.2637l16.4229 -48.0166l3.5791 -10.4688l90.1895 -263.798l3.5 -10.2168zM335.478 210.402l51.8242 87.0117l-18.1289 53.2002
l-0.236328 0.708008l-3.18555 9.34375l0.0078125 0.0234375l-89.4111 263.79l-154.786 -253.242l-17.7441 -29.6514l-14.8105 -24.7441l-0.251953 -0.267578c-56.9912 -105.928 -28.2598 -186.231 28.1494 -228.656c59.2402 -44.5566 129.052 -26.7344 194.97 83.04
l0.597656 0.999023zM579.235 11.4131h164.516l-94.8145 278.246l-3.42969 10.0518l-89.9619 263.963l-104.992 -175.889l88.4043 -258.567l4.32617 -12.6553z" />
    <glyph glyph-name="N" unicode="N" horiz-adv-x="682" 
d="M479.742 698.04h192.979v-9.1709h-87.2402v-687.644h-18.5537l-448.181 653.21v-557.255c0 -48.1816 39.0586 -87.2402 87.2402 -87.2402v-8.70703h-192.987v8.70703h87.2402v678.929h-86.1709v9.1709h186.507l366.359 -546.299v449.935
c0 48.1582 -39.0352 87.1934 -87.1934 87.1934v9.1709z" />
    <glyph glyph-name="O" unicode="O" horiz-adv-x="753" 
d="M715.343 446.999c10.1299 -42.8809 11.7744 -87.6494 4.91602 -134.306c-6.87402 -46.6328 -23.6035 -92.4707 -50.1562 -137.483c-26.5762 -45.0518 -58.6113 -81.8525 -96.1045 -110.427c-37.4932 -28.5664 -77.4795 -48.7803 -119.904 -60.6484
c-42.4561 -11.8135 -86.0684 -14.7393 -130.758 -8.6748c-44.7451 6.04785 -87.665 21.1494 -128.697 45.3506c-41.0166 24.209 -75.002 54.4746 -101.933 90.7168c-26.9541 36.2031 -45.4531 75.7725 -55.6074 118.614c-10.1621 42.9043 -11.8057 87.6729 -4.93164 134.306
c6.86621 46.6328 23.5957 92.4707 50.1719 137.522c26.5527 45.0205 58.5879 81.8213 96.0811 110.396c37.501 28.5742 77.4795 48.7881 119.943 60.6328c42.4092 11.8369 85.9668 14.7471 130.735 8.73047c44.7451 -6.04785 87.6494 -21.1807 128.674 -45.3818
s75.0176 -54.4346 101.956 -90.6777c26.875 -36.251 45.4287 -75.8047 55.6143 -118.67zM646.091 352.429c10.7197 43.2432 14.1758 83.832 10.4873 121.75c-3.73633 37.9336 -14.4482 71.9189 -32.1846 101.987c-17.7598 30.0215 -41.6152 53.9082 -71.6758 71.6367
c-30.0527 17.7285 -62.5205 27.0879 -97.3633 28.0869c-34.8975 0.983398 -69.8262 -6.07129 -104.826 -21.1562c-35.0078 -15.0771 -68.8359 -37.752 -101.492 -68.0488c-32.6641 -30.2891 -61.9541 -67.3574 -87.8301 -111.222
c-25.9004 -43.9033 -44.1787 -87.4609 -54.8994 -130.703s-14.2051 -83.8184 -10.4766 -121.744s14.4404 -71.9111 32.2002 -101.948c17.6963 -30.0449 41.5986 -53.9473 71.6514 -71.6758c30.0527 -17.7363 62.4883 -27.0645 97.3857 -28.0557
c34.874 -1.02246 69.8027 6.03223 104.811 21.1172c34.9688 15.1016 68.8281 37.7529 101.484 68.0498c32.6641 30.2891 61.9463 67.3574 87.8467 111.261c25.876 43.8643 44.1621 87.4219 54.8818 130.665z" />
    <glyph glyph-name="P" unicode="P" horiz-adv-x="572" 
d="M307.371 698.032c128.666 0 247.515 -68.6865 247.522 -196.275c0 -141.762 -134.117 -201.741 -256.255 -201.741h-110.151v-290.083h92.6992v-8.70703h-266.07v8.70703h81.7744v678.929h-82.8906v9.1709h293.371zM305.151 317.461
c100.336 0 150.508 56.6924 150.508 167.953c0 140.645 -77.4326 195.166 -169.022 195.166h-98.1572v-363.119h116.672z" />
    <glyph glyph-name="Q" unicode="Q" horiz-adv-x="809" 
d="M708.911 150.758l83.4092 -0.015625l-4.2627 -31.9639l-2.13184 -13.4102c-0.535156 -4.31055 -1.73047 -9.98926 -2.66602 -14.874c-18.5381 -108.618 -177.753 -174.088 -274.274 -122.933v-0.180664c-12.1836 6.67773 -25.0508 14.1025 -35.5586 23.1318
l-11.585 10.5625c-1.36816 1.31348 -2.50098 3.12988 -3.85352 4.56934c-1.33691 -0.393555 -2.56348 -1.14062 -3.9082 -1.51855c-42.4482 -11.8135 -86.0605 -14.7393 -130.75 -8.6748c-44.7451 6.04785 -87.6729 21.1494 -128.697 45.3506
c-13.9688 8.24316 -25.9785 18.1768 -38.3115 27.8193c-1.78516 1.40039 -3.79883 2.60352 -5.55273 4.02734c-21.6768 17.6416 -41.6387 36.7539 -58.0693 58.8633c-26.9541 36.2031 -45.4531 75.7725 -55.6074 118.614
c-10.1621 42.9043 -11.8057 87.6729 -4.93164 134.306c6.86621 46.6328 23.5957 92.4707 50.1719 137.522c26.5527 45.0205 58.5879 81.8213 96.0811 110.396c37.501 28.5742 77.4795 48.7881 119.943 60.6328c42.4092 11.8369 85.9668 14.7471 130.735 8.73047
c44.7451 -6.04785 87.6494 -21.1807 128.674 -45.3818s75.0176 -54.4346 101.956 -90.6768c26.8828 -36.251 45.4365 -75.8047 55.6221 -118.67c10.1387 -42.8809 11.7822 -87.6494 4.9082 -134.282s-23.6035 -92.4707 -50.1562 -137.483
c-26.5762 -45.0518 -58.6113 -81.8525 -96.1045 -110.427c-33.749 -25.7109 -69.8105 -43.6592 -107.556 -55.8428c1.38379 -1.35254 2.41406 -3.12988 3.85352 -4.39648l11.9395 -9.72168c83.6377 -62.5283 220.704 -1.90332 224.865 103.002
c0.172852 4.08203 0.574219 7.32227 0.621094 12.1201c0.251953 8.69141 0.928711 31.8066 1.19629 40.8047zM401.87 42.4551c5.65527 2.44629 11.0908 6.3252 16.6904 9.16406c-65.4541 68.5996 -173.097 73.1768 -251.709 23.0996
c10.1621 -9.21777 20.6309 -18.1367 32.8223 -25.3252c30.0527 -17.7363 62.4883 -27.0645 97.3857 -28.0557c34.874 -1.02246 69.8027 6.03223 104.811 21.1172zM426.01 55.7012c26.3877 14.2832 52.3193 31.584 77.3545 54.8018
c32.6641 30.2891 61.9463 67.3574 87.8467 111.261c25.8838 43.8643 44.1621 87.4219 54.8828 130.664c10.7197 43.2432 14.1729 83.835 10.4766 121.745c-3.72852 37.9336 -14.4482 71.9189 -32.1846 101.987c-17.7598 30.0215 -41.6152 53.9082 -71.6758 71.6367
s-62.5283 27.0879 -97.3711 28.0869c-34.8975 0.983398 -69.8262 -6.07129 -104.826 -21.1562c-35.0078 -15.0771 -68.8359 -37.752 -101.492 -68.0488c-32.6719 -30.2891 -61.9541 -67.3574 -87.8301 -111.222c-25.9004 -43.9033 -44.1787 -87.4609 -54.8994 -130.703
c-10.7207 -43.2432 -14.2129 -83.8193 -10.4766 -121.745s14.4482 -71.9111 32.208 -101.948c9.14746 -15.5342 20.1035 -29.2666 32.5537 -41.5127c80.3662 58.9971 198.115 47.3643 265.434 -23.8467z" />
    <glyph glyph-name="R" unicode="R" horiz-adv-x="641" 
d="M581.503 9.94043l62.8027 0.00195312v-8.70703h-243.159v8.70703h74.8682l-181.779 312.986h-105.755v-312.986h88.3018v-8.70703h-262.783v8.70703h82.8906v678.929h-82.8906v9.1709h276.987c119.96 0 236.632 -58.8711 236.632 -183.18
c0 -68.0498 -39.625 -114.659 -99.1719 -146.694c-28.0869 -15.1094 -80.4297 -30.5176 -115.642 -39.6338c-0.196289 -0.046875 -0.392578 -0.125977 -0.588867 -0.172852c0.353516 -0.0390625 41.0713 -14.833 77.0547 -4.89941zM188.48 340.382
c0 0 123.412 -21.3154 200.932 56.2041c27.1348 27.127 38.9873 65.1318 38.9873 113.92c0 123.2 -62.1504 170.084 -153.787 170.084h-86.1318v-340.208z" />
    <glyph glyph-name="S" unicode="S" horiz-adv-x="495" 
d="M102.508 567.203c0 -186.468 360.989 -134.124 360.981 -386.029c0 -129.775 -102.515 -190.864 -239.919 -190.864c-76.3633 0 -122.17 14.2041 -174.513 52.3418v131.002h9.84766c0 -87.209 68.0332 -161.181 155.211 -163.548
c4.17676 -0.118164 8.4082 -0.172852 12.7021 -0.172852c107.973 0 169.062 44.7529 169.062 138.521c0 196.275 -359.879 146.111 -359.879 383.852c0 118.851 99.2266 176.651 225.714 176.651c65.4463 0 109.617 -14.165 161.96 -52.3428v-115.366h-9.28125
c0.0078125 78.3447 -61.0342 143.728 -139.285 147.652c-5.84375 0.291016 -11.7588 0.44043 -17.7441 0.44043c-97.0557 0 -154.856 -43.6436 -154.856 -122.138z" />
    <glyph glyph-name="T" unicode="T" horiz-adv-x="592" 
d="M9 698.032h573.613v-156.8h-9.16309c0 94.5078 -87.083 147.629 -181.591 147.629h-50.2344v-678.929h81.7744v-8.70703h-256.255v8.70703h81.7822v678.929h-49.1729c-94.5156 0 -181.591 -53.1211 -181.591 -147.629h-9.16309v156.8z" />
    <glyph glyph-name="U" unicode="U" horiz-adv-x="675" 
d="M475.805 698.04l191.926 0.000976562v-9.1709h-86.1318v-459.703c0 -143.979 -76.3633 -238.857 -236.632 -238.857c-164.665 0 -254.123 94.8779 -254.123 243.207v455.354h-82.8438v9.1709h257.324v-9.1709h-82.8438v-465.161
c-1.10938 -123.247 59.9795 -208.309 184.288 -208.309c125.371 0 195.167 78.5332 195.167 213.767v373.571c0 47.5684 -38.5625 86.1309 -86.1309 86.1309v9.1709z" />
    <glyph glyph-name="V" unicode="V" horiz-adv-x="702" 
d="M637.584 687.123c65.0605 -43.6514 61.2471 -163.409 -5.30762 -273.828c-1.77734 -2.94141 -3.31152 -5.91406 -5.18359 -8.83984l-9.88672 -14.7783l-221.381 -324.862l-56.7471 -83.2607l-3.86133 10.0752l-121.194 316.172l-3.83789 10.0205l-142.478 371.047
h-72.7061v8.28223l0.0791016 0.416992h271.262v-8.69922h-94.4609l104.284 -272.969l94.2637 140.103l9.52441 14.1416c2.02148 2.86328 4.2002 5.44336 6.26855 8.22754c76.9287 103.45 186.286 152.403 251.362 108.752zM606.832 389.133
c63.0312 104.331 32.0518 182.952 -29.4385 224.221c-64.5811 43.3213 -141.125 25.3574 -213.933 -82.8125l-0.661133 -0.991211l-25.4121 -37.8789l-57.4551 -85.6357l121.438 -317.847l169.242 247.076l19.5918 29.2188l16.3516 24.374z" />
    <glyph glyph-name="W" unicode="W" horiz-adv-x="986" 
d="M921.233 687.201c65.6426 -44.0371 62.5352 -163.722 -3.65039 -273.7c-1.76953 -2.93359 -3.30371 -5.88281 -5.16797 -8.80859l-9.83887 -14.7158l-213.091 -312.113l-8.89551 -13.0566l-56.7471 -83.2607l-3.77539 9.86328l-0.0869141 0.211914l-98.6768 257.435
l-3.53125 9.20215l-18.9863 49.5352l-0.754883 1.96582l-115.382 -172.821l22.3213 -58.415l-65.9727 -96.9697l-3.86133 10.0752l-18.0586 47.1045l-3.93262 10.2715l-99.1953 258.795l-3.83789 10.0205l-142.226 371.047h-72.8867v8.69922h556.114v-8.69922h-94.4609
l11.3184 -29.6279l11.1689 -29.2266l80.9795 -211.981l93.5166 139.725l9.47754 14.0869c2.00586 2.85547 4.17676 5.41992 6.24512 8.18848c76.6621 102.939 186.231 151.208 251.874 107.171zM378.788 147.085l115.47 172.556l-97.2295 253.659l-4.75879 12.4189
l-39.5381 103.151h-180.931l104.284 -272.969l3.76758 -9.86328zM892.172 389.507c62.6777 103.915 31.0742 182.692 -30.958 224.322c-65.1475 43.707 -141.927 26.2227 -214.42 -81.4668l-0.661133 -0.983398l-25.3018 -37.7139l-56.9912 -85.3525l19.9385 -52.1934
l0.267578 -0.692383l3.5 -9.1709l-0.0078125 -0.0234375l98.3301 -258.787l170.233 248.445l19.5137 29.085l16.2812 24.2715z" />
    <glyph glyph-name="X" unicode="X" horiz-adv-x="698" 
d="M628.278 9.93652l70.6289 0.00683594v-8.70703h-274.816v8.70703l101.186 0.251953l-209.111 316.022l-222.081 -316.274h96.6631v-8.70703h-189.747v8.70703c44.6895 0 86.5713 21.8027 112.212 58.4072l192.036 274.203l-226.037 346.312h-70.5742v9.1709h273.708
v-9.1709h-95.1445l181.315 -278.702l189.157 278.702h-95.3887v9.1709h189.747v-9.1709c-44.6895 0 -86.5166 -21.9834 -111.851 -58.7998l-161.85 -235.168z" />
    <glyph glyph-name="Y" unicode="Y" horiz-adv-x="641" 
d="M475.899 698.032h170.084v-9.1709c-37.9023 0 -72.792 -20.6543 -91.0234 -53.8848l-190.321 -346.948v-278.097h89.4189v-8.70703h-271.529v8.70703h90.5205v266.11l-221.932 412.819h-56.1182v9.1709h248.618v-9.1709h-86.5557l195.591 -382.278l210.031 382.278
h-86.7842v9.1709z" />
    <glyph glyph-name="Z" unicode="Z" horiz-adv-x="552" 
d="M531.969 698.032l-0.00195312 -11.9951l-420.904 -676.105h171.178c115.044 0 211.809 93.2568 211.809 208.301h8.13281v-217h-488.183v11.9863l420.708 675.956l-225.085 -0.188477c-81.5615 -0.0703125 -151.727 -66.2002 -151.727 -147.754h-8.49414v156.8h482.567z
" />
    <glyph glyph-name="bracketleft" unicode="[" horiz-adv-x="268" 
d="M246.168 695.132h-104.379v-851.065h104.379v-10.7676h-186.168v872.601h186.168v-10.7676z" />
    <glyph glyph-name="backslash" unicode="\" horiz-adv-x="240" 
d="M50.2471 660.737l163.588 -687.549h-18.3184l-163.517 687.549h18.2471z" />
    <glyph glyph-name="bracketright" unicode="]" horiz-adv-x="268" 
d="M21 705.899h186.105v-872.601h-186.105v10.7676h104.379v851.065h-104.379v10.7676z" />
    <glyph glyph-name="underscore" unicode="_" horiz-adv-x="518" 
d="M457.018 -25.2861h-397.018v17.2637h397.018v-17.2637z" />
    <glyph glyph-name="a" unicode="a" horiz-adv-x="501" 
d="M418.696 12.5488l70.8584 -0.453125v-9.18652h-158.098v160.315l-63.8418 -76.9287c-1.02246 -1.15625 -2.0918 -2.26562 -3.15332 -3.32715c-0.621094 -0.668945 -1.24219 -1.33008 -1.86328 -1.99902c-46.9707 -51.1943 -107.218 -81.0273 -156.454 -81.0273
c-16.6504 0 -32.0508 3.4209 -45.2402 10.5703c-18.5537 10.1143 -30.8945 26.9453 -35.6924 48.6533c-8.17188 37.2021 6.61426 85.7773 39.4668 129.995c0.582031 0.793945 1.15625 1.5957 1.69141 2.35059c0.793945 1.14844 1.5957 2.25781 2.48438 3.41406
l7.85742 9.54004l217.566 259.826c-19.0342 19.0654 -44.9424 30.4854 -78.4326 30.4854c-69.0166 0 -151.569 -41.4883 -151.569 -41.4883v6.54395c54.5215 29.4316 103.576 43.5967 159.206 43.5967c134.125 0 195.214 -58.8711 195.214 -172.303v-318.578z
M331.457 177.461l0.000976562 179.855c0 41.3154 -10.4531 76.1973 -30.7607 100.563l-213.822 -255.013c-22.4238 -30.1396 -31.0361 -58.6426 -25.3496 -84.3936c5.10449 -23.3984 21.9277 -43.4629 48.6143 -57.9824c55.1426 -30.0137 115.122 -11.1846 168.487 53.1445
l0.574219 0.621094z" />
    <glyph glyph-name="a" unicode="&#xe1;" horiz-adv-x="501" 
d="M418.696 12.5488l70.8584 -0.453125v-9.18652h-158.098v160.315l-63.8418 -76.9287c-1.02246 -1.15625 -2.0918 -2.26562 -3.15332 -3.32715c-0.621094 -0.668945 -1.24219 -1.33008 -1.86328 -1.99902c-46.9707 -51.1943 -107.218 -81.0273 -156.454 -81.0273
c-16.6504 0 -32.0508 3.4209 -45.2402 10.5703c-18.5537 10.1143 -30.8945 26.9453 -35.6924 48.6533c-8.17188 37.2021 6.61426 85.7773 39.4668 129.995c0.582031 0.793945 1.15625 1.5957 1.69141 2.35059c0.793945 1.14844 1.5957 2.25781 2.48438 3.41406
l7.85742 9.54004l217.566 259.826c-19.0342 19.0654 -44.9424 30.4854 -78.4326 30.4854c-69.0166 0 -151.569 -41.4883 -151.569 -41.4883v6.54395c54.5215 29.4316 103.576 43.5967 159.206 43.5967c134.125 0 195.214 -58.8711 195.214 -172.303v-318.578z
M331.457 177.461l0.000976562 179.855c0 41.3154 -10.4531 76.1973 -30.7607 100.563l-213.822 -255.013c-22.4238 -30.1396 -31.0361 -58.6426 -25.3496 -84.3936c5.10449 -23.3984 21.9277 -43.4629 48.6143 -57.9824c55.1426 -30.0137 115.122 -11.1846 168.487 53.1445
l0.574219 0.621094z" />
    <glyph glyph-name="b" unicode="b" horiz-adv-x="586" 
d="M551.955 257.977c4.97852 -33.7568 3.79199 -66.1621 -3.56152 -97.2217c-7.3457 -31.0127 -16.9258 -59.6572 -36.4395 -85.8643c-19.5059 -26.2383 -37.415 -48.1504 -67.1221 -65.666c-29.6914 -17.5234 -62.4424 -28.8652 -98.3467 -28.8652
c-99.8877 0 -165.436 34.4648 -206.161 68.8359v-51.7217c-43.0771 0.118164 -43.0771 0.118164 -86.1787 0.456055v752.578h-74.1445v9.20215h160.315v-327.427c9.69727 8.09375 19.8115 15.833 31.1455 22.5186c17.9404 10.5791 36.542 17.9648 55.4658 23.7539
c12.4033 3.79102 24.8535 7.36133 37.6816 9.09961c32.4043 4.34961 63.9355 2.25 94.6416 -6.32324c30.7451 -8.57324 59.6807 -23.2021 86.8232 -43.8877c27.1504 -20.6855 50.3369 -47.3252 69.5596 -79.9102c19.2383 -32.6172 31.3506 -65.8008 36.3213 -99.5576z
M505.866 141.1c2.69727 27.457 0.171875 56.8262 -7.58301 88.1299c-7.7627 31.3037 -20.9922 62.835 -39.7432 94.6182c-18.7344 31.752 -39.9385 58.5879 -63.5811 80.5156c-23.6504 21.9277 -48.127 38.3428 -73.4688 49.2598
c-25.334 10.917 -50.6279 16.0293 -75.8828 15.3135c-8.14844 -0.228516 -15.8252 -2.13184 -23.6113 -3.63379c-16.3281 -3.13867 -32.1445 -8.00684 -46.876 -16.6982c-13.5361 -7.9834 -24.7207 -18.3105 -34.8037 -29.7383v-289.784
c28.6768 -56.3145 90.2451 -133.976 219.871 -133.976c25.2705 0 48.7402 7.47168 70.4951 20.3076s39.0586 30.1396 51.8711 51.8867c12.8516 21.7393 20.6064 46.3418 23.3125 73.7988z" />
    <glyph glyph-name="c" unicode="c" horiz-adv-x="521" 
d="M467.203 195.665l28.6533 -75.9932c-0.416992 -0.723633 -0.605469 -1.45508 -1.03027 -2.1709c-19.2461 -32.6172 -91.7002 -126.165 -256.334 -126.165c-35.9043 0 -68.6465 11.3496 -98.3457 28.8652c-29.6992 17.5234 -47.6162 39.4355 -67.1143 65.6738
c-19.5215 26.207 -29.1016 54.8438 -36.4473 85.8643c-7.36133 31.0518 -8.54883 63.4639 -3.57031 97.2207c4.9707 33.7656 17.083 66.9492 36.3213 99.5586c19.2227 32.585 42.417 59.2324 69.5596 79.918c27.1426 20.6777 56.0859 35.3066 86.8232 43.8877
c30.6973 8.56543 62.2363 10.6729 94.6406 6.31543c12.8281 -1.73047 25.2783 -5.30078 37.6816 -9.09961c18.9238 -5.78906 37.5254 -13.167 55.4658 -23.7539c26.0098 -15.3369 47.4033 -34.6377 65.5957 -56.6758l-8.19531 -21.999
c-2.91797 6.95312 -5.35645 14.1729 -9.1709 20.6299c-12.8516 21.7393 -30.123 39.0273 -51.8779 51.8633c-14.7236 8.69141 -30.5488 13.5596 -46.877 16.6982c-7.78613 1.49414 -15.4551 3.39746 -23.6035 3.63379c-25.2549 0.71582 -50.541 -4.38867 -75.8828 -15.3135
c-25.3496 -10.917 -49.8262 -27.332 -73.4766 -49.2598c-23.6426 -21.9277 -44.8389 -48.7637 -63.5732 -80.5156c-18.7432 -31.7832 -31.9805 -63.3145 -39.7432 -94.6182s-10.2871 -60.6719 -7.58105 -88.1289c2.69727 -27.457 10.4521 -52.0596 23.3115 -73.8066
c12.8203 -21.7471 30.1162 -39.043 51.8711 -51.8789c21.7627 -12.8359 45.2324 -20.3076 70.5029 -20.3076c192.562 0 235.278 171.57 242.396 189.558z" />
    <glyph glyph-name="d" unicode="d" horiz-adv-x="586" 
d="M445.651 760.711h160.323v-9.20215h-74.1445v-752.578c-43.1094 -0.337891 -43.1094 -0.337891 -86.1787 -0.456055v51.7217c-40.7256 -34.3711 -106.273 -68.8359 -206.161 -68.8359c-35.9121 0 -68.6543 11.3418 -98.3457 28.8652
c-29.6992 17.5156 -47.624 39.4277 -67.1221 65.666c-19.5137 26.207 -29.0938 54.8516 -36.4395 85.8643c-7.35352 31.0518 -8.54883 63.4639 -3.57031 97.2207c4.9707 33.7568 17.083 66.9404 36.3213 99.5576c19.2227 32.585 42.417 59.2246 69.5596 79.9102
s56.0859 35.3145 86.8232 43.8877c30.6973 8.57324 62.2285 10.6729 94.6406 6.32324c12.8281 -1.73047 25.2705 -5.30078 37.6816 -9.09961c18.9238 -5.78906 37.5254 -13.1748 55.4658 -23.7539c11.334 -6.68555 21.4482 -14.4248 31.1465 -22.5176v327.427z
M445.651 342.135l-0.00878906 77.7227c-10.083 11.4277 -21.2676 21.7549 -34.8037 29.7383c-14.7314 8.69141 -30.5479 13.5596 -46.876 16.6982c-7.78613 1.50195 -15.4551 3.40527 -23.6035 3.63379c-25.2549 0.71582 -50.5488 -4.39648 -75.8828 -15.3135
c-25.3418 -10.917 -49.8184 -27.332 -73.4688 -49.2598c-23.6426 -21.9277 -44.8467 -48.7637 -63.5811 -80.5156c-18.751 -31.7832 -31.9805 -63.3145 -39.7432 -94.6182c-7.75488 -31.3037 -10.2793 -60.6719 -7.58203 -88.1289
c2.69824 -27.457 10.4609 -52.0596 23.3125 -73.7988c12.8125 -21.7471 30.1162 -39.0508 51.8711 -51.8867s45.2246 -20.3076 70.4951 -20.3076c129.634 0 191.202 77.6689 219.871 133.976v212.061z" />
    <glyph glyph-name="e" unicode="e" horiz-adv-x="522" 
d="M467.172 195.665l28.6846 -75.9854c-0.416992 -0.723633 -0.605469 -1.45508 -1.03027 -2.1709c-19.2383 -32.6172 -91.7002 -126.165 -256.334 -126.165c-35.9121 0 -68.6465 11.3496 -98.3457 28.8652c-29.707 17.5234 -47.624 39.4355 -67.1221 65.6738
c-19.5137 26.207 -29.0938 54.8438 -36.4395 85.8643c-7.36133 31.0518 -8.54883 63.4639 -3.57031 97.2207c4.9707 33.7656 17.0752 66.9492 36.3213 99.5586c19.2148 32.585 42.4092 59.2324 69.5518 79.918c27.1348 20.6777 56.0869 35.3066 86.8242 43.8877
c30.6973 8.56543 62.2363 10.6729 94.6406 6.31543c12.8281 -1.73047 25.2783 -5.30078 37.6816 -9.09961c18.9316 -5.78906 37.5332 -13.167 55.4736 -23.7539c19.6709 -11.6016 48.041 -34.6465 67.2158 -57.4629c3.79883 -4.52246 6.37891 -8.87207 9.30469 -13.2842
h-318.704c-16.0996 -17.8066 -31.374 -37.2646 -44.9023 -60.1992c-18.7432 -31.7832 -31.9805 -63.3145 -39.7432 -94.6182s-10.2871 -60.6719 -7.58105 -88.1289c2.69727 -27.457 10.4521 -52.0596 23.3115 -73.8066c12.8203 -21.7471 30.1162 -39.043 51.8711 -51.8789
c21.7627 -12.8359 45.2324 -20.3076 70.5029 -20.3076c192.555 0 235.271 171.57 242.389 189.558zM190.004 415.362c-2.27344 -2.10742 -4.23145 -4.83008 -6.45703 -7.03223h277.734c-12.8125 21.4326 -29.8955 38.5713 -51.4307 51.2734
c-14.7314 8.69141 -30.5557 13.5596 -46.876 16.6982c-7.79395 1.49414 -15.4629 3.39746 -23.6113 3.63379c-25.2549 0.71582 -50.5488 -4.38867 -75.8828 -15.3135c-25.3496 -10.917 -49.8262 -27.332 -73.4766 -49.2598z" />
    <glyph glyph-name="f" unicode="f" horiz-adv-x="311" 
d="M281.176 766.172c-67.6562 -1.06934 -105.748 -59.0898 -105.748 -145.214v-4.39648c0 -69.835 56.6133 -126.44 126.44 -126.44v-9.44629h-126.44v-470.573h118.804v-9.62695h-280.228v9.62695h75.207v470.573h-75.207v9.1709h155.439l-13.1738 15.085
c-89.042 101.956 -21.5352 266.786 113.824 268.682c1.14844 0.015625 2.29688 0.0234375 3.45312 0.0234375c41.4648 0 71.0381 -10.9561 114.58 -40.4893v-12.0498c-41.3711 34.8975 -68.7734 45.0752 -106.951 45.0752z" />
    <glyph glyph-name="g" unicode="g" horiz-adv-x="503" 
d="M436.481 31.0938c23.8311 -25.499 36.7969 -60.9326 34.7832 -94.8389c-2.24902 -35.5273 -17.1143 -68.9307 -41.8428 -94.0674l-1.19531 -1.17188c-29.0928 -28.1885 -67.3018 -44.5713 -107.595 -46.1289c-2.13184 -0.0869141 -4.26367 -0.125977 -6.3877 -0.125977
c-0.731445 0 -1.45508 0.0078125 -2.18652 0.015625c-44.0137 0.582031 -86.9258 19.3252 -117.733 51.3994l-2.97266 3.09863l44.6348 44.084l41.835 -43.5654c19.0732 -19.3408 45.5 -30.6514 72.4697 -31.0127c1.76953 -0.0234375 3.54688 -0.0078125 5.32422 0.0625
c24.9639 0.967773 48.6699 11.0586 66.7598 28.4248l1.0459 1.03809c23.1396 23.5088 37.1162 54.8047 39.3262 88.0898c2.0293 31.6885 -10.0596 64.8477 -32.334 88.6865c-13.7881 13.9609 -31.0205 24.4062 -49.7793 30.1553
c-1.21875 0.370117 -2.45312 0.723633 -3.69629 1.05371l-0.841797 0.219727c-1.29004 0.330078 -3.94824 0.958984 -4.45117 1.06934l-6.08789 1.17969c-7.22852 1.17969 -14.5117 1.64355 -21.6299 1.36035c-27.4336 -1.05371 -53.4834 -12.1436 -73.3506 -31.2324
l-7.0625 -6.96875l0.188477 -0.015625l-7.22852 -6.92969l-66.5625 -66.0986c-19.3564 -18.9707 -42.0947 -28.8574 -66.4375 -28.5117c-1.50195 0.0234375 -3.00391 0.0859375 -4.51367 0.180664c-22.8643 1.49414 -45.0674 11.9473 -62.5205 29.4316
c-31.6807 31.7441 -31.626 101.76 11.7666 148.432c0.888672 0.943359 21.4014 22.5957 32.5225 34.3223l-0.110352 0.110352c-3.85352 4.14453 -7.25098 7.85645 -10.4287 11.876c-16.9023 21.3613 -29.6836 46.3486 -37.9971 74.2695
c-8.3291 27.9609 -10.9482 58.3916 -7.80176 90.4502c3.10645 32.0273 11.5459 61.3486 25.0898 87.1543c13.5049 25.7266 30.8711 47.7959 51.627 65.5791c20.6855 17.6572 44.7061 30.8545 71.4082 39.2393c26.6631 8.31348 55.0488 11.0742 84.3857 8.20312
c29.29 -2.83105 56.5977 -11.0107 81.1768 -24.3262c0.44043 -0.244141 0.873047 -0.511719 1.30566 -0.787109c6.68555 28.9277 27.1904 55.6299 54.5537 60.3018c1.98242 0.37793 24.4141 3.67383 24.4141 3.67383v-29.0615
c-3.64941 -0.110352 -13.0088 -0.385742 -16.5322 -0.488281c-1.9502 -0.015625 -3.26367 -0.180664 -4.91504 -0.250977c-22.1406 -0.873047 -39.3574 -20.2295 -47.2383 -40.4111l0.668945 -0.40918c19.6943 -12.4746 36.5967 -27.5518 50.2979 -44.8633
c16.8945 -21.4248 29.6602 -46.4121 37.9502 -74.2705c8.32129 -27.9287 10.9561 -58.3516 7.83398 -90.4102c-3.12988 -32.0898 -11.5771 -61.4268 -25.1133 -87.1934c-13.5439 -25.7666 -30.9023 -47.8359 -51.5879 -65.5801
c-13.7715 -11.7432 -29.0381 -21.5586 -45.3896 -29.1719c-8.35254 -3.89355 -17.1221 -7.27539 -26.0488 -10.0361c-19.9062 -6.21387 -40.7881 -9.33594 -62.2832 -9.33594c-7.29883 0 -14.6689 0.353516 -22.1016 1.07715
c-29.2188 2.83887 -56.5342 11.0342 -81.1992 24.3574c-16.4385 8.87207 -31.7129 20.166 -45.4062 33.5527c-2.98047 -3.08301 -5.71777 -5.92188 -6.22949 -6.46484c-39.4678 -42.4482 -26.4199 -92.8799 2.42188 -121.769
c29.1953 -29.2666 79.7051 -42.0713 121.556 -1.04688l39.625 38.4053c21.4092 20.5674 49.4326 32.499 78.9189 33.6318c2.46973 0.0947266 4.96289 0.110352 7.46387 0.0400391c8.31348 -0.228516 16.5322 -1.73828 24.6094 -3.7041l1.13281 -0.275391
c7.69238 -1.87207 15.2979 -4.20801 22.4785 -7.54297c13.874 -6.44141 26.5293 -15.3213 37.2178 -26.1592zM108.822 303.117c-2.91797 -30.124 -1.83203 -58.6611 3.22559 -84.8047c5.08887 -25.9629 13.4736 -48.9609 24.9414 -68.3486
c11.4355 -19.3408 25.7578 -34.9766 42.5654 -46.4756c16.7217 -11.5068 35.4883 -18.3574 55.7881 -20.3633c20.2607 -1.9502 39.9785 1.14062 58.6113 9.20215c1.19531 0.511719 2.35938 1.03906 3.49219 1.56641c17.3428 8.07715 33.2539 20.1348 47.293 35.8418
c15.085 17.0049 27.7637 37.9658 37.6582 62.2773c10.0049 24.5469 16.5645 52.3428 19.5137 82.5996c2.94922 30.2256 1.86426 58.7451 -3.2168 84.7705c-5.08105 25.8604 -13.4814 48.8662 -24.957 68.3643c-11.4121 19.3008 -25.7344 34.9443 -42.5654 46.4902
c-16.7607 11.5146 -35.5195 18.3496 -55.7646 20.3242c-20.2607 1.97461 -39.9785 -1.11621 -58.6348 -9.16211c-1.11719 -0.479492 -2.21875 -0.974609 -3.30371 -1.47754c-17.4844 -8.14844 -33.4502 -20.2451 -47.458 -35.96
c-14.9678 -16.7764 -27.6387 -37.7295 -37.667 -62.2686c-10.0205 -24.665 -16.5879 -52.4443 -19.5215 -82.5762z" />
    <glyph glyph-name="h" unicode="h" horiz-adv-x="579" 
d="M496.257 11.1709l72.0059 -1.0752v-9.62695h-233.344v9.62695l74.1445 -0.267578v323.258c0 87.2402 -34.8975 138.474 -113.479 138.474c-44.6582 0 -84.9668 -20.7324 -123.152 -64.3291v-397.403l73.0752 0.267578v-9.62695h-234.5v9.62695h74.1445v743.415h-74.1445
v9.20215h159.207v-334.789c44.7529 47.9932 102.554 73.0752 165.773 73.0752c105.747 0 160.269 -69.7881 160.269 -167.906v-321.921z" />
    <glyph glyph-name="i" unicode="i" horiz-adv-x="261" 
d="M176.425 10.0928l73.0752 -0.000976562v-9.62695h-234.5v9.62695h74.1445v470.573h-74.1445v9.4541h161.425v-480.026zM201.222 689.171l-69.1562 -69.1562l-69.1562 69.1562l69.1562 69.1562z" />
    <glyph glyph-name="j" unicode="j" horiz-adv-x="227" 
d="M11.1211 478.666l0.00878906 9.4541h161.338v-508.224c0 -137.365 -79.5557 -185.351 -183.18 -195.166l-3.28809 7.35352c68.7178 10.8779 99.2656 62.4424 99.2656 136.587v550.365zM196.099 687.219l-69.167 -69.1562l-69.1562 69.166l69.167 69.1562z" />
    <glyph glyph-name="k" unicode="k" horiz-adv-x="619" 
d="M552.029 9.17285l62.7793 0.00195312v-8.70703h-243.159v8.70703h74.8682l-186.011 321.166l-89.2383 -113.432v-206.814h72.0137v-9.62695h-232.282v9.62695h74.1445v743.415h-73.0752v9.20215h159.207v-515.247l135.446 172.711
c19.2539 24.5469 1.76953 60.4902 -29.4316 60.4902v9.1709h187.537v-9.1709h-86.0449l-116.428 -148.007h91.8652z" />
    <glyph glyph-name="l" unicode="l" horiz-adv-x="257" 
d="M171.269 10.0928l74.1445 -0.046875v-9.58008h-234.413v9.62695h74.1445v743.415h-74.1445v9.20215h160.269v-752.617z" />
    <glyph glyph-name="m" unicode="m" horiz-adv-x="880" 
d="M796.915 10.0459l73.0674 0.0458984v-9.62695h-233.344v9.62695l73.0752 -0.558594v326.798c0 81.7744 -32.7588 135.226 -102.555 135.226c-40.3164 0 -79.5635 -18.5537 -119.959 -62.1504v-392.605h73.0752v-16.3359h-234.413v16.3359h74.1445v338.084
c0 73.0361 -31.6104 116.672 -104.686 116.672c-40.4033 0 -79.6504 -20.7324 -118.897 -64.3291v-396.672l73.0752 -0.456055v-9.62695h-234.5v9.62695h74.2314v470.573h-74.2314v9.44629h161.425v-59.9795c41.4648 43.5967 95.9785 70.8574 160.269 70.8574
c69.7959 0 117.836 -32.7188 138.521 -81.7734c50.1719 55.6221 104.686 81.7734 176.699 81.7734c87.1934 0 145.002 -66.5078 145.002 -162.494v-328.457z" />
    <glyph glyph-name="n" unicode="n" horiz-adv-x="583" 
d="M500.336 10.5488l71.9268 -0.462891v-9.62695h-233.352v9.62695l74.1445 -0.046875v323.046c0 87.2402 -34.8975 138.474 -112.322 138.474c-43.5967 0 -83.9053 -19.6152 -124.309 -64.3291v-396.672l73.0752 -0.456055v-9.62695h-234.5v9.62695h74.2314v470.573
h-74.2314v9.44629h161.425v-59.9795c44.7529 46.8838 101.397 70.8564 163.556 70.8564c105.834 0 160.355 -69.7881 160.355 -167.906v-322.543z" />
    <glyph glyph-name="o" unicode="o" horiz-adv-x="562" 
d="M524.926 324.079c7.25977 -30.7607 8.44727 -63.2832 3.51562 -96.6631c-4.93945 -33.4502 -17.083 -66.751 -36.1084 -98.9902s-42.2744 -58.9727 -69.1729 -79.4697s-55.9365 -35.1816 -86.3428 -43.6992c-20.2139 -5.59961 -40.8994 -8.42285 -61.8682 -8.42285
c-10.7207 0 -21.4961 0.739258 -32.2637 2.20996c-32.1211 4.31836 -63.291 15.2979 -92.707 32.6406c-29.3682 17.3193 -54.041 39.3027 -73.3975 65.3281c-19.2617 25.8838 -32.7344 54.6309 -40.041 85.4229c-7.30664 30.7373 -8.48633 63.2598 -3.55469 96.6865
c4.93164 33.4502 17.0752 66.751 36.1484 99.0137c18.9785 32.1924 42.2275 58.9258 69.126 79.4463c26.8516 20.4727 55.9287 35.1572 86.3906 43.6748c30.3672 8.41602 62.0557 10.5078 94.1299 6.26074c32.0742 -4.31836 63.2441 -15.3213 92.6602 -32.6875
c29.3682 -17.2881 54.0889 -39.2559 73.3975 -65.2812c19.3086 -26.002 32.7812 -54.7725 40.0879 -85.4697zM286.619 508.234c-0.967773 0 -1.91113 -0.180664 -2.87891 -0.196289c4.05078 0.046875 8.15625 -0.267578 12.2383 -0.432617
c-3.11426 0.125977 -6.26074 0.628906 -9.35938 0.628906zM473.786 256.188c7.58984 30.7451 10.0938 60.0674 7.48242 87.1787c-2.6582 27.0166 -10.3975 51.5479 -23.0127 72.8936c-12.624 21.4014 -29.8486 38.5947 -51.1943 51.1943
c-21.3535 12.5996 -44.7363 19.3633 -69.5508 20.0713c-1.4707 0.046875 -2.94141 0.0703125 -4.41211 0.0703125c-23.4385 0 -47.1123 -5.09668 -70.5508 -15.2031c-24.9092 -10.7197 -49.3379 -27.1104 -72.6816 -48.7236
c-23.249 -21.6133 -44.4609 -48.418 -62.9131 -79.7061c-18.3574 -31.1465 -31.5947 -62.623 -39.3262 -93.6035c-7.63672 -30.8867 -10.1533 -60.208 -7.49512 -87.1777c2.6582 -27.04 10.3975 -51.5713 23.0137 -72.8701
c12.5762 -21.3535 29.793 -38.5703 51.1943 -51.2412c21.3457 -12.5762 44.7842 -19.3398 69.5518 -20.0244c1.56543 -0.046875 3.13086 -0.0703125 4.64844 -0.0703125c23.2969 0 46.877 5.09668 70.3154 15.1562c25.0508 10.8613 49.5273 27.252 72.6826 48.7471
c23.2969 21.6133 44.4619 48.4414 62.9141 79.7295c18.46 31.2637 31.6973 62.7402 39.334 93.5791z" />
    <glyph glyph-name="p" unicode="p" horiz-adv-x="575" 
d="M542.382 295.19c4.58496 -31.1221 3.49023 -61.0127 -3.27344 -89.6494c-6.7793 -28.5977 -15.6123 -55.0088 -33.5996 -79.1787c-17.9873 -24.1934 -34.5039 -44.3906 -61.8906 -60.5459c-27.3789 -16.1553 -57.5654 -26.6162 -90.6777 -26.6162
c-92.1094 0 -152.545 31.7754 -190.093 63.4717v-303.115h69.1191v-9.1709h-220.956v9.1709h72.375v689.106h-72.375v9.1709h72.375h2.72168h76.7324v-41.9287c8.94238 7.46387 18.2627 14.5977 28.7158 20.7637c16.54 9.75293 33.6943 16.5566 51.1475 21.8975
c11.4355 3.5 22.9111 6.78809 34.7402 8.39258c29.8877 4.01074 58.957 2.07617 87.2637 -5.82812c28.3457 -7.9043 55.0244 -21.3926 80.0518 -40.4658s46.4131 -43.6357 64.1328 -73.6807c17.7363 -30.0684 28.8975 -60.6641 33.4902 -91.7939zM499.885 187.419
c2.48535 25.3262 0.161133 52.3965 -6.99609 81.2617c-7.15723 28.8574 -19.3564 57.9346 -36.6445 87.2402c-17.2715 29.2744 -36.8164 54.0186 -58.6191 74.2402s-44.376 35.3545 -67.7432 45.4219c-23.3594 10.0674 -46.6797 14.7783 -69.9688 14.1172
c-7.51172 -0.211914 -14.5908 -1.96582 -21.7715 -3.35059c-15.0459 -2.89453 -29.6436 -7.38574 -43.2188 -15.3926c-12.4824 -7.36133 -22.8018 -16.8857 -32.0908 -27.4248v-267.211c26.4346 -51.918 83.2051 -123.522 202.724 -123.522
c23.3047 0 44.9414 6.88965 65.0059 18.7266s36.0146 27.7871 47.8281 47.8438c11.8525 20.0479 19.002 42.7314 21.4951 68.0498z" />
    <glyph glyph-name="q" unicode="q" horiz-adv-x="575" 
d="M563.162 488.666l-72.376 0.00195312v-689.099h72.375v-9.1709h-151.829v312.286c-37.5566 -31.6963 -97.9922 -63.4717 -190.093 -63.4717c-33.1045 0 -63.291 10.4609 -90.6777 26.6162c-27.3945 16.1475 -43.9111 36.3535 -61.8906 60.5469
c-17.9873 24.1699 -26.8281 50.5811 -33.5996 79.1787c-6.78809 28.6289 -7.88086 58.5166 -3.2959 89.6387s15.7539 61.7178 33.4902 91.7939c17.7197 30.0449 39.1055 54.6074 64.1328 73.6807s51.7139 32.5615 80.0596 40.4658
c28.3066 7.9043 57.376 9.83887 87.2637 5.82812c11.8291 -1.59668 23.3047 -4.89258 34.748 -8.39258c17.4453 -5.33301 34.5996 -12.1445 51.1396 -21.8975c10.4531 -6.16602 19.7812 -13.2998 28.7236 -20.7637v41.9287h76.7324h75.0967v-9.1709zM411.34 176.342
l-0.0078125 267.214c-9.29688 10.5391 -19.6084 20.0635 -32.0908 27.4248c-13.5752 8.00684 -28.165 12.498 -43.2188 15.3926c-7.18848 1.38379 -14.2588 3.1377 -21.7695 3.34961c-23.2891 0.661133 -46.6094 -4.0498 -69.9688 -14.1172
c-23.3672 -10.0674 -45.9326 -25.2002 -67.7432 -45.4219c-21.8018 -20.2217 -41.3467 -44.958 -58.6182 -74.2402c-17.2881 -29.3057 -29.4873 -58.375 -36.6445 -87.2402c-7.14941 -28.8652 -9.47754 -55.9453 -6.99219 -81.2637
c2.49316 -25.3184 9.64258 -48.002 21.4951 -68.0498c11.8135 -20.0566 27.7637 -36.0068 47.8281 -47.8438s41.7012 -18.7266 65.0059 -18.7266c119.52 0 176.29 71.6045 202.725 123.522z" />
    <glyph glyph-name="r" unicode="r" horiz-adv-x="396" 
d="M326.994 500.997c20.6934 0 41.3789 -3.28809 62.1582 -9.81641l-1.15625 -29.4316c-18.5537 14.165 -41.3701 19.623 -67.5693 19.623c-56.7393 0 -103.623 -26.1514 -142.87 -74.1445v-397.128h87.2793v-9.62695h-250.836v9.62695h76.3633v470.573h-75.293v9.44629
h158.137v-62.1973c33.8281 40.3564 85.0615 73.0752 153.787 73.0752z" />
    <glyph glyph-name="s" unicode="s" horiz-adv-x="416" 
d="M115.35 410.88c0 -142.871 270.466 -93.8164 270.458 -270.476c0 -104.693 -97.1348 -142.871 -198.54 -142.871c-62.1504 0 -109.034 9.81543 -160.268 37.1152l2.21777 33.7891h4.34961c49.0078 -38.1855 92.6992 -54.5215 155.919 -54.5215
c78.4863 0 121.021 32.7266 121.021 90.5273c0 149.398 -270.467 101.405 -270.467 269.311c0 94.8779 87.2871 135.234 185.405 135.234c55.6699 0 93.7607 -9.80762 149.438 -35.959l-2.21777 -32.7188h-4.34961c-49.1025 38.1377 -89.4111 53.4121 -143.933 53.4121
c-69.7881 1.10938 -109.035 -29.4307 -109.035 -82.8428z" />
    <glyph glyph-name="t" unicode="t" horiz-adv-x="349" 
d="M334.367 51.8096l2.7373 -2.28027c-20.6777 -32.7188 -58.8633 -59.9795 -119.952 -59.9795c-82.8438 0 -133.016 44.7061 -133.016 136.343v355.151l-74.1367 -0.370117v9.44629h74.208v154.81h86.0684s2.28125 -25.1211 0 -55.7793
c-2.66602 -35.8496 -11.5693 -79.2656 -37.6816 -99.0391h196.889v-9.44629l-159.207 -0.133789v-356.827c0 -66.5469 32.7666 -99.2656 88.3496 -99.2656c27.2607 0 59.3975 8.85645 75.7412 27.3711z" />
    <glyph glyph-name="u" unicode="u" horiz-adv-x="568" 
d="M482.201 488.129l0.000976562 -480.953h71.9268v-8.70703h-159.207v65.4463c-41.3789 -52.3428 -94.8311 -76.3633 -154.858 -76.3633c-100.344 0 -158.145 66.5547 -158.145 163.603v327.64l-71.9189 -0.118164v9.4541h159.207v-335.897
c0 -77.4326 27.2607 -134.125 103.624 -134.125c40.3086 0 81.7812 18.5615 122.09 67.6162v393.306l-71.9268 -0.228516v9.32812h159.207z" />
    <glyph glyph-name="v" unicode="v" horiz-adv-x="566" 
d="M403.13 488.12h158.137v-9.44629c-38.8535 0 -73.8848 -23.3906 -88.7734 -59.2793l-177.344 -427.448h-15.2666l-219.635 486.728h-56.2441v9.44629h224.645v-9.44629h-72.3047l163.855 -379.864l156.179 379.864h-73.248v9.44629z" />
    <glyph glyph-name="w" unicode="w" horiz-adv-x="801" 
d="M642.041 498.12l155.92 -0.000976562v-9.44629c-37.9727 0 -71.9268 -23.6738 -85.0459 -59.3105l-156.996 -426.347h-15.2744l-137.357 363.119l-133.103 -363.119h-15.2744l-198.611 485.658h-53.2939v9.44629h221.451v-9.44629h-73.1621l140.731 -370.048
l138.521 379.502h11.9785l138.521 -376.262l132.897 366.808h-71.9033v9.44629z" />
    <glyph glyph-name="x" unicode="x" horiz-adv-x="562" 
d="M554.354 0.46582h-233.352v9.24121l88.7422 0.385742l-149.831 211.738l-170.014 -211.738h82.8125v-9.62695h-164.712v10.5869c37.8867 -0.605469 73.9326 16.2812 97.709 45.7832l144.428 179.2l-172.09 244.63h-59.1221v9.44629h243.207v-9.44629h-88.0742
l128.383 -183.589l145.254 183.589h-79.8076v9.44629h163.556v-9.44629c-38.4209 0 -74.7422 -17.5234 -98.6602 -47.5918l-119.417 -150.154l191.171 -272.827l48.292 -0.385742z" />
    <glyph glyph-name="y" unicode="y" horiz-adv-x="566" 
d="M403.126 478.627l0.000976562 9.46094h158.145v-9.4541c-38.0908 0 -71.6748 -24.9795 -82.623 -61.4658l-74.3652 -247.784c-18.9082 -62.9922 -35.4404 -126.661 -49.5664 -190.888l-0.204102 -0.935547c-8.76172 -39.8057 -29.5254 -77.1416 -57.2891 -107.918
c-44.6191 -49.4951 -108.555 -77.9043 -175.44 -77.9043h-2.15527v81.5225h82.0732c42.6924 0.550781 83.5674 19.042 112.087 50.6758c20.6299 22.8721 33.5762 51.3516 37.5713 81.5381l-77.6689 0.157227l-213.445 472.995h-56.2441v9.4541h224.645v-9.4541h-72.3047
l187.687 -435.125l132.347 435.125h-73.248z" />
    <glyph glyph-name="z" unicode="z" horiz-adv-x="430" 
d="M418.697 10.0928l1.06152 -9.62793h-406.755v10.9248l298.129 469.275h-283.562l-0.361328 9.4541h375.145v-10.9248l-299.553 -469.102h315.896z" />
    <glyph glyph-name="braceleft" unicode="{" horiz-adv-x="303" 
d="M187.083 -20.3145c-7.47949 -79.6895 28.0303 -123.807 76.4014 -134.503l12.9385 -3.2793l-1.11719 -7.47949l-20.418 2.09961c-107.588 10.7676 -163.517 76.4102 -152.749 176.518l17.2012 144.152c6.43359 54.8828 -30.1318 92.5566 -89.3408 103.324v17.2012
c59.2168 10.7598 95.7744 47.3252 90.3945 103.254l-16.1475 144.216c-12.8672 100.037 43.0615 165.68 150.649 176.447l20.418 2.09961l1.11719 -8.59668l-12.9385 -2.09961c-51.666 -11.876 -83.8896 -59.209 -75.293 -134.502l15.0303 -145.27
c8.59668 -75.293 -42.999 -128.005 -128.006 -145.269c85.0068 -15.0381 136.603 -67.75 126.952 -143.106z" />
    <glyph glyph-name="braceright" unicode="}" horiz-adv-x="303" 
d="M181.974 380.966c-6.42578 -55.9287 31.249 -92.4912 90.3877 -103.251v-17.2012c-59.1465 -10.7676 -96.8203 -48.4492 -89.2773 -103.324l17.2012 -144.152c10.7676 -100.107 -46.2783 -165.75 -152.749 -176.518l-20.4805 -2.09961l-1.05371 7.47949l11.8135 3.2793
c49.4951 10.6963 85.0059 54.8115 76.4092 134.501l-13.9844 145.207c-9.70605 75.3643 41.9521 128.076 126.959 143.106c-85.0068 17.2637 -136.665 69.9756 -128.068 145.269l13.9766 145.27c9.71387 75.293 -23.6348 122.617 -75.293 134.501l-11.8135 2.09961
l1.05371 8.59668l20.4805 -2.09961c106.471 -10.7598 163.517 -76.4102 150.586 -176.447z" />
    <glyph glyph-name="asciitilde" unicode="~" horiz-adv-x="435" 
d="M408.676 380.353c1.9502 -8.5498 2.52441 -21.7568 2.53223 -31.3047c0 -51.8711 -27.1973 -81.7979 -83.9365 -81.7979c-42.3535 0 -85.6826 24.2959 -122.405 47.0264c-39.0586 24.2881 -74.8057 49.5508 -106.085 49.5508
c-39.2471 0 -63.5352 -35.1729 -63.5352 -75.584c0 -13.0166 1.93457 -22.3447 2.5166 -25.4512l-12.2383 -1.75391c-1.94238 10.1064 -2.52441 20.7871 -2.52441 32.2549c0 54.7969 34.001 86.2734 84.7158 86.2734c46.8213 0 87.6182 -25.2627 122.397 -46.2471
c40.0332 -24.2881 80.0508 -49.543 111.339 -49.543c33.0254 0 57.5098 30.5088 57.5098 73.0596c0 8.36035 -1.36816 17.0986 -2.53223 22.7383z" />
    <glyph glyph-name="nonbreakingspace" unicode="&#xa0;" horiz-adv-x="357" 
 />
    <glyph glyph-name="cent" unicode="&#xa2;" horiz-adv-x="540" 
d="M475.177 262.784l28.6729 -75.9775c-0.416992 -0.723633 -0.605469 -1.45508 -1.03027 -2.1709c-17.9795 -30.4697 -82.4502 -114.14 -225.155 -124.978v-89.6631h-13.4805v88.8838c-5.78125 -0.244141 -11.6562 -0.40918 -17.6963 -0.40918
c-35.9121 0 -68.6465 11.3496 -98.3457 28.8652c-29.6992 17.5234 -47.6162 39.4355 -67.1143 65.6738c-19.5215 26.207 -29.0938 54.8438 -36.4473 85.8643c-7.35352 31.0518 -8.54883 63.4561 -3.57031 97.2217s17.083 66.9492 36.3213 99.5586
c19.2305 32.585 42.417 59.2324 69.5596 79.918c27.1426 20.6777 56.0859 35.3066 86.8232 43.8877c10.0596 2.81543 20.2217 4.85254 30.4697 6.27637v100.218h13.4805v-98.7549c16.6582 1.31348 33.5449 0.873047 50.6914 -1.43164
c12.8281 -1.73047 25.2783 -5.30078 37.6816 -9.09961c18.9316 -5.78906 37.5332 -13.167 55.4736 -23.7539c26.0098 -15.3369 47.4033 -34.6377 65.5879 -56.6758l-8.19531 -21.999c-2.91797 6.95312 -5.35645 14.1738 -9.1709 20.6309
c-12.8516 21.7393 -30.123 39.0273 -51.8779 51.8633c-14.7314 8.69141 -30.5566 13.5596 -46.877 16.6982c-7.79395 1.49414 -15.4629 3.39746 -23.6113 3.63379c-23.2021 0.652344 -46.4277 -3.66602 -69.7012 -12.8291
c-2.06055 -0.810547 -4.11328 -1.59668 -6.18164 -2.48535c-2.44629 -1.05371 -4.86914 -2.20215 -7.2998 -3.3584c-22.7461 -10.8223 -44.7998 -26.0889 -66.1699 -45.9092c-23.6504 -21.9277 -44.8467 -48.7637 -63.5811 -80.5156
c-18.751 -31.7832 -31.9883 -63.3145 -39.751 -94.6182c-7.75488 -31.3037 -10.2793 -60.6719 -7.58105 -88.1289c2.70605 -27.457 10.4609 -52.0596 23.3125 -73.8066c12.8203 -21.7471 30.1162 -39.043 51.8711 -51.8789
c21.7627 -12.8359 45.2324 -20.3076 70.5029 -20.3076c10.9639 0 21.3848 0.621094 31.3975 1.6748c4.60156 0.479492 9.06934 1.10059 13.4814 1.78516c154.44 24.0908 190.99 169.604 197.511 186.098z" />
    <glyph glyph-name="sterling" unicode="&#xa3;" horiz-adv-x="581" 
d="M528.106 191.101l9.66211 0.000976562v-217.896h-447.567v54.875c63.4795 57.0459 86.0605 109.758 86.0605 175.4c0 27.9609 -4.33398 54.876 -10.7676 80.6738h-144.491v13.4805h140l-0.888672 2.66602c-15.0303 55.9287 -36.5576 109.75 -36.5576 173.229
c0 121.572 104.371 199.028 237.757 199.028c63.4795 0 110.481 -15.0381 154.589 -40.8984v-117.938h-11.4912v101.791c-31.1777 21.5352 -85.0068 38.7988 -138.773 38.7988c-96.8203 0 -151.703 -59.209 -151.703 -156.037c0 -67.8135 32.2393 -126.952 47.332 -197.982
l0.361328 -2.66602h155.141v-13.4805h-153.331c3.2168 -18.3184 4.27051 -36.5654 4.27051 -55.9297c-2.16309 -73.1934 -83.0879 -201.018 -167.041 -244.079l235.263 -0.424805c104.182 13.1895 192.177 100.973 192.177 207.389z" />
    <glyph glyph-name="yen" unicode="&#xa5;" horiz-adv-x="743" 
d="M524.478 665.952h168.961v-9.46973h-58.0371l-220.681 -400.306v-10.4531h112.613v-13.4805h-112.613v-62.8037h112.613v-13.4805h-112.613v-172.617h89.3408v-10.1543h-267.888v10.1543h88.2158v172.617h-108.279v13.4805h108.279v60.9395l-0.236328 1.86426h-108.044
v13.4805h106.345l-0.228516 1.85645l-218.313 408.902h-53.9082v9.46973h245.307v-9.46973h-87.8857l195.48 -381.995l210.983 381.995h-89.4111v9.46973z" />
    <glyph glyph-name="copyright" unicode="&#xa9;" horiz-adv-x="772" 
d="M356.158 131.868c158.342 0 193.465 141.089 199.316 155.867l23.5723 -62.4805c-0.337891 -0.589844 -0.495117 -1.19531 -0.84082 -1.78516c-15.8252 -26.8125 -75.4043 -103.741 -210.779 -103.741c-29.5254 0 -56.4561 9.32812 -80.8691 23.7373
c-24.4209 14.4092 -39.1602 32.4287 -55.1895 54.0029c-16.0449 21.5508 -23.9258 45.0986 -29.9736 70.6055c-6.04785 25.5381 -7.03125 52.1934 -2.93359 79.9492c4.08984 27.7559 14.0469 55.0479 29.8711 81.8604c15.793 26.7969 34.8662 48.7012 57.1875 65.7139
c22.3213 17.0049 46.1133 29.0303 71.3916 36.085c25.2471 7.04688 51.1787 8.77734 77.8262 5.19824c10.5391 -1.43164 20.7793 -4.36523 30.9805 -7.4873c15.5732 -4.75879 30.8633 -10.8311 45.6182 -19.5303c21.3779 -12.6152 38.9727 -28.4873 53.9326 -46.6084
l-6.74023 -18.0898c-2.39844 5.71777 -4.4043 11.6562 -7.53418 16.9648c-10.5703 17.8779 -24.7744 32.0898 -42.668 42.6445c-12.1045 7.14941 -25.1211 11.1523 -38.5391 13.7324c-6.41016 1.22656 -12.71 2.7998 -19.4189 2.98828
c-20.7715 0.589844 -41.5674 -3.61035 -62.4023 -12.5928c-20.8428 -8.97461 -40.9697 -22.4717 -60.4121 -40.5068s-36.8721 -40.0967 -52.2803 -66.209c-15.416 -26.1357 -26.2939 -52.0596 -32.6807 -77.8018c-6.38672 -25.7432 -8.46289 -49.8896 -6.2373 -72.4707
s8.60449 -42.8105 19.1748 -60.6885c10.5391 -17.8857 24.7676 -32.1055 42.6533 -42.6602c17.8936 -10.5547 37.1865 -16.6973 57.9746 -16.6973zM386.295 671.509c180.789 0 343.26 -136.673 343.26 -354.019c0 -219.446 -162.479 -355.065 -343.26 -355.065
c-180.71 0 -344.298 135.619 -344.298 355.065c0 217.346 163.58 354.019 344.298 354.019zM386.295 -18.2109c168.976 0 324.934 126.951 324.934 335.7s-155.966 335.7 -324.934 335.7c-170.014 0 -324.926 -126.951 -324.926 -335.7s154.912 -335.7 324.926 -335.7z" />
    <glyph glyph-name="softhyphen" unicode="&#xad;" horiz-adv-x="0" 
 />
    <glyph glyph-name="registered" unicode="&#xae;" horiz-adv-x="493" 
d="M245.695 674.737c110.805 0 208.75 -81.79 208.75 -213.075c0 -130.177 -97.9453 -211.967 -208.75 -211.967c-109.759 0 -207.696 81.7979 -207.696 211.967c0 131.285 97.9375 213.075 207.696 213.075zM245.695 266.96c101.154 0 191.485 73.1221 191.485 194.702
c0 122.688 -90.3311 195.882 -191.485 195.882c-100.107 0 -190.431 -73.1934 -190.431 -195.882c0 -121.572 90.3232 -194.702 190.431 -194.702zM277.18 456.55l67.0986 -109.405h23.1074v-8.92676h-90.3789v8.92676h23.8389l-59.7363 102.845h-32.0898v-102.853h30.6738
v-8.92676h-97.1973v8.92676h28.8018v229.985h-28.8018v9.08398h99.1875c42.3936 0 85.1641 -20.5908 85.1641 -66.5938c0 -22.6836 -12.1201 -40.7109 -36.0146 -53.5625c-7.57422 -4.07422 -19.71 -8.05371 -29.3994 -10.8848
c4.25488 -0.463867 9.0918 -0.448242 13.6143 0.794922zM209.014 461.591c9.3125 -1.01465 42.8652 -2.88672 64.7773 19.0254c8.53418 8.53418 12.6787 20.7959 12.6787 37.4932c0 37.249 -16.9805 56.1416 -50.4785 56.1416h-26.9775v-112.66z" />
    <glyph glyph-name="Agrave" unicode="&#xc0;" 
d="M497.622 726.372c-2.02148 0.826172 -202.827 83.1816 -284.625 94.9326l-4.72656 0.676758l16.9727 48.7324l4.23145 -2.85547c72.2969 -48.7715 270.86 -127.644 272.858 -128.438l3.38184 -1.33691l-4.10547 -13.3477zM602.709 82.6152
c14.7002 -39.2939 52.3096 -65.2783 94.2705 -65.1133v-8.98242h-260.651v8.70703h91.582l-79.5557 214.829l-18.0586 49.0469l-4.53027 -6.77148l-93.5166 -139.725l-9.47754 -14.0869c-2.01367 -2.85547 -4.18457 -5.41992 -6.24512 -8.18848
c-76.6699 -102.939 -186.239 -151.208 -251.882 -107.171s-62.5361 163.722 3.63379 273.692c1.76953 2.94141 3.30371 5.89062 5.16797 8.81641l9.83887 14.708l213.083 312.121l6.70117 9.83105l-28.1416 66.8379l88.3496 31.6104l126.268 -337.604l97.127 145.474
l3.79883 -10.1934l-97.1973 -145.238zM422.044 284.06l4.60156 6.91211l-116.821 317.305l-2.86328 6.80371l-6.96094 -10.1543l-170.233 -248.444l-19.5137 -29.085l-16.2812 -24.2715l-0.275391 -0.259766c-62.6777 -103.923 -31.0752 -182.7 30.9648 -224.322
c65.1553 -43.707 141.935 -26.2227 214.428 81.4668l0.661133 0.983398l25.3027 37.7139z" />
    <glyph glyph-name="Aacute" unicode="&#xc1;" 
d="M142.589 726.372l-3.97949 -1.63477l-4.10547 13.3477l3.38184 1.33691c1.99805 0.786133 200.554 79.6582 272.858 128.438l4.23145 2.85547l16.9727 -48.7324l-4.72656 -0.676758c-81.8057 -11.751 -282.611 -94.1074 -284.633 -94.9336zM602.717 82.6172
c14.6924 -39.2939 52.3096 -65.2783 94.2549 -65.1133v-8.98242h-260.651v8.70703h91.5898l-79.5557 214.829l-18.0586 49.0469l-4.53027 -6.77148l-93.5166 -139.725l-9.47754 -14.0869c-2.01367 -2.85547 -4.18457 -5.41992 -6.24512 -8.18848
c-76.6699 -102.939 -186.239 -151.208 -251.882 -107.171s-62.5361 163.722 3.63379 273.692c1.76953 2.94141 3.30371 5.89062 5.16797 8.81641l9.83887 14.708l213.099 312.113l6.70117 9.83105l-28.1416 66.8379l88.3496 31.6104l126.26 -337.597l97.127 145.474
l3.79883 -10.1934l-97.1973 -145.238zM422.044 284.062l4.61719 6.9043l-116.821 317.305l-2.86328 6.80371l-6.96094 -10.1543l-170.233 -248.444l-19.5137 -29.085l-16.2812 -24.2715l-0.275391 -0.259766c-62.6855 -103.915 -31.083 -182.692 30.9492 -224.314
c65.1553 -43.707 141.935 -26.2227 214.428 81.4668l0.661133 0.983398l25.3027 37.7139z" />
    <glyph glyph-name="Acircumflex" unicode="&#xc2;" 
d="M602.717 82.6162c14.6924 -39.2939 52.3018 -65.2783 94.2627 -65.1055v-8.98242h-260.651v8.70703h91.582l-79.5557 214.829l-18.0586 49.0469l-4.53027 -6.77148l-93.5166 -139.725l-9.47754 -14.0869c-2.01367 -2.85547 -4.18457 -5.41992 -6.24512 -8.18848
c-76.6699 -102.939 -186.239 -151.208 -251.882 -107.171s-62.5361 163.722 3.63379 273.692c1.76953 2.94141 3.30371 5.89062 5.16797 8.81641l9.83887 14.708l213.091 312.113l6.70117 9.83105l-28.1416 66.8379l88.3496 31.6104l126.268 -337.604l97.127 145.474
l3.79883 -10.1934l-97.1973 -145.238zM422.044 284.061l4.60156 6.91309l-116.821 317.305l-2.86328 6.80371l-6.96094 -10.1543l-170.233 -248.445l-19.5137 -29.085l-16.2812 -24.2715l-0.275391 -0.259766c-62.6777 -103.923 -31.0752 -182.7 30.9648 -224.322
c65.1553 -43.707 141.935 -26.2227 214.428 81.4668l0.661133 0.983398l25.3027 37.7139zM138.371 724.737l-3.27246 -2.51758l-8.43164 12.1748l2.87891 2.28906c46.5928 37.0996 140.534 114.493 194.183 162.777l2.62695 2.36719l2.62695 -2.36719
c53.6094 -48.2529 147.566 -125.662 194.184 -162.777l2.87891 -2.28906l-8.43164 -12.1748l-3.2793 2.5166c-52.4766 40.2773 -127.463 93.9414 -187.985 121.871c-60.5146 -27.9209 -135.509 -81.585 -187.978 -121.87z" />
    <glyph glyph-name="Atilde" unicode="&#xc3;" 
d="M148.857 739.822l-12.2314 -1.77051c-1.94238 10.1064 -2.52441 20.7871 -2.52441 32.2549c0 54.7969 34.001 86.2734 84.7158 86.2734c46.8213 0 87.6182 -25.2627 122.397 -46.2471c40.0342 -24.2881 80.0518 -49.543 111.34 -49.543
c33.0254 0 57.5098 30.5088 57.5098 73.0596c0 8.36035 -1.36816 17.0986 -2.53223 22.7383l12.2461 0.77832c1.9502 -8.5498 2.52441 -21.7637 2.52441 -31.2881c0 -51.8711 -27.1973 -81.7979 -83.9365 -81.7979c-42.3535 0 -85.6826 24.2959 -122.405 47.0264
c-39.0586 24.2881 -74.8057 49.5508 -106.085 49.5508c-39.2471 0 -63.5352 -35.1729 -63.5352 -75.584c0 -13.0166 1.93457 -22.3447 2.5166 -25.4512zM602.708 82.6162c14.7002 -39.2939 52.3096 -65.2783 94.2705 -65.1133v-8.98242h-260.651v8.70703h91.582
l-79.5557 214.829l-18.0586 49.0469l-4.53027 -6.77148l-93.5166 -139.725l-9.47754 -14.0869c-2.01367 -2.85547 -4.18457 -5.41992 -6.24512 -8.18848c-76.6699 -102.939 -186.239 -151.208 -251.882 -107.171s-62.5361 163.722 3.63379 273.692
c1.76953 2.94141 3.30371 5.89062 5.16797 8.81641l9.83887 14.708l213.091 312.113l6.70117 9.83105l-28.1416 66.8379l88.3496 31.6104l126.26 -337.597l97.127 145.474l3.79883 -10.1934l-97.1973 -145.238zM422.035 284.061l4.60254 6.91309l-116.821 317.305
l-2.86328 6.80371l-6.96094 -10.1543l-170.233 -248.445l-19.5137 -29.085l-16.2812 -24.2715l-0.275391 -0.259766c-62.6777 -103.923 -31.0752 -182.7 30.9648 -224.322c65.1553 -43.707 141.935 -26.2227 214.428 81.4668l0.661133 0.983398l25.3018 37.7139z" />
    <glyph glyph-name="Adieresis" unicode="&#xc4;" 
d="M602.717 82.6162c14.6924 -39.2939 52.3096 -65.2783 94.2627 -65.1133v-8.98242h-260.651v8.70703h91.582l-79.5557 214.829l-18.0586 49.0469l-4.53027 -6.77148l-93.5166 -139.725l-9.47754 -14.0869c-2.01367 -2.85547 -4.18457 -5.41992 -6.24512 -8.18848
c-76.6699 -102.939 -186.239 -151.208 -251.882 -107.171s-62.5361 163.722 3.63379 273.692c1.76953 2.94141 3.30371 5.89062 5.16797 8.81641l9.83887 14.708l213.091 312.121l6.70117 9.83105l-28.1416 66.8379l88.3496 31.6104l126.268 -337.604l97.127 145.474
l3.79883 -10.1934l-97.1973 -145.238zM422.044 284.061l4.60156 6.91309l-116.821 317.305l-2.86328 6.80371l-6.96094 -10.1543l-170.233 -248.445l-19.5137 -29.085l-16.2812 -24.2715l-0.275391 -0.259766c-62.6777 -103.923 -31.0752 -182.7 30.9648 -224.322
c65.1553 -43.707 141.935 -26.2227 214.428 81.4668l0.661133 0.983398l25.3027 37.7139zM305.458 829.086l-55.8203 -55.8203l-55.8203 55.8203l55.8203 55.8203zM452.106 829.081l-55.8203 -55.8203l-55.8203 55.8203l55.8203 55.8203z" />
    <glyph glyph-name="Aring" unicode="&#xc5;" 
d="M602.717 82.6162c14.6924 -39.2939 52.3096 -65.2715 94.2549 -65.1064v-8.98242h-260.651v8.70703h91.5898l-79.5557 214.829l-18.0586 49.0469l-4.53027 -6.77148l-93.5166 -139.725l-9.47754 -14.0869c-2.01367 -2.85547 -4.18457 -5.41992 -6.24512 -8.18848
c-76.6699 -102.939 -186.239 -151.208 -251.882 -107.171s-62.5361 163.722 3.63379 273.692c1.76953 2.94141 3.30371 5.89062 5.16797 8.81641l9.83887 14.708l213.099 312.113l6.70117 9.83105l-28.1416 66.8379l88.3496 31.6104l126.26 -337.604l97.127 145.482
l3.79883 -10.1934l-97.1973 -145.238zM422.044 284.067l4.61719 6.9043l-116.821 317.305l-2.86328 6.80371l-6.96094 -10.1543l-170.233 -248.444l-19.5137 -29.085l-16.2812 -24.2715l-0.275391 -0.259766c-62.6855 -103.915 -31.083 -182.7 30.9492 -224.314
c65.1553 -43.707 141.935 -26.2227 214.428 81.4668l0.661133 0.983398l25.3027 37.7139zM314.543 774.986c-29.2344 0 -53.0098 24.249 -53.0098 54.0576c0 29.376 23.7764 53.2705 53.0107 53.2705c29.9502 0 54.3242 -23.8945 54.3242 -53.2705
c0 -30.3125 -23.8633 -54.0576 -54.3252 -54.0576zM314.544 868.449c-21.3613 0 -39.4043 -18.0508 -39.4043 -39.4043c0 -21.9277 18.043 -40.4502 39.4043 -40.4502c22.3057 0 40.4502 18.1445 40.4502 40.4502c0 21.7314 -18.1445 39.4043 -40.4502 39.4043z" />
    <glyph glyph-name="AE" unicode="&#xc6;" horiz-adv-x="900" 
d="M880.758 160.749h8.7041v-152.018h-192.492v-0.204102h-260.651v8.70703h91.582l-79.5557 214.829l-18.0586 49.0469l-4.53027 -6.77148l-93.5166 -139.725l-9.47754 -14.0869c-2.01367 -2.85547 -4.18457 -5.41992 -6.24512 -8.18848
c-76.6621 -102.939 -186.231 -151.208 -251.874 -107.171s-62.5361 163.722 3.63379 273.692c1.76953 2.94141 3.30371 5.89062 5.16797 8.81641l9.83887 14.708l213.091 312.113l6.70117 9.83105l-28.1416 66.8379l88.3496 31.6104l6.44922 -17.248h313.128v-180.301
h-9.27344c0 90.4648 -82.7412 163.697 -173.198 163.383l-124.175 -0.44043l113.321 -302.998l3.72852 -9.95703l12.8281 -34.292h190.872v-9.91016h-187.167l92.9033 -248.397c13.1348 -35.1182 44.5957 -59.5479 81.0742 -64.2354h62.4023
c74.3262 0 134.581 68.042 134.581 142.368zM422.035 284.059l4.61035 6.91309l-116.821 317.305l-2.86328 6.80371l-6.96094 -10.1543l-170.233 -248.445l-19.5137 -29.085l-16.2812 -24.2715l-0.275391 -0.259766c-62.6777 -103.923 -31.0752 -182.7 30.9648 -224.322
c65.1475 -43.707 141.927 -26.2227 214.42 81.4668l0.661133 0.983398l25.3018 37.7139z" />
    <glyph glyph-name="Ccedilla" unicode="&#xc7;" horiz-adv-x="694" 
d="M631.896 286.136l39.6367 -104.938c-0.574219 -0.991211 -0.841797 -2.00586 -1.42383 -2.99707c-25.4834 -43.1953 -118.631 -163.705 -326.72 -173.561l0.71582 -2.43848c8.1875 -27.709 25.3096 -51.627 47.8594 -69.6855
c14.9199 -11.9473 23.7842 -26.8594 23.7842 -46.2783c0 -34.9053 -28.2832 -60.3965 -74.373 -60.3965c-27.2217 0 -42.9365 6.98438 -57.5889 15.7148l0.337891 5.37988c12.5684 -12.1992 31.0752 -15.5186 53.7588 -15.5186c27.2373 0 43.998 17.4688 43.998 54.459
c0 35.6055 -11.1289 59.5703 -53.0029 79.4609l10.1543 39.0586c-7.54297 -0.298828 -15.1953 -0.487305 -23.0293 -0.487305c-49.6055 0 -94.8301 15.6748 -135.854 39.876s-65.7764 54.4746 -92.7148 90.7178c-26.9541 36.2031 -40.1836 75.7725 -50.3379 118.614
c-10.1621 42.9043 -11.8057 87.6729 -4.93164 134.306c6.86621 46.6328 23.5957 92.4707 50.1719 137.522c26.5605 45.0127 58.5879 81.8213 96.0889 110.396c37.4932 28.5742 77.4717 48.7803 119.936 60.6328c42.4092 11.8369 85.9668 14.7471 130.735 8.73047
c17.7207 -2.39844 34.9141 -7.33008 52.0527 -12.5762c26.1436 -7.99902 51.8389 -18.1924 76.6221 -32.8135c35.9277 -21.1963 65.4775 -47.8594 90.6064 -78.2979l-11.3262 -30.3984c-4.01953 9.60352 -7.39355 19.5762 -12.6553 28.4951
c-17.7598 30.0215 -41.6152 53.9082 -71.6758 71.6367c-20.3477 12.002 -42.2051 18.7266 -64.7549 23.0605c-10.7598 2.07617 -21.3623 4.70312 -32.6172 5.02539c-34.8896 0.983398 -69.8271 -6.07129 -104.827 -21.1562
c-35.0078 -15.0771 -68.8281 -37.7607 -101.492 -68.0498s-61.9541 -67.3574 -87.8301 -111.222c-25.9004 -43.9033 -44.1787 -87.4609 -54.8994 -130.703s-14.2051 -83.8105 -10.4766 -121.744c3.72852 -37.9258 14.4404 -71.9111 32.2002 -101.948
c17.7041 -30.0449 41.5986 -53.9473 71.6514 -71.6758c30.0527 -17.7363 62.4727 -28.0557 97.3857 -28.0557c266 0 325.005 237.009 334.836 261.854z" />
    <glyph glyph-name="Egrave" unicode="&#xc8;" horiz-adv-x="554" 
d="M187.473 687.864l-0.000976562 -347.161h93.3906v-9.91016h-93.3906v-304.775l51.2334 -0.0625h138.065c74.3262 0 134.581 60.2471 134.581 134.573h8.69922v-152.025h-507.052v8.70703h82.8906v678.929h-82.8906v9.1709h507.052v-180.285h-9.27344
c0 90.457 -82.7412 163.689 -173.198 163.375zM407.153 726.371c-2.02148 0.826172 -202.827 83.1816 -284.625 94.9326l-4.72656 0.676758l16.9727 48.7324l4.23145 -2.85547c72.2969 -48.7715 270.86 -127.644 272.858 -128.438l3.38184 -1.33691l-4.10547 -13.3477z" />
    <glyph glyph-name="Eacute" unicode="&#xc9;" horiz-adv-x="554" 
d="M187.473 372.739l0.00683594 -32.0352h93.3906v-9.91016h-93.3906v-304.775l51.2334 -0.0625h138.065c74.3184 0 134.573 60.2471 134.573 134.573h8.69922v-152.025h-507.052v8.70703h82.8906v678.929h-82.8906v9.1709h507.052v-180.293h-9.27344
c0 90.457 -82.7412 163.689 -173.198 163.375l-150.106 -0.527344v-315.126zM125.888 726.373l-3.97949 -1.63477l-4.10547 13.3477l3.38184 1.33691c1.99805 0.786133 200.554 79.6582 272.858 128.438l4.23145 2.85547l16.9727 -48.7324l-4.72656 -0.676758
c-81.8057 -11.751 -282.611 -94.1074 -284.633 -94.9336z" />
    <glyph glyph-name="Ecircumflex" unicode="&#xca;" horiz-adv-x="554" 
d="M187.473 687.864l-0.000976562 -347.161h93.3906v-9.91016h-93.3906v-304.775l51.2334 -0.0625h138.065c74.3262 0 134.581 60.2471 134.581 134.573h8.69922v-152.025h-507.052v8.70703h82.8906v678.929h-82.8906v9.1709h507.052v-180.285h-9.27344
c0 90.457 -82.7412 163.689 -173.198 163.375zM78.5312 724.735l-3.27246 -2.51758l-8.43164 12.1748l2.87891 2.28906c46.5928 37.0996 140.534 114.493 194.183 162.777l2.62695 2.36719l2.62695 -2.36719c53.6094 -48.2529 147.566 -125.662 194.184 -162.777
l2.87891 -2.28906l-8.43164 -12.1748l-3.2793 2.5166c-52.4766 40.2773 -127.463 93.9414 -187.985 121.871c-60.5146 -27.9209 -135.509 -81.585 -187.978 -121.87z" />
    <glyph glyph-name="Edieresis" unicode="&#xcb;" horiz-adv-x="554" 
d="M187.473 687.864l-0.000976562 -347.161h93.3906v-9.91016h-93.3906v-304.775l51.2334 -0.0625h138.065c74.3262 0 134.581 60.2471 134.581 134.573h8.69922v-152.025h-507.052v8.70703h82.8906v678.929h-82.8906v9.1709h507.052v-180.285h-9.27344
c0 90.457 -82.7412 163.689 -173.198 163.375zM248.643 829.276l-55.8203 -55.8203l-55.8203 55.8203l55.8203 55.8203zM395.283 829.28l-55.8203 -55.8203l-55.8203 55.8203l55.8203 55.8203z" />
    <glyph glyph-name="Igrave" unicode="&#xcc;" horiz-adv-x="286" 
d="M13.5059 696.139v9.1709h258.434v-9.1709h-83.9609v-678.921h83.9609v-8.71484h-258.434v8.71484h82.8828v678.921h-82.8828zM288.063 739.413l3.38965 -1.33789l-4.10547 -13.3477l-3.9873 1.63574c-2.02148 0.833984 -202.827 83.1826 -284.633 94.9336
l-4.72656 0.676758l16.9727 48.7324l4.23145 -2.85547c72.2969 -48.7715 270.86 -127.644 272.858 -128.438z" />
    <glyph glyph-name="Iacute" unicode="&#xcd;" horiz-adv-x="286" 
d="M13.5059 696.139v9.1709h258.434v-9.1709h-83.9531v-678.921h83.9531v-8.71484h-258.434v8.71484h82.8906v678.921h-82.8906zM274.472 870.714l16.9805 -48.7314l-4.72656 -0.676758c-81.8057 -11.751 -282.611 -94.1074 -284.633 -94.9336l-3.9873 -1.63574
l-4.10547 13.3477l3.38184 1.33691c1.99805 0.786133 200.554 79.6582 272.858 128.438z" />
    <glyph glyph-name="Icircumflex" unicode="&#xce;" horiz-adv-x="286" 
d="M13.4639 696.139v9.1709h258.434v-9.1709h-83.9531v-678.921h83.9531v-8.71484h-258.434v8.71484h82.8906v678.921h-82.8906zM339.499 736.684l2.88574 -2.28906l-8.43164 -12.1748l-3.2793 2.5166c-52.4766 40.2773 -127.463 93.9414 -187.985 121.87
c-60.5146 -27.9209 -135.509 -81.585 -187.978 -121.87l-3.2793 -2.5166l-8.43164 12.1748l2.87891 2.28906c46.5928 37.0996 140.534 114.493 194.183 162.777l2.62695 2.36719l2.62695 -2.36719c53.6094 -48.2529 147.566 -125.662 194.184 -162.777z" />
    <glyph glyph-name="Idieresis" unicode="&#xcf;" horiz-adv-x="285" 
d="M271.822 696.139h-83.9531v-678.921h83.9531v-8.71484h-258.426v8.71484h82.8828v678.921h-82.8828v9.1709h258.426v-9.1709zM124.641 829.333l-55.8203 -55.8203l-55.8203 55.8203l55.8203 55.8203zM271.282 829.336l-55.8203 -55.8203l-55.8203 55.8203
l55.8203 55.8203z" />
    <glyph glyph-name="Eth" unicode="&#xd0;" horiz-adv-x="759" 
d="M375.607 705.31c169.015 0 353.303 -106.865 353.303 -344.566c0 -248.665 -182.11 -352.241 -356.591 -352.241h-295.549v8.70703h80.7197v314.222h-151.491v8.8252h151.491v355.883h-82.8906v9.1709h301.008zM367.97 25.9551
c162.447 0 258.426 118.851 258.441 328.222c0 239.919 -137.412 333.688 -260.612 333.688h-115.61v-347.601h151.569v-8.8252h-151.569v-305.483h117.781z" />
    <glyph glyph-name="Ntilde" unicode="&#xd1;" horiz-adv-x="644" 
d="M478.742 705.31h192.979v-9.1709h-87.2402v-687.636h-18.5537l-448.181 653.21v-557.263c0 -48.1816 39.0586 -87.2402 87.2402 -87.2402v-8.70703h-192.987v8.70703h87.2402v678.929h-86.1709v9.1709h186.507l366.359 -546.299v449.935
c0 48.1504 -39.0352 87.1934 -87.1934 87.1934v9.1709zM162.523 739.822l-12.2314 -1.77051c-1.94238 10.1064 -2.52441 20.7871 -2.52441 32.2549c0 54.7969 34.001 86.2734 84.7158 86.2734c46.8213 0 87.6182 -25.2627 122.397 -46.2471
c40.0342 -24.2881 80.0518 -49.543 111.34 -49.543c33.0254 0 57.5098 30.5088 57.5098 73.0596c0 8.36035 -1.36816 17.0986 -2.53223 22.7383l12.2461 0.77832c1.9502 -8.5498 2.52441 -21.7637 2.52441 -31.2881c0 -51.8711 -27.1973 -81.7979 -83.9365 -81.7979
c-42.3535 0 -85.6826 24.2959 -122.405 47.0264c-39.0586 24.2881 -74.8057 49.5508 -106.085 49.5508c-39.2471 0 -63.5352 -35.1729 -63.5352 -75.584c0 -13.0166 1.93457 -22.3447 2.5166 -25.4512z" />
    <glyph glyph-name="Ograve" unicode="&#xd2;" horiz-adv-x="753" 
d="M516.842 726.372c-2.01367 0.826172 -202.82 83.1816 -284.626 94.9326l-4.72656 0.676758l16.9727 48.7324l4.23145 -2.85547c72.2969 -48.7715 270.861 -127.644 272.859 -128.438l3.38184 -1.33691l-4.10547 -13.3477zM715.357 454.44
c10.1299 -42.8809 11.7744 -87.6494 4.90039 -134.282s-23.6035 -92.4707 -50.1562 -137.483c-26.584 -45.0596 -58.6113 -81.8604 -96.1045 -110.435c-37.4932 -28.5664 -77.4795 -48.7803 -119.904 -60.6484c-42.4482 -11.8135 -86.0684 -14.7393 -130.758 -8.6748
c-44.7451 6.04785 -87.665 21.1494 -128.697 45.3506c-41.0166 24.2012 -75.002 54.4668 -101.933 90.709c-26.9541 36.2031 -45.4531 75.7725 -55.6074 118.614c-10.1699 42.9043 -11.8135 87.6729 -4.93164 134.306c6.86621 46.6328 23.5957 92.4707 50.1719 137.522
c26.5527 45.0205 58.5879 81.8213 96.0811 110.396c37.501 28.5664 77.4795 48.7803 119.943 60.625c42.417 11.8369 85.9746 14.7471 130.743 8.73047c44.7451 -6.04785 87.6494 -21.1807 128.674 -45.3818s75.0176 -54.4346 101.956 -90.6777
c26.8828 -36.251 45.4365 -75.8047 55.6221 -118.67zM646.105 359.878c10.7197 43.2344 14.1748 83.8262 10.4707 121.736c-3.72852 37.9336 -14.4404 71.9189 -32.1768 101.987c-17.7598 30.0293 -41.623 53.916 -71.6758 71.6445s-62.5283 27.0879 -97.3633 28.0869
c-34.8975 0.983398 -69.8262 -6.07129 -104.826 -21.1562c-35.0078 -15.0771 -68.8359 -37.752 -101.492 -68.0488c-32.6641 -30.2891 -61.9541 -67.3574 -87.8301 -111.222c-25.8926 -43.9033 -44.1787 -87.4609 -54.8994 -130.704
c-10.7207 -43.251 -14.2051 -83.8115 -10.4766 -121.745c3.72852 -37.9258 14.4404 -71.9111 32.2002 -101.948c17.7041 -30.0449 41.5986 -53.9473 71.6514 -71.6758c30.0605 -17.7363 62.4961 -27.0645 97.3936 -28.0557c34.874 -1.01465 69.8027 6.04004 104.811 21.125
c34.9688 15.1016 68.8281 37.7451 101.484 68.0498c32.6641 30.2891 61.9463 67.3574 87.8467 111.261c25.876 43.8643 44.1621 87.4219 54.8828 130.665z" />
    <glyph glyph-name="Oacute" unicode="&#xd3;" horiz-adv-x="753" 
d="M715.348 454.442c10.1299 -42.8809 11.7744 -87.6494 4.9082 -134.282c-6.87402 -46.6328 -23.6035 -92.4707 -50.1562 -137.483c-26.5762 -45.0596 -58.6113 -81.8604 -96.1045 -110.435c-37.4932 -28.5664 -77.4795 -48.7803 -119.904 -60.6484
c-42.4482 -11.8135 -86.0684 -14.7393 -130.758 -8.6748c-44.7451 6.04785 -87.665 21.1494 -128.697 45.3506c-41.0166 24.2012 -75.002 54.4668 -101.933 90.709c-26.9541 36.2031 -45.4531 75.7725 -55.6074 118.614c-10.1621 42.9043 -11.8057 87.6729 -4.93164 134.306
c6.86621 46.6328 23.5957 92.4707 50.1719 137.522c26.5527 45.0205 58.5879 81.8213 96.0811 110.396c37.501 28.5664 77.4795 48.7803 119.943 60.625c42.4092 11.8369 85.9668 14.7471 130.735 8.73047c44.7451 -6.04785 87.6494 -21.1807 128.674 -45.3818
s75.0176 -54.4346 101.956 -90.6777c26.8828 -36.251 45.4365 -75.8047 55.6221 -118.67zM646.096 359.88c10.7197 43.2344 14.1748 83.8262 10.4785 121.736c-3.73633 37.9336 -14.4482 71.9189 -32.1846 101.987c-17.7598 30.0293 -41.6152 53.916 -71.6758 71.6445
c-30.0527 17.7285 -62.5205 27.0879 -97.3633 28.0869c-34.8975 0.983398 -69.8262 -6.07129 -104.826 -21.1562c-35.0078 -15.0771 -68.8359 -37.752 -101.492 -68.0488c-32.6641 -30.2891 -61.9541 -67.3574 -87.8301 -111.222
c-25.9004 -43.9033 -44.1787 -87.4609 -54.8994 -130.704c-10.7207 -43.251 -14.2051 -83.8115 -10.4766 -121.745c3.72852 -37.9258 14.4404 -71.9111 32.2002 -101.948c17.6963 -30.0449 41.5986 -53.9473 71.6514 -71.6758
c30.0605 -17.7363 62.4961 -27.0645 97.3936 -28.0557c34.874 -1.01465 69.8027 6.04004 104.811 21.125c34.9688 15.1016 68.8281 37.7451 101.484 68.0498c32.6641 30.2891 61.9463 67.3574 87.8467 111.261c25.876 43.8643 44.1621 87.4219 54.8828 130.665z
M235.575 726.373l-3.97949 -1.63477l-4.10547 13.3477l3.38184 1.33691c1.99805 0.786133 200.554 79.6582 272.858 128.438l4.23145 2.85547l16.9727 -48.7324l-4.72656 -0.676758c-81.8057 -11.751 -282.611 -94.1074 -284.633 -94.9336z" />
    <glyph glyph-name="Ocircumflex" unicode="&#xd4;" horiz-adv-x="753" 
d="M188.218 724.736l-3.27246 -2.5166l-8.43164 12.1748l2.87891 2.28906c46.5928 37.0996 140.534 114.493 194.183 162.777l2.62695 2.36719l2.62695 -2.36719c53.6094 -48.2529 147.566 -125.662 194.184 -162.777l2.87891 -2.28906l-8.43164 -12.1748l-3.2793 2.5166
c-52.4766 40.2773 -127.463 93.9414 -187.985 121.87c-60.5146 -27.9209 -135.509 -81.585 -187.978 -121.87zM715.341 454.442c10.1387 -42.8809 11.7744 -87.6494 4.91602 -134.282c-6.87402 -46.6328 -23.6035 -92.4707 -50.1562 -137.483
c-26.5762 -45.0596 -58.6113 -81.8604 -96.1045 -110.435c-37.4932 -28.5664 -77.4795 -48.7803 -119.904 -60.6484c-42.4561 -11.8135 -86.0684 -14.7393 -130.758 -8.6748c-44.7451 6.04785 -87.6729 21.1494 -128.697 45.3506
c-41.0166 24.2012 -75.002 54.4668 -101.933 90.709c-26.9541 36.2031 -45.4531 75.7725 -55.6074 118.614c-10.1621 42.9043 -11.8057 87.6729 -4.93164 134.306c6.86621 46.6328 23.5957 92.4707 50.1719 137.522c26.5527 45.0205 58.5879 81.8213 96.0811 110.396
c37.501 28.5664 77.4795 48.7803 119.943 60.625c42.4092 11.8369 85.9668 14.7471 130.735 8.73047c44.7451 -6.04785 87.6494 -21.1807 128.674 -45.3818c41.0166 -24.2012 75.0176 -54.4346 101.956 -90.6777c26.875 -36.251 45.4287 -75.8047 55.6143 -118.67z
M646.096 359.88c10.7197 43.2344 14.1748 83.8262 10.4863 121.736c-3.72852 37.9336 -14.4482 71.9189 -32.1846 101.987c-17.7598 30.0293 -41.6152 53.916 -71.6758 71.6445c-30.0527 17.7285 -62.5205 27.0879 -97.3633 28.0869
c-34.8975 0.983398 -69.8262 -6.07129 -104.826 -21.1562c-35.0078 -15.0771 -68.8359 -37.752 -101.492 -68.0488c-32.6641 -30.2891 -61.9463 -67.3574 -87.8301 -111.222c-25.9004 -43.9033 -44.1787 -87.4609 -54.8994 -130.704
c-10.7285 -43.251 -14.2129 -83.8115 -10.4844 -121.745c3.72852 -37.9258 14.4482 -71.9111 32.208 -101.948c17.6963 -30.0449 41.5908 -53.9473 71.6514 -71.6758c30.0527 -17.7363 62.4883 -27.0645 97.3857 -28.0557c34.874 -1.01465 69.8027 6.04004 104.811 21.125
c34.9609 15.1016 68.8203 37.7451 101.484 68.0498c32.6562 30.2891 61.9463 67.3574 87.8467 111.261c25.876 43.8643 44.1621 87.4219 54.8828 130.665z" />
    <glyph glyph-name="Otilde" unicode="&#xd5;" horiz-adv-x="753" 
d="M715.34 454.442c10.1387 -42.8809 11.7822 -87.6494 4.91602 -134.282c-6.87402 -46.6328 -23.6035 -92.4707 -50.1562 -137.483c-26.5762 -45.0596 -58.6113 -81.8604 -96.1045 -110.435c-37.4932 -28.5664 -77.4795 -48.7803 -119.904 -60.6484
c-42.4561 -11.8135 -86.0684 -14.7393 -130.758 -8.6748c-44.7451 6.04785 -87.665 21.1494 -128.697 45.3506c-41.0166 24.2012 -75.002 54.4668 -101.933 90.709c-26.9541 36.2031 -45.4531 75.7725 -55.6074 118.614c-10.1621 42.9043 -11.8057 87.6729 -4.93164 134.306
c6.86621 46.6328 23.5957 92.4707 50.1719 137.522c26.5527 45.0205 58.5879 81.8213 96.0811 110.396c37.501 28.5664 77.4795 48.7803 119.943 60.625c42.4092 11.8369 85.9668 14.7471 130.735 8.73047c44.7451 -6.04785 87.6494 -21.1807 128.674 -45.3818
s75.0176 -54.4346 101.956 -90.6777c26.875 -36.251 45.4287 -75.8047 55.6143 -118.67zM646.095 359.88c10.7197 43.2344 14.1758 83.8262 10.4873 121.736c-3.73633 37.9336 -14.4482 71.9189 -32.1846 101.987c-17.7598 30.0293 -41.6152 53.916 -71.6758 71.6445
c-30.0527 17.7285 -62.5283 27.0879 -97.3633 28.0869c-34.8975 0.983398 -69.8262 -6.07129 -104.826 -21.1562c-35.0078 -15.0771 -68.8359 -37.752 -101.492 -68.0488c-32.6641 -30.2891 -61.9541 -67.3574 -87.8301 -111.222
c-25.9004 -43.9033 -44.1787 -87.4609 -54.8994 -130.704c-10.7207 -43.251 -14.2051 -83.8115 -10.4766 -121.745c3.72852 -37.9258 14.4404 -71.9111 32.2002 -101.948c17.6963 -30.0449 41.5986 -53.9395 71.6514 -71.6758s62.4883 -27.0645 97.3857 -28.0557
c34.874 -1.01465 69.8027 6.04004 104.811 21.125c34.9688 15.1016 68.8203 37.7451 101.484 68.0498c32.6641 30.2891 61.9463 67.3574 87.8467 111.261c25.876 43.8643 44.1621 87.4219 54.8818 130.665zM196.863 739.822l-12.2314 -1.77051
c-1.94238 10.1064 -2.52441 20.7871 -2.52441 32.2549c0 54.7969 34.001 86.2734 84.7158 86.2734c46.8213 0 87.6182 -25.2627 122.397 -46.2471c40.0342 -24.2881 80.0518 -49.543 111.34 -49.543c33.0254 0 57.5098 30.5088 57.5098 73.0596
c0 8.36035 -1.36816 17.0986 -2.53223 22.7383l12.2461 0.77832c1.9502 -8.5498 2.52441 -21.7637 2.52441 -31.2881c0 -51.8711 -27.1973 -81.7979 -83.9365 -81.7979c-42.3535 0 -85.6826 24.2959 -122.405 47.0264c-39.0586 24.2881 -74.8057 49.5508 -106.085 49.5508
c-39.2471 0 -63.5352 -35.1729 -63.5352 -75.584c0 -13.0166 1.93457 -22.3447 2.5166 -25.4512z" />
    <glyph glyph-name="Odieresis" unicode="&#xd6;" horiz-adv-x="753" 
d="M358.172 829.343l-55.8203 -55.8203l-55.8203 55.8203l55.8203 55.8203zM504.813 829.345l-55.8203 -55.8203l-55.8203 55.8203l55.8203 55.8203zM715.348 454.442c10.1387 -42.8809 11.7744 -87.6494 4.9082 -134.282
c-6.87402 -46.6328 -23.6035 -92.4707 -50.1562 -137.483c-26.5762 -45.0596 -58.6113 -81.8604 -96.1045 -110.435c-37.4932 -28.5664 -77.4795 -48.7803 -119.904 -60.6484c-42.4482 -11.8135 -86.0684 -14.7393 -130.758 -8.6748
c-44.7451 6.04785 -87.665 21.1494 -128.697 45.3506c-41.0166 24.2012 -75.002 54.4668 -101.933 90.709c-26.9541 36.2031 -45.4531 75.7725 -55.6074 118.614c-10.1621 42.9043 -11.8057 87.6729 -4.93164 134.306c6.86621 46.6328 23.5957 92.4707 50.1719 137.522
c26.5527 45.0205 58.5879 81.8213 96.0811 110.396c37.501 28.5664 77.4795 48.7803 119.943 60.625c42.4092 11.8369 85.9668 14.7471 130.735 8.73047c44.7451 -6.04785 87.6494 -21.1807 128.674 -45.3818s75.0176 -54.4346 101.956 -90.6777
c26.8828 -36.251 45.4365 -75.8047 55.6221 -118.67zM646.103 359.88c10.7197 43.2344 14.1758 83.8262 10.4795 121.736c-3.73633 37.9336 -14.4482 71.9189 -32.1846 101.987c-17.7598 30.0293 -41.6152 53.916 -71.6758 71.6445
c-30.0527 17.7285 -62.5205 27.0879 -97.3633 28.0869c-34.8975 0.983398 -69.8262 -6.07129 -104.826 -21.1562c-35.0078 -15.0771 -68.8359 -37.752 -101.492 -68.0488c-32.6641 -30.2891 -61.9541 -67.3574 -87.8301 -111.222
c-25.9004 -43.9033 -44.1787 -87.4609 -54.8994 -130.704c-10.7207 -43.251 -14.2051 -83.8115 -10.4766 -121.745c3.72852 -37.9258 14.4404 -71.9111 32.2002 -101.948c17.6963 -30.0449 41.5986 -53.9473 71.6514 -71.6758
c30.0605 -17.7363 62.4961 -27.0645 97.3936 -28.0557c34.874 -1.01465 69.8027 6.04004 104.811 21.125c34.9688 15.1016 68.8281 37.7451 101.484 68.0498c32.6641 30.2891 61.9463 67.3574 87.8467 111.261c25.876 43.8643 44.1621 87.4219 54.8818 130.665z" />
    <glyph glyph-name="multiply" unicode="&#xd7;" horiz-adv-x="417" 
d="M390.77 483.174l-171.067 -171.067l161.417 -161.354l-12.9307 -10.7676l-160.3 160.3l-172.192 -171.067l-10.6963 12.9385l171.067 171.067l-161.417 160.3l12.9307 10.7676l160.308 -159.254l171.067 171.067z" />
    <glyph glyph-name="Oslash" unicode="&#xd8;" horiz-adv-x="755" 
d="M716.343 454.458c10.1299 -42.8809 11.7744 -87.6494 4.91602 -134.282c-6.87402 -46.6328 -23.6035 -92.4707 -50.1562 -137.483c-26.5762 -45.0596 -58.6113 -81.8604 -96.1045 -110.435c-37.4932 -28.5664 -77.4795 -48.7803 -119.904 -60.6484
c-42.4482 -11.8135 -86.0684 -14.7393 -130.758 -8.6748c-44.7451 6.04785 -87.665 21.1494 -128.697 45.3506c-9.30469 5.48242 -18.1846 11.3262 -26.7656 17.4375l-91.4326 -124.159l-7.10254 5.23047l91.4326 124.151
c-26.2148 19.6709 -48.9531 42.3145 -68.0654 68.041c-26.9541 36.2031 -45.4531 75.7725 -55.6074 118.614c-10.1621 42.9043 -11.8057 87.6729 -4.93164 134.306c6.86621 46.6328 23.5957 92.4707 50.1719 137.522c26.5527 45.0205 58.5879 81.8213 96.0811 110.396
c37.501 28.5664 77.4795 48.7803 119.943 60.625c42.4092 11.8369 85.9668 14.7471 130.735 8.73047c44.7451 -6.04785 87.6494 -21.1807 128.674 -45.3818c9.29688 -5.48242 18.1846 -11.3262 26.7656 -17.4297l91.4326 124.159l7.10254 -5.23047l-91.4326 -124.151
c26.2148 -19.6631 48.9609 -42.291 68.0811 -68.0176c26.8828 -36.251 45.4365 -75.8047 55.6221 -118.67zM168.582 80.2178l410.46 557.339c-7.91211 6.42578 -16.3047 12.3721 -25.3262 17.6973c-30.0527 17.7285 -62.5205 27.0879 -97.3633 28.0869
c-34.8975 0.983398 -69.8262 -6.07129 -104.826 -21.1562c-35.0078 -15.0771 -68.8359 -37.752 -101.492 -68.0488c-32.6641 -30.2891 -61.9541 -67.3574 -87.8301 -111.222c-25.9004 -43.9033 -44.1787 -87.4609 -54.8994 -130.703
c-10.7197 -43.251 -14.2041 -83.8115 -10.4756 -121.745c3.72852 -37.9258 14.4404 -71.9111 32.2002 -101.948c10.8535 -18.4199 24.0508 -34.5039 39.5527 -48.2998zM647.092 359.885c10.7285 43.2432 14.1738 83.835 10.4775 121.737
c-3.73633 37.9336 -14.4482 71.9189 -32.1846 101.987c-10.8857 18.4043 -24.0918 34.4727 -39.5781 48.2607l-410.451 -557.333c7.9043 -6.43359 16.2969 -12.3799 25.3184 -17.6963c30.0605 -17.7363 62.4961 -27.0645 97.3936 -28.0557
c34.874 -1.01465 69.8027 6.04004 104.811 21.125c34.9688 15.1016 68.8281 37.7451 101.484 68.0498c32.6641 30.2891 61.9463 67.3574 87.8467 111.261c25.876 43.8643 44.1621 87.4219 54.8828 130.664z" />
    <glyph glyph-name="Ugrave" unicode="&#xd9;" horiz-adv-x="596" 
d="M439.494 757.684c-2.02148 0.833984 -202.828 83.1816 -284.626 94.9326l-4.72656 0.676758l16.9727 48.7324l4.23145 -2.85547c72.2969 -48.7715 270.861 -127.644 272.859 -128.438l3.38184 -1.33691l-4.10547 -13.3477zM436.804 696.192v9.18066h191.926v-9.1709
h-86.1318v-459.703c0 -143.979 -76.3633 -238.857 -236.632 -238.857c-164.665 0 -254.123 94.8779 -254.123 243.207v455.354h-82.8438v9.1709h257.324v-9.1709h-82.8438v-465.17c-1.10938 -123.247 59.9795 -208.309 184.288 -208.309
c125.371 0 195.167 78.5332 195.167 213.767v373.571c0 47.5684 -38.5625 86.1309 -86.1309 86.1309z" />
    <glyph glyph-name="Uacute" unicode="&#xda;" horiz-adv-x="596" 
d="M436.805 696.194v9.18066h191.926v-9.1709h-86.1318v-459.703c0 -143.979 -76.3633 -238.857 -236.632 -238.857c-164.665 0 -254.123 94.8779 -254.123 243.207v455.354h-82.8438v9.1709h257.324v-9.1709h-82.8438v-465.17
c-1.10938 -123.247 59.9795 -208.309 184.288 -208.309c125.371 0 195.167 78.5332 195.167 213.767v373.571c0 47.5684 -38.5625 86.1309 -86.1309 86.1309zM158.229 740.878l-3.97949 -1.63477l-4.10547 13.3477l3.38184 1.33691
c1.99805 0.786133 200.554 79.6582 272.858 128.438l4.23145 2.85547l16.9727 -48.7324l-4.72656 -0.676758c-81.8057 -11.751 -282.611 -94.1074 -284.633 -94.9336z" />
    <glyph glyph-name="Ucircumflex" unicode="&#xdb;" horiz-adv-x="596" 
d="M436.805 696.194v9.18066h191.926v-9.1709h-86.1318v-459.703c0 -143.979 -76.3633 -238.857 -236.632 -238.857c-164.665 0 -254.123 94.8779 -254.123 243.207v455.354h-82.8438v9.1709h257.324v-9.1709h-82.8438v-465.17
c-1.10938 -123.247 59.9795 -208.309 184.288 -208.309c125.371 0 195.167 78.5332 195.167 213.767v373.571c0 47.5684 -38.5625 86.1309 -86.1309 86.1309zM110.88 741.751l-3.28027 -2.51758l-8.43164 12.1748l2.87891 2.28906
c46.5928 37.0996 140.534 114.493 194.183 162.777l2.62695 2.36719l2.63477 -2.36719c53.6094 -48.2529 147.566 -125.662 194.184 -162.777l2.87891 -2.28906l-8.43164 -12.1748l-3.2793 2.5166c-52.4766 40.2773 -127.471 93.9414 -187.985 121.871
c-60.5146 -27.9209 -135.509 -81.585 -187.978 -121.87z" />
    <glyph glyph-name="Udieresis" unicode="&#xdc;" horiz-adv-x="596" 
d="M436.805 696.194v9.18066h191.926v-9.1709h-86.1318v-459.703c0 -143.979 -76.3633 -238.857 -236.632 -238.857c-164.665 0 -254.123 94.8779 -254.123 243.207v455.354h-82.8438v9.1709h257.324v-9.1709h-82.8438v-465.17
c-1.10938 -123.247 59.9795 -208.309 184.288 -208.309c125.371 0 195.167 78.5332 195.167 213.767v373.571c0 47.5684 -38.5625 86.1309 -86.1309 86.1309zM280.562 829.495l-55.8203 -55.8203l-55.8203 55.8203l55.8203 55.8203zM427.203 829.497l-55.8203 -55.8203
l-55.8203 55.8203l55.8203 55.8203z" />
    <glyph glyph-name="Yacute" unicode="&#xdd;" horiz-adv-x="584" 
d="M128.854 740.876l-3.97949 -1.63477l-4.10547 13.3477l3.38184 1.33691c1.99805 0.786133 200.554 79.6582 272.858 128.438l4.23145 2.85547l16.9727 -48.7324l-4.72656 -0.676758c-81.8057 -11.751 -282.611 -94.1074 -284.633 -94.9336zM424.899 705.311h170.084
v-9.1709c-37.9023 0 -72.792 -20.6543 -91.0234 -53.8848l-190.321 -346.948v-278.097h89.4189v-8.70703h-271.529v8.70703h90.5205v266.11l-221.932 412.819h-56.1182v9.1709h248.618v-9.1709h-86.5557l195.591 -382.278l210.031 382.278h-86.7842v9.1709z" />
    <glyph glyph-name="Thorn" unicode="&#xde;" horiz-adv-x="572" 
d="M306.379 587.537c128.666 0 247.516 -68.6787 247.516 -196.283c0 -141.754 -134.117 -201.733 -256.255 -201.733h-110.151v-172.31h92.6992v-8.70703h-266.07v8.70703h81.7744v678.929h-82.8906v9.1709h174.48v-117.773h118.897zM304.16 206.966
c100.336 0 150.508 56.7002 150.508 167.961c0 140.645 -77.4326 195.166 -169.022 195.166h-98.1572v-363.127h116.672z" />
    <glyph glyph-name="germandbls" unicode="&#xdf;" horiz-adv-x="594" 
d="M341.049 425.191c0 -127.785 229.583 -105.051 229.575 -278.328c0 -106.125 -93.1396 -144.027 -183.022 -144.027c-51.9727 0 -98.542 9.74512 -149.438 36.8174l3.24805 33.5762c48.7324 -37.9102 96.3799 -54.1514 149.446 -54.1514
c70.3936 0 105.048 33.5684 105.048 90.9688c0 148.36 -214.42 125.622 -214.42 277.231c0 95.2939 131.033 114.784 131.033 257.733c0 69.3076 -33.5684 122.374 -101.799 122.374c-100.714 0 -136.445 -56.3145 -136.445 -181.929v-576.571h-160.276v8.125h74.7188
v471.257h-60.2939v9.14746h60.2939v75.0498c0 123.46 90.9688 209.01 228.499 209.01c108.296 0 164.603 -54.1514 164.603 -125.622c0 -105.047 -140.771 -128.87 -140.771 -230.661z" />
    <glyph glyph-name="agrave" unicode="&#xe0;" horiz-adv-x="501" 
d="M418.7 12.2168l70.8584 -0.460938v-9.18652h-158.098v160.315l-63.8418 -76.9287c-1.02246 -1.15625 -2.0918 -2.26562 -3.15332 -3.32715c-0.621094 -0.668945 -1.24219 -1.33008 -1.86328 -1.99902c-46.9707 -51.1943 -107.218 -81.0273 -156.454 -81.0273
c-16.6504 0 -32.0508 3.4209 -45.2402 10.5703c-18.5615 10.1143 -30.9023 26.9453 -35.7002 48.6533c-8.16406 37.2021 6.62207 85.7773 39.4746 129.995c0.574219 0.793945 1.15625 1.59668 1.69141 2.35156c0.793945 1.14844 1.5957 2.25781 2.47656 3.41406
l7.86523 9.54785l217.566 259.817c-19.0342 19.0654 -44.9424 30.4854 -78.4326 30.4854c-69.0166 0 -151.569 -41.4883 -151.569 -41.4883v6.55176c54.5215 29.4316 103.576 43.5967 159.206 43.5967c134.125 0 195.214 -58.8711 195.214 -172.303v-318.578z
M331.461 177.137l0.000976562 179.855c0 41.3154 -10.4453 76.1973 -30.7607 100.563l-213.822 -255.013c-22.416 -30.1396 -31.0361 -58.6426 -25.3496 -84.3936c5.10449 -23.3984 21.9277 -43.4629 48.6143 -57.9824c55.1426 -30.0137 115.122 -11.1846 168.487 53.1445
l0.574219 0.621094zM374.547 577.288c-2.02148 0.826172 -202.828 83.1816 -284.626 94.9326l-4.72656 0.676758l16.9727 48.7324l4.23145 -2.85547c72.2969 -48.7715 270.861 -127.644 272.859 -128.438l3.38184 -1.33691l-4.10547 -13.3477z" />
    <glyph glyph-name="acircumflex" unicode="&#xe2;" horiz-adv-x="502" 
d="M418.704 18.2168l70.8574 -0.460938v-9.18652h-158.098v160.315l-63.8418 -76.9287c-1.02246 -1.15625 -2.08398 -2.26562 -3.15332 -3.32715c-0.621094 -0.668945 -1.24219 -1.33008 -1.86328 -1.99902c-46.9707 -51.1943 -107.218 -81.0273 -156.454 -81.0273
c-16.6504 0 -32.0586 3.4209 -45.2402 10.5703c-18.5615 10.1143 -30.9102 26.9453 -35.7002 48.6533c-8.17188 37.2021 6.61426 85.7773 39.4668 129.995c0.574219 0.793945 1.15625 1.59668 1.69141 2.35156c0.801758 1.14844 1.5957 2.25781 2.48438 3.41406
l7.85742 9.54785l217.566 259.817c-19.0254 19.0654 -44.9336 30.4854 -78.4238 30.4854c-69.0166 0 -151.569 -41.4883 -151.569 -41.4883v6.55176c54.5137 29.4316 103.576 43.5967 159.206 43.5967c134.125 0 195.214 -58.8711 195.214 -172.303v-318.578z
M331.472 183.137l0.000976562 179.855c0 41.3154 -10.4531 76.1973 -30.7607 100.563l-213.822 -255.013c-22.4238 -30.1396 -31.0361 -58.6426 -25.3496 -84.3936c5.10449 -23.3984 21.9277 -43.4629 48.6143 -57.9824c55.1426 -30.0137 115.122 -11.1846 168.487 53.1445
l0.574219 0.621094zM68.3047 533.367l-3.26465 -2.5166l-8.43164 12.1748l2.87109 2.28906c46.5928 37.0996 140.534 114.493 194.183 162.777l2.62695 2.36719l2.62695 -2.36719c53.6172 -48.2529 147.566 -125.662 194.184 -162.777l2.87891 -2.28906l-8.43164 -12.1748
l-3.2793 2.5166c-52.4766 40.2773 -127.471 93.9414 -187.985 121.87c-60.5146 -27.9209 -135.509 -81.585 -187.978 -121.87z" />
    <glyph glyph-name="atilde" unicode="&#xe3;" horiz-adv-x="501" 
d="M418.696 12.2168l70.8584 -0.460938v-9.18652h-158.098v160.315l-63.8418 -76.9287c-1.02246 -1.15625 -2.0918 -2.26562 -3.15332 -3.32715c-0.621094 -0.668945 -1.23438 -1.33008 -1.86328 -1.99902c-46.9785 -51.1943 -107.218 -81.0273 -156.454 -81.0273
c-16.6504 0 -32.0508 3.4209 -45.2402 10.5703c-18.5537 10.1143 -30.9023 26.9453 -35.6924 48.6533c-8.17188 37.2021 6.61426 85.7773 39.4668 129.995c0.574219 0.793945 1.15625 1.59668 1.69141 2.35156c0.793945 1.14844 1.5957 2.25781 2.48438 3.41406
l7.85742 9.54785l217.566 259.817c-19.0342 19.0654 -44.9424 30.4854 -78.4326 30.4854c-69.0166 0 -151.569 -41.4883 -151.569 -41.4883v6.55176c54.5137 29.4316 103.576 43.5967 159.206 43.5967c134.125 0 195.214 -58.8711 195.214 -172.303v-318.578z
M331.457 177.137l0.000976562 179.855c0 41.3154 -10.4453 76.1973 -30.7607 100.563l-213.822 -255.013c-22.4238 -30.1396 -31.0361 -58.6426 -25.3496 -84.3936c5.10449 -23.3984 21.9277 -43.4629 48.6143 -57.9824c55.1426 -30.0137 115.122 -11.1846 168.487 53.1445
l0.574219 0.621094zM76.9336 590.737l-12.2314 -1.77051c-1.94238 10.1064 -2.52441 20.7871 -2.52441 32.2549c0 54.7969 34.001 86.2734 84.7158 86.2734c46.8213 0 87.6182 -25.2627 122.397 -46.2471c40.0342 -24.2881 80.0518 -49.543 111.34 -49.543
c33.0254 0 57.5098 30.5088 57.5098 73.0596c0 8.36035 -1.36816 17.0986 -2.53223 22.7383l12.2461 0.77832c1.9502 -8.5498 2.52441 -21.7637 2.52441 -31.2881c0 -51.8711 -27.1973 -81.7979 -83.9365 -81.7979c-42.3535 0 -85.6826 24.2959 -122.405 47.0264
c-39.0586 24.2881 -74.8057 49.5508 -106.085 49.5508c-39.2471 0 -63.5352 -35.1729 -63.5352 -75.584c0 -13.0166 1.93457 -22.3447 2.5166 -25.4512z" />
    <glyph glyph-name="adieresis" unicode="&#xe4;" horiz-adv-x="501" 
d="M418.688 12.2168l70.8662 -0.460938v-9.18652h-158.098v160.315l-63.8418 -76.9287c-1.02246 -1.15625 -2.0918 -2.26562 -3.15332 -3.32715c-0.621094 -0.668945 -1.23438 -1.33008 -1.86328 -1.99902c-46.9707 -51.1943 -107.218 -81.0273 -156.454 -81.0273
c-16.6504 0 -32.0508 3.4209 -45.2402 10.5703c-18.5537 10.1143 -30.9023 26.9453 -35.6924 48.6533c-8.17188 37.2021 6.61426 85.7773 39.4668 129.995c0.574219 0.793945 1.15625 1.59668 1.68359 2.35156c0.793945 1.14844 1.5957 2.25781 2.48438 3.41406
l7.85742 9.54785l217.566 259.817c-19.0342 19.0654 -44.9424 30.4854 -78.4326 30.4854c-69.0166 0 -151.569 -41.4883 -151.569 -41.4883v6.55176c54.5215 29.4316 103.584 43.5967 159.206 43.5967c134.117 0 195.214 -58.8711 195.214 -172.303v-318.578z
M331.449 177.137l0.000976562 179.855c0 41.3154 -10.4453 76.1973 -30.7607 100.563l-213.822 -255.013c-22.416 -30.1396 -31.0361 -58.6426 -25.3496 -84.3936c5.10449 -23.3984 21.9277 -43.4629 48.6143 -57.9824c55.1426 -30.0137 115.122 -11.1846 168.487 53.1445
l0.574219 0.621094zM237.41 649.581l-55.8203 -55.8203l-55.8203 55.8203l55.8203 55.8203zM384.051 649.586l-55.8203 -55.8203l-55.8203 55.8203l55.8203 55.8203z" />
    <glyph glyph-name="aring" unicode="&#xe5;" horiz-adv-x="501" 
d="M418.7 12.2168l70.8496 -0.460938v-9.18652h-158.098v160.315l-63.8418 -76.9287c-1.01465 -1.15625 -2.08398 -2.26562 -3.14551 -3.32715c-0.621094 -0.668945 -1.24219 -1.33008 -1.86328 -1.99902c-46.9707 -51.1943 -107.218 -81.0273 -156.454 -81.0273
c-16.6504 0 -32.0508 3.4209 -45.2402 10.5703c-18.5615 10.1143 -30.9023 26.9453 -35.7002 48.6533c-8.16406 37.2021 6.62207 85.7773 39.4746 129.995c0.574219 0.793945 1.14844 1.59668 1.68359 2.35156c0.801758 1.14844 1.5957 2.25781 2.48438 3.41406
l7.85742 9.54785l217.566 259.817c-19.0254 19.0654 -44.9336 30.4854 -78.4238 30.4854c-69.0166 0 -151.569 -41.4883 -151.569 -41.4883v6.55176c54.5215 29.4316 103.576 43.5967 159.206 43.5967c134.125 0 195.214 -58.8711 195.214 -172.303v-318.578z
M331.46 177.137l0.000976562 179.855c0 41.3154 -10.4531 76.1973 -30.7607 100.563l-213.822 -255.013c-22.416 -30.1396 -31.0361 -58.6426 -25.3496 -84.3936c5.10449 -23.3984 21.9277 -43.4629 48.6143 -57.9824c55.1348 -30.0137 115.114 -11.1846 168.479 53.1445
l0.582031 0.621094zM255.625 594.969c-29.2266 0 -53.0098 24.249 -53.0098 54.0576c0 29.376 23.7764 53.2705 53.0107 53.2705c29.9502 0 54.3164 -23.8945 54.3164 -53.2705c0 -30.3125 -23.8555 -54.0576 -54.3174 -54.0576zM255.626 688.432
c-21.3535 0 -39.4043 -18.043 -39.4043 -39.4043c0 -21.9277 18.043 -40.4502 39.4043 -40.4502c22.3057 0 40.4502 18.1445 40.4502 40.4502c0 21.7314 -18.1445 39.4043 -40.4502 39.4043z" />
    <glyph glyph-name="ae" unicode="&#xe6;" horiz-adv-x="815" 
d="M759.915 191.848l28.6846 -75.9746c-0.416992 -0.723633 -0.613281 -1.45508 -1.03809 -2.1709c-19.2305 -32.6172 -91.6924 -126.165 -256.326 -126.165c-30.1787 0 -58.0996 8.07715 -83.874 21.0391c-4.89258 2.46191 -9.72949 5.03418 -14.4727 7.82617
c-0.959961 0.566406 -1.80176 1.17188 -2.7373 1.74609c-4.02734 2.47754 -7.83398 5.0498 -11.46 7.7002c-21.5898 15.7617 -36.7617 34.4805 -52.9248 56.2275c-17.7119 23.7842 -27.2129 49.5977 -34.3154 77.3457c-0.621094 2.41504 -1.23438 4.83789 -1.81641 7.28418
l-62.0244 -74.7422c-1.01465 -1.15625 -2.08398 -2.26562 -3.14551 -3.32715c-0.621094 -0.668945 -1.24219 -1.33008 -1.86328 -1.99902c-46.9707 -51.1943 -107.218 -81.0273 -156.454 -81.0273c-16.6504 0 -32.0508 3.4209 -45.2402 10.5703
c-18.5615 10.1143 -30.9023 26.9453 -35.7002 48.6533c-8.16406 37.2021 6.62207 85.7773 39.4746 129.995c0.574219 0.793945 1.14844 1.59668 1.68359 2.35156c0.801758 1.14844 1.5957 2.25781 2.48438 3.41406l7.85742 9.54785l217.566 259.817
c-19.0254 19.0654 -44.9336 30.4854 -78.4238 30.4854c-69.0166 0 -151.569 -41.4883 -151.569 -41.4883v6.55176c54.5215 29.4316 103.576 43.5967 159.206 43.5967c96.207 0 154.646 -30.4541 180.105 -89.4424c8.83301 9.10742 18.1689 17.4443 28.0479 24.9717
c27.1426 20.6777 56.0781 35.3066 86.8232 43.8877c30.6973 8.56543 62.2363 10.6729 94.6406 6.31543c12.8281 -1.73047 25.2783 -5.30078 37.6816 -9.09961c18.9316 -5.78906 37.5332 -13.1748 55.4736 -23.7539c19.6709 -11.6016 48.041 -34.6465 67.2158 -57.4629
c3.79883 -4.52246 6.37109 -8.87207 9.30469 -13.2842h-318.704c-16.0918 -17.8066 -31.3662 -37.2646 -44.8945 -60.1992c-0.172852 -0.283203 -0.322266 -0.566406 -0.487305 -0.849609c-18.4834 -31.4922 -31.5635 -62.7402 -39.2637 -93.7686
c-7.75488 -31.3037 -10.2793 -60.6719 -7.58203 -88.1289s10.46 -52.0596 23.3115 -73.8066c6.62988 -11.2549 14.5107 -21.2598 23.5322 -30.124c8.42383 -8.27441 17.8389 -15.5654 28.3389 -21.7627c2.75293 -1.62793 5.54492 -3.16992 8.35254 -4.61719
c7.37793 -3.80664 14.9678 -6.9209 22.7305 -9.40625c12.624 -4.03516 25.751 -6.28418 39.4131 -6.28418c192.562 0 235.278 171.57 242.389 189.558zM482.747 411.548c-2.27344 -2.10742 -4.23828 -4.83008 -6.46387 -7.03223h277.734
c-12.8125 21.4326 -29.8955 38.5713 -51.4307 51.2734c-14.7314 8.69141 -30.5566 13.5596 -46.877 16.6982c-7.79395 1.49414 -15.4629 3.39746 -23.6113 3.63379c-25.2549 0.71582 -50.541 -4.39648 -75.8828 -15.3135s-49.8262 -27.332 -73.4688 -49.2598z
M331.446 183.127l0.000976562 179.855c0 41.3154 -10.4531 76.1973 -30.7607 100.563l-213.822 -255.013c-22.416 -30.1396 -31.0361 -58.6426 -25.3496 -84.3936c5.10449 -23.3984 21.9277 -43.4629 48.6143 -57.9824c55.1348 -30.0137 115.114 -11.1846 168.479 53.1445
l0.582031 0.621094l48.0088 58.0684z" />
    <glyph glyph-name="ccedilla" unicode="&#xe7;" horiz-adv-x="523" 
d="M468.18 196.213l28.6924 -76.002c-0.416992 -0.723633 -0.613281 -1.45508 -1.03809 -2.1709c-18.9316 -32.0898 -89.4824 -123.145 -248.634 -126.023c9.00586 -23.8389 24.7129 -44.5244 44.7451 -60.5693c14.9199 -11.9473 23.7842 -26.8594 23.7842 -46.2783
c0 -34.9053 -28.2832 -60.3965 -74.373 -60.3965c-27.2217 0 -42.9365 6.98438 -57.5889 15.7148l0.337891 5.3877c12.5684 -12.1992 31.0752 -15.5186 53.7588 -15.5186c27.2373 0 43.998 17.4688 43.998 54.459c0 35.6055 -11.1367 59.5703 -53.0029 79.4609
l7.21191 27.748c-34.5596 0.700195 -66.1855 11.7744 -94.9248 28.7314c-29.6992 17.5234 -47.624 39.4355 -67.1221 65.6738c-19.5137 26.207 -29.0938 54.8516 -36.4395 85.8643c-7.36133 31.0596 -8.54883 63.4639 -3.57031 97.2207
c4.9707 33.7656 17.083 66.9492 36.3213 99.5586c19.2227 32.585 42.4092 59.2324 69.5518 79.918c27.1426 20.6777 56.0859 35.3066 86.8232 43.8877c30.6973 8.56543 62.2363 10.6729 94.6406 6.31543c12.8281 -1.73047 25.2783 -5.30078 37.6816 -9.09961
c18.9316 -5.78906 37.5332 -13.167 55.4736 -23.7539c26.002 -15.3369 47.3955 -34.6377 65.5879 -56.6758l-8.19531 -21.999c-2.91797 6.95312 -5.35645 14.1729 -9.16309 20.6299c-12.8594 21.7393 -30.1309 39.0273 -51.8857 51.8633
c-14.7314 8.69141 -30.5557 13.5596 -46.876 16.6982c-7.79395 1.49414 -15.4629 3.39746 -23.6113 3.63379c-25.2549 0.71582 -50.541 -4.38867 -75.8828 -15.3135c-25.3418 -10.917 -49.8262 -27.3232 -73.4688 -49.2588s-44.8467 -48.7637 -63.5732 -80.5156
c-18.751 -31.7832 -31.9883 -63.3145 -39.751 -94.6182c-7.75488 -31.3037 -10.2793 -60.6719 -7.58203 -88.1289s10.46 -52.0596 23.3115 -73.8066c12.8203 -21.7549 30.1162 -39.0508 51.8711 -51.8867c21.7627 -12.8359 45.2324 -20.3076 70.5029 -20.3076
c192.562 0 235.278 171.57 242.389 189.558z" />
    <glyph glyph-name="egrave" unicode="&#xe8;" horiz-adv-x="523" 
d="M468.188 195.757l28.6709 -75.9766c-0.416992 -0.723633 -0.613281 -1.45508 -1.03809 -2.1709c-19.2305 -32.6172 -91.6924 -126.165 -256.326 -126.165c-35.9043 0 -68.6475 11.3496 -98.3467 28.8652c-29.6992 17.5234 -47.6162 39.4355 -67.1143 65.6738
c-19.5215 26.207 -29.0938 54.8516 -36.4473 85.8643c-7.36133 31.0596 -8.54883 63.4639 -3.57031 97.2207c4.9707 33.7656 17.083 66.9492 36.3213 99.5586c19.2227 32.585 42.417 59.2324 69.5596 79.918c27.1426 20.6777 56.0781 35.3066 86.8232 43.8877
c30.7061 8.56543 62.2373 10.6729 94.6416 6.31543c12.8281 -1.73047 25.2783 -5.30957 37.6816 -9.10059c18.9316 -5.78906 37.5332 -13.167 55.4736 -23.7539c19.6709 -11.6016 48.041 -34.6465 67.2158 -57.4629c3.79883 -4.52246 6.37109 -8.87207 9.30469 -13.2842
h-318.704c-16.0918 -17.8066 -31.3662 -37.2646 -44.8945 -60.1992c-18.751 -31.7832 -31.9805 -63.3145 -39.7432 -94.6182c-7.75488 -31.3037 -10.2793 -60.6719 -7.58203 -88.1289s10.4521 -52.0596 23.3115 -73.8066
c12.8203 -21.7549 30.1084 -39.0508 51.8711 -51.8867c21.7549 -12.8359 45.2246 -20.3076 70.4951 -20.3076c192.562 0 235.278 171.57 242.396 189.558zM191.014 415.455c-2.27344 -2.10742 -4.23145 -4.83008 -6.46484 -7.03223h277.734
c-12.8125 21.4326 -29.8955 38.5713 -51.4307 51.2734c-14.7314 8.69141 -30.5557 13.5596 -46.876 16.6982c-7.78613 1.49414 -15.4629 3.39746 -23.6113 3.63379c-25.2549 0.71582 -50.541 -4.38867 -75.8828 -15.3135
c-25.3418 -10.917 -49.8184 -27.332 -73.4688 -49.2598zM404.561 583.281c-2.01367 0.826172 -202.82 83.1816 -284.634 94.9326l-4.72656 0.676758l16.9727 48.7324l4.23145 -2.85547c72.2969 -48.7715 270.861 -127.644 272.859 -128.438l3.38184 -1.33691
l-4.09766 -13.3477z" />
    <glyph glyph-name="eacute" unicode="&#xe9;" horiz-adv-x="523" 
d="M468.172 195.757l28.6787 -75.9766c-0.416992 -0.723633 -0.605469 -1.45508 -1.03027 -2.1709c-19.2383 -32.6172 -91.6924 -126.165 -256.326 -126.165c-35.9121 0 -68.6465 11.3496 -98.3457 28.8652c-29.707 17.5234 -47.624 39.4355 -67.1221 65.6738
c-19.5137 26.207 -29.0938 54.8516 -36.4395 85.8643c-7.36133 31.0596 -8.54883 63.4639 -3.57031 97.2207c4.9707 33.7656 17.083 66.9492 36.3213 99.5586c19.2227 32.585 42.4092 59.2324 69.5518 79.918c27.1426 20.6777 56.0859 35.3066 86.8232 43.8877
c30.6973 8.56543 62.2363 10.6729 94.6406 6.31543c12.8281 -1.73047 25.2783 -5.30957 37.6816 -9.10059c18.9316 -5.78906 37.5332 -13.167 55.4736 -23.7539c19.6709 -11.6016 48.041 -34.6465 67.2158 -57.4629c3.79883 -4.52246 6.37109 -8.87207 9.30469 -13.2842
h-318.704c-16.0918 -17.8066 -31.3662 -37.2646 -44.8945 -60.1992c-18.7588 -31.7832 -31.9883 -63.3145 -39.751 -94.6182c-7.75488 -31.3037 -10.2793 -60.6719 -7.58203 -88.1289s10.4521 -52.0596 23.3115 -73.8066
c12.8203 -21.7549 30.1162 -39.0508 51.8711 -51.8867c21.7627 -12.8359 45.2324 -20.3076 70.5029 -20.3076c192.562 0 235.278 171.57 242.389 189.558zM191.014 415.455c-2.27344 -2.10742 -4.23926 -4.83008 -6.46484 -7.03223h277.734
c-12.8125 21.4326 -29.8955 38.5713 -51.4307 51.2734c-14.7314 8.69141 -30.5557 13.5596 -46.876 16.6982c-7.79395 1.49414 -15.4629 3.39746 -23.6113 3.63379c-25.2549 0.71582 -50.5488 -4.38867 -75.8828 -15.3135
c-25.3418 -10.917 -49.8262 -27.332 -73.4688 -49.2598zM123.295 583.281l-3.99512 -1.63477l-4.09766 13.3477l3.38184 1.33691c1.99805 0.786133 200.554 79.6582 272.858 128.438l4.23145 2.85547l16.9727 -48.7324l-4.72656 -0.676758
c-81.7979 -11.751 -282.611 -94.1074 -284.625 -94.9336z" />
    <glyph glyph-name="ecircumflex" unicode="&#xea;" horiz-adv-x="523" 
d="M468.203 195.757l28.6455 -75.9766c-0.416992 -0.723633 -0.613281 -1.45508 -1.03809 -2.1709c-19.2305 -32.6172 -91.6924 -126.165 -256.326 -126.165c-35.9043 0 -68.6465 11.3496 -98.3379 28.8652c-29.707 17.5234 -47.624 39.4355 -67.1221 65.6738
c-19.5137 26.207 -29.0938 54.8516 -36.4395 85.8643c-7.36133 31.0596 -8.54883 63.4639 -3.57031 97.2207c4.97852 33.7656 17.083 66.9492 36.3213 99.5586c19.2227 32.585 42.417 59.2324 69.5596 79.918c27.1426 20.6777 56.0859 35.3066 86.8232 43.8877
c30.7061 8.56543 62.2373 10.6729 94.6416 6.31543c12.8281 -1.73047 25.2783 -5.30957 37.6816 -9.10059c18.9316 -5.78906 37.5332 -13.167 55.4736 -23.7539c19.6787 -11.6016 48.0488 -34.6465 67.2236 -57.4629c3.79883 -4.52246 6.37891 -8.87207 9.30469 -13.2842
h-318.696c-16.084 -17.8066 -31.3662 -37.2646 -44.8945 -60.1992c-18.751 -31.7832 -31.9805 -63.3145 -39.7432 -94.6182s-10.2871 -60.6719 -7.58105 -88.1289c2.69727 -27.457 10.4521 -52.0596 23.3115 -73.8066c12.8203 -21.7549 30.1162 -39.0508 51.8711 -51.8867
s45.2246 -20.3076 70.4951 -20.3076c192.562 0 235.278 171.57 242.396 189.558zM191.027 415.455c-2.26562 -2.10742 -4.23145 -4.83008 -6.46484 -7.03223h277.734c-12.8125 21.4326 -29.8955 38.5713 -51.4307 51.2734
c-14.7314 8.69141 -30.5479 13.5596 -46.876 16.6982c-7.78613 1.49414 -15.4551 3.39746 -23.6035 3.63379c-25.2549 0.71582 -50.5488 -4.38867 -75.8828 -15.3135c-25.3496 -10.917 -49.8262 -27.332 -73.4766 -49.2598zM75.96 533.36l-3.26465 -2.51758
l-8.43164 12.1748l2.87109 2.28906c46.5928 37.0996 140.534 114.493 194.183 162.777l2.62695 2.36719l2.62695 -2.36719c53.6172 -48.2529 147.566 -125.662 194.184 -162.777l2.87891 -2.28906l-8.43164 -12.1748l-3.2793 2.5166
c-52.4766 40.2773 -127.471 93.9414 -187.985 121.871c-60.5146 -27.9209 -135.509 -81.585 -187.978 -121.87z" />
    <glyph glyph-name="edieresis" unicode="&#xeb;" horiz-adv-x="523" 
d="M468.177 195.757l28.6699 -75.9766c-0.40918 -0.723633 -0.605469 -1.45508 -1.03027 -2.1709c-19.2305 -32.6172 -91.6924 -126.165 -256.326 -126.165c-35.9121 0 -68.6465 11.3496 -98.3457 28.8652c-29.707 17.5234 -47.624 39.4355 -67.1221 65.6738
c-19.5137 26.207 -29.0938 54.8516 -36.4395 85.8643c-7.35352 31.0596 -8.54883 63.4639 -3.57031 97.2207c4.9707 33.7656 17.083 66.9492 36.3213 99.5586c19.2227 32.585 42.4092 59.2324 69.5518 79.918c27.1426 20.6777 56.0859 35.3066 86.8311 43.8877
c30.6973 8.56543 62.2363 10.6729 94.6406 6.31543c12.8281 -1.73047 25.2783 -5.30957 37.6816 -9.10059c18.9316 -5.78906 37.5332 -13.167 55.4736 -23.7539c19.6709 -11.6016 48.041 -34.6465 67.2158 -57.4629c3.79883 -4.52246 6.37109 -8.87207 9.30469 -13.2842
h-318.704c-16.0918 -17.8066 -31.3662 -37.2646 -44.8945 -60.1992c-18.751 -31.7832 -31.9883 -63.3145 -39.751 -94.6182c-7.75488 -31.3037 -10.2793 -60.6719 -7.58203 -88.1289c2.69824 -27.457 10.4531 -52.0596 23.3125 -73.8066
c12.8203 -21.7549 30.1162 -39.0508 51.8711 -51.8867c21.7627 -12.8359 45.2324 -20.3076 70.5029 -20.3076c192.562 0 235.278 171.57 242.389 189.558zM191.002 415.455c-2.26562 -2.10742 -4.23145 -4.83008 -6.45703 -7.03223h277.734
c-12.8125 21.4326 -29.8955 38.5713 -51.4307 51.2734c-14.7314 8.69141 -30.5557 13.5596 -46.876 16.6982c-7.79395 1.49414 -15.4629 3.39746 -23.6113 3.63379c-25.2549 0.71582 -50.541 -4.38867 -75.8828 -15.3135
c-25.3418 -10.917 -49.8262 -27.332 -73.4766 -49.2598zM245.693 654.839l-55.8203 -55.8203l-55.8203 55.8203l55.8203 55.8203zM391.413 655.786l-55.8203 -55.8203l-55.8203 55.8203l55.8203 55.8203z" />
    <glyph glyph-name="igrave" unicode="&#xec;" horiz-adv-x="261" 
d="M175.894 490.157v-480.02h73.0752v-9.63477h-234.508v9.63477h74.1445v470.573h-74.1445v9.44629h161.433zM277.063 588.321l3.38965 -1.33789l-4.10547 -13.3477l-3.9873 1.63574c-2.02148 0.833984 -202.827 83.1826 -284.633 94.9336l-4.72656 0.676758
l16.9727 48.7324l4.23145 -2.85547c72.2969 -48.7715 270.86 -127.644 272.858 -128.438z" />
    <glyph glyph-name="iacute" unicode="&#xed;" horiz-adv-x="262" 
d="M176.369 489.157v-480.02h73.0752v-9.63477h-234.5v9.63477h74.1445v470.573h-74.1445v9.44629h161.425zM249.444 669.891l-4.73438 -0.675781c-81.7979 -11.751 -282.611 -94.1074 -284.625 -94.9336l-3.9873 -1.63574l-4.09766 13.3477l3.38184 1.33691
c1.99805 0.786133 200.554 79.6582 272.858 128.438l4.23145 2.85547z" />
    <glyph glyph-name="icircumflex" unicode="&#xee;" horiz-adv-x="262" 
d="M176.852 489.157v-480.02h73.0752v-9.63477h-234.5v9.63477h74.1367v470.573h-74.1367v9.44629h161.425zM329.491 536.309l2.89355 -2.28906l-8.43164 -12.1748l-3.2793 2.5166c-52.4766 40.2773 -127.463 93.9414 -187.985 121.87
c-60.5146 -27.9209 -135.509 -81.585 -187.978 -121.87l-3.2793 -2.5166l-8.43164 12.1748l2.87891 2.28906c46.585 37.0996 140.526 114.493 194.175 162.777l2.62695 2.36719l2.62695 -2.36719c53.6094 -48.2529 147.566 -125.662 194.184 -162.777z" />
    <glyph glyph-name="idieresis" unicode="&#xef;" horiz-adv-x="265" 
d="M178.09 489.157v-480.02h73.0752v-9.63477h-234.5v9.63477h74.1367v470.573h-74.1367v9.44629h161.425zM114.638 646.859l-55.8203 -55.8203l-55.8203 55.8203l55.8203 55.8203zM261.277 646.864l-55.8203 -55.8203l-55.8203 55.8203l55.8203 55.8203z" />
    <glyph glyph-name="ntilde" unicode="&#xf1;" horiz-adv-x="583" 
d="M500.344 10.5859l71.9189 -0.461914v-9.62695h-233.344v9.62695l74.1445 -0.046875v323.046c0 87.2402 -34.8975 138.474 -112.33 138.474c-43.5967 0 -83.9053 -19.624 -124.309 -64.3301v-396.68l73.0752 -0.456055v-9.62695h-234.5v9.62695h74.2314v470.573h-74.2314
v9.4541h161.425v-59.9795c44.7529 46.8838 101.405 70.8564 163.556 70.8564c105.842 0 160.363 -69.7881 160.363 -167.906v-322.543zM114.29 588.732l-12.2305 -1.77051c-1.94238 10.1064 -2.52441 20.7871 -2.52441 32.2549c0 54.7969 34.001 86.2734 84.7158 86.2734
c46.8213 0 87.6182 -25.2627 122.397 -46.2471c40.0332 -24.2881 80.0508 -49.543 111.339 -49.543c33.0254 0 57.5098 30.5088 57.5098 73.0596c0 8.36035 -1.36816 17.0986 -2.53223 22.7383l12.2461 0.77832c1.9502 -8.5498 2.52441 -21.7637 2.52441 -31.2881
c0 -51.8711 -27.1973 -81.7979 -83.9365 -81.7979c-42.3535 0 -85.6826 24.2959 -122.405 47.0264c-39.0586 24.2881 -74.8057 49.5508 -106.085 49.5508c-39.2471 0 -63.5352 -35.1729 -63.5352 -75.584c0 -13.0166 1.93457 -22.3447 2.5166 -25.4512z" />
    <glyph glyph-name="ograve" unicode="&#xf2;" horiz-adv-x="562" 
d="M524.935 324.203c7.25977 -30.7686 8.44922 -63.291 3.51758 -96.6631c-4.93164 -33.4502 -17.0752 -66.751 -36.1006 -98.9902s-42.2744 -58.9727 -69.1729 -79.4697c-26.9062 -20.4971 -55.9365 -35.1816 -86.3516 -43.6992
c-20.2139 -5.59961 -40.8994 -8.42285 -61.8682 -8.42285c-10.7207 0 -21.4961 0.739258 -32.2637 2.20996c-32.1211 4.31836 -63.291 15.2979 -92.707 32.6406c-29.3682 17.3193 -54.041 39.3027 -73.3975 65.3281c-19.2617 25.8838 -32.7344 54.6309 -40.041 85.4229
c-7.31445 30.7373 -8.49414 63.2598 -3.5625 96.6865c4.93945 33.4502 17.083 66.751 36.1562 99.0137c18.9785 32.1924 42.2275 58.9258 69.126 79.4463c26.8516 20.4727 55.9287 35.1572 86.3906 43.6748c30.3672 8.42383 62.0557 10.5078 94.1299 6.26074
c32.0742 -4.31836 63.2441 -15.3213 92.6602 -32.6875c29.3682 -17.2881 54.0879 -39.2559 73.3965 -65.2812c19.3086 -26.002 32.7812 -54.7725 40.0879 -85.4697zM286.63 508.358c-0.975586 0 -1.91895 -0.180664 -2.88672 -0.196289
c4.05859 0.046875 8.15625 -0.267578 12.2461 -0.432617c-3.11426 0.125977 -6.26074 0.628906 -9.35938 0.628906zM473.789 256.312c7.58984 30.7451 10.1045 60.0684 7.48535 87.1797c-2.65039 27.0166 -10.3896 51.5479 -23.0059 72.8936
c-12.624 21.4014 -29.8486 38.5947 -51.1943 51.1943s-44.7363 19.3633 -69.5508 20.0713c-1.4707 0.046875 -2.93359 0.0703125 -4.41211 0.0703125c-23.4385 0 -47.1123 -5.09668 -70.5508 -15.2031c-24.9014 -10.7207 -49.3389 -27.1113 -72.6826 -48.7246
c-23.249 -21.6133 -44.4531 -48.418 -62.9131 -79.7061c-18.3574 -31.1465 -31.5947 -62.623 -39.3262 -93.6035c-7.63672 -30.8867 -10.1533 -60.208 -7.49512 -87.1777c2.6582 -27.04 10.3975 -51.5713 23.0127 -72.8701
c12.5762 -21.3535 29.793 -38.5703 51.1943 -51.2412c21.3535 -12.5762 44.7842 -19.3398 69.5518 -20.0244c1.56543 -0.046875 3.13086 -0.0703125 4.64844 -0.0703125c23.2891 0 46.8691 5.09668 70.3076 15.1562c25.0508 10.8613 49.5273 27.252 72.6826 48.7471
c23.2969 21.6133 44.4619 48.4414 62.9141 79.7295c18.46 31.2637 31.6895 62.7402 39.334 93.5791zM421.35 583.284c-2.01367 0.826172 -202.828 83.1816 -284.626 94.9326l-4.72656 0.676758l16.9727 48.7324l4.23145 -2.85547
c72.2969 -48.7715 270.861 -127.644 272.859 -128.438l3.38184 -1.33691l-4.10547 -13.3477z" />
    <glyph glyph-name="oacute" unicode="&#xf3;" horiz-adv-x="562" 
d="M524.941 324.203c7.25977 -30.7686 8.44043 -63.291 3.50879 -96.6631c-4.93164 -33.4502 -17.0752 -66.751 -36.1006 -98.9902s-42.2744 -58.9727 -69.1729 -79.4697c-26.9062 -20.4971 -55.9365 -35.1816 -86.3516 -43.6992
c-20.2139 -5.59961 -40.8994 -8.42285 -61.8682 -8.42285c-10.7207 0 -21.4961 0.739258 -32.2637 2.20996c-32.1211 4.31836 -63.291 15.2979 -92.707 32.6406c-29.3682 17.3193 -54.041 39.3027 -73.3975 65.3281c-19.2617 25.8838 -32.7344 54.6309 -40.041 85.4229
c-7.31445 30.7373 -8.49414 63.2598 -3.5625 96.6865c4.93945 33.4502 17.083 66.751 36.1562 99.0137c18.9785 32.1924 42.2275 58.9258 69.126 79.4463c26.8594 20.4727 55.9365 35.1572 86.3984 43.6748c30.3672 8.42383 62.0557 10.5078 94.1299 6.26074
c32.0742 -4.31836 63.2441 -15.3213 92.6602 -32.6875c29.3682 -17.2881 54.0889 -39.2559 73.3975 -65.2812c19.3086 -26.002 32.7812 -54.7725 40.0879 -85.4697zM286.628 508.358c-0.967773 0 -1.91113 -0.180664 -2.88672 -0.196289
c4.05859 0.046875 8.15625 -0.267578 12.2461 -0.432617c-3.11426 0.125977 -6.26074 0.628906 -9.35938 0.628906zM473.795 256.312c7.58984 30.7451 10.1025 60.0684 7.49902 87.1797c-2.6582 27.0166 -10.3896 51.5479 -23.0049 72.8936
c-12.624 21.4014 -29.8486 38.5947 -51.1943 51.1943s-44.7363 19.3633 -69.5508 20.0713c-1.4707 0.046875 -2.94141 0.0703125 -4.41211 0.0703125c-23.4385 0 -47.1123 -5.09668 -70.5508 -15.2031c-24.9014 -10.7207 -49.3389 -27.1113 -72.6826 -48.7246
c-23.249 -21.6133 -44.4531 -48.418 -62.9131 -79.7061c-18.3574 -31.1465 -31.5947 -62.623 -39.3262 -93.6035c-7.63672 -30.8867 -10.1533 -60.208 -7.49512 -87.1777c2.6582 -27.04 10.3896 -51.5713 23.0137 -72.8701
c12.5684 -21.3535 29.793 -38.5703 51.1865 -51.2412c21.3535 -12.5762 44.7842 -19.3398 69.5518 -20.0244c1.56543 -0.046875 3.13086 -0.0703125 4.64844 -0.0703125c23.2891 0 46.8691 5.09668 70.3076 15.1562c25.0508 10.8613 49.5273 27.252 72.6826 48.7471
c23.2969 21.6133 44.4619 48.4414 62.9141 79.7295c18.4521 31.2637 31.6895 62.7402 39.3262 93.5791zM140.072 583.284l-3.97949 -1.63477l-4.10547 13.3477l3.38184 1.33691c1.99805 0.786133 200.562 79.6582 272.858 128.438l4.23145 2.85547l16.9727 -48.7324
l-4.72656 -0.676758c-81.8057 -11.751 -282.611 -94.1074 -284.633 -94.9336z" />
    <glyph glyph-name="ocircumflex" unicode="&#xf4;" horiz-adv-x="562" 
d="M524.934 324.203c7.25977 -30.7686 8.44824 -63.291 3.50879 -96.6631c-4.93164 -33.4502 -17.0752 -66.751 -36.1006 -98.9902s-42.2744 -58.9727 -69.1729 -79.4697c-26.9062 -20.4971 -55.9365 -35.1816 -86.3516 -43.6992
c-20.2139 -5.59961 -40.8994 -8.42285 -61.8682 -8.42285c-10.7207 0 -21.4883 0.739258 -32.2637 2.20996c-32.1211 4.31836 -63.291 15.2979 -92.707 32.6406c-29.3682 17.3193 -54.041 39.3027 -73.3975 65.3281c-19.2617 25.8838 -32.7344 54.6309 -40.041 85.4229
c-7.30664 30.7373 -8.48633 63.2598 -3.55469 96.6865c4.93164 33.4502 17.0752 66.751 36.1484 99.0137c18.9785 32.1924 42.2275 58.9258 69.126 79.4463c26.8594 20.4727 55.9365 35.1572 86.3984 43.6748c30.3672 8.42383 62.0557 10.5078 94.1299 6.26074
c32.0742 -4.31836 63.2441 -15.3213 92.6602 -32.6875c29.3682 -17.2881 54.0889 -39.2559 73.3975 -65.2812c19.3086 -26.002 32.7812 -54.7725 40.0879 -85.4697zM286.62 508.358c-0.967773 0 -1.91113 -0.180664 -2.88672 -0.196289
c4.05859 0.046875 8.15625 -0.267578 12.2461 -0.432617c-3.11426 0.125977 -6.26074 0.628906 -9.35938 0.628906zM473.787 256.312c7.58984 30.7451 10.1045 60.0684 7.50879 87.1797c-2.65039 27.0166 -10.3896 51.5479 -23.0059 72.8936
c-12.624 21.4014 -29.8486 38.5947 -51.1943 51.1943s-44.7363 19.3633 -69.5508 20.0713c-1.4707 0.046875 -2.94141 0.0703125 -4.41211 0.0703125c-23.4385 0 -47.1201 -5.09668 -70.5508 -15.2031c-24.9092 -10.7207 -49.3467 -27.1113 -72.6904 -48.7246
c-23.249 -21.6133 -44.4531 -48.418 -62.9131 -79.7061c-18.3574 -31.1465 -31.5947 -62.623 -39.3262 -93.6035c-7.63672 -30.8867 -10.1533 -60.208 -7.49512 -87.1777c2.6582 -27.04 10.3975 -51.5713 23.0127 -72.8701
c12.5684 -21.3535 29.793 -38.5703 51.1865 -51.2412c21.3535 -12.5762 44.7842 -19.3398 69.5518 -20.0244c1.56543 -0.046875 3.13086 -0.0703125 4.64844 -0.0703125c23.2891 0 46.8691 5.09668 70.3076 15.1562c25.0508 10.8613 49.5352 27.252 72.6826 48.7471
c23.2969 21.6133 44.4619 48.4414 62.9141 79.7295c18.4521 31.2637 31.6895 62.7402 39.3262 93.5791zM101.881 533.364l-3.28027 -2.51758l-8.43164 12.1748l2.87891 2.28906c46.585 37.0996 140.526 114.493 194.175 162.777l2.63477 2.36719l2.62695 -2.36719
c53.6094 -48.2529 147.566 -125.662 194.184 -162.777l2.87891 -2.28906l-8.43164 -12.1748l-3.2793 2.5166c-52.4688 40.2773 -127.463 93.9414 -187.978 121.871c-60.5146 -27.9209 -135.509 -81.585 -187.978 -121.87z" />
    <glyph glyph-name="otilde" unicode="&#xf5;" horiz-adv-x="562" 
d="M524.928 324.203c7.25977 -30.7686 8.44824 -63.291 3.5166 -96.6631c-4.93164 -33.4502 -17.0752 -66.751 -36.1006 -98.9902s-42.2744 -58.9727 -69.1729 -79.4697s-55.9365 -35.1816 -86.3516 -43.6992c-20.2139 -5.59961 -40.8994 -8.42285 -61.8682 -8.42285
c-10.7285 0 -21.4961 0.739258 -32.2637 2.20996c-32.1211 4.31836 -63.291 15.2979 -92.707 32.6406c-29.3682 17.3193 -54.041 39.3027 -73.3975 65.3281c-19.2617 25.8838 -32.7344 54.6309 -40.041 85.4229c-7.30664 30.7373 -8.48633 63.2598 -3.55469 96.6865
c4.93164 33.4502 17.0752 66.751 36.1484 99.0137c18.9785 32.1924 42.2275 58.9258 69.126 79.4463c26.8516 20.4727 55.9287 35.1572 86.3906 43.6748c30.3672 8.42383 62.0557 10.5078 94.1299 6.26074c32.0742 -4.31836 63.2441 -15.3213 92.6602 -32.6875
c29.3682 -17.2881 54.0889 -39.2559 73.3975 -65.2812c19.3086 -26.002 32.7812 -54.7725 40.0879 -85.4697zM286.622 508.358c-0.967773 0 -1.91895 -0.180664 -2.87891 -0.196289c4.05078 0.046875 8.15625 -0.267578 12.2383 -0.432617
c-3.11426 0.125977 -6.26074 0.628906 -9.35938 0.628906zM473.79 256.312c7.58203 30.7451 10.0938 60.0684 7.49805 87.1797c-2.6582 27.0166 -10.3975 51.5479 -23.0127 72.8936c-12.624 21.4014 -29.8486 38.5947 -51.1943 51.1943
c-21.3535 12.5996 -44.7363 19.3633 -69.5508 20.0713c-1.4707 0.046875 -2.94141 0.0703125 -4.41211 0.0703125c-23.4385 0 -47.1201 -5.09668 -70.5508 -15.2031c-24.9092 -10.7207 -49.3379 -27.1113 -72.6816 -48.7246
c-23.249 -21.6133 -44.4531 -48.418 -62.9131 -79.7061c-18.3496 -31.1465 -31.5947 -62.623 -39.3262 -93.6035c-7.63672 -30.8867 -10.1455 -60.208 -7.49512 -87.1777c2.6582 -27.04 10.3975 -51.5713 23.0137 -72.8701
c12.5762 -21.3535 29.793 -38.5703 51.1943 -51.2412c21.3535 -12.5762 44.792 -19.3398 69.5518 -20.0244c1.56543 -0.046875 3.13086 -0.0703125 4.64844 -0.0703125c23.2891 0 46.877 5.09668 70.3076 15.1562c25.0508 10.8613 49.5352 27.252 72.6826 48.7471
c23.2969 21.6133 44.4541 48.4414 62.9141 79.7295c18.4521 31.2637 31.6895 62.7402 39.3262 93.5791zM101.361 596.733l-12.2314 -1.77051c-1.94238 10.1064 -2.52441 20.7871 -2.52441 32.2549c0 54.7969 34.001 86.2734 84.7158 86.2734
c46.8213 0 87.6182 -25.2627 122.397 -46.2471c40.0342 -24.2881 80.0518 -49.543 111.34 -49.543c33.0254 0 57.5098 30.5088 57.5098 73.0596c0 8.36035 -1.36816 17.0986 -2.53223 22.7383l12.2461 0.77832c1.9502 -8.5498 2.52441 -21.7637 2.52441 -31.2881
c0 -51.8711 -27.1973 -81.7979 -83.9365 -81.7979c-42.3535 0 -85.6826 24.2959 -122.405 47.0264c-39.0586 24.2881 -74.8057 49.5508 -106.085 49.5508c-39.2471 0 -63.5352 -35.1729 -63.5352 -75.584c0 -13.0166 1.93457 -22.3447 2.5166 -25.4512z" />
    <glyph glyph-name="odieresis" unicode="&#xf6;" horiz-adv-x="562" 
d="M524.935 324.203c7.25977 -30.7686 8.44922 -63.291 3.51758 -96.6631c-4.93164 -33.4502 -17.0752 -66.751 -36.1006 -98.9902s-42.2744 -58.9727 -69.1729 -79.4697c-26.9062 -20.4971 -55.9365 -35.1816 -86.3516 -43.6992
c-20.2139 -5.59961 -40.8994 -8.42285 -61.8682 -8.42285c-10.7207 0 -21.4961 0.739258 -32.2637 2.20996c-32.1211 4.31836 -63.291 15.2979 -92.707 32.6406c-29.3682 17.3193 -54.041 39.3027 -73.3975 65.3281c-19.2617 25.8838 -32.7344 54.6309 -40.041 85.4229
c-7.31445 30.7373 -8.49414 63.2598 -3.5625 96.6865c4.93945 33.4502 17.083 66.751 36.1562 99.0137c18.9863 32.1924 42.2275 58.9258 69.126 79.4463c26.8594 20.4727 55.9365 35.1572 86.3984 43.6748c30.3672 8.42383 62.0557 10.5078 94.1299 6.26074
c32.0664 -4.31836 63.2363 -15.3213 92.6523 -32.6875c29.3682 -17.2881 54.0879 -39.2559 73.3965 -65.2812c19.3086 -26.002 32.7812 -54.7725 40.0879 -85.4697zM286.63 508.358c-0.975586 0 -1.91895 -0.180664 -2.88672 -0.196289
c4.05078 0.046875 8.15625 -0.267578 12.2383 -0.432617c-3.10645 0.125977 -6.25293 0.628906 -9.35156 0.628906zM473.789 256.312c7.58984 30.7451 10.1045 60.0684 7.50098 87.1797c-2.65039 27.0166 -10.3896 51.5479 -23.0059 72.8936
c-12.624 21.4014 -29.8486 38.5947 -51.1943 51.1943s-44.7363 19.3633 -69.5508 20.0713c-1.4707 0.046875 -2.94141 0.0703125 -4.41211 0.0703125c-23.4385 0 -47.1123 -5.09668 -70.5508 -15.2031c-24.9014 -10.7207 -49.3389 -27.1113 -72.6826 -48.7246
c-23.249 -21.6133 -44.4531 -48.418 -62.9131 -79.7061c-18.3574 -31.1465 -31.5947 -62.623 -39.3262 -93.6035c-7.63672 -30.8867 -10.1533 -60.208 -7.49512 -87.1777c2.6582 -27.04 10.3975 -51.5713 23.0127 -72.8701
c12.5684 -21.3535 29.793 -38.5703 51.1865 -51.2412c21.3457 -12.5762 44.7842 -19.3398 69.5518 -20.0244c1.56543 -0.046875 3.13086 -0.0703125 4.64844 -0.0703125c23.2891 0 46.8691 5.09668 70.3076 15.1562c25.0508 10.8613 49.5273 27.252 72.6826 48.7471
c23.2969 21.6133 44.4541 48.4414 62.9141 79.7295c18.4521 31.2637 31.6895 62.7402 39.3262 93.5791zM262.349 654.883l-55.8203 -55.8203l-55.8203 55.8203l55.8203 55.8203zM408.992 654.885l-55.8203 -55.8203l-55.8203 55.8203l55.8203 55.8203z" />
    <glyph glyph-name="divide" unicode="&#xf7;" horiz-adv-x="524" 
d="M473.925 303.502h-423.925v17.2012h423.925v-17.2012zM349.43 487.843l-78.8896 -78.8896l-78.8896 78.8896l78.8896 78.8896zM349.759 136.736l-78.8896 -78.8896l-78.8896 78.8896l78.8896 78.8896z" />
    <glyph glyph-name="oslash" unicode="&#xf8;" horiz-adv-x="563" 
d="M525.921 324.203c7.25977 -30.7686 8.43945 -63.292 3.51562 -96.6719c-4.93164 -33.4502 -17.0752 -66.751 -36.1006 -98.9902s-42.2744 -58.9727 -69.1729 -79.4697c-26.9062 -20.4971 -55.9365 -35.1816 -86.3516 -43.6992
c-20.2139 -5.59961 -40.8994 -8.42285 -61.8682 -8.42285c-10.7207 0 -21.4883 0.739258 -32.2637 2.20996c-32.1211 4.31836 -63.291 15.2979 -92.707 32.6406c-6.30762 3.72852 -12.3555 7.70801 -18.2305 11.8525l-68.3799 -92.8486l-7.10254 5.23047l68.3721 92.8408
c-18.4355 14 -34.5596 30.124 -48.0479 48.2529c-19.2617 25.8838 -32.7344 54.6309 -40.041 85.4229c-7.30664 30.7373 -8.48633 63.2598 -3.55469 96.6865c4.93164 33.4502 17.0752 66.751 36.1484 99.0137c18.9785 32.1924 42.2275 58.9258 69.126 79.4463
c26.8516 20.4727 55.9287 35.1572 86.3906 43.6748c30.3672 8.42383 62.0557 10.5078 94.1299 6.26074c32.0742 -4.31836 63.2441 -15.3213 92.6602 -32.6875c6.31543 -3.7207 12.3721 -7.7002 18.2549 -11.8447l68.3564 92.8242l7.10254 -5.23047l-68.3486 -92.8086
c18.4434 -13.9766 34.5752 -30.084 48.0244 -48.2129c19.3086 -26.002 32.7812 -54.7725 40.0879 -85.4697zM287.606 508.357c-0.967773 0 -1.91113 -0.180664 -2.88672 -0.196289c4.05859 0.046875 8.15625 -0.267578 12.2461 -0.432617
c-3.11426 0.125977 -6.26074 0.628906 -9.35938 0.628906zM131.601 56.999l293.566 398.614c-5.3877 4.31836 -11.0352 8.36914 -17.1074 11.9561c-21.3457 12.5996 -44.7363 19.3633 -69.5508 20.0713c-1.4707 0.046875 -2.94141 0.0703125 -4.41211 0.0703125
c-23.4385 0 -47.1201 -5.09668 -70.5508 -15.2031c-24.9092 -10.7207 -49.3379 -27.1113 -72.6816 -48.7246c-23.249 -21.6133 -44.4531 -48.418 -62.9131 -79.7061c-18.3496 -31.1465 -31.5947 -62.623 -39.3262 -93.6035
c-7.63672 -30.8867 -10.1533 -60.208 -7.49512 -87.1777c2.6582 -27.04 10.3975 -51.5713 23.0137 -72.8701c7.47168 -12.6943 16.792 -23.7373 27.457 -33.4268zM474.772 256.31c7.58984 30.7451 10.1035 60.0684 7.5 87.1875
c-2.65039 27.0166 -10.3896 51.5479 -23.0059 72.8936c-7.49512 12.7021 -16.792 23.7295 -27.4336 33.3877l-293.575 -398.63c5.3877 -4.31055 11.0195 -8.36133 17.084 -11.9561c21.3535 -12.5762 44.7842 -19.3398 69.5518 -20.0244
c1.56543 -0.046875 3.13086 -0.0703125 4.64844 -0.0703125c23.2891 0 46.8691 5.09668 70.3076 15.1562c25.0508 10.8613 49.5352 27.252 72.6826 48.7471c23.2969 21.6133 44.4619 48.4414 62.9141 79.7295c18.4521 31.2637 31.6895 62.7402 39.3262 93.5791z" />
    <glyph glyph-name="ugrave" unicode="&#xf9;" horiz-adv-x="569" 
d="M483.193 488.188l0.000976562 -473.324h71.9346v-16.3359h-159.207v65.4463c-41.3789 -52.3428 -94.8311 -76.3633 -154.858 -76.3633c-100.336 0 -158.137 66.5547 -158.137 163.603v327.64l-71.9268 -0.118164v9.4541h159.207v-335.905
c0 -77.4326 27.2607 -134.125 103.616 -134.125c40.3086 0 81.7812 18.5615 122.09 67.6162v387.139h-71.9268v15.2744h159.207zM423.694 573.283c-2.02148 0.826172 -202.827 83.1816 -284.633 94.9326l-4.72656 0.676758l16.9727 48.7324l4.23145 -2.85547
c72.2969 -48.7715 270.86 -127.644 272.858 -128.438l3.38184 -1.33691l-4.09766 -13.3477z" />
    <glyph glyph-name="uacute" unicode="&#xfa;" horiz-adv-x="536" 
d="M449.201 498.188l0.000976562 -473.324h71.9268v-16.3359h-159.207v65.4463c-41.3789 -52.3428 -94.8311 -76.3633 -154.858 -76.3633c-100.336 0 -158.137 66.5547 -158.137 163.603v327.64l-71.9268 -0.118164v9.4541h159.207v-335.905
c0 -77.4326 27.2686 -134.125 103.624 -134.125c40.3086 0 81.7812 18.5615 122.09 67.6162v387.139h-71.9268v15.2744h159.207zM108.436 583.283l-3.9873 -1.63477l-4.09766 13.3477l3.38184 1.33691c1.99805 0.786133 200.562 79.6582 272.858 128.438l4.23145 2.85547
l16.9727 -48.7324l-4.72656 -0.676758c-81.8057 -11.751 -282.619 -94.1074 -284.633 -94.9336z" />
    <glyph glyph-name="ucircumflex" unicode="&#xfb;" horiz-adv-x="569" 
d="M483.193 488.188l0.000976562 -473.324h71.9346v-16.3359h-159.207v65.4463c-41.3789 -52.3428 -94.8311 -76.3633 -154.858 -76.3633c-100.336 0 -158.137 66.5547 -158.137 163.603v327.64l-71.9268 -0.118164v9.4541h159.207v-335.905
c0 -77.4326 27.2607 -134.125 103.616 -134.125c40.3086 0 81.7812 18.5615 122.09 67.6162v387.139h-71.9268v15.2744h159.207zM95.0723 523.363l-3.27246 -2.5166l-8.43164 12.1748l2.87891 2.28906c46.5928 37.0996 140.534 114.493 194.183 162.777l2.62695 2.36719
l2.62695 -2.36719c53.6094 -48.2529 147.566 -125.662 194.184 -162.777l2.87891 -2.28906l-8.43164 -12.1748l-3.2793 2.5166c-52.4766 40.2773 -127.471 93.9414 -187.985 121.87c-60.5146 -27.9209 -135.509 -81.585 -187.978 -121.87z" />
    <glyph glyph-name="udieresis" unicode="&#xfc;" horiz-adv-x="569" 
d="M483.201 488.188l0.000976562 -473.324h71.9268v-16.3359h-159.207v65.4463c-41.3789 -52.3428 -94.8311 -76.3633 -154.858 -76.3633c-100.336 0 -158.137 66.5547 -158.137 163.603v327.64l-71.9268 -0.118164v9.4541h159.207v-335.905
c0 -77.4326 27.2686 -134.125 103.624 -134.125c40.3086 0 81.7812 18.5615 122.09 67.6162v387.139h-71.9268v15.2744h159.207zM263.218 646.255l-55.8203 -55.8203l-55.8203 55.8203l55.8203 55.8203zM411.177 644.928l-55.8203 -55.8203l-55.8203 55.8203
l55.8203 55.8203z" />
    <glyph glyph-name="yacute" unicode="&#xfd;" horiz-adv-x="566" 
d="M403.126 488.125l158.137 -0.000976562v-9.4541c-38.0908 0 -71.6748 -24.9795 -82.623 -61.4658l-74.3574 -247.784c-18.9082 -62.9922 -35.4404 -126.661 -49.5742 -190.888l-0.196289 -0.935547c-8.75391 -39.7979 -29.5254 -77.1338 -57.2891 -107.91
c-44.6191 -49.4951 -108.555 -77.9043 -175.44 -77.9043h-2.15527v81.5225h82.0732c42.6924 0.550781 83.5674 19.042 112.087 50.6758c20.6387 22.8721 33.5771 51.3516 37.5723 81.5381l-77.6689 0.157227l-213.445 472.995h-56.2441v9.4541h224.645v-9.4541h-72.2969
l187.687 -435.125l132.339 435.125h-73.248v9.4541zM141.994 580.28l-3.99512 -1.63477l-4.09766 13.3477l3.38184 1.33691c1.99805 0.786133 200.562 79.6582 272.858 128.438l4.23145 2.85547l16.9727 -48.7324l-4.72656 -0.676758
c-81.8057 -11.751 -282.611 -94.1074 -284.625 -94.9336z" />
    <glyph glyph-name="ydieresis" unicode="&#xff;" horiz-adv-x="566" 
d="M403.126 488.125l158.146 -0.000976562v-9.4541c-38.0908 0 -71.6748 -24.9795 -82.623 -61.4658l-74.3652 -247.784c-18.9082 -62.9922 -35.4404 -126.661 -49.5664 -190.888l-0.204102 -0.935547c-8.76172 -39.7979 -29.5254 -77.1338 -57.2891 -107.91
c-44.6191 -49.4951 -108.555 -77.9043 -175.44 -77.9043h-2.15527v81.5225h82.0732c42.6924 0.550781 83.5674 19.042 112.087 50.6758c20.6299 22.8721 33.5762 51.3516 37.5713 81.5381l-77.6689 0.157227l-213.445 472.995h-56.2441v9.4541h224.645v-9.4541h-72.3047
l187.687 -435.125l132.347 435.125h-73.248v9.4541zM262.664 653.337l-55.8203 -55.8203l-55.8203 55.8203l55.8203 55.8203zM410.691 651.941l-55.8203 -55.8203l-55.8203 55.8203l55.8203 55.8203z" />
    <glyph glyph-name="Lslash" unicode="&#x141;" horiz-adv-x="559" 
d="M532.897 225.519h9.62695v-217.008h-507.052v8.70703h82.8906v390.97l-97.127 -97.127l-6.2373 6.2373l103.364 103.364v275.478h-82.8906v9.1709h258.434v-9.1709h-83.9531v-183.888l84.8887 84.8887l6.2373 -6.2373l-91.1338 -91.1338v-482.552h104.646
c115.036 0 218.306 93.2568 218.306 208.301z" />
    <glyph glyph-name="lslash" unicode="&#x142;" horiz-adv-x="287" 
d="M200.105 481.929v-472.791l74.1445 -0.0546875v-9.58008h-234.413v9.63477h74.1445v386.659l-93.7373 -93.7451l-6.24512 6.24512l99.9824 99.9736v344.274h-74.1445v9.20215h160.269v-267.345l93.7451 93.7373l6.2373 -6.2373z" />
    <glyph glyph-name="OE" unicode="&#x152;" horiz-adv-x="1117" 
d="M749.996 687.864l-0.000976562 -347.164h93.3906v-9.91016h-93.3906v-304.775l51.2334 -0.0625h138.058c74.3262 0 134.581 60.2471 134.581 134.573h8.69922v-152.025h-507.052v8.70703h82.8906v146.812c-24.1299 -36.6357 -52.2402 -67.2549 -84.4092 -91.7705
c-37.4932 -28.5664 -77.4795 -48.7803 -119.904 -60.6484c-42.4482 -11.8135 -86.0684 -14.7393 -130.758 -8.6748c-44.7451 6.04785 -87.665 21.1494 -128.697 45.3506c-41.0166 24.2012 -75.002 54.4668 -101.933 90.71
c-26.9541 36.2031 -45.4531 75.7725 -55.6074 118.614c-10.1699 42.9043 -11.8135 87.6729 -4.93164 134.306c6.86621 46.6328 23.5957 92.4707 50.1719 137.522c26.5527 45.0205 58.5879 81.8213 96.0811 110.396c37.501 28.5664 77.4795 48.7803 119.943 60.625
c42.417 11.8369 85.9746 14.7471 130.743 8.73047c44.7451 -6.04785 87.6494 -21.1807 128.674 -45.3818c40.3721 -23.8154 73.9092 -53.5146 100.635 -88.9941v121.336h-82.8906v9.1709h507.052v-180.285h-9.27344c0 90.457 -82.7412 163.689 -173.198 163.375z
M646.097 359.875c10.7197 43.2344 14.1758 83.8271 10.4717 121.737c-3.72852 37.9336 -14.4404 71.9189 -32.1768 101.987c-17.7598 30.0293 -41.623 53.916 -71.6758 71.6445s-62.5283 27.0879 -97.3633 28.0869c-34.8975 0.983398 -69.8262 -6.07129 -104.826 -21.1562
c-35.0078 -15.0771 -68.8359 -37.752 -101.492 -68.0488c-32.6641 -30.2891 -61.9541 -67.3574 -87.8301 -111.222c-25.8926 -43.9033 -44.1787 -87.4609 -54.8994 -130.704c-10.7207 -43.251 -14.2051 -83.8115 -10.4766 -121.745
c3.72852 -37.9258 14.4404 -71.9111 32.2002 -101.948c17.7041 -30.0449 41.5986 -53.9473 71.6514 -71.6758c30.0605 -17.7363 62.4961 -27.0645 97.3936 -28.0557c34.874 -1.01465 69.8027 6.04004 104.811 21.125c34.9688 15.1016 68.8281 37.7451 101.484 68.0498
c32.6641 30.2891 61.9463 67.3574 87.8467 111.261c25.876 43.8643 44.1621 87.4219 54.8818 130.664z" />
    <glyph glyph-name="oe" unicode="&#x153;" horiz-adv-x="969" 
d="M913.717 195.757l28.6943 -75.9658c-0.416992 -0.723633 -0.605469 -1.45508 -1.03027 -2.1709c-19.2383 -32.6172 -91.7002 -126.165 -256.334 -126.165c-35.9043 0 -68.6465 11.3496 -98.3379 28.8652c-29.707 17.5234 -47.624 39.4355 -67.1221 65.6738
c-11.0273 14.8027 -18.8135 30.415 -24.8857 46.7588c-0.793945 -1.40039 -1.5332 -2.80078 -2.35156 -4.19336c-19.0254 -32.2393 -42.2744 -58.9727 -69.1729 -79.4697c-26.9062 -20.4971 -55.9365 -35.1816 -86.3516 -43.6992
c-20.2139 -5.59961 -40.8994 -8.42285 -61.8682 -8.42285c-10.7207 0 -21.4961 0.739258 -32.2637 2.20996c-32.1211 4.31836 -63.291 15.2979 -92.707 32.6406c-29.3682 17.3193 -54.041 39.3027 -73.3975 65.3281c-19.2617 25.8838 -32.7344 54.6309 -40.041 85.4229
c-7.31445 30.7373 -8.49414 63.2598 -3.5625 96.6865c4.93945 33.4502 17.083 66.751 36.1562 99.0137c18.9785 32.1924 42.2275 58.9258 69.126 79.4463c26.8594 20.4727 55.9365 35.1572 86.3984 43.6748c30.3594 8.42383 62.0479 10.5078 94.1221 6.26074
c32.0742 -4.31836 63.2441 -15.3213 92.6602 -32.6875c29.3682 -17.2881 54.0889 -39.2559 73.3975 -65.2812c11.1133 -14.9678 20.2295 -30.8711 27.4102 -47.5137c1.20312 2.15527 2.35156 4.31055 3.62598 6.45801c19.2148 32.585 42.4092 59.2324 69.5518 79.918
c27.1426 20.6777 56.0859 35.3066 86.8232 43.8877c30.6973 8.56543 62.2285 10.6729 94.6406 6.31543c12.8281 -1.73047 25.2783 -5.30957 37.6816 -9.10059c18.9316 -5.78906 37.5332 -13.167 55.4736 -23.7539c19.6709 -11.6016 48.041 -34.6465 67.2158 -57.4629
c3.79883 -4.52246 6.37109 -8.87207 9.30469 -13.2842h-318.704c-16.0918 -17.8066 -31.3662 -37.2646 -44.9023 -60.1992c-18.751 -31.7832 -31.9805 -63.3145 -39.7432 -94.6182s-10.2871 -60.6719 -7.58105 -88.1289c2.69727 -27.457 10.4521 -52.0596 23.3115 -73.8066
c12.8203 -21.7549 30.1162 -39.0508 51.8711 -51.8867s45.2246 -20.3076 70.4951 -20.3076c192.57 0 235.278 171.57 242.396 189.558zM636.551 415.458c-2.27344 -2.10742 -4.23145 -4.83008 -6.46484 -7.03223h277.734
c-12.8125 21.4326 -29.8955 38.5713 -51.4307 51.2734c-14.7314 8.69141 -30.5479 13.5596 -46.876 16.6982c-7.78613 1.49414 -15.4551 3.39746 -23.6035 3.63379c-25.2549 0.71582 -50.5488 -4.38867 -75.8828 -15.3135
c-25.3496 -10.917 -49.8262 -27.332 -73.4766 -49.2598zM286.622 508.36c-0.975586 0 -1.91895 -0.180664 -2.88672 -0.196289c4.05078 0.046875 8.15625 -0.267578 12.2383 -0.432617c-3.10645 0.125977 -6.25293 0.628906 -9.35156 0.628906zM473.781 256.313
c7.58984 30.7451 10.1045 60.0684 7.50098 87.1797c-2.6582 27.0166 -10.3896 51.5479 -23.0059 72.8936c-12.624 21.4014 -29.8486 38.5947 -51.1943 51.1943s-44.7363 19.3633 -69.5508 20.0713c-1.4707 0.046875 -2.94141 0.0703125 -4.41211 0.0703125
c-23.4385 0 -47.1123 -5.09668 -70.5508 -15.2031c-24.9014 -10.7207 -49.3389 -27.1113 -72.6826 -48.7246c-23.249 -21.6133 -44.4531 -48.418 -62.9131 -79.7061c-18.3574 -31.1465 -31.5947 -62.623 -39.3262 -93.6035
c-7.63672 -30.8867 -10.1533 -60.208 -7.49512 -87.1777c2.6582 -27.04 10.3896 -51.5713 23.0049 -72.8701c12.5762 -21.3535 29.8008 -38.5703 51.1943 -51.2412c21.3535 -12.5762 44.7842 -19.3398 69.5518 -20.0244
c1.56543 -0.046875 3.13086 -0.0703125 4.64844 -0.0703125c23.2891 0 46.8691 5.09668 70.3076 15.1562c25.0508 10.8613 49.5273 27.252 72.6826 48.7471c23.2969 21.6133 44.4541 48.4414 62.9141 79.7295c18.4521 31.2637 31.6895 62.7402 39.3262 93.5791z" />
    <glyph glyph-name="Scaron" unicode="&#x160;" horiz-adv-x="494" 
d="M102.508 574.732c0 -186.468 360.989 -134.116 360.981 -386.021c0 -129.775 -102.515 -190.864 -239.919 -190.864c-76.3633 0 -122.17 14.2041 -174.513 52.3418v131.002h9.84766c0 -87.209 68.0332 -161.181 155.211 -163.548
c4.17676 -0.118164 8.4082 -0.172852 12.7021 -0.172852c107.973 0 169.062 44.7529 169.062 138.521c0 196.275 -359.879 146.111 -359.879 383.852c0 118.851 99.2266 176.651 225.714 176.651c65.4463 0 109.617 -14.165 161.96 -52.3428v-115.374h-9.28125
c0.0078125 78.3447 -61.0342 143.728 -139.285 147.652c-5.84375 0.291016 -11.7588 0.44043 -17.7441 0.44043c-97.0557 0 -154.856 -43.6436 -154.856 -122.138zM459.132 918.842l8.41699 -12.1738l-2.87891 -2.28906
c-46.585 -37.0996 -140.526 -114.493 -194.175 -162.777l-2.62695 -2.36719l-2.62695 2.36719c-53.6094 48.2529 -147.566 125.662 -194.184 162.777l-2.87891 2.28906l8.43164 12.1748l3.2793 -2.5166c52.4766 -40.2773 127.463 -93.9414 187.985 -121.871
c60.5146 27.9209 135.509 81.585 187.978 121.87z" />
    <glyph glyph-name="scaron" unicode="&#x161;" horiz-adv-x="417" 
d="M115.634 411.278c0 -142.871 270.464 -93.8164 270.464 -270.476c0 -104.693 -97.1426 -142.871 -198.548 -142.871c-62.1504 0 -109.034 9.81543 -160.268 37.1152l2.21777 33.7891h4.34961c49.0078 -38.1855 92.6914 -54.5215 155.92 -54.5215
c78.4863 0 121.021 32.7266 121.021 90.5273c0 149.398 -270.467 101.405 -270.467 269.311c0 94.8779 87.2881 135.234 185.406 135.234c55.6699 0 93.7607 -9.80762 149.438 -35.959l-2.21777 -32.7188h-4.34961c-49.1025 38.1377 -89.4111 53.4121 -143.933 53.4121
c-69.7881 1.10938 -109.035 -29.4307 -109.035 -82.8428zM397.951 710.453l8.41699 -12.1738l-2.87891 -2.28906c-46.585 -37.0996 -140.526 -114.493 -194.175 -162.777l-2.62695 -2.36719l-2.62695 2.36719c-53.6094 48.2529 -147.566 125.662 -194.184 162.777
l-2.87891 2.28906l8.43164 12.1748l3.2793 -2.5166c52.4766 -40.2773 127.463 -93.9414 187.985 -121.871c60.5146 27.9209 135.509 81.585 187.978 121.87z" />
    <glyph glyph-name="Ydieresis" unicode="&#x178;" horiz-adv-x="584" 
d="M250.771 829.877l-55.8203 -55.8203l-55.8203 55.8203l55.8203 55.8203zM397.411 829.881l-55.8203 -55.8203l-55.8203 55.8203l55.8203 55.8203zM424.907 705.31h170.076v-9.1709c-37.9023 0 -72.792 -20.6543 -91.0234 -53.8848l-190.321 -346.948v-278.097h89.4189
v-8.70703h-271.529v8.70703h90.5205v266.11l-221.932 412.819h-56.1182v9.1709h248.618v-9.1709h-86.5557l195.599 -382.278l210.031 382.278h-86.7842v9.1709z" />
    <glyph glyph-name="Zcaron" unicode="&#x17d;" horiz-adv-x="551" 
d="M531.969 705.31l-0.00195312 -11.9873l-420.904 -676.105h171.178c115.044 0 211.809 93.2568 211.809 208.301h8.13281v-217.008h-488.183v11.9863l420.708 675.956l-225.085 -0.188477c-81.5615 -0.0703125 -151.727 -66.2002 -151.727 -147.754h-8.49414v156.8
h482.567zM270.348 741.599c-53.6094 48.2529 -147.565 125.654 -194.183 162.778l-2.87891 2.28906l8.43164 12.1748l3.2793 -2.5166c52.4766 -40.2773 127.463 -93.9414 187.985 -121.871c60.5146 27.9209 135.509 81.585 187.978 121.87l3.2793 2.5166l8.42383 -12.1748
l-2.87891 -2.28906c-46.5928 -37.0996 -140.534 -114.493 -194.183 -162.777l-2.62695 -2.36719z" />
    <glyph glyph-name="zcaron" unicode="&#x17e;" horiz-adv-x="431" 
d="M418.693 8.1377l1.07031 -9.63574h-406.763v10.9248l298.137 469.283h-283.562l-0.370117 9.44629h375.152v-10.917l-299.553 -469.102h315.889zM213.76 523.211c-53.6172 48.2529 -147.573 125.662 -194.198 162.777l-2.87891 2.28906l8.43164 12.1748l3.2793 -2.5166
c52.4766 -40.2773 127.463 -93.9414 187.985 -121.87c60.5146 27.9209 135.509 81.585 187.978 121.87l3.2793 2.5166l8.43164 -12.1748l-2.87891 -2.28906c-46.585 -37.0996 -140.526 -114.493 -194.175 -162.777l-2.62695 -2.36719z" />
    <glyph glyph-name="quoteleft" unicode="&#x2018;" horiz-adv-x="205" 
d="M115.72 602.976l63.6523 -63.6602l-78.8877 -78.8955l-72.4854 78.8877s47.4346 160.339 134.604 205.563l3.2168 -5.37988c-38.8779 -31.9482 -58.8711 -61.0732 -64.3369 -91.0869c-3.0127 -16.5479 2.33594 -33.5283 14.2363 -45.4287z" />
    <glyph glyph-name="quoteright" unicode="&#x2019;" horiz-adv-x="202" 
d="M102.888 744.871l72.4932 -78.8887s-47.4346 -160.339 -134.604 -205.563l-3.2168 5.37988c38.8779 31.9482 58.8711 61.0732 64.3369 91.0869c3.0127 16.5479 -2.33594 33.5283 -14.2363 45.4287l-63.6602 63.6611z" />
    <glyph glyph-name="quotedblleft" unicode="&#x201c;" horiz-adv-x="388" 
d="M101.484 648.405c-3.0127 -16.5566 2.33594 -33.5361 14.2285 -45.4287l63.6602 -63.6602l-78.8877 -78.8955l-72.4854 78.8877s47.4346 160.339 134.604 205.563l3.2168 -5.37988c-38.8779 -31.9482 -58.8711 -61.0732 -64.3369 -91.0869zM299.254 602.977
l63.6602 -63.6602l-78.8877 -78.8955l-72.4854 78.8877s47.4346 160.339 134.604 205.563l3.2168 -5.37988c-38.8779 -31.9482 -58.8711 -61.0732 -64.3369 -91.0869c-3.02051 -16.5479 2.33594 -33.5283 14.2285 -45.4287z" />
    <glyph glyph-name="quotedblright" unicode="&#x201d;" horiz-adv-x="385" 
d="M286.429 744.871l72.4932 -78.8887s-47.4346 -160.339 -134.604 -205.563l-3.2168 5.37988c38.8779 31.9482 58.8711 61.0732 64.3369 91.0869c3.0127 16.5479 -2.33594 33.5283 -14.2363 45.4287l-63.6602 63.6611zM24 665.975l78.8965 78.8955l72.4854 -78.8877
s-47.4346 -160.339 -134.604 -205.563l-3.2168 5.37988c38.8779 31.9482 58.8711 61.0732 64.3369 91.0869c3.02051 16.5479 -2.33594 33.5283 -14.2285 45.4287z" />
    <glyph glyph-name="Euro" unicode="&#x20ac;" horiz-adv-x="843" 
d="M765.422 256.712l39.5879 -104.977c-0.582031 -0.991211 -0.849609 -2.00586 -1.43164 -2.99707c-26.5762 -45.0518 -126.668 -174.276 -354.089 -174.276c-49.5977 0 -94.8301 15.6748 -135.854 39.876c-41.0244 24.209 -65.7764 54.4746 -92.7148 90.7178
c-26.9463 36.2031 -40.1836 75.7725 -50.3379 118.614c-4.67969 19.7568 -7.46387 39.915 -8.5332 60.459h-141.046v13.4805h140.613c-0.267578 19.7734 1.01465 39.8848 4.03516 60.373c0.125977 0.818359 0.298828 1.62109 0.424805 2.43945h-145.065v13.4805h147.417
c8.06934 41.1504 23.8545 81.6875 47.3945 121.604c26.5605 45.0127 58.5879 81.8213 96.0889 110.396c37.4932 28.5742 77.4717 48.7881 119.936 60.6328c42.417 11.8369 85.9746 14.7471 130.735 8.73047c17.7207 -2.39844 34.9141 -7.33008 52.0605 -12.5762
c26.1357 -7.99121 51.8389 -18.1846 76.6143 -32.8057c35.9355 -21.1963 65.4854 -47.8594 90.6143 -78.2979l-11.3262 -30.3984c-4.01172 9.60352 -7.39355 19.5762 -12.6553 28.4951c-17.7598 30.0293 -41.6152 53.9082 -71.668 71.6367
c-20.3389 12.002 -42.2041 18.7266 -64.7461 23.0605c-10.7598 2.07617 -21.3545 4.70312 -32.6172 5.02539c-34.8818 0.983398 -69.8193 -6.07129 -104.819 -21.1562c-35.0078 -15.0771 -68.8281 -37.7607 -101.492 -68.0498s-61.9463 -67.3574 -87.8223 -111.222
c-14.8262 -25.1367 -27.0723 -50.1562 -36.9199 -75.0732h158.986v-13.4805h-164.075c-5.06543 -14.0791 -9.42285 -28.1338 -12.8916 -42.1494c-1.73047 -6.96094 -3.19336 -13.8271 -4.5459 -20.6543h181.513v-13.4805h-183.99
c-5.00977 -30.6191 -6.18945 -59.8223 -3.45996 -87.6016c3.73633 -37.9258 14.4482 -71.9111 32.208 -101.948c17.7041 -30.0449 41.5986 -53.9473 71.6514 -71.6758c30.0527 -17.7363 62.4805 -28.0557 97.3857 -28.0557c266 0 325.013 237.009 334.836 261.854z" />
    <glyph glyph-name="trademark" unicode="&#x2122;" horiz-adv-x="589" 
d="M165.549 655.673l-0.00195312 -263.601h32.5068v-9.76855h-108.178v9.76855h32.5068v263.601h-16.3906c-34.2998 0 -69.0322 -19.0732 -69.0322 -55.5361v-3.1543h-9.94922v68.6396h234.343v-68.6396h-9.95703v3.1543c0 36.4551 -34.7324 55.5361 -69.0322 55.5361
h-16.8154zM539.826 392.143h27.2354v-9.83105h-207.326v9.83105h32.9004l-33.7891 99.1328l-33.7334 -56.4873c-0.495117 -0.793945 -0.990234 -1.49414 -1.47754 -2.19434l-0.857422 -1.25098c-18.5693 -27.9531 -42.9512 -46.9238 -65.21 -50.7383
c-2.71387 -0.47168 -5.37207 -0.700195 -7.95215 -0.700195c-8.4082 0 -16.0371 2.44629 -22.416 7.23633c-24.8701 18.7109 -24.6816 68.1201 0.439453 114.918l0.731445 1.42383c0.370117 0.739258 0.748047 1.47852 1.17285 2.21777l3.58691 6.02441l104.261 171.279
l45.4609 -132.913l37.4775 62.9209l-8.06934 23.6816l28.1182 46.334zM325.617 454.041l29.2188 49.0088l-41.4648 122.271l-71.1641 -116.853c-18.7744 -35.1416 -14.8574 -67.4756 10.5 -86.541c9.38281 -7.05469 19.0645 -9.67383 28.8252 -7.77832
c15.125 2.94922 29.9512 16.3672 44.085 39.8916zM436.861 392.144h58.7285l-71.1953 208.931l-37.501 -62.8193z" />
    </font>
</defs>
</svg>
