<?xml version="1.0" standalone="no"?>
<!DOCTYPE svg PUBLIC "-//W3C//DTD SVG 1.1//EN" "http://www.w3.org/Graphics/SVG/1.1/DTD/svg11.dtd" >
<svg xmlns="http://www.w3.org/2000/svg" xmlns:xlink="http://www.w3.org/1999/xlink" version="1.1">
<metadata>
Created by FontForge 20201107 at Thu Jan 14 01:18:44 2021
 By Jimmy Wärting
</metadata>
<defs>
<font id="SaintMonicaItalic" horiz-adv-x="696" >
  <font-face 
    font-family="Saint Monica"
    font-weight="400"
    font-style="italic"
    font-stretch="normal"
    units-per-em="1000"
    panose-1="0 0 0 0 0 0 0 0 0 0"
    ascent="800"
    descent="-200"
    x-height="487.083"
    cap-height="943.86"
    bbox="-95.0264 -219.61 1466.2 943.86"
    underline-thickness="0"
    underline-position="0"
    unicode-range="U+000A-FB02"
  />
<missing-glyph horiz-adv-x="527" 
d="M50 700h427v-700h-427v700zM78 680l185 -309l186 309h-371zM251 350l-180 300v-601zM264 329l-185 -308h370zM276 350l181 -303v605z" />
    <glyph glyph-name="CA.liga" unicode="CA" horiz-adv-x="1288" 
d="M1147.62 93.7578c7.47949 -39.2939 40.3154 -65.2705 82.2842 -65.0977l-1.65137 -8.98242h-260.651l1.59668 8.70703h91.582l-40.0654 214.829l-9.04492 49.0469l-5.78125 -6.7793l-119.196 -139.725l-12.0654 -14.0869
c-2.53223 -2.85547 -5.1748 -5.41992 -7.74707 -8.18848c-95.585 -102.939 -214.026 -151.208 -271.576 -107.171c-46.5537 35.6289 -38.9717 120.777 11.3496 210.228l-68.9385 -79.5879c-24.7832 -28.6055 -53.7266 -53.8369 -86.0762 -73.0439
c-52.4844 -31.1621 -116.837 -53.4678 -194.521 -53.4678c-49.6055 0 -91.9512 15.6748 -128.524 39.876s-55.7646 54.4668 -76.041 90.709c-20.2998 36.2031 -26.2617 75.7725 -28.5352 118.614c-2.28125 42.9043 4.30176 87.6729 19.7568 134.298
c15.4395 46.6328 40.5918 92.4707 75.4502 137.522c34.8271 45.0127 73.626 81.8213 116.373 110.396s86.4385 48.7881 131.081 60.6328c44.5801 11.8369 88.6719 14.7471 132.339 8.73047c17.2793 -2.39844 33.5762 -7.33008 49.7471 -12.5762
c24.6729 -7.99121 48.4883 -18.1846 70.5898 -32.8057c32.0273 -21.1963 56.6768 -47.8594 76.2139 -78.2979l-16.9102 -30.3984c-2.25684 9.60352 -3.79883 19.5762 -7.41699 28.4951c-12.2461 30.0215 -31.7119 53.9082 -58.5088 71.6367
c-18.1367 12.002 -38.7588 18.7266 -60.5137 23.0605c-10.374 2.07617 -20.4961 4.70312 -31.6885 5.02539c-34.709 0.983398 -70.9355 -6.07129 -108.712 -21.1562c-37.7764 -15.0771 -75.7646 -37.752 -113.997 -68.0488
c-38.2324 -30.2891 -74.334 -67.3574 -108.272 -111.222c-33.9697 -43.9033 -60.2549 -87.4609 -78.9268 -130.703c-18.6719 -43.2432 -29.6123 -83.8037 -32.8525 -121.737c-3.24023 -37.9258 1.22754 -71.9111 13.4658 -101.948
c12.1836 -30.0449 31.6895 -53.9473 58.4785 -71.6758c26.7969 -17.7363 78.0459 -35.2988 112.959 -35.2988c53.5303 0 100.312 10.2168 141.03 26.7412c51.3281 20.835 97.5049 56.2207 134.18 99.4004l118.166 139.104l12.5449 14.7158l270.451 312.113l8.50977 9.83105
l-15.8564 66.8379l94.1621 31.6104l64.2188 -337.612l123.86 145.474l1.91895 -10.1855l-123.892 -145.238zM1003.98 295.21l5.89062 6.91211l-58.5088 317.297l-1.6123 6.80371l-8.8252 -10.1543l-215.898 -248.444l-24.8613 -29.085l-20.7402 -24.2715
l-0.322266 -0.259766c-81.7822 -103.923 -64.6602 -182.7 -10.2725 -224.322c57.125 -43.707 137.113 -26.2227 229.403 81.4746l0.841797 0.983398l32.2314 37.7139z" />
    <glyph glyph-name="AI.liga" unicode="AI" horiz-adv-x="999" 
d="M860.922 699.236l187.373 0.00976562l-1.68359 -9.1709h-83.9531l-124.789 -678.929h83.9531l-1.59668 -8.70703h-258.434l1.59668 8.70703h82.8906l124.789 678.937h-7.40137c-57.3525 0 -116.191 -28.6055 -156.87 -76.2607l-209.504 -245.448l55.6543 -292.6
c7.47168 -39.2939 40.3086 -65.2803 82.293 -65.1152l-1.65137 -8.98242h-260.651l1.59668 8.70703h91.582l-40.0654 214.829l-9.04492 49.0469l-5.78125 -6.7793l-119.196 -139.725l-12.0654 -14.0869c-2.53223 -2.85547 -5.1748 -5.41992 -7.74707 -8.18848
c-95.585 -102.939 -214.026 -151.208 -271.576 -107.171s-32.4443 163.722 53.9385 273.692c2.3125 2.93359 4.38867 5.88281 6.78711 8.80859l12.5449 14.7158l270.451 312.121l8.50977 9.83105l-15.8564 66.8379l94.1621 31.6104l64.2109 -337.604l208.6 244.583
c40.6787 47.7021 99.542 76.3311 156.935 76.3311zM409.297 277.209l5.89062 6.91309l-58.501 317.305l-1.6123 6.80371l-8.8252 -10.1543l-215.898 -248.445l-24.8613 -29.085l-20.7402 -24.2715l-0.322266 -0.259766c-81.7822 -103.923 -64.6602 -182.7 -10.2725 -224.322
c57.1172 -43.707 137.105 -26.2227 229.396 81.4668l0.841797 0.983398l32.2314 37.7139zM1021.92 822.744l-93.3818 -78.8877l-64.3926 78.8877l93.3906 78.8955z" />
    <glyph glyph-name="AG.liga" unicode="AG" horiz-adv-x="1339" 
d="M811.442 239.298l477.144 -0.00390625l-43.7148 -237.851h-10.6416l31.4766 170.792c-10.6494 -12.875 -23.6582 -27.2764 -34.8662 -38.9717c-24.3818 -25.4277 -49.8018 -48.6934 -77.5029 -67.208c-42.7393 -28.5664 -86.4385 -48.7803 -131.05 -60.6484
c-7.21973 -1.91113 -14.3457 -2.12305 -21.5342 -3.57031c-37.2734 -7.4873 -74.2871 -10.1846 -110.812 -5.10352c-43.6357 6.04785 -83.7871 21.1494 -120.36 45.3506c-36.5811 24.2012 -64.9902 54.4668 -85.2666 90.71
c-20.2998 36.2031 -31.5312 75.7725 -33.8047 118.614c-2.28125 42.9043 4.30176 87.6729 19.749 134.306c15.4395 46.6328 40.5918 92.4707 75.4502 137.522c34.8271 45.0127 73.6182 81.8213 116.373 110.396c26.7334 17.8701 53.8369 32.4678 81.3096 43.7939
c-258.827 -65.7686 -431.137 -287.652 -446.34 -307.842l0.228516 -1.21875l55.6621 -292.592c7.47168 -39.2939 40.3086 -65.2803 82.293 -65.1152l-1.65137 -8.98242h-260.651l1.59668 8.70703h91.582l-40.0654 214.829l-9.04492 49.0469l-5.78125 -6.7793
l-119.196 -139.725l-12.0654 -14.0869c-2.53223 -2.85547 -5.1748 -5.41992 -7.74707 -8.18848c-95.585 -102.939 -214.026 -151.208 -271.576 -107.171s-32.4443 163.729 53.9385 273.7c2.3125 2.93359 4.38867 5.88281 6.78711 8.80859l12.5449 14.7158l270.459 312.113
l8.50977 9.83105l-15.8564 66.8379l94.1543 31.6104l63.5195 -333.963c34.6621 44.4463 252.181 306.962 563.9 323.259c8.73828 0.605469 17.4609 0.77832 26.168 0.683594c1.40039 0.0078125 2.76074 0.110352 4.16113 0.110352l-0.03125 -0.149414
c12.2383 -0.291016 24.4453 -1.20312 36.6123 -2.87793c17.2793 -2.39844 33.5762 -7.33008 49.7471 -12.5762c24.6729 -7.99121 48.4883 -18.1846 70.5898 -32.8057c32.0273 -21.1963 56.6768 -47.8594 76.2139 -78.2979l-16.9102 -30.3984
c-2.25684 9.60352 -3.79102 19.5762 -7.41699 28.4951c-12.2461 30.0215 -31.7119 53.9082 -58.5088 71.6367c-18.1367 12.002 -38.7666 18.7266 -60.5137 23.0605c-10.374 2.07617 -20.4961 4.70312 -31.6885 5.02539
c-34.709 0.983398 -70.9355 -6.07129 -108.712 -21.1562c-37.7764 -15.0771 -75.7646 -37.752 -113.997 -68.0488c-38.2324 -30.2891 -74.334 -67.3574 -108.272 -111.222c-33.9697 -43.9033 -60.2549 -87.4609 -78.9268 -130.703s-29.6123 -83.8027 -32.8525 -121.736
c-3.24023 -37.9258 1.22754 -71.9111 13.4658 -101.948c12.1836 -30.0449 31.6895 -53.9473 58.4785 -71.6758c26.7969 -17.7363 57.5186 -27.0645 92.2354 -28.0557c34.6855 -1.01465 70.9121 6.04004 108.688 21.125c22.0303 8.80859 44.1787 21 66.3896 34.9766
c15.833 9.97266 31.6816 20.457 47.6006 33.0723c34.1504 27.0566 82.5137 77.3389 113.259 115.249c-56.9043 0.605469 -56.9043 0.605469 -86.6895 0.991211h-308.314l0.211914 1.17188h-0.03125zM409.292 277.212l5.88965 6.91211l-58.5088 317.297l-1.6123 6.80371
l-8.8252 -10.1543l-215.898 -248.444l-24.8613 -29.085l-20.7402 -24.2715l-0.322266 -0.259766c-81.7822 -103.923 -64.6602 -182.7 -10.2725 -224.322c57.1172 -43.707 137.114 -26.2227 229.404 81.4746l0.841797 0.983398l32.2314 37.7139z" />
    <glyph glyph-name="CO.liga" unicode="CO" horiz-adv-x="1377" 
d="M1358.06 447.615c2.24902 -42.8809 -4.33398 -87.6523 -19.7812 -134.309c-15.4473 -46.6328 -40.5996 -92.4707 -75.4268 -137.483c-34.8584 -45.0518 -73.6494 -81.8525 -116.396 -110.427c-42.7393 -28.5664 -86.4385 -48.7803 -131.05 -60.6484
c-44.6191 -11.8135 -88.7666 -14.7393 -132.348 -8.6748c-43.6279 6.04785 -83.7793 21.1494 -120.36 45.3506c-36.5732 24.2012 -64.9902 54.4746 -85.2588 90.7168c-20.2998 36.2031 -31.5312 75.7725 -33.8047 118.614
c-0.0703125 1.25098 -0.0546875 2.51758 -0.101562 3.76855l-108.752 -125.544c-24.7832 -28.6055 -53.7266 -53.8369 -86.0762 -73.0439c-52.4844 -31.1621 -116.837 -53.4678 -194.521 -53.4678c-49.6055 0 -91.9512 15.6748 -128.524 39.876
s-55.7646 54.4668 -76.041 90.709c-20.2998 36.2031 -26.2617 75.7725 -28.5352 118.614c-2.28125 42.9043 4.30176 87.6729 19.749 134.306c15.4395 46.6328 40.5918 92.4707 75.4502 137.522c34.8271 45.0127 73.626 81.8213 116.373 110.396
c42.7471 28.5664 86.4385 48.7803 131.081 60.625c44.5879 11.8369 88.6719 14.7471 132.339 8.73047c17.2715 -2.39844 33.5684 -7.33008 49.7393 -12.5762c24.6729 -7.99121 48.4961 -18.1846 70.5889 -32.8057c32.0273 -21.1963 56.6768 -47.8594 76.2139 -78.2979
l-16.9102 -30.3984c-2.25684 9.60352 -3.79883 19.5762 -7.41699 28.4951c-12.2461 30.0293 -31.7119 53.916 -58.5088 71.6445c-18.1367 12.002 -38.7588 18.7266 -60.5137 23.0605c-10.374 2.07617 -20.4961 4.70312 -31.6885 5.02539
c-34.709 0.983398 -70.9355 -6.07129 -108.712 -21.1562c-37.7764 -15.0771 -75.7646 -37.752 -113.997 -68.0488c-38.2324 -30.2891 -74.334 -67.3574 -108.272 -111.222c-33.9697 -43.9033 -60.2549 -87.4609 -78.9268 -130.703s-29.6123 -83.8027 -32.8525 -121.736
c-3.24023 -37.9258 1.22754 -71.9111 13.4658 -101.948c12.1836 -30.0449 31.6895 -53.9473 58.4785 -71.6758c26.7969 -17.7363 78.0459 -35.2988 112.959 -35.2988c53.5303 0 100.312 10.2168 141.03 26.7412c51.3359 20.835 97.5049 56.2207 134.18 99.4004
l108.312 127.494c0.211914 37.2412 6.88965 75.8438 20.1348 115.822c15.4395 46.6328 40.5918 92.4707 75.4502 137.522c34.835 45.0127 73.626 81.8213 116.373 110.396c42.7549 28.5742 86.4463 48.7881 131.089 60.6328
c44.5801 11.8369 88.6719 14.7471 132.339 8.73047c43.6357 -6.04785 83.7559 -21.1807 120.337 -45.3818c36.5732 -24.2012 65.0137 -54.4346 85.29 -90.6768c20.2139 -36.251 31.5 -75.8047 33.8047 -118.67zM1304.28 474.778
c3.24023 37.9336 -1.22656 71.917 -13.4336 101.993c-12.2461 30.0215 -31.7119 53.9082 -58.5088 71.6367s-57.5498 27.0879 -92.2041 28.0869c-34.7168 0.983398 -70.9434 -6.07129 -108.712 -21.1562c-37.7764 -15.0771 -75.7734 -37.752 -113.998 -68.0488
c-38.2324 -30.2891 -74.334 -67.3574 -108.272 -111.222c-33.9697 -43.9033 -60.2549 -87.4609 -78.9268 -130.703s-29.6123 -83.8105 -32.8525 -121.744c-3.24023 -37.9258 1.22754 -71.9111 13.4658 -101.948c12.1748 -30.0449 31.6807 -53.9473 58.4775 -71.6758
c26.7969 -17.7363 57.5186 -27.0645 92.2354 -28.0557c34.6855 -1.02246 70.9121 6.03223 108.688 21.1172c37.7451 15.1016 75.7656 37.7529 113.99 68.0498c38.2402 30.2891 74.333 67.3574 108.303 111.261c33.9385 43.8643 60.2236 87.4219 78.8955 130.664
c18.6719 43.251 29.5811 83.835 32.8525 121.745z" />
    <glyph glyph-name="OV.liga" unicode="OV" horiz-adv-x="1366" 
d="M1363.86 687.592c57.0381 -43.6514 31.2139 -163.408 -55.6172 -273.851c-2.32031 -2.94141 -4.4043 -5.90625 -6.81152 -8.83984l-12.6074 -14.7783l-281.093 -324.862l-72.0527 -83.2607l-2.01367 10.0752l-63.0781 316.172l-1.99805 10.0205l-0.692383 3.4375
c-48.5518 -35.7393 -99.2432 -54.6396 -151.547 -56.3232c-2.53223 -0.0791016 -5.06445 -0.118164 -7.58887 -0.118164c-4.49121 0 -8.95117 0.165039 -13.4033 0.416992c-14.5195 -30.3047 -33.1523 -60.2705 -56.0557 -89.8672
c-34.8584 -45.0518 -73.6494 -81.8525 -116.396 -110.427c-42.7393 -28.5664 -86.4385 -48.7803 -131.05 -60.6484c-44.6191 -11.8135 -88.7666 -14.7393 -132.348 -8.6748c-43.6279 6.04785 -83.7793 21.1494 -120.36 45.3506
c-36.5732 24.2012 -64.9902 54.4746 -85.2588 90.7168c-20.2998 36.2031 -31.5312 75.7725 -33.8047 118.614c-2.28125 42.9043 4.30176 87.6729 19.749 134.306c15.4395 46.6328 40.5918 92.4707 75.4502 137.522c34.835 45.0127 73.626 81.8213 116.373 110.396
c42.7549 28.5742 86.4463 48.7881 131.089 60.6328c44.5801 11.8369 88.6719 14.7471 132.339 8.73047c43.6357 -6.04785 83.7559 -21.1807 120.337 -45.3818c36.5732 -24.2012 65.0137 -54.4346 85.29 -90.6777c20.2139 -36.251 31.5 -75.8047 33.8047 -118.67
c2.25684 -42.8809 -4.33398 -87.6494 -19.7734 -134.282c-4.25488 -12.8203 -9.30469 -25.5859 -15.0225 -38.2881c6.00098 -0.283203 12.0254 -0.385742 18.082 -0.189453c51.0527 1.64355 100.635 20.5518 148.219 56.2988l-71.707 358.195h-72.7061l1.52539 8.28223
l0.149414 0.416992h271.27l-1.59668 -8.69922h-94.4688l54.1123 -272.969l120.007 140.103l12.1201 14.1416c2.54785 2.86328 5.19824 5.44336 7.77832 8.22754c95.9473 103.45 214.303 152.403 271.356 108.752zM568.997 222.365
c16.0215 20.7168 30.29 41.3643 42.9053 61.9473c-82.458 31.6963 -154.44 97.6689 -206.013 156.107c-50.1094 56.7939 -88.3887 114.43 -109.554 148.745c-0.818359 -0.636719 -1.62891 -1.23438 -2.44727 -1.87891c-38.2324 -30.2891 -74.334 -67.3574 -108.272 -111.222
c-33.9697 -43.9033 -60.2549 -87.4609 -78.9268 -130.703s-29.6123 -83.8105 -32.8525 -121.744c-3.24023 -37.9258 1.22754 -71.9111 13.4658 -101.948c12.1748 -30.0449 31.6807 -53.9473 58.4775 -71.6758c26.7969 -17.7363 57.5186 -27.0645 92.2354 -28.0557
c34.6855 -1.02246 70.9121 6.03223 108.688 21.1172c37.7373 15.1016 75.7656 37.7529 113.99 68.0498c38.2402 30.2891 74.333 67.3574 108.303 111.261zM647.894 353.03c18.6641 43.251 29.582 83.833 32.8535 121.743c3.24805 37.9336 -1.22754 71.9189 -13.4346 101.987
c-12.2461 30.0215 -31.7119 53.9082 -58.5088 71.6367s-57.5498 27.0879 -92.2119 28.0869c-34.709 0.983398 -70.9355 -6.07129 -108.712 -21.1562c-34.2451 -13.6699 -68.6787 -33.6553 -103.293 -59.8301c44.0371 -71.1406 164.099 -245.7 312.515 -302.534
c11.8604 20.0879 22.1797 40.1123 30.792 60.0664zM1278.35 389.602c82.207 104.331 65.6748 182.952 11.7744 224.221c-56.6289 43.3213 -136.468 25.3574 -229.159 -82.8125l-0.841797 -0.991211l-32.373 -37.8789l-73.1934 -85.6357l63.0156 -317.847l214.656 247.076
l24.9639 29.2188l20.8271 24.374z" />
    <glyph glyph-name="OC.liga" unicode="OC" horiz-adv-x="1469" 
d="M1012.58 22.0742c266.008 0 368.578 237.009 382.948 261.831l20.3154 -104.961c-0.754883 -0.991211 -1.21094 -2.00586 -1.97363 -2.99707c-34.8584 -45.0518 -158.703 -174.276 -386.124 -174.276c-49.5977 0 -91.9512 15.6748 -128.524 39.876
c-36.5732 24.209 -55.7646 54.4746 -76.041 90.7178c-20.292 36.2031 -26.2617 75.7725 -28.5352 118.614c-0.535156 9.98828 -0.535156 20.0947 -0.102539 30.2881c-25.6094 -9.63477 -51.6982 -14.9277 -78.2041 -15.7773
c-2.53223 -0.0791016 -5.06445 -0.118164 -7.58887 -0.118164c-4.4834 0 -8.94336 0.165039 -13.3955 0.416992c-14.5195 -30.3047 -33.1523 -60.2705 -56.0557 -89.8672c-34.8584 -45.0518 -73.6494 -81.8525 -116.396 -110.427
c-42.7393 -28.5664 -86.4385 -48.7803 -131.05 -60.6484c-44.6191 -11.8135 -88.7666 -14.7393 -132.348 -8.6748c-43.6279 6.04785 -83.7793 21.1494 -120.36 45.3506c-36.5732 24.2012 -64.9902 54.4746 -85.2588 90.7168
c-20.2998 36.2031 -31.5312 75.7725 -33.8047 118.614c-2.28125 42.9043 4.30176 87.6729 19.749 134.298c15.4395 46.6328 40.5918 92.4707 75.4502 137.522c34.835 45.0127 73.626 81.8213 116.373 110.396c42.7549 28.5742 86.4463 48.7881 131.089 60.6328
c44.5801 11.8369 88.6719 14.7471 132.339 8.72266c43.6357 -6.04785 83.7559 -21.1807 120.337 -45.3818c36.5732 -24.2012 65.0137 -54.4346 85.29 -90.6768c20.2139 -36.251 31.5 -75.8047 33.8047 -118.67c2.24902 -42.8809 -4.33398 -87.6494 -19.7734 -134.282
c-4.25488 -12.8438 -9.32031 -25.6172 -15.0459 -38.3428c3.5625 -0.165039 7.13281 -0.251953 10.7197 -0.251953c2.46973 0 4.9082 0.0390625 7.37793 0.118164c26.207 0.849609 52.0127 6.2998 77.3779 16.1709c2.19434 30.5088 8.54199 61.8906 19.2383 94.1924
c15.4395 46.6328 40.5918 92.4707 75.4502 137.522c34.8271 45.0127 73.626 81.8213 116.373 110.396c42.7393 28.5742 86.4385 48.7881 131.081 60.6328c44.5879 11.8369 88.6797 14.7471 132.339 8.73047c17.2793 -2.39844 33.5762 -7.33008 49.7471 -12.5762
c24.6729 -7.99121 48.4883 -18.1846 70.5898 -32.8057c32.0273 -21.1963 56.6768 -47.8594 76.2139 -78.2979l-16.9102 -30.3984c-2.26562 9.60352 -3.80762 19.5762 -7.42578 28.4951c-12.2461 30.0215 -31.7119 53.9082 -58.5088 71.6367
c-18.1367 12.002 -38.7588 18.7266 -60.5137 23.0605c-10.374 2.07617 -20.4961 4.70312 -31.6885 5.02539c-34.709 0.983398 -70.9355 -6.07129 -108.712 -21.1562c-37.7764 -15.0771 -75.7646 -37.7607 -113.997 -68.0498s-74.334 -67.3574 -108.272 -111.222
c-33.9697 -43.9033 -60.2549 -87.4609 -78.9268 -130.703c-0.50293 -1.15625 -0.935547 -2.29688 -1.42285 -3.45312c-2.29688 -5.42676 -4.47559 -10.8145 -6.52832 -16.1631c-13.8115 -35.9434 -22.1484 -69.9834 -24.8936 -102.12
c-3.24023 -37.9258 1.22754 -71.9111 13.4658 -101.948c12.1836 -30.0527 31.6895 -53.9473 58.4785 -71.6758c26.7969 -17.7363 57.3213 -28.0557 92.2344 -28.0557zM568.984 222.36c16.0293 20.7168 30.2891 41.3652 42.9053 61.9482
c-82.4502 31.6963 -154.44 97.6689 -206.013 156.107c-50.1094 56.7939 -88.3887 114.43 -109.554 148.745c-0.818359 -0.636719 -1.62891 -1.23438 -2.44727 -1.87891c-38.2324 -30.2891 -74.334 -67.3574 -108.272 -111.222
c-33.9697 -43.9033 -60.2549 -87.4609 -78.9268 -130.703c-18.6719 -43.2432 -29.6123 -83.8115 -32.8525 -121.745c-3.24023 -37.9258 1.22754 -71.9111 13.4658 -101.948c12.1748 -30.0449 31.6807 -53.9473 58.4775 -71.6758
c26.7969 -17.7363 57.5186 -27.0645 92.2354 -28.0557c34.6855 -1.02246 70.9121 6.03223 108.688 21.1172c37.7373 15.1016 75.7656 37.7529 113.99 68.0498c38.2402 30.2891 74.333 67.3574 108.303 111.261zM647.888 353.026
c18.6641 43.251 29.582 83.833 32.8535 121.743c3.24023 37.9336 -1.23535 71.9189 -13.4424 101.987c-12.2383 30.0215 -31.7041 53.9082 -58.501 71.6367s-57.5498 27.0879 -92.2041 28.0869c-34.709 0.983398 -70.9355 -6.07129 -108.712 -21.1562
c-34.2529 -13.6699 -68.6787 -33.6553 -103.301 -59.8301c44.0215 -71.1406 164.052 -245.724 312.499 -302.558c11.8682 20.0957 22.1875 40.1279 30.8076 60.0898z" />
    <glyph glyph-name="AN.liga" unicode="AN" horiz-adv-x="1395" 
d="M1253.46 689.311l1.68359 9.17188h192.987l-1.68359 -9.1709h-87.2402l-126.386 -687.636h-18.5537l-328.127 653.21l-102.428 -557.263c-8.85645 -48.1816 23.0215 -87.2402 71.2031 -87.2402l-1.59668 -8.70703h-192.987l1.59668 8.70703h87.2402l124.789 678.921
h-18.9707c-56.7393 -4.80566 -113.29 -34.583 -153.449 -81.6406l-204.25 -239.298l55.6621 -292.592c7.47168 -39.2939 40.3086 -65.2803 82.293 -65.1152l-1.65137 -8.98242h-260.651l1.59668 8.70703h91.582l-40.0654 214.829l-9.04492 49.0469l-5.78125 -6.7793
l-119.196 -139.725l-12.0654 -14.0869c-2.53223 -2.85547 -5.1748 -5.41992 -7.74707 -8.18848c-95.585 -102.939 -214.026 -151.208 -271.576 -107.171s-32.4443 163.729 53.9307 273.7c2.3125 2.93359 4.38867 5.88281 6.78711 8.80859l12.5449 14.7158l270.468 312.113
l8.50977 9.83105l-15.8564 66.8379l94.1543 31.6104l64.2109 -337.604l203.346 238.44c29.3525 34.418 67.4824 59.5791 108.043 72.5488c14.9434 4.77441 30.1943 7.88086 45.4766 9.1709h123.719l4.08984 -8.40039l261.863 -537.898l82.7021 449.935
c8.84863 48.1582 -23.0127 87.1934 -71.1709 87.1934zM409.297 277.217l5.88965 6.91309l-58.5088 317.297l-1.6123 6.80371l-8.8252 -10.1543l-215.898 -248.445l-24.8613 -29.085l-20.7402 -24.2715l-0.322266 -0.259766
c-81.79 -103.923 -64.6602 -182.7 -10.2725 -224.322c57.1172 -43.707 137.114 -26.2227 229.404 81.4746l0.841797 0.983398l32.2314 37.7139z" />
    <glyph glyph-name="AT.liga" unicode="AT" horiz-adv-x="1175" 
d="M868.331 699.245l360.728 0.000976562l-28.8496 -156.973h-9.16309c17.3896 94.6182 -59.917 147.795 -154.425 147.795h-50.2344l-124.923 -679.676h81.7744l-1.60449 -8.71484h-256.255l1.60449 8.71484h81.7822l124.923 679.668l-10.0518 0.0078125h-12.8984
c-61.8828 -0.110352 -125.323 -30.9971 -169.203 -82.4033l-204.25 -239.298l55.6621 -292.592c7.47168 -39.2939 40.3086 -65.2803 82.293 -65.1152l-1.65137 -8.98242h-260.651l1.59668 8.70703h91.582l-40.0654 214.829l-9.04492 49.0469l-5.78125 -6.7793
l-119.196 -139.725l-12.0654 -14.0869c-2.53223 -2.85547 -5.1748 -5.41992 -7.74707 -8.18848c-95.585 -102.939 -214.026 -151.208 -271.576 -107.171s-32.4443 163.729 53.9385 273.7c2.3125 2.93359 4.38086 5.88281 6.78711 8.80859l12.5449 14.7158l270.459 312.113
l8.50977 9.83105l-15.8564 66.8379l94.1543 31.6104l64.2109 -337.604l139.827 163.949l0.731445 0.857422l62.7881 73.626c26.5137 31.0908 60.2002 54.6152 96.3486 68.4424c23.792 9.09961 48.6377 14.0469 73.248 14.0469zM409.296 277.217l5.88965 6.91309
l-58.501 317.297l-1.6123 6.80371l-8.8252 -10.1543l-215.898 -248.445l-24.8613 -29.085l-20.7402 -24.2715l-0.330078 -0.259766c-81.7822 -103.923 -64.6602 -182.7 -10.2725 -224.322c57.1172 -43.707 137.114 -26.2227 229.404 81.4746l0.841797 0.983398
l32.2314 37.7139z" />
    <glyph glyph-name="AO.liga" unicode="AO" horiz-adv-x="1361" 
d="M1305.32 555.241c20.2998 -36.2031 31.5293 -75.7695 33.8105 -118.596c2.28125 -42.9043 -4.30176 -87.6729 -19.749 -134.306c-15.4395 -46.6328 -40.5918 -92.4707 -75.4502 -137.522c-34.835 -45.0205 -73.626 -81.8213 -116.373 -110.396
c-42.7549 -28.5664 -86.4463 -48.7803 -131.089 -60.625c-44.5801 -11.8369 -88.6719 -14.7471 -132.339 -8.73047c-43.6357 6.04785 -83.7559 21.1807 -120.337 45.3818c-36.5732 24.2012 -65.0137 54.4346 -85.29 90.6777c-20.2139 36.251 -31.5 75.8047 -33.8047 118.67
c-2.24902 42.8809 4.33398 87.6494 19.7734 134.282c4.24707 12.8203 9.30469 25.5771 15.0146 38.2793c-5.99316 0.275391 -12.0098 0.385742 -18.0664 0.197266c-52.2793 -1.69141 -97.4492 -19.0342 -142.131 -54.6953l53.6562 -282.084
c7.47168 -39.2939 40.3086 -65.2803 82.293 -65.1152l-1.65137 -8.98242h-260.651l1.59668 8.70703h91.582l-40.0654 214.829l-9.04492 49.0469l-5.78125 -6.7793l-119.196 -139.725l-12.0654 -14.0869c-2.53223 -2.85547 -5.1748 -5.41992 -7.74707 -8.18848
c-95.585 -102.939 -214.026 -151.208 -271.576 -107.171s-32.4443 163.729 53.9385 273.7c2.3125 2.93359 4.38867 5.88281 6.78711 8.80859l12.5449 14.7158l270.451 312.113l8.50977 9.83105l-15.8564 66.8379l94.1621 31.6104l63.5352 -333.947l2.35156 -12.3799
l0.228516 -1.21875l0.172852 -0.919922c45.5869 35.4873 91.9678 52.7988 145.396 54.5215c7.03906 0.228516 14.0312 0.0947266 20.9844 -0.298828c14.5273 30.3047 33.1602 60.2705 56.0635 89.875c34.8584 45.0518 73.6494 81.8525 116.396 110.427
c42.7393 28.5664 86.4385 48.7803 131.05 60.6484c44.6191 11.8135 88.7666 14.7393 132.348 8.6748c43.6279 -6.04785 83.7793 -21.1494 120.36 -45.3506c36.5732 -24.209 64.9902 -54.4746 85.2588 -90.7178zM409.294 277.219l5.89062 6.91309l-58.5088 317.297
l-1.6123 6.80371l-8.8252 -10.1543l-215.898 -248.445l-24.8535 -29.085l-20.748 -24.2715l-0.322266 -0.259766c-81.79 -103.923 -64.6602 -182.7 -10.2725 -224.322c57.125 -43.707 137.113 -26.2227 229.403 81.4746l0.841797 0.983398l32.2314 37.7139zM951.329 32.0615
c34.2451 13.6621 68.6699 33.6416 103.284 59.8252c-44.0684 71.1094 -164.186 245.582 -312.538 302.479c-11.8447 -20.0645 -22.1484 -40.0654 -30.7529 -59.9961c-18.6719 -43.251 -29.5811 -83.835 -32.8525 -121.745
c-3.24805 -37.9336 1.22754 -71.9189 13.4346 -101.987c12.2461 -30.0371 31.7119 -53.916 58.5088 -71.6445s57.5498 -27.0879 92.2041 -28.0869c34.709 -0.983398 70.9355 6.07129 108.712 21.1562zM1252.52 342.037c18.6641 43.2432 29.6045 83.8096 32.8682 121.735
c3.24023 37.9258 -1.22754 71.9111 -13.4658 101.948c-12.1748 30.0449 -31.6807 53.9473 -58.4775 71.6758c-26.7969 17.7363 -57.5186 27.0645 -92.2354 28.0557c-34.6855 1.02246 -70.9199 -6.03223 -108.696 -21.1172
c-37.7451 -15.1016 -75.7656 -37.7529 -113.99 -68.0498c-38.2402 -30.2969 -74.333 -67.3574 -108.303 -111.261c-16.0371 -20.7246 -30.3047 -41.3789 -42.9287 -61.9619c82.4033 -31.7119 154.472 -97.6611 206.028 -156.084
c50.1094 -56.7939 88.3887 -114.43 109.554 -148.745c0.818359 0.636719 1.62891 1.23438 2.44727 1.87891c38.2324 30.2891 74.334 67.3574 108.272 111.222c33.9697 43.9033 60.2549 87.4609 78.9268 130.703z" />
    <glyph glyph-name="AR.liga" unicode="AR" horiz-adv-x="1339" 
d="M1082.23 323.896l134.597 -313.512h62.7959l-1.59668 -8.70703h-243.159l1.59668 8.70703h74.8682l-124.246 312.986h-105.755l-57.5254 -312.986h88.3105l-1.59668 -8.70703h-262.783l1.59668 8.70703h82.8828l124.789 678.921h-2.02148
c-56.7393 -4.80566 -113.29 -34.583 -153.449 -81.6406l-204.25 -239.298l55.6621 -292.592c7.47168 -39.2939 40.3086 -65.2803 82.293 -65.1152l-1.65137 -8.98242h-260.651l1.59668 8.70703h91.582l-40.0654 214.829l-9.04492 49.0469l-5.78125 -6.7793
l-119.196 -139.725l-12.0654 -14.0869c-2.53223 -2.85547 -5.1748 -5.41992 -7.74707 -8.18848c-95.585 -102.939 -214.026 -151.208 -271.576 -107.171s-32.4443 163.729 53.9385 273.7c2.3125 2.93359 4.38867 5.88281 6.78711 8.80859l12.5449 14.7158l270.451 312.113
l8.50977 9.83105l-15.8564 66.8379l94.1621 31.6104l64.2109 -337.604l203.354 238.433c29.3525 34.418 67.4824 59.5791 108.043 72.5488c14.9355 4.77441 30.1865 7.88086 45.4688 9.1709h200.538c119.96 0 225.817 -58.8711 202.969 -183.18
c-12.5137 -68.0498 -60.7109 -114.659 -126.142 -146.694c-30.8633 -15.1094 -86.0371 -30.5254 -122.925 -39.6328c-0.211914 -0.046875 -0.408203 -0.125977 -0.620117 -0.172852c0.345703 -0.0390625 38.3506 -14.833 76.1582 -4.89941zM409.297 277.218l5.89062 6.91211
l-58.5088 317.297l-1.6123 6.80371l-8.8252 -10.1543l-215.898 -248.444l-24.8535 -29.085l-20.748 -24.2715l-0.322266 -0.259766c-81.7822 -103.923 -64.6602 -182.7 -10.2725 -224.322c57.125 -43.707 137.113 -26.2227 229.403 81.4746l0.841797 0.983398
l32.2314 37.7139zM884.541 340.822c0 0 119.497 -21.3232 211.268 56.2041c32.1211 27.127 50.958 65.1318 59.9238 113.92c22.6436 123.2 -30.8945 170.084 -122.531 170.084h-86.1318z" />
    <glyph glyph-name="AL.liga" unicode="AL" horiz-adv-x="1254" 
d="M1203.88 218.684l9.62109 0.00195312l-39.8838 -217.008h-507.052l1.59668 8.70703h82.8906l124.781 678.921h-20.8428c-56.7393 -4.80566 -113.29 -34.583 -153.449 -81.6406l-204.25 -239.298l55.6621 -292.592c7.47168 -39.2939 40.3086 -65.2803 82.293 -65.1152
l-1.65137 -8.98242h-260.651l1.59668 8.70703h91.582l-40.0654 214.829l-9.04492 49.0469l-5.78125 -6.7793l-119.196 -139.725l-12.0654 -14.0869c-2.53223 -2.85547 -5.1748 -5.41992 -7.74707 -8.18848c-95.585 -102.939 -214.026 -151.208 -271.576 -107.171
s-32.4443 163.729 53.9385 273.7c2.3125 2.93359 4.38086 5.88281 6.78711 8.80859l12.5449 14.7158l270.459 312.113l8.50977 9.83105l-15.8564 66.8379l94.1543 31.6104l64.2109 -337.604l203.354 238.44c29.7773 34.9131 68.5215 59.9795 109.688 72.5479
c19.6074 5.98535 39.75 9.1709 59.7588 9.1709h184.871l-1.68359 -9.1709h-83.9531l-124.789 -678.929h104.646c115.044 0 235.452 93.2568 256.594 208.301zM409.299 277.218l5.89062 6.91211l-58.5088 317.297l-1.6123 6.80371l-8.8252 -10.1543l-215.898 -248.444
l-24.8535 -29.085l-20.748 -24.2715l-0.322266 -0.259766c-81.7822 -103.923 -64.6602 -182.7 -10.2725 -224.322c57.125 -43.707 137.113 -26.2227 229.403 81.4746l0.841797 0.983398l32.2314 37.7139z" />
    <glyph glyph-name="fh.liga" unicode="fh" horiz-adv-x="878" 
d="M750.761 10.7041l71.8027 -1.07617l-1.76953 -9.62695h-233.352l1.76953 9.62695l74.0977 -0.267578l59.4131 323.258c16.0293 87.2324 -9.44629 138.466 -88.0273 138.466c-44.666 0 -88.7812 -20.7324 -134.981 -64.3291l-73.0439 -397.396l73.1299 0.267578
l-1.76953 -9.62695h-234.5l1.76953 9.62695h74.1445l135.1 735.023c-30.4697 20.04 -64.1094 21.0547 -95.6641 21.0547c-67.8525 -1.06934 -116.608 -59.0908 -132.434 -145.215l-0.810547 -4.39648c-12.8359 -69.835 33.3721 -126.44 103.199 -126.44l-1.73828 -9.4541
h-126.44l-86.4932 -470.573h118.804l-1.76953 -9.62695h-280.228l1.76953 9.62695h75.207l86.4932 470.573h-75.207l1.68359 9.1709h155.439l-12.4424 18.0508c-69.1895 100.344 25.6797 258.237 160.04 265.528c3.44531 0.180664 6.02539 0.219727 8.66797 0.219727
c18.8838 0 39.6318 -1.49414 60.2383 -5.90625c37.1318 -7.94336 76.0488 -10.8691 116.004 -6.54297l13.9844 1.51758l-61.5371 -334.789c53.5693 47.9932 115.987 73.0752 179.207 73.0752c105.755 0 147.448 -69.7881 129.413 -167.906z" />
    <glyph glyph-name="fj.liga" unicode="fj" horiz-adv-x="564" 
d="M252.702 11.3545l-1.77051 -9.62695h-280.228l1.76953 9.62695h75.2148l86.4854 470.573h-75.207l1.68359 9.1709h155.439l-12.5684 18.2314c-70.9756 102.932 30.7529 264.797 167.552 265.567h1.28223c41.4648 0 91.9746 -7.09473 130.081 -36.6289l15.8086 -11.5693
l38.791 32.7666l56.4404 -69.1582l-81.8604 -69.1582l-56.4404 69.1582l30.249 25.5615l-5.77344 7.07031c-5.54492 6.7959 -11.5537 13.2295 -18.5303 18.5938c-32.208 24.7598 -68.5684 25.9004 -102.507 25.9004c-67.8525 -1.06934 -116.608 -59.0908 -132.433 -145.223
l-0.810547 -4.39648c-12.8359 -69.8271 33.3721 -126.44 103.199 -126.44l-1.73828 -9.44629h-126.44l-86.4932 -470.573h118.804zM390.468 481.936l1.73828 9.43848h161.338l-93.4062 -508.208c-25.2471 -137.365 -113.628 -185.351 -219.053 -195.166l-1.93457 7.35352
c70.7236 10.8779 110.741 62.4424 124.371 136.587l101.154 550.365z" />
    <glyph glyph-name="fb.liga" unicode="fb" horiz-adv-x="909" 
d="M876.768 259.625c-1.23438 -33.7568 -8.37891 -66.1689 -21.459 -97.2285c-13.0479 -31.0127 -27.8975 -59.6572 -52.2246 -85.8643c-24.3271 -26.2383 -46.2705 -48.1504 -79.1943 -65.666c-32.9082 -17.5156 -67.7354 -28.8652 -103.647 -28.8652
c-99.8877 0 -159.097 34.4648 -193.507 68.8359l-2.06836 -11.2627l-7.43262 -40.458c-43.0459 0.118164 -43.0459 0.118164 -86.0918 0.456055l137.177 746.325c-4.11328 2.39844 -8.28223 4.4668 -12.4824 6.25977c-11.1689 4.7666 -22.6045 7.55859 -34.0879 9.20215
c-14.7236 2.10742 -29.5176 2.33594 -43.8711 2.33594c-67.8525 -1.06934 -116.608 -59.0908 -132.433 -145.215l-0.810547 -4.39648c-12.8359 -69.835 33.3721 -126.44 103.199 -126.44l-1.73828 -9.4541h-126.44l-86.4932 -470.573h118.804l-1.76953 -9.62695h-280.228
l1.76953 9.62695h75.207l86.4932 470.573h-75.207l1.68359 9.1709h155.439l-10.0596 14.5898c-67.334 97.6543 18.5928 251.812 150.225 268.234c6.9209 0.857422 11.4043 0.975586 16.0996 0.975586c11.8291 0 24.3975 -0.582031 37.21 -2.09961
c37.7139 -4.46777 75.7891 -7.7002 114.58 -7.7002h33.9385l-60.1846 -327.427c11.1846 8.09277 22.7227 15.832 35.2832 22.5176c24.8936 13.2451 49.9043 21.4717 74.9473 27.8506c9.0918 2.3125 18.2314 4.30273 27.3311 5.3877
c32.0586 3.83008 62.1738 1.59668 90.3945 -6.70898c29.1641 -8.57324 55.418 -23.2021 78.7539 -43.8877c23.3438 -20.6855 41.6299 -47.3252 54.8672 -79.9102c13.2451 -32.6172 19.2617 -65.8008 18.0273 -99.5576zM809.188 142.749
c7.74707 27.457 10.6201 56.8252 8.62988 88.1289c-2.01367 31.3037 -9.44629 62.835 -22.3525 94.6182c-12.8984 31.752 -29.1641 58.5879 -48.7793 80.5156c-19.6162 21.9277 -41.0801 38.3428 -64.416 49.2598s-47.6865 16.0293 -73.0752 15.3135
c-8.1875 -0.228516 -16.21 -2.13184 -24.2793 -3.63379c-16.9023 -3.13867 -33.6162 -8.00684 -49.9443 -16.6982c-15.0068 -7.9834 -28.0869 -18.3105 -40.2705 -29.7383l-14.291 -77.7314l-38.9795 -212.061c18.3262 -56.3066 65.6191 -133.967 195.245 -133.967
c25.2705 0 50.1162 7.47168 74.2305 20.3076s44.5869 30.1396 61.4023 51.8867c16.8555 21.7393 29.1328 46.3418 36.8799 73.7988z" />
    <glyph glyph-name="fk.liga" unicode="fk" horiz-adv-x="965" 
d="M853.991 8.70703l62.7939 0.000976562l-1.60449 -8.70703h-243.159l1.60449 8.70703h74.8682l-126.983 321.166l-110.089 -113.432l-0.495117 -2.71387l-9.24902 -50.3369l-28.2598 -153.764h72.0137l-1.76953 -9.62695h-232.282l1.76953 9.62695h74.1445
l128.697 700.251l2.74512 14.9434l5.19141 28.2285h-3.0127c-35.4404 0 -70.2441 2.99707 -104.222 8.54199c-13.9609 2.27344 -28.3145 4.11426 -37.8154 4.11426c-67.8525 -1.06934 -116.608 -59.0908 -132.434 -145.215l-0.810547 -4.39648
c-12.8359 -69.835 33.3721 -126.44 103.199 -126.44l-1.73828 -9.4541h-126.44l-86.4932 -470.573h118.804l-1.76953 -9.62695h-280.228l1.76953 9.62695h75.207l86.4932 470.573h-75.207l1.68359 9.1709h155.439l-12.5684 18.2314
c-70.9756 102.932 30.7529 264.797 167.552 265.567h1.28223c12.4658 0 25.75 -0.652344 39.2705 -2.36719c45.0674 -5.71777 90.9844 -8.57324 137.46 -8.56543l62.4023 0.0078125l-94.7041 -515.247l167.189 172.719c23.7607 24.5469 12.8828 60.4902 -18.3184 60.4902
l1.68359 9.1709h187.537l-1.68359 -9.1709h-86.0449l-143.634 -148.007h91.8652z" />
    <glyph glyph-name="fi.liga" unicode="fi" horiz-adv-x="594" 
d="M392.393 489.653l161.433 -0.000976562l-88.2314 -480.026h73.0752l-1.76953 -9.62695h-234.5l1.76953 9.62695h74.1367l86.4932 470.573h-74.1445zM220.665 480.198l-86.4951 -470.574h118.804l-1.76953 -9.62695h-280.228l1.76953 9.62695h75.207l86.4932 470.573
h-75.207l1.68359 9.1709h155.439l-12.5684 18.2314c-70.9756 102.932 30.7529 264.797 167.552 265.567h1.28223c41.4648 0 91.9668 -7.09473 130.081 -36.6279l16.6738 -12.1992l39.5303 33.3955l56.4404 -69.1582l-81.8604 -69.1582l-56.4482 69.1582l29.3057 24.7598
l-6.43359 7.87305c-5.53711 6.7959 -11.5459 13.2295 -18.5225 18.5938c-32.208 24.7598 -68.5684 25.9004 -102.507 25.9004c-67.8525 -1.06934 -116.608 -59.0908 -132.433 -145.223l-0.810547 -4.39648c-12.8359 -69.8271 33.3721 -126.44 103.199 -126.44
l-1.73828 -9.44629h-126.44z" />
    <glyph glyph-name="fl.liga" unicode="fl" horiz-adv-x="602" 
d="M472.821 9.62695l74.1191 -0.0390625l-1.76172 -9.58008h-234.413l1.76953 9.62695h74.1445l136.642 743.415h-23.4307c-16.8477 0.558594 -33.4902 1.98242 -49.9912 3.9248c-11.1367 1.31348 -22.2188 2.82324 -33.2061 4.61621
c-13.9609 2.27344 -28.3145 4.11426 -37.8154 4.11426c-67.8525 -1.06934 -116.608 -59.0908 -132.434 -145.215l-0.810547 -4.39648c-12.8359 -69.835 33.3721 -126.44 103.199 -126.44l-1.73828 -9.4541h-126.44l-86.4932 -470.573h118.804l-1.76953 -9.62695h-280.228
l1.76953 9.62695h75.207l86.4932 470.573h-75.207l1.68359 9.1709h155.439l-12.5684 18.2314c-70.9756 102.932 30.7529 264.797 167.552 265.567h1.28223c12.4746 0 25.751 -0.652344 39.2715 -2.36719c29.6201 -3.75977 59.4287 -7.27539 89.7021 -8.55762h109.562z" />
    <glyph glyph-name=".notdef" horiz-adv-x="527" 
d="M50 700h427v-700h-427v700zM78 680l185 -309l186 309h-371zM251 350l-180 300v-601zM264 329l-185 -308h370zM276 350l181 -303v605z" />
    <glyph glyph-name=".null" horiz-adv-x="0" 
 />
    <glyph glyph-name=".null" horiz-adv-x="0" 
 />
    <glyph glyph-name="controlLF" unicode="&#xa;" horiz-adv-x="0" 
 />
    <glyph glyph-name="controlCR" unicode="&#xd;" horiz-adv-x="0" 
 />
    <glyph glyph-name="space" unicode=" " horiz-adv-x="357" 
 />
    <glyph glyph-name="exclam" unicode="!" horiz-adv-x="239" 
d="M252.008 725.267l-158.813 -547.659h-10.7676l60.9395 547.659h108.642zM-19.5293 36.6953l94.7988 78.8955l62.9844 -78.8955l-94.7988 -78.8877z" />
    <glyph glyph-name="quotedbl" unicode="&#x22;" horiz-adv-x="324" 
d="M91.2451 457.379l-3.02051 267.888h117.238l-106.738 -267.888h-7.47949zM257.121 725.267h117.31l-106.738 -267.888h-7.55078z" />
    <glyph glyph-name="numbersign" unicode="#" horiz-adv-x="613" 
d="M596.198 426.188h-144.16l-80.6416 -213.083h144.152l-5.63184 -17.2012h-145.207l-83.6465 -222.726h-17.2637l83.709 222.726h-187.215l-83.709 -222.726h-17.2012l83.6465 222.726h-144.152l6.68555 17.2012h144.152l80.6494 213.083h-144.152l6.68555 17.2012
h144.152l81.5068 217.346h17.2012l-81.4355 -217.346h187.215l81.4355 217.346h17.2012l-81.4434 -217.346h144.152zM354.195 213.113l80.5781 213.083h-187.215l-80.5781 -213.083h187.215z" />
    <glyph glyph-name="dollar" unicode="$" horiz-adv-x="513" 
d="M337.802 681.437c65.4385 0 106.762 -14.1562 151.404 -52.334l-23.2656 -115.374h-9.28125c15.8008 78.3447 -32.043 143.72 -109.507 147.652c-5.78125 0.291016 -11.6719 0.44043 -17.6494 0.44043c-0.306641 0 -0.582031 -0.0234375 -0.880859 -0.0234375
l-56.1572 -278.466c89.1357 -44.7686 188.591 -91.3457 160.693 -229.679c-24.0283 -119.173 -122.847 -180.38 -245.236 -189.59l-23.5322 -116.703h-13.4805l23.375 115.894c-6.46484 -0.283203 -12.9531 -0.463867 -19.5283 -0.463867
c-76.3633 0 -119.307 14.2041 -163.957 52.3418l26.4111 131.002h9.84766c-17.5869 -87.209 35.5264 -161.181 122.232 -163.548c4.14453 -0.118164 8.36816 -0.172852 12.6621 -0.172852c5.54492 0 10.9248 0.196289 16.2734 0.432617l60.8838 301.959
c-88.8447 45.5 -189.023 89.1436 -162.644 219.98c22.7695 112.92 124.01 170.689 242.53 176.18l19.7891 98.126h13.4805l-19.7021 -97.7324c1.74609 0.0234375 3.48438 0.078125 5.23828 0.078125zM358.936 120.935c16.7998 83.2764 -40.1514 122.185 -107.611 157.555
l-59.4287 -294.7c90.9053 7.81055 149.949 52.3906 167.04 137.146zM260.236 389.514l54.8203 271.892c-89.1748 -4.16895 -150.02 -47.1992 -165.05 -121.722c-15.998 -79.3594 42.1172 -115.461 110.229 -150.17z" />
    <glyph glyph-name="percent" unicode="%" horiz-adv-x="768" 
d="M644.94 736.029l18.6797 -8.59668l-538.276 -828.493l-15.4707 8.60449zM685.604 218.359c8.58887 -15.8721 13.2773 -33.4434 13.9775 -52.1777c0.644531 -18.7822 -2.63477 -38.6416 -9.76074 -59.0205c-7.13379 -20.4258 -18.6484 -40.7568 -34.2373 -60.4434
c-15.5889 -19.6787 -33.0732 -36.0068 -52.0205 -48.5205s-38.4922 -21.4795 -58.1084 -26.6787c-13.0322 -3.4209 -26.0098 -5.14355 -38.8145 -5.14355c-6.54395 0 -13.0322 0.448242 -19.4268 1.34473c-19.0811 2.63477 -36.7617 9.34375 -52.5869 19.9307
c-15.793 10.5791 -28.1494 24.0049 -36.7695 39.8926c-8.57324 15.8008 -13.2607 33.3555 -13.9297 52.1533c-0.676758 18.7666 2.60254 38.626 9.72852 59.0361c7.12598 20.4258 18.6484 40.7568 34.2607 60.459c15.5576 19.6553 33.042 35.9756 51.9893 48.5049
c18.916 12.498 38.4844 21.4639 58.1318 26.6631c19.5684 5.14355 39.1846 6.41797 58.2422 3.82227c19.0498 -2.63477 36.7227 -9.35938 52.5469 -19.9619c15.8008 -10.5625 28.1963 -23.9727 36.7773 -39.8604zM576.719 278.613
c-0.589844 0 -1.1875 -0.110352 -1.77734 -0.125977c2.47754 0.03125 4.94727 -0.157227 7.41699 -0.259766c-1.87988 0.0791016 -3.74414 0.385742 -5.63965 0.385742zM675.285 177.947c1.69922 16.501 -0.000976562 31.4756 -5.07422 44.5156
c-5.07324 13.0645 -13.4736 23.5645 -24.957 31.2568s-24.9326 11.8213 -39.9941 12.2539c-0.888672 0.0234375 -1.78516 0.0390625 -2.68164 0.0390625c-14.3066 0 -29.3916 -3.10645 -44.9492 -9.28027c-16.5244 -6.54395 -33.4658 -16.5488 -50.376 -29.7461
c-16.8555 -13.1982 -33.1045 -29.5654 -48.2295 -48.6699c-15.0459 -19.0176 -27.0088 -38.2402 -35.543 -57.1562c-8.46289 -18.8604 -13.6143 -36.7617 -15.3135 -53.2314c-1.69922 -16.5088 0 -31.4844 5.08105 -44.4932
c5.0498 -13.04 13.4424 -23.5557 24.9492 -31.2871c11.4912 -7.67676 24.9639 -11.8057 40.002 -12.2227c0.952148 -0.03125 1.9043 -0.046875 2.83203 -0.046875c14.2197 0 29.25 3.11426 44.7998 9.25684c16.627 6.62988 33.5918 16.6426 50.376 29.7617
c16.8867 13.1895 33.1045 29.5723 48.2295 48.6768c15.1172 19.0889 27.0723 38.3115 35.5352 57.1406c8.42383 18.7744 13.5674 36.6758 15.3135 53.2324zM179.937 358.381c-6.55176 0 -13.0381 0.448242 -19.4248 1.35254
c-19.0811 2.63477 -36.7617 9.34375 -52.5859 19.9307c-15.793 10.5791 -28.1572 24.0049 -36.7695 39.8926c-8.57324 15.8008 -13.2607 33.3555 -13.9297 52.1533c-0.676758 18.7666 2.60254 38.626 9.72852 59.0361c7.13379 20.4258 18.6484 40.7646 34.2686 60.459
c15.5498 19.6553 33.0342 35.9756 51.9893 48.5049c18.9238 12.498 38.4844 21.4639 58.1318 26.6631c19.5762 5.14355 39.1836 6.41797 58.2412 3.82227c19.0576 -2.64258 36.7305 -9.35938 52.5547 -19.9619c15.8008 -10.5547 28.1885 -23.9727 36.7773 -39.8604
c8.58105 -15.8721 13.2686 -33.4424 13.9531 -52.1855c0.636719 -18.7822 -2.64355 -38.6416 -9.76172 -59.0205c-7.13379 -20.4258 -18.6562 -40.7568 -34.2373 -60.4434c-15.5889 -19.6787 -33.0732 -36.0068 -52.0205 -48.5205s-38.4844 -21.4795 -58.1006 -26.6787
c-13.0322 -3.4209 -26.0098 -5.14355 -38.8145 -5.14355zM250.025 670.628c-0.589844 0 -1.19531 -0.110352 -1.78516 -0.125977c2.48535 0.03125 4.95508 -0.157227 7.4248 -0.259766c-1.8877 0.0791016 -3.75195 0.385742 -5.63965 0.385742zM151.498 371.933
c0.952148 -0.0234375 1.90234 -0.0410156 2.82227 -0.0410156c14.2285 0 29.251 3.11426 44.8008 9.25684c16.6348 6.62988 33.5996 16.6426 50.3838 29.7617c16.8867 13.1895 33.1123 29.5723 48.2295 48.6768c15.125 19.0889 27.0801 38.3115 35.543 57.1406
c8.41602 18.7744 13.5596 36.6758 15.3057 53.2324c1.70703 16.4932 0.0078125 31.4766 -5.07324 44.5088c-5.07324 13.0645 -13.4736 23.5645 -24.957 31.2568s-24.9326 11.8213 -39.9941 12.2539c-0.896484 0.03125 -1.79297 0.046875 -2.68945 0.046875
c-14.3066 0 -29.3916 -3.11426 -44.9492 -9.28027c-16.5244 -6.55176 -33.4658 -16.5566 -50.376 -29.7539c-16.8555 -13.1973 -33.1045 -29.5645 -48.2217 -48.6689c-15.0537 -19.0176 -27.0088 -38.2402 -35.543 -57.1562
c-8.4707 -18.8604 -13.6143 -36.7617 -15.3135 -53.2314c-1.70703 -16.5088 0 -31.4844 5.08105 -44.4932c5.0498 -13.04 13.4424 -23.5557 24.9492 -31.2871c11.4912 -7.67676 24.9639 -11.8057 40.002 -12.2227z" />
    <glyph glyph-name="ampersand" unicode="&#x26;" horiz-adv-x="707" 
d="M645.707 152.678h-82.0859c-37.0137 -0.479492 -75.3486 -14.4248 -107.627 -38.6338l76.292 -123.656h60.2627l-3.46875 -17.2012h-152.749l-43.7695 71.0225c-60.3496 -53.8291 -133.795 -81.79 -217.692 -81.79c-125.897 0 -198.029 85.0146 -176.337 192.603
c19.749 97.9453 98.1963 172.185 204.738 204.416c-25.0586 57.0459 -29.7461 97.9365 -20.8506 142.052c20.1738 100.037 106.36 170.014 251.63 170.014c61.3086 0 80.3975 -8.59668 128.146 -38.7285l-24.0049 -119.055h-7.95215l20.3154 100.737
c-33.5215 25.7979 -65.7529 36.5654 -115.248 36.5654c-89.3408 0 -147.512 -53.7588 -160.961 -120.455c-12.8047 -63.4717 -2.52539 -114.084 61.2217 -219.509l109.185 -178.618l0.220703 -0.370117c7.47949 8.42383 15.3916 16.5488 23.8623 24.2256
c54.5996 49.4951 124.262 77.9043 191.147 77.9043h2.16309zM251.374 16.2568c39.7822 0 87.1143 10.7656 130.688 45.1523l-124.49 199.099c-19.3008 32.2314 -35.1885 60.2002 -47.4658 84.9443c-54.2383 -39.7744 -89.4033 -91.4404 -103.065 -159.183
c-20.1816 -100.1 32.4131 -170.013 144.334 -170.013z" />
    <glyph glyph-name="quotesingle" unicode="'" horiz-adv-x="187" 
d="M104.221 726.383h117.238l-106.746 -267.958h-7.4873z" />
    <glyph glyph-name="parenleft" unicode="(" horiz-adv-x="474" 
d="M413.334 695.135c-137.357 -51.5957 -245.88 -210.843 -291.002 -434.63c-43.4004 -215.246 -2.13184 -367.995 116.781 -429.375l-5.84375 -7.47949c-161.708 40.8984 -246.4 223.779 -203.221 437.908c44.6895 221.609 200.113 400.228 380.689 442.173z" />
    <glyph glyph-name="parenright" unicode=")" horiz-adv-x="505" 
d="M239.391 703.739c161.559 -41.9531 248.823 -217.284 203.905 -440.01c-46.208 -229.159 -212.375 -402.46 -381.814 -442.242l-1.47852 8.60449c124.883 53.8213 240.005 187.215 289.469 432.521c49.4717 245.314 -10.3271 386.313 -115.028 432.529z" />
    <glyph glyph-name="asterisk" unicode="*" horiz-adv-x="339" 
d="M359.896 586.493l-142.267 -1.0459l96.9463 -85.0068l-84.0469 -53.8291l-17.8301 135.556l-73.6104 -135.556l-63.6133 52.7119l131.388 86.124h-140.936l45.5312 87.1064l98.4326 -82.8359l-14.6133 135.548h90.3945l-69.2842 -135.548l131.781 82.8359z" />
    <glyph glyph-name="plus" unicode="+" horiz-adv-x="458" 
d="M232.761 320.701h203.361l-3.46875 -17.2012h-203.361l-42.0947 -208.741h-17.2012l42.0947 208.741h-203.361l3.46875 17.2012h203.361l42.0947 208.749h17.1934z" />
    <glyph glyph-name="comma" unicode="," horiz-adv-x="196" 
d="M117.126 44.5635c0 0 -79.7607 -160.34 -176.054 -205.564l-2.13184 5.37988c45.3193 31.9404 71.1875 61.0732 82.71 91.0869c6.34766 16.5479 4.42871 33.5283 -5.07227 45.4287l-50.8252 63.6611l94.791 78.8955z" />
    <glyph glyph-name="hyphen" unicode="-" horiz-adv-x="367" 
d="M-6.24121 234.646h337.872l-3.46875 -17.1934h-337.872z" />
    <glyph glyph-name="period" unicode="." horiz-adv-x="199" 
d="M58.2617 115.59l62.9844 -78.8955l-94.7988 -78.8877l-62.9766 78.8877z" />
    <glyph glyph-name="slash" unicode="/" horiz-adv-x="243" 
d="M255.018 660.74h17.2637l-302.234 -687.549h-17.1934z" />
    <glyph glyph-name="zero" unicode="0" horiz-adv-x="783" 
d="M717.329 573.058c20.2998 -36.4004 31.6338 -76.1191 33.9463 -119.173c2.25684 -43.0615 -4.34961 -88.0107 -19.8594 -134.84s-40.7725 -92.8564 -75.7412 -138.058c-35 -45.2402 -73.9639 -82.1982 -116.884 -110.891
c-42.9199 -28.6846 -86.7998 -48.9766 -131.592 -60.9004c-44.8076 -11.8604 -89.1436 -14.7939 -132.897 -8.70605c-43.8164 6.07227 -84.1328 21.2363 -120.863 45.54c-36.7227 24.2959 -65.2578 54.6943 -85.6133 91.0869
c-20.3867 36.3604 -31.6572 76.0869 -33.9463 119.109c-2.28906 43.085 4.3252 88.0342 19.835 134.863c15.502 46.8291 40.7646 92.8564 75.7646 138.097c34.9688 45.2012 73.9326 82.1592 116.853 110.852c42.9277 28.6924 86.8076 48.9844 131.631 60.8848
c44.7686 11.8838 89.0498 14.8096 132.883 8.76172c43.8164 -6.07227 84.1094 -21.2676 120.84 -45.5713s65.2891 -54.6631 85.6445 -91.0557zM664.286 358.929c18.751 43.4238 29.707 84.1816 32.9863 122.257c3.25586 38.083 -1.23535 72.21 -13.4971 102.404
c-12.2852 30.1475 -31.8379 54.1279 -58.7441 71.9346s-57.7852 27.1973 -92.5889 28.2041c-34.8584 0.991211 -71.2266 -6.0957 -109.16 -21.2441c-37.9336 -15.1406 -76.0879 -37.9102 -114.47 -68.333c-38.3896 -30.4229 -74.6406 -67.6406 -108.721 -111.686
c-34.1113 -44.084 -60.5068 -87.8223 -79.25 -131.246c-18.751 -43.4238 -29.7383 -84.1572 -32.9941 -122.248s1.23535 -72.2178 13.5205 -102.373c12.2305 -30.1709 31.8145 -54.168 58.7207 -71.9746s57.7539 -27.1816 92.6123 -28.1729
c34.835 -1.02246 71.2031 6.06445 109.145 21.2129c37.8945 15.1641 76.0801 37.9023 114.462 68.333c38.3975 30.4229 74.6406 67.6406 108.752 111.725c34.0801 44.0449 60.4834 87.7832 79.2266 131.207z" />
    <glyph glyph-name="one" unicode="1" horiz-adv-x="330" 
d="M285.017 700.111l-125.748 -684.167h82.3086l-1.76953 -9.66602h-270.483l1.77734 9.66602h98.3535l117.49 639.226l-105.551 -27.7881l3.14648 17.0908z" />
    <glyph glyph-name="two" unicode="2" horiz-adv-x="578" 
d="M508.504 225.11l-38.4521 -209.165l-1.90332 -10.3584h-464.823l9.68945 52.7119c219.635 152.812 386.88 307.732 416.744 470.203c18.5928 101.154 -23.6279 158.2 -114.022 158.2c-12.4111 0 -24.8691 -0.975586 -37.2334 -2.80859
c-19.1514 -2.83887 -38.3262 -10.5469 -54.6621 -23.1387c-0.0869141 -0.0625 -0.181641 -0.132812 -0.268555 -0.203125c-36.8721 -28.5273 -62.8818 -69.4102 -71.2744 -112.095l-15.085 -82.0732h-81.5225l0.401367 2.16309
c11.5068 62.6377 47.4668 122.681 99.3691 166.702c3.52344 2.98828 7.11035 5.90625 10.7754 8.7373c49.165 38.0518 107.406 59.3193 164.13 59.9092c0.102539 0 0.212891 0.0078125 0.323242 0.0078125h0.0791016c0.220703 0 0.432617 -0.0234375 0.652344 -0.0234375
c141.998 -0.542969 222.789 -66.1465 199.744 -191.525c-31.4453 -171.067 -292.443 -349.032 -513.188 -496.465l199.972 0.0234375l0.0078125 0.03125h23.2178c115.523 0 236.427 93.6426 257.663 209.166h9.66602z" />
    <glyph glyph-name="three" unicode="3" horiz-adv-x="582" 
d="M332.744 366.03c117.238 -11.8135 190.232 -82.8428 170.648 -189.36c-20.9531 -114.021 -130.247 -181.835 -288.376 -181.835c-0.865234 0 -1.69141 0.0234375 -2.55664 0.03125c-0.298828 0 -0.589844 -0.03125 -0.888672 -0.03125h-0.0791016
c-0.841797 0.0078125 -1.67578 0.0625 -2.52539 0.078125c-55.6064 1.11719 -105.181 22.2822 -139.897 59.8389c-6.48828 7.00781 -12.293 14.543 -17.5469 22.4395c-28.1963 42.3779 -38.4756 96.6162 -28.1094 152.994l0.401367 2.16309h81.5225l-15.085 -82.0732
c-7.29883 -42.6924 3.68066 -83.5674 30.0684 -112.095l0.133789 -0.141602c8.14844 -8.76953 19.002 -14.8174 31.0986 -18.1289c18.5068 -5.06543 38.0674 -7.81836 58.0371 -7.81836c17.665 0 34.1895 1.9502 49.6523 5.56836
c0.904297 -0.149414 1.83203 0.0625 2.69727 0.557617c71.5254 17.8379 118.409 74.3486 134.855 163.823c22.3447 121.58 -34.9141 178.618 -156.557 166.805l3.35059 18.2471c113.644 15.0928 185.044 69.9756 204.228 174.347
c17.3975 94.6572 -21.7471 145.27 -105.637 145.27c-68.6074 0 -162.423 -49.3779 -178.932 -139.206l-15.085 -82.0732h-81.5225l0.401367 2.16309c11.79 64.1094 49.2129 125.458 103.105 169.731c2.32812 1.91895 4.64062 3.85352 7.03906 5.70215
c42.8887 33.1836 92.667 53.5938 142.319 58.667c0.527344 0.0546875 1.03906 0.109375 1.56641 0.15625c3.87012 0.370117 7.73145 0.62207 11.6016 0.810547c10.7197 0.739258 21.6445 1.24219 33.0879 1.24219c134.502 0 207.263 -54.8828 189.26 -152.82
c-16.6113 -90.3945 -98.1885 -153.874 -222.277 -185.052z" />
    <glyph glyph-name="four" unicode="4" horiz-adv-x="557" 
d="M496.815 698.515l-81.0889 -441.118h92.4941l-12.2695 -66.7598h-92.4941l-34.0088 -185.052h-91.4404l34.0244 185.044h-323.888l2.375 12.9307l485.815 494.955h20.4805zM324.294 257.389l59.916 325.987l-318.153 -325.987h258.237z" />
    <glyph glyph-name="five" unicode="5" horiz-adv-x="572" 
d="M318.439 430.627c136.61 0 201.586 -91.5107 178.628 -216.292c-27.4805 -149.532 -159.749 -219.509 -294.251 -219.509c-1.1875 0 -2.30469 0.03125 -3.48438 0.0390625c-0.370117 0 -0.740234 -0.0390625 -1.10156 -0.0390625h-0.0791016
c-0.959961 0.0078125 -1.90332 0.0703125 -2.85547 0.09375c-55.4805 1.19531 -104.921 22.3525 -139.575 59.8301c-5.80469 6.27637 -11.0586 13.0088 -15.8643 20.0713c-29.376 43.1875 -39.9551 100.045 -29.3926 157.531h81.5225l-15.085 -82.0732
c-7.29883 -42.6924 3.68066 -83.5674 30.0684 -112.095c0.046875 -0.046875 0.0859375 -0.0859375 0.125 -0.132812c7.49512 -8.06934 17.3975 -13.7168 28.4482 -16.9336c20.1816 -5.875 41.7715 -9.0293 63.9434 -9.0293c92.5576 0 164.343 56.9834 185.901 174.284
c20.5596 111.851 -23.0371 173.23 -130.625 173.23c-47.3242 0 -88.2393 -11.8838 -128.957 -34.4648l-15.8086 7.55078l115.24 365.723h339.861l-40.0498 -217.912h-9.6582c20.1895 109.821 -56.999 199.807 -163.91 208.427h-111.261l-96.7646 -308.912
c45.5234 31.248 113.612 50.6123 174.984 50.6123z" />
    <glyph glyph-name="six" unicode="6" horiz-adv-x="591" 
d="M524.474 642.216c41.292 -44.6113 57.9492 -108.547 45.6562 -175.433l-0.401367 -2.16309h-81.5225l15.085 82.0732c7.29883 42.6846 -3.68066 83.5596 -30.0684 112.087c-0.306641 0.330078 -0.613281 0.660156 -0.919922 0.982422
c-16.4062 17.3115 -40.1826 26.8916 -66.3184 26.9385h-0.34668c-116.185 0 -198.902 -87.1699 -250.568 -338.981c36.8643 36.6279 90.1904 63.543 160.167 63.543c126.951 0 198.359 -91.5029 177.21 -206.578c-21.7549 -118.363 -133.299 -209.866 -268.854 -209.866
c-131.223 0 -222.781 98.9912 -179.672 333.538c40.8594 222.316 159.844 344.729 304.099 370.378l0.0078125 0.0546875c0.888672 0.133789 1.78516 0.251953 2.67383 0.385742c10.4297 1.54199 20.875 2.87109 31.2725 2.96582h0.0791016
c52.5391 -0.479492 99.8086 -18.8525 134.518 -51.9414c2.70605 -2.58008 5.35645 -5.22266 7.9043 -7.9834zM285.726 385.395c-50.6123 0 -99.7305 -21.5273 -133.826 -54.8838l-3.16211 -17.2012c-41.7168 -226.996 -9.08398 -301.235 78.0225 -301.235
c86.1318 0 136.595 69.9131 156.958 180.718c24.5234 133.456 -14.0947 192.603 -97.9922 192.603z" />
    <glyph glyph-name="seven" unicode="7" horiz-adv-x="483" 
d="M348.703 698.404l170.703 -0.0546875l-10.8535 -59.0439l-335.921 -633.72h-117.309l455.165 683.176l-205.1 0.0546875c-109.633 -9.24902 -219.076 -98.959 -239.18 -208.324h-9.6582l38.3037 208.388l1.75391 9.52441h252.095z" />
    <glyph glyph-name="eight" unicode="8" horiz-adv-x="568" 
d="M338.289 357.434c110.002 -16.1475 168.836 -88.2236 150.824 -186.169c-18.9785 -103.254 -142.187 -176.447 -270.192 -176.447c-129.114 0 -224.369 73.1934 -205.391 176.447c18.0029 97.9453 103.395 170.021 219.335 186.169
c-95.8291 17.2012 -150.335 83.8975 -134.707 168.904c18.3965 100.107 124.144 177.563 251.095 177.563s204.155 -77.4561 185.759 -177.563c-15.6201 -85.0146 -94.5703 -151.703 -196.723 -168.904zM203.648 526.33c-15.6279 -85.0068 1.72266 -160.3 83.5049 -160.3
c81.7266 0 126.81 75.293 142.438 160.3c15.833 86.1318 -6.03223 160.371 -83.4961 160.371c-77.4561 0 -126.613 -74.2471 -142.446 -160.371zM222.101 12.082c82.8438 0 144.073 69.9131 160.479 159.183c17.9951 97.9375 -7.14941 177.564 -98.5898 177.564
c-91.5029 0 -145.914 -79.627 -163.917 -177.564c-16.4062 -89.2695 18.0664 -159.183 102.027 -159.183z" />
    <glyph glyph-name="nine" unicode="9" horiz-adv-x="589" 
d="M366.288 702.141c130.971 0 222.354 -98.8037 179.332 -332.895c-40.7812 -221.892 -159.537 -344.077 -303.517 -369.67l-0.0078125 -0.0546875c-0.888672 -0.133789 -1.77734 -0.251953 -2.66602 -0.385742c-10.4131 -1.54199 -20.8428 -2.86328 -31.2168 -2.95801
h-0.0791016c-52.4375 0.47168 -99.6123 18.8135 -134.259 51.8389c-2.69727 2.57227 -5.33984 5.21484 -7.8877 7.96777c-41.2139 44.5244 -57.8408 108.335 -45.5713 175.095l0.393555 2.16309h81.3652l-15.0537 -81.916
c-7.2832 -42.6055 3.68066 -83.4023 30.0137 -111.874c0.306641 -0.330078 0.613281 -0.660156 0.919922 -0.982422c16.375 -17.2793 40.1045 -26.8438 66.1934 -26.8906h0.34668c115.964 0 198.517 87.0127 250.089 338.336
c-36.8008 -36.5576 -90.0166 -63.417 -159.859 -63.417c-126.708 0 -197.982 91.3301 -176.872 206.186c21.7158 118.127 133.039 209.457 268.336 209.457zM437.844 367.083l3.14551 17.1621c41.6465 226.563 9.06934 300.661 -77.8721 300.661
c-85.958 0 -136.326 -69.7793 -156.649 -180.371c-24.4766 -133.196 14.0703 -192.225 97.8027 -192.225c50.5176 0 99.541 21.4873 133.573 54.7725z" />
    <glyph glyph-name="colon" unicode=":" horiz-adv-x="227" 
d="M196.04 353.031l-94.7988 -78.8877l-62.9766 78.8877l94.791 78.8955zM-25.5293 36.6943l94.7988 78.8955l62.9766 -78.8955l-94.791 -78.8877z" />
    <glyph glyph-name="semicolon" unicode=";" horiz-adv-x="227" 
d="M194.644 353.031l-94.791 -78.8877l-62.9766 78.8877l94.7988 78.8955zM-23.7168 36.6943l94.79 78.9023l56.582 -78.8877s-79.7607 -160.339 -176.054 -205.563l-2.13184 5.37988c45.3271 31.9404 71.1875 61.0654 82.71 91.0791
c6.34766 16.5479 4.42871 33.5283 -5.07227 45.4287z" />
    <glyph glyph-name="less" unicode="&#x3c;" horiz-adv-x="467" 
d="M464.995 491.831l-3.68945 -18.3105l-432.852 -172.185l363.426 -172.121l-3.69629 -18.3105l-378.66 181.835l3.69629 18.3105z" />
    <glyph glyph-name="equal" unicode="=" horiz-adv-x="485" 
d="M-0.121094 195.912l3.46875 17.2012h423.925l-3.46875 -17.2012h-423.925zM46.7402 428.288h423.925l-3.46875 -17.1934h-423.925z" />
    <glyph glyph-name="greater" unicode="&#x3e;" horiz-adv-x="468" 
d="M62.251 491.831l378.811 -180.781l-3.68848 -18.3105l-451.933 -181.835l3.68848 18.3105l432.772 172.121l-363.339 172.185z" />
    <glyph glyph-name="question" unicode="?" horiz-adv-x="512" 
d="M106 36.6943l94.791 78.8955l62.9844 -78.8955l-94.7988 -78.8877zM326.225 734.979c142.053 0 213.382 -78.5742 191.682 -186.162c-12.0732 -59.8613 -48.6777 -105.817 -102.082 -142.642c-80.7197 -55.6543 -148.376 -129.391 -190.816 -214.774l-6.8584 -13.7959
h-9.71387l-7.43262 127.4c141.416 61.3164 190.62 135.17 212.753 244.929c22.998 114.021 -17.8145 167.851 -101.768 167.851c-69.9053 0 -129.012 -10.2246 -175.33 -47.8359l2.29688 16.5879c50.5889 26.915 103.372 48.4424 187.27 48.4424z" />
    <glyph glyph-name="at" unicode="@" horiz-adv-x="833" 
d="M775.527 425.622c10.3662 -48.5674 11.0723 -100.388 2.10645 -153.98v-0.015625s-1.85645 -10.6104 -2.91797 -15.8564c-11.1523 -55.3154 -41.252 -107.257 -84.7695 -146.244c-34.3076 -30.7529 -73.7754 -50.5576 -113.707 -57.5811
c-10.7119 -1.87988 -21.4639 -2.90234 -32.1523 -2.90234l-50.0537 -0.211914h-65.0605l29.9824 148.699l-73.6104 -71.3604c-1.16406 -1.07715 -2.35938 -2.10742 -3.54688 -3.09082c-0.700195 -0.621094 -1.4082 -1.23438 -2.1084 -1.85547
c-53.1367 -47.4824 -114.603 -75.1602 -160.275 -75.1602c-15.4395 0 -29.0938 3.16992 -39.9873 9.7998c-15.3291 9.38281 -23.627 24.9951 -24.0127 45.1299c-0.613281 34.5127 22.1875 79.5645 60.9316 120.581c0.68457 0.739258 1.36914 1.48633 2.00586 2.18652
c0.959961 1.06934 1.90332 2.09961 2.94141 3.16895l9.07617 8.85645l250.403 240.996c-14.0869 17.6885 -35.9756 28.2832 -67.043 28.2832c-64.0146 0 -148.345 -38.4844 -148.345 -38.4844l1.22656 6.07227c56.0703 27.3076 104.229 40.4424 155.824 40.4424
c124.411 0 170.068 -54.5996 148.849 -159.819l-59.5869 -295.502l30.1475 -0.196289c46.9941 -0.306641 96.5762 16.8154 136.626 50.0146c2.58789 2.13965 5.14453 4.34961 7.67676 6.61523c42.1025 37.7295 71.2354 88.0039 82.0342 141.558
c1.05371 5.20703 2.8623 15.5889 2.8623 15.5889c16.9258 101.649 -4.43555 187.514 -61.7803 248.288c-27.0166 28.6211 -61.2461 50.8086 -101.76 65.9336c-40.4268 15.085 -85.9893 22.7373 -135.445 22.7373s-98.1104 -7.65234 -144.617 -22.7373
c-46.5928 -15.125 -89.7803 -37.3047 -128.351 -65.9336c-81.8135 -60.751 -137.806 -146.575 -161.889 -248.201c0 0 -2.39062 -10.4688 -3.44434 -15.6836c-1.05371 -5.23047 -2.02148 -10.4766 -2.87109 -15.6123c-16.9336 -101.673 4.42773 -187.537 61.7725 -248.312
c27.0244 -28.6289 61.2539 -50.8086 101.76 -65.9336c40.4111 -15.085 85.9902 -22.7373 135.446 -22.7373h3.27148l-11.6328 -57.6592h-3.27148c-97.3467 0 -181.284 40.8594 -236.356 115.052c-26.7656 36.0693 -45.4375 78.2188 -55.4658 125.284
c-10.3662 48.5674 -11.0898 100.375 -2.13184 154.008c0.880859 5.26172 1.86426 10.6025 2.93359 15.9033c1.06152 5.25391 2.20996 10.5 3.44434 15.7383c12.7021 53.7588 34.3154 105.574 64.2734 154.134c29.0146 47.0654 64.6914 89.2148 105.999 125.284
c84.5742 73.8301 184.524 114.682 281.447 115.043h2.63477c96.7734 -0.361328 180.254 -41.2207 235.035 -115.043c26.7734 -36.0615 45.4375 -78.2188 55.4814 -125.284zM495.273 377.545c7.72363 38.3271 4.55469 70.6768 -9.7207 93.2812l-246.03 -236.545
c-26.4346 -27.9609 -39.7578 -54.3955 -39.3018 -78.2822c0.353516 -21.708 12.2061 -40.3174 34.2441 -53.7822c45.5312 -27.8428 104.686 -10.3818 166.223 49.291l0.652344 0.574219l60.2939 58.627z" />
    <glyph glyph-name="A" unicode="A" horiz-adv-x="695" 
d="M552.468 75.4834c7.47168 -39.2939 40.3184 -65.2705 82.3027 -65.1055l-1.65137 -8.98242h-260.651l1.59668 8.70703h91.582l-40.0654 214.829l-9.04492 49.0469l-5.78125 -6.77148l-119.196 -139.725l-12.0654 -14.0869
c-2.53223 -2.85547 -5.1748 -5.41992 -7.74707 -8.18848c-95.585 -102.939 -214.026 -151.208 -271.576 -107.171s-32.4443 163.722 53.9385 273.692c2.3125 2.93359 4.38867 5.88281 6.78711 8.80859l12.5449 14.708l270.451 312.121l8.50977 9.83105l-15.8564 66.8379
l94.1621 31.6104l64.2109 -337.604l123.86 145.466l1.92676 -10.1855l-123.892 -145.238zM408.828 276.928l5.88281 6.91309l-58.501 317.305l-1.6123 6.80371l-8.8252 -10.1543l-215.891 -248.445l-24.8613 -29.085l-20.7402 -24.2715l-0.322266 -0.259766
c-81.7822 -103.923 -64.6602 -182.7 -10.2725 -224.322c57.1172 -43.707 137.105 -26.2227 229.396 81.4668l0.841797 0.983398l32.2314 37.7139z" />
    <glyph glyph-name="B" unicode="B" horiz-adv-x="643" 
d="M392.103 301.284c127.306 -5.12012 217.416 -68.2783 203.637 -147.315c-13.7881 -79.0371 -126.26 -144.082 -255.768 -151.593c-3.46094 -0.196289 -6.83496 -0.597656 -10.3193 -0.71582l-17.7363 -0.188477l-106.785 -0.0791016h-175.543l1.4707 7.99121
l13.9053 75.6709l2.24121 12.2148l35.4482 192.861l1.58105 8.62012l37.7139 205.202l2.24902 12.2617l31.7598 172.806l-82.8906 0.0078125l1.68359 9.16309h174.48l-15.9502 -86.792c108.271 86.6191 227.799 114.965 274.683 61.0967
c47.3408 -54.4033 2.64355 -171.886 -98.8877 -269.225c-2.71387 -2.5957 -5.20703 -5.24609 -8.00684 -7.81836l-14.5273 -12.8594l-93.7686 -81.6641l72.1475 0.74707l16.9971 0.133789c3.48438 -0.046875 6.75586 -0.384766 10.1855 -0.526367zM174.425 291.192
l-18.2539 -99.2725l115.595 100.391l9.78418 8.49414l41.7168 36.2266l28.7783 25.4121l24.0127 21.2041l0.353516 0.211914c96.0967 91.9512 93.375 174.913 48.6377 226.336c-41.1113 47.2539 -107.053 49.8105 -194.435 -13.2764l-54.624 -297.209zM502.757 162.056
c13.6855 78.4473 -34.2773 131.93 -164.28 130.915l-1.1875 -0.0078125l-45.4922 -0.424805l-8.77734 -0.102539l-129.021 -112.369l-31.2402 -169.974l-0.141602 -0.762695l83.9453 -0.0390625l35.8652 -0.015625l35.0869 0.330078l29.2822 0.275391l0.353516 -0.0791016
c122.445 6.96875 182.574 77.543 195.606 152.254z" />
    <glyph glyph-name="C" unicode="C" 
d="M615.476 657.553c32.0352 -21.1885 56.6816 -47.8574 76.2031 -78.2881l-16.9102 -30.3984c-2.25684 9.60352 -3.79102 19.5762 -7.41699 28.4951c-12.2461 30.0215 -31.7119 53.9082 -58.5088 71.6367c-18.1367 12.002 -38.7588 18.7266 -60.5137 23.0605
c-10.374 2.07617 -20.4961 4.70312 -31.6885 5.02539c-34.709 0.983398 -70.9355 -6.07129 -108.712 -21.1562c-37.7764 -15.0771 -75.7646 -37.7607 -113.997 -68.0498s-74.334 -67.3574 -108.272 -111.222c-33.9697 -43.9033 -60.2549 -87.4609 -78.9268 -130.704
c-18.6719 -43.251 -29.6123 -83.8115 -32.8525 -121.745c-3.24023 -37.9258 1.22754 -71.9111 13.4658 -101.948c12.1836 -30.0449 31.6895 -53.9473 58.4785 -71.6758c26.7969 -17.7363 57.3213 -28.0557 92.2344 -28.0557c266.008 0 368.577 237.009 382.971 261.854
l20.3154 -104.961c-0.754883 -0.991211 -1.21094 -2.00586 -1.97363 -2.99707c-34.8584 -45.0518 -158.703 -174.276 -386.124 -174.276c-49.6055 0 -91.9512 15.6748 -128.524 39.876c-36.5732 24.209 -55.7646 54.4746 -76.041 90.7178
c-20.2998 36.2031 -26.2617 75.7725 -28.5352 118.614c-2.28125 42.9043 4.30176 87.6729 19.749 134.306c15.4395 46.6328 40.5918 92.4707 75.4502 137.522c34.8271 45.0205 73.626 81.8213 116.373 110.396s86.4385 48.7881 131.081 60.6328
c44.5801 11.8369 88.6797 14.7471 132.339 8.73047c17.2793 -2.39844 33.5762 -7.33008 49.7471 -12.5762c24.6729 -7.99902 48.4883 -18.1924 70.5898 -32.8135z" />
    <glyph glyph-name="D" unicode="D" horiz-adv-x="700" 
d="M380.486 698.2c169.015 0 333.661 -106.864 289.986 -344.565c-45.7041 -248.665 -246.855 -352.241 -421.336 -352.241h-295.549l1.59668 8.70703h80.7119l124.789 678.929h-82.8906l1.68359 9.1709h301.008zM566.738 347.067
c44.0996 239.911 -76.0801 333.679 -199.272 333.687h-115.61l-121.658 -661.908h117.781c162.447 0 280.275 118.851 318.76 328.222z" />
    <glyph glyph-name="E" unicode="E" horiz-adv-x="557" 
d="M79.6572 698.2l507.051 -0.0078125l-33.1357 -180.293h-9.27344c16.627 90.4648 -52.6572 163.697 -143.17 163.383l-150.201 -0.535156l-57.9189 -315.126l-3.20898 -17.4453l-2.68164 -14.582h93.3906l-1.8252 -9.91016h-93.3906l-56.0156 -304.775l51.2256 -0.0625
h138.073c74.3262 0 145.647 60.2471 159.31 134.573h8.69922l-27.9453 -152.025h-507.052l1.59668 8.70703h82.8906l124.789 678.929h-82.8906z" />
    <glyph glyph-name="F" unicode="F" horiz-adv-x="525" 
d="M79.6572 698.2l496.166 -0.00878906l-33.1357 -180.293h-10.8301c16.5322 89.9385 -50.6992 162.849 -140.638 162.849h-140.291l-60.9316 -331.509l-2.87891 -15.6514h96.2539l-1.8252 -9.91016h-96.2539l-57.6357 -313.576h94.8779l-1.59668 -8.70703h-269.351
l1.59668 8.70703h82.8906l124.789 678.929h-82.8906z" />
    <glyph glyph-name="G" unicode="G" horiz-adv-x="709" 
d="M615.677 657.553c32.0352 -21.1885 56.6807 -47.8604 76.21 -78.291l-16.9102 -30.3984c-2.25684 9.60352 -3.79102 19.5762 -7.41699 28.4951c-12.2461 30.0215 -31.7119 53.9082 -58.5088 71.6367c-18.1367 12.002 -38.7666 18.7266 -60.5137 23.0605
c-10.374 2.07617 -20.4961 4.70312 -31.6885 5.02539c-34.709 0.983398 -70.9355 -6.07129 -108.712 -21.1562c-37.7764 -15.0771 -75.7646 -37.752 -113.997 -68.0488c-38.2324 -30.2891 -74.334 -67.3574 -108.272 -111.222
c-33.9697 -43.9033 -60.2549 -87.4609 -78.9268 -130.704c-18.6719 -43.251 -29.6123 -83.8115 -32.8525 -121.745c-3.24023 -37.9258 1.22754 -71.9111 13.4658 -101.948c12.1836 -30.0449 31.6895 -53.9473 58.4785 -71.6758
c26.7969 -17.7363 57.5186 -27.0645 92.2354 -28.0557c34.6855 -1.01465 70.9121 6.04004 108.688 21.125c22.0303 8.80859 44.1787 21 66.3896 34.9766c15.833 9.97266 31.6895 20.457 47.6006 33.0723c34.1504 27.0566 82.5137 77.3389 113.259 115.249
c-56.9043 0.605469 -56.9043 0.605469 -86.6895 0.991211h-308.314l0.211914 1.17188h-0.03125l1.89551 10.1299h477.148l-43.7148 -237.851h-10.6416l31.4766 170.792c-10.6494 -12.875 -23.6582 -27.2842 -34.8662 -38.9795
c-24.3818 -25.4277 -49.8018 -48.6934 -77.5029 -67.208c-42.7393 -28.5664 -86.4385 -48.7803 -131.05 -60.6484c-7.2207 -1.91113 -14.3467 -2.12305 -21.5352 -3.57031c-37.2734 -7.4873 -74.2871 -10.1846 -110.812 -5.10352
c-43.6357 6.04785 -83.7871 21.1494 -120.36 45.3506c-36.5811 24.209 -64.9902 54.4746 -85.2666 90.7178c-20.2998 36.2031 -31.5312 75.7725 -33.8047 118.614c-2.28125 42.9043 4.30176 87.6729 19.749 134.306c15.4395 46.6328 40.5918 92.4707 75.4502 137.522
c34.8271 45.0205 73.626 81.8213 116.373 110.396s86.4385 48.7881 131.081 60.6328c44.5801 11.8369 88.6797 14.7471 132.339 8.73047c17.2793 -2.39844 33.5762 -7.33008 49.7471 -12.5762c24.6729 -7.99902 48.4883 -18.1924 70.5898 -32.8135z" />
    <glyph glyph-name="H" unicode="H" horiz-adv-x="726" 
d="M516.93 698.2h257.364l-1.68359 -9.1709h-82.8906l-124.789 -678.929l83.0557 0.904297l-1.76172 -9.61133h-257.372l1.60449 8.70703h82.8828l61.1357 332.61h-345.674l-59.5234 -323.872h83.9531l-3.20898 -17.4453h-258.434l1.60449 8.70703h82.8906l124.781 678.929
h-82.8828l1.68359 9.1709h258.434l-1.68359 -9.1709h-83.9609l-60.2393 -327.757h345.674l60.2393 327.757h-82.8906z" />
    <glyph glyph-name="I" unicode="I" horiz-adv-x="289" 
d="M79.665 698.2h258.434l-1.69141 -9.1709h-83.9531l-124.789 -678.929h83.9609l-1.60449 -8.70703h-258.434l1.60449 8.70703h82.8828l124.789 678.929h-82.8828zM319.679 864.965l-93.3818 -78.8877l-64.3926 78.8877l93.3906 78.8955z" />
    <glyph glyph-name="J" unicode="J" horiz-adv-x="281" 
d="M76.7559 698.2h256.294l-1.68359 -9.1709l-83.001 -0.628906l-104.426 -568.156c-25.2549 -137.404 -118.024 -185.358 -202.717 -195.166l-0.370117 9.80762c46.7109 10.8779 86.0449 46.8848 102.082 134.125l113.841 619.39l-81.7031 0.628906zM314.448 864.965
l-93.3916 -78.8877l-64.3838 78.8877l93.3828 78.8955z" />
    <glyph glyph-name="K" unicode="K" horiz-adv-x="647" 
d="M521.322 698.2l187.527 -0.000976562l-1.68359 -9.1709h-72.8633l-344.927 -355.427h91.8652l138.349 -323.494h62.7959l-1.59668 -8.70703h-243.159l1.59668 8.70703h74.8682l-126.983 321.166l-123.868 -127.636l-35.5742 -193.53h79.6035l-1.59668 -8.70703h-254.084
l1.59668 8.70703h82.8906l124.789 678.929h-82.8906l1.68359 9.1709h254.084l-1.68359 -9.1709h-79.6035l-59.8379 -325.586l-3.41309 -18.5537l-20.3555 -110.741l372.125 384.41c27.6855 28.5977 15.0068 70.4639 -21.3379 70.4639z" />
    <glyph glyph-name="L" unicode="L" horiz-adv-x="539" 
d="M488.914 218.401h9.61035l-39.8838 -217.008h-507.052l1.59668 8.70703h82.8906l124.789 678.929h-82.8906l1.68359 9.1709h258.434l-1.68359 -9.1709h-83.9531l-124.781 -678.929h104.646c115.044 0 235.452 93.2568 256.594 208.301z" />
    <glyph glyph-name="M" unicode="M" horiz-adv-x="901" 
d="M776.693 11.5713l66.251 0.0136719l-1.62793 -8.86426h-505.636l1.62793 8.86426h85.8877l-4.73438 30.2021l-4.67969 29.7852l-33.915 216.088l-111.206 -142.431l-11.2549 -14.3535c-2.36719 -2.91016 -4.82129 -5.5293 -7.21191 -8.34473
c-88.9941 -104.938 -197.659 -154.134 -249.098 -109.247s-26.1914 166.892 54.5762 278.986c2.16309 2.98828 4.10547 5.99316 6.35449 8.98145l11.7031 14.9912l252.228 318.153l10.5391 13.2998l67.2002 84.873l1.58887 -10.0518l0.0390625 -0.219727l41.4883 -262.413
l1.48633 -9.38281l7.9834 -50.4941l0.314453 -1.99805l137.294 176.156l-9.35156 59.5391l78.1562 98.8496l1.62012 -10.2637l7.59766 -48.0166l1.65137 -10.4688l41.709 -263.798l1.62012 -10.2168zM310.521 210.558l67.8223 87.0039l-8.35254 53.208l-0.110352 0.708008
l-1.4707 9.34375l0.015625 0.0234375l-40.9229 263.79l-201.324 -253.242l-23.1943 -29.6514l-19.3564 -24.7441l-0.298828 -0.267578c-76.4648 -105.928 -62.4883 -186.231 -13.8818 -228.656c51.0527 -44.5566 124.136 -26.7344 210.228 83.04l0.77832 0.999023z
M517.706 11.5684l164.5 0.0078125l-43.667 278.246l-1.58105 10.0518l-41.4414 263.963l-137.318 -175.889l40.8828 -258.567l1.99805 -12.6553z" />
    <glyph glyph-name="N" unicode="N" horiz-adv-x="685" 
d="M545.393 698.2h192.993l-1.68359 -9.1709h-87.2402l-126.386 -687.636h-18.5537l-328.127 653.21l-102.428 -557.263c-8.85645 -48.1816 23.0215 -87.2402 71.2031 -87.2402l-1.59668 -8.70703h-192.987l1.59668 8.70703h87.2402l124.789 678.929h-86.1709
l1.68359 9.1709h186.507l265.953 -546.299l82.6943 449.935c8.84863 48.1582 -23.0127 87.1934 -71.1709 87.1934z" />
    <glyph glyph-name="O" unicode="O" horiz-adv-x="755" 
d="M734.515 447.16c2.24902 -42.8809 -4.33984 -87.6504 -19.7871 -134.283s-40.5996 -92.4707 -75.4268 -137.483c-34.8584 -45.0596 -73.6494 -81.8604 -116.396 -110.435c-42.7393 -28.5664 -86.4385 -48.7803 -131.05 -60.6484
c-44.6191 -11.8135 -88.7666 -14.7393 -132.348 -8.6748c-43.6279 6.04785 -83.7793 21.1494 -120.36 45.3506c-36.5732 24.2012 -64.9902 54.4668 -85.2588 90.709c-20.2998 36.2031 -31.5312 75.7725 -33.8047 118.614c-2.28125 42.9043 4.30176 87.6729 19.749 134.306
c15.4395 46.6328 40.5918 92.4707 75.4502 137.522c34.835 45.0205 73.626 81.8213 116.373 110.396c42.7549 28.5664 86.4463 48.7803 131.089 60.625c44.5801 11.8369 88.6797 14.7471 132.339 8.73047c43.6357 -6.04785 83.7559 -21.1807 120.337 -45.3818
c36.5732 -24.2012 65.0137 -54.4346 85.29 -90.6768c20.2139 -36.251 31.5 -75.8047 33.8047 -118.67zM680.734 474.333c3.24805 37.9258 -1.22656 71.917 -13.4336 101.985c-12.2461 30.0293 -31.7119 53.916 -58.5088 71.6445s-57.5498 27.0879 -92.2041 28.0869
c-34.709 0.983398 -70.9355 -6.07129 -108.712 -21.1562c-37.7764 -15.0771 -75.7734 -37.752 -113.998 -68.0488c-38.2324 -30.2891 -74.334 -67.3574 -108.272 -111.222c-33.9697 -43.9033 -60.2549 -87.4609 -78.9268 -130.703s-29.6123 -83.8105 -32.8525 -121.744
c-3.24023 -37.9258 1.22754 -71.9111 13.4658 -101.948c12.1748 -30.0449 31.6807 -53.9473 58.4775 -71.6758c26.7969 -17.7363 57.5186 -27.0723 92.2354 -28.0557c34.6855 -1.02246 70.9121 6.03223 108.688 21.1172c37.7373 15.1016 75.7578 37.7451 113.99 68.0498
c38.2402 30.2969 74.333 67.3574 108.303 111.261c33.9385 43.8643 60.2236 87.4219 78.8955 130.664c18.6719 43.251 29.5811 83.835 32.8525 121.745z" />
    <glyph glyph-name="P" unicode="P" horiz-adv-x="574" 
d="M372.911 698.2c128.658 0 234.883 -68.6865 211.452 -196.275c-26.0576 -141.762 -171.201 -201.741 -293.339 -201.741h-110.151l-53.3184 -290.083h92.6992l-1.59668 -8.70703h-266.07l1.59668 8.70703h81.7744l124.789 678.929h-82.8906l1.68359 9.1709h293.371z
M482.109 485.581c25.8525 140.645 -41.5508 195.166 -133.141 195.166h-98.1572l-66.7441 -363.119h116.672c100.336 0 160.921 56.6924 181.37 167.953z" />
    <glyph glyph-name="Q" unicode="Q" horiz-adv-x="810" 
d="M673.646 150.918h83.4033l-10.1387 -31.9639l-4.59375 -13.4102c-1.32129 -4.31055 -3.5625 -9.98926 -5.39551 -14.874c-38.5 -108.618 -209.74 -174.088 -296.862 -122.933l-0.03125 -0.180664c-10.9639 6.67773 -22.4629 14.1025 -31.3115 23.1318l-9.64258 10.5625
c-1.13281 1.31348 -1.92676 3.12988 -3.02051 4.56934c-1.4082 -0.393555 -2.77637 -1.14062 -4.19238 -1.51855c-44.6191 -11.8135 -88.7744 -14.7393 -132.348 -8.6748c-43.6279 6.04785 -83.7793 21.1494 -120.36 45.3506
c-12.458 8.24316 -22.6357 18.1768 -33.1982 27.8193c-1.53418 1.40039 -3.31934 2.60352 -4.81348 4.02734c-18.4355 17.6416 -34.8818 36.7539 -47.2539 58.8633c-20.2998 36.2031 -31.5312 75.7725 -33.8047 118.614c-2.28125 42.9043 4.30176 87.6729 19.749 134.306
c15.4395 46.6328 40.5918 92.4707 75.4502 137.522c34.8271 45.0205 73.6182 81.8213 116.365 110.396c42.7549 28.5664 86.4463 48.7803 131.089 60.625c44.5879 11.8369 88.6797 14.7471 132.339 8.73047c43.6357 -6.04785 83.7559 -21.1807 120.337 -45.3818
c36.5732 -24.2012 65.0137 -54.4346 85.29 -90.6768c20.2139 -36.251 31.5 -75.8047 33.8047 -118.67c2.25684 -42.8809 -4.33398 -87.6494 -19.7734 -134.282c-15.4473 -46.6328 -40.5996 -92.4707 -75.4268 -137.483
c-34.8584 -45.0596 -73.6494 -81.8604 -116.396 -110.435c-38.4688 -25.7109 -77.834 -43.6592 -117.82 -55.8428c1.14062 -1.35254 1.84082 -3.12988 3.05176 -4.39648l10.1543 -9.72168c72.1553 -62.5283 220.358 -1.90332 243.805 103.002
c0.927734 4.08203 1.91895 7.32227 2.84668 12.1201c1.85645 8.69141 6.78027 31.8066 8.69922 40.8047zM346.699 42.6143c6.10352 2.43848 12.252 6.3252 18.3711 9.16406c-52.8457 68.5996 -159.646 73.1768 -247.461 23.0996
c8.4707 -9.21777 17.2959 -18.1289 28.166 -25.3252c26.7969 -17.7363 57.5186 -27.0723 92.2354 -28.0557c34.6855 -1.02246 70.9121 6.03223 108.688 21.1172zM373.273 55.8604c29.0068 14.2832 58.125 31.583 87.415 54.793
c38.2402 30.2969 74.333 67.3574 108.303 111.261c33.9385 43.8643 60.2236 87.4219 78.8955 130.664c18.6719 43.251 29.5811 83.835 32.8525 121.745c3.24805 37.9336 -1.22754 71.9189 -13.4346 101.987c-12.2461 30.0293 -31.7119 53.916 -58.5088 71.6445
s-57.5498 27.0879 -92.2041 28.0869c-34.709 0.983398 -70.9355 -6.07129 -108.712 -21.1562c-37.7764 -15.0771 -75.7734 -37.752 -113.998 -68.0488c-38.2324 -30.2891 -74.334 -67.3574 -108.272 -111.222c-33.9697 -43.9033 -60.2549 -87.4609 -78.9268 -130.703
s-29.6123 -83.8105 -32.8525 -121.744c-3.24023 -37.9258 1.22754 -71.9111 13.4658 -101.948c6.29199 -15.5342 14.7236 -29.2666 24.9248 -41.5127c91.2119 58.9971 206.822 47.3643 261.053 -23.8467z" />
    <glyph glyph-name="R" unicode="R" horiz-adv-x="643" 
d="M520.688 10.1006l62.7939 -0.00683594l-1.59668 -8.70703h-243.159l1.59668 8.70703h74.8682l-124.246 312.986h-105.755l-57.5254 -312.986h88.3018l-1.59668 -8.70703h-262.783l1.59668 8.70703h82.8906l124.789 678.929h-82.8906l1.68359 9.1709h276.987
c119.96 0 225.81 -58.8711 202.961 -183.18c-12.5059 -68.0498 -60.7031 -114.659 -126.134 -146.694c-30.8633 -15.1094 -86.0371 -30.5254 -122.925 -39.6328c-0.211914 -0.046875 -0.416016 -0.125977 -0.620117 -0.172852
c0.353516 -0.0390625 38.3506 -14.833 76.1582 -4.89941zM188.392 340.541c0 0 119.497 -21.3154 211.268 56.2041c32.1211 27.127 50.958 65.1318 59.9238 113.92c22.6436 123.2 -30.8945 170.084 -122.531 170.084h-86.1318z" />
    <glyph glyph-name="S" unicode="S" horiz-adv-x="495" 
d="M329.052 709.117c65.4385 0 107.015 -14.1562 152.35 -52.3262l-21.2041 -115.374h-9.28125c14.4014 78.3447 -34.6221 143.72 -112.149 147.652c-5.78906 0.291016 -11.6797 0.44043 -17.665 0.44043c-97.0479 0 -162.879 -43.6436 -177.304 -122.138
c-34.2764 -186.468 336.338 -134.125 290.036 -386.03c-23.8477 -129.775 -137.594 -190.864 -274.998 -190.864c-76.3633 0 -119.559 14.2041 -164.894 52.3418l24.0752 131.002h9.84766c-16.0293 -87.209 38.4053 -161.181 125.15 -163.548
c4.14453 -0.118164 8.36816 -0.172852 12.6621 -0.172852c107.973 0 177.288 44.7451 194.521 138.514c36.0771 196.275 -333.027 146.111 -289.328 383.852c21.8418 118.851 131.694 176.651 258.182 176.651z" />
    <glyph glyph-name="T" unicode="T" horiz-adv-x="594" 
d="M74.6631 698.2h573.605l-28.8184 -156.8h-9.16309c17.3662 94.5078 -59.9482 147.629 -154.456 147.629h-50.2344l-124.789 -678.929h81.7744l-1.59668 -8.70703h-256.255l1.59668 8.70703h81.7822l124.789 678.929h-49.165
c-94.5156 0 -191.359 -53.1211 -208.726 -147.629h-9.16309z" />
    <glyph glyph-name="U" unicode="U" horiz-adv-x="676" 
d="M539.503 698.2l191.925 0.000976562l-1.68359 -9.1709h-86.1318l-84.4951 -459.703c-26.4658 -143.979 -120.266 -238.857 -280.534 -238.857c-164.665 0 -236.687 94.8779 -209.426 243.207l83.6934 455.354h-82.8438l1.68359 9.1709h257.324l-1.68359 -9.1709h-82.8438
l-85.4941 -465.161c-23.7607 -123.247 21.6924 -208.309 146.001 -208.309c125.379 0 209.607 78.5332 234.461 213.767l68.6631 373.571c8.74609 47.5684 -22.7305 86.1309 -70.2988 86.1309z" />
    <glyph glyph-name="V" unicode="V" horiz-adv-x="702" 
d="M700.297 687.283c57.0381 -43.6592 31.208 -163.409 -55.623 -273.828c-2.32031 -2.94141 -4.4043 -5.90625 -6.81152 -8.83984l-12.6074 -14.7783l-281.093 -324.862l-72.0527 -83.2607l-2.00586 10.0752l-63.0781 316.172l-1.99805 10.0205l-74.2783 371.047h-72.7061
l1.50195 8.28223l0.157227 0.416992h271.262l-1.59668 -8.69922h-94.4609l54.1123 -272.969l120.015 140.103l12.1201 14.1416c2.55664 2.86328 5.20703 5.44336 7.78711 8.22754c95.9473 103.45 214.311 152.403 271.356 108.752zM614.778 389.293
c82.207 104.331 65.6748 182.952 11.7744 224.229c-56.6211 43.3213 -136.468 25.3574 -229.159 -82.8125l-0.841797 -0.991211l-32.373 -37.8789l-73.1934 -85.6357l63.0156 -317.847l214.656 247.076l24.9639 29.2188l20.8271 24.374z" />
    <glyph glyph-name="W" unicode="W" horiz-adv-x="987" 
d="M983.97 687.362c57.5498 -44.0371 32.4443 -163.721 -53.9385 -273.699c-2.3125 -2.93359 -4.38867 -5.88281 -6.78711 -8.80859l-12.5449 -14.708l-270.459 -312.113l-11.2939 -13.0566l-72.0527 -83.2607l-1.96582 9.86328l-0.046875 0.211914l-51.3594 257.435
l-1.84082 9.20215l-9.87891 49.5352l-0.393555 1.96582l-147.149 -172.821l11.585 -58.415l-83.7959 -96.9775l-2.01367 10.0752l-9.39844 47.1045l-2.04492 10.2715l-51.6348 258.795l-1.99805 10.0205l-74.0273 371.047h-72.8867l1.59668 8.69922h556.114
l-1.59668 -8.69922h-94.4609l5.875 -29.6279l5.79688 -29.2266l42.0156 -211.982l119.196 139.725l12.0654 14.0869c2.53223 2.85547 5.16699 5.41992 7.74707 8.18848c95.585 102.939 214.026 151.208 271.576 107.171zM342.251 147.247l147.182 172.556l-50.6045 253.659
l-2.47754 12.4189l-20.583 103.151h-180.931l54.1123 -272.969l1.95801 -9.86328zM900.19 389.669c81.7822 103.915 64.6611 182.692 10.2656 224.322c-57.1172 43.707 -137.105 26.2227 -229.396 -81.4668l-0.841797 -0.983398l-32.2314 -37.7139l-72.6738 -85.3525
l10.3506 -52.1934l0.141602 -0.692383l1.81641 -9.1709l-0.015625 -0.0234375l50.7695 -258.787l215.898 248.445l24.8535 29.085l20.7402 24.2715z" />
    <glyph glyph-name="X" unicode="X" horiz-adv-x="698" 
d="M715.018 689.029c-44.6895 0 -90.5605 -21.9922 -122.674 -58.8008l-205.076 -235.168l179.192 -384.953h70.6367l-1.60449 -8.70703h-274.809l1.59668 8.70703l101.232 0.251953l-151.027 316.022l-280.212 -316.274h96.6631l-1.59668 -8.70703h-189.747
l1.59668 8.70703c44.6895 0 90.583 21.8027 122.948 58.4072l242.436 274.203l-162.384 346.312h-70.5742l1.68359 9.1709h273.708l-1.68359 -9.1709h-95.1445l130.098 -278.702l240.383 278.702h-95.3887l1.68359 9.1709h189.747z" />
    <glyph glyph-name="Y" unicode="Y" horiz-adv-x="641" 
d="M540.626 698.2h170.083l-1.68359 -9.1709c-37.9023 0 -76.5908 -20.6543 -100.926 -53.8848l-254.092 -346.948l-51.1152 -278.097h89.4189l-1.59668 -8.70703h-271.529l1.59668 8.70703h90.5205l48.9131 266.11l-146.056 412.819h-56.1182l1.68359 9.1709h248.618
l-1.68359 -9.1709h-86.5557l125.331 -382.278l280.291 382.278h-86.7842z" />
    <glyph glyph-name="Z" unicode="Z" horiz-adv-x="554" 
d="M597.634 698.2l-2.2207 -11.9795l-545.166 -676.113h171.178c115.044 0 228.955 93.2568 250.097 208.301h8.13281l-39.8838 -217.008h-488.183l2.20215 11.9863l544.946 675.956l-225.117 -0.188477c-81.5615 -0.0703125 -163.886 -66.2002 -178.877 -147.754h-8.49414
l28.8184 156.8h482.567z" />
    <glyph glyph-name="bracketleft" unicode="[" horiz-adv-x="268" 
d="M136.813 705.902h186.168l-2.17871 -10.7676h-104.371l-171.618 -851.065h104.371l-2.1709 -10.7676h-186.16z" />
    <glyph glyph-name="backslash" unicode="\" horiz-adv-x="262" 
d="M125.476 660.74l24.9336 -687.549h-18.3184l-24.8701 687.549h18.2549z" />
    <glyph glyph-name="bracketright" unicode="]" horiz-adv-x="265" 
d="M86.8135 705.902h186.097l-175.959 -872.601h-186.098l2.16309 10.7676h104.379l171.618 851.065h-104.379z" />
    <glyph glyph-name="asciicircum" unicode="^" horiz-adv-x="619" 
d="M74.6133 660.139l-4.09082 -3.13867l-10.5234 15.2031l3.59473 2.85547c58.1787 46.334 175.472 142.974 242.467 203.26l3.28809 2.95703l3.2793 -2.95703c66.9482 -60.2549 184.265 -156.902 242.475 -203.252l3.59473 -2.86328l-10.5312 -15.2031l-4.08984 3.13867
c-65.5244 50.2979 -159.167 117.309 -234.735 152.183c-75.5684 -34.874 -169.211 -101.885 -234.728 -152.183z" />
    <glyph glyph-name="underscore" unicode="_" horiz-adv-x="521" 
d="M63.4844 -8.02637h397.01l-3.48438 -17.2637h-397.01z" />
    <glyph glyph-name="a" unicode="a" horiz-adv-x="504" 
d="M376.774 8.55176l70.7686 -0.462891l-1.69141 -9.18652h-158.098l12.0254 65.4385l4.60938 25.082l12.8281 69.7959l-77.9834 -76.9287c-1.23438 -1.15625 -2.50879 -2.26562 -3.76758 -3.32715c-0.74707 -0.668945 -1.48633 -1.33008 -2.2334 -1.99902
c-56.3779 -51.1943 -122.107 -81.0273 -171.344 -81.0273c-16.6504 0 -31.4209 3.4209 -43.2969 10.5703c-16.6982 10.1143 -25.9473 26.9453 -26.749 48.6533c-1.33691 37.2021 22.377 85.7773 63.3623 129.995c0.723633 0.793945 1.44727 1.59668 2.12402 2.35156
c1.01465 1.14844 2.01367 2.25781 3.11523 3.41406l9.61133 9.54785l265.331 259.826c-15.5254 19.0654 -39.333 30.4854 -72.8232 30.4854c-69.0166 0 -159.198 -41.4883 -159.198 -41.4883l1.20312 6.54395c59.9326 29.4316 111.591 43.5967 167.221 43.5967
c134.117 0 184.392 -58.8711 163.541 -172.303zM352.901 353.322c7.59766 41.3232 3.5459 76.2002 -12.2871 100.566l-260.69 -255.013c-27.9609 -30.1396 -41.8115 -58.6426 -40.8594 -84.3936c0.802734 -23.3984 13.9453 -43.4629 37.958 -57.9824
c49.6289 -30.0137 113.069 -11.1846 178.256 53.1445l0.68457 0.613281l63.873 63.2041l13.8193 75.1748l3.20898 17.4453z" />
    <glyph glyph-name="a" unicode="&#xe1;" horiz-adv-x="504" 
d="M376.774 8.55176l70.7686 -0.462891l-1.69141 -9.18652h-158.098l12.0254 65.4385l4.60938 25.082l12.8281 69.7959l-77.9834 -76.9287c-1.23438 -1.15625 -2.50879 -2.26562 -3.76758 -3.32715c-0.74707 -0.668945 -1.48633 -1.33008 -2.2334 -1.99902
c-56.3779 -51.1943 -122.107 -81.0273 -171.344 -81.0273c-16.6504 0 -31.4209 3.4209 -43.2969 10.5703c-16.6982 10.1143 -25.9473 26.9453 -26.749 48.6533c-1.33691 37.2021 22.377 85.7773 63.3623 129.995c0.723633 0.793945 1.44727 1.59668 2.12402 2.35156
c1.01465 1.14844 2.01367 2.25781 3.11523 3.41406l9.61133 9.54785l265.331 259.826c-15.5254 19.0654 -39.333 30.4854 -72.8232 30.4854c-69.0166 0 -159.198 -41.4883 -159.198 -41.4883l1.20312 6.54395c59.9326 29.4316 111.591 43.5967 167.221 43.5967
c134.117 0 184.392 -58.8711 163.541 -172.303zM352.901 353.322c7.59766 41.3232 3.5459 76.2002 -12.2871 100.566l-260.69 -255.013c-27.9609 -30.1396 -41.8115 -58.6426 -40.8594 -84.3936c0.802734 -23.3984 13.9453 -43.4629 37.958 -57.9824
c49.6289 -30.0137 113.069 -11.1846 178.256 53.1445l0.68457 0.613281l63.873 63.2041l13.8193 75.1748l3.20898 17.4453z" />
    <glyph glyph-name="b" unicode="b" horiz-adv-x="588" 
d="M537.567 358.536c13.2451 -32.6172 19.2539 -65.8027 18.0107 -99.5596c-1.22656 -33.749 -8.36816 -66.1611 -21.4404 -97.2207c-13.0479 -31.0127 -27.8975 -59.6572 -52.2246 -85.8643c-24.3193 -26.2383 -46.2627 -48.1504 -79.1865 -65.666
c-32.916 -17.5156 -67.7432 -28.8652 -103.647 -28.8652c-99.8955 0 -159.104 34.4648 -193.515 68.8359l-2.06836 -11.2627l-7.43262 -40.458c-43.0459 0.118164 -43.0459 0.118164 -86.0918 0.456055l138.324 752.578h-74.1445l1.69141 9.20215h160.331l-60.1846 -327.427
c11.1846 8.09375 22.7148 15.833 35.2832 22.5186c19.8828 10.5791 39.8369 17.9648 59.8301 23.7539c13.1035 3.79102 26.207 7.36133 39.3574 9.09961c33.207 4.34961 64.3535 2.24219 93.4785 -6.32324c29.1641 -8.57324 55.418 -23.2021 78.7539 -43.8877
c23.3516 -20.6855 41.6377 -47.3252 54.875 -79.9102zM488.017 142.101c7.73926 27.457 10.6191 56.8252 8.62891 88.1289c-2.01367 31.3037 -9.44629 62.835 -22.3525 94.6182c-12.8984 31.752 -29.1641 58.5879 -48.7793 80.5156s-41.0791 38.3428 -64.415 49.2598
s-47.6865 16.0293 -73.0752 15.3135c-8.1875 -0.228516 -16.2178 -2.13184 -24.2793 -3.63379c-16.9023 -3.13867 -33.6162 -8.00684 -49.9443 -16.6982c-15.0068 -7.9834 -28.0869 -18.3105 -40.2705 -29.7383l-14.291 -77.7314l-38.9795 -212.061
c18.3184 -56.3066 65.6191 -133.967 195.245 -133.967c25.2705 0 50.1162 7.47168 74.2305 20.3076c24.1221 12.8359 44.5947 30.1396 61.4102 51.8867c16.8477 21.7393 29.125 46.3418 36.8721 73.7988z" />
    <glyph glyph-name="c" unicode="c" horiz-adv-x="524" 
d="M455.881 465.805c23.1865 -15.3447 41.0361 -34.6465 55.1699 -56.6768l-12.2461 -21.999c-1.63574 6.95312 -2.74512 14.1738 -5.37207 20.6309c-8.86426 21.7393 -22.959 39.0273 -42.3545 51.8633c-13.1348 8.69141 -28.0625 13.5596 -43.8086 16.6982
c-7.51953 1.49414 -14.834 3.39746 -22.9434 3.63379c-25.1289 0.71582 -51.3516 -4.38867 -78.6992 -15.3135c-27.3555 -10.917 -54.8525 -27.332 -82.5303 -49.2598s-53.8057 -48.7637 -78.376 -80.5156c-24.5869 -31.7832 -43.6123 -63.3145 -57.1328 -94.6182
s-21.4404 -60.6719 -23.7842 -88.1289s0.888672 -52.0596 9.75293 -73.8066c8.81641 -21.7549 22.9346 -39.0508 42.3301 -51.8867c19.4033 -12.8359 41.4961 -20.3076 66.7666 -20.3076c192.562 0 266.817 171.57 277.238 189.558l14.708 -75.9775
c-0.550781 -0.723633 -0.873047 -1.45508 -1.43164 -2.1709c-25.2314 -32.6172 -114.887 -126.165 -279.521 -126.165c-35.9043 0 -66.5625 11.3496 -93.0371 28.8652c-26.4824 17.5156 -40.3721 39.4277 -55.0488 65.666
c-14.7002 26.207 -19.0186 54.8516 -20.6621 85.8643c-1.65137 31.0596 3.11523 63.4639 14.2998 97.2207c11.1846 33.7656 29.3926 66.9492 54.624 99.5586c25.208 32.585 53.2949 59.2324 84.2441 79.918c30.9414 20.6777 62.5752 35.3066 94.8936 43.8877
c32.2783 8.56543 64.1953 10.6729 95.8057 6.31543c12.5059 -1.73047 24.3037 -5.30078 36.0068 -9.09961c17.8613 -5.78906 35.1094 -13.167 51.1074 -23.7539z" />
    <glyph glyph-name="d" unicode="d" horiz-adv-x="588" 
d="M540.58 759.713l160.33 0.000976562l-1.69141 -9.20215h-74.1445l-138.324 -752.578c-43.1641 -0.330078 -43.1641 -0.330078 -86.2568 -0.456055l7.43262 40.458l2.06836 11.2627c-47.0498 -34.3711 -118.93 -68.8359 -218.817 -68.8359
c-35.9043 0 -66.5625 11.3418 -93.0371 28.8652c-26.4902 17.5156 -40.3799 39.4277 -55.0566 65.666c-14.6924 26.207 -19.0107 54.8516 -20.6543 85.8643c-1.65137 31.0596 3.11523 63.4639 14.2998 97.2207c11.1768 33.7568 29.3848 66.9404 54.6162 99.5576
c25.208 32.585 53.2949 59.2246 84.2441 79.9102c30.9414 20.6777 62.5674 35.3145 94.8857 43.8877c32.2783 8.57324 64.1953 10.6729 95.8057 6.32324c12.5059 -1.73047 24.2959 -5.30078 36.0068 -9.09961c17.8613 -5.79688 35.1016 -13.1748 51.0996 -23.7539
c10.1064 -6.68555 18.7979 -14.4248 27.0088 -22.5176zM463.642 341.138l14.2842 77.7314c-7.9834 11.4277 -17.2725 21.7549 -29.3379 29.7383c-13.1348 8.69141 -28.0625 13.5596 -43.8086 16.6982c-7.51953 1.50195 -14.8418 3.40527 -22.9434 3.63379
c-25.1211 0.71582 -51.3516 -4.39648 -78.6992 -15.3135s-54.8447 -27.332 -82.5225 -49.2598c-27.6699 -21.9277 -53.8057 -48.7637 -78.376 -80.5156c-24.5947 -31.7832 -43.6123 -63.3145 -57.1328 -94.6182c-13.5127 -31.3037 -21.4326 -60.6719 -23.7842 -88.1289
s0.888672 -52.0596 9.74512 -73.7988c8.8252 -21.7471 22.9434 -39.0508 42.3389 -51.8867s41.4971 -20.3076 66.7676 -20.3076c129.626 0 205.47 77.6602 244.489 133.967z" />
    <glyph glyph-name="e" unicode="e" horiz-adv-x="524" 
d="M87.6025 240.231c-13.5127 -31.3037 -21.4336 -60.6719 -23.7852 -88.1211c-2.35156 -27.457 0.880859 -52.0596 9.74512 -73.8066c8.81641 -21.7549 22.9346 -39.0508 42.3301 -51.8867s41.4971 -20.3076 66.7676 -20.3076c192.555 0 266.81 171.57 277.23 189.558
l14.708 -75.9775c-0.550781 -0.723633 -0.873047 -1.45508 -1.43164 -2.1709c-25.2314 -32.6172 -114.887 -126.165 -279.521 -126.165c-35.9043 0 -66.5625 11.3496 -93.0371 28.8652c-26.4824 17.5156 -40.3721 39.4277 -55.0488 65.666
c-14.7002 26.207 -19.0186 54.8516 -20.6621 85.8643c-1.65137 31.0596 3.11523 63.4639 14.2998 97.2207c11.1768 33.7656 29.3848 66.9492 54.6162 99.5586c25.208 32.585 53.2949 59.2324 84.2441 79.918c30.9414 20.6777 62.5752 35.3066 94.8936 43.8877
c32.2783 8.56543 64.1953 10.6729 95.8057 6.31543c12.5059 -1.73047 24.3037 -5.30078 36.0068 -9.09961c17.8701 -5.78906 35.1104 -13.167 51.1084 -23.7539c17.5391 -11.6016 41.6777 -34.6465 56.6611 -57.4629c2.97266 -4.52246 4.74219 -8.87207 6.86621 -13.2842
h-318.704c-19.3643 -17.8066 -38.2168 -37.2646 -55.9609 -60.1992c-24.5869 -31.7832 -43.6123 -63.3145 -57.1328 -94.6182zM223.118 415.365c-2.6582 -2.10742 -5.125 -4.83008 -7.74414 -7.03223h277.734c-8.87988 21.4326 -22.8096 38.5713 -42.0088 51.2734
c-13.1348 8.69141 -28.0625 13.5596 -43.8086 16.6982c-7.51953 1.49414 -14.834 3.39746 -22.9434 3.63379c-25.1289 0.71582 -51.3516 -4.38867 -78.6992 -15.3135c-27.3555 -10.917 -54.8525 -27.332 -82.5303 -49.2598z" />
    <glyph glyph-name="f" unicode="f" horiz-adv-x="315" 
d="M372.354 773.638c41.4648 0 69.0225 -10.9551 107.16 -40.4805l-2.21777 -12.0498c-34.9609 34.8975 -60.4912 45.0752 -98.6689 45.0752c-67.8525 -1.06152 -116.608 -59.083 -132.441 -145.215l-0.810547 -4.39648c-12.8359 -69.835 33.3643 -126.44 103.199 -126.44
l-1.73828 -9.4541h-126.44l-86.4932 -470.573h118.804l-1.76953 -9.62695h-280.235l1.76953 9.62695h75.207l86.4932 470.573h-75.207l1.68359 9.1709h155.439l-10.4053 15.085c-70.2988 101.956 27.5049 266.786 163.211 268.682
c1.15625 0.015625 2.30469 0.0234375 3.46094 0.0234375z" />
    <glyph glyph-name="g" unicode="g" horiz-adv-x="505" 
d="M468.901 518.674c-22.3057 -0.880859 -43.0762 -20.2227 -54.6689 -40.4043l0.597656 -0.40918c17.3975 -12.4746 31.5234 -27.5518 42.0469 -44.8633c12.9541 -21.4248 21.126 -46.4121 24.2959 -74.2705c3.18555 -27.9287 0.228516 -58.3516 -8.78516 -90.4102
c-9.0293 -32.0898 -22.8721 -61.4268 -41.1426 -87.1934c-18.2783 -25.7666 -39.6875 -47.8359 -63.6367 -65.5801c-15.9268 -11.7432 -33.002 -21.5586 -50.7461 -29.1719c-9.07617 -3.89355 -18.459 -7.27539 -27.8975 -10.0361
c-21.0547 -6.21387 -42.5029 -9.33594 -63.998 -9.33594c-7.29102 0 -14.5977 0.353516 -21.8965 1.07715c-28.6924 2.83887 -54.498 11.0342 -76.7168 24.3574c-14.8027 8.87207 -28.0088 20.166 -39.2402 33.5527c-3.54688 -3.08301 -6.80273 -5.92188 -7.41602 -6.46484
c-47.2773 -42.4482 -43.4863 -92.8799 -19.9619 -121.769c23.8232 -29.2666 71.9736 -42.0791 121.367 -1.04688l46.6797 38.4053c25.1924 20.5674 55.4102 32.499 85.1016 33.6318c2.48535 0.0947266 4.97852 0.110352 7.47168 0.0400391
c8.2666 -0.228516 16.21 -1.73828 23.9258 -3.7041l1.08496 -0.275391c7.3457 -1.87207 14.5264 -4.20801 21.0938 -7.54297c12.6943 -6.44141 23.7139 -15.3213 32.4131 -26.1592c19.1436 -25.4912 25.6006 -60.9316 17.3184 -94.8545
c-8.77734 -35.5273 -29.7773 -68.9307 -59.1299 -94.0674l-1.4082 -1.17188c-34.2686 -28.1885 -75.4902 -44.5713 -116.074 -46.1289c-2.13965 -0.0869141 -4.2793 -0.125977 -6.40332 -0.125977c-0.723633 0 -1.45508 0.0078125 -2.17871 0.015625
c-43.9111 0.582031 -83.3789 19.3252 -108.288 51.3994l-2.40723 3.09863l52.7363 44.084l33.8281 -43.5654c15.5176 -19.3408 39.8604 -30.6514 66.7666 -31.0127c1.76172 -0.0234375 3.53906 -0.0078125 5.33203 0.0625c25.1367 0.967773 50.6982 11.0586 71.9814 28.4248
l1.23438 1.03809c27.457 23.5088 47.1826 54.8047 55.5117 88.0898c7.85742 31.6885 1.86426 64.8477 -16.0293 88.6865c-11.2158 13.9609 -26.5293 24.4062 -44.2334 30.1553c-1.15625 0.37793 -2.32812 0.731445 -3.50781 1.06152l-0.802734 0.220703
c-1.22656 0.330078 -3.77441 0.958984 -4.25391 1.06934l-5.875 1.17969c-7.00781 1.17969 -14.2119 1.64355 -21.377 1.36035c-27.6299 -1.05371 -55.7168 -12.1436 -79.0918 -31.2324l-8.34473 -6.96875l0.188477 -0.015625l-8.50195 -6.92969l-78.707 -66.0986
c-22.8408 -18.9707 -47.3955 -28.8574 -71.6748 -28.5117c-1.50195 0.0234375 -2.99609 0.0859375 -4.48242 0.180664c-22.5889 1.49414 -42.8652 11.9473 -57.1094 29.4316c-25.8447 31.7441 -12.9219 101.76 39.0508 148.432
c1.06152 0.952148 25.5537 22.5967 38.8301 34.3232l-0.0869141 0.110352c-3.09082 4.14453 -5.80469 7.85645 -8.24316 11.876c-12.9697 21.3613 -21.165 46.3486 -24.3428 74.2695c-3.18555 27.9609 -0.212891 58.3916 8.82422 90.4502
c8.99805 32.0273 22.8252 61.3486 41.1113 87.1543c18.2314 25.7266 39.6641 47.7959 63.6846 65.5791c23.9258 17.6572 50.3682 30.8545 78.6123 39.2383c28.1885 8.31348 57.085 11.0742 85.8955 8.20312c28.7705 -2.83105 54.584 -11.0107 76.709 -24.3262
c0.401367 -0.244141 0.779297 -0.511719 1.16504 -0.787109c12.002 28.9277 37.4141 55.6299 65.6338 60.3018c2.04492 0.37793 25.082 3.67383 25.082 3.67383l-5.34082 -29.0615c-3.66504 -0.110352 -13.0801 -0.385742 -16.6191 -0.488281
c-1.94238 -0.015625 -3.28711 -0.180664 -4.9541 -0.250977zM421.428 359.388c-0.330078 25.8682 -4.5 48.8643 -12.3809 68.3623c-7.86523 19.3008 -19.3086 34.9443 -34.0244 46.4902c-14.6445 11.5146 -32.1445 18.3496 -52.0273 20.3242
c-19.8984 1.97461 -40.1826 -1.11621 -60.3174 -9.16211c-1.21094 -0.479492 -2.39844 -0.974609 -3.57812 -1.47754c-18.9785 -8.14844 -37.1709 -20.2451 -54.0654 -35.96c-18.0508 -16.7764 -34.5752 -37.7295 -49.1104 -62.2686
c-14.5508 -24.665 -26.2305 -52.4443 -34.7012 -82.5762c-8.45508 -30.1318 -12.6162 -58.6592 -12.3564 -84.8027c0.314453 -25.9629 4.4834 -48.9609 12.3799 -68.3486c7.88086 -19.3408 19.333 -34.9766 34.0254 -46.4756
c14.6055 -11.5068 32.1133 -18.3574 52.0439 -20.3633c19.9062 -1.9502 40.1904 1.14062 60.3018 9.20215c1.28223 0.511719 2.54883 1.03906 3.77539 1.56641c18.8291 8.07715 36.9502 20.1348 53.876 35.8418c18.208 17.0049 34.7324 37.9658 49.1025 62.2773
c14.5117 24.5469 26.1836 52.3428 34.6934 82.5996c8.50977 30.2256 12.6621 58.7451 12.3633 84.7705z" />
    <glyph glyph-name="h" unicode="h" horiz-adv-x="582" 
d="M454.928 11.1807l71.8184 -1.08301l-1.76953 -9.62695h-233.352l1.76953 9.62695l74.0898 -0.267578l59.4131 323.258c16.0293 87.2324 -9.44629 138.466 -88.0273 138.466c-44.666 0 -88.7812 -20.7324 -134.981 -64.3291l-73.0439 -397.396l73.1299 0.267578
l-1.76953 -9.62695h-234.5l1.76953 9.62695h74.1445l136.642 743.415h-74.1445l1.69141 9.20215h159.207l-61.5371 -334.789c53.5693 47.9932 115.987 73.0752 179.207 73.0752c105.755 0 147.448 -69.7881 129.413 -167.906z" />
    <glyph glyph-name="i" unicode="i" horiz-adv-x="263" 
d="M60.709 490.122l161.425 -0.000976562l-88.2314 -480.026h73.0752l-1.76953 -9.62695h-234.5l1.76953 9.62695h74.1445l86.4932 470.573h-74.1445zM283.671 689.047l-81.8604 -69.1582l-56.4482 69.1582l81.8682 69.1582z" />
    <glyph glyph-name="j" unicode="j" horiz-adv-x="230" 
d="M56.2832 481.668l1.74609 9.4541h161.338l-93.4062 -508.208c-25.2471 -137.365 -113.628 -185.358 -219.053 -195.166l-1.93457 7.3457c70.7236 10.8779 110.741 62.4424 124.371 136.587l101.154 550.357zM279.3 690.048l-81.8604 -69.1582l-56.4482 69.1582
l81.8682 69.1582z" />
    <glyph glyph-name="k" unicode="k" horiz-adv-x="621" 
d="M510.318 9.17578l62.7871 0.00195312l-1.59668 -8.70703h-243.159l1.60449 8.70703h74.8682l-126.983 321.166l-110.089 -113.432l-0.495117 -2.71387l-9.24902 -50.3369l-28.2598 -153.764h72.0137l-1.76953 -9.62695h-232.282l1.76953 9.62695h74.1445l136.642 743.415
h-73.083l1.69141 9.20215h159.207l-94.7041 -515.247l167.189 172.711c23.7607 24.5469 12.8828 60.4902 -18.3184 60.4902l1.68359 9.1709h187.529l-1.68359 -9.1709h-86.0449l-143.626 -148.007h91.8652z" />
    <glyph glyph-name="l" unicode="l" horiz-adv-x="259" 
d="M268.075 762.713l-138.325 -752.617l74.1289 -0.046875l-1.76172 -9.58008h-234.413l1.76953 9.62695h74.1445l136.634 743.415h-74.1367l1.69141 9.20215h160.269z" />
    <glyph glyph-name="m" unicode="m" horiz-adv-x="883" 
d="M754.378 10.0488l73.0752 0.0449219l-1.76953 -9.62695h-233.344l1.76953 9.62695l72.9727 -0.558594l60.0664 326.79c15.0303 81.7744 -7.9043 135.227 -77.7002 135.227c-40.3164 0 -82.9775 -18.5537 -131.388 -62.1504l-72.1553 -392.598h73.0752l-3.00488 -16.3359
h-234.413l3.00488 16.3359h74.1445l62.1426 338.084c13.4258 73.0361 -10.1699 116.672 -83.2451 116.672c-40.4033 0 -83.457 -20.7324 -130.719 -64.3291l-72.9102 -396.68l72.9971 -0.456055l-1.76953 -9.62695h-234.5l1.76953 9.62695h74.2314l86.4932 470.573h-74.2314
l1.73828 9.4541h161.425l-11.0273 -59.9795c49.4795 43.5967 109.003 70.8574 173.293 70.8574c69.7881 0 111.812 -32.7188 123.483 -81.7734c60.3965 55.6221 119.716 81.7734 191.729 81.7734c87.2012 0 132.78 -66.5078 115.139 -162.494z" />
    <glyph glyph-name="n" unicode="n" horiz-adv-x="585" 
d="M457.908 10.5518l71.8408 -0.454102l-1.76953 -9.62695h-233.344l1.76953 9.62695l74.1289 -0.046875l59.374 323.046c16.0293 87.2324 -9.4541 138.466 -86.8789 138.466c-43.5967 0 -87.5156 -19.624 -136.13 -64.3301l-72.9102 -396.68l72.9883 -0.456055
l-1.76953 -9.62695h-234.5l1.76953 9.62695h74.2314l86.4932 470.573h-74.2314l1.73828 9.4541h161.425l-11.0273 -59.9795c53.3652 46.8838 114.431 70.8564 176.581 70.8564c105.842 0 147.535 -69.7881 129.5 -167.906z" />
    <glyph glyph-name="o" unicode="o" horiz-adv-x="545" 
d="M529.79 324.08c1.61035 -30.7598 -3.17969 -63.2793 -14.2598 -96.6689c-11.0801 -33.4502 -29.3398 -66.75 -54.2998 -98.9902c-24.9502 -32.2402 -53.1104 -58.9707 -83.7803 -79.4707c-30.6602 -20.5 -62.4004 -35.1797 -94.3701 -43.6992
c-21.2402 -5.59961 -42.4502 -8.41992 -63.4199 -8.41992c-10.7197 0 -21.3496 0.740234 -31.8496 2.20996c-31.3301 4.32031 -60.4805 15.3008 -86.7109 32.6406c-26.1797 17.3203 -46.8096 39.3008 -61.3799 65.3311c-14.5098 25.8799 -22.7002 54.6299 -24.3506 85.4199
c-1.66016 30.75 3.13965 63.2695 14.2197 96.6895c11.0898 33.46 29.3496 66.7598 54.3496 99.0195c24.9004 32.1904 53.0508 58.9307 83.7305 79.4502c30.6104 20.4697 62.3906 35.1494 94.4209 43.6689c31.9102 8.41992 63.9805 10.5098 95.2803 6.25977
c31.2803 -4.32031 60.4199 -15.3203 86.6504 -32.6904c26.1797 -17.29 46.8701 -39.25 61.3896 -65.2803c14.54 -26 22.7197 -54.7695 24.3799 -85.4697zM325.33 508.24c-0.969727 0 -1.9502 -0.179688 -2.91992 -0.189453
c4.05957 0.0498047 8.10938 -0.270508 12.1592 -0.430664c-3.08984 0.110352 -6.13965 0.620117 -9.23926 0.620117zM489.69 343.38c2.30957 27.0098 -0.90625 51.541 -9.61621 72.8809c-8.67969 21.4004 -22.75 38.6006 -41.7803 51.2002
s-41.1807 19.3496 -65.8604 20.0693c-1.45996 0.0498047 -2.92969 0.0693359 -4.39941 0.0693359c-23.4404 0 -48.0508 -5.09961 -73.3408 -15.1992c-26.8799 -10.7197 -54.3301 -27.1201 -81.6396 -48.7305c-27.2197 -21.6104 -53.3496 -48.4199 -77.5596 -79.7002
c-24.0801 -31.1504 -43.1104 -62.6309 -56.5303 -93.6113c-13.3203 -30.8799 -21.2207 -60.21 -23.5205 -87.1797c-2.30957 -27.04 0.910156 -51.5703 9.62012 -72.8701c8.63965 -21.3496 22.6992 -38.5693 41.7695 -51.2393
c19.0303 -12.5703 41.2305 -19.3301 65.8701 -20.0098c1.55957 -0.0498047 3.10938 -0.0800781 4.62891 -0.0800781c23.2998 0 47.8193 5.09961 73.0996 15.1592c27.04 10.8604 54.54 27.25 81.6396 48.75c27.2695 21.6104 53.3594 48.4404 77.5693 79.7305
c24.21 31.2598 43.2295 62.7402 56.5293 93.5801c13.2402 30.7402 21.1406 60.0605 23.5205 87.1807z" />
    <glyph glyph-name="p" unicode="p" horiz-adv-x="578" 
d="M535.506 376.987c12.207 -30.0684 17.7441 -60.6631 16.6504 -91.8018c-1.13281 -31.1221 -7.72363 -61.002 -19.7734 -89.6387c-12.0254 -28.5977 -25.7188 -55.0088 -48.1504 -79.1787c-22.4316 -24.1934 -42.6611 -44.3994 -73.0205 -60.5469
c-30.3516 -16.1553 -62.457 -26.6162 -95.5693 -26.6162c-92.1094 0 -146.701 31.7754 -178.43 63.4717l-0.849609 -4.61719l-54.8672 -298.499h69.1191l-1.68359 -9.1709h-220.964l1.68359 9.1709h72.375l126.66 689.106h-72.375l1.68359 9.1709h72.375h2.72168h76.7324
l-7.70801 -41.9287c10.3115 7.46387 20.9453 14.5977 32.5303 20.7637c18.334 9.75293 36.7305 16.5566 55.166 21.8975c12.0889 3.5 24.1699 6.7959 36.29 8.39258c30.627 4.01074 59.3428 2.07617 86.1943 -5.82812c26.8984 -7.9043 51.0996 -21.4014 72.6191 -40.4668
c21.5273 -19.0732 38.3906 -43.6357 50.5898 -73.6807zM489.817 177.426c7.1416 25.3262 9.79688 52.3955 7.95605 81.2529c-1.85645 28.8652 -8.71484 57.9346 -20.6152 87.2402c-11.8926 29.2744 -26.8916 54.0186 -44.9814 74.2402
c-18.082 20.2217 -37.8711 35.3545 -59.3906 45.4219c-21.5107 10.0674 -43.958 14.7783 -67.373 14.1172c-7.55078 -0.211914 -14.9521 -1.96582 -22.3848 -3.34961c-15.5811 -2.89453 -31.0049 -7.38574 -46.0508 -15.3926
c-13.835 -7.36133 -25.9004 -16.8857 -37.1318 -27.4248l-49.1104 -267.203c16.8867 -51.918 60.499 -123.522 180.018 -123.522c23.2969 0 46.208 6.88965 68.4424 18.7266s41.1182 27.7871 56.6201 47.8438c15.5342 20.0479 26.8604 42.7314 34.002 68.0498z" />
    <glyph glyph-name="q" unicode="q" horiz-adv-x="578" 
d="M537.191 487.839l72.3789 0.0078125l-1.68359 -9.1709h-72.375l-126.66 -689.106h72.3672l-1.68359 -9.1709h-151.829l56.5508 307.67l0.849609 4.61719c-43.3838 -31.6963 -109.655 -63.4717 -201.757 -63.4717c-33.1045 0 -61.3721 10.4609 -85.7852 26.6162
c-24.4209 16.1475 -37.2256 36.3535 -50.7617 60.5469c-13.5518 24.1699 -17.5312 50.5811 -19.0488 79.1787c-1.51758 28.6289 2.87109 58.5166 13.1826 89.6387s27.0957 61.7256 50.3613 91.7939c23.249 30.0371 49.1416 54.6074 77.6768 73.6807
c28.5273 19.0654 57.6914 32.5625 87.4922 40.4668c29.7617 7.9043 59.1855 9.83887 88.334 5.82812c11.5303 -1.59668 22.4004 -4.89258 33.1992 -8.39258c16.4697 -5.34082 32.373 -12.1445 47.1201 -21.8975c9.32031 -6.16602 17.335 -13.2998 24.9092 -20.7637
l7.70801 41.9287h76.7324h2.72168zM398.643 166.343l49.0986 267.205c-7.35352 10.5391 -15.9189 20.0635 -27.0479 27.4248c-12.1045 8.00684 -25.8682 12.498 -40.3877 15.3926c-6.9209 1.38477 -13.6768 3.13867 -21.1484 3.35059
c-23.1631 0.661133 -47.3486 -4.0498 -72.5645 -14.1172s-50.5732 -25.2002 -76.0957 -45.4219c-25.5146 -20.2217 -49.6133 -44.958 -72.2646 -74.2402c-22.6748 -29.3057 -40.2139 -58.375 -52.6797 -87.2402c-12.458 -28.8574 -19.7646 -55.9375 -21.9277 -81.2559
s0.817383 -48.002 8.98926 -68.0498c8.13281 -20.0566 21.1494 -36.0068 39.0352 -47.8438s38.2568 -18.7266 61.5615 -18.7266c119.52 0 189.448 71.6045 225.432 123.522z" />
    <glyph glyph-name="r" unicode="r" horiz-adv-x="397" 
d="M375.701 501c20.6855 0 40.7725 -3.28809 60.3408 -9.81641l-6.55957 -29.4316c-15.958 14.165 -37.7764 19.623 -63.9678 19.623c-56.7393 0 -108.429 -26.1514 -156.493 -74.1445l-72.9883 -397.136h87.2793l-1.76953 -9.62695h-250.836l1.76953 9.62695h76.3633
l86.4932 470.573h-75.293l1.73828 9.4541h158.137l-11.4355 -62.1973c41.2451 40.3564 98.4961 73.0752 167.222 73.0752z" />
    <glyph glyph-name="s" unicode="s" horiz-adv-x="418" 
d="M275.221 509c55.6699 0 91.959 -9.81543 142.831 -35.9668l-8.23438 -32.7188h-4.34961c-42.0947 38.1377 -79.5957 53.4121 -134.117 53.4121c-69.583 1.10938 -114.446 -29.4307 -124.262 -82.8428c-26.2617 -142.871 253.219 -93.8164 220.751 -270.468
c-19.2383 -104.693 -123.396 -142.871 -224.802 -142.871c-62.1582 0 -107.233 9.81543 -153.449 37.1152l8.43164 33.7891h4.34961c41.9922 -38.1855 82.6787 -54.5215 145.898 -54.5215c78.4941 0 127.038 32.7266 137.664 90.5273
c27.457 149.398 -251.827 101.405 -220.964 269.311c17.4375 94.8779 112.134 135.234 210.252 135.234z" />
    <glyph glyph-name="t" unicode="t" horiz-adv-x="351" 
d="M197.24 384.865l-47.6543 -259.148c-12.2305 -66.5547 14.5186 -99.2734 70.1016 -99.2734c27.2607 0 61.0342 8.85645 80.7754 27.3711l2.32812 -2.28906c-26.6943 -32.7188 -69.8896 -59.9795 -130.979 -59.9795c-82.8438 0 -124.797 44.7061 -107.958 136.343
l65.2812 355.151l-74.208 -0.370117l1.73828 9.4541h74.208l28.4561 154.81h86.0684s-2.33594 -25.1211 -10.248 -55.7793c-9.25684 -35.8496 -26.1357 -79.2656 -55.8818 -99.0391h196.889l-1.73828 -9.4541l-159.23 -0.133789z" />
    <glyph glyph-name="u" unicode="u" horiz-adv-x="568" 
d="M528.129 488.118l-88.2305 -480.033h71.9268l-1.76953 -9.62695h-159.207l12.0254 65.4463c-50.998 -52.3428 -108.862 -76.3633 -168.89 -76.3633c-100.336 0 -145.906 66.5547 -128.068 163.603l60.2158 327.64l-71.9424 -0.118164l1.73828 9.4541h159.207
l-61.7412 -335.905c-14.2363 -77.4326 2.60254 -134.125 78.9658 -134.125c40.3086 0 85.1875 18.5615 134.518 67.6162l72.0059 393.242l-71.6992 -0.283203l1.73828 9.4541h159.207z" />
    <glyph glyph-name="v" unicode="v" horiz-adv-x="566" 
d="M448.057 488.122h158.138l-1.73828 -9.4541c-38.8535 0 -78.1875 -23.3906 -99.667 -59.2793l-255.909 -427.448h-15.2666l-130.177 486.728h-56.2441l1.73828 9.4541h224.645l-1.73828 -9.4541h-72.3047l94.0361 -379.864l225.998 379.864h-73.248z" />
    <glyph glyph-name="w" unicode="w" horiz-adv-x="803" 
d="M687.976 487.122l155.927 -0.000976562l-1.73828 -9.4541c-37.9805 0 -76.2842 -23.6738 -95.9551 -59.3105l-235.357 -426.347h-15.2744l-70.6211 363.119l-199.846 -363.119h-15.2744l-109.35 485.658h-53.2939l1.73828 9.4541h221.451l-1.73828 -9.4541h-73.1621
l72.7217 -370.048l208.27 379.502h11.9863l69.3555 -376.262l200.326 366.808h-71.9033z" />
    <glyph glyph-name="x" unicode="x" horiz-adv-x="564" 
d="M576.401 480.668c-38.4131 0 -77.959 -17.5234 -107.406 -47.5918l-147 -150.154l141.022 -272.827l48.2217 -0.385742l-0.172852 -9.24121h-233.352l1.69922 9.24121l88.8135 0.385742l-110.923 211.738l-208.931 -211.738h82.8125l-1.76953 -9.62695h-164.712
l1.9502 10.5869c37.7764 -0.605469 76.9287 16.2812 106.124 45.7832l177.367 179.2l-127.133 244.63h-59.1221l1.73828 9.4541h243.207l-1.73828 -9.4541h-88.0742l94.6416 -183.589l178.995 183.589h-79.8154l1.73828 9.4541h163.556z" />
    <glyph glyph-name="y" unicode="y" horiz-adv-x="565" 
d="M447.694 487.083l158.129 -0.000976562l-1.73828 -9.4541c-38.0908 0 -76.2607 -24.9795 -93.918 -61.4658l-119.904 -247.776c-30.4775 -62.9922 -58.7139 -126.661 -84.6533 -190.888l-0.37793 -0.935547c-16.0762 -39.8057 -43.6982 -77.1416 -77.125 -107.918
c-53.7109 -49.4951 -122.869 -77.9043 -189.755 -77.9043h-2.15527l14.9834 81.5225h82.0732c42.7861 0.550781 87.0674 19.042 121.398 50.6758c24.8379 22.8721 43.0146 51.3516 52.5625 81.5381l-77.6367 0.157227l-126.503 472.995h-56.2441l1.73828 9.4541h224.645
l-1.73828 -9.4541h-72.3047l107.714 -435.125l212.32 435.125h-73.248z" />
    <glyph glyph-name="z" unicode="z" horiz-adv-x="431" 
d="M448.062 490.122l-2.00586 -10.9258l-385.778 -469.102h315.889l-0.700195 -9.62695h-406.763l2.01367 10.9248l384.387 469.275h-283.562l1.36816 9.4541h375.152z" />
    <glyph glyph-name="braceleft" unicode="{" horiz-adv-x="309" 
d="M328.229 701.632l20.8428 2.08984l-0.621094 -8.59668l-13.3555 -2.09961c-54.0498 -11.8848 -95.8291 -59.209 -102.412 -134.502l-14.2598 -145.27c-6.58301 -75.293 -68.8125 -128.005 -157.304 -145.269c81.9785 -15.0303 122.948 -67.7422 98.1025 -143.099
l-44.3828 -145.207c-23.5479 -79.6895 3.06836 -123.805 49.292 -134.501l12.2695 -3.2793l-2.62695 -7.47949l-19.9932 2.09961c-105.417 10.7676 -148.117 76.4102 -117.16 176.518l46.2627 144.152c17.5 54.8828 -11.4678 92.5566 -68.5059 103.324l3.46875 17.2012
c61.3799 10.7598 105.314 47.3252 111.213 103.254l12.9385 144.216c7.29883 100.037 76.4648 165.68 186.231 176.447z" />
    <glyph glyph-name="braceright" unicode="}" horiz-adv-x="301" 
d="M186.988 380.969c-17.7119 -55.9287 12.5898 -92.4922 69.5654 -103.244l-3.46875 -17.2012c-61.3164 -10.7676 -106.596 -48.4492 -110.111 -103.324l-11.8682 -144.152c-9.42285 -100.107 -79.7061 -165.75 -188.348 -176.518l-20.9053 -2.09961l0.456055 7.47949
l12.4746 3.2793c51.6582 10.6963 96.0645 54.8115 103.536 134.501l15.2979 145.207c5.48242 75.3564 67.7744 128.068 155.817 143.099c-81.5303 17.2637 -122.555 69.9756 -98.7783 145.269l43.2744 145.27c24.8936 75.293 1.09375 122.618 -48.1738 134.502
l-11.3887 2.09961l2.78418 8.59668l20.0566 -2.09961c104.308 -10.7598 148.108 -76.4102 115.004 -176.447z" />
    <glyph glyph-name="asciitilde" unicode="~" horiz-adv-x="437" 
d="M406.2 379.571l12.3975 0.761719c0.228516 -8.5498 -1.86328 -21.7637 -3.78223 -31.2881c-10.4609 -51.8711 -43.6914 -81.7979 -100.431 -81.7979c-42.3613 0 -80.79 24.2959 -112.927 47.0264c-34.1582 24.2881 -64.8164 49.5508 -96.0957 49.5508
c-39.2471 0 -70.6289 -35.1729 -78.7773 -75.584c-2.62695 -13.0166 -2.57227 -22.3447 -2.61914 -25.4512l-12.5918 -1.75391c0.0947266 10.1064 1.66797 20.7871 3.98047 32.2549c11.043 54.7969 51.3994 86.2734 102.114 86.2734
c46.8213 0 82.5293 -25.2627 113.077 -46.2471c35.1338 -24.2881 70.0625 -49.543 101.351 -49.543c33.0342 0 63.6689 30.5088 72.25 73.0596c1.69141 8.36035 2.08496 17.0986 2.05371 22.7383z" />
    <glyph glyph-name="nonbreakingspace" unicode="&#xa0;" horiz-adv-x="357" 
 />
    <glyph glyph-name="cent" unicode="&#xa2;" horiz-adv-x="540" 
d="M460.392 532.927c22.9111 -15.3369 40.4043 -34.6436 54.1602 -56.6738l-12.624 -21.999c-1.52539 6.95312 -2.50098 14.1729 -5.01758 20.6299c-8.4707 21.7393 -22.25 39.0273 -41.417 51.8633c-12.9775 8.69141 -27.8193 13.5596 -43.5107 16.6982
c-7.4873 1.49414 -14.7705 3.39746 -22.8721 3.63379c-23.0684 0.652344 -47.167 -3.66602 -72.2881 -12.8291c-2.22559 -0.810547 -4.44336 -1.59668 -6.68457 -2.48535c-2.6582 -1.05371 -5.31641 -2.20215 -7.97461 -3.3584
c-24.9404 -10.8223 -50.0615 -26.0889 -75.4346 -45.9092c-28.0625 -21.9355 -54.6787 -48.7637 -79.8076 -80.5156c-25.1611 -31.7832 -44.7529 -63.3145 -58.832 -94.6182c-14.0625 -31.3037 -22.5098 -60.6719 -25.3486 -88.1289s-0.0390625 -52.0596 8.42383 -73.8066
c8.43945 -21.7549 22.2432 -39.0508 41.4102 -51.8867s41.1348 -20.3076 66.4053 -20.3076c10.9639 0 21.5029 0.621094 31.7354 1.6748c4.69531 0.479492 9.29688 1.10059 13.8428 1.78516c159.301 24.0908 225.188 169.604 235.035 186.098l13.3555 -75.9775
c-0.566406 -0.723633 -0.912109 -1.45508 -1.4707 -2.1709c-24.1221 -30.4697 -105.472 -114.14 -250.355 -124.978l-18.082 -89.6631h-13.4805l17.917 88.8838c-5.82812 -0.244141 -11.7432 -0.40918 -17.7832 -0.40918c-35.9121 0 -66.3584 11.3496 -92.5254 28.8652
c-26.1748 17.5234 -39.6631 39.4355 -53.875 65.6738c-14.2363 26.207 -18.0352 54.8438 -19.1289 85.8643c-1.10156 31.0518 4.24707 63.4639 16.0293 97.2207c11.79 33.7656 30.5879 66.9492 56.4014 99.5586c25.7979 32.585 54.3643 59.2324 85.6758 79.918
c31.3115 20.6777 63.2051 35.3066 95.6729 43.8877c10.626 2.80762 21.2051 4.84473 31.7363 6.26855l20.2061 100.218h13.4805l-19.9062 -98.7393c16.918 1.31348 33.7256 0.873047 50.3994 -1.43164c12.4824 -1.73047 24.2168 -5.30078 35.8496 -9.09961
c17.752 -5.78906 34.8662 -13.167 50.6826 -23.7539z" />
    <glyph glyph-name="sterling" unicode="&#xa3;" horiz-adv-x="582" 
d="M429.42 672.557c63.4795 0 107.451 -15.0303 146.345 -40.8828l-23.7842 -117.938h-11.4912l20.5283 101.791c-26.8359 21.5273 -77.1807 38.791 -130.947 38.791c-96.8203 0 -163.643 -59.209 -183.164 -156.037c-13.6777 -67.8135 6.62988 -126.951 7.40039 -197.981
l-0.172852 -2.66602h155.141l-2.72168 -13.4805h-153.331c-0.479492 -18.3184 -3.10645 -36.5654 -7.00781 -55.9297c-16.9258 -73.1934 -123.633 -201.018 -216.261 -244.079l235.177 -0.424805c106.833 13.1895 212.533 100.973 233.989 207.389h9.66602l-41.8818 -207.75
l-2.05273 -10.1543h-447.567l11.0664 54.875c74.9863 57.0459 108.193 109.758 121.431 175.4c5.63965 27.9609 6.73242 54.876 5.49805 80.6738h-144.491l2.72168 13.4805h140l-0.353516 2.66602c-3.75977 55.9209 -14.4248 109.75 -1.62793 173.229
c24.5156 121.572 144.507 199.028 277.893 199.028z" />
    <glyph glyph-name="yen" unicode="&#xa5;" horiz-adv-x="765" 
d="M536.385 665.95h168.961l-1.90332 -9.46973h-58.0371l-301.409 -400.306l-1.73828 -8.59668l-0.370117 -1.85645h112.613l-2.71387 -13.4805h-112.621l-0.370117 -1.86426l-12.293 -60.9395h112.613l-2.71387 -13.4805h-112.621l-6.26855 -31.0674l-3.25586 -16.1553
l-25.2783 -125.395h89.3408l-2.05273 -10.1543h-267.888l2.04492 10.1543h88.2236l25.2861 125.395l3.25586 16.1553l6.26855 31.0674h-108.287l2.72168 13.4805h108.287l12.2852 60.9395l0.141602 1.86426h-108.052l2.72168 13.4805h106.353l0.133789 1.85645
l-135.847 408.902h-53.916l1.90332 9.46973h245.314l-1.90332 -9.46973h-87.8857l118.441 -381.995l288.022 381.995h-89.4189z" />
    <glyph glyph-name="copyright" unicode="&#xa9;" horiz-adv-x="774" 
d="M545.834 509.874c18.8369 -12.6152 33.2275 -28.4902 44.5459 -46.6113l-10.3896 -18.0898c-1.24316 5.71777 -2.05371 11.6562 -4.11426 16.9648c-6.96875 17.8779 -18.3027 32.0898 -34.0645 42.6445c-10.6729 7.14941 -22.8721 11.1523 -35.7783 13.7324
c-6.16602 1.22656 -12.1514 2.7998 -18.8135 2.98828c-20.6543 0.589844 -42.291 -3.61035 -64.9424 -12.5928c-22.6436 -8.97461 -45.5 -22.4717 -68.584 -40.5068s-44.9648 -40.0967 -65.627 -66.209c-20.6855 -26.1357 -36.793 -52.0596 -48.3701 -77.8018
c-11.5693 -25.7432 -18.5146 -49.8896 -20.8428 -72.4707c-2.33594 -22.5811 -0.0390625 -42.8105 6.92969 -60.6885c6.9375 -17.8857 18.2871 -32.1064 34.0488 -42.6611s33.8125 -16.6973 54.6006 -16.6973c158.342 0 221.916 141.077 230.749 155.871l10.9795 -62.4805
c-0.463867 -0.589844 -0.739258 -1.19531 -1.21094 -1.78516c-21.2285 -26.8125 -96.3174 -103.741 -231.692 -103.741c-29.5254 0 -54.5762 9.33594 -76.0879 23.7373c-21.5195 14.4092 -32.625 32.4287 -44.3047 54.0029
c-11.6953 21.5508 -14.8252 45.0986 -15.7217 70.6055c-0.904297 25.5381 3.5 52.1934 13.1816 79.9492c9.68945 27.7559 25.1445 55.04 46.373 81.8604c21.2041 26.7969 44.6973 48.7012 70.4482 65.7139c25.7432 17.0049 51.9658 29.0303 78.668 36.085
c26.6631 7.04688 52.9404 8.77734 78.8721 5.19824c10.2637 -1.43164 19.8984 -4.36523 29.4707 -7.4873c14.6133 -4.75879 28.6836 -10.8311 41.6768 -19.5303zM453.384 671.508c180.781 0 315.685 -136.673 271.859 -354.019
c-44.249 -219.446 -234.067 -355.065 -414.849 -355.065c-180.718 0 -316.95 135.619 -272.701 355.065c43.833 217.346 234.973 354.019 415.69 354.019zM706.934 317.489c42.0947 208.749 -88.2783 335.7 -257.246 335.7c-170.014 0 -350.535 -126.951 -392.63 -335.7
s87.2246 -335.7 257.238 -335.7c168.968 0 350.535 126.951 392.638 335.7z" />
    <glyph glyph-name="softhyphen" unicode="&#xad;" horiz-adv-x="0" 
 />
    <glyph glyph-name="registered" unicode="&#xae;" horiz-adv-x="488" 
d="M307.461 674.735c110.805 0 192.256 -81.79 165.79 -213.083c-26.2539 -130.177 -140.692 -211.967 -251.497 -211.967c-109.759 0 -191.21 81.7979 -164.956 211.967c26.4658 131.293 140.904 213.083 250.663 213.083zM455.979 461.652
c24.7441 122.688 -50.832 195.882 -151.994 195.882c-100.1 0 -205.178 -73.1934 -229.922 -195.882c-24.5156 -121.572 51.0605 -194.702 151.168 -194.702c101.154 0 206.232 73.1299 230.748 194.702zM294.955 456.548l45.0361 -109.413h23.1074l-1.80078 -8.92676
h-90.3789l1.80078 8.92676h23.8389l-38.9951 102.845h-32.0898l-20.7402 -102.845h30.6738l-1.80078 -8.92676h-97.1973l1.80078 8.92676h28.8018l46.373 229.985h-28.8018l1.83301 9.08398h99.1875c42.3936 0 81.0117 -20.5908 71.7305 -66.5938
c-4.56934 -22.6836 -20.3232 -40.7109 -46.8135 -53.5625c-8.40039 -4.07422 -21.3311 -8.05371 -31.6025 -10.8848c4.16113 -0.463867 9.01367 -0.448242 13.7803 0.794922zM227.803 461.581c9.09961 -1.00684 42.2842 -2.87891 68.6172 19.0254
c10.248 8.53418 16.8701 20.7959 20.2441 37.4932c7.51074 37.249 -5.66309 56.1416 -39.1611 56.1416h-26.9775z" />
    <glyph glyph-name="Agrave" unicode="&#xc0;" 
d="M567.167 726.258c-1.86426 0.826172 -187.536 83.1816 -267.171 94.9326l-4.60156 0.676758l25.9316 48.7324l3.7041 -2.85547c63.3379 -48.7715 247.406 -127.644 249.255 -128.438l3.12988 -1.33691l-6.55957 -13.3477zM553.938 82.501
c7.47168 -39.2939 40.3105 -65.2783 82.3027 -65.1055l-1.65137 -8.98242h-260.651l1.59668 8.70703h91.582l-40.0654 214.829l-9.04492 49.0469l-5.78125 -6.77148l-119.196 -139.725l-12.0654 -14.0869c-2.53223 -2.85547 -5.1748 -5.41992 -7.74707 -8.18848
c-95.585 -102.939 -214.026 -151.208 -271.576 -107.171s-32.4443 163.722 53.9385 273.692c2.3125 2.94141 4.38867 5.89062 6.78711 8.81641l12.5449 14.708l270.459 312.113l8.50977 9.83105l-15.8564 66.8379l94.1621 31.6104l64.2109 -337.604l123.86 145.474
l1.91895 -10.1934l-123.892 -145.238zM410.299 283.945l5.89062 6.91309l-58.501 317.305l-1.6123 6.80371l-8.8252 -10.1543l-215.898 -248.445l-24.8613 -29.085l-20.7402 -24.2715l-0.322266 -0.259766c-81.7822 -103.923 -64.6602 -182.7 -10.2725 -224.322
c57.1172 -43.707 137.105 -26.2227 229.396 81.4668l0.841797 0.983398l32.2314 37.7139z" />
    <glyph glyph-name="Aacute" unicode="&#xc1;" 
d="M212.149 726.258l-4.28711 -1.63477l-1.65137 13.3477l3.62598 1.33691c2.13965 0.786133 215.199 79.6582 296.47 128.438l4.75879 2.85547l8.01465 -48.7324l-4.85254 -0.676758c-83.9609 -11.751 -299.907 -94.1074 -302.078 -94.9336zM553.945 82.5029
c7.47168 -39.2939 40.3184 -65.2783 82.3027 -65.1133l-1.65137 -8.98242h-260.651l1.59668 8.70703h91.5742l-40.0654 214.829l-9.04492 49.0469l-5.78125 -6.77148l-119.196 -139.725l-12.0654 -14.0869c-2.53223 -2.85547 -5.1748 -5.41992 -7.74707 -8.18848
c-95.585 -102.939 -214.026 -151.208 -271.576 -107.171s-32.4443 163.722 53.9385 273.692c2.3125 2.94141 4.38867 5.89062 6.78711 8.81641l12.5449 14.708l270.459 312.121l8.50977 9.83105l-15.8564 66.8379l94.1621 31.6104l64.2109 -337.604l123.868 145.474
l1.91895 -10.1934l-123.892 -145.238zM410.306 283.947l5.89062 6.91309l-58.501 317.305l-1.6123 6.80371l-8.8252 -10.1543l-215.898 -248.445l-24.8613 -29.085l-20.7402 -24.2715l-0.322266 -0.259766c-81.7822 -103.923 -64.6602 -182.7 -10.2725 -224.322
c57.1172 -43.707 137.105 -26.2227 229.396 81.4668l0.841797 0.983398l32.2314 37.7139z" />
    <glyph glyph-name="Acircumflex" unicode="&#xc2;" horiz-adv-x="698" 
d="M553.938 82.501c7.47168 -39.2939 40.3105 -65.2783 82.3027 -65.1055l-1.65137 -8.98242h-260.651l1.59668 8.70703h91.582l-40.0654 214.829l-9.04492 49.0469l-5.78125 -6.77148l-119.196 -139.725l-12.0654 -14.0869
c-2.53223 -2.85547 -5.1748 -5.41992 -7.74707 -8.18848c-95.585 -102.939 -214.026 -151.208 -271.576 -107.171s-32.4443 163.722 53.9385 273.692c2.3125 2.94141 4.38867 5.89062 6.78711 8.81641l12.5449 14.708l270.459 312.113l8.50977 9.83105l-15.8564 66.8379
l94.1621 31.6104l64.2109 -337.604l123.86 145.474l1.91895 -10.1934l-123.892 -145.238zM410.298 283.945l5.89062 6.91309l-58.501 317.305l-1.6123 6.80371l-8.8252 -10.1543l-215.898 -248.445l-24.8613 -29.085l-20.7402 -24.2715l-0.322266 -0.259766
c-81.7822 -103.923 -64.6602 -182.7 -10.2725 -224.322c57.1172 -43.707 137.105 -26.2227 229.396 81.4668l0.841797 0.983398l32.2314 37.7139zM207.62 724.622l-3.72949 -2.51758l-6.19727 12.1748l3.2959 2.28906c53.4199 37.0996 161.574 114.493 224.103 162.777
l3.06738 2.36719l2.19434 -2.36719c44.7451 -48.2529 124.467 -125.662 164.265 -162.777l2.4541 -2.28906l-10.6729 -12.1748l-2.81543 2.5166c-45.0674 40.2773 -110.199 93.9414 -165.586 121.871c-65.6504 -27.9209 -150.5 -81.585 -210.378 -121.87z" />
    <glyph glyph-name="Atilde" unicode="&#xc3;" 
d="M223.047 765.158c-2.39062 -13.0166 -2.1748 -22.3457 -2.16699 -25.4678l-12.5605 -1.75391c-0.0869141 10.1064 1.28906 20.7871 3.39648 32.2549c10.0752 54.7969 49.8652 86.2734 100.58 86.2734c46.8213 0 82.9775 -25.2627 113.903 -46.2471
c35.5664 -24.2881 70.9443 -49.543 102.232 -49.543c33.0342 0 63.126 30.5088 70.9443 73.0596c1.53418 8.36035 1.77832 17.0986 1.64453 22.7383l12.3877 0.77832c0.37793 -8.5498 -1.4707 -21.7637 -3.22461 -31.2881
c-9.53223 -51.8711 -42.2275 -81.7979 -98.9668 -81.7979c-42.3613 0 -81.2227 24.2959 -113.769 47.0264c-34.5908 24.2881 -65.6973 49.5508 -96.9766 49.5508c-39.2471 0 -70 -35.1729 -77.4248 -75.584zM553.938 82.5
c7.47949 -39.2939 40.3184 -65.2783 82.3105 -65.1133l-1.65137 -8.98242h-260.651l1.59668 8.70703h91.582l-40.0654 214.829l-9.04492 49.0469l-5.78125 -6.77148l-119.204 -139.717l-12.0654 -14.0869c-2.53223 -2.85547 -5.1748 -5.41992 -7.74707 -8.18848
c-95.585 -102.939 -214.026 -151.208 -271.576 -107.171s-32.4443 163.722 53.9385 273.692c2.3125 2.94141 4.38867 5.89062 6.78711 8.81641l12.5449 14.708l270.459 312.113l8.50977 9.83105l-15.8564 66.8379l94.1621 31.6104l64.2109 -337.604l123.86 145.474
l1.91895 -10.1934l-123.892 -145.238zM410.299 283.944l5.89062 6.91211l-58.501 317.305l-1.6123 6.80371l-8.8252 -10.1543l-215.898 -248.444l-24.8613 -29.085l-20.7402 -24.2715l-0.322266 -0.259766c-81.7822 -103.923 -64.6602 -182.7 -10.2725 -224.322
c57.1172 -43.707 137.105 -26.2227 229.396 81.4668l0.841797 0.983398l32.2314 37.7139z" />
    <glyph glyph-name="Adieresis" unicode="&#xc4;" 
d="M553.938 82.501c7.47168 -39.2939 40.3184 -65.2783 82.3027 -65.1055l-1.65137 -8.98242h-260.651l1.59668 8.70703h91.582l-40.0654 214.829l-9.04492 49.0469l-5.78125 -6.77148l-119.196 -139.725l-12.0654 -14.0869
c-2.53223 -2.85547 -5.1748 -5.41992 -7.74707 -8.18848c-95.585 -102.939 -214.026 -151.208 -271.576 -107.171s-32.4443 163.722 53.9385 273.692c2.3125 2.94141 4.38867 5.89062 6.78711 8.81641l12.5449 14.708l270.459 312.113l8.50977 9.83105l-15.8564 66.8379
l94.1621 31.6104l64.2109 -337.604l123.86 145.474l1.91895 -10.1934l-123.892 -145.238zM410.298 283.945l5.89062 6.91309l-58.501 317.305l-1.6123 6.80371l-8.8252 -10.1543l-215.898 -248.445l-24.8613 -29.085l-20.7402 -24.2715l-0.322266 -0.259766
c-81.7822 -103.923 -64.6602 -182.7 -10.2725 -224.322c57.1172 -43.707 137.105 -26.2227 229.396 81.4668l0.841797 0.983398l32.2314 37.7139zM393.962 828.922l-66.083 -55.8271l-45.5625 55.8271l66.083 55.8271zM540.608 828.922l-66.083 -55.8271l-45.5625 55.8271
l66.083 55.8271z" />
    <glyph glyph-name="Aring" unicode="&#xc5;" 
d="M553.938 82.501c7.47168 -39.2939 40.3105 -65.2783 82.3027 -65.1055l-1.65137 -8.98242h-260.651l1.59668 8.70703h91.582l-40.0654 214.829l-9.04492 49.0469l-5.78125 -6.77148l-119.196 -139.725l-12.0654 -14.0869
c-2.53223 -2.85547 -5.1748 -5.41992 -7.74707 -8.18848c-95.585 -102.939 -214.026 -151.208 -271.576 -107.171s-32.4443 163.722 53.9385 273.692c2.3125 2.94141 4.38867 5.89062 6.78711 8.81641l12.5449 14.708l270.459 312.113l8.50977 9.83105l-15.8564 66.8379
l94.1621 31.6104l64.2109 -337.604l123.86 145.474l1.91895 -10.1934l-123.892 -145.238zM410.298 283.945l5.89062 6.91309l-58.501 317.305l-1.6123 6.80371l-8.8252 -10.1543l-215.898 -248.445l-24.8613 -29.085l-20.7402 -24.2715l-0.322266 -0.259766
c-81.7822 -103.923 -64.6602 -182.7 -10.2725 -224.322c57.1172 -43.707 137.105 -26.2227 229.396 81.4668l0.841797 0.983398l32.2314 37.7139zM393.025 774.865c-29.2344 0 -48.5586 24.249 -43.0762 54.0576c5.39551 29.376 33.5684 53.2705 62.8027 53.2705
c29.958 0 49.9277 -23.8945 44.5322 -53.2705c-5.56836 -30.3125 -33.7969 -54.0576 -64.2588 -54.0576zM363.555 828.924c-4.02734 -21.9277 10.6104 -40.4502 31.9717 -40.4502c22.3057 0 43.7852 18.1445 47.8828 40.4502
c3.99512 21.7314 -10.9014 39.4043 -33.207 39.4043c-21.3613 0 -42.7227 -18.043 -46.6475 -39.4043z" />
    <glyph glyph-name="AE" unicode="&#xc6;" horiz-adv-x="900" 
d="M846.356 160.634h8.70898l-27.9453 -152.025h-192.492l-0.0390625 -0.204102h-260.651l1.59668 8.70703h91.582l-40.0654 214.829l-9.04492 49.0469l-5.78125 -6.77148l-119.196 -139.725l-12.0654 -14.0869c-2.53223 -2.85547 -5.1748 -5.41992 -7.74707 -8.18848
c-95.585 -102.939 -214.026 -151.208 -271.576 -107.171s-32.4443 163.722 53.9385 273.692c2.3125 2.94141 4.38867 5.89062 6.78711 8.81641l12.5449 14.708l270.467 312.113l8.50977 9.83105l-15.8564 66.8379l94.1621 31.6104l3.2793 -17.248h313.128l-33.1357 -180.293
h-9.27344c16.627 90.4648 -52.6572 163.697 -143.17 163.383l-124.254 -0.44043l57.6279 -302.998l1.89551 -9.95703l6.52051 -34.292h190.872l-1.8252 -9.91016h-187.167l47.2461 -248.397c6.68555 -35.1182 33.6475 -59.5479 69.2686 -64.2354h62.4023
c74.3262 0 147.087 68.042 160.749 142.368zM410.306 283.943l5.89062 6.91309l-58.501 317.305l-1.6123 6.80371l-8.8252 -10.1543l-215.898 -248.445l-24.8613 -29.085l-20.7402 -24.2715l-0.322266 -0.259766c-81.7822 -103.923 -64.6602 -182.7 -10.2725 -224.322
c57.1172 -43.707 137.105 -26.2227 229.396 81.4668l0.841797 0.983398l32.2314 37.7139z" />
    <glyph glyph-name="Ccedilla" unicode="&#xc7;" 
d="M616.416 659.184c32.0273 -21.1963 56.6807 -47.8613 76.2021 -78.2676l-16.9102 -30.3984c-2.25684 9.60352 -3.79883 19.5762 -7.41699 28.4951c-12.2461 30.0215 -31.7119 53.9082 -58.5088 71.6367c-18.1367 12.002 -38.7588 18.7266 -60.5137 23.0605
c-10.374 2.07617 -20.4961 4.70312 -31.6885 5.02539c-34.709 0.983398 -70.9355 -6.07129 -108.712 -21.1562c-37.7764 -15.0771 -75.7646 -37.752 -113.997 -68.0488s-74.334 -67.3652 -108.272 -111.229c-33.9697 -43.9033 -60.2549 -87.4609 -78.9268 -130.703
s-29.6123 -83.8105 -32.8525 -121.744c-3.24023 -37.9258 1.22754 -71.9111 13.4658 -101.948c12.1836 -30.0527 31.6895 -53.9473 58.4785 -71.6758c26.7969 -17.7363 57.3213 -28.0557 92.2344 -28.0557c266.008 0 368.577 237.009 382.971 261.854l20.3154 -104.961
c-0.754883 -0.991211 -1.21094 -2.00586 -1.97363 -2.99707c-33.4268 -43.1953 -148.723 -163.705 -358.62 -173.561l0.275391 -2.43848c3.09082 -27.709 15.8164 -51.627 35.0469 -69.6855c12.7256 -11.9473 18.8525 -26.8594 15.2822 -46.2783
c-6.41797 -34.9053 -39.3809 -60.3965 -85.4707 -60.3965c-27.2217 0 -41.6543 6.98438 -54.7021 15.7148l1.3291 5.3877c10.3193 -12.1992 28.2207 -15.5186 50.9043 -15.5186c27.2373 0 47.207 17.4688 54.0107 54.459
c6.54395 35.6055 -0.180664 59.5703 -38.3975 79.4609l17.335 39.0586c-7.58984 -0.298828 -15.2822 -0.487305 -23.1162 -0.487305c-49.5977 0 -91.9512 15.6748 -128.524 39.876s-55.7646 54.4746 -76.041 90.7178c-20.2998 36.2031 -26.2617 75.7725 -28.5352 118.614
c-2.28125 42.9043 4.30176 87.6729 19.749 134.306c15.4395 46.6328 40.5918 92.4707 75.4502 137.522c34.8271 45.0127 73.6182 81.8213 116.373 110.396c42.7471 28.5664 86.4385 48.7725 131.081 60.625c44.5801 11.8369 88.6797 14.7471 132.339 8.73047
c17.2793 -2.39844 33.5762 -7.33008 49.7471 -12.5762c24.6729 -7.99902 48.4883 -18.1924 70.5898 -32.8135z" />
    <glyph glyph-name="Egrave" unicode="&#xc8;" horiz-adv-x="557" 
d="M81.1318 705.194l507.051 0.0078125l-33.1357 -180.293h-9.27344c16.627 90.457 -52.6494 163.689 -143.17 163.375l-150.201 -0.535156l-57.9189 -315.126l-3.20898 -17.4531l-2.68164 -14.582h93.3906l-1.8252 -9.91016h-93.3906l-56.0156 -304.775l51.2256 -0.0625
h138.065c74.3262 0 145.655 60.2471 159.317 134.573h8.69922l-27.9453 -152.025h-507.052l1.59668 8.70703h82.8906l124.789 678.929h-82.8906zM479.155 726.257c-1.86426 0.826172 -187.536 83.1816 -267.171 94.9326l-4.60156 0.676758l25.9316 48.7324l3.7041 -2.85547
c63.3379 -48.7715 247.406 -127.644 249.255 -128.438l3.12988 -1.33691l-6.55957 -13.3477z" />
    <glyph glyph-name="Eacute" unicode="&#xc9;" horiz-adv-x="557" 
d="M81.1279 705.194l507.059 0.0078125l-33.1357 -180.293h-9.27344c16.627 90.457 -52.6572 163.689 -143.17 163.375l-150.201 -0.535156l-57.9189 -315.126l-3.20898 -17.4531l-2.68164 -14.582h93.3906l-1.8252 -9.91016h-93.3906l-56.0156 -304.775l51.2256 -0.0625
h138.065c74.3184 0 145.647 60.2471 159.31 134.573h8.69922l-27.9453 -152.025h-507.052l1.59668 8.70703h82.8906l124.789 678.929h-82.8906zM197.894 726.257l-4.29492 -1.63477l-1.65137 13.3477l3.62598 1.33691c2.13965 0.786133 215.199 79.6582 296.47 128.438
l4.75879 2.85547l8.02246 -48.7324l-4.85254 -0.676758c-83.9609 -11.751 -299.907 -94.1074 -302.078 -94.9336z" />
    <glyph glyph-name="Ecircumflex" unicode="&#xca;" horiz-adv-x="557" 
d="M81.1318 705.194l507.051 0.0078125l-33.1357 -180.293h-9.27344c16.627 90.457 -52.6494 163.689 -143.17 163.375l-150.201 -0.535156l-57.9189 -315.126l-3.20898 -17.4531l-2.68164 -14.582h93.3906l-1.8252 -9.91016h-93.3906l-56.0156 -304.775l51.2256 -0.0625
h138.065c74.3262 0 145.655 60.2471 159.317 134.573h8.69922l-27.9453 -152.025h-507.052l1.59668 8.70703h82.8906l124.789 678.929h-82.8906zM150.242 724.621l-3.72949 -2.5166l-6.18945 12.1748l3.2959 2.28906c53.4121 37.0996 161.574 114.493 224.103 162.777
l3.06738 2.36719l2.19434 -2.36719c44.7451 -48.2529 124.467 -125.662 164.265 -162.777l2.4541 -2.28906l-10.6729 -12.1748l-2.81543 2.5166c-45.0674 40.2773 -110.199 93.9414 -165.586 121.87c-65.6504 -27.9209 -150.508 -81.585 -210.386 -121.87z" />
    <glyph glyph-name="Edieresis" unicode="&#xcb;" horiz-adv-x="557" 
d="M81.1318 705.194l507.051 0.0078125l-33.1357 -180.293h-9.27344c16.627 90.457 -52.6494 163.689 -143.17 163.375l-150.201 -0.535156l-57.9189 -315.126l-3.20898 -17.4531l-2.68164 -14.582h93.3906l-1.8252 -9.91016h-93.3906l-56.0156 -304.775l51.2256 -0.0625
h138.065c74.3262 0 145.655 60.2471 159.317 134.573h8.69922l-27.9453 -152.025h-507.052l1.59668 8.70703h82.8906l124.789 678.929h-82.8906zM339.895 828.921l-66.0752 -55.8271l-45.5625 55.8271l66.083 55.8271zM486.541 828.921l-66.0752 -55.8271l-45.5625 55.8271
l66.083 55.8271z" />
    <glyph glyph-name="Igrave" unicode="&#xcc;" horiz-adv-x="289" 
d="M79.4531 696.023l1.68359 9.1709h258.434l-1.68359 -9.1709h-83.9609l-124.789 -678.921h83.9609l-1.60449 -8.70703h-258.434l1.60449 8.70703h82.8828l124.789 678.921h-82.8828zM361.963 739.298l3.13867 -1.33789l-6.55957 -13.3477l-3.68848 1.63574
c-1.86426 0.833984 -187.537 83.1826 -267.18 94.9336l-4.60156 0.676758l25.9316 48.7324l3.7041 -2.85547c63.3379 -48.7715 247.406 -127.644 249.255 -128.438z" />
    <glyph glyph-name="Iacute" unicode="&#xcd;" horiz-adv-x="290" 
d="M79.4453 696.023l1.69141 9.1709h258.426l-1.68359 -9.1709h-83.9531l-124.789 -678.921h83.9531l-1.59668 -8.70703h-258.434l1.59668 8.70703h82.8906l124.789 678.921h-82.8906zM372.502 870.599l8.01367 -48.7314l-4.85254 -0.676758
c-83.9609 -11.751 -299.907 -94.1074 -302.078 -94.9336l-4.28613 -1.63574l-1.65137 13.3477l3.62598 1.33691c2.13965 0.786133 215.199 79.6582 296.47 128.438z" />
    <glyph glyph-name="Icircumflex" unicode="&#xce;" horiz-adv-x="291" 
d="M79.4492 696.023l1.69141 9.1709h258.426l-1.68359 -9.1709h-83.9531l-124.789 -678.921h83.9531l-1.59668 -8.70703h-258.434l1.59668 8.70703h82.8906l124.789 678.921h-82.8906zM412.933 736.568l2.45312 -2.28906l-10.665 -12.1748l-2.81543 2.5166
c-45.0674 40.2773 -110.199 93.9414 -165.586 121.87c-65.6504 -27.9209 -150.5 -81.585 -210.378 -121.87l-3.73633 -2.5166l-6.19727 12.1748l3.2959 2.28906c53.4199 37.0996 161.582 114.493 224.103 162.777l3.06738 2.36719l2.19434 -2.36719
c44.7451 -48.2529 124.475 -125.662 164.265 -162.777z" />
    <glyph glyph-name="Idieresis" unicode="&#xcf;" horiz-adv-x="289" 
d="M79.4531 696.023l1.68359 9.1709h258.426l-1.68359 -9.1709h-83.9531l-124.789 -678.921h83.9531l-1.59668 -8.70703h-258.434l1.60449 8.70703h82.8828l124.789 678.921h-82.8828zM215.592 828.921l-66.083 -55.8271l-45.5625 55.8271l66.083 55.8271zM362.238 828.921
l-66.083 -55.8271l-45.5625 55.8271l66.083 55.8271z" />
    <glyph glyph-name="Eth" unicode="&#xd0;" horiz-adv-x="761" 
d="M442.201 705.194c169.015 0 333.661 -106.865 289.986 -344.566c-45.7041 -248.665 -246.855 -352.241 -421.336 -352.241h-295.549l1.59668 8.70703h80.7119l57.7539 314.222h-151.491l1.62012 8.8252h151.491l65.415 355.883h-82.8906l1.68359 9.1709h301.008z
M628.453 354.061c44.0996 239.919 -76.0801 333.688 -199.272 333.688h-115.61l-63.8887 -347.601h151.569l-1.62012 -8.8252h-151.569l-56.1494 -305.483h117.781c162.447 0 280.275 118.851 318.76 328.222z" />
    <glyph glyph-name="Ntilde" unicode="&#xd1;" horiz-adv-x="650" 
d="M546.878 705.194l192.985 0.0078125l-1.68359 -9.1709h-87.2402l-126.386 -687.636h-18.5537l-328.127 653.202l-102.428 -557.263c-8.85645 -48.1816 23.0215 -87.2402 71.2031 -87.2402l-1.60449 -8.70703h-192.987l1.60449 8.70703h87.2402l124.789 678.929h-86.1709
l1.68359 9.1709h186.507l265.953 -546.299l82.7021 449.935c8.84863 48.1582 -23.0127 87.1934 -71.1709 87.1934zM239.159 765.158c-2.39844 -13.0166 -2.17383 -22.3457 -2.18164 -25.4678l-12.5527 -1.75391c-0.0869141 10.1064 1.28906 20.7871 3.39648 32.2549
c10.0752 54.7969 49.8652 86.2734 100.58 86.2734c46.8213 0 82.9854 -25.2627 113.903 -46.2471c35.5742 -24.2881 70.9521 -49.543 102.24 -49.543c33.0254 0 63.125 30.5088 70.9434 73.0596c1.53418 8.36035 1.77832 17.0986 1.64453 22.7383l12.3877 0.77832
c0.37793 -8.5498 -1.47852 -21.7637 -3.22461 -31.2881c-9.53223 -51.8711 -42.2275 -81.7979 -98.9668 -81.7979c-42.3613 0 -81.2227 24.2959 -113.769 47.0264c-34.5908 24.2881 -65.6973 49.5508 -96.9766 49.5508c-39.2471 0 -70 -35.1729 -77.4248 -75.584z" />
    <glyph glyph-name="Ograve" unicode="&#xd2;" horiz-adv-x="755" 
d="M587.469 726.258c-1.87207 0.826172 -187.536 83.1816 -267.171 94.9326l-4.60156 0.676758l25.9316 48.7324l3.7041 -2.85547c63.3379 -48.7715 247.398 -127.644 249.255 -128.438l3.12988 -1.33691l-6.55957 -13.3477zM735.995 454.326
c2.24902 -42.8809 -4.33203 -87.6504 -19.7949 -134.268c-15.4473 -46.6328 -40.5996 -92.4707 -75.4268 -137.483c-34.8584 -45.0596 -73.6494 -81.8604 -116.396 -110.435c-42.7393 -28.5664 -86.4385 -48.7803 -131.05 -60.6484
c-44.6191 -11.8135 -88.7666 -14.7393 -132.348 -8.6748c-43.6279 6.04785 -83.7793 21.1494 -120.36 45.3506c-36.5732 24.2012 -64.9902 54.4668 -85.2588 90.71c-20.2998 36.2031 -31.5312 75.7725 -33.8047 118.614c-2.28906 42.9043 4.30176 87.6729 19.749 134.306
s40.5918 92.4707 75.4502 137.522c34.835 45.0127 73.626 81.8135 116.373 110.388c42.7549 28.5664 86.4463 48.7803 131.089 60.625c44.5879 11.8369 88.6797 14.7471 132.347 8.73047c43.6357 -6.05664 83.7559 -21.1895 120.337 -45.3906
c36.5732 -24.2012 65.0137 -54.4346 85.29 -90.6768c20.2139 -36.251 31.5 -75.8047 33.8047 -118.67zM682.223 481.499c3.24023 37.9336 -1.22754 71.9189 -13.4424 101.979c-12.2383 30.0215 -31.7041 53.9082 -58.501 71.6367
c-26.7969 17.7363 -57.5498 27.0879 -92.2041 28.0869c-34.7168 0.991211 -70.9434 -6.06348 -108.72 -21.1484c-37.7764 -15.0771 -75.7734 -37.752 -113.998 -68.0488c-38.2324 -30.2891 -74.334 -67.3574 -108.272 -111.222
c-33.9697 -43.9033 -60.2549 -87.4609 -78.9268 -130.704c-18.6719 -43.251 -29.6123 -83.8115 -32.8525 -121.745c-3.24023 -37.9258 1.22754 -71.9111 13.4658 -101.948c12.1836 -30.0527 31.6816 -53.9473 58.4785 -71.6758
c26.8047 -17.7363 57.5186 -27.0723 92.2354 -28.0557c34.6934 -1.01465 70.9121 6.04004 108.696 21.125c37.7451 15.1016 75.7656 37.7451 113.99 68.0498c38.2402 30.2891 74.333 67.3574 108.303 111.261c33.9385 43.8643 60.2236 87.4219 78.8955 130.664
c18.6719 43.251 29.5811 83.835 32.8525 121.745z" />
    <glyph glyph-name="Oacute" unicode="&#xd3;" horiz-adv-x="755" 
d="M735.977 454.327c2.24902 -42.8809 -4.33203 -87.6494 -19.7637 -134.267c-15.4473 -46.6328 -40.5996 -92.4707 -75.4268 -137.483c-34.8584 -45.0596 -73.6572 -81.8604 -116.404 -110.435c-42.7393 -28.5664 -86.4385 -48.7803 -131.05 -60.6484
c-44.6191 -11.8135 -88.7666 -14.7393 -132.348 -8.6748c-43.6279 6.04785 -83.7793 21.1494 -120.36 45.3506s-64.998 54.4668 -85.2666 90.71c-20.2998 36.2031 -31.5234 75.7725 -33.8047 118.614c-2.28125 42.9043 4.30176 87.6729 19.749 134.306
c15.4395 46.6328 40.5918 92.4707 75.4502 137.522c34.8271 45.0127 73.6182 81.8135 116.365 110.388c42.7549 28.5664 86.4463 48.7803 131.089 60.625c44.5879 11.8369 88.6797 14.7471 132.339 8.73047c43.6357 -6.05664 83.7559 -21.1895 120.337 -45.3906
c36.5732 -24.2012 65.0137 -54.4346 85.29 -90.6777c20.2139 -36.251 31.5 -75.8047 33.8047 -118.67zM682.204 481.501c3.24023 37.9336 -1.22559 71.9189 -13.4404 101.979c-12.2305 30.0215 -31.7051 53.9082 -58.502 71.6367
c-26.7969 17.7363 -57.5498 27.0879 -92.2041 28.0869c-34.709 0.991211 -70.9355 -6.06348 -108.712 -21.1484c-37.7764 -15.0771 -75.7734 -37.752 -113.998 -68.0488c-38.2324 -30.2891 -74.334 -67.3574 -108.272 -111.222
c-33.9697 -43.9033 -60.2549 -87.4609 -78.9268 -130.704c-18.6719 -43.251 -29.6123 -83.8115 -32.8525 -121.745c-3.24023 -37.9258 1.22754 -71.9111 13.4658 -101.948c12.1748 -30.0527 31.6807 -53.9473 58.4775 -71.6758
c26.7969 -17.7363 57.5186 -27.0723 92.2354 -28.0557c34.6855 -1.01465 70.9121 6.04004 108.688 21.125c37.7373 15.1016 75.7656 37.7451 113.99 68.0498c38.2402 30.2891 74.333 67.3574 108.303 111.261c33.9385 43.8643 60.2236 87.4219 78.8955 130.664
c18.6719 43.251 29.5811 83.835 32.8525 121.745zM306.188 726.257l-4.28711 -1.63477l-1.65137 13.3477l3.62598 1.33691c2.13965 0.786133 215.199 79.6582 296.47 128.438l4.75879 2.85547l8.01465 -48.7324l-4.85254 -0.676758
c-83.9609 -11.751 -299.907 -94.1074 -302.078 -94.9336z" />
    <glyph glyph-name="Ocircumflex" unicode="&#xd4;" horiz-adv-x="755" 
d="M258.538 724.621l-3.72168 -2.5166l-6.19727 12.1748l3.2959 2.28906c53.4121 37.0996 161.574 114.493 224.095 162.777l3.06738 2.36719l2.19434 -2.36719c44.7451 -48.2529 124.467 -125.662 164.265 -162.777l2.4541 -2.28906l-10.665 -12.1748l-2.81543 2.5166
c-45.0674 40.2773 -110.199 93.9414 -165.586 121.87c-65.6582 -27.9209 -150.508 -81.585 -210.386 -121.87zM735.983 454.327c2.24902 -42.8809 -4.33984 -87.6494 -19.7793 -134.267c-15.4473 -46.6328 -40.5996 -92.4707 -75.4268 -137.483
c-34.8506 -45.0596 -73.6494 -81.8604 -116.396 -110.435c-42.7471 -28.5664 -86.4463 -48.7803 -131.05 -60.6484c-44.6191 -11.8135 -88.7666 -14.7393 -132.348 -8.6748c-43.6279 6.04785 -83.7793 21.1494 -120.36 45.3506s-64.998 54.4668 -85.2666 90.71
c-20.2998 36.2031 -31.5234 75.7725 -33.8047 118.614c-2.28125 42.9043 4.30176 87.6729 19.749 134.306c15.4395 46.6328 40.5918 92.4707 75.4502 137.522c34.835 45.0127 73.626 81.8135 116.373 110.388c42.7471 28.5664 86.4463 48.7803 131.089 60.625
c44.5879 11.8369 88.6797 14.7471 132.339 8.73047c43.6357 -6.05664 83.7559 -21.1895 120.337 -45.3906c36.5732 -24.2012 65.0137 -54.4346 85.29 -90.6777c20.2139 -36.251 31.5 -75.8047 33.8047 -118.67zM682.203 481.501
c3.24805 37.9336 -1.22852 71.9189 -13.4512 101.979c-12.2305 30.0215 -31.7051 53.9082 -58.502 71.6367c-26.7969 17.7363 -57.5498 27.0879 -92.2041 28.0869c-34.7168 0.991211 -70.9434 -6.06348 -108.712 -21.1484
c-37.7842 -15.0771 -75.7725 -37.752 -113.997 -68.0488c-38.2324 -30.2891 -74.3252 -67.3574 -108.271 -111.222c-33.9619 -43.9033 -60.2471 -87.4609 -78.9189 -130.704c-18.6719 -43.251 -29.6123 -83.8115 -32.8525 -121.745
c-3.24805 -37.9258 1.22754 -71.9111 13.4658 -101.948c12.1748 -30.0527 31.6807 -53.9473 58.4775 -71.6758c26.7969 -17.7363 57.5186 -27.0723 92.2354 -28.0557c34.6855 -1.01465 70.9121 6.04004 108.688 21.125c37.7373 15.1016 75.7578 37.7451 113.99 68.0498
c38.2324 30.2891 74.334 67.3574 108.304 111.261c33.9385 43.8643 60.2236 87.4219 78.8955 130.664c18.6719 43.251 29.5811 83.835 32.8525 121.745z" />
    <glyph glyph-name="Otilde" unicode="&#xd5;" horiz-adv-x="755" 
d="M735.984 454.327c2.25684 -42.8809 -4.33203 -87.6494 -19.7871 -134.267c-15.4473 -46.6328 -40.5996 -92.4707 -75.4268 -137.483c-34.8584 -45.0596 -73.6494 -81.8604 -116.396 -110.435c-42.7471 -28.5664 -86.4463 -48.7803 -131.05 -60.6484
c-44.6191 -11.8135 -88.7666 -14.7393 -132.348 -8.6748c-43.6279 6.04785 -83.7793 21.1494 -120.36 45.3506c-36.5732 24.2012 -64.9902 54.4668 -85.2588 90.71c-20.2998 36.2031 -31.5312 75.7725 -33.8047 118.614c-2.28125 42.9043 4.30176 87.6729 19.749 134.306
c15.4395 46.6328 40.5918 92.4707 75.4502 137.522c34.835 45.0127 73.626 81.8135 116.373 110.388c42.7549 28.5664 86.4463 48.7803 131.089 60.625c44.5801 11.8369 88.6719 14.7471 132.339 8.73047c43.6357 -6.05664 83.7559 -21.1895 120.337 -45.3906
c36.5732 -24.2012 65.0137 -54.4346 85.29 -90.6777c20.2139 -36.251 31.5 -75.8047 33.8047 -118.67zM682.212 481.501c3.24023 37.9336 -1.22656 71.9189 -13.4492 101.979c-12.2383 30.0215 -31.7041 53.9082 -58.501 71.6367
c-26.7969 17.7363 -57.5498 27.0879 -92.2041 28.0869c-34.7168 0.991211 -70.9434 -6.06348 -108.712 -21.1484c-37.7764 -15.0771 -75.7734 -37.752 -113.998 -68.0488c-38.2324 -30.2891 -74.334 -67.3574 -108.272 -111.222
c-33.9697 -43.9033 -60.2549 -87.4609 -78.9268 -130.704c-18.6719 -43.251 -29.6123 -83.8115 -32.8525 -121.745c-3.24805 -37.9258 1.22754 -71.9111 13.4658 -101.948c12.1748 -30.0527 31.6807 -53.9473 58.4775 -71.6758
c26.7969 -17.7363 57.5186 -27.0723 92.2354 -28.0557c34.6934 -1.01465 70.9199 6.04004 108.696 21.125c37.7373 15.1016 75.7578 37.7451 113.99 68.0498c38.2402 30.2891 74.333 67.3574 108.303 111.261c33.9385 43.8643 60.2236 87.4219 78.8955 130.664
c18.6719 43.251 29.5811 83.835 32.8525 121.745zM272.115 765.158c-2.39062 -13.0166 -2.1748 -22.3457 -2.1748 -25.4678l-12.5605 -1.75391c-0.0869141 10.1064 1.29785 20.7871 3.40527 32.2549c10.0752 54.7969 49.8652 86.2734 100.58 86.2734
c46.8213 0 82.9775 -25.2627 113.903 -46.2471c35.5664 -24.2881 70.9443 -49.543 102.232 -49.543c33.0254 0 63.125 30.5088 70.9434 73.0596c1.53418 8.36035 1.77832 17.0986 1.64453 22.7383l12.3877 0.77832c0.37793 -8.5498 -1.4707 -21.7637 -3.22461 -31.2881
c-9.53223 -51.8711 -42.2275 -81.7979 -98.9668 -81.7979c-42.3613 0 -81.2227 24.2959 -113.769 47.0264c-34.5908 24.2881 -65.6973 49.5508 -96.9766 49.5508c-39.2471 0 -70 -35.1729 -77.4248 -75.584z" />
    <glyph glyph-name="Odieresis" unicode="&#xd6;" horiz-adv-x="755" 
d="M448.19 828.921l-66.083 -55.8271l-45.5625 55.8271l66.083 55.8271zM594.837 828.921l-66.083 -55.8271l-45.5625 55.8271l66.083 55.8271zM735.985 454.326c2.24902 -42.8809 -4.33203 -87.6504 -19.7715 -134.268
c-15.4473 -46.6328 -40.5996 -92.4707 -75.4268 -137.483c-34.8662 -45.0596 -73.6572 -81.8604 -116.404 -110.435c-42.7393 -28.5664 -86.4385 -48.7803 -131.05 -60.6484c-44.6191 -11.8135 -88.7666 -14.7393 -132.348 -8.6748
c-43.6279 6.04785 -83.7793 21.1494 -120.36 45.3506s-64.998 54.4668 -85.2666 90.71c-20.2998 36.2031 -31.5312 75.7725 -33.8047 118.614c-2.28125 42.9043 4.30176 87.6729 19.749 134.306c15.4395 46.6328 40.5918 92.4707 75.4502 137.522
c34.835 45.0127 73.626 81.8135 116.373 110.388c42.7549 28.5664 86.4463 48.7803 131.089 60.625c44.5801 11.8369 88.6797 14.7471 132.339 8.73047c43.6357 -6.05664 83.7559 -21.1895 120.337 -45.3906c36.5732 -24.2012 65.0137 -54.4346 85.29 -90.6768
c20.2139 -36.251 31.5 -75.8047 33.8047 -118.67zM682.205 481.499c3.24805 37.9336 -1.21777 71.9189 -13.4326 101.979c-12.2383 30.0215 -31.7129 53.9004 -58.5098 71.6367s-57.5498 27.0879 -92.2041 28.0869c-34.709 0.991211 -70.9355 -6.06348 -108.712 -21.1484
c-37.7764 -15.0771 -75.7734 -37.752 -113.998 -68.0488c-38.2324 -30.2891 -74.334 -67.3574 -108.272 -111.222c-33.9697 -43.9033 -60.2549 -87.4609 -78.9268 -130.704c-18.6719 -43.251 -29.6123 -83.8115 -32.8525 -121.745
c-3.24023 -37.9258 1.22754 -71.9111 13.4658 -101.948c12.1748 -30.0527 31.6807 -53.9473 58.4775 -71.6758c26.7969 -17.7363 57.5186 -27.0723 92.2354 -28.0557c34.6855 -1.01465 70.9121 6.04004 108.688 21.125c37.7451 15.1016 75.7656 37.7451 113.99 68.0498
c38.2402 30.2891 74.333 67.3574 108.303 111.261c33.9385 43.8643 60.2236 87.4219 78.8955 130.664c18.6719 43.251 29.5811 83.835 32.8525 121.745z" />
    <glyph glyph-name="multiply" unicode="&#xd7;" horiz-adv-x="430" 
d="M426.116 483.172l-205.556 -171.067l128.879 -161.354l-15.1016 -10.7676l-127.982 160.3l-206.673 -171.067l-8.09277 12.9385l205.556 171.067l-129.091 160.3l15.1016 10.7676l128.194 -159.254l205.563 171.067z" />
    <glyph glyph-name="Oslash" unicode="&#xd8;" horiz-adv-x="758" 
d="M703.633 573.013c20.2139 -36.251 31.502 -75.8037 33.7988 -118.646c2.25684 -42.8809 -4.33398 -87.6494 -19.7734 -134.282c-15.4473 -46.6328 -40.5996 -92.4707 -75.4268 -137.483c-34.8662 -45.0596 -73.6572 -81.8604 -116.404 -110.435
c-42.7393 -28.5664 -86.4385 -48.7803 -131.05 -60.6484c-44.6191 -11.8135 -88.7666 -14.7393 -132.348 -8.6748c-43.6279 6.04785 -83.7793 21.1494 -120.36 45.3506c-8.29785 5.48242 -16.1084 11.3262 -23.5645 17.4375l-114.249 -124.159l-6.14258 5.23047
l114.249 124.151c-22.5889 19.6709 -41.166 42.3145 -55.5518 68.041c-20.2998 36.2031 -31.5312 75.7725 -33.8047 118.614c-2.28125 42.9043 4.30176 87.6729 19.749 134.306c15.4395 46.6328 40.5918 92.4707 75.4502 137.522
c34.835 45.0127 73.626 81.8135 116.373 110.388c42.7549 28.5664 86.4463 48.7803 131.089 60.625c44.5801 11.8369 88.6797 14.7471 132.339 8.73047c43.6357 -6.05664 83.7559 -21.1895 120.337 -45.3906c8.29785 -5.48242 16.1084 -11.3262 23.5645 -17.4297
l114.257 124.151l6.14258 -5.23047l-114.249 -124.151c22.5967 -19.6631 41.1816 -42.291 55.5752 -68.0176zM90.2227 128.403c7.46387 -18.4199 17.7119 -34.5059 30.666 -48.3096l512.896 557.342c-6.72461 6.42578 -14.0312 12.3721 -22.0693 17.6973
c-26.7969 17.7363 -57.5498 27.0879 -92.2041 28.0869c-34.709 0.991211 -70.9355 -6.06348 -108.712 -21.1484c-37.7764 -15.0771 -75.7734 -37.752 -113.998 -68.0488c-38.2324 -30.2891 -74.334 -67.3574 -108.272 -111.222
c-33.9619 -43.9033 -60.2471 -87.4609 -78.9189 -130.704c-18.6719 -43.251 -29.6123 -83.8115 -32.8525 -121.745c-3.24023 -37.9258 1.22754 -71.9111 13.4658 -101.948zM683.665 481.508c3.24805 37.9336 -1.22656 71.918 -13.4414 101.979
c-7.50293 18.4043 -17.751 34.4727 -30.7051 48.2607l-512.888 -557.333c6.72461 -6.43359 14.0312 -12.3799 22.0693 -17.6963c26.7969 -17.7363 57.5186 -27.0723 92.2354 -28.0557c34.6855 -1.01465 70.9121 6.04004 108.688 21.125
c37.7373 15.1016 75.7578 37.7451 113.99 68.0498c38.2402 30.2891 74.333 67.3574 108.303 111.261c33.9385 43.8643 60.2236 87.4219 78.8955 130.665c18.6719 43.251 29.5811 83.835 32.8525 121.745z" />
    <glyph glyph-name="Ugrave" unicode="&#xd9;" horiz-adv-x="600" 
d="M516.282 757.568c-1.86426 0.833984 -187.536 83.1816 -267.171 94.9326l-4.60156 0.676758l25.9316 48.7324l3.7041 -2.85547c63.3379 -48.7715 247.398 -127.644 249.255 -128.438l3.12988 -1.33691l-6.55957 -13.3477zM503.975 705.248l191.925 0.000976562
l-1.68359 -9.1709h-86.1318l-84.4951 -459.703c-26.4658 -143.979 -120.266 -238.857 -280.534 -238.857c-164.665 0 -236.687 94.8779 -209.426 243.207l83.6934 455.354h-82.8438l1.68359 9.1709h257.324l-1.68359 -9.1709h-82.8438l-85.4941 -465.161
c-23.7607 -123.247 21.6924 -208.309 146.001 -208.309c125.379 0 209.607 78.5332 234.461 213.767l68.6631 373.571c8.74609 47.5684 -22.7305 86.1309 -70.2988 86.1309z" />
    <glyph glyph-name="Uacute" unicode="&#xda;" horiz-adv-x="600" 
d="M503.973 705.249l191.925 0.000976562l-1.68359 -9.1709h-86.1318l-84.4951 -459.703c-26.4658 -143.979 -120.266 -238.857 -280.534 -238.857c-164.665 0 -236.687 94.8779 -209.426 243.207l83.6934 455.354h-82.8438l1.68359 9.1709h257.324l-1.68359 -9.1709
h-82.8438l-85.4941 -465.161c-23.7607 -123.247 21.6924 -208.309 146.001 -208.309c125.379 0 209.607 78.5332 234.461 213.767l68.6631 373.571c8.74609 47.5684 -22.7305 86.1309 -70.2988 86.1309zM231.924 740.761l-4.28711 -1.63477l-1.65137 13.3477
l3.62598 1.33691c2.14746 0.786133 215.199 79.6582 296.47 128.438l4.75879 2.85547l8.01465 -48.7324l-4.85254 -0.676758c-83.9609 -11.751 -299.907 -94.1074 -302.078 -94.9336z" />
    <glyph glyph-name="Ucircumflex" unicode="&#xdb;" horiz-adv-x="600" 
d="M503.973 705.249l191.925 0.000976562l-1.68359 -9.1709h-86.1318l-84.4951 -459.703c-26.4658 -143.979 -120.266 -238.857 -280.534 -238.857c-164.665 0 -236.687 94.8779 -209.426 243.207l83.6934 455.354h-82.8438l1.68359 9.1709h257.324l-1.68359 -9.1709
h-82.8438l-85.4941 -465.161c-23.7607 -123.247 21.6924 -208.309 146.001 -208.309c125.379 0 209.607 78.5332 234.461 213.767l68.6631 373.571c8.74609 47.5684 -22.7305 86.1309 -70.2988 86.1309zM184.74 741.634l-3.74414 -2.51758l-6.19824 12.1748l3.2959 2.28906
c53.4199 37.0996 161.574 114.493 224.103 162.777l3.06738 2.36719l2.20215 -2.36719c44.7451 -48.2529 124.467 -125.662 164.265 -162.777l2.4541 -2.28906l-10.665 -12.1748l-2.81543 2.5166c-45.0674 40.2773 -110.199 93.9414 -165.586 121.871
c-65.6504 -27.9209 -150.5 -81.585 -210.378 -121.87z" />
    <glyph glyph-name="Udieresis" unicode="&#xdc;" horiz-adv-x="600" 
d="M503.973 705.249l191.925 0.000976562l-1.68359 -9.1709h-86.1318l-84.4951 -459.703c-26.4658 -143.979 -120.266 -238.857 -280.534 -238.857c-164.665 0 -236.687 94.8779 -209.426 243.207l83.6934 455.354h-82.8438l1.68359 9.1709h257.324l-1.68359 -9.1709
h-82.8438l-85.4941 -465.161c-23.7607 -123.247 21.6924 -208.309 146.001 -208.309c125.379 0 209.607 78.5332 234.461 213.767l68.6631 373.571c8.74609 47.5684 -22.7305 86.1309 -70.2988 86.1309zM371.263 828.922l-66.083 -55.8271l-45.5625 55.8271l66.083 55.8271z
M517.909 828.922l-66.083 -55.8271l-45.5625 55.8271l66.083 55.8271z" />
    <glyph glyph-name="Yacute" unicode="&#xdd;" horiz-adv-x="589" 
d="M202.588 740.761l-4.29492 -1.63477l-1.65137 13.3477l3.62598 1.33691c2.14746 0.786133 215.199 79.6582 296.47 128.438l4.75879 2.85547l8.02246 -48.7324l-4.85254 -0.676758c-83.9609 -11.751 -299.907 -94.1074 -302.078 -94.9336zM492.097 705.195h170.083
l-1.68359 -9.1709c-37.9023 0 -76.5908 -20.6543 -100.926 -53.8848l-254.092 -346.948l-51.1152 -278.097h89.4189l-1.60449 -8.70703h-271.529l1.60449 8.70703h90.5205l48.9131 266.11l-146.056 412.819h-56.1182l1.68359 9.1709h248.618l-1.68359 -9.1709h-86.5557
l125.331 -382.278l280.291 382.278h-86.7842z" />
    <glyph glyph-name="Thorn" unicode="&#xde;" horiz-adv-x="574" 
d="M351.748 587.422c128.666 0 234.891 -68.6787 211.437 -196.275c-26.0576 -141.754 -171.201 -201.733 -293.339 -201.733h-110.144l-31.6729 -172.31h92.6992l-1.59668 -8.70703h-266.07l1.59668 8.70703h81.7744l124.789 678.929h-82.8906l1.68359 9.1709h174.48
l-3.20898 -17.4531l-18.4355 -100.328h118.897zM460.954 374.803c25.8525 140.652 -41.5596 195.174 -133.149 195.166h-98.1572l-45.0908 -245.346l-3.20898 -17.4453l-14.1416 -76.9375l-4.29395 -23.3906h116.672c100.336 0 160.921 56.6924 181.37 167.953z" />
    <glyph glyph-name="germandbls" unicode="&#xdf;" horiz-adv-x="593" 
d="M556.702 646.738c-19.3086 -105.047 -164.462 -128.874 -183.157 -230.673c-23.4854 -127.785 210.275 -105.047 178.43 -278.316c-19.5137 -106.125 -119.605 -144.027 -209.496 -144.027c-51.9805 0 -96.7568 9.74512 -142.674 36.8174l9.41504 33.5762
c41.7715 -37.9102 86.4297 -54.1514 139.496 -54.1514c70.3857 0 111.214 33.5684 121.761 90.9688c27.2686 148.36 -191.328 125.622 -163.462 277.231c17.5078 95.2939 152.136 114.784 178.405 257.733c12.7412 69.3076 -11.0742 122.374 -79.3047 122.374
c-100.714 0 -146.796 -56.3145 -169.888 -181.929l-105.976 -576.571h-160.276l1.48633 8.125h74.7266l86.6191 471.257h-60.2939l1.6748 9.14746h60.2939l13.7881 75.0498c22.6914 123.46 129.383 209.01 266.913 209.01c108.296 0 154.653 -54.1514 141.519 -125.622z" />
    <glyph glyph-name="agrave" unicode="&#xe0;" horiz-adv-x="503" 
d="M376.781 9.10156l70.7705 -0.461914l-1.69141 -9.18652h-158.098l12.0254 65.4385l4.60938 25.082l12.8281 69.7959l-77.9834 -76.9287c-1.23438 -1.15625 -2.50879 -2.26562 -3.76758 -3.32715c-0.74707 -0.668945 -1.48633 -1.33008 -2.2334 -1.99902
c-56.3779 -51.1943 -122.107 -81.0273 -171.344 -81.0273c-16.6504 0 -31.4209 3.4209 -43.2969 10.5703c-16.6895 10.1143 -25.9385 26.9453 -26.749 48.6533c-1.3291 37.2021 22.3848 85.7773 63.3623 129.995c0.723633 0.793945 1.44727 1.59668 2.12402 2.35156
c1.00684 1.14844 2.02148 2.25781 3.11426 3.41406l9.61133 9.54785l265.323 259.817c-15.5254 19.0654 -39.333 30.4854 -72.8232 30.4854c-69.0166 0 -159.19 -41.4883 -159.19 -41.4883l1.20312 6.55176c59.9326 29.4316 111.591 43.5967 167.221 43.5967
c134.125 0 184.392 -58.8711 163.541 -172.303zM352.91 353.873c7.58984 41.3232 3.55469 76.2002 -12.2939 100.566l-260.69 -255.021c-27.9609 -30.1396 -41.8115 -58.6426 -40.8594 -84.3936c0.801758 -23.3984 13.9443 -43.4629 37.957 -57.9824
c49.6289 -30.0137 113.062 -11.1846 178.256 53.1445l0.692383 0.621094l63.873 63.2041l13.8193 75.1748l3.20898 17.4453zM436.478 574.172c-1.86426 0.826172 -187.536 83.1816 -267.187 94.9326l-4.59375 0.676758l25.9316 48.7324l3.7041 -2.85547
c63.3379 -48.7715 247.406 -127.644 249.255 -128.438l3.12988 -1.33691l-6.55957 -13.3477z" />
    <glyph glyph-name="acircumflex" unicode="&#xe2;" horiz-adv-x="504" 
d="M435.33 327.68l-58.542 -318.584l70.7705 -0.456055l-1.69141 -9.18652h-158.098l12.0254 65.4385l4.60938 25.082l12.8281 69.7959l-77.9834 -76.9287c-1.23438 -1.15625 -2.50098 -2.26562 -3.76758 -3.32715c-0.739258 -0.668945 -1.48633 -1.33008 -2.22559 -1.99902
c-56.3857 -51.1943 -122.115 -81.0273 -171.352 -81.0273c-16.6504 0 -31.4287 3.4209 -43.2969 10.5703c-16.7061 10.1143 -25.9551 26.9453 -26.7568 48.6533c-1.3291 37.2021 22.3848 85.7773 63.3623 129.995c0.723633 0.793945 1.45508 1.59668 2.12402 2.35156
c1.01465 1.14844 2.01367 2.25781 3.11523 3.41406l9.61133 9.54785l265.323 259.817c-15.5254 19.0654 -39.333 30.4854 -72.8232 30.4854c-69.0166 0 -159.198 -41.4883 -159.198 -41.4883l1.20312 6.55176c59.9326 29.4316 111.591 43.5967 167.221 43.5967
c134.125 0 184.392 -58.8711 163.541 -172.303zM352.901 353.873c7.59766 41.3232 3.55469 76.2002 -12.2861 100.566l-260.699 -255.021c-27.9609 -30.1396 -41.8115 -58.6426 -40.8594 -84.3936c0.802734 -23.3984 13.9453 -43.4629 37.958 -57.9824
c49.6289 -30.0137 113.069 -11.1846 178.256 53.1445l0.692383 0.621094l63.873 63.2041l13.8193 75.1748l3.20898 17.4453zM508.042 536.198l2.45312 -2.29004l-10.6729 -12.1748l-2.81543 2.5166c-45.0674 40.2773 -110.199 93.9414 -165.586 121.871
c-65.6504 -27.9209 -150.5 -81.585 -210.378 -121.87l-3.73633 -2.5166l-6.18945 12.1748l3.2959 2.28906c53.4199 37.0996 161.574 114.493 224.103 162.777l3.06738 2.36719l2.19434 -2.36719c44.7451 -48.2529 124.467 -125.662 164.265 -162.777z" />
    <glyph glyph-name="atilde" unicode="&#xe3;" horiz-adv-x="502" 
d="M435.33 327.68l-58.5654 -318.584l70.7783 -0.456055l-1.69141 -9.18652h-158.098l12.0254 65.4385l4.60938 25.082l12.8281 69.7959l-77.9834 -76.9287c-1.23438 -1.15625 -2.50879 -2.26562 -3.76758 -3.32715c-0.74707 -0.668945 -1.48633 -1.33008 -2.2334 -1.99902
c-56.3779 -51.1943 -122.107 -81.0273 -171.344 -81.0273c-16.6504 0 -31.4209 3.4209 -43.2969 10.5703c-16.6982 10.1143 -25.9473 26.9453 -26.749 48.6533c-1.3291 37.2021 22.3848 85.7773 63.3623 129.995c0.723633 0.793945 1.45508 1.59668 2.12402 2.35156
c1.00684 1.14844 2.01367 2.25781 3.11523 3.41406l9.61133 9.54785l265.323 259.817c-15.5176 19.0654 -39.333 30.4854 -72.8232 30.4854c-69.0166 0 -159.19 -41.4883 -159.19 -41.4883l1.20312 6.55176c59.9248 29.4316 111.591 43.5967 167.221 43.5967
c134.125 0 184.392 -58.8711 163.541 -172.303zM352.901 353.873c7.58984 41.3232 3.55371 76.2002 -12.2949 100.566l-260.69 -255.021c-27.9609 -30.1396 -41.8193 -58.6426 -40.8594 -84.3936c0.802734 -23.3984 13.9453 -43.4629 37.958 -57.9824
c49.6289 -30.0137 113.062 -11.1846 178.256 53.1445l0.692383 0.621094l63.873 63.2041l13.8193 75.1748l3.20898 17.4453zM521.482 704.395l12.3691 0.761719c0.37793 -8.5498 -1.4707 -21.7637 -3.22461 -31.2881c-9.53223 -51.8711 -42.2275 -81.7979 -98.9668 -81.7979
c-42.3535 0 -81.2148 24.2959 -113.761 47.0264c-34.5986 24.2881 -65.7051 49.5508 -96.9844 49.5508c-39.2471 0 -70 -35.1729 -77.4248 -75.584c-2.39062 -13.0166 -2.1709 -22.3447 -2.16309 -25.4512l-12.5527 -1.75391
c-0.0869141 10.1064 1.28906 20.7871 3.39648 32.2549c10.0752 54.7969 49.8652 86.2734 100.58 86.2734c46.8213 0 82.9775 -25.2627 113.903 -46.2471c35.5742 -24.2881 70.9521 -49.543 102.24 -49.543c33.0332 0 63.125 30.5088 70.9434 73.0596
c1.53418 8.36035 1.77832 17.0986 1.64453 22.7383z" />
    <glyph glyph-name="adieresis" unicode="&#xe4;" horiz-adv-x="501" 
d="M435.314 327.68l-58.542 -318.584l70.7705 -0.456055l-1.68359 -9.18652h-158.098l12.0254 65.4385l4.60938 25.082l12.8281 69.7959l-77.9834 -76.9287c-1.23438 -1.15625 -2.50879 -2.26562 -3.76758 -3.32715c-0.74707 -0.668945 -1.48633 -1.33008 -2.2334 -1.99902
c-56.3857 -51.1943 -122.107 -81.0273 -171.352 -81.0273c-16.6426 0 -31.4209 3.4209 -43.2969 10.5703c-16.6982 10.1143 -25.9473 26.9453 -26.749 48.6533c-1.33691 37.2021 22.377 85.7773 63.3623 129.995c0.723633 0.793945 1.44727 1.59668 2.11621 2.35156
c1.00684 1.14844 2.01367 2.25781 3.11523 3.41406l9.61133 9.54785l265.315 259.817c-15.5254 19.0654 -39.333 30.4854 -72.8232 30.4854c-69.0166 0 -159.19 -41.4883 -159.19 -41.4883l1.20312 6.55176c59.9326 29.4316 111.599 43.5967 167.221 43.5967
c134.117 0 184.392 -58.8711 163.541 -172.303zM352.886 353.873c7.59766 41.3232 3.55371 76.2002 -12.2949 100.566l-260.69 -255.021c-27.9609 -30.1396 -41.8115 -58.6426 -40.8594 -84.3936c0.802734 -23.3984 13.9453 -43.4629 37.958 -57.9824
c49.6289 -30.0137 113.062 -11.1846 178.256 53.1445l0.692383 0.621094l63.873 63.2041l13.8193 75.1748l3.20898 17.4453zM313.811 645.517l-66.083 -55.8193l-45.5625 55.8193l66.083 55.8271zM460.457 645.517l-66.083 -55.8193l-45.5625 55.8193l66.083 55.8271z" />
    <glyph glyph-name="aring" unicode="&#xe5;" horiz-adv-x="503" 
d="M376.777 9.10156l70.7695 -0.461914l-1.69141 -9.18652h-158.098l12.0254 65.4385l4.60938 25.082l12.8281 69.7959l-77.9834 -76.9287c-1.22656 -1.15625 -2.50098 -2.26562 -3.75977 -3.32715c-0.74707 -0.668945 -1.48633 -1.33008 -2.2334 -1.99902
c-56.3779 -51.1943 -122.107 -81.0273 -171.344 -81.0273c-16.6504 0 -31.4209 3.4209 -43.2969 10.5703c-16.6973 10.1143 -25.9385 26.9453 -26.749 48.6533c-1.3291 37.2021 22.3848 85.7773 63.3623 129.995c0.731445 0.793945 1.45508 1.59668 2.12402 2.35156
c1.00684 1.14844 2.01367 2.25781 3.11523 3.41406l9.61133 9.54785l265.315 259.817c-15.5254 19.0654 -39.333 30.4854 -72.8232 30.4854c-69.0166 0 -159.19 -41.4883 -159.19 -41.4883l1.20312 6.55176c59.9326 29.4316 111.591 43.5967 167.221 43.5967
c134.125 0 184.392 -58.8711 163.541 -172.303zM352.913 353.873c7.58984 41.3232 3.5459 76.2002 -12.2871 100.566l-260.69 -255.021c-27.9609 -30.1396 -41.8115 -58.6426 -40.8594 -84.3936c0.802734 -23.3984 13.9453 -43.4629 37.958 -57.9824
c49.6211 -30.0137 113.062 -11.1846 178.248 53.1445l0.692383 0.621094l63.873 63.2041l13.8193 75.1748l3.20898 17.4453zM320.814 591.853c-29.2344 0 -48.5518 24.249 -43.0771 54.0576c5.39551 29.376 33.5684 53.2705 62.8027 53.2705
c29.9502 0 49.9277 -23.8945 44.5244 -53.2705c-5.56836 -30.3125 -33.7881 -54.0576 -64.25 -54.0576zM291.343 645.911c-4.02734 -21.9277 10.6104 -40.4502 31.9717 -40.4502c22.3057 0 43.7852 18.1445 47.8828 40.4502
c3.9873 21.7314 -10.9014 39.4043 -33.207 39.4043c-21.3613 0 -42.7148 -18.043 -46.6475 -39.4043z" />
    <glyph glyph-name="ae" unicode="&#xe6;" horiz-adv-x="817" 
d="M379.809 240.297c-13.5127 -31.3037 -21.4102 -60.6523 -23.7617 -88.1094s0.888672 -52.0596 9.74512 -73.8066c4.56152 -11.2549 10.6094 -21.2598 17.9951 -30.124c6.89746 -8.27441 14.9746 -15.5654 24.334 -21.7637
c2.46191 -1.62793 4.96289 -3.16992 7.51074 -4.61719c6.67773 -3.80664 13.6934 -6.9209 21 -9.40625c11.876 -4.03516 24.5938 -6.28418 38.2559 -6.28418c192.562 0 266.81 171.578 277.23 189.565l14.7158 -75.9854
c-0.558594 -0.723633 -0.880859 -1.45508 -1.43945 -2.1709c-25.2314 -32.6172 -114.887 -126.165 -279.521 -126.165c-30.1787 0 -56.6055 8.08496 -80.0039 21.0391c-4.44336 2.46191 -8.80859 5.03418 -13.04 7.82617
c-0.857422 0.566406 -1.58887 1.17188 -2.41504 1.74609c-3.57031 2.47754 -6.90527 5.0498 -10.0439 7.7002c-18.6875 15.7617 -30.4219 34.4805 -42.5889 56.2275c-13.3389 23.7764 -18.0898 49.5898 -20.0957 77.3379
c-0.180664 2.41504 -0.345703 4.83789 -0.479492 7.28418l-75.7646 -74.7422c-1.22656 -1.15625 -2.50098 -2.26562 -3.75977 -3.32715c-0.74707 -0.668945 -1.48633 -1.33008 -2.2334 -1.99902c-56.3779 -51.1943 -122.107 -81.0273 -171.344 -81.0273
c-16.6504 0 -31.4209 3.4209 -43.2969 10.5703c-16.6982 10.1143 -25.9395 26.9453 -26.75 48.6533c-1.3291 37.2021 22.3848 85.7773 63.3623 129.995c0.731445 0.793945 1.45508 1.59668 2.12402 2.35156c1.00684 1.14844 2.01367 2.25781 3.11523 3.41406
l9.61133 9.54785l265.315 259.817c-15.5254 19.0654 -39.333 30.4854 -72.8232 30.4854c-69.0166 0 -159.19 -41.4883 -159.19 -41.4883l1.20312 6.55176c59.9326 29.4316 111.591 43.5967 167.221 43.5967c96.207 0 149.045 -30.4541 163.666 -89.4424
c10.5 9.10742 21.3701 17.4443 32.6328 24.9717c30.9414 20.6777 62.5752 35.3066 94.8936 43.8877c32.2705 8.56543 64.1875 10.6729 95.7979 6.31543c12.5059 -1.73047 24.3037 -5.30078 36.0068 -9.09961c17.8613 -5.78906 35.1094 -13.1748 51.1074 -23.7539
c17.5312 -11.6016 41.6777 -34.6465 56.6533 -57.4629c2.96484 -4.52246 4.74219 -8.87207 6.86621 -13.2842h-318.704c-19.3721 -17.8145 -38.2246 -37.2725 -55.9688 -60.207c-0.220703 -0.283203 -0.416992 -0.566406 -0.636719 -0.849609
c-24.2793 -31.4922 -43.1006 -62.7402 -56.5029 -93.7686zM515.324 415.435c-2.6582 -2.10742 -5.11816 -4.83008 -7.75293 -7.03223h277.734c-8.87988 21.4326 -22.8086 38.5713 -42.0078 51.2734c-13.1348 8.69141 -28.0625 13.5596 -43.8086 16.6982
c-7.51953 1.49414 -14.834 3.39746 -22.9434 3.63379c-25.1211 0.71582 -51.3516 -4.39648 -78.6992 -15.3135s-54.8447 -27.332 -82.5225 -49.2598zM355.104 366.874c7.58984 41.3232 3.5459 76.1992 -12.2793 100.565l-260.69 -255.021
c-27.9609 -30.1396 -41.8115 -58.6426 -40.8594 -84.3936c0.802734 -23.3984 13.9453 -43.4629 37.958 -57.9824c49.6211 -30.0137 113.062 -11.1846 178.248 53.1445l0.692383 0.621094l58.6738 58.0684l5.19141 5.13574l13.8193 75.1748l3.20898 17.4453l3.09863 16.8555z
" />
    <glyph glyph-name="ccedilla" unicode="&#xe7;" horiz-adv-x="524" 
d="M456.338 466.228c23.1865 -15.3369 41.0322 -34.6475 55.1973 -56.6934l-12.2461 -22.0068c-1.63574 6.95312 -2.75293 14.1738 -5.37207 20.6309c-8.86426 21.7393 -22.959 39.0273 -42.3545 51.8633c-13.1348 8.69141 -28.0625 13.5596 -43.8086 16.6982
c-7.51953 1.49414 -14.834 3.39746 -22.9434 3.63379c-25.1289 0.71582 -51.3516 -4.38867 -78.6992 -15.3135c-27.3477 -10.917 -54.8525 -27.332 -82.5303 -49.2598c-27.6777 -21.9355 -53.8057 -48.7637 -78.376 -80.5156
c-24.5947 -31.7832 -43.6201 -63.3145 -57.1406 -94.6182c-13.5127 -31.3037 -21.4326 -60.6719 -23.7764 -88.1289c-2.35156 -27.457 0.888672 -52.0674 9.74512 -73.8066c8.81641 -21.7549 22.9346 -39.0508 42.3301 -51.8867s41.4971 -20.3076 66.7676 -20.3076
c192.562 0 266.81 171.57 277.23 189.558l14.708 -75.9775c-0.550781 -0.723633 -0.880859 -1.45508 -1.43164 -2.1709c-24.8379 -32.0898 -112.117 -123.145 -271.804 -126.023c4.625 -23.8389 16.5332 -44.5244 33.6162 -60.5693
c12.7256 -11.9473 18.8525 -26.8594 15.2822 -46.2783c-6.41797 -34.9053 -39.3887 -60.3965 -85.4707 -60.3965c-27.2217 0 -41.6543 6.98438 -54.7021 15.7148l1.32129 5.3877c10.3271 -12.1992 28.2285 -15.5186 50.9121 -15.5186
c27.2373 0 47.207 17.4688 54.0107 54.459c6.54395 35.6055 -0.188477 59.5703 -38.3975 79.4609l12.3086 27.748c-34.4258 0.700195 -64.0146 11.7744 -89.6396 28.7314c-26.4824 17.5234 -40.3721 39.4355 -55.0488 65.6738
c-14.6924 26.207 -19.0107 54.8516 -20.6543 85.8643c-1.65918 31.0518 3.10742 63.4561 14.292 97.2217s29.3926 66.9492 54.624 99.5586c25.2158 32.585 53.2949 59.2324 84.2441 79.918c30.9414 20.6777 62.5752 35.3066 94.8857 43.8877
c32.2783 8.56543 64.1953 10.6729 95.8057 6.31543c12.5059 -1.73047 24.3037 -5.30078 36.0068 -9.09961c17.8613 -5.78906 35.1094 -13.1748 51.1074 -23.7539z" />
    <glyph glyph-name="egrave" unicode="&#xe8;" horiz-adv-x="525" 
d="M87.583 240.206c-13.5205 -31.3037 -21.4385 -60.6709 -23.7588 -88.1201c-2.34375 -27.457 0.896484 -52.0596 9.75293 -73.8066c8.81641 -21.7549 22.9268 -39.0508 42.3301 -51.8867s41.4961 -20.3076 66.7666 -20.3076c192.562 0 266.817 171.57 277.238 189.558
l14.708 -75.9775c-0.558594 -0.723633 -0.880859 -1.45508 -1.43945 -2.1709c-25.2314 -32.6172 -114.887 -126.165 -279.521 -126.165c-35.9043 0 -66.5625 11.3496 -93.0449 28.8652c-26.4824 17.5234 -40.3721 39.4355 -55.0488 65.6738
c-14.7002 26.207 -19.0186 54.8516 -20.6621 85.8643c-1.65137 31.0596 3.11523 63.4639 14.2998 97.2207c11.1768 33.7656 29.3848 66.9492 54.6162 99.5586c25.208 32.585 53.2949 59.2324 84.2441 79.918c30.9414 20.6777 62.5752 35.3066 94.8936 43.8877
c32.2705 8.56543 64.1953 10.6729 95.7979 6.31543c12.5137 -1.73047 24.3037 -5.30957 36.0068 -9.10059c17.8613 -5.78906 35.1094 -13.1748 51.1074 -23.7539c17.5312 -11.6094 41.6777 -34.6543 56.6533 -57.4707c2.96484 -4.52246 4.74219 -8.87207 6.86621 -13.2842
h-318.704c-19.3721 -17.8066 -38.2246 -37.2646 -55.9688 -60.1992c-24.5869 -31.7832 -43.6211 -63.3145 -57.1338 -94.6182zM223.094 415.341c-2.6582 -2.10742 -5.11719 -4.8291 -7.75195 -7.03125h277.734c-8.87207 21.4326 -22.8096 38.5625 -42.0088 51.2725
c-13.1348 8.69141 -28.0625 13.5596 -43.8086 16.6982c-7.51172 1.49414 -14.834 3.39746 -22.9434 3.63379c-25.1211 0.71582 -51.3516 -4.38867 -78.6992 -15.3135c-27.3477 -10.917 -54.8447 -27.332 -82.5225 -49.2598zM467.491 583.168
c-1.86426 0.826172 -187.536 83.1816 -267.179 94.9326l-4.60156 0.676758l25.9316 48.7324l3.7041 -2.85547c63.3379 -48.7715 247.406 -127.644 249.255 -128.438l3.12988 -1.33691l-6.55176 -13.3477z" />
    <glyph glyph-name="eacute" unicode="&#xe9;" horiz-adv-x="524" 
d="M87.583 240.206c-13.5049 -31.3037 -21.4316 -60.6709 -23.7598 -88.1201c-2.35156 -27.457 0.888672 -52.0596 9.74512 -73.8066c8.81641 -21.7549 22.9346 -39.0508 42.3301 -51.8867c19.4033 -12.8359 41.4961 -20.3076 66.7666 -20.3076
c192.562 0 266.81 171.57 277.23 189.558l14.708 -75.9775c-0.550781 -0.723633 -0.880859 -1.45508 -1.43164 -2.1709c-25.2393 -32.6172 -114.887 -126.165 -279.521 -126.165c-35.9121 0 -66.5625 11.3496 -93.0449 28.8652
c-26.4824 17.5234 -40.3643 39.4355 -55.0488 65.6738c-14.6924 26.207 -19.0107 54.8516 -20.6543 85.8643c-1.65137 31.0596 3.11523 63.4639 14.2998 97.2207c11.1846 33.7656 29.3926 66.9492 54.624 99.5586c25.208 32.585 53.2871 59.2324 84.2363 79.918
c30.9414 20.6777 62.5752 35.3066 94.8936 43.8877c32.2783 8.56543 64.2031 10.6729 95.8057 6.31543c12.5059 -1.73047 24.3037 -5.30957 36.0068 -9.10059c17.8613 -5.78906 35.1094 -13.1748 51.1074 -23.7539c17.5312 -11.6094 41.6777 -34.6543 56.6533 -57.4707
c2.96484 -4.52246 4.74219 -8.87207 6.86621 -13.2842h-318.704c-19.3721 -17.8066 -38.2246 -37.2646 -55.9688 -60.1992c-24.5947 -31.7832 -43.6201 -63.3145 -57.1406 -94.6182zM223.101 415.341c-2.6582 -2.10742 -5.11719 -4.8291 -7.75977 -7.03125h277.734
c-8.87207 21.4326 -22.8018 38.5625 -42.001 51.2725c-13.1348 8.69141 -28.0625 13.5596 -43.8086 16.6982c-7.51953 1.49414 -14.834 3.39746 -22.9434 3.63379c-25.1211 0.71582 -51.3516 -4.38867 -78.6992 -15.3135
c-27.3477 -10.917 -54.8447 -27.332 -82.5225 -49.2598zM186.231 583.168l-4.30273 -1.63477l-1.64355 13.3477l3.62598 1.33691c2.14746 0.786133 215.199 79.6582 296.47 128.438l4.75879 2.85547l8.02246 -48.7324l-4.85254 -0.676758
c-83.9688 -11.751 -299.907 -94.1074 -302.078 -94.9336z" />
    <glyph glyph-name="ecircumflex" unicode="&#xea;" horiz-adv-x="524" 
d="M87.5947 240.206c-13.5127 -31.3037 -21.4307 -60.6709 -23.7822 -88.1201c-2.35156 -27.457 0.888672 -52.0596 9.74512 -73.8066c8.81641 -21.7549 22.9268 -39.0508 42.3301 -51.8867s41.4961 -20.3076 66.7666 -20.3076c192.562 0 266.817 171.57 277.238 189.558
l14.708 -75.9775c-0.550781 -0.723633 -0.880859 -1.45508 -1.43945 -2.1709c-25.2314 -32.6172 -114.887 -126.165 -279.521 -126.165c-35.9043 0 -66.5625 11.3496 -93.0371 28.8652c-26.4824 17.5234 -40.3721 39.4355 -55.0488 65.6738
c-14.6924 26.207 -19.0107 54.8516 -20.6543 85.8643c-1.65137 31.0596 3.11523 63.4639 14.2998 97.2207c11.1768 33.7656 29.3848 66.9492 54.6162 99.5586c25.208 32.585 53.2949 59.2324 84.2441 79.918c30.9414 20.6777 62.5752 35.3066 94.8936 43.8877
c32.2705 8.56543 64.1953 10.6729 95.7979 6.31543c12.5137 -1.73047 24.3115 -5.30957 36.0146 -9.10059c17.8701 -5.78906 35.1104 -13.1748 51.1084 -23.7539c17.5391 -11.6094 41.6768 -34.6543 56.6602 -57.4707c2.95703 -4.52246 4.74219 -8.87207 6.8584 -13.2842
h-318.696c-19.3643 -17.8066 -38.2168 -37.2646 -55.9609 -60.1992c-24.5947 -31.7832 -43.6289 -63.3145 -57.1416 -94.6182zM223.113 415.341c-2.6582 -2.10742 -5.12012 -4.8291 -7.75488 -7.03125h277.734c-8.87207 21.4326 -22.8096 38.5625 -42.0088 51.2725
c-13.1348 8.69141 -28.0625 13.5596 -43.8086 16.6982c-7.51074 1.49414 -14.833 3.39746 -22.9346 3.63379c-25.1289 0.71582 -51.3594 -4.38867 -78.6982 -15.3135c-27.3555 -10.917 -54.8438 -27.332 -82.5293 -49.2598zM129.715 533.247l-3.74512 -2.51758
l-6.18945 12.1748l3.28809 2.28906c53.4121 37.0996 161.574 114.493 224.103 162.777l3.06738 2.36719l2.19434 -2.36719c44.7529 -48.2529 124.475 -125.662 164.265 -162.777l2.46191 -2.28906l-10.6729 -12.1748l-2.80762 2.5166
c-45.0674 40.2773 -110.199 93.9414 -165.586 121.871c-65.6504 -27.9209 -150.5 -81.585 -210.378 -121.87z" />
    <glyph glyph-name="edieresis" unicode="&#xeb;" horiz-adv-x="524" 
d="M87.5898 240.206c-13.5127 -31.3037 -21.4404 -60.6709 -23.7686 -88.1201c-2.35156 -27.457 0.888672 -52.0596 9.74512 -73.8066c8.81641 -21.7549 22.9346 -39.0508 42.3301 -51.8867s41.4971 -20.3076 66.7676 -20.3076c192.562 0 266.81 171.57 277.23 189.558
l14.708 -75.9775c-0.550781 -0.723633 -0.880859 -1.45508 -1.43164 -2.1709c-25.2314 -32.6172 -114.887 -126.165 -279.521 -126.165c-35.9121 0 -66.5625 11.3496 -93.0449 28.8652c-26.4824 17.5234 -40.3721 39.4355 -55.0488 65.6738
c-14.6924 26.207 -19.0107 54.8516 -20.6543 85.8643c-1.65137 31.0596 3.11523 63.4639 14.2998 97.2207c11.1768 33.7656 29.3848 66.9492 54.6162 99.5586c25.2158 32.585 53.2949 59.2324 84.2441 79.918c30.9414 20.6777 62.5752 35.3066 94.8936 43.8877
c32.2705 8.56543 64.1953 10.6729 95.7979 6.31543c12.5137 -1.73047 24.3037 -5.30957 36.0146 -9.10059c17.8613 -5.78906 35.1094 -13.1748 51.1074 -23.7539c17.5391 -11.6094 41.6855 -34.6543 56.6611 -57.4707c2.96484 -4.52246 4.74219 -8.87207 6.86621 -13.2842
h-318.704c-19.3721 -17.8066 -38.2246 -37.2646 -55.9688 -60.1992c-24.5947 -31.7832 -43.6201 -63.3145 -57.1406 -94.6182zM223.099 415.341c-2.6582 -2.10742 -5.11719 -4.8291 -7.74414 -7.03125h277.734c-8.87988 21.4326 -22.8096 38.5625 -42.0088 51.2725
c-13.1348 8.69141 -28.0625 13.5596 -43.8086 16.6982c-7.51953 1.49414 -14.834 3.39746 -22.9434 3.63379c-25.1211 0.71582 -51.3516 -4.38867 -78.6992 -15.3135c-27.3477 -10.917 -54.8525 -27.332 -82.5303 -49.2598zM322.478 654.513l-66.083 -55.8193
l-45.5625 55.8193l66.083 55.8271zM469.124 654.513l-66.083 -55.8193l-45.5625 55.8193l66.083 55.8271z" />
    <glyph glyph-name="igrave" unicode="&#xec;" horiz-adv-x="264" 
d="M60.7051 490.042l161.425 -0.000976562l-88.2314 -480.019h73.0752l-1.76172 -9.62695h-234.508l1.76953 9.62695h74.1445l86.4932 470.573h-74.1445zM341.342 588.206l3.13086 -1.33789l-6.55957 -13.3477l-3.68066 1.63574
c-1.87207 0.833984 -187.545 83.1826 -267.188 94.9336l-4.59375 0.676758l25.9316 48.7324l3.7041 -2.85547c63.3379 -48.7715 247.406 -127.644 249.255 -128.438z" />
    <glyph glyph-name="iacute" unicode="&#xed;" horiz-adv-x="263" 
d="M60.7051 490.042l161.433 -0.000976562l-88.2314 -480.019h73.0752l-1.76953 -9.62695h-234.508l1.77734 9.62695h74.1367l86.4932 470.573h-74.1367zM320.413 719.507l8.01367 -48.7314l-4.85254 -0.676758c-83.9688 -11.751 -299.915 -94.1074 -302.078 -94.9336
l-4.29395 -1.63574l-1.64355 13.3477l3.62598 1.33691c2.14746 0.786133 215.199 79.6582 296.47 128.438z" />
    <glyph glyph-name="icircumflex" unicode="&#xee;" horiz-adv-x="265" 
d="M60.7051 490.042l161.425 -0.000976562l-88.2236 -480.019h73.0752l-1.76953 -9.62695h-234.508l1.76953 9.62695h74.1445l86.4932 470.573h-74.1445zM383.437 537.192l2.46094 -2.29004l-10.6729 -12.1748l-2.80762 2.5166
c-45.0674 40.2773 -110.199 93.9414 -165.586 121.871c-65.6582 -27.9209 -150.508 -81.585 -210.386 -121.87l-3.74414 -2.5166l-6.18945 12.1748l3.2959 2.28906c53.4043 37.0996 161.566 114.493 224.095 162.777l3.06738 2.36719l2.19434 -2.36719
c44.7529 -48.2529 124.475 -125.662 164.272 -162.777z" />
    <glyph glyph-name="idieresis" unicode="&#xef;" horiz-adv-x="263" 
d="M60.7051 490.042l161.425 -0.000976562l-88.2314 -480.019h73.0752l-1.76953 -9.62695h-234.5l1.76953 9.62695h74.1445l86.4932 470.573h-74.1445zM189.214 646.511l-66.083 -55.8193l-45.5625 55.8193l66.083 55.8271zM290.297 702.338l45.5625 -55.8271
l-66.083 -55.8193l-45.5625 55.8193z" />
    <glyph glyph-name="ntilde" unicode="&#xf1;" horiz-adv-x="583" 
d="M517.195 333.014l-59.2793 -322.541l71.8408 -0.456055l-1.76953 -9.62695h-233.352l1.76953 9.62695l74.1367 -0.0546875l59.374 323.046c16.0293 87.2402 -9.44629 138.474 -86.8789 138.474c-43.5889 0 -87.5078 -19.624 -136.13 -64.3301l-72.9102 -396.68
l72.9883 -0.456055l-1.76953 -9.62695h-234.5l1.76953 9.62695h74.2314l86.4932 470.573h-74.2314l1.73828 9.4541h161.425l-11.0273 -59.9795c53.373 46.8838 114.431 70.8564 176.581 70.8564c105.842 0 147.527 -69.7881 129.5 -167.906zM558.268 705.392
l12.3691 0.761719c0.37793 -8.5498 -1.4707 -21.7637 -3.22461 -31.2881c-9.53223 -51.8711 -42.2275 -81.7979 -98.9668 -81.7979c-42.3535 0 -81.2148 24.2959 -113.761 47.0264c-34.5986 24.2881 -65.7051 49.5508 -96.9844 49.5508
c-39.2471 0 -70 -35.1729 -77.4248 -75.584c-2.39062 -13.0166 -2.1709 -22.3447 -2.15527 -25.4512l-12.5605 -1.75391c-0.0869141 10.1064 1.28906 20.7871 3.39648 32.2549c10.0752 54.7969 49.8652 86.2734 100.58 86.2734c46.8213 0 82.9775 -25.2627 113.903 -46.2471
c35.5742 -24.2881 70.9521 -49.543 102.24 -49.543c33.0332 0 63.125 30.5088 70.9434 73.0596c1.53418 8.36035 1.77832 17.0986 1.64453 22.7383z" />
    <glyph glyph-name="ograve" unicode="&#xf2;" horiz-adv-x="564" 
d="M540.794 324.088c1.60449 -30.7607 -3.18848 -63.292 -14.2627 -96.6641c-11.082 -33.4502 -29.3525 -66.751 -54.3008 -98.9902c-24.9561 -32.2393 -53.1133 -58.9727 -83.7793 -79.4697c-30.666 -20.4883 -62.4023 -35.1729 -94.3818 -43.6904
c-21.2363 -5.59961 -42.4404 -8.42285 -63.4092 -8.42285c-10.7197 0 -21.3535 0.739258 -31.8535 2.20996c-31.3193 4.31836 -60.4834 15.2979 -86.7061 32.6406c-26.1836 17.3193 -46.8135 39.3027 -61.3877 65.3281c-14.5107 25.8838 -22.6982 54.6309 -24.3418 85.4229
c-1.65918 30.7373 3.13867 63.2598 14.2129 96.6865c11.082 33.4502 29.3447 66.751 54.3477 99.0137c24.9014 32.1924 53.0586 58.9258 83.7324 79.4463c30.6113 20.4648 62.3945 35.1494 94.4219 43.667c31.9092 8.41602 63.9834 10.5078 95.2793 6.26074
c31.2793 -4.31836 60.4277 -15.3213 86.6504 -32.6875c26.1836 -17.2881 46.8691 -39.2559 61.3965 -65.2812c14.5352 -26.002 22.7148 -54.7725 24.3818 -85.4697zM336.336 508.242c-0.975586 0 -1.95898 -0.180664 -2.92676 -0.196289
c4.06641 0.046875 8.10938 -0.267578 12.168 -0.432617c-3.09082 0.125977 -6.14258 0.628906 -9.24121 0.628906zM500.687 343.373c2.3125 27.0244 -0.911133 51.5488 -9.60254 72.8945c-8.68359 21.4014 -22.7461 38.5947 -41.7803 51.1943
s-41.1904 19.3633 -65.8711 20.0713c-1.45508 0.046875 -2.91797 0.0703125 -4.39648 0.0703125c-23.4307 0 -48.0488 -5.09668 -73.3428 -15.2031c-26.875 -10.7197 -54.3242 -27.1104 -81.6396 -48.7236c-27.2217 -21.6133 -53.3496 -48.418 -77.5586 -79.7061
c-24.0908 -31.1465 -43.1084 -62.623 -56.5342 -93.6035c-13.3232 -30.8867 -21.2275 -60.208 -23.5244 -87.1777c-2.3125 -27.04 0.912109 -51.5713 9.61914 -72.8701c8.65137 -21.3535 22.7061 -38.5781 41.7715 -51.2412
c19.042 -12.5762 41.2295 -19.3398 65.8711 -20.0244c1.55762 -0.046875 3.12305 -0.0703125 4.64062 -0.0703125c23.2891 0 47.8047 5.09668 73.0908 15.1562c27.0479 10.8613 54.5361 27.252 81.6396 48.7471c27.2686 21.6133 53.3574 48.4414 77.5664 79.7295
c24.2012 31.2637 43.2266 62.7402 56.5342 93.5791c13.2373 30.7451 21.1494 60.0664 23.5166 87.1777zM484.823 583.167c-1.86426 0.826172 -187.536 83.1816 -267.179 94.9326l-4.60156 0.676758l25.9316 48.7324l3.71191 -2.85547
c63.3379 -48.7715 247.406 -127.644 249.255 -128.438l3.12988 -1.33691l-6.55957 -13.3477z" />
    <glyph glyph-name="oacute" unicode="&#xf3;" horiz-adv-x="564" 
d="M540.794 324.088c1.60449 -30.7607 -3.18848 -63.292 -14.2705 -96.6641c-11.082 -33.4502 -29.3447 -66.751 -54.293 -98.9902s-53.1133 -58.9727 -83.7793 -79.4697c-30.6738 -20.4883 -62.4023 -35.1729 -94.3818 -43.6904
c-21.2363 -5.59961 -42.4404 -8.42285 -63.4092 -8.42285c-10.7197 0 -21.3613 0.739258 -31.8535 2.20996c-31.3271 4.31836 -60.4834 15.2979 -86.7061 32.6406c-26.1836 17.3193 -46.8135 39.3027 -61.3877 65.3281c-14.5107 25.8838 -22.6982 54.6309 -24.3418 85.4229
c-1.65918 30.7373 3.13867 63.2598 14.2129 96.6865c11.0898 33.4502 29.3525 66.751 54.3555 99.0137c24.8936 32.1924 53.0586 58.9258 83.7246 79.4463c30.6191 20.4648 62.4023 35.1494 94.4219 43.667c31.9092 8.41602 63.9834 10.5078 95.2793 6.26074
c31.2793 -4.31836 60.4277 -15.3213 86.6504 -32.6875c26.1836 -17.2881 46.8691 -39.2559 61.3965 -65.2812c14.5352 -26.002 22.7148 -54.7725 24.3818 -85.4697zM336.328 508.242c-0.975586 0 -1.95117 -0.180664 -2.91895 -0.196289
c4.05859 0.046875 8.10156 -0.267578 12.1602 -0.432617c-3.08301 0.125977 -6.14258 0.628906 -9.24121 0.628906zM500.687 343.373c2.30469 27.0244 -0.911133 51.5488 -9.60254 72.8945c-8.68359 21.4014 -22.7461 38.5947 -41.7803 51.1943
c-19.042 12.5996 -41.1904 19.3633 -65.8711 20.0713c-1.46289 0.046875 -2.93359 0.0703125 -4.4043 0.0703125c-23.4385 0 -48.0488 -5.09668 -73.3428 -15.2031c-26.875 -10.7197 -54.3242 -27.1104 -81.6396 -48.7236
c-27.2217 -21.6133 -53.3496 -48.418 -77.5586 -79.7061c-24.0908 -31.1465 -43.1006 -62.623 -56.5342 -93.6035c-13.3154 -30.8867 -21.2197 -60.208 -23.5166 -87.1777c-2.3125 -27.04 0.912109 -51.5713 9.61914 -72.8701
c8.64355 -21.3535 22.7061 -38.5781 41.7715 -51.2412c19.0342 -12.5762 41.2295 -19.3398 65.8711 -20.0244c1.5498 -0.046875 3.11523 -0.0703125 4.63281 -0.0703125c23.2891 0 47.8125 5.09668 73.0986 15.1562c27.0479 10.8613 54.5361 27.252 81.6396 48.7471
c27.2686 21.6133 53.3574 48.4414 77.5664 79.7295c24.209 31.2637 43.2266 62.7402 56.5342 93.5791c13.2373 30.7451 21.1416 60.0664 23.5166 87.1777zM203.55 583.167l-4.29492 -1.63477l-1.65137 13.3477l3.62598 1.33691
c2.14746 0.786133 215.207 79.6582 296.47 128.438l4.75879 2.85547l8.02246 -48.7324l-4.85254 -0.676758c-83.9609 -11.751 -299.907 -94.1074 -302.078 -94.9336z" />
    <glyph glyph-name="ocircumflex" unicode="&#xf4;" horiz-adv-x="563" 
d="M516.407 409.559c14.5352 -25.9941 22.7129 -54.7734 24.3799 -85.4707c1.60449 -30.7607 -3.18555 -63.291 -14.2598 -96.6631c-11.082 -33.4502 -29.3447 -66.751 -54.293 -98.9902s-53.1133 -58.9727 -83.7793 -79.4697
c-30.6738 -20.4883 -62.4023 -35.1729 -94.3818 -43.6904c-21.2363 -5.59961 -42.4404 -8.42285 -63.4092 -8.42285c-10.7197 0 -21.3535 0.739258 -31.8535 2.20996c-31.3271 4.31836 -60.4834 15.2979 -86.7061 32.6406
c-26.1836 17.3193 -46.8135 39.3027 -61.3877 65.3281c-14.5117 25.8838 -22.6992 54.6309 -24.3428 85.4229c-1.65918 30.7373 3.13867 63.2598 14.2129 96.6865c11.082 33.4502 29.3447 66.751 54.3477 99.0137c24.8936 32.1924 53.0586 58.9258 83.7246 79.4463
c30.6191 20.4648 62.4023 35.1494 94.4219 43.667c31.9092 8.41602 63.9834 10.5078 95.2793 6.26074c31.2793 -4.31836 60.4277 -15.3213 86.6504 -32.6875c26.1914 -17.2881 46.8691 -39.2559 61.3965 -65.2812zM336.324 508.242
c-0.975586 0 -1.95117 -0.180664 -2.91895 -0.196289c4.05859 0.046875 8.10156 -0.267578 12.1602 -0.432617c-3.08301 0.125977 -6.14258 0.628906 -9.24121 0.628906zM500.683 343.373c2.3125 27.0244 -0.911133 51.5488 -9.61035 72.8945
c-8.68359 21.4014 -22.7461 38.5947 -41.7803 51.1943c-19.042 12.5996 -41.1826 19.3633 -65.8711 20.0713c-1.45508 0.046875 -2.92578 0.0703125 -4.39648 0.0703125c-23.4385 0 -48.0566 -5.09668 -73.3428 -15.2031
c-26.875 -10.7197 -54.3242 -27.1104 -81.6396 -48.7236c-27.2217 -21.6133 -53.3496 -48.418 -77.5586 -79.7061c-24.0908 -31.1465 -43.1006 -62.623 -56.5342 -93.6035c-13.3154 -30.8867 -21.2197 -60.208 -23.5166 -87.1777
c-2.3125 -27.04 0.919922 -51.5713 9.61914 -72.8701c8.64355 -21.3535 22.7061 -38.5781 41.7715 -51.2412c19.0342 -12.5762 41.2295 -19.3398 65.8711 -20.0244c1.5498 -0.046875 3.11523 -0.0703125 4.63281 -0.0703125c23.2969 0 47.8125 5.09668 73.0986 15.1562
c27.0479 10.8613 54.5361 27.252 81.6396 48.7471c27.2686 21.6133 53.3574 48.4414 77.5664 79.7295c24.209 31.2637 43.2344 62.7402 56.5342 93.5791c13.2373 30.7451 21.1416 60.0664 23.5166 87.1777zM156.182 533.247l-3.74512 -2.51758l-6.18945 12.1748
l3.2959 2.28906c53.4043 37.0996 161.566 114.493 224.095 162.777l3.06738 2.36719l2.19434 -2.36719c44.7529 -48.2529 124.475 -125.662 164.272 -162.777l2.4541 -2.28906l-10.665 -12.1748l-2.81543 2.5166c-45.0596 40.2773 -110.191 93.9414 -165.578 121.871
c-65.6582 -27.9209 -150.516 -81.585 -210.386 -121.87z" />
    <glyph glyph-name="otilde" unicode="&#xf5;" horiz-adv-x="563" 
d="M516.421 409.559c14.5352 -25.9941 22.7207 -54.7734 24.3721 -85.4707c1.6123 -30.7607 -3.18555 -63.291 -14.252 -96.6631c-11.082 -33.4502 -29.3525 -66.751 -54.3008 -98.9902c-24.9561 -32.2393 -53.1133 -58.9727 -83.7793 -79.4697
c-30.666 -20.4883 -62.4023 -35.1729 -94.3818 -43.6904c-21.2363 -5.59961 -42.4404 -8.42285 -63.4092 -8.42285c-10.7197 0 -21.3535 0.739258 -31.8535 2.20996c-31.3271 4.31836 -60.4756 15.2979 -86.7061 32.6406
c-26.1836 17.3193 -46.8135 39.3027 -61.3877 65.3281c-14.5117 25.8838 -22.6992 54.6309 -24.3428 85.4229c-1.65918 30.7373 3.13086 63.2598 14.2129 96.6865c11.082 33.4502 29.3447 66.751 54.3477 99.0137c24.9014 32.1924 53.0586 58.9258 83.7324 79.4463
c30.6191 20.4648 62.4023 35.1494 94.4219 43.667c31.9092 8.41602 63.9834 10.5078 95.2793 6.26074c31.2715 -4.31836 60.4199 -15.3213 86.6504 -32.6875c26.1914 -17.2881 46.8691 -39.2559 61.3965 -65.2812zM336.338 508.242
c-0.967773 0 -1.95117 -0.180664 -2.91895 -0.196289c4.05859 0.046875 8.10938 -0.267578 12.1602 -0.432617c-3.08301 0.125977 -6.14258 0.628906 -9.24121 0.628906zM500.696 343.373c2.3125 27.0244 -0.912109 51.5488 -9.62695 72.8945
c-8.68359 21.4014 -22.7461 38.5947 -41.7803 51.1943s-41.1826 19.3633 -65.8633 20.0713c-1.46289 0.046875 -2.93359 0.0703125 -4.4043 0.0703125c-23.4385 0 -48.0488 -5.09668 -73.3428 -15.2031c-26.8828 -10.7197 -54.3242 -27.1104 -81.6396 -48.7236
c-27.2217 -21.6133 -53.3496 -48.418 -77.5586 -79.7061c-24.083 -31.1465 -43.1006 -62.623 -56.5342 -93.6035c-13.3154 -30.8867 -21.2197 -60.208 -23.5166 -87.1777c-2.3125 -27.04 0.912109 -51.5713 9.61914 -72.8701
c8.65137 -21.3535 22.7061 -38.5781 41.7793 -51.2412c19.042 -12.5762 41.2373 -19.3398 65.8711 -20.0244c1.55762 -0.046875 3.12305 -0.0703125 4.64062 -0.0703125c23.2969 0 47.8125 5.09668 73.0986 15.1562c27.04 10.8613 54.5371 27.252 81.6406 48.7471
c27.2686 21.6133 53.3574 48.4414 77.5664 79.7295c24.209 31.2637 43.2266 62.7402 56.5342 93.5791c13.2373 30.7451 21.1416 60.0664 23.5166 87.1777zM547.471 713.391l12.3691 0.761719c0.37793 -8.5498 -1.4707 -21.7637 -3.22461 -31.2881
c-9.52441 -51.8711 -42.2275 -81.7979 -98.9668 -81.7979c-42.3535 0 -81.2148 24.2959 -113.761 47.0264c-34.5986 24.2881 -65.7051 49.5508 -96.9844 49.5508c-39.2471 0 -70 -35.1729 -77.4248 -75.584c-2.39062 -13.0166 -2.1709 -22.3447 -2.15527 -25.4512
l-12.5605 -1.75391c-0.0791016 10.1064 1.29688 20.7871 3.4043 32.2549c10.0674 54.7969 49.8574 86.2734 100.572 86.2734c46.8213 0 82.9854 -25.2627 113.903 -46.2471c35.5742 -24.2881 70.9521 -49.543 102.24 -49.543c33.0332 0 63.125 30.5088 70.9434 73.0596
c1.53418 8.36035 1.77832 17.0986 1.64453 22.7383z" />
    <glyph glyph-name="odieresis" unicode="&#xf6;" horiz-adv-x="564" 
d="M540.803 324.088c1.60449 -30.7607 -3.1875 -63.292 -14.2695 -96.6641c-11.082 -33.4502 -29.3525 -66.751 -54.3008 -98.9902c-24.9561 -32.2393 -53.1133 -58.9727 -83.7793 -79.4697c-30.666 -20.4883 -62.4023 -35.1729 -94.3818 -43.6904
c-21.2363 -5.59961 -42.4404 -8.42285 -63.4092 -8.42285c-10.7197 0 -21.3535 0.739258 -31.8535 2.20996c-31.3193 4.31836 -60.4834 15.2979 -86.7061 32.6406c-26.1836 17.3193 -46.8135 39.3027 -61.3877 65.3281c-14.5117 25.8838 -22.6992 54.6309 -24.3428 85.4229
c-1.65918 30.7373 3.13867 63.2598 14.2129 96.6865c11.082 33.4502 29.3447 66.751 54.3477 99.0137c24.9014 32.1924 53.0664 58.9258 83.7324 79.4463c30.6113 20.4648 62.3945 35.1494 94.4219 43.667c31.9092 8.41602 63.9834 10.5078 95.2793 6.26074
c31.2793 -4.31836 60.4277 -15.3213 86.6504 -32.6875c26.1914 -17.2881 46.877 -39.2559 61.4043 -65.2812c14.5352 -26.002 22.7148 -54.7725 24.3818 -85.4697zM336.346 508.242c-0.975586 0 -1.95117 -0.180664 -2.91895 -0.196289
c4.06641 0.046875 8.10156 -0.267578 12.1602 -0.432617c-3.09082 0.125977 -6.14258 0.628906 -9.24121 0.628906zM500.696 343.373c2.3125 27.0244 -0.911133 51.5488 -9.60254 72.8945c-8.68359 21.4014 -22.7461 38.5947 -41.7803 51.1943
s-41.1904 19.3633 -65.8711 20.0713c-1.45508 0.046875 -2.92578 0.0703125 -4.39648 0.0703125c-23.4307 0 -48.0488 -5.09668 -73.3428 -15.2031c-26.875 -10.7197 -54.3242 -27.1104 -81.6396 -48.7236c-27.2217 -21.6133 -53.3496 -48.418 -77.5586 -79.7061
c-24.0908 -31.1465 -43.1084 -62.623 -56.5342 -93.6035c-13.3232 -30.8867 -21.2275 -60.208 -23.5244 -87.1777c-2.3125 -27.04 0.912109 -51.5713 9.61914 -72.8701c8.65137 -21.3535 22.7061 -38.5781 41.7715 -51.2412
c19.0342 -12.5762 41.2295 -19.3398 65.8711 -20.0244c1.55762 -0.046875 3.12305 -0.0703125 4.64062 -0.0703125c23.2891 0 47.8047 5.09668 73.0908 15.1562c27.0479 10.8613 54.5361 27.252 81.6396 48.7471c27.2686 21.6133 53.3574 48.4414 77.5664 79.7295
c24.209 31.2637 43.2266 62.7402 56.5342 93.5791c13.2373 30.7451 21.1494 60.0664 23.5166 87.1777zM339.823 654.512l-66.0908 -55.8193l-45.5547 55.8193l66.083 55.8271zM486.47 654.512l-66.083 -55.8193l-45.5625 55.8193l66.083 55.8271z" />
    <glyph glyph-name="divide" unicode="&#xf7;" horiz-adv-x="458" 
d="M11.1973 320.731h423.933l-3.46875 -17.2012h-423.933zM344.774 487.528l-94.791 -78.8877l-62.9844 78.8877l94.7988 78.8955zM116.268 136.766l94.7988 78.8877l62.9766 -78.8877l-94.791 -78.8877z" />
    <glyph glyph-name="oslash" unicode="&#xf8;" horiz-adv-x="565" 
d="M518.009 409.559c14.5352 -25.9941 22.7227 -54.7744 24.3896 -85.4717c1.60449 -30.7607 -3.18555 -63.291 -14.2598 -96.6631c-11.082 -33.4502 -29.3447 -66.751 -54.293 -98.9902s-53.1133 -58.9727 -83.7793 -79.4697
c-30.6738 -20.4883 -62.4023 -35.1729 -94.3818 -43.6904c-21.2363 -5.59961 -42.4404 -8.42285 -63.4092 -8.42285c-10.7207 0 -21.3545 0.739258 -31.8545 2.20996c-31.3271 4.31836 -60.4834 15.2979 -86.7061 32.6406
c-5.63184 3.71973 -10.957 7.69922 -16.0615 11.8438l-85.4473 -92.8486l-6.14258 5.23047l85.4395 92.8408c-15.8721 14 -29.0225 30.124 -39.1846 48.2529c-14.5107 25.8838 -22.6982 54.6309 -24.3418 85.4229c-1.65918 30.7373 3.13867 63.2598 14.2129 96.6865
c11.082 33.4502 29.3447 66.751 54.3477 99.0137c24.9014 32.1924 53.0586 58.9258 83.7324 79.4463c30.6191 20.4648 62.4023 35.1494 94.4219 43.667c31.9092 8.41602 63.9834 10.5078 95.2793 6.26074c31.2793 -4.31836 60.4277 -15.3213 86.6504 -32.6875
c5.63184 -3.71973 10.957 -7.69922 16.0771 -11.8438l85.416 92.8242l6.14258 -5.23047l-85.4082 -92.8086c15.8721 -13.9766 29.0381 -30.084 39.1602 -48.2129zM337.928 508.241c-0.975586 0 -1.95117 -0.180664 -2.91895 -0.196289
c4.05859 0.046875 8.10156 -0.267578 12.1602 -0.432617c-3.08301 0.125977 -6.14258 0.628906 -9.24121 0.628906zM77.6455 90.3096c5.14355 -12.6943 12.4268 -23.7373 21.3223 -33.4434l366.839 398.63c-4.60156 4.31836 -9.50195 8.36914 -14.9131 11.9561
c-19.042 12.5996 -41.1826 19.3633 -65.8711 20.0713c-1.45508 0.046875 -2.92578 0.0703125 -4.39648 0.0703125c-23.4385 0 -48.0566 -5.09668 -73.3428 -15.2031c-26.8828 -10.7197 -54.3242 -27.1104 -81.6396 -48.7236
c-27.2295 -21.6133 -53.3574 -48.418 -77.5664 -79.7061c-24.083 -31.1465 -43.1006 -62.623 -56.5342 -93.6035c-13.3154 -30.8867 -21.2197 -60.208 -23.5166 -87.1777c-2.3125 -27.04 0.919922 -51.5713 9.61914 -72.8701zM502.286 343.371
c2.3125 27.0244 -0.912109 51.5498 -9.60352 72.9111c-5.15918 12.7021 -12.4346 23.7295 -21.2988 33.3877l-366.847 -398.638c4.59375 -4.31055 9.48633 -8.36133 14.8896 -11.9561c19.0342 -12.5762 41.2295 -19.3398 65.8711 -20.0244
c1.5498 -0.046875 3.11523 -0.0703125 4.63281 -0.0703125c23.2969 0 47.8125 5.09668 73.0986 15.1562c27.0479 10.8613 54.5361 27.252 81.6396 48.7471c27.2686 21.6133 53.3574 48.4414 77.5664 79.7295c24.209 31.2637 43.2344 62.7402 56.5342 93.5791
c13.2373 30.7451 21.1416 60.0664 23.5166 87.1777z" />
    <glyph glyph-name="ugrave" unicode="&#xf9;" horiz-adv-x="568" 
d="M528.867 492.073l-86.9951 -473.309h71.9268l-3.00488 -16.3359h-159.207l12.0254 65.4385c-51.0059 -52.3428 -108.87 -76.3633 -168.897 -76.3633c-100.336 0 -145.906 66.5547 -128.068 163.603l60.2236 327.64l-71.9424 -0.118164l1.73828 9.44629h159.207
l-61.7412 -335.905c-14.2285 -77.4326 2.61035 -134.125 78.9658 -134.125c40.3164 0 85.1953 18.5615 134.525 67.6162l71.1562 387.139h-71.9268l2.80762 15.2744h159.207zM485.005 577.168c-1.86426 0.826172 -187.536 83.1816 -267.187 94.9326l-4.59375 0.676758
l25.9316 48.7324l3.7041 -2.85547c63.3379 -48.7715 247.406 -127.644 249.255 -128.438l3.12988 -1.33691l-6.55176 -13.3477z" />
    <glyph glyph-name="uacute" unicode="&#xfa;" horiz-adv-x="568" 
d="M528.875 492.073l-87.0039 -473.309h71.9268l-3.00488 -16.3359h-159.207l12.0254 65.4385c-51.0059 -52.3428 -108.87 -76.3633 -168.897 -76.3633c-100.336 0 -145.906 66.5547 -128.068 163.603l60.2236 327.64l-71.9424 -0.118164l1.73828 9.44629h159.207
l-61.7412 -335.905c-14.2285 -77.4326 2.61914 -134.125 78.9746 -134.125c40.3164 0 85.1953 18.5615 134.525 67.6162l71.1562 387.139h-71.9268l2.80762 15.2744h159.207zM203.745 577.168l-4.30273 -1.63477l-1.64355 13.3477l3.62598 1.33691
c2.14746 0.786133 215.207 79.6582 296.47 128.438l4.75879 2.85547l8.02246 -48.7324l-4.85254 -0.676758c-83.9688 -11.751 -299.907 -94.1074 -302.078 -94.9336z" />
    <glyph glyph-name="ucircumflex" unicode="&#xfb;" horiz-adv-x="569" 
d="M369.664 492.073l159.209 0.000976562l-86.9971 -473.31h71.9268l-3.00488 -16.3359h-159.207l12.0254 65.4385c-51.0059 -52.3428 -108.87 -76.3633 -168.897 -76.3633c-100.336 0 -145.906 66.5547 -128.068 163.603l60.2236 327.64l-71.9424 -0.118164
l1.73828 9.44629h159.207l-61.7412 -335.905c-14.2285 -77.4326 2.61035 -134.125 78.9658 -134.125c40.3164 0 85.1953 18.5615 134.525 67.6162l71.1562 387.139h-71.9268zM147.216 527.247l-3.7373 -2.51758l-6.19727 12.1748l3.2959 2.28906
c53.4121 37.0996 161.574 114.493 224.103 162.777l3.06738 2.36719l2.19434 -2.36719c44.7451 -48.2529 124.467 -125.662 164.265 -162.777l2.4541 -2.28906l-10.665 -12.1748l-2.80762 2.5166c-45.0674 40.2773 -110.199 93.9414 -165.586 121.871
c-65.6582 -27.9209 -150.508 -81.585 -210.386 -121.87z" />
    <glyph glyph-name="udieresis" unicode="&#xfc;" horiz-adv-x="568" 
d="M528.875 492.073l-87.0039 -473.309h71.9268l-3.00488 -16.3359h-159.207l12.0254 65.4385c-51.0059 -52.3428 -108.87 -76.3633 -168.897 -76.3633c-100.336 0 -145.906 66.5547 -128.068 163.603l60.2236 327.64l-71.9424 -0.118164l1.73828 9.44629h159.207
l-61.7412 -335.905c-14.2285 -77.4326 2.61914 -134.125 78.9746 -134.125c40.3164 0 85.1953 18.5615 134.525 67.6162l71.1562 387.139h-71.9268l2.80762 15.2744h159.207zM339.993 648.513l-66.083 -55.8193l-45.5625 55.8193l66.083 55.8271zM486.64 648.513
l-66.083 -55.8193l-45.5625 55.8193l66.083 55.8271z" />
    <glyph glyph-name="yacute" unicode="&#xfd;" horiz-adv-x="565" 
d="M448.422 491.01l158.129 -0.000976562l-1.73828 -9.4541c-38.0908 0 -76.2607 -24.9795 -93.918 -61.4658l-119.904 -247.784c-30.4775 -62.9922 -58.7217 -126.661 -84.6533 -190.888l-0.370117 -0.935547c-16.0762 -39.7979 -43.6982 -77.1338 -77.125 -107.91
c-53.7109 -49.4951 -122.869 -77.9043 -189.755 -77.9043h-2.15527l14.9834 81.5225h82.0732c42.7861 0.550781 87.0674 19.042 121.398 50.6758c24.8457 22.8721 43.0225 51.3516 52.5625 81.5381l-77.6445 0.157227l-126.503 472.995h-56.2441l1.73828 9.4541h224.645
l-1.73828 -9.4541h-72.2969l107.714 -435.125l212.312 435.125h-73.248zM204.231 583.165l-4.29492 -1.63477l-1.64355 13.3477l3.62598 1.33691c2.13965 0.786133 215.199 79.6582 296.47 128.438l4.75098 2.85547l8.02246 -48.7324l-4.84473 -0.676758
c-83.9766 -11.751 -299.915 -94.1074 -302.086 -94.9336z" />
    <glyph glyph-name="ydieresis" unicode="&#xff;" horiz-adv-x="565" 
d="M448.434 491.01l158.113 -0.000976562l-1.73828 -9.4541c-38.0908 0 -76.2607 -24.9795 -93.918 -61.4658l-119.904 -247.784c-30.4775 -62.9922 -58.7139 -126.661 -84.6455 -190.888l-0.37793 -0.935547c-16.0762 -39.7979 -43.6982 -77.1338 -77.125 -107.91
c-53.7188 -49.4951 -122.869 -77.9043 -189.755 -77.9043h-2.15527l14.9834 81.5225h82.0732c42.7939 0.550781 87.0752 19.042 121.406 50.6758c24.8457 22.8721 43.0146 51.3516 52.5625 81.5381l-77.6367 0.157227l-126.503 472.995h-56.2441l1.73828 9.4541h224.645
l-1.73828 -9.4541h-72.3047l107.714 -435.125l212.32 435.125h-73.248zM340.492 654.51l-66.083 -55.8193l-45.5625 55.8193l66.083 55.8271zM487.139 654.51l-66.083 -55.8193l-45.5625 55.8193l66.083 55.8271z" />
    <glyph glyph-name="Lslash" unicode="&#x141;" horiz-adv-x="562" 
d="M512.384 225.403l9.61035 0.0078125l-39.8838 -217.008h-507.052l1.59668 8.70703h82.8906l71.8564 390.97l-114.98 -97.127l-5.08887 6.2373l122.366 103.364l50.6357 275.478h-82.8906l1.68359 9.1709h258.434l-1.68359 -9.1709h-83.9531l-33.7969 -183.888
l100.493 84.8887l5.09668 -6.2373l-107.879 -91.1338l-88.6953 -482.56h104.646c115.044 0 235.452 93.2568 256.594 208.301z" />
    <glyph glyph-name="lslash" unicode="&#x142;" horiz-adv-x="287" 
d="M362.008 582.788l-118.355 -99.9736l-86.9023 -472.791l74.1367 -0.0546875l-1.76172 -9.57227h-234.421l1.76953 9.62695h74.1445l71.0693 386.659l-110.97 -93.7451l-5.08887 6.24512l118.355 99.9736l63.2754 344.274h-74.1445l1.69141 9.20215h160.276
l-49.1416 -267.345l110.97 93.7373z" />
    <glyph glyph-name="OE" unicode="&#x152;" horiz-adv-x="1119" 
d="M642.273 705.194l507.036 0.0224609l-33.1357 -180.293h-9.27344c16.627 90.457 -52.6494 163.689 -143.17 163.375l-150.201 -0.535156l-57.9189 -315.126l-3.20898 -17.4531l-2.68164 -14.582h93.3906l-1.8252 -9.91016h-93.3906l-56.0156 -304.775l51.2256 -0.0625
h138.058c74.3262 0 145.655 60.2471 159.317 134.573h8.69922l-27.9453 -152.025h-507.052l1.59668 8.70703h82.8906l26.9854 146.812c-30.8633 -36.6357 -64.6045 -67.2549 -101.279 -91.7705c-42.7393 -28.5664 -86.4385 -48.7803 -131.05 -60.6484
c-44.6191 -11.8135 -88.7666 -14.7393 -132.348 -8.6748c-43.6279 6.04785 -83.7793 21.1494 -120.36 45.3506c-36.5732 24.2012 -64.9902 54.4668 -85.2588 90.709c-20.2998 36.2031 -31.5312 75.7725 -33.8047 118.614c-2.28906 42.9043 4.30176 87.6729 19.749 134.306
s40.5918 92.4707 75.4502 137.522c34.835 45.0127 73.626 81.8135 116.373 110.388c42.7549 28.5664 86.4463 48.7803 131.089 60.625c44.5879 11.8369 88.6797 14.7471 132.347 8.73047c43.6357 -6.05664 83.7559 -21.1895 120.337 -45.3906
c35.9912 -23.8154 64.0703 -53.5146 84.2764 -88.9941l22.3057 121.336h-82.8906zM682.213 481.5c3.24805 37.9336 -1.21973 71.918 -13.4424 101.979c-12.2383 30.0215 -31.7041 53.9082 -58.501 71.6367c-26.7969 17.7363 -57.5498 27.0879 -92.2041 28.0869
c-34.7168 0.991211 -70.9434 -6.06348 -108.72 -21.1484c-37.7764 -15.0771 -75.7734 -37.752 -113.998 -68.0488c-38.2324 -30.2891 -74.334 -67.3574 -108.272 -111.222c-33.9697 -43.9033 -60.2549 -87.4609 -78.9268 -130.704
c-18.6719 -43.251 -29.6123 -83.8115 -32.8525 -121.745c-3.24023 -37.9258 1.22754 -71.9111 13.4658 -101.948c12.1836 -30.0527 31.6816 -53.9473 58.4785 -71.6758c26.8047 -17.7363 57.5186 -27.0723 92.2354 -28.0557
c34.6934 -1.01465 70.9121 6.04004 108.696 21.125c37.7451 15.1016 75.7656 37.7451 113.99 68.0498c38.2402 30.2891 74.333 67.3574 108.303 111.261c33.9385 43.8643 60.2236 87.4219 78.8955 130.665c18.6719 43.251 29.5811 83.835 32.8525 121.745z" />
    <glyph glyph-name="oe" unicode="&#x153;" horiz-adv-x="970" 
d="M533.685 240.206c-13.5127 -31.3037 -21.4395 -60.668 -23.7988 -88.1094c-2.35156 -27.457 0.888672 -52.0596 9.74512 -73.8066c8.81641 -21.7549 22.9346 -39.0508 42.3301 -51.8867c19.4033 -12.8359 41.4961 -20.3076 66.7666 -20.3076
c192.57 0 266.817 171.57 277.238 189.558l14.708 -75.9775c-0.550781 -0.723633 -0.880859 -1.45508 -1.43164 -2.1709c-25.2314 -32.6172 -114.887 -126.165 -279.521 -126.165c-35.9043 0 -66.5625 11.3496 -93.0371 28.8652
c-26.4824 17.5234 -40.3721 39.4355 -55.0488 65.6738c-8.29785 14.8018 -13.2217 30.4141 -16.2891 46.7578c-1.0459 -1.40039 -2.04492 -2.80078 -3.11426 -4.19336c-24.9482 -32.2393 -53.1133 -58.9727 -83.7793 -79.4697
c-30.6738 -20.4883 -62.4023 -35.1729 -94.3818 -43.6904c-21.2363 -5.59961 -42.4404 -8.42285 -63.4092 -8.42285c-10.7197 0 -21.3613 0.739258 -31.8535 2.20996c-31.3271 4.31836 -60.4834 15.2979 -86.7061 32.6406
c-26.1836 17.3193 -46.8135 39.3027 -61.3877 65.3281c-14.5117 25.8838 -22.6992 54.6309 -24.3428 85.4229c-1.65918 30.7373 3.13867 63.2598 14.2129 96.6865c11.0898 33.4502 29.3525 66.751 54.3555 99.0137c24.8936 32.1924 53.0586 58.9258 83.7246 79.4463
c30.6191 20.4648 62.4023 35.1494 94.4219 43.667c31.9092 8.41602 63.9834 10.5078 95.2793 6.26074c31.2881 -4.31836 60.4365 -15.3213 86.6592 -32.6875c26.1836 -17.2881 46.8691 -39.2559 61.3965 -65.2812c8.36816 -14.9678 14.5576 -30.8711 18.6787 -47.5137
c1.60449 2.15527 3.1543 4.31055 4.82129 6.45801c25.2002 32.585 53.2871 59.2324 84.2363 79.918c30.9414 20.6777 62.5752 35.3066 94.8936 43.8877c32.2783 8.56543 64.1953 10.6729 95.8057 6.31543c12.5059 -1.73047 24.3037 -5.30957 36.0068 -9.10059
c17.8613 -5.78906 35.1094 -13.1748 51.1074 -23.7539c17.5312 -11.6094 41.6777 -34.6543 56.6533 -57.4707c2.96484 -4.52246 4.74219 -8.87207 6.86621 -13.2842h-318.704c-19.3721 -17.8066 -38.2168 -37.2646 -55.9688 -60.1992
c-24.5869 -31.7832 -43.6211 -63.3145 -57.1338 -94.6182zM669.202 415.344c-2.6582 -2.10742 -5.11719 -4.8291 -7.75195 -7.03125h277.734c-8.87207 21.4326 -22.8018 38.5625 -42.001 51.2725c-13.1348 8.69141 -28.0625 13.5596 -43.8086 16.6982
c-7.51953 1.49414 -14.834 3.39746 -22.9434 3.63379c-25.1211 0.71582 -51.3516 -4.38867 -78.6992 -15.3135c-27.3555 -10.917 -54.8525 -27.332 -82.5303 -49.2598zM336.344 508.247c-0.967773 0 -1.95117 -0.180664 -2.91895 -0.196289
c4.06641 0.046875 8.10938 -0.267578 12.1602 -0.432617c-3.08301 0.125977 -6.14258 0.628906 -9.24121 0.628906zM500.702 343.378c2.3125 27.0244 -0.911133 51.5498 -9.60254 72.8955c-8.69141 21.4014 -22.7461 38.5947 -41.7803 51.1943
c-19.042 12.5996 -41.1904 19.3633 -65.8711 20.0713c-1.46289 0.046875 -2.93359 0.0703125 -4.4043 0.0703125c-23.4385 0 -48.0488 -5.09668 -73.3428 -15.2031c-26.875 -10.7207 -54.3242 -27.1113 -81.6396 -48.7246
c-27.2217 -21.6133 -53.3496 -48.418 -77.5586 -79.7061c-24.0908 -31.1465 -43.1084 -62.623 -56.5342 -93.6035c-13.3154 -30.8867 -21.2197 -60.208 -23.5166 -87.1777c-2.3125 -27.04 0.912109 -51.5713 9.61133 -72.8701
c8.65137 -21.3535 22.7139 -38.5781 41.7793 -51.2412c19.0342 -12.5762 41.2295 -19.3398 65.8711 -20.0244c1.5498 -0.046875 3.11523 -0.0703125 4.63281 -0.0703125c23.2891 0 47.8125 5.09668 73.0986 15.1562c27.0479 10.8613 54.5361 27.252 81.6396 48.7471
c27.2686 21.6133 53.3574 48.4414 77.5664 79.7295c24.209 31.2637 43.2266 62.7402 56.5342 93.5791c13.2373 30.7451 21.1416 60.0664 23.5166 87.1777z" />
    <glyph glyph-name="Scaron" unicode="&#x160;" horiz-adv-x="497" 
d="M72.3486 539.719c21.8496 118.851 131.695 176.659 258.19 176.651c65.4385 0 107.006 -14.165 152.333 -52.3428l-21.2041 -115.374h-9.28125c14.4014 78.3447 -34.6221 143.72 -112.149 147.652c-5.78906 0.291016 -11.6797 0.44043 -17.665 0.44043
c-97.0557 0 -162.879 -43.6357 -177.304 -122.13c-34.2764 -186.468 336.338 -134.125 290.036 -386.03c-23.8477 -129.775 -137.586 -190.864 -274.998 -190.864c-76.3633 0 -119.559 14.2041 -164.894 52.3428l24.0752 131.002h9.84766
c-16.0293 -87.209 38.4053 -161.181 125.15 -163.548c4.15234 -0.118164 8.37598 -0.172852 12.6699 -0.172852c107.973 0 177.288 44.7529 194.521 138.521c36.0771 196.275 -333.027 146.111 -289.328 383.852zM565.142 918.726l6.1748 -12.1748l-3.2959 -2.28906
c-53.4121 -37.0996 -161.566 -114.493 -224.095 -162.777l-3.06738 -2.36719l-2.19434 2.36719c-44.7451 48.2529 -124.467 125.662 -164.265 162.777l-2.4541 2.28906l10.6729 12.1748l2.82324 -2.5166c45.0674 -40.2773 110.199 -93.9414 165.586 -121.87
c65.6504 27.9209 150.5 81.585 210.378 121.87z" />
    <glyph glyph-name="scaron" unicode="&#x161;" horiz-adv-x="418" 
d="M64.9619 374.048c17.4375 94.8691 112.14 135.226 210.266 135.241c55.6699 0 91.9678 -9.81543 142.832 -35.9668l-8.23438 -32.7188h-4.34961c-42.0947 38.1387 -79.5957 53.4131 -134.117 53.4131c-69.5908 1.10938 -114.446 -29.4307 -124.27 -82.8428
c-26.2617 -142.871 253.219 -93.8164 220.751 -270.468c-19.2383 -104.693 -123.396 -142.871 -224.802 -142.871c-62.1582 0 -107.241 9.81543 -153.449 37.1152l8.43164 33.7891h4.34961c41.9922 -38.1855 82.6709 -54.5215 145.899 -54.5215
c78.4863 0 127.03 32.7188 137.656 90.5273c27.457 149.391 -251.827 101.397 -220.964 269.303zM484.394 710.339l6.18262 -12.1748l-3.2959 -2.28906c-53.4043 -37.0996 -161.566 -114.493 -224.095 -162.777l-3.06738 -2.36719l-2.19434 2.36719
c-44.7529 48.2529 -124.475 125.662 -164.272 162.777l-2.4541 2.28906l10.6729 12.1748l2.80762 -2.5166c45.0674 -40.2773 110.199 -93.9414 165.586 -121.87c65.6582 27.9209 150.508 81.585 210.386 121.87z" />
    <glyph glyph-name="Ydieresis" unicode="&#x178;" horiz-adv-x="589" 
d="M341.927 828.921l-66.083 -55.8271l-45.5625 55.8271l66.083 55.8271zM488.573 828.921l-66.083 -55.8271l-45.5625 55.8271l66.083 55.8271zM492.097 705.193h170.075l-1.68359 -9.1709c-37.9023 0 -76.5908 -20.6543 -100.926 -53.8848l-254.084 -346.948
l-51.1152 -278.097h89.4189l-1.60449 -8.70703h-271.529l1.60449 8.70703h90.5205l48.9131 266.11l-146.056 412.819h-56.1182l1.68359 9.1709h248.618l-1.68359 -9.1709h-86.5557l125.331 -382.278l280.291 382.278h-86.7842z" />
    <glyph glyph-name="Zcaron" unicode="&#x17d;" horiz-adv-x="554" 
d="M599.104 705.194l-2.2207 -11.9873l-545.166 -676.105h171.178c115.044 0 228.955 93.2568 250.097 208.301h8.13281l-39.8838 -217.008h-488.183l2.20215 11.9863l544.946 675.956l-225.117 -0.188477c-81.5615 -0.0703125 -163.886 -66.2002 -178.877 -147.754
h-8.49414l28.8184 156.8h482.567zM344.152 741.483c-44.7451 48.2529 -124.466 125.654 -164.264 162.778l-2.4541 2.28906l10.665 12.1748l2.82324 -2.5166c45.0674 -40.2773 110.199 -93.9414 165.586 -121.871c65.6504 27.9209 150.5 81.585 210.378 121.87
l3.73633 2.5166l6.18945 -12.1748l-3.2959 -2.28906c-53.4199 -37.0996 -161.574 -114.493 -224.103 -162.777l-3.06738 -2.36719z" />
    <glyph glyph-name="zcaron" unicode="&#x17e;" horiz-adv-x="432" 
d="M71.541 480.596l1.36816 9.44531h375.145l-2.00586 -10.917l-385.778 -469.102h315.896l-0.708008 -9.62695h-406.755l2.00586 10.917l384.395 469.283h-283.562zM492.358 702.338l6.19043 -12.1738l-3.2959 -2.28906
c-53.4121 -37.0996 -161.566 -114.493 -224.095 -162.777l-3.06738 -2.36719l-2.19434 2.36719c-44.7529 48.2529 -124.475 125.662 -164.272 162.777l-2.4541 2.28906l10.665 12.1748l2.81543 -2.5166c45.0674 -40.2773 110.199 -93.9414 165.586 -121.871
c65.6582 27.9209 150.508 81.585 210.386 121.87z" />
    <glyph glyph-name="quoteleft" unicode="&#x2018;" horiz-adv-x="215" 
d="M163.589 648.408c-6.35547 -16.5566 -4.42773 -33.5352 5.06543 -45.4355l50.8242 -63.6611l-94.791 -78.8955l-56.582 78.8877s79.7607 160.339 176.054 205.563l2.13184 -5.37988c-45.3193 -31.9404 -71.1875 -61.0654 -82.7021 -91.0791z" />
    <glyph glyph-name="quoteright" unicode="&#x2019;" horiz-adv-x="213" 
d="M184.74 744.874l56.5811 -78.8877s-79.7607 -160.339 -176.054 -205.563l-2.13184 5.37988c45.3271 31.9482 71.1875 61.0732 82.71 91.0869c6.34766 16.5479 4.42871 33.5361 -5.07227 45.4287l-50.8242 63.6602z" />
    <glyph glyph-name="quotedblleft" unicode="&#x201c;" horiz-adv-x="375" 
d="M235.295 739.486c-45.3193 -31.9404 -71.1787 -61.0654 -82.709 -91.0869c-6.34766 -16.5479 -4.42871 -33.5283 5.07227 -45.4287l50.8242 -63.6602l-94.791 -78.8955l-56.582 78.8877s79.7607 160.339 176.054 205.563zM336.135 648.408
c-6.35547 -16.5566 -4.42871 -33.5352 5.06445 -45.4355l50.8252 -63.6611l-94.791 -78.8955l-56.582 78.8877s79.7607 160.339 176.054 205.563l2.13184 -5.37988c-45.3193 -31.9404 -71.1875 -61.0654 -82.7021 -91.0791z" />
    <glyph glyph-name="quotedblright" unicode="&#x201d;" horiz-adv-x="374" 
d="M359.298 744.874l56.5742 -78.8877s-79.7607 -160.339 -176.054 -205.563l-2.13184 5.37988c45.3193 31.9482 71.1875 61.0732 82.71 91.0869c6.35547 16.5479 4.42871 33.5361 -5.07227 45.4287l-50.8252 63.6602zM80.9502 665.979l94.7988 78.8955l56.5742 -78.8877
s-79.7607 -160.339 -176.054 -205.563l-2.13184 5.37988c45.3271 31.9482 71.1953 61.0732 82.71 91.0869c6.35547 16.5479 4.42871 33.5361 -5.07227 45.4287z" />
    <glyph glyph-name="Euro" unicode="&#x20ac;" horiz-adv-x="842" 
d="M749.774 629.881c31.6572 -21.1885 55.8271 -47.8604 74.8213 -78.3066l-17.4609 -30.3984c-2.07617 9.60352 -3.45215 19.5762 -6.90527 28.4951c-11.7031 30.0215 -30.7451 53.9082 -57.2275 71.6367c-17.9326 12.002 -38.4297 18.7266 -60.0986 23.0605
c-10.3506 2.07617 -20.418 4.70312 -31.6104 5.02539c-34.6855 0.983398 -71.0459 -6.07129 -109.09 -21.1562c-38.0439 -15.0771 -76.4336 -37.752 -115.209 -68.0488c-38.7832 -30.2891 -75.5371 -67.3574 -110.254 -111.222
c-19.8984 -25.1367 -37.1865 -50.1562 -52.0596 -75.0732h158.986l-2.72168 -13.4805h-164.075c-7.9043 -14.0791 -15.0928 -28.1338 -21.3926 -42.1494c-3.12988 -6.96094 -5.97754 -13.8271 -8.70703 -20.6543h181.513l-2.72168 -13.4805h-183.99
c-11.1924 -30.6191 -18.2627 -59.8223 -21.1338 -87.6016c-3.91699 -37.9258 -0.0556641 -71.9111 11.6475 -101.948c11.6406 -30.0449 30.7139 -53.9473 57.1963 -71.6758c26.4746 -17.7363 56.8184 -28.0557 91.7236 -28.0557c266 0 372.809 237.009 387.643 261.854
l18.4434 -104.961c-0.77832 -0.991211 -1.24219 -2.00586 -2.02832 -2.99707c-35.6611 -45.0518 -161.811 -174.276 -389.231 -174.276c-49.6055 0 -91.668 15.6748 -127.816 39.876c-36.1406 24.209 -54.7969 54.4746 -74.4209 90.7178
c-19.6553 36.2031 -24.9092 75.7725 -26.4189 118.614c-0.700195 19.7568 0.582031 39.915 3.65723 60.459h-141.046l2.72168 13.4805h140.613c3.7207 19.7734 9.06152 39.8848 16.2109 60.373c0.283203 0.818359 0.621094 1.62109 0.912109 2.43945h-145.065
l2.72168 13.4805h147.417c16.375 41.1504 40.3242 81.6875 71.9189 121.604c35.6367 45.0205 75.0889 81.8213 118.355 110.396c43.251 28.5742 87.3037 48.7881 132.159 60.6328c44.8076 11.8369 88.9473 14.7471 132.497 8.73047
c17.248 -2.39844 33.4424 -7.33008 49.5264 -12.5762c24.5234 -7.99902 48.1738 -18.1924 70 -32.8135z" />
    <glyph glyph-name="trademark" unicode="&#x2122;" horiz-adv-x="580" 
d="M219.508 655.671l-53.1465 -263.601h32.5068l-1.97461 -9.76855h-108.178l1.97461 9.76855h32.5068l53.1523 263.601h-16.3828c-34.3076 0 -72.8779 -19.0732 -80.2393 -55.5361l-0.628906 -3.1543h-9.95703l13.8428 68.6396h234.343l-13.8428 -68.6396h-9.94922
l0.628906 3.1543c7.35352 36.4551 -23.5332 55.5361 -57.8408 55.5361h-16.8154zM540.641 392.141l27.2354 -0.015625l-1.98242 -9.83105h-207.326l1.98242 9.83105h32.9082l-13.8037 99.1328l-45.1221 -56.4795c-0.652344 -0.793945 -1.27344 -1.49414 -1.91016 -2.19434
l-1.11719 -1.25098c-24.209 -27.9531 -52.4131 -46.9238 -75.4424 -50.7383c-2.7998 -0.47168 -5.51367 -0.700195 -8.08594 -0.700195c-8.4082 0 -15.5498 2.44629 -20.9609 7.23633c-21.0947 18.7188 -10.9561 68.1279 23.6113 114.926l1.02246 1.42383
c0.519531 0.739258 1.05469 1.47852 1.62109 2.21777l4.79785 6.02441l138.797 171.279l18.6562 -132.913l50.1641 62.9209l-3.2959 23.6816l37.4697 46.334zM338.905 454.04l39.1123 49.0088l-16.8232 122.271l-94.7285 -116.853
c-25.8525 -35.1416 -28.4561 -67.4678 -6.94434 -86.541c7.95996 -7.05469 17.1152 -9.67383 27.2617 -7.77832c15.7148 2.94922 33.2539 16.3672 52.1221 39.8916zM437.675 392.143h58.7363l-29.0615 208.931l-50.1719 -62.8193z" />
    </font>
</defs>
</svg>
